M48
;DRILL file {KiCad 5.0.2-bee76a0~70~ubuntu16.04.1} date Wed 15 Jan 2020 21:00:29 GMT
;FORMAT={-:-/ absolute / inch / decimal}
FMAT,2
INCH,TZ
T1C0.0157
T2C0.0315
T3C0.0354
T4C0.0394
%
G90
G05
T1
X5.61Y-4.16
X5.65Y-2.18
X5.6547Y-3.1467
X5.6606Y-2.5846
X5.6606Y-2.9764
X5.6695Y-3.9488
X5.6764Y-3.0561
X5.6774Y-4.3829
X5.6838Y-3.1786
X5.6911Y-3.5827
X5.6921Y-3.7431
X5.6957Y-4.3406
X5.698Y-3.8327
X5.702Y-3.9157
X5.7069Y-2.7756
X5.7222Y-4.296
X5.7335Y-3.1467
X5.7364Y-3.9469
X5.7433Y-2.6772
X5.7472Y-3.4626
X5.7541Y-4.2579
X5.761Y-2.9774
X5.7669Y-3.1919
X5.7679Y-3.0335
X5.7728Y-3.9134
X5.83Y-4.43
X5.8783Y-4.3453
X5.9008Y-3.0217
X5.9028Y-2.6181
X5.9028Y-3.4252
X5.9028Y-4.2283
X5.9116Y-3.8238
X5.95Y-2.7283
X5.95Y-3.1289
X5.95Y-3.5354
X5.95Y-3.937
X5.951Y-4.3423
X5.9772Y-4.3803
X5.9992Y-3.0502
X6.0002Y-2.9902
X6.0689Y-2.2697
X6.0733Y-4.4137
T2
X5.8063Y-2.2047
X5.9402Y-2.2047
T3
X5.8Y-3.7
X5.85Y-3.7
X5.9Y-3.7
X5.95Y-3.7
X5.8Y-2.9
X5.85Y-2.9
X5.9Y-2.9
X5.95Y-2.9
X5.8Y-2.5
X5.85Y-2.5
X5.9Y-2.5
X5.95Y-2.5
X5.8Y-3.3
X5.85Y-3.3
X5.9Y-3.3
X5.95Y-3.3
X5.8Y-4.1
X5.85Y-4.1
X5.9Y-4.1
X5.95Y-4.1
T4
X5.5799Y-4.498
X5.6799Y-4.498
X5.7799Y-4.498
X5.8799Y-4.498
X5.9799Y-4.498
X6.0799Y-4.498
X6.1799Y-4.498
T0
M30
