G04 #@! TF.GenerationSoftware,KiCad,Pcbnew,5.0.2-bee76a0~70~ubuntu16.04.1*
G04 #@! TF.CreationDate,2020-01-15T21:00:25+00:00*
G04 #@! TF.ProjectId,receiver,72656365-6976-4657-922e-6b696361645f,rev?*
G04 #@! TF.SameCoordinates,Original*
G04 #@! TF.FileFunction,Soldermask,Bot*
G04 #@! TF.FilePolarity,Negative*
%FSLAX46Y46*%
G04 Gerber Fmt 4.6, Leading zero omitted, Abs format (unit mm)*
G04 Created by KiCad (PCBNEW 5.0.2-bee76a0~70~ubuntu16.04.1) date Wed 15 Jan 2020 21:00:25 GMT*
%MOMM*%
%LPD*%
G01*
G04 APERTURE LIST*
%ADD10C,0.150000*%
%ADD11C,0.127000*%
%ADD12C,0.076200*%
%ADD13C,0.101600*%
%ADD14C,0.500000*%
%ADD15C,0.950000*%
%ADD16R,1.700000X1.700000*%
%ADD17O,1.700000X1.700000*%
%ADD18C,1.500000*%
%ADD19R,1.500000X0.450000*%
%ADD20R,1.070000X1.800000*%
%ADD21O,1.070000X1.800000*%
G04 APERTURE END LIST*
D10*
G04 #@! TO.C,REF\002A\002A*
X142657623Y-59046000D02*
G75*
G03X142657623Y-59046000I-31623J0D01*
G01*
D11*
X143176000Y-59126000D02*
G75*
G03X143176000Y-59126000I-410000J0D01*
G01*
D10*
X142937623Y-59046000D02*
G75*
G03X142937623Y-59046000I-31623J0D01*
G01*
D12*
X142956000Y-59266000D02*
X142836000Y-59336000D01*
X142836000Y-59336000D02*
X142706000Y-59326000D01*
X142706000Y-59326000D02*
X142586000Y-59236000D01*
D13*
X142876000Y-58656000D02*
X143146000Y-58516000D01*
X143146000Y-58516000D02*
X143426000Y-58586000D01*
X143426000Y-58586000D02*
X143536000Y-58776000D01*
X143536000Y-58776000D02*
X143426000Y-58946000D01*
X143426000Y-58946000D02*
X143216000Y-58996000D01*
X143206000Y-59066000D02*
X143476000Y-59116000D01*
X143476000Y-59116000D02*
X143566000Y-59266000D01*
X143566000Y-59266000D02*
X143526000Y-59396000D01*
X143526000Y-59396000D02*
X143406000Y-59476000D01*
X143406000Y-59476000D02*
X143156000Y-59416000D01*
X143136000Y-59436000D02*
X143216000Y-59636000D01*
X143216000Y-59636000D02*
X143206000Y-59826000D01*
X143206000Y-59826000D02*
X143096000Y-59866000D01*
X143096000Y-59866000D02*
X142976000Y-59826000D01*
X142976000Y-59826000D02*
X142916000Y-59716000D01*
X142916000Y-59716000D02*
X142896000Y-59606000D01*
X142896000Y-59606000D02*
X142876000Y-59586000D01*
X142876000Y-59586000D02*
X142906000Y-59606000D01*
X142906000Y-59606000D02*
X142916000Y-59576000D01*
X142806000Y-58696000D02*
X142716000Y-58426000D01*
X142716000Y-58426000D02*
X142556000Y-58366000D01*
X142556000Y-58366000D02*
X142386000Y-58396000D01*
X142386000Y-58396000D02*
X142336000Y-58506000D01*
X142336000Y-58506000D02*
X142356000Y-58616000D01*
X142356000Y-58616000D02*
X142446000Y-58756000D01*
X142476000Y-58746000D02*
X142106000Y-58736000D01*
X142106000Y-58736000D02*
X141996000Y-58836000D01*
X141996000Y-58836000D02*
X141976000Y-58986000D01*
X141976000Y-58986000D02*
X142076000Y-59056000D01*
X142076000Y-59056000D02*
X142226000Y-59066000D01*
X142226000Y-59066000D02*
X142326000Y-59066000D01*
X142326000Y-59096000D02*
X142146000Y-59206000D01*
X142146000Y-59206000D02*
X142046000Y-59346000D01*
X142046000Y-59346000D02*
X142046000Y-59486000D01*
X142046000Y-59486000D02*
X142086000Y-59586000D01*
X142086000Y-59586000D02*
X142196000Y-59626000D01*
X142196000Y-59626000D02*
X142326000Y-59596000D01*
X142326000Y-59596000D02*
X142416000Y-59466000D01*
X142846000Y-59596000D02*
X142776000Y-59786000D01*
X142776000Y-59786000D02*
X142656000Y-59916000D01*
X142656000Y-59916000D02*
X142536000Y-59886000D01*
X142536000Y-59886000D02*
X142486000Y-59796000D01*
X142486000Y-59796000D02*
X142506000Y-59696000D01*
X142506000Y-59696000D02*
X142506000Y-59526000D01*
X142876000Y-59686000D02*
X142786000Y-60116000D01*
X142786000Y-60116000D02*
X142566000Y-60416000D01*
X142566000Y-60416000D02*
X142446000Y-60696000D01*
X142446000Y-60696000D02*
X142486000Y-60916000D01*
X142486000Y-60916000D02*
X142326000Y-60396000D01*
G04 #@! TD*
D14*
G04 #@! TO.C,R3*
G36*
X154415779Y-63276144D02*
X154438834Y-63279563D01*
X154461443Y-63285227D01*
X154483387Y-63293079D01*
X154504457Y-63303044D01*
X154524448Y-63315026D01*
X154543168Y-63328910D01*
X154560438Y-63344562D01*
X154576090Y-63361832D01*
X154589974Y-63380552D01*
X154601956Y-63400543D01*
X154611921Y-63421613D01*
X154619773Y-63443557D01*
X154625437Y-63466166D01*
X154628856Y-63489221D01*
X154630000Y-63512500D01*
X154630000Y-63987500D01*
X154628856Y-64010779D01*
X154625437Y-64033834D01*
X154619773Y-64056443D01*
X154611921Y-64078387D01*
X154601956Y-64099457D01*
X154589974Y-64119448D01*
X154576090Y-64138168D01*
X154560438Y-64155438D01*
X154543168Y-64171090D01*
X154524448Y-64184974D01*
X154504457Y-64196956D01*
X154483387Y-64206921D01*
X154461443Y-64214773D01*
X154438834Y-64220437D01*
X154415779Y-64223856D01*
X154392500Y-64225000D01*
X153817500Y-64225000D01*
X153794221Y-64223856D01*
X153771166Y-64220437D01*
X153748557Y-64214773D01*
X153726613Y-64206921D01*
X153705543Y-64196956D01*
X153685552Y-64184974D01*
X153666832Y-64171090D01*
X153649562Y-64155438D01*
X153633910Y-64138168D01*
X153620026Y-64119448D01*
X153608044Y-64099457D01*
X153598079Y-64078387D01*
X153590227Y-64056443D01*
X153584563Y-64033834D01*
X153581144Y-64010779D01*
X153580000Y-63987500D01*
X153580000Y-63512500D01*
X153581144Y-63489221D01*
X153584563Y-63466166D01*
X153590227Y-63443557D01*
X153598079Y-63421613D01*
X153608044Y-63400543D01*
X153620026Y-63380552D01*
X153633910Y-63361832D01*
X153649562Y-63344562D01*
X153666832Y-63328910D01*
X153685552Y-63315026D01*
X153705543Y-63303044D01*
X153726613Y-63293079D01*
X153748557Y-63285227D01*
X153771166Y-63279563D01*
X153794221Y-63276144D01*
X153817500Y-63275000D01*
X154392500Y-63275000D01*
X154415779Y-63276144D01*
X154415779Y-63276144D01*
G37*
D15*
X154105000Y-63750000D03*
D14*
G36*
X156165779Y-63276144D02*
X156188834Y-63279563D01*
X156211443Y-63285227D01*
X156233387Y-63293079D01*
X156254457Y-63303044D01*
X156274448Y-63315026D01*
X156293168Y-63328910D01*
X156310438Y-63344562D01*
X156326090Y-63361832D01*
X156339974Y-63380552D01*
X156351956Y-63400543D01*
X156361921Y-63421613D01*
X156369773Y-63443557D01*
X156375437Y-63466166D01*
X156378856Y-63489221D01*
X156380000Y-63512500D01*
X156380000Y-63987500D01*
X156378856Y-64010779D01*
X156375437Y-64033834D01*
X156369773Y-64056443D01*
X156361921Y-64078387D01*
X156351956Y-64099457D01*
X156339974Y-64119448D01*
X156326090Y-64138168D01*
X156310438Y-64155438D01*
X156293168Y-64171090D01*
X156274448Y-64184974D01*
X156254457Y-64196956D01*
X156233387Y-64206921D01*
X156211443Y-64214773D01*
X156188834Y-64220437D01*
X156165779Y-64223856D01*
X156142500Y-64225000D01*
X155567500Y-64225000D01*
X155544221Y-64223856D01*
X155521166Y-64220437D01*
X155498557Y-64214773D01*
X155476613Y-64206921D01*
X155455543Y-64196956D01*
X155435552Y-64184974D01*
X155416832Y-64171090D01*
X155399562Y-64155438D01*
X155383910Y-64138168D01*
X155370026Y-64119448D01*
X155358044Y-64099457D01*
X155348079Y-64078387D01*
X155340227Y-64056443D01*
X155334563Y-64033834D01*
X155331144Y-64010779D01*
X155330000Y-63987500D01*
X155330000Y-63512500D01*
X155331144Y-63489221D01*
X155334563Y-63466166D01*
X155340227Y-63443557D01*
X155348079Y-63421613D01*
X155358044Y-63400543D01*
X155370026Y-63380552D01*
X155383910Y-63361832D01*
X155399562Y-63344562D01*
X155416832Y-63328910D01*
X155435552Y-63315026D01*
X155455543Y-63303044D01*
X155476613Y-63293079D01*
X155498557Y-63285227D01*
X155521166Y-63279563D01*
X155544221Y-63276144D01*
X155567500Y-63275000D01*
X156142500Y-63275000D01*
X156165779Y-63276144D01*
X156165779Y-63276144D01*
G37*
D15*
X155855000Y-63750000D03*
G04 #@! TD*
D14*
G04 #@! TO.C,C1*
G36*
X142917779Y-73176144D02*
X142940834Y-73179563D01*
X142963443Y-73185227D01*
X142985387Y-73193079D01*
X143006457Y-73203044D01*
X143026448Y-73215026D01*
X143045168Y-73228910D01*
X143062438Y-73244562D01*
X143078090Y-73261832D01*
X143091974Y-73280552D01*
X143103956Y-73300543D01*
X143113921Y-73321613D01*
X143121773Y-73343557D01*
X143127437Y-73366166D01*
X143130856Y-73389221D01*
X143132000Y-73412500D01*
X143132000Y-73887500D01*
X143130856Y-73910779D01*
X143127437Y-73933834D01*
X143121773Y-73956443D01*
X143113921Y-73978387D01*
X143103956Y-73999457D01*
X143091974Y-74019448D01*
X143078090Y-74038168D01*
X143062438Y-74055438D01*
X143045168Y-74071090D01*
X143026448Y-74084974D01*
X143006457Y-74096956D01*
X142985387Y-74106921D01*
X142963443Y-74114773D01*
X142940834Y-74120437D01*
X142917779Y-74123856D01*
X142894500Y-74125000D01*
X142319500Y-74125000D01*
X142296221Y-74123856D01*
X142273166Y-74120437D01*
X142250557Y-74114773D01*
X142228613Y-74106921D01*
X142207543Y-74096956D01*
X142187552Y-74084974D01*
X142168832Y-74071090D01*
X142151562Y-74055438D01*
X142135910Y-74038168D01*
X142122026Y-74019448D01*
X142110044Y-73999457D01*
X142100079Y-73978387D01*
X142092227Y-73956443D01*
X142086563Y-73933834D01*
X142083144Y-73910779D01*
X142082000Y-73887500D01*
X142082000Y-73412500D01*
X142083144Y-73389221D01*
X142086563Y-73366166D01*
X142092227Y-73343557D01*
X142100079Y-73321613D01*
X142110044Y-73300543D01*
X142122026Y-73280552D01*
X142135910Y-73261832D01*
X142151562Y-73244562D01*
X142168832Y-73228910D01*
X142187552Y-73215026D01*
X142207543Y-73203044D01*
X142228613Y-73193079D01*
X142250557Y-73185227D01*
X142273166Y-73179563D01*
X142296221Y-73176144D01*
X142319500Y-73175000D01*
X142894500Y-73175000D01*
X142917779Y-73176144D01*
X142917779Y-73176144D01*
G37*
D15*
X142607000Y-73650000D03*
D14*
G36*
X141167779Y-73176144D02*
X141190834Y-73179563D01*
X141213443Y-73185227D01*
X141235387Y-73193079D01*
X141256457Y-73203044D01*
X141276448Y-73215026D01*
X141295168Y-73228910D01*
X141312438Y-73244562D01*
X141328090Y-73261832D01*
X141341974Y-73280552D01*
X141353956Y-73300543D01*
X141363921Y-73321613D01*
X141371773Y-73343557D01*
X141377437Y-73366166D01*
X141380856Y-73389221D01*
X141382000Y-73412500D01*
X141382000Y-73887500D01*
X141380856Y-73910779D01*
X141377437Y-73933834D01*
X141371773Y-73956443D01*
X141363921Y-73978387D01*
X141353956Y-73999457D01*
X141341974Y-74019448D01*
X141328090Y-74038168D01*
X141312438Y-74055438D01*
X141295168Y-74071090D01*
X141276448Y-74084974D01*
X141256457Y-74096956D01*
X141235387Y-74106921D01*
X141213443Y-74114773D01*
X141190834Y-74120437D01*
X141167779Y-74123856D01*
X141144500Y-74125000D01*
X140569500Y-74125000D01*
X140546221Y-74123856D01*
X140523166Y-74120437D01*
X140500557Y-74114773D01*
X140478613Y-74106921D01*
X140457543Y-74096956D01*
X140437552Y-74084974D01*
X140418832Y-74071090D01*
X140401562Y-74055438D01*
X140385910Y-74038168D01*
X140372026Y-74019448D01*
X140360044Y-73999457D01*
X140350079Y-73978387D01*
X140342227Y-73956443D01*
X140336563Y-73933834D01*
X140333144Y-73910779D01*
X140332000Y-73887500D01*
X140332000Y-73412500D01*
X140333144Y-73389221D01*
X140336563Y-73366166D01*
X140342227Y-73343557D01*
X140350079Y-73321613D01*
X140360044Y-73300543D01*
X140372026Y-73280552D01*
X140385910Y-73261832D01*
X140401562Y-73244562D01*
X140418832Y-73228910D01*
X140437552Y-73215026D01*
X140457543Y-73203044D01*
X140478613Y-73193079D01*
X140500557Y-73185227D01*
X140523166Y-73179563D01*
X140546221Y-73176144D01*
X140569500Y-73175000D01*
X141144500Y-73175000D01*
X141167779Y-73176144D01*
X141167779Y-73176144D01*
G37*
D15*
X140857000Y-73650000D03*
G04 #@! TD*
D14*
G04 #@! TO.C,C2*
G36*
X141167779Y-94268144D02*
X141190834Y-94271563D01*
X141213443Y-94277227D01*
X141235387Y-94285079D01*
X141256457Y-94295044D01*
X141276448Y-94307026D01*
X141295168Y-94320910D01*
X141312438Y-94336562D01*
X141328090Y-94353832D01*
X141341974Y-94372552D01*
X141353956Y-94392543D01*
X141363921Y-94413613D01*
X141371773Y-94435557D01*
X141377437Y-94458166D01*
X141380856Y-94481221D01*
X141382000Y-94504500D01*
X141382000Y-94979500D01*
X141380856Y-95002779D01*
X141377437Y-95025834D01*
X141371773Y-95048443D01*
X141363921Y-95070387D01*
X141353956Y-95091457D01*
X141341974Y-95111448D01*
X141328090Y-95130168D01*
X141312438Y-95147438D01*
X141295168Y-95163090D01*
X141276448Y-95176974D01*
X141256457Y-95188956D01*
X141235387Y-95198921D01*
X141213443Y-95206773D01*
X141190834Y-95212437D01*
X141167779Y-95215856D01*
X141144500Y-95217000D01*
X140569500Y-95217000D01*
X140546221Y-95215856D01*
X140523166Y-95212437D01*
X140500557Y-95206773D01*
X140478613Y-95198921D01*
X140457543Y-95188956D01*
X140437552Y-95176974D01*
X140418832Y-95163090D01*
X140401562Y-95147438D01*
X140385910Y-95130168D01*
X140372026Y-95111448D01*
X140360044Y-95091457D01*
X140350079Y-95070387D01*
X140342227Y-95048443D01*
X140336563Y-95025834D01*
X140333144Y-95002779D01*
X140332000Y-94979500D01*
X140332000Y-94504500D01*
X140333144Y-94481221D01*
X140336563Y-94458166D01*
X140342227Y-94435557D01*
X140350079Y-94413613D01*
X140360044Y-94392543D01*
X140372026Y-94372552D01*
X140385910Y-94353832D01*
X140401562Y-94336562D01*
X140418832Y-94320910D01*
X140437552Y-94307026D01*
X140457543Y-94295044D01*
X140478613Y-94285079D01*
X140500557Y-94277227D01*
X140523166Y-94271563D01*
X140546221Y-94268144D01*
X140569500Y-94267000D01*
X141144500Y-94267000D01*
X141167779Y-94268144D01*
X141167779Y-94268144D01*
G37*
D15*
X140857000Y-94742000D03*
D14*
G36*
X142917779Y-94268144D02*
X142940834Y-94271563D01*
X142963443Y-94277227D01*
X142985387Y-94285079D01*
X143006457Y-94295044D01*
X143026448Y-94307026D01*
X143045168Y-94320910D01*
X143062438Y-94336562D01*
X143078090Y-94353832D01*
X143091974Y-94372552D01*
X143103956Y-94392543D01*
X143113921Y-94413613D01*
X143121773Y-94435557D01*
X143127437Y-94458166D01*
X143130856Y-94481221D01*
X143132000Y-94504500D01*
X143132000Y-94979500D01*
X143130856Y-95002779D01*
X143127437Y-95025834D01*
X143121773Y-95048443D01*
X143113921Y-95070387D01*
X143103956Y-95091457D01*
X143091974Y-95111448D01*
X143078090Y-95130168D01*
X143062438Y-95147438D01*
X143045168Y-95163090D01*
X143026448Y-95176974D01*
X143006457Y-95188956D01*
X142985387Y-95198921D01*
X142963443Y-95206773D01*
X142940834Y-95212437D01*
X142917779Y-95215856D01*
X142894500Y-95217000D01*
X142319500Y-95217000D01*
X142296221Y-95215856D01*
X142273166Y-95212437D01*
X142250557Y-95206773D01*
X142228613Y-95198921D01*
X142207543Y-95188956D01*
X142187552Y-95176974D01*
X142168832Y-95163090D01*
X142151562Y-95147438D01*
X142135910Y-95130168D01*
X142122026Y-95111448D01*
X142110044Y-95091457D01*
X142100079Y-95070387D01*
X142092227Y-95048443D01*
X142086563Y-95025834D01*
X142083144Y-95002779D01*
X142082000Y-94979500D01*
X142082000Y-94504500D01*
X142083144Y-94481221D01*
X142086563Y-94458166D01*
X142092227Y-94435557D01*
X142100079Y-94413613D01*
X142110044Y-94392543D01*
X142122026Y-94372552D01*
X142135910Y-94353832D01*
X142151562Y-94336562D01*
X142168832Y-94320910D01*
X142187552Y-94307026D01*
X142207543Y-94295044D01*
X142228613Y-94285079D01*
X142250557Y-94277227D01*
X142273166Y-94271563D01*
X142296221Y-94268144D01*
X142319500Y-94267000D01*
X142894500Y-94267000D01*
X142917779Y-94268144D01*
X142917779Y-94268144D01*
G37*
D15*
X142607000Y-94742000D03*
G04 #@! TD*
D16*
G04 #@! TO.C,J1*
X141730000Y-114250000D03*
D17*
X144270000Y-114250000D03*
X146810000Y-114250000D03*
X149350000Y-114250000D03*
X151890000Y-114250000D03*
X154430000Y-114250000D03*
X156970000Y-114250000D03*
G04 #@! TD*
D18*
G04 #@! TO.C,R1*
X147480000Y-56000000D03*
X150880000Y-56000000D03*
G04 #@! TD*
D14*
G04 #@! TO.C,R2*
G36*
X156135779Y-55576144D02*
X156158834Y-55579563D01*
X156181443Y-55585227D01*
X156203387Y-55593079D01*
X156224457Y-55603044D01*
X156244448Y-55615026D01*
X156263168Y-55628910D01*
X156280438Y-55644562D01*
X156296090Y-55661832D01*
X156309974Y-55680552D01*
X156321956Y-55700543D01*
X156331921Y-55721613D01*
X156339773Y-55743557D01*
X156345437Y-55766166D01*
X156348856Y-55789221D01*
X156350000Y-55812500D01*
X156350000Y-56287500D01*
X156348856Y-56310779D01*
X156345437Y-56333834D01*
X156339773Y-56356443D01*
X156331921Y-56378387D01*
X156321956Y-56399457D01*
X156309974Y-56419448D01*
X156296090Y-56438168D01*
X156280438Y-56455438D01*
X156263168Y-56471090D01*
X156244448Y-56484974D01*
X156224457Y-56496956D01*
X156203387Y-56506921D01*
X156181443Y-56514773D01*
X156158834Y-56520437D01*
X156135779Y-56523856D01*
X156112500Y-56525000D01*
X155537500Y-56525000D01*
X155514221Y-56523856D01*
X155491166Y-56520437D01*
X155468557Y-56514773D01*
X155446613Y-56506921D01*
X155425543Y-56496956D01*
X155405552Y-56484974D01*
X155386832Y-56471090D01*
X155369562Y-56455438D01*
X155353910Y-56438168D01*
X155340026Y-56419448D01*
X155328044Y-56399457D01*
X155318079Y-56378387D01*
X155310227Y-56356443D01*
X155304563Y-56333834D01*
X155301144Y-56310779D01*
X155300000Y-56287500D01*
X155300000Y-55812500D01*
X155301144Y-55789221D01*
X155304563Y-55766166D01*
X155310227Y-55743557D01*
X155318079Y-55721613D01*
X155328044Y-55700543D01*
X155340026Y-55680552D01*
X155353910Y-55661832D01*
X155369562Y-55644562D01*
X155386832Y-55628910D01*
X155405552Y-55615026D01*
X155425543Y-55603044D01*
X155446613Y-55593079D01*
X155468557Y-55585227D01*
X155491166Y-55579563D01*
X155514221Y-55576144D01*
X155537500Y-55575000D01*
X156112500Y-55575000D01*
X156135779Y-55576144D01*
X156135779Y-55576144D01*
G37*
D15*
X155825000Y-56050000D03*
D14*
G36*
X154385779Y-55576144D02*
X154408834Y-55579563D01*
X154431443Y-55585227D01*
X154453387Y-55593079D01*
X154474457Y-55603044D01*
X154494448Y-55615026D01*
X154513168Y-55628910D01*
X154530438Y-55644562D01*
X154546090Y-55661832D01*
X154559974Y-55680552D01*
X154571956Y-55700543D01*
X154581921Y-55721613D01*
X154589773Y-55743557D01*
X154595437Y-55766166D01*
X154598856Y-55789221D01*
X154600000Y-55812500D01*
X154600000Y-56287500D01*
X154598856Y-56310779D01*
X154595437Y-56333834D01*
X154589773Y-56356443D01*
X154581921Y-56378387D01*
X154571956Y-56399457D01*
X154559974Y-56419448D01*
X154546090Y-56438168D01*
X154530438Y-56455438D01*
X154513168Y-56471090D01*
X154494448Y-56484974D01*
X154474457Y-56496956D01*
X154453387Y-56506921D01*
X154431443Y-56514773D01*
X154408834Y-56520437D01*
X154385779Y-56523856D01*
X154362500Y-56525000D01*
X153787500Y-56525000D01*
X153764221Y-56523856D01*
X153741166Y-56520437D01*
X153718557Y-56514773D01*
X153696613Y-56506921D01*
X153675543Y-56496956D01*
X153655552Y-56484974D01*
X153636832Y-56471090D01*
X153619562Y-56455438D01*
X153603910Y-56438168D01*
X153590026Y-56419448D01*
X153578044Y-56399457D01*
X153568079Y-56378387D01*
X153560227Y-56356443D01*
X153554563Y-56333834D01*
X153551144Y-56310779D01*
X153550000Y-56287500D01*
X153550000Y-55812500D01*
X153551144Y-55789221D01*
X153554563Y-55766166D01*
X153560227Y-55743557D01*
X153568079Y-55721613D01*
X153578044Y-55700543D01*
X153590026Y-55680552D01*
X153603910Y-55661832D01*
X153619562Y-55644562D01*
X153636832Y-55628910D01*
X153655552Y-55615026D01*
X153675543Y-55603044D01*
X153696613Y-55593079D01*
X153718557Y-55585227D01*
X153741166Y-55579563D01*
X153764221Y-55576144D01*
X153787500Y-55575000D01*
X154362500Y-55575000D01*
X154385779Y-55576144D01*
X154385779Y-55576144D01*
G37*
D15*
X154075000Y-56050000D03*
G04 #@! TD*
D14*
G04 #@! TO.C,R4*
G36*
X156165779Y-94026144D02*
X156188834Y-94029563D01*
X156211443Y-94035227D01*
X156233387Y-94043079D01*
X156254457Y-94053044D01*
X156274448Y-94065026D01*
X156293168Y-94078910D01*
X156310438Y-94094562D01*
X156326090Y-94111832D01*
X156339974Y-94130552D01*
X156351956Y-94150543D01*
X156361921Y-94171613D01*
X156369773Y-94193557D01*
X156375437Y-94216166D01*
X156378856Y-94239221D01*
X156380000Y-94262500D01*
X156380000Y-94737500D01*
X156378856Y-94760779D01*
X156375437Y-94783834D01*
X156369773Y-94806443D01*
X156361921Y-94828387D01*
X156351956Y-94849457D01*
X156339974Y-94869448D01*
X156326090Y-94888168D01*
X156310438Y-94905438D01*
X156293168Y-94921090D01*
X156274448Y-94934974D01*
X156254457Y-94946956D01*
X156233387Y-94956921D01*
X156211443Y-94964773D01*
X156188834Y-94970437D01*
X156165779Y-94973856D01*
X156142500Y-94975000D01*
X155567500Y-94975000D01*
X155544221Y-94973856D01*
X155521166Y-94970437D01*
X155498557Y-94964773D01*
X155476613Y-94956921D01*
X155455543Y-94946956D01*
X155435552Y-94934974D01*
X155416832Y-94921090D01*
X155399562Y-94905438D01*
X155383910Y-94888168D01*
X155370026Y-94869448D01*
X155358044Y-94849457D01*
X155348079Y-94828387D01*
X155340227Y-94806443D01*
X155334563Y-94783834D01*
X155331144Y-94760779D01*
X155330000Y-94737500D01*
X155330000Y-94262500D01*
X155331144Y-94239221D01*
X155334563Y-94216166D01*
X155340227Y-94193557D01*
X155348079Y-94171613D01*
X155358044Y-94150543D01*
X155370026Y-94130552D01*
X155383910Y-94111832D01*
X155399562Y-94094562D01*
X155416832Y-94078910D01*
X155435552Y-94065026D01*
X155455543Y-94053044D01*
X155476613Y-94043079D01*
X155498557Y-94035227D01*
X155521166Y-94029563D01*
X155544221Y-94026144D01*
X155567500Y-94025000D01*
X156142500Y-94025000D01*
X156165779Y-94026144D01*
X156165779Y-94026144D01*
G37*
D15*
X155855000Y-94500000D03*
D14*
G36*
X154415779Y-94026144D02*
X154438834Y-94029563D01*
X154461443Y-94035227D01*
X154483387Y-94043079D01*
X154504457Y-94053044D01*
X154524448Y-94065026D01*
X154543168Y-94078910D01*
X154560438Y-94094562D01*
X154576090Y-94111832D01*
X154589974Y-94130552D01*
X154601956Y-94150543D01*
X154611921Y-94171613D01*
X154619773Y-94193557D01*
X154625437Y-94216166D01*
X154628856Y-94239221D01*
X154630000Y-94262500D01*
X154630000Y-94737500D01*
X154628856Y-94760779D01*
X154625437Y-94783834D01*
X154619773Y-94806443D01*
X154611921Y-94828387D01*
X154601956Y-94849457D01*
X154589974Y-94869448D01*
X154576090Y-94888168D01*
X154560438Y-94905438D01*
X154543168Y-94921090D01*
X154524448Y-94934974D01*
X154504457Y-94946956D01*
X154483387Y-94956921D01*
X154461443Y-94964773D01*
X154438834Y-94970437D01*
X154415779Y-94973856D01*
X154392500Y-94975000D01*
X153817500Y-94975000D01*
X153794221Y-94973856D01*
X153771166Y-94970437D01*
X153748557Y-94964773D01*
X153726613Y-94956921D01*
X153705543Y-94946956D01*
X153685552Y-94934974D01*
X153666832Y-94921090D01*
X153649562Y-94905438D01*
X153633910Y-94888168D01*
X153620026Y-94869448D01*
X153608044Y-94849457D01*
X153598079Y-94828387D01*
X153590227Y-94806443D01*
X153584563Y-94783834D01*
X153581144Y-94760779D01*
X153580000Y-94737500D01*
X153580000Y-94262500D01*
X153581144Y-94239221D01*
X153584563Y-94216166D01*
X153590227Y-94193557D01*
X153598079Y-94171613D01*
X153608044Y-94150543D01*
X153620026Y-94130552D01*
X153633910Y-94111832D01*
X153649562Y-94094562D01*
X153666832Y-94078910D01*
X153685552Y-94065026D01*
X153705543Y-94053044D01*
X153726613Y-94043079D01*
X153748557Y-94035227D01*
X153771166Y-94029563D01*
X153794221Y-94026144D01*
X153817500Y-94025000D01*
X154392500Y-94025000D01*
X154415779Y-94026144D01*
X154415779Y-94026144D01*
G37*
D15*
X154105000Y-94500000D03*
G04 #@! TD*
D14*
G04 #@! TO.C,R6*
G36*
X156165779Y-66026144D02*
X156188834Y-66029563D01*
X156211443Y-66035227D01*
X156233387Y-66043079D01*
X156254457Y-66053044D01*
X156274448Y-66065026D01*
X156293168Y-66078910D01*
X156310438Y-66094562D01*
X156326090Y-66111832D01*
X156339974Y-66130552D01*
X156351956Y-66150543D01*
X156361921Y-66171613D01*
X156369773Y-66193557D01*
X156375437Y-66216166D01*
X156378856Y-66239221D01*
X156380000Y-66262500D01*
X156380000Y-66737500D01*
X156378856Y-66760779D01*
X156375437Y-66783834D01*
X156369773Y-66806443D01*
X156361921Y-66828387D01*
X156351956Y-66849457D01*
X156339974Y-66869448D01*
X156326090Y-66888168D01*
X156310438Y-66905438D01*
X156293168Y-66921090D01*
X156274448Y-66934974D01*
X156254457Y-66946956D01*
X156233387Y-66956921D01*
X156211443Y-66964773D01*
X156188834Y-66970437D01*
X156165779Y-66973856D01*
X156142500Y-66975000D01*
X155567500Y-66975000D01*
X155544221Y-66973856D01*
X155521166Y-66970437D01*
X155498557Y-66964773D01*
X155476613Y-66956921D01*
X155455543Y-66946956D01*
X155435552Y-66934974D01*
X155416832Y-66921090D01*
X155399562Y-66905438D01*
X155383910Y-66888168D01*
X155370026Y-66869448D01*
X155358044Y-66849457D01*
X155348079Y-66828387D01*
X155340227Y-66806443D01*
X155334563Y-66783834D01*
X155331144Y-66760779D01*
X155330000Y-66737500D01*
X155330000Y-66262500D01*
X155331144Y-66239221D01*
X155334563Y-66216166D01*
X155340227Y-66193557D01*
X155348079Y-66171613D01*
X155358044Y-66150543D01*
X155370026Y-66130552D01*
X155383910Y-66111832D01*
X155399562Y-66094562D01*
X155416832Y-66078910D01*
X155435552Y-66065026D01*
X155455543Y-66053044D01*
X155476613Y-66043079D01*
X155498557Y-66035227D01*
X155521166Y-66029563D01*
X155544221Y-66026144D01*
X155567500Y-66025000D01*
X156142500Y-66025000D01*
X156165779Y-66026144D01*
X156165779Y-66026144D01*
G37*
D15*
X155855000Y-66500000D03*
D14*
G36*
X154415779Y-66026144D02*
X154438834Y-66029563D01*
X154461443Y-66035227D01*
X154483387Y-66043079D01*
X154504457Y-66053044D01*
X154524448Y-66065026D01*
X154543168Y-66078910D01*
X154560438Y-66094562D01*
X154576090Y-66111832D01*
X154589974Y-66130552D01*
X154601956Y-66150543D01*
X154611921Y-66171613D01*
X154619773Y-66193557D01*
X154625437Y-66216166D01*
X154628856Y-66239221D01*
X154630000Y-66262500D01*
X154630000Y-66737500D01*
X154628856Y-66760779D01*
X154625437Y-66783834D01*
X154619773Y-66806443D01*
X154611921Y-66828387D01*
X154601956Y-66849457D01*
X154589974Y-66869448D01*
X154576090Y-66888168D01*
X154560438Y-66905438D01*
X154543168Y-66921090D01*
X154524448Y-66934974D01*
X154504457Y-66946956D01*
X154483387Y-66956921D01*
X154461443Y-66964773D01*
X154438834Y-66970437D01*
X154415779Y-66973856D01*
X154392500Y-66975000D01*
X153817500Y-66975000D01*
X153794221Y-66973856D01*
X153771166Y-66970437D01*
X153748557Y-66964773D01*
X153726613Y-66956921D01*
X153705543Y-66946956D01*
X153685552Y-66934974D01*
X153666832Y-66921090D01*
X153649562Y-66905438D01*
X153633910Y-66888168D01*
X153620026Y-66869448D01*
X153608044Y-66849457D01*
X153598079Y-66828387D01*
X153590227Y-66806443D01*
X153584563Y-66783834D01*
X153581144Y-66760779D01*
X153580000Y-66737500D01*
X153580000Y-66262500D01*
X153581144Y-66239221D01*
X153584563Y-66216166D01*
X153590227Y-66193557D01*
X153598079Y-66171613D01*
X153608044Y-66150543D01*
X153620026Y-66130552D01*
X153633910Y-66111832D01*
X153649562Y-66094562D01*
X153666832Y-66078910D01*
X153685552Y-66065026D01*
X153705543Y-66053044D01*
X153726613Y-66043079D01*
X153748557Y-66035227D01*
X153771166Y-66029563D01*
X153794221Y-66026144D01*
X153817500Y-66025000D01*
X154392500Y-66025000D01*
X154415779Y-66026144D01*
X154415779Y-66026144D01*
G37*
D15*
X154105000Y-66500000D03*
G04 #@! TD*
D14*
G04 #@! TO.C,R7*
G36*
X154415779Y-96776144D02*
X154438834Y-96779563D01*
X154461443Y-96785227D01*
X154483387Y-96793079D01*
X154504457Y-96803044D01*
X154524448Y-96815026D01*
X154543168Y-96828910D01*
X154560438Y-96844562D01*
X154576090Y-96861832D01*
X154589974Y-96880552D01*
X154601956Y-96900543D01*
X154611921Y-96921613D01*
X154619773Y-96943557D01*
X154625437Y-96966166D01*
X154628856Y-96989221D01*
X154630000Y-97012500D01*
X154630000Y-97487500D01*
X154628856Y-97510779D01*
X154625437Y-97533834D01*
X154619773Y-97556443D01*
X154611921Y-97578387D01*
X154601956Y-97599457D01*
X154589974Y-97619448D01*
X154576090Y-97638168D01*
X154560438Y-97655438D01*
X154543168Y-97671090D01*
X154524448Y-97684974D01*
X154504457Y-97696956D01*
X154483387Y-97706921D01*
X154461443Y-97714773D01*
X154438834Y-97720437D01*
X154415779Y-97723856D01*
X154392500Y-97725000D01*
X153817500Y-97725000D01*
X153794221Y-97723856D01*
X153771166Y-97720437D01*
X153748557Y-97714773D01*
X153726613Y-97706921D01*
X153705543Y-97696956D01*
X153685552Y-97684974D01*
X153666832Y-97671090D01*
X153649562Y-97655438D01*
X153633910Y-97638168D01*
X153620026Y-97619448D01*
X153608044Y-97599457D01*
X153598079Y-97578387D01*
X153590227Y-97556443D01*
X153584563Y-97533834D01*
X153581144Y-97510779D01*
X153580000Y-97487500D01*
X153580000Y-97012500D01*
X153581144Y-96989221D01*
X153584563Y-96966166D01*
X153590227Y-96943557D01*
X153598079Y-96921613D01*
X153608044Y-96900543D01*
X153620026Y-96880552D01*
X153633910Y-96861832D01*
X153649562Y-96844562D01*
X153666832Y-96828910D01*
X153685552Y-96815026D01*
X153705543Y-96803044D01*
X153726613Y-96793079D01*
X153748557Y-96785227D01*
X153771166Y-96779563D01*
X153794221Y-96776144D01*
X153817500Y-96775000D01*
X154392500Y-96775000D01*
X154415779Y-96776144D01*
X154415779Y-96776144D01*
G37*
D15*
X154105000Y-97250000D03*
D14*
G36*
X156165779Y-96776144D02*
X156188834Y-96779563D01*
X156211443Y-96785227D01*
X156233387Y-96793079D01*
X156254457Y-96803044D01*
X156274448Y-96815026D01*
X156293168Y-96828910D01*
X156310438Y-96844562D01*
X156326090Y-96861832D01*
X156339974Y-96880552D01*
X156351956Y-96900543D01*
X156361921Y-96921613D01*
X156369773Y-96943557D01*
X156375437Y-96966166D01*
X156378856Y-96989221D01*
X156380000Y-97012500D01*
X156380000Y-97487500D01*
X156378856Y-97510779D01*
X156375437Y-97533834D01*
X156369773Y-97556443D01*
X156361921Y-97578387D01*
X156351956Y-97599457D01*
X156339974Y-97619448D01*
X156326090Y-97638168D01*
X156310438Y-97655438D01*
X156293168Y-97671090D01*
X156274448Y-97684974D01*
X156254457Y-97696956D01*
X156233387Y-97706921D01*
X156211443Y-97714773D01*
X156188834Y-97720437D01*
X156165779Y-97723856D01*
X156142500Y-97725000D01*
X155567500Y-97725000D01*
X155544221Y-97723856D01*
X155521166Y-97720437D01*
X155498557Y-97714773D01*
X155476613Y-97706921D01*
X155455543Y-97696956D01*
X155435552Y-97684974D01*
X155416832Y-97671090D01*
X155399562Y-97655438D01*
X155383910Y-97638168D01*
X155370026Y-97619448D01*
X155358044Y-97599457D01*
X155348079Y-97578387D01*
X155340227Y-97556443D01*
X155334563Y-97533834D01*
X155331144Y-97510779D01*
X155330000Y-97487500D01*
X155330000Y-97012500D01*
X155331144Y-96989221D01*
X155334563Y-96966166D01*
X155340227Y-96943557D01*
X155348079Y-96921613D01*
X155358044Y-96900543D01*
X155370026Y-96880552D01*
X155383910Y-96861832D01*
X155399562Y-96844562D01*
X155416832Y-96828910D01*
X155435552Y-96815026D01*
X155455543Y-96803044D01*
X155476613Y-96793079D01*
X155498557Y-96785227D01*
X155521166Y-96779563D01*
X155544221Y-96776144D01*
X155567500Y-96775000D01*
X156142500Y-96775000D01*
X156165779Y-96776144D01*
X156165779Y-96776144D01*
G37*
D15*
X155855000Y-97250000D03*
G04 #@! TD*
D14*
G04 #@! TO.C,R9*
G36*
X154415779Y-68776144D02*
X154438834Y-68779563D01*
X154461443Y-68785227D01*
X154483387Y-68793079D01*
X154504457Y-68803044D01*
X154524448Y-68815026D01*
X154543168Y-68828910D01*
X154560438Y-68844562D01*
X154576090Y-68861832D01*
X154589974Y-68880552D01*
X154601956Y-68900543D01*
X154611921Y-68921613D01*
X154619773Y-68943557D01*
X154625437Y-68966166D01*
X154628856Y-68989221D01*
X154630000Y-69012500D01*
X154630000Y-69487500D01*
X154628856Y-69510779D01*
X154625437Y-69533834D01*
X154619773Y-69556443D01*
X154611921Y-69578387D01*
X154601956Y-69599457D01*
X154589974Y-69619448D01*
X154576090Y-69638168D01*
X154560438Y-69655438D01*
X154543168Y-69671090D01*
X154524448Y-69684974D01*
X154504457Y-69696956D01*
X154483387Y-69706921D01*
X154461443Y-69714773D01*
X154438834Y-69720437D01*
X154415779Y-69723856D01*
X154392500Y-69725000D01*
X153817500Y-69725000D01*
X153794221Y-69723856D01*
X153771166Y-69720437D01*
X153748557Y-69714773D01*
X153726613Y-69706921D01*
X153705543Y-69696956D01*
X153685552Y-69684974D01*
X153666832Y-69671090D01*
X153649562Y-69655438D01*
X153633910Y-69638168D01*
X153620026Y-69619448D01*
X153608044Y-69599457D01*
X153598079Y-69578387D01*
X153590227Y-69556443D01*
X153584563Y-69533834D01*
X153581144Y-69510779D01*
X153580000Y-69487500D01*
X153580000Y-69012500D01*
X153581144Y-68989221D01*
X153584563Y-68966166D01*
X153590227Y-68943557D01*
X153598079Y-68921613D01*
X153608044Y-68900543D01*
X153620026Y-68880552D01*
X153633910Y-68861832D01*
X153649562Y-68844562D01*
X153666832Y-68828910D01*
X153685552Y-68815026D01*
X153705543Y-68803044D01*
X153726613Y-68793079D01*
X153748557Y-68785227D01*
X153771166Y-68779563D01*
X153794221Y-68776144D01*
X153817500Y-68775000D01*
X154392500Y-68775000D01*
X154415779Y-68776144D01*
X154415779Y-68776144D01*
G37*
D15*
X154105000Y-69250000D03*
D14*
G36*
X156165779Y-68776144D02*
X156188834Y-68779563D01*
X156211443Y-68785227D01*
X156233387Y-68793079D01*
X156254457Y-68803044D01*
X156274448Y-68815026D01*
X156293168Y-68828910D01*
X156310438Y-68844562D01*
X156326090Y-68861832D01*
X156339974Y-68880552D01*
X156351956Y-68900543D01*
X156361921Y-68921613D01*
X156369773Y-68943557D01*
X156375437Y-68966166D01*
X156378856Y-68989221D01*
X156380000Y-69012500D01*
X156380000Y-69487500D01*
X156378856Y-69510779D01*
X156375437Y-69533834D01*
X156369773Y-69556443D01*
X156361921Y-69578387D01*
X156351956Y-69599457D01*
X156339974Y-69619448D01*
X156326090Y-69638168D01*
X156310438Y-69655438D01*
X156293168Y-69671090D01*
X156274448Y-69684974D01*
X156254457Y-69696956D01*
X156233387Y-69706921D01*
X156211443Y-69714773D01*
X156188834Y-69720437D01*
X156165779Y-69723856D01*
X156142500Y-69725000D01*
X155567500Y-69725000D01*
X155544221Y-69723856D01*
X155521166Y-69720437D01*
X155498557Y-69714773D01*
X155476613Y-69706921D01*
X155455543Y-69696956D01*
X155435552Y-69684974D01*
X155416832Y-69671090D01*
X155399562Y-69655438D01*
X155383910Y-69638168D01*
X155370026Y-69619448D01*
X155358044Y-69599457D01*
X155348079Y-69578387D01*
X155340227Y-69556443D01*
X155334563Y-69533834D01*
X155331144Y-69510779D01*
X155330000Y-69487500D01*
X155330000Y-69012500D01*
X155331144Y-68989221D01*
X155334563Y-68966166D01*
X155340227Y-68943557D01*
X155348079Y-68921613D01*
X155358044Y-68900543D01*
X155370026Y-68880552D01*
X155383910Y-68861832D01*
X155399562Y-68844562D01*
X155416832Y-68828910D01*
X155435552Y-68815026D01*
X155455543Y-68803044D01*
X155476613Y-68793079D01*
X155498557Y-68785227D01*
X155521166Y-68779563D01*
X155544221Y-68776144D01*
X155567500Y-68775000D01*
X156142500Y-68775000D01*
X156165779Y-68776144D01*
X156165779Y-68776144D01*
G37*
D15*
X155855000Y-69250000D03*
G04 #@! TD*
D14*
G04 #@! TO.C,R10*
G36*
X156165779Y-99526144D02*
X156188834Y-99529563D01*
X156211443Y-99535227D01*
X156233387Y-99543079D01*
X156254457Y-99553044D01*
X156274448Y-99565026D01*
X156293168Y-99578910D01*
X156310438Y-99594562D01*
X156326090Y-99611832D01*
X156339974Y-99630552D01*
X156351956Y-99650543D01*
X156361921Y-99671613D01*
X156369773Y-99693557D01*
X156375437Y-99716166D01*
X156378856Y-99739221D01*
X156380000Y-99762500D01*
X156380000Y-100237500D01*
X156378856Y-100260779D01*
X156375437Y-100283834D01*
X156369773Y-100306443D01*
X156361921Y-100328387D01*
X156351956Y-100349457D01*
X156339974Y-100369448D01*
X156326090Y-100388168D01*
X156310438Y-100405438D01*
X156293168Y-100421090D01*
X156274448Y-100434974D01*
X156254457Y-100446956D01*
X156233387Y-100456921D01*
X156211443Y-100464773D01*
X156188834Y-100470437D01*
X156165779Y-100473856D01*
X156142500Y-100475000D01*
X155567500Y-100475000D01*
X155544221Y-100473856D01*
X155521166Y-100470437D01*
X155498557Y-100464773D01*
X155476613Y-100456921D01*
X155455543Y-100446956D01*
X155435552Y-100434974D01*
X155416832Y-100421090D01*
X155399562Y-100405438D01*
X155383910Y-100388168D01*
X155370026Y-100369448D01*
X155358044Y-100349457D01*
X155348079Y-100328387D01*
X155340227Y-100306443D01*
X155334563Y-100283834D01*
X155331144Y-100260779D01*
X155330000Y-100237500D01*
X155330000Y-99762500D01*
X155331144Y-99739221D01*
X155334563Y-99716166D01*
X155340227Y-99693557D01*
X155348079Y-99671613D01*
X155358044Y-99650543D01*
X155370026Y-99630552D01*
X155383910Y-99611832D01*
X155399562Y-99594562D01*
X155416832Y-99578910D01*
X155435552Y-99565026D01*
X155455543Y-99553044D01*
X155476613Y-99543079D01*
X155498557Y-99535227D01*
X155521166Y-99529563D01*
X155544221Y-99526144D01*
X155567500Y-99525000D01*
X156142500Y-99525000D01*
X156165779Y-99526144D01*
X156165779Y-99526144D01*
G37*
D15*
X155855000Y-100000000D03*
D14*
G36*
X154415779Y-99526144D02*
X154438834Y-99529563D01*
X154461443Y-99535227D01*
X154483387Y-99543079D01*
X154504457Y-99553044D01*
X154524448Y-99565026D01*
X154543168Y-99578910D01*
X154560438Y-99594562D01*
X154576090Y-99611832D01*
X154589974Y-99630552D01*
X154601956Y-99650543D01*
X154611921Y-99671613D01*
X154619773Y-99693557D01*
X154625437Y-99716166D01*
X154628856Y-99739221D01*
X154630000Y-99762500D01*
X154630000Y-100237500D01*
X154628856Y-100260779D01*
X154625437Y-100283834D01*
X154619773Y-100306443D01*
X154611921Y-100328387D01*
X154601956Y-100349457D01*
X154589974Y-100369448D01*
X154576090Y-100388168D01*
X154560438Y-100405438D01*
X154543168Y-100421090D01*
X154524448Y-100434974D01*
X154504457Y-100446956D01*
X154483387Y-100456921D01*
X154461443Y-100464773D01*
X154438834Y-100470437D01*
X154415779Y-100473856D01*
X154392500Y-100475000D01*
X153817500Y-100475000D01*
X153794221Y-100473856D01*
X153771166Y-100470437D01*
X153748557Y-100464773D01*
X153726613Y-100456921D01*
X153705543Y-100446956D01*
X153685552Y-100434974D01*
X153666832Y-100421090D01*
X153649562Y-100405438D01*
X153633910Y-100388168D01*
X153620026Y-100369448D01*
X153608044Y-100349457D01*
X153598079Y-100328387D01*
X153590227Y-100306443D01*
X153584563Y-100283834D01*
X153581144Y-100260779D01*
X153580000Y-100237500D01*
X153580000Y-99762500D01*
X153581144Y-99739221D01*
X153584563Y-99716166D01*
X153590227Y-99693557D01*
X153598079Y-99671613D01*
X153608044Y-99650543D01*
X153620026Y-99630552D01*
X153633910Y-99611832D01*
X153649562Y-99594562D01*
X153666832Y-99578910D01*
X153685552Y-99565026D01*
X153705543Y-99553044D01*
X153726613Y-99543079D01*
X153748557Y-99535227D01*
X153771166Y-99529563D01*
X153794221Y-99526144D01*
X153817500Y-99525000D01*
X154392500Y-99525000D01*
X154415779Y-99526144D01*
X154415779Y-99526144D01*
G37*
D15*
X154105000Y-100000000D03*
G04 #@! TD*
D14*
G04 #@! TO.C,R12*
G36*
X154415779Y-73526144D02*
X154438834Y-73529563D01*
X154461443Y-73535227D01*
X154483387Y-73543079D01*
X154504457Y-73553044D01*
X154524448Y-73565026D01*
X154543168Y-73578910D01*
X154560438Y-73594562D01*
X154576090Y-73611832D01*
X154589974Y-73630552D01*
X154601956Y-73650543D01*
X154611921Y-73671613D01*
X154619773Y-73693557D01*
X154625437Y-73716166D01*
X154628856Y-73739221D01*
X154630000Y-73762500D01*
X154630000Y-74237500D01*
X154628856Y-74260779D01*
X154625437Y-74283834D01*
X154619773Y-74306443D01*
X154611921Y-74328387D01*
X154601956Y-74349457D01*
X154589974Y-74369448D01*
X154576090Y-74388168D01*
X154560438Y-74405438D01*
X154543168Y-74421090D01*
X154524448Y-74434974D01*
X154504457Y-74446956D01*
X154483387Y-74456921D01*
X154461443Y-74464773D01*
X154438834Y-74470437D01*
X154415779Y-74473856D01*
X154392500Y-74475000D01*
X153817500Y-74475000D01*
X153794221Y-74473856D01*
X153771166Y-74470437D01*
X153748557Y-74464773D01*
X153726613Y-74456921D01*
X153705543Y-74446956D01*
X153685552Y-74434974D01*
X153666832Y-74421090D01*
X153649562Y-74405438D01*
X153633910Y-74388168D01*
X153620026Y-74369448D01*
X153608044Y-74349457D01*
X153598079Y-74328387D01*
X153590227Y-74306443D01*
X153584563Y-74283834D01*
X153581144Y-74260779D01*
X153580000Y-74237500D01*
X153580000Y-73762500D01*
X153581144Y-73739221D01*
X153584563Y-73716166D01*
X153590227Y-73693557D01*
X153598079Y-73671613D01*
X153608044Y-73650543D01*
X153620026Y-73630552D01*
X153633910Y-73611832D01*
X153649562Y-73594562D01*
X153666832Y-73578910D01*
X153685552Y-73565026D01*
X153705543Y-73553044D01*
X153726613Y-73543079D01*
X153748557Y-73535227D01*
X153771166Y-73529563D01*
X153794221Y-73526144D01*
X153817500Y-73525000D01*
X154392500Y-73525000D01*
X154415779Y-73526144D01*
X154415779Y-73526144D01*
G37*
D15*
X154105000Y-74000000D03*
D14*
G36*
X156165779Y-73526144D02*
X156188834Y-73529563D01*
X156211443Y-73535227D01*
X156233387Y-73543079D01*
X156254457Y-73553044D01*
X156274448Y-73565026D01*
X156293168Y-73578910D01*
X156310438Y-73594562D01*
X156326090Y-73611832D01*
X156339974Y-73630552D01*
X156351956Y-73650543D01*
X156361921Y-73671613D01*
X156369773Y-73693557D01*
X156375437Y-73716166D01*
X156378856Y-73739221D01*
X156380000Y-73762500D01*
X156380000Y-74237500D01*
X156378856Y-74260779D01*
X156375437Y-74283834D01*
X156369773Y-74306443D01*
X156361921Y-74328387D01*
X156351956Y-74349457D01*
X156339974Y-74369448D01*
X156326090Y-74388168D01*
X156310438Y-74405438D01*
X156293168Y-74421090D01*
X156274448Y-74434974D01*
X156254457Y-74446956D01*
X156233387Y-74456921D01*
X156211443Y-74464773D01*
X156188834Y-74470437D01*
X156165779Y-74473856D01*
X156142500Y-74475000D01*
X155567500Y-74475000D01*
X155544221Y-74473856D01*
X155521166Y-74470437D01*
X155498557Y-74464773D01*
X155476613Y-74456921D01*
X155455543Y-74446956D01*
X155435552Y-74434974D01*
X155416832Y-74421090D01*
X155399562Y-74405438D01*
X155383910Y-74388168D01*
X155370026Y-74369448D01*
X155358044Y-74349457D01*
X155348079Y-74328387D01*
X155340227Y-74306443D01*
X155334563Y-74283834D01*
X155331144Y-74260779D01*
X155330000Y-74237500D01*
X155330000Y-73762500D01*
X155331144Y-73739221D01*
X155334563Y-73716166D01*
X155340227Y-73693557D01*
X155348079Y-73671613D01*
X155358044Y-73650543D01*
X155370026Y-73630552D01*
X155383910Y-73611832D01*
X155399562Y-73594562D01*
X155416832Y-73578910D01*
X155435552Y-73565026D01*
X155455543Y-73553044D01*
X155476613Y-73543079D01*
X155498557Y-73535227D01*
X155521166Y-73529563D01*
X155544221Y-73526144D01*
X155567500Y-73525000D01*
X156142500Y-73525000D01*
X156165779Y-73526144D01*
X156165779Y-73526144D01*
G37*
D15*
X155855000Y-74000000D03*
G04 #@! TD*
D14*
G04 #@! TO.C,R13*
G36*
X155915779Y-104276144D02*
X155938834Y-104279563D01*
X155961443Y-104285227D01*
X155983387Y-104293079D01*
X156004457Y-104303044D01*
X156024448Y-104315026D01*
X156043168Y-104328910D01*
X156060438Y-104344562D01*
X156076090Y-104361832D01*
X156089974Y-104380552D01*
X156101956Y-104400543D01*
X156111921Y-104421613D01*
X156119773Y-104443557D01*
X156125437Y-104466166D01*
X156128856Y-104489221D01*
X156130000Y-104512500D01*
X156130000Y-104987500D01*
X156128856Y-105010779D01*
X156125437Y-105033834D01*
X156119773Y-105056443D01*
X156111921Y-105078387D01*
X156101956Y-105099457D01*
X156089974Y-105119448D01*
X156076090Y-105138168D01*
X156060438Y-105155438D01*
X156043168Y-105171090D01*
X156024448Y-105184974D01*
X156004457Y-105196956D01*
X155983387Y-105206921D01*
X155961443Y-105214773D01*
X155938834Y-105220437D01*
X155915779Y-105223856D01*
X155892500Y-105225000D01*
X155317500Y-105225000D01*
X155294221Y-105223856D01*
X155271166Y-105220437D01*
X155248557Y-105214773D01*
X155226613Y-105206921D01*
X155205543Y-105196956D01*
X155185552Y-105184974D01*
X155166832Y-105171090D01*
X155149562Y-105155438D01*
X155133910Y-105138168D01*
X155120026Y-105119448D01*
X155108044Y-105099457D01*
X155098079Y-105078387D01*
X155090227Y-105056443D01*
X155084563Y-105033834D01*
X155081144Y-105010779D01*
X155080000Y-104987500D01*
X155080000Y-104512500D01*
X155081144Y-104489221D01*
X155084563Y-104466166D01*
X155090227Y-104443557D01*
X155098079Y-104421613D01*
X155108044Y-104400543D01*
X155120026Y-104380552D01*
X155133910Y-104361832D01*
X155149562Y-104344562D01*
X155166832Y-104328910D01*
X155185552Y-104315026D01*
X155205543Y-104303044D01*
X155226613Y-104293079D01*
X155248557Y-104285227D01*
X155271166Y-104279563D01*
X155294221Y-104276144D01*
X155317500Y-104275000D01*
X155892500Y-104275000D01*
X155915779Y-104276144D01*
X155915779Y-104276144D01*
G37*
D15*
X155605000Y-104750000D03*
D14*
G36*
X154165779Y-104276144D02*
X154188834Y-104279563D01*
X154211443Y-104285227D01*
X154233387Y-104293079D01*
X154254457Y-104303044D01*
X154274448Y-104315026D01*
X154293168Y-104328910D01*
X154310438Y-104344562D01*
X154326090Y-104361832D01*
X154339974Y-104380552D01*
X154351956Y-104400543D01*
X154361921Y-104421613D01*
X154369773Y-104443557D01*
X154375437Y-104466166D01*
X154378856Y-104489221D01*
X154380000Y-104512500D01*
X154380000Y-104987500D01*
X154378856Y-105010779D01*
X154375437Y-105033834D01*
X154369773Y-105056443D01*
X154361921Y-105078387D01*
X154351956Y-105099457D01*
X154339974Y-105119448D01*
X154326090Y-105138168D01*
X154310438Y-105155438D01*
X154293168Y-105171090D01*
X154274448Y-105184974D01*
X154254457Y-105196956D01*
X154233387Y-105206921D01*
X154211443Y-105214773D01*
X154188834Y-105220437D01*
X154165779Y-105223856D01*
X154142500Y-105225000D01*
X153567500Y-105225000D01*
X153544221Y-105223856D01*
X153521166Y-105220437D01*
X153498557Y-105214773D01*
X153476613Y-105206921D01*
X153455543Y-105196956D01*
X153435552Y-105184974D01*
X153416832Y-105171090D01*
X153399562Y-105155438D01*
X153383910Y-105138168D01*
X153370026Y-105119448D01*
X153358044Y-105099457D01*
X153348079Y-105078387D01*
X153340227Y-105056443D01*
X153334563Y-105033834D01*
X153331144Y-105010779D01*
X153330000Y-104987500D01*
X153330000Y-104512500D01*
X153331144Y-104489221D01*
X153334563Y-104466166D01*
X153340227Y-104443557D01*
X153348079Y-104421613D01*
X153358044Y-104400543D01*
X153370026Y-104380552D01*
X153383910Y-104361832D01*
X153399562Y-104344562D01*
X153416832Y-104328910D01*
X153435552Y-104315026D01*
X153455543Y-104303044D01*
X153476613Y-104293079D01*
X153498557Y-104285227D01*
X153521166Y-104279563D01*
X153544221Y-104276144D01*
X153567500Y-104275000D01*
X154142500Y-104275000D01*
X154165779Y-104276144D01*
X154165779Y-104276144D01*
G37*
D15*
X153855000Y-104750000D03*
G04 #@! TD*
D14*
G04 #@! TO.C,R15*
G36*
X156165779Y-76276144D02*
X156188834Y-76279563D01*
X156211443Y-76285227D01*
X156233387Y-76293079D01*
X156254457Y-76303044D01*
X156274448Y-76315026D01*
X156293168Y-76328910D01*
X156310438Y-76344562D01*
X156326090Y-76361832D01*
X156339974Y-76380552D01*
X156351956Y-76400543D01*
X156361921Y-76421613D01*
X156369773Y-76443557D01*
X156375437Y-76466166D01*
X156378856Y-76489221D01*
X156380000Y-76512500D01*
X156380000Y-76987500D01*
X156378856Y-77010779D01*
X156375437Y-77033834D01*
X156369773Y-77056443D01*
X156361921Y-77078387D01*
X156351956Y-77099457D01*
X156339974Y-77119448D01*
X156326090Y-77138168D01*
X156310438Y-77155438D01*
X156293168Y-77171090D01*
X156274448Y-77184974D01*
X156254457Y-77196956D01*
X156233387Y-77206921D01*
X156211443Y-77214773D01*
X156188834Y-77220437D01*
X156165779Y-77223856D01*
X156142500Y-77225000D01*
X155567500Y-77225000D01*
X155544221Y-77223856D01*
X155521166Y-77220437D01*
X155498557Y-77214773D01*
X155476613Y-77206921D01*
X155455543Y-77196956D01*
X155435552Y-77184974D01*
X155416832Y-77171090D01*
X155399562Y-77155438D01*
X155383910Y-77138168D01*
X155370026Y-77119448D01*
X155358044Y-77099457D01*
X155348079Y-77078387D01*
X155340227Y-77056443D01*
X155334563Y-77033834D01*
X155331144Y-77010779D01*
X155330000Y-76987500D01*
X155330000Y-76512500D01*
X155331144Y-76489221D01*
X155334563Y-76466166D01*
X155340227Y-76443557D01*
X155348079Y-76421613D01*
X155358044Y-76400543D01*
X155370026Y-76380552D01*
X155383910Y-76361832D01*
X155399562Y-76344562D01*
X155416832Y-76328910D01*
X155435552Y-76315026D01*
X155455543Y-76303044D01*
X155476613Y-76293079D01*
X155498557Y-76285227D01*
X155521166Y-76279563D01*
X155544221Y-76276144D01*
X155567500Y-76275000D01*
X156142500Y-76275000D01*
X156165779Y-76276144D01*
X156165779Y-76276144D01*
G37*
D15*
X155855000Y-76750000D03*
D14*
G36*
X154415779Y-76276144D02*
X154438834Y-76279563D01*
X154461443Y-76285227D01*
X154483387Y-76293079D01*
X154504457Y-76303044D01*
X154524448Y-76315026D01*
X154543168Y-76328910D01*
X154560438Y-76344562D01*
X154576090Y-76361832D01*
X154589974Y-76380552D01*
X154601956Y-76400543D01*
X154611921Y-76421613D01*
X154619773Y-76443557D01*
X154625437Y-76466166D01*
X154628856Y-76489221D01*
X154630000Y-76512500D01*
X154630000Y-76987500D01*
X154628856Y-77010779D01*
X154625437Y-77033834D01*
X154619773Y-77056443D01*
X154611921Y-77078387D01*
X154601956Y-77099457D01*
X154589974Y-77119448D01*
X154576090Y-77138168D01*
X154560438Y-77155438D01*
X154543168Y-77171090D01*
X154524448Y-77184974D01*
X154504457Y-77196956D01*
X154483387Y-77206921D01*
X154461443Y-77214773D01*
X154438834Y-77220437D01*
X154415779Y-77223856D01*
X154392500Y-77225000D01*
X153817500Y-77225000D01*
X153794221Y-77223856D01*
X153771166Y-77220437D01*
X153748557Y-77214773D01*
X153726613Y-77206921D01*
X153705543Y-77196956D01*
X153685552Y-77184974D01*
X153666832Y-77171090D01*
X153649562Y-77155438D01*
X153633910Y-77138168D01*
X153620026Y-77119448D01*
X153608044Y-77099457D01*
X153598079Y-77078387D01*
X153590227Y-77056443D01*
X153584563Y-77033834D01*
X153581144Y-77010779D01*
X153580000Y-76987500D01*
X153580000Y-76512500D01*
X153581144Y-76489221D01*
X153584563Y-76466166D01*
X153590227Y-76443557D01*
X153598079Y-76421613D01*
X153608044Y-76400543D01*
X153620026Y-76380552D01*
X153633910Y-76361832D01*
X153649562Y-76344562D01*
X153666832Y-76328910D01*
X153685552Y-76315026D01*
X153705543Y-76303044D01*
X153726613Y-76293079D01*
X153748557Y-76285227D01*
X153771166Y-76279563D01*
X153794221Y-76276144D01*
X153817500Y-76275000D01*
X154392500Y-76275000D01*
X154415779Y-76276144D01*
X154415779Y-76276144D01*
G37*
D15*
X154105000Y-76750000D03*
G04 #@! TD*
D14*
G04 #@! TO.C,R16*
G36*
X154165779Y-107026144D02*
X154188834Y-107029563D01*
X154211443Y-107035227D01*
X154233387Y-107043079D01*
X154254457Y-107053044D01*
X154274448Y-107065026D01*
X154293168Y-107078910D01*
X154310438Y-107094562D01*
X154326090Y-107111832D01*
X154339974Y-107130552D01*
X154351956Y-107150543D01*
X154361921Y-107171613D01*
X154369773Y-107193557D01*
X154375437Y-107216166D01*
X154378856Y-107239221D01*
X154380000Y-107262500D01*
X154380000Y-107737500D01*
X154378856Y-107760779D01*
X154375437Y-107783834D01*
X154369773Y-107806443D01*
X154361921Y-107828387D01*
X154351956Y-107849457D01*
X154339974Y-107869448D01*
X154326090Y-107888168D01*
X154310438Y-107905438D01*
X154293168Y-107921090D01*
X154274448Y-107934974D01*
X154254457Y-107946956D01*
X154233387Y-107956921D01*
X154211443Y-107964773D01*
X154188834Y-107970437D01*
X154165779Y-107973856D01*
X154142500Y-107975000D01*
X153567500Y-107975000D01*
X153544221Y-107973856D01*
X153521166Y-107970437D01*
X153498557Y-107964773D01*
X153476613Y-107956921D01*
X153455543Y-107946956D01*
X153435552Y-107934974D01*
X153416832Y-107921090D01*
X153399562Y-107905438D01*
X153383910Y-107888168D01*
X153370026Y-107869448D01*
X153358044Y-107849457D01*
X153348079Y-107828387D01*
X153340227Y-107806443D01*
X153334563Y-107783834D01*
X153331144Y-107760779D01*
X153330000Y-107737500D01*
X153330000Y-107262500D01*
X153331144Y-107239221D01*
X153334563Y-107216166D01*
X153340227Y-107193557D01*
X153348079Y-107171613D01*
X153358044Y-107150543D01*
X153370026Y-107130552D01*
X153383910Y-107111832D01*
X153399562Y-107094562D01*
X153416832Y-107078910D01*
X153435552Y-107065026D01*
X153455543Y-107053044D01*
X153476613Y-107043079D01*
X153498557Y-107035227D01*
X153521166Y-107029563D01*
X153544221Y-107026144D01*
X153567500Y-107025000D01*
X154142500Y-107025000D01*
X154165779Y-107026144D01*
X154165779Y-107026144D01*
G37*
D15*
X153855000Y-107500000D03*
D14*
G36*
X155915779Y-107026144D02*
X155938834Y-107029563D01*
X155961443Y-107035227D01*
X155983387Y-107043079D01*
X156004457Y-107053044D01*
X156024448Y-107065026D01*
X156043168Y-107078910D01*
X156060438Y-107094562D01*
X156076090Y-107111832D01*
X156089974Y-107130552D01*
X156101956Y-107150543D01*
X156111921Y-107171613D01*
X156119773Y-107193557D01*
X156125437Y-107216166D01*
X156128856Y-107239221D01*
X156130000Y-107262500D01*
X156130000Y-107737500D01*
X156128856Y-107760779D01*
X156125437Y-107783834D01*
X156119773Y-107806443D01*
X156111921Y-107828387D01*
X156101956Y-107849457D01*
X156089974Y-107869448D01*
X156076090Y-107888168D01*
X156060438Y-107905438D01*
X156043168Y-107921090D01*
X156024448Y-107934974D01*
X156004457Y-107946956D01*
X155983387Y-107956921D01*
X155961443Y-107964773D01*
X155938834Y-107970437D01*
X155915779Y-107973856D01*
X155892500Y-107975000D01*
X155317500Y-107975000D01*
X155294221Y-107973856D01*
X155271166Y-107970437D01*
X155248557Y-107964773D01*
X155226613Y-107956921D01*
X155205543Y-107946956D01*
X155185552Y-107934974D01*
X155166832Y-107921090D01*
X155149562Y-107905438D01*
X155133910Y-107888168D01*
X155120026Y-107869448D01*
X155108044Y-107849457D01*
X155098079Y-107828387D01*
X155090227Y-107806443D01*
X155084563Y-107783834D01*
X155081144Y-107760779D01*
X155080000Y-107737500D01*
X155080000Y-107262500D01*
X155081144Y-107239221D01*
X155084563Y-107216166D01*
X155090227Y-107193557D01*
X155098079Y-107171613D01*
X155108044Y-107150543D01*
X155120026Y-107130552D01*
X155133910Y-107111832D01*
X155149562Y-107094562D01*
X155166832Y-107078910D01*
X155185552Y-107065026D01*
X155205543Y-107053044D01*
X155226613Y-107043079D01*
X155248557Y-107035227D01*
X155271166Y-107029563D01*
X155294221Y-107026144D01*
X155317500Y-107025000D01*
X155892500Y-107025000D01*
X155915779Y-107026144D01*
X155915779Y-107026144D01*
G37*
D15*
X155605000Y-107500000D03*
G04 #@! TD*
D14*
G04 #@! TO.C,R18*
G36*
X154415779Y-79026144D02*
X154438834Y-79029563D01*
X154461443Y-79035227D01*
X154483387Y-79043079D01*
X154504457Y-79053044D01*
X154524448Y-79065026D01*
X154543168Y-79078910D01*
X154560438Y-79094562D01*
X154576090Y-79111832D01*
X154589974Y-79130552D01*
X154601956Y-79150543D01*
X154611921Y-79171613D01*
X154619773Y-79193557D01*
X154625437Y-79216166D01*
X154628856Y-79239221D01*
X154630000Y-79262500D01*
X154630000Y-79737500D01*
X154628856Y-79760779D01*
X154625437Y-79783834D01*
X154619773Y-79806443D01*
X154611921Y-79828387D01*
X154601956Y-79849457D01*
X154589974Y-79869448D01*
X154576090Y-79888168D01*
X154560438Y-79905438D01*
X154543168Y-79921090D01*
X154524448Y-79934974D01*
X154504457Y-79946956D01*
X154483387Y-79956921D01*
X154461443Y-79964773D01*
X154438834Y-79970437D01*
X154415779Y-79973856D01*
X154392500Y-79975000D01*
X153817500Y-79975000D01*
X153794221Y-79973856D01*
X153771166Y-79970437D01*
X153748557Y-79964773D01*
X153726613Y-79956921D01*
X153705543Y-79946956D01*
X153685552Y-79934974D01*
X153666832Y-79921090D01*
X153649562Y-79905438D01*
X153633910Y-79888168D01*
X153620026Y-79869448D01*
X153608044Y-79849457D01*
X153598079Y-79828387D01*
X153590227Y-79806443D01*
X153584563Y-79783834D01*
X153581144Y-79760779D01*
X153580000Y-79737500D01*
X153580000Y-79262500D01*
X153581144Y-79239221D01*
X153584563Y-79216166D01*
X153590227Y-79193557D01*
X153598079Y-79171613D01*
X153608044Y-79150543D01*
X153620026Y-79130552D01*
X153633910Y-79111832D01*
X153649562Y-79094562D01*
X153666832Y-79078910D01*
X153685552Y-79065026D01*
X153705543Y-79053044D01*
X153726613Y-79043079D01*
X153748557Y-79035227D01*
X153771166Y-79029563D01*
X153794221Y-79026144D01*
X153817500Y-79025000D01*
X154392500Y-79025000D01*
X154415779Y-79026144D01*
X154415779Y-79026144D01*
G37*
D15*
X154105000Y-79500000D03*
D14*
G36*
X156165779Y-79026144D02*
X156188834Y-79029563D01*
X156211443Y-79035227D01*
X156233387Y-79043079D01*
X156254457Y-79053044D01*
X156274448Y-79065026D01*
X156293168Y-79078910D01*
X156310438Y-79094562D01*
X156326090Y-79111832D01*
X156339974Y-79130552D01*
X156351956Y-79150543D01*
X156361921Y-79171613D01*
X156369773Y-79193557D01*
X156375437Y-79216166D01*
X156378856Y-79239221D01*
X156380000Y-79262500D01*
X156380000Y-79737500D01*
X156378856Y-79760779D01*
X156375437Y-79783834D01*
X156369773Y-79806443D01*
X156361921Y-79828387D01*
X156351956Y-79849457D01*
X156339974Y-79869448D01*
X156326090Y-79888168D01*
X156310438Y-79905438D01*
X156293168Y-79921090D01*
X156274448Y-79934974D01*
X156254457Y-79946956D01*
X156233387Y-79956921D01*
X156211443Y-79964773D01*
X156188834Y-79970437D01*
X156165779Y-79973856D01*
X156142500Y-79975000D01*
X155567500Y-79975000D01*
X155544221Y-79973856D01*
X155521166Y-79970437D01*
X155498557Y-79964773D01*
X155476613Y-79956921D01*
X155455543Y-79946956D01*
X155435552Y-79934974D01*
X155416832Y-79921090D01*
X155399562Y-79905438D01*
X155383910Y-79888168D01*
X155370026Y-79869448D01*
X155358044Y-79849457D01*
X155348079Y-79828387D01*
X155340227Y-79806443D01*
X155334563Y-79783834D01*
X155331144Y-79760779D01*
X155330000Y-79737500D01*
X155330000Y-79262500D01*
X155331144Y-79239221D01*
X155334563Y-79216166D01*
X155340227Y-79193557D01*
X155348079Y-79171613D01*
X155358044Y-79150543D01*
X155370026Y-79130552D01*
X155383910Y-79111832D01*
X155399562Y-79094562D01*
X155416832Y-79078910D01*
X155435552Y-79065026D01*
X155455543Y-79053044D01*
X155476613Y-79043079D01*
X155498557Y-79035227D01*
X155521166Y-79029563D01*
X155544221Y-79026144D01*
X155567500Y-79025000D01*
X156142500Y-79025000D01*
X156165779Y-79026144D01*
X156165779Y-79026144D01*
G37*
D15*
X155855000Y-79500000D03*
G04 #@! TD*
D14*
G04 #@! TO.C,R19*
G36*
X155915779Y-109776144D02*
X155938834Y-109779563D01*
X155961443Y-109785227D01*
X155983387Y-109793079D01*
X156004457Y-109803044D01*
X156024448Y-109815026D01*
X156043168Y-109828910D01*
X156060438Y-109844562D01*
X156076090Y-109861832D01*
X156089974Y-109880552D01*
X156101956Y-109900543D01*
X156111921Y-109921613D01*
X156119773Y-109943557D01*
X156125437Y-109966166D01*
X156128856Y-109989221D01*
X156130000Y-110012500D01*
X156130000Y-110487500D01*
X156128856Y-110510779D01*
X156125437Y-110533834D01*
X156119773Y-110556443D01*
X156111921Y-110578387D01*
X156101956Y-110599457D01*
X156089974Y-110619448D01*
X156076090Y-110638168D01*
X156060438Y-110655438D01*
X156043168Y-110671090D01*
X156024448Y-110684974D01*
X156004457Y-110696956D01*
X155983387Y-110706921D01*
X155961443Y-110714773D01*
X155938834Y-110720437D01*
X155915779Y-110723856D01*
X155892500Y-110725000D01*
X155317500Y-110725000D01*
X155294221Y-110723856D01*
X155271166Y-110720437D01*
X155248557Y-110714773D01*
X155226613Y-110706921D01*
X155205543Y-110696956D01*
X155185552Y-110684974D01*
X155166832Y-110671090D01*
X155149562Y-110655438D01*
X155133910Y-110638168D01*
X155120026Y-110619448D01*
X155108044Y-110599457D01*
X155098079Y-110578387D01*
X155090227Y-110556443D01*
X155084563Y-110533834D01*
X155081144Y-110510779D01*
X155080000Y-110487500D01*
X155080000Y-110012500D01*
X155081144Y-109989221D01*
X155084563Y-109966166D01*
X155090227Y-109943557D01*
X155098079Y-109921613D01*
X155108044Y-109900543D01*
X155120026Y-109880552D01*
X155133910Y-109861832D01*
X155149562Y-109844562D01*
X155166832Y-109828910D01*
X155185552Y-109815026D01*
X155205543Y-109803044D01*
X155226613Y-109793079D01*
X155248557Y-109785227D01*
X155271166Y-109779563D01*
X155294221Y-109776144D01*
X155317500Y-109775000D01*
X155892500Y-109775000D01*
X155915779Y-109776144D01*
X155915779Y-109776144D01*
G37*
D15*
X155605000Y-110250000D03*
D14*
G36*
X154165779Y-109776144D02*
X154188834Y-109779563D01*
X154211443Y-109785227D01*
X154233387Y-109793079D01*
X154254457Y-109803044D01*
X154274448Y-109815026D01*
X154293168Y-109828910D01*
X154310438Y-109844562D01*
X154326090Y-109861832D01*
X154339974Y-109880552D01*
X154351956Y-109900543D01*
X154361921Y-109921613D01*
X154369773Y-109943557D01*
X154375437Y-109966166D01*
X154378856Y-109989221D01*
X154380000Y-110012500D01*
X154380000Y-110487500D01*
X154378856Y-110510779D01*
X154375437Y-110533834D01*
X154369773Y-110556443D01*
X154361921Y-110578387D01*
X154351956Y-110599457D01*
X154339974Y-110619448D01*
X154326090Y-110638168D01*
X154310438Y-110655438D01*
X154293168Y-110671090D01*
X154274448Y-110684974D01*
X154254457Y-110696956D01*
X154233387Y-110706921D01*
X154211443Y-110714773D01*
X154188834Y-110720437D01*
X154165779Y-110723856D01*
X154142500Y-110725000D01*
X153567500Y-110725000D01*
X153544221Y-110723856D01*
X153521166Y-110720437D01*
X153498557Y-110714773D01*
X153476613Y-110706921D01*
X153455543Y-110696956D01*
X153435552Y-110684974D01*
X153416832Y-110671090D01*
X153399562Y-110655438D01*
X153383910Y-110638168D01*
X153370026Y-110619448D01*
X153358044Y-110599457D01*
X153348079Y-110578387D01*
X153340227Y-110556443D01*
X153334563Y-110533834D01*
X153331144Y-110510779D01*
X153330000Y-110487500D01*
X153330000Y-110012500D01*
X153331144Y-109989221D01*
X153334563Y-109966166D01*
X153340227Y-109943557D01*
X153348079Y-109921613D01*
X153358044Y-109900543D01*
X153370026Y-109880552D01*
X153383910Y-109861832D01*
X153399562Y-109844562D01*
X153416832Y-109828910D01*
X153435552Y-109815026D01*
X153455543Y-109803044D01*
X153476613Y-109793079D01*
X153498557Y-109785227D01*
X153521166Y-109779563D01*
X153544221Y-109776144D01*
X153567500Y-109775000D01*
X154142500Y-109775000D01*
X154165779Y-109776144D01*
X154165779Y-109776144D01*
G37*
D15*
X153855000Y-110250000D03*
G04 #@! TD*
D14*
G04 #@! TO.C,R21*
G36*
X154415779Y-83776144D02*
X154438834Y-83779563D01*
X154461443Y-83785227D01*
X154483387Y-83793079D01*
X154504457Y-83803044D01*
X154524448Y-83815026D01*
X154543168Y-83828910D01*
X154560438Y-83844562D01*
X154576090Y-83861832D01*
X154589974Y-83880552D01*
X154601956Y-83900543D01*
X154611921Y-83921613D01*
X154619773Y-83943557D01*
X154625437Y-83966166D01*
X154628856Y-83989221D01*
X154630000Y-84012500D01*
X154630000Y-84487500D01*
X154628856Y-84510779D01*
X154625437Y-84533834D01*
X154619773Y-84556443D01*
X154611921Y-84578387D01*
X154601956Y-84599457D01*
X154589974Y-84619448D01*
X154576090Y-84638168D01*
X154560438Y-84655438D01*
X154543168Y-84671090D01*
X154524448Y-84684974D01*
X154504457Y-84696956D01*
X154483387Y-84706921D01*
X154461443Y-84714773D01*
X154438834Y-84720437D01*
X154415779Y-84723856D01*
X154392500Y-84725000D01*
X153817500Y-84725000D01*
X153794221Y-84723856D01*
X153771166Y-84720437D01*
X153748557Y-84714773D01*
X153726613Y-84706921D01*
X153705543Y-84696956D01*
X153685552Y-84684974D01*
X153666832Y-84671090D01*
X153649562Y-84655438D01*
X153633910Y-84638168D01*
X153620026Y-84619448D01*
X153608044Y-84599457D01*
X153598079Y-84578387D01*
X153590227Y-84556443D01*
X153584563Y-84533834D01*
X153581144Y-84510779D01*
X153580000Y-84487500D01*
X153580000Y-84012500D01*
X153581144Y-83989221D01*
X153584563Y-83966166D01*
X153590227Y-83943557D01*
X153598079Y-83921613D01*
X153608044Y-83900543D01*
X153620026Y-83880552D01*
X153633910Y-83861832D01*
X153649562Y-83844562D01*
X153666832Y-83828910D01*
X153685552Y-83815026D01*
X153705543Y-83803044D01*
X153726613Y-83793079D01*
X153748557Y-83785227D01*
X153771166Y-83779563D01*
X153794221Y-83776144D01*
X153817500Y-83775000D01*
X154392500Y-83775000D01*
X154415779Y-83776144D01*
X154415779Y-83776144D01*
G37*
D15*
X154105000Y-84250000D03*
D14*
G36*
X156165779Y-83776144D02*
X156188834Y-83779563D01*
X156211443Y-83785227D01*
X156233387Y-83793079D01*
X156254457Y-83803044D01*
X156274448Y-83815026D01*
X156293168Y-83828910D01*
X156310438Y-83844562D01*
X156326090Y-83861832D01*
X156339974Y-83880552D01*
X156351956Y-83900543D01*
X156361921Y-83921613D01*
X156369773Y-83943557D01*
X156375437Y-83966166D01*
X156378856Y-83989221D01*
X156380000Y-84012500D01*
X156380000Y-84487500D01*
X156378856Y-84510779D01*
X156375437Y-84533834D01*
X156369773Y-84556443D01*
X156361921Y-84578387D01*
X156351956Y-84599457D01*
X156339974Y-84619448D01*
X156326090Y-84638168D01*
X156310438Y-84655438D01*
X156293168Y-84671090D01*
X156274448Y-84684974D01*
X156254457Y-84696956D01*
X156233387Y-84706921D01*
X156211443Y-84714773D01*
X156188834Y-84720437D01*
X156165779Y-84723856D01*
X156142500Y-84725000D01*
X155567500Y-84725000D01*
X155544221Y-84723856D01*
X155521166Y-84720437D01*
X155498557Y-84714773D01*
X155476613Y-84706921D01*
X155455543Y-84696956D01*
X155435552Y-84684974D01*
X155416832Y-84671090D01*
X155399562Y-84655438D01*
X155383910Y-84638168D01*
X155370026Y-84619448D01*
X155358044Y-84599457D01*
X155348079Y-84578387D01*
X155340227Y-84556443D01*
X155334563Y-84533834D01*
X155331144Y-84510779D01*
X155330000Y-84487500D01*
X155330000Y-84012500D01*
X155331144Y-83989221D01*
X155334563Y-83966166D01*
X155340227Y-83943557D01*
X155348079Y-83921613D01*
X155358044Y-83900543D01*
X155370026Y-83880552D01*
X155383910Y-83861832D01*
X155399562Y-83844562D01*
X155416832Y-83828910D01*
X155435552Y-83815026D01*
X155455543Y-83803044D01*
X155476613Y-83793079D01*
X155498557Y-83785227D01*
X155521166Y-83779563D01*
X155544221Y-83776144D01*
X155567500Y-83775000D01*
X156142500Y-83775000D01*
X156165779Y-83776144D01*
X156165779Y-83776144D01*
G37*
D15*
X155855000Y-84250000D03*
G04 #@! TD*
D14*
G04 #@! TO.C,R23*
G36*
X156165779Y-86526144D02*
X156188834Y-86529563D01*
X156211443Y-86535227D01*
X156233387Y-86543079D01*
X156254457Y-86553044D01*
X156274448Y-86565026D01*
X156293168Y-86578910D01*
X156310438Y-86594562D01*
X156326090Y-86611832D01*
X156339974Y-86630552D01*
X156351956Y-86650543D01*
X156361921Y-86671613D01*
X156369773Y-86693557D01*
X156375437Y-86716166D01*
X156378856Y-86739221D01*
X156380000Y-86762500D01*
X156380000Y-87237500D01*
X156378856Y-87260779D01*
X156375437Y-87283834D01*
X156369773Y-87306443D01*
X156361921Y-87328387D01*
X156351956Y-87349457D01*
X156339974Y-87369448D01*
X156326090Y-87388168D01*
X156310438Y-87405438D01*
X156293168Y-87421090D01*
X156274448Y-87434974D01*
X156254457Y-87446956D01*
X156233387Y-87456921D01*
X156211443Y-87464773D01*
X156188834Y-87470437D01*
X156165779Y-87473856D01*
X156142500Y-87475000D01*
X155567500Y-87475000D01*
X155544221Y-87473856D01*
X155521166Y-87470437D01*
X155498557Y-87464773D01*
X155476613Y-87456921D01*
X155455543Y-87446956D01*
X155435552Y-87434974D01*
X155416832Y-87421090D01*
X155399562Y-87405438D01*
X155383910Y-87388168D01*
X155370026Y-87369448D01*
X155358044Y-87349457D01*
X155348079Y-87328387D01*
X155340227Y-87306443D01*
X155334563Y-87283834D01*
X155331144Y-87260779D01*
X155330000Y-87237500D01*
X155330000Y-86762500D01*
X155331144Y-86739221D01*
X155334563Y-86716166D01*
X155340227Y-86693557D01*
X155348079Y-86671613D01*
X155358044Y-86650543D01*
X155370026Y-86630552D01*
X155383910Y-86611832D01*
X155399562Y-86594562D01*
X155416832Y-86578910D01*
X155435552Y-86565026D01*
X155455543Y-86553044D01*
X155476613Y-86543079D01*
X155498557Y-86535227D01*
X155521166Y-86529563D01*
X155544221Y-86526144D01*
X155567500Y-86525000D01*
X156142500Y-86525000D01*
X156165779Y-86526144D01*
X156165779Y-86526144D01*
G37*
D15*
X155855000Y-87000000D03*
D14*
G36*
X154415779Y-86526144D02*
X154438834Y-86529563D01*
X154461443Y-86535227D01*
X154483387Y-86543079D01*
X154504457Y-86553044D01*
X154524448Y-86565026D01*
X154543168Y-86578910D01*
X154560438Y-86594562D01*
X154576090Y-86611832D01*
X154589974Y-86630552D01*
X154601956Y-86650543D01*
X154611921Y-86671613D01*
X154619773Y-86693557D01*
X154625437Y-86716166D01*
X154628856Y-86739221D01*
X154630000Y-86762500D01*
X154630000Y-87237500D01*
X154628856Y-87260779D01*
X154625437Y-87283834D01*
X154619773Y-87306443D01*
X154611921Y-87328387D01*
X154601956Y-87349457D01*
X154589974Y-87369448D01*
X154576090Y-87388168D01*
X154560438Y-87405438D01*
X154543168Y-87421090D01*
X154524448Y-87434974D01*
X154504457Y-87446956D01*
X154483387Y-87456921D01*
X154461443Y-87464773D01*
X154438834Y-87470437D01*
X154415779Y-87473856D01*
X154392500Y-87475000D01*
X153817500Y-87475000D01*
X153794221Y-87473856D01*
X153771166Y-87470437D01*
X153748557Y-87464773D01*
X153726613Y-87456921D01*
X153705543Y-87446956D01*
X153685552Y-87434974D01*
X153666832Y-87421090D01*
X153649562Y-87405438D01*
X153633910Y-87388168D01*
X153620026Y-87369448D01*
X153608044Y-87349457D01*
X153598079Y-87328387D01*
X153590227Y-87306443D01*
X153584563Y-87283834D01*
X153581144Y-87260779D01*
X153580000Y-87237500D01*
X153580000Y-86762500D01*
X153581144Y-86739221D01*
X153584563Y-86716166D01*
X153590227Y-86693557D01*
X153598079Y-86671613D01*
X153608044Y-86650543D01*
X153620026Y-86630552D01*
X153633910Y-86611832D01*
X153649562Y-86594562D01*
X153666832Y-86578910D01*
X153685552Y-86565026D01*
X153705543Y-86553044D01*
X153726613Y-86543079D01*
X153748557Y-86535227D01*
X153771166Y-86529563D01*
X153794221Y-86526144D01*
X153817500Y-86525000D01*
X154392500Y-86525000D01*
X154415779Y-86526144D01*
X154415779Y-86526144D01*
G37*
D15*
X154105000Y-87000000D03*
G04 #@! TD*
D14*
G04 #@! TO.C,R25*
G36*
X154415779Y-89276144D02*
X154438834Y-89279563D01*
X154461443Y-89285227D01*
X154483387Y-89293079D01*
X154504457Y-89303044D01*
X154524448Y-89315026D01*
X154543168Y-89328910D01*
X154560438Y-89344562D01*
X154576090Y-89361832D01*
X154589974Y-89380552D01*
X154601956Y-89400543D01*
X154611921Y-89421613D01*
X154619773Y-89443557D01*
X154625437Y-89466166D01*
X154628856Y-89489221D01*
X154630000Y-89512500D01*
X154630000Y-89987500D01*
X154628856Y-90010779D01*
X154625437Y-90033834D01*
X154619773Y-90056443D01*
X154611921Y-90078387D01*
X154601956Y-90099457D01*
X154589974Y-90119448D01*
X154576090Y-90138168D01*
X154560438Y-90155438D01*
X154543168Y-90171090D01*
X154524448Y-90184974D01*
X154504457Y-90196956D01*
X154483387Y-90206921D01*
X154461443Y-90214773D01*
X154438834Y-90220437D01*
X154415779Y-90223856D01*
X154392500Y-90225000D01*
X153817500Y-90225000D01*
X153794221Y-90223856D01*
X153771166Y-90220437D01*
X153748557Y-90214773D01*
X153726613Y-90206921D01*
X153705543Y-90196956D01*
X153685552Y-90184974D01*
X153666832Y-90171090D01*
X153649562Y-90155438D01*
X153633910Y-90138168D01*
X153620026Y-90119448D01*
X153608044Y-90099457D01*
X153598079Y-90078387D01*
X153590227Y-90056443D01*
X153584563Y-90033834D01*
X153581144Y-90010779D01*
X153580000Y-89987500D01*
X153580000Y-89512500D01*
X153581144Y-89489221D01*
X153584563Y-89466166D01*
X153590227Y-89443557D01*
X153598079Y-89421613D01*
X153608044Y-89400543D01*
X153620026Y-89380552D01*
X153633910Y-89361832D01*
X153649562Y-89344562D01*
X153666832Y-89328910D01*
X153685552Y-89315026D01*
X153705543Y-89303044D01*
X153726613Y-89293079D01*
X153748557Y-89285227D01*
X153771166Y-89279563D01*
X153794221Y-89276144D01*
X153817500Y-89275000D01*
X154392500Y-89275000D01*
X154415779Y-89276144D01*
X154415779Y-89276144D01*
G37*
D15*
X154105000Y-89750000D03*
D14*
G36*
X156165779Y-89276144D02*
X156188834Y-89279563D01*
X156211443Y-89285227D01*
X156233387Y-89293079D01*
X156254457Y-89303044D01*
X156274448Y-89315026D01*
X156293168Y-89328910D01*
X156310438Y-89344562D01*
X156326090Y-89361832D01*
X156339974Y-89380552D01*
X156351956Y-89400543D01*
X156361921Y-89421613D01*
X156369773Y-89443557D01*
X156375437Y-89466166D01*
X156378856Y-89489221D01*
X156380000Y-89512500D01*
X156380000Y-89987500D01*
X156378856Y-90010779D01*
X156375437Y-90033834D01*
X156369773Y-90056443D01*
X156361921Y-90078387D01*
X156351956Y-90099457D01*
X156339974Y-90119448D01*
X156326090Y-90138168D01*
X156310438Y-90155438D01*
X156293168Y-90171090D01*
X156274448Y-90184974D01*
X156254457Y-90196956D01*
X156233387Y-90206921D01*
X156211443Y-90214773D01*
X156188834Y-90220437D01*
X156165779Y-90223856D01*
X156142500Y-90225000D01*
X155567500Y-90225000D01*
X155544221Y-90223856D01*
X155521166Y-90220437D01*
X155498557Y-90214773D01*
X155476613Y-90206921D01*
X155455543Y-90196956D01*
X155435552Y-90184974D01*
X155416832Y-90171090D01*
X155399562Y-90155438D01*
X155383910Y-90138168D01*
X155370026Y-90119448D01*
X155358044Y-90099457D01*
X155348079Y-90078387D01*
X155340227Y-90056443D01*
X155334563Y-90033834D01*
X155331144Y-90010779D01*
X155330000Y-89987500D01*
X155330000Y-89512500D01*
X155331144Y-89489221D01*
X155334563Y-89466166D01*
X155340227Y-89443557D01*
X155348079Y-89421613D01*
X155358044Y-89400543D01*
X155370026Y-89380552D01*
X155383910Y-89361832D01*
X155399562Y-89344562D01*
X155416832Y-89328910D01*
X155435552Y-89315026D01*
X155455543Y-89303044D01*
X155476613Y-89293079D01*
X155498557Y-89285227D01*
X155521166Y-89279563D01*
X155544221Y-89276144D01*
X155567500Y-89275000D01*
X156142500Y-89275000D01*
X156165779Y-89276144D01*
X156165779Y-89276144D01*
G37*
D15*
X155855000Y-89750000D03*
G04 #@! TD*
D19*
G04 #@! TO.C,U1*
X148080000Y-76425000D03*
X148080000Y-77075000D03*
X148080000Y-77725000D03*
X148080000Y-78375000D03*
X148080000Y-79025000D03*
X148080000Y-79675000D03*
X148080000Y-80325000D03*
X148080000Y-80975000D03*
X142180000Y-80975000D03*
X142180000Y-80325000D03*
X142180000Y-79675000D03*
X142180000Y-79025000D03*
X142180000Y-78375000D03*
X142180000Y-77725000D03*
X142180000Y-77075000D03*
X142180000Y-76425000D03*
G04 #@! TD*
G04 #@! TO.C,U2*
X142280000Y-96775000D03*
X142280000Y-97425000D03*
X142280000Y-98075000D03*
X142280000Y-98725000D03*
X142280000Y-99375000D03*
X142280000Y-100025000D03*
X142280000Y-100675000D03*
X142280000Y-101325000D03*
X148180000Y-101325000D03*
X148180000Y-100675000D03*
X148180000Y-100025000D03*
X148180000Y-99375000D03*
X148180000Y-98725000D03*
X148180000Y-98075000D03*
X148180000Y-97425000D03*
X148180000Y-96775000D03*
G04 #@! TD*
D20*
G04 #@! TO.C,D1*
X147320000Y-63500000D03*
D21*
X148590000Y-63500000D03*
X149860000Y-63500000D03*
X151130000Y-63500000D03*
G04 #@! TD*
D20*
G04 #@! TO.C,D2*
X147320000Y-93980000D03*
D21*
X148590000Y-93980000D03*
X149860000Y-93980000D03*
X151130000Y-93980000D03*
G04 #@! TD*
G04 #@! TO.C,D4*
X151130000Y-73660000D03*
X149860000Y-73660000D03*
X148590000Y-73660000D03*
D20*
X147320000Y-73660000D03*
G04 #@! TD*
D21*
G04 #@! TO.C,D5*
X151130000Y-104140000D03*
X149860000Y-104140000D03*
X148590000Y-104140000D03*
D20*
X147320000Y-104140000D03*
G04 #@! TD*
G04 #@! TO.C,D7*
X147320000Y-83820000D03*
D21*
X148590000Y-83820000D03*
X149860000Y-83820000D03*
X151130000Y-83820000D03*
G04 #@! TD*
M02*
