G04 #@! TF.GenerationSoftware,KiCad,Pcbnew,5.0.2-bee76a0~70~ubuntu16.04.1*
G04 #@! TF.CreationDate,2020-01-15T21:00:25+00:00*
G04 #@! TF.ProjectId,receiver,72656365-6976-4657-922e-6b696361645f,rev?*
G04 #@! TF.SameCoordinates,Original*
G04 #@! TF.FileFunction,Legend,Top*
G04 #@! TF.FilePolarity,Positive*
%FSLAX46Y46*%
G04 Gerber Fmt 4.6, Leading zero omitted, Abs format (unit mm)*
G04 Created by KiCad (PCBNEW 5.0.2-bee76a0~70~ubuntu16.04.1) date Wed 15 Jan 2020 21:00:25 GMT*
%MOMM*%
%LPD*%
G01*
G04 APERTURE LIST*
%ADD10C,0.100000*%
%ADD11C,0.225000*%
%ADD12C,0.120000*%
G04 APERTURE END LIST*
D10*
X156397619Y-113011904D02*
X156016666Y-113011904D01*
X156016666Y-112211904D01*
X156664285Y-113011904D02*
X156664285Y-112211904D01*
X156854761Y-112211904D01*
X156969047Y-112250000D01*
X157045238Y-112326190D01*
X157083333Y-112402380D01*
X157121428Y-112554761D01*
X157121428Y-112669047D01*
X157083333Y-112821428D01*
X157045238Y-112897619D01*
X156969047Y-112973809D01*
X156854761Y-113011904D01*
X156664285Y-113011904D01*
X157921428Y-113011904D02*
X157654761Y-112630952D01*
X157464285Y-113011904D02*
X157464285Y-112211904D01*
X157769047Y-112211904D01*
X157845238Y-112250000D01*
X157883333Y-112288095D01*
X157921428Y-112364285D01*
X157921428Y-112478571D01*
X157883333Y-112554761D01*
X157845238Y-112592857D01*
X157769047Y-112630952D01*
X157464285Y-112630952D01*
X151473809Y-112935714D02*
X151435714Y-112973809D01*
X151321428Y-113011904D01*
X151245238Y-113011904D01*
X151130952Y-112973809D01*
X151054761Y-112897619D01*
X151016666Y-112821428D01*
X150978571Y-112669047D01*
X150978571Y-112554761D01*
X151016666Y-112402380D01*
X151054761Y-112326190D01*
X151130952Y-112250000D01*
X151245238Y-112211904D01*
X151321428Y-112211904D01*
X151435714Y-112250000D01*
X151473809Y-112288095D01*
X152197619Y-113011904D02*
X151816666Y-113011904D01*
X151816666Y-112211904D01*
X152464285Y-113011904D02*
X152464285Y-112211904D01*
X152921428Y-113011904D02*
X152578571Y-112554761D01*
X152921428Y-112211904D02*
X152464285Y-112669047D01*
X149292857Y-113011904D02*
X148911904Y-113011904D01*
X148911904Y-112211904D01*
X149445238Y-112211904D02*
X149902380Y-112211904D01*
X149673809Y-113011904D02*
X149673809Y-112211904D01*
X146540476Y-113011904D02*
X146540476Y-112211904D01*
X146730952Y-112211904D01*
X146845238Y-112250000D01*
X146921428Y-112326190D01*
X146959523Y-112402380D01*
X146997619Y-112554761D01*
X146997619Y-112669047D01*
X146959523Y-112821428D01*
X146921428Y-112897619D01*
X146845238Y-112973809D01*
X146730952Y-113011904D01*
X146540476Y-113011904D01*
X143640476Y-112250000D02*
X143564285Y-112211904D01*
X143450000Y-112211904D01*
X143335714Y-112250000D01*
X143259523Y-112326190D01*
X143221428Y-112402380D01*
X143183333Y-112554761D01*
X143183333Y-112669047D01*
X143221428Y-112821428D01*
X143259523Y-112897619D01*
X143335714Y-112973809D01*
X143450000Y-113011904D01*
X143526190Y-113011904D01*
X143640476Y-112973809D01*
X143678571Y-112935714D01*
X143678571Y-112669047D01*
X143526190Y-112669047D01*
X144021428Y-113011904D02*
X144021428Y-112211904D01*
X144478571Y-113011904D01*
X144478571Y-112211904D01*
X144859523Y-113011904D02*
X144859523Y-112211904D01*
X145050000Y-112211904D01*
X145164285Y-112250000D01*
X145240476Y-112326190D01*
X145278571Y-112402380D01*
X145316666Y-112554761D01*
X145316666Y-112669047D01*
X145278571Y-112821428D01*
X145240476Y-112897619D01*
X145164285Y-112973809D01*
X145050000Y-113011904D01*
X144859523Y-113011904D01*
X140759523Y-112211904D02*
X141254761Y-112211904D01*
X140988095Y-112516666D01*
X141102380Y-112516666D01*
X141178571Y-112554761D01*
X141216666Y-112592857D01*
X141254761Y-112669047D01*
X141254761Y-112859523D01*
X141216666Y-112935714D01*
X141178571Y-112973809D01*
X141102380Y-113011904D01*
X140873809Y-113011904D01*
X140797619Y-112973809D01*
X140759523Y-112935714D01*
X141483333Y-112211904D02*
X141750000Y-113011904D01*
X142016666Y-112211904D01*
X142207142Y-112211904D02*
X142702380Y-112211904D01*
X142435714Y-112516666D01*
X142550000Y-112516666D01*
X142626190Y-112554761D01*
X142664285Y-112592857D01*
X142702380Y-112669047D01*
X142702380Y-112859523D01*
X142664285Y-112935714D01*
X142626190Y-112973809D01*
X142550000Y-113011904D01*
X142321428Y-113011904D01*
X142245238Y-112973809D01*
X142207142Y-112935714D01*
D11*
X155347142Y-108691142D02*
X154447142Y-108691142D01*
X155347142Y-108305428D02*
X154875714Y-108305428D01*
X154790000Y-108348285D01*
X154747142Y-108433999D01*
X154747142Y-108562571D01*
X154790000Y-108648285D01*
X154832857Y-108691142D01*
X154747142Y-108005428D02*
X154747142Y-107662571D01*
X154447142Y-107876857D02*
X155218571Y-107876857D01*
X155304285Y-107833999D01*
X155347142Y-107748285D01*
X155347142Y-107662571D01*
X154747142Y-107491142D02*
X154747142Y-107148285D01*
X154447142Y-107362571D02*
X155218571Y-107362571D01*
X155304285Y-107319714D01*
X155347142Y-107233999D01*
X155347142Y-107148285D01*
X154747142Y-106848285D02*
X155647142Y-106848285D01*
X154790000Y-106848285D02*
X154747142Y-106762571D01*
X154747142Y-106591142D01*
X154790000Y-106505428D01*
X154832857Y-106462571D01*
X154918571Y-106419714D01*
X155175714Y-106419714D01*
X155261428Y-106462571D01*
X155304285Y-106505428D01*
X155347142Y-106591142D01*
X155347142Y-106762571D01*
X155304285Y-106848285D01*
X155304285Y-106076857D02*
X155347142Y-105991142D01*
X155347142Y-105819714D01*
X155304285Y-105733999D01*
X155218571Y-105691142D01*
X155175714Y-105691142D01*
X155090000Y-105733999D01*
X155047142Y-105819714D01*
X155047142Y-105948285D01*
X155004285Y-106033999D01*
X154918571Y-106076857D01*
X154875714Y-106076857D01*
X154790000Y-106033999D01*
X154747142Y-105948285D01*
X154747142Y-105819714D01*
X154790000Y-105733999D01*
X155261428Y-105305428D02*
X155304285Y-105262571D01*
X155347142Y-105305428D01*
X155304285Y-105348285D01*
X155261428Y-105305428D01*
X155347142Y-105305428D01*
X154790000Y-105305428D02*
X154832857Y-105262571D01*
X154875714Y-105305428D01*
X154832857Y-105348285D01*
X154790000Y-105305428D01*
X154875714Y-105305428D01*
X154404285Y-104233999D02*
X155561428Y-105005428D01*
X154404285Y-103291142D02*
X155561428Y-104062571D01*
X154747142Y-102605428D02*
X155475714Y-102605428D01*
X155561428Y-102648285D01*
X155604285Y-102691142D01*
X155647142Y-102776857D01*
X155647142Y-102905428D01*
X155604285Y-102991142D01*
X155304285Y-102605428D02*
X155347142Y-102691142D01*
X155347142Y-102862571D01*
X155304285Y-102948285D01*
X155261428Y-102991142D01*
X155175714Y-103033999D01*
X154918571Y-103033999D01*
X154832857Y-102991142D01*
X154790000Y-102948285D01*
X154747142Y-102862571D01*
X154747142Y-102691142D01*
X154790000Y-102605428D01*
X155347142Y-102176857D02*
X154747142Y-102176857D01*
X154447142Y-102176857D02*
X154490000Y-102219714D01*
X154532857Y-102176857D01*
X154490000Y-102133999D01*
X154447142Y-102176857D01*
X154532857Y-102176857D01*
X154747142Y-101876857D02*
X154747142Y-101533999D01*
X154447142Y-101748285D02*
X155218571Y-101748285D01*
X155304285Y-101705428D01*
X155347142Y-101619714D01*
X155347142Y-101533999D01*
X155347142Y-101233999D02*
X154447142Y-101233999D01*
X155347142Y-100848285D02*
X154875714Y-100848285D01*
X154790000Y-100891142D01*
X154747142Y-100976857D01*
X154747142Y-101105428D01*
X154790000Y-101191142D01*
X154832857Y-101233999D01*
X154747142Y-100033999D02*
X155347142Y-100033999D01*
X154747142Y-100419714D02*
X155218571Y-100419714D01*
X155304285Y-100376857D01*
X155347142Y-100291142D01*
X155347142Y-100162571D01*
X155304285Y-100076857D01*
X155261428Y-100033999D01*
X155347142Y-99605428D02*
X154447142Y-99605428D01*
X154790000Y-99605428D02*
X154747142Y-99519714D01*
X154747142Y-99348285D01*
X154790000Y-99262571D01*
X154832857Y-99219714D01*
X154918571Y-99176857D01*
X155175714Y-99176857D01*
X155261428Y-99219714D01*
X155304285Y-99262571D01*
X155347142Y-99348285D01*
X155347142Y-99519714D01*
X155304285Y-99605428D01*
X155261428Y-98791142D02*
X155304285Y-98748285D01*
X155347142Y-98791142D01*
X155304285Y-98833999D01*
X155261428Y-98791142D01*
X155347142Y-98791142D01*
X155304285Y-97976857D02*
X155347142Y-98062571D01*
X155347142Y-98233999D01*
X155304285Y-98319714D01*
X155261428Y-98362571D01*
X155175714Y-98405428D01*
X154918571Y-98405428D01*
X154832857Y-98362571D01*
X154790000Y-98319714D01*
X154747142Y-98233999D01*
X154747142Y-98062571D01*
X154790000Y-97976857D01*
X155347142Y-97462571D02*
X155304285Y-97548285D01*
X155261428Y-97591142D01*
X155175714Y-97633999D01*
X154918571Y-97633999D01*
X154832857Y-97591142D01*
X154790000Y-97548285D01*
X154747142Y-97462571D01*
X154747142Y-97333999D01*
X154790000Y-97248285D01*
X154832857Y-97205428D01*
X154918571Y-97162571D01*
X155175714Y-97162571D01*
X155261428Y-97205428D01*
X155304285Y-97248285D01*
X155347142Y-97333999D01*
X155347142Y-97462571D01*
X155347142Y-96776857D02*
X154747142Y-96776857D01*
X154832857Y-96776857D02*
X154790000Y-96733999D01*
X154747142Y-96648285D01*
X154747142Y-96519714D01*
X154790000Y-96433999D01*
X154875714Y-96391142D01*
X155347142Y-96391142D01*
X154875714Y-96391142D02*
X154790000Y-96348285D01*
X154747142Y-96262571D01*
X154747142Y-96133999D01*
X154790000Y-96048285D01*
X154875714Y-96005428D01*
X155347142Y-96005428D01*
X154404285Y-94933999D02*
X155561428Y-95705428D01*
X154747142Y-94762571D02*
X154747142Y-94419714D01*
X154447142Y-94633999D02*
X155218571Y-94633999D01*
X155304285Y-94591142D01*
X155347142Y-94505428D01*
X155347142Y-94419714D01*
X155347142Y-94119714D02*
X154447142Y-94119714D01*
X155347142Y-93733999D02*
X154875714Y-93733999D01*
X154790000Y-93776857D01*
X154747142Y-93862571D01*
X154747142Y-93991142D01*
X154790000Y-94076857D01*
X154832857Y-94119714D01*
X155304285Y-92962571D02*
X155347142Y-93048285D01*
X155347142Y-93219714D01*
X155304285Y-93305428D01*
X155218571Y-93348285D01*
X154875714Y-93348285D01*
X154790000Y-93305428D01*
X154747142Y-93219714D01*
X154747142Y-93048285D01*
X154790000Y-92962571D01*
X154875714Y-92919714D01*
X154961428Y-92919714D01*
X155047142Y-93348285D01*
X155347142Y-92148285D02*
X154875714Y-92148285D01*
X154790000Y-92191142D01*
X154747142Y-92276857D01*
X154747142Y-92448285D01*
X154790000Y-92533999D01*
X155304285Y-92148285D02*
X155347142Y-92233999D01*
X155347142Y-92448285D01*
X155304285Y-92533999D01*
X155218571Y-92576857D01*
X155132857Y-92576857D01*
X155047142Y-92533999D01*
X155004285Y-92448285D01*
X155004285Y-92233999D01*
X154961428Y-92148285D01*
X154747142Y-91719714D02*
X155647142Y-91719714D01*
X154790000Y-91719714D02*
X154747142Y-91633999D01*
X154747142Y-91462571D01*
X154790000Y-91376857D01*
X154832857Y-91333999D01*
X154918571Y-91291142D01*
X155175714Y-91291142D01*
X155261428Y-91333999D01*
X155304285Y-91376857D01*
X155347142Y-91462571D01*
X155347142Y-91633999D01*
X155304285Y-91719714D01*
X155347142Y-90905428D02*
X154747142Y-90905428D01*
X154447142Y-90905428D02*
X154490000Y-90948285D01*
X154532857Y-90905428D01*
X154490000Y-90862571D01*
X154447142Y-90905428D01*
X154532857Y-90905428D01*
X154404285Y-89833999D02*
X155561428Y-90605428D01*
X155304285Y-89191142D02*
X155347142Y-89276857D01*
X155347142Y-89448285D01*
X155304285Y-89534000D01*
X155218571Y-89576857D01*
X154875714Y-89576857D01*
X154790000Y-89534000D01*
X154747142Y-89448285D01*
X154747142Y-89276857D01*
X154790000Y-89191142D01*
X154875714Y-89148285D01*
X154961428Y-89148285D01*
X155047142Y-89576857D01*
X155304285Y-88805428D02*
X155347142Y-88719714D01*
X155347142Y-88548285D01*
X155304285Y-88462571D01*
X155218571Y-88419714D01*
X155175714Y-88419714D01*
X155090000Y-88462571D01*
X155047142Y-88548285D01*
X155047142Y-88676857D01*
X155004285Y-88762571D01*
X154918571Y-88805428D01*
X154875714Y-88805428D01*
X154790000Y-88762571D01*
X154747142Y-88676857D01*
X154747142Y-88548285D01*
X154790000Y-88462571D01*
X154747142Y-88034000D02*
X155647142Y-88034000D01*
X154790000Y-88034000D02*
X154747142Y-87948285D01*
X154747142Y-87776857D01*
X154790000Y-87691142D01*
X154832857Y-87648285D01*
X154918571Y-87605428D01*
X155175714Y-87605428D01*
X155261428Y-87648285D01*
X155304285Y-87691142D01*
X155347142Y-87776857D01*
X155347142Y-87948285D01*
X155304285Y-88034000D01*
X154832857Y-87091142D02*
X154790000Y-87176857D01*
X154747142Y-87219714D01*
X154661428Y-87262571D01*
X154618571Y-87262571D01*
X154532857Y-87219714D01*
X154490000Y-87176857D01*
X154447142Y-87091142D01*
X154447142Y-86919714D01*
X154490000Y-86834000D01*
X154532857Y-86791142D01*
X154618571Y-86748285D01*
X154661428Y-86748285D01*
X154747142Y-86791142D01*
X154790000Y-86834000D01*
X154832857Y-86919714D01*
X154832857Y-87091142D01*
X154875714Y-87176857D01*
X154918571Y-87219714D01*
X155004285Y-87262571D01*
X155175714Y-87262571D01*
X155261428Y-87219714D01*
X155304285Y-87176857D01*
X155347142Y-87091142D01*
X155347142Y-86919714D01*
X155304285Y-86834000D01*
X155261428Y-86791142D01*
X155175714Y-86748285D01*
X155004285Y-86748285D01*
X154918571Y-86791142D01*
X154875714Y-86834000D01*
X154832857Y-86919714D01*
X154532857Y-86405428D02*
X154490000Y-86362571D01*
X154447142Y-86276857D01*
X154447142Y-86062571D01*
X154490000Y-85976857D01*
X154532857Y-85934000D01*
X154618571Y-85891142D01*
X154704285Y-85891142D01*
X154832857Y-85934000D01*
X155347142Y-86448285D01*
X155347142Y-85891142D01*
X154447142Y-85119714D02*
X154447142Y-85291142D01*
X154490000Y-85376857D01*
X154532857Y-85419714D01*
X154661428Y-85505428D01*
X154832857Y-85548285D01*
X155175714Y-85548285D01*
X155261428Y-85505428D01*
X155304285Y-85462571D01*
X155347142Y-85376857D01*
X155347142Y-85205428D01*
X155304285Y-85119714D01*
X155261428Y-85076857D01*
X155175714Y-85033999D01*
X154961428Y-85033999D01*
X154875714Y-85076857D01*
X154832857Y-85119714D01*
X154790000Y-85205428D01*
X154790000Y-85376857D01*
X154832857Y-85462571D01*
X154875714Y-85505428D01*
X154961428Y-85548285D01*
X154447142Y-84262571D02*
X154447142Y-84433999D01*
X154490000Y-84519714D01*
X154532857Y-84562571D01*
X154661428Y-84648285D01*
X154832857Y-84691142D01*
X155175714Y-84691142D01*
X155261428Y-84648285D01*
X155304285Y-84605428D01*
X155347142Y-84519714D01*
X155347142Y-84348285D01*
X155304285Y-84262571D01*
X155261428Y-84219714D01*
X155175714Y-84176857D01*
X154961428Y-84176857D01*
X154875714Y-84219714D01*
X154832857Y-84262571D01*
X154790000Y-84348285D01*
X154790000Y-84519714D01*
X154832857Y-84605428D01*
X154875714Y-84648285D01*
X154961428Y-84691142D01*
X154747142Y-83876857D02*
X155347142Y-83705428D01*
X154918571Y-83533999D01*
X155347142Y-83362571D01*
X154747142Y-83191142D01*
X155304285Y-82891142D02*
X155347142Y-82805428D01*
X155347142Y-82633999D01*
X155304285Y-82548285D01*
X155218571Y-82505428D01*
X155175714Y-82505428D01*
X155090000Y-82548285D01*
X155047142Y-82633999D01*
X155047142Y-82762571D01*
X155004285Y-82848285D01*
X154918571Y-82891142D01*
X154875714Y-82891142D01*
X154790000Y-82848285D01*
X154747142Y-82762571D01*
X154747142Y-82633999D01*
X154790000Y-82548285D01*
X154747142Y-82119714D02*
X155347142Y-82119714D01*
X154832857Y-82119714D02*
X154790000Y-82076857D01*
X154747142Y-81991142D01*
X154747142Y-81862571D01*
X154790000Y-81776857D01*
X154875714Y-81733999D01*
X155347142Y-81733999D01*
X154747142Y-79333999D02*
X155347142Y-79119714D01*
X154747142Y-78905428D01*
X154532857Y-78605428D02*
X154490000Y-78562571D01*
X154447142Y-78476857D01*
X154447142Y-78262571D01*
X154490000Y-78176857D01*
X154532857Y-78133999D01*
X154618571Y-78091142D01*
X154704285Y-78091142D01*
X154832857Y-78133999D01*
X155347142Y-78648285D01*
X155347142Y-78091142D01*
X155261428Y-77705428D02*
X155304285Y-77662571D01*
X155347142Y-77705428D01*
X155304285Y-77748285D01*
X155261428Y-77705428D01*
X155347142Y-77705428D01*
X154447142Y-77105428D02*
X154447142Y-77019714D01*
X154490000Y-76933999D01*
X154532857Y-76891142D01*
X154618571Y-76848285D01*
X154790000Y-76805428D01*
X155004285Y-76805428D01*
X155175714Y-76848285D01*
X155261428Y-76891142D01*
X155304285Y-76933999D01*
X155347142Y-77019714D01*
X155347142Y-77105428D01*
X155304285Y-77191142D01*
X155261428Y-77233999D01*
X155175714Y-77276857D01*
X155004285Y-77319714D01*
X154790000Y-77319714D01*
X154618571Y-77276857D01*
X154532857Y-77233999D01*
X154490000Y-77191142D01*
X154447142Y-77105428D01*
X155261428Y-76419714D02*
X155304285Y-76376857D01*
X155347142Y-76419714D01*
X155304285Y-76462571D01*
X155261428Y-76419714D01*
X155347142Y-76419714D01*
X154447142Y-75819714D02*
X154447142Y-75733999D01*
X154490000Y-75648285D01*
X154532857Y-75605428D01*
X154618571Y-75562571D01*
X154790000Y-75519714D01*
X155004285Y-75519714D01*
X155175714Y-75562571D01*
X155261428Y-75605428D01*
X155304285Y-75648285D01*
X155347142Y-75733999D01*
X155347142Y-75819714D01*
X155304285Y-75905428D01*
X155261428Y-75948285D01*
X155175714Y-75991142D01*
X155004285Y-76033999D01*
X154790000Y-76033999D01*
X154618571Y-75991142D01*
X154532857Y-75948285D01*
X154490000Y-75905428D01*
X154447142Y-75819714D01*
X154447142Y-72819714D02*
X155090000Y-72819714D01*
X155218571Y-72862571D01*
X155304285Y-72948285D01*
X155347142Y-73076857D01*
X155347142Y-73162571D01*
X155347142Y-72005428D02*
X154875714Y-72005428D01*
X154790000Y-72048285D01*
X154747142Y-72133999D01*
X154747142Y-72305428D01*
X154790000Y-72391142D01*
X155304285Y-72005428D02*
X155347142Y-72091142D01*
X155347142Y-72305428D01*
X155304285Y-72391142D01*
X155218571Y-72433999D01*
X155132857Y-72433999D01*
X155047142Y-72391142D01*
X155004285Y-72305428D01*
X155004285Y-72091142D01*
X154961428Y-72005428D01*
X154747142Y-71576857D02*
X155347142Y-71576857D01*
X154832857Y-71576857D02*
X154790000Y-71533999D01*
X154747142Y-71448285D01*
X154747142Y-71319714D01*
X154790000Y-71233999D01*
X154875714Y-71191142D01*
X155347142Y-71191142D01*
X154532857Y-70119714D02*
X154490000Y-70076857D01*
X154447142Y-69991142D01*
X154447142Y-69776857D01*
X154490000Y-69691142D01*
X154532857Y-69648285D01*
X154618571Y-69605428D01*
X154704285Y-69605428D01*
X154832857Y-69648285D01*
X155347142Y-70162571D01*
X155347142Y-69605428D01*
X154447142Y-69048285D02*
X154447142Y-68962571D01*
X154490000Y-68876857D01*
X154532857Y-68833999D01*
X154618571Y-68791142D01*
X154790000Y-68748285D01*
X155004285Y-68748285D01*
X155175714Y-68791142D01*
X155261428Y-68833999D01*
X155304285Y-68876857D01*
X155347142Y-68962571D01*
X155347142Y-69048285D01*
X155304285Y-69133999D01*
X155261428Y-69176857D01*
X155175714Y-69219714D01*
X155004285Y-69262571D01*
X154790000Y-69262571D01*
X154618571Y-69219714D01*
X154532857Y-69176857D01*
X154490000Y-69133999D01*
X154447142Y-69048285D01*
X154532857Y-68405428D02*
X154490000Y-68362571D01*
X154447142Y-68276857D01*
X154447142Y-68062571D01*
X154490000Y-67976857D01*
X154532857Y-67933999D01*
X154618571Y-67891142D01*
X154704285Y-67891142D01*
X154832857Y-67933999D01*
X155347142Y-68448285D01*
X155347142Y-67891142D01*
X154447142Y-67333999D02*
X154447142Y-67248285D01*
X154490000Y-67162571D01*
X154532857Y-67119714D01*
X154618571Y-67076857D01*
X154790000Y-67033999D01*
X155004285Y-67033999D01*
X155175714Y-67076857D01*
X155261428Y-67119714D01*
X155304285Y-67162571D01*
X155347142Y-67248285D01*
X155347142Y-67333999D01*
X155304285Y-67419714D01*
X155261428Y-67462571D01*
X155175714Y-67505428D01*
X155004285Y-67548285D01*
X154790000Y-67548285D01*
X154618571Y-67505428D01*
X154532857Y-67462571D01*
X154490000Y-67419714D01*
X154447142Y-67333999D01*
D12*
G04 #@! TO.C,D1*
X152012815Y-62419173D02*
G75*
G03X146665000Y-61955170I-2787815J-1080827D01*
G01*
X152012815Y-64580827D02*
G75*
G02X146665000Y-65044830I-2787815J1080827D01*
G01*
X151479479Y-62419571D02*
G75*
G03X146970316Y-62420000I-2254479J-1080429D01*
G01*
X151479479Y-64580429D02*
G75*
G02X146970316Y-64580000I-2254479J1080429D01*
G01*
X146665000Y-61955000D02*
X146665000Y-62420000D01*
X146665000Y-64580000D02*
X146665000Y-65045000D01*
G04 #@! TO.C,D2*
X152012815Y-92899173D02*
G75*
G03X146665000Y-92435170I-2787815J-1080827D01*
G01*
X152012815Y-95060827D02*
G75*
G02X146665000Y-95524830I-2787815J1080827D01*
G01*
X151479479Y-92899571D02*
G75*
G03X146970316Y-92900000I-2254479J-1080429D01*
G01*
X151479479Y-95060429D02*
G75*
G02X146970316Y-95060000I-2254479J1080429D01*
G01*
X146665000Y-92435000D02*
X146665000Y-92900000D01*
X146665000Y-95060000D02*
X146665000Y-95525000D01*
G04 #@! TO.C,D4*
X146665000Y-74740000D02*
X146665000Y-75205000D01*
X146665000Y-72115000D02*
X146665000Y-72580000D01*
X151479479Y-74740429D02*
G75*
G02X146970316Y-74740000I-2254479J1080429D01*
G01*
X151479479Y-72579571D02*
G75*
G03X146970316Y-72580000I-2254479J-1080429D01*
G01*
X152012815Y-74740827D02*
G75*
G02X146665000Y-75204830I-2787815J1080827D01*
G01*
X152012815Y-72579173D02*
G75*
G03X146665000Y-72115170I-2787815J-1080827D01*
G01*
G04 #@! TO.C,D5*
X146665000Y-105220000D02*
X146665000Y-105685000D01*
X146665000Y-102595000D02*
X146665000Y-103060000D01*
X151479479Y-105220429D02*
G75*
G02X146970316Y-105220000I-2254479J1080429D01*
G01*
X151479479Y-103059571D02*
G75*
G03X146970316Y-103060000I-2254479J-1080429D01*
G01*
X152012815Y-105220827D02*
G75*
G02X146665000Y-105684830I-2787815J1080827D01*
G01*
X152012815Y-103059173D02*
G75*
G03X146665000Y-102595170I-2787815J-1080827D01*
G01*
G04 #@! TO.C,D7*
X152012815Y-82739173D02*
G75*
G03X146665000Y-82275170I-2787815J-1080827D01*
G01*
X152012815Y-84900827D02*
G75*
G02X146665000Y-85364830I-2787815J1080827D01*
G01*
X151479479Y-82739571D02*
G75*
G03X146970316Y-82740000I-2254479J-1080429D01*
G01*
X151479479Y-84900429D02*
G75*
G02X146970316Y-84900000I-2254479J1080429D01*
G01*
X146665000Y-82275000D02*
X146665000Y-82740000D01*
X146665000Y-84900000D02*
X146665000Y-85365000D01*
G04 #@! TO.C,D1*
X148634523Y-59901904D02*
X148634523Y-59101904D01*
X148825000Y-59101904D01*
X148939285Y-59140000D01*
X149015476Y-59216190D01*
X149053571Y-59292380D01*
X149091666Y-59444761D01*
X149091666Y-59559047D01*
X149053571Y-59711428D01*
X149015476Y-59787619D01*
X148939285Y-59863809D01*
X148825000Y-59901904D01*
X148634523Y-59901904D01*
X149853571Y-59901904D02*
X149396428Y-59901904D01*
X149625000Y-59901904D02*
X149625000Y-59101904D01*
X149548809Y-59216190D01*
X149472619Y-59292380D01*
X149396428Y-59330476D01*
G04 #@! TO.C,D2*
X148634523Y-90381904D02*
X148634523Y-89581904D01*
X148825000Y-89581904D01*
X148939285Y-89620000D01*
X149015476Y-89696190D01*
X149053571Y-89772380D01*
X149091666Y-89924761D01*
X149091666Y-90039047D01*
X149053571Y-90191428D01*
X149015476Y-90267619D01*
X148939285Y-90343809D01*
X148825000Y-90381904D01*
X148634523Y-90381904D01*
X149396428Y-89658095D02*
X149434523Y-89620000D01*
X149510714Y-89581904D01*
X149701190Y-89581904D01*
X149777380Y-89620000D01*
X149815476Y-89658095D01*
X149853571Y-89734285D01*
X149853571Y-89810476D01*
X149815476Y-89924761D01*
X149358333Y-90381904D01*
X149853571Y-90381904D01*
G04 #@! TO.C,D4*
X148634523Y-70061904D02*
X148634523Y-69261904D01*
X148825000Y-69261904D01*
X148939285Y-69300000D01*
X149015476Y-69376190D01*
X149053571Y-69452380D01*
X149091666Y-69604761D01*
X149091666Y-69719047D01*
X149053571Y-69871428D01*
X149015476Y-69947619D01*
X148939285Y-70023809D01*
X148825000Y-70061904D01*
X148634523Y-70061904D01*
X149777380Y-69528571D02*
X149777380Y-70061904D01*
X149586904Y-69223809D02*
X149396428Y-69795238D01*
X149891666Y-69795238D01*
G04 #@! TO.C,D5*
X148634523Y-100541904D02*
X148634523Y-99741904D01*
X148825000Y-99741904D01*
X148939285Y-99780000D01*
X149015476Y-99856190D01*
X149053571Y-99932380D01*
X149091666Y-100084761D01*
X149091666Y-100199047D01*
X149053571Y-100351428D01*
X149015476Y-100427619D01*
X148939285Y-100503809D01*
X148825000Y-100541904D01*
X148634523Y-100541904D01*
X149815476Y-99741904D02*
X149434523Y-99741904D01*
X149396428Y-100122857D01*
X149434523Y-100084761D01*
X149510714Y-100046666D01*
X149701190Y-100046666D01*
X149777380Y-100084761D01*
X149815476Y-100122857D01*
X149853571Y-100199047D01*
X149853571Y-100389523D01*
X149815476Y-100465714D01*
X149777380Y-100503809D01*
X149701190Y-100541904D01*
X149510714Y-100541904D01*
X149434523Y-100503809D01*
X149396428Y-100465714D01*
G04 #@! TO.C,D7*
X148634523Y-80221904D02*
X148634523Y-79421904D01*
X148825000Y-79421904D01*
X148939285Y-79460000D01*
X149015476Y-79536190D01*
X149053571Y-79612380D01*
X149091666Y-79764761D01*
X149091666Y-79879047D01*
X149053571Y-80031428D01*
X149015476Y-80107619D01*
X148939285Y-80183809D01*
X148825000Y-80221904D01*
X148634523Y-80221904D01*
X149358333Y-79421904D02*
X149891666Y-79421904D01*
X149548809Y-80221904D01*
G04 #@! TD*
M02*
