G04 #@! TF.GenerationSoftware,KiCad,Pcbnew,5.0.2-bee76a0~70~ubuntu16.04.1*
G04 #@! TF.CreationDate,2020-01-15T21:00:25+00:00*
G04 #@! TF.ProjectId,receiver,72656365-6976-4657-922e-6b696361645f,rev?*
G04 #@! TF.SameCoordinates,Original*
G04 #@! TF.FileFunction,Copper,L2,Bot*
G04 #@! TF.FilePolarity,Positive*
%FSLAX46Y46*%
G04 Gerber Fmt 4.6, Leading zero omitted, Abs format (unit mm)*
G04 Created by KiCad (PCBNEW 5.0.2-bee76a0~70~ubuntu16.04.1) date Wed 15 Jan 2020 21:00:25 GMT*
%MOMM*%
%LPD*%
G01*
G04 APERTURE LIST*
G04 #@! TA.AperFunction,Conductor*
%ADD10C,0.500000*%
G04 #@! TD*
G04 #@! TA.AperFunction,SMDPad,CuDef*
%ADD11C,0.950000*%
G04 #@! TD*
G04 #@! TA.AperFunction,ComponentPad*
%ADD12R,1.700000X1.700000*%
G04 #@! TD*
G04 #@! TA.AperFunction,ComponentPad*
%ADD13O,1.700000X1.700000*%
G04 #@! TD*
G04 #@! TA.AperFunction,ComponentPad*
%ADD14C,1.500000*%
G04 #@! TD*
G04 #@! TA.AperFunction,SMDPad,CuDef*
%ADD15R,1.500000X0.450000*%
G04 #@! TD*
G04 #@! TA.AperFunction,ComponentPad*
%ADD16R,1.070000X1.800000*%
G04 #@! TD*
G04 #@! TA.AperFunction,ComponentPad*
%ADD17O,1.070000X1.800000*%
G04 #@! TD*
G04 #@! TA.AperFunction,ViaPad*
%ADD18C,0.800000*%
G04 #@! TD*
G04 #@! TA.AperFunction,Conductor*
%ADD19C,0.250000*%
G04 #@! TD*
G04 #@! TA.AperFunction,Conductor*
%ADD20C,0.254000*%
G04 #@! TD*
G04 APERTURE END LIST*
D10*
G04 #@! TO.N,Net-(D1-Pad1)*
G04 #@! TO.C,R3*
G36*
X154415779Y-63276144D02*
X154438834Y-63279563D01*
X154461443Y-63285227D01*
X154483387Y-63293079D01*
X154504457Y-63303044D01*
X154524448Y-63315026D01*
X154543168Y-63328910D01*
X154560438Y-63344562D01*
X154576090Y-63361832D01*
X154589974Y-63380552D01*
X154601956Y-63400543D01*
X154611921Y-63421613D01*
X154619773Y-63443557D01*
X154625437Y-63466166D01*
X154628856Y-63489221D01*
X154630000Y-63512500D01*
X154630000Y-63987500D01*
X154628856Y-64010779D01*
X154625437Y-64033834D01*
X154619773Y-64056443D01*
X154611921Y-64078387D01*
X154601956Y-64099457D01*
X154589974Y-64119448D01*
X154576090Y-64138168D01*
X154560438Y-64155438D01*
X154543168Y-64171090D01*
X154524448Y-64184974D01*
X154504457Y-64196956D01*
X154483387Y-64206921D01*
X154461443Y-64214773D01*
X154438834Y-64220437D01*
X154415779Y-64223856D01*
X154392500Y-64225000D01*
X153817500Y-64225000D01*
X153794221Y-64223856D01*
X153771166Y-64220437D01*
X153748557Y-64214773D01*
X153726613Y-64206921D01*
X153705543Y-64196956D01*
X153685552Y-64184974D01*
X153666832Y-64171090D01*
X153649562Y-64155438D01*
X153633910Y-64138168D01*
X153620026Y-64119448D01*
X153608044Y-64099457D01*
X153598079Y-64078387D01*
X153590227Y-64056443D01*
X153584563Y-64033834D01*
X153581144Y-64010779D01*
X153580000Y-63987500D01*
X153580000Y-63512500D01*
X153581144Y-63489221D01*
X153584563Y-63466166D01*
X153590227Y-63443557D01*
X153598079Y-63421613D01*
X153608044Y-63400543D01*
X153620026Y-63380552D01*
X153633910Y-63361832D01*
X153649562Y-63344562D01*
X153666832Y-63328910D01*
X153685552Y-63315026D01*
X153705543Y-63303044D01*
X153726613Y-63293079D01*
X153748557Y-63285227D01*
X153771166Y-63279563D01*
X153794221Y-63276144D01*
X153817500Y-63275000D01*
X154392500Y-63275000D01*
X154415779Y-63276144D01*
X154415779Y-63276144D01*
G37*
D11*
G04 #@! TD*
G04 #@! TO.P,R3,1*
G04 #@! TO.N,Net-(D1-Pad1)*
X154105000Y-63750000D03*
D10*
G04 #@! TO.N,Net-(R3-Pad2)*
G04 #@! TO.C,R3*
G36*
X156165779Y-63276144D02*
X156188834Y-63279563D01*
X156211443Y-63285227D01*
X156233387Y-63293079D01*
X156254457Y-63303044D01*
X156274448Y-63315026D01*
X156293168Y-63328910D01*
X156310438Y-63344562D01*
X156326090Y-63361832D01*
X156339974Y-63380552D01*
X156351956Y-63400543D01*
X156361921Y-63421613D01*
X156369773Y-63443557D01*
X156375437Y-63466166D01*
X156378856Y-63489221D01*
X156380000Y-63512500D01*
X156380000Y-63987500D01*
X156378856Y-64010779D01*
X156375437Y-64033834D01*
X156369773Y-64056443D01*
X156361921Y-64078387D01*
X156351956Y-64099457D01*
X156339974Y-64119448D01*
X156326090Y-64138168D01*
X156310438Y-64155438D01*
X156293168Y-64171090D01*
X156274448Y-64184974D01*
X156254457Y-64196956D01*
X156233387Y-64206921D01*
X156211443Y-64214773D01*
X156188834Y-64220437D01*
X156165779Y-64223856D01*
X156142500Y-64225000D01*
X155567500Y-64225000D01*
X155544221Y-64223856D01*
X155521166Y-64220437D01*
X155498557Y-64214773D01*
X155476613Y-64206921D01*
X155455543Y-64196956D01*
X155435552Y-64184974D01*
X155416832Y-64171090D01*
X155399562Y-64155438D01*
X155383910Y-64138168D01*
X155370026Y-64119448D01*
X155358044Y-64099457D01*
X155348079Y-64078387D01*
X155340227Y-64056443D01*
X155334563Y-64033834D01*
X155331144Y-64010779D01*
X155330000Y-63987500D01*
X155330000Y-63512500D01*
X155331144Y-63489221D01*
X155334563Y-63466166D01*
X155340227Y-63443557D01*
X155348079Y-63421613D01*
X155358044Y-63400543D01*
X155370026Y-63380552D01*
X155383910Y-63361832D01*
X155399562Y-63344562D01*
X155416832Y-63328910D01*
X155435552Y-63315026D01*
X155455543Y-63303044D01*
X155476613Y-63293079D01*
X155498557Y-63285227D01*
X155521166Y-63279563D01*
X155544221Y-63276144D01*
X155567500Y-63275000D01*
X156142500Y-63275000D01*
X156165779Y-63276144D01*
X156165779Y-63276144D01*
G37*
D11*
G04 #@! TD*
G04 #@! TO.P,R3,2*
G04 #@! TO.N,Net-(R3-Pad2)*
X155855000Y-63750000D03*
D10*
G04 #@! TO.N,GND*
G04 #@! TO.C,C1*
G36*
X142917779Y-73176144D02*
X142940834Y-73179563D01*
X142963443Y-73185227D01*
X142985387Y-73193079D01*
X143006457Y-73203044D01*
X143026448Y-73215026D01*
X143045168Y-73228910D01*
X143062438Y-73244562D01*
X143078090Y-73261832D01*
X143091974Y-73280552D01*
X143103956Y-73300543D01*
X143113921Y-73321613D01*
X143121773Y-73343557D01*
X143127437Y-73366166D01*
X143130856Y-73389221D01*
X143132000Y-73412500D01*
X143132000Y-73887500D01*
X143130856Y-73910779D01*
X143127437Y-73933834D01*
X143121773Y-73956443D01*
X143113921Y-73978387D01*
X143103956Y-73999457D01*
X143091974Y-74019448D01*
X143078090Y-74038168D01*
X143062438Y-74055438D01*
X143045168Y-74071090D01*
X143026448Y-74084974D01*
X143006457Y-74096956D01*
X142985387Y-74106921D01*
X142963443Y-74114773D01*
X142940834Y-74120437D01*
X142917779Y-74123856D01*
X142894500Y-74125000D01*
X142319500Y-74125000D01*
X142296221Y-74123856D01*
X142273166Y-74120437D01*
X142250557Y-74114773D01*
X142228613Y-74106921D01*
X142207543Y-74096956D01*
X142187552Y-74084974D01*
X142168832Y-74071090D01*
X142151562Y-74055438D01*
X142135910Y-74038168D01*
X142122026Y-74019448D01*
X142110044Y-73999457D01*
X142100079Y-73978387D01*
X142092227Y-73956443D01*
X142086563Y-73933834D01*
X142083144Y-73910779D01*
X142082000Y-73887500D01*
X142082000Y-73412500D01*
X142083144Y-73389221D01*
X142086563Y-73366166D01*
X142092227Y-73343557D01*
X142100079Y-73321613D01*
X142110044Y-73300543D01*
X142122026Y-73280552D01*
X142135910Y-73261832D01*
X142151562Y-73244562D01*
X142168832Y-73228910D01*
X142187552Y-73215026D01*
X142207543Y-73203044D01*
X142228613Y-73193079D01*
X142250557Y-73185227D01*
X142273166Y-73179563D01*
X142296221Y-73176144D01*
X142319500Y-73175000D01*
X142894500Y-73175000D01*
X142917779Y-73176144D01*
X142917779Y-73176144D01*
G37*
D11*
G04 #@! TD*
G04 #@! TO.P,C1,2*
G04 #@! TO.N,GND*
X142607000Y-73650000D03*
D10*
G04 #@! TO.N,+3V3*
G04 #@! TO.C,C1*
G36*
X141167779Y-73176144D02*
X141190834Y-73179563D01*
X141213443Y-73185227D01*
X141235387Y-73193079D01*
X141256457Y-73203044D01*
X141276448Y-73215026D01*
X141295168Y-73228910D01*
X141312438Y-73244562D01*
X141328090Y-73261832D01*
X141341974Y-73280552D01*
X141353956Y-73300543D01*
X141363921Y-73321613D01*
X141371773Y-73343557D01*
X141377437Y-73366166D01*
X141380856Y-73389221D01*
X141382000Y-73412500D01*
X141382000Y-73887500D01*
X141380856Y-73910779D01*
X141377437Y-73933834D01*
X141371773Y-73956443D01*
X141363921Y-73978387D01*
X141353956Y-73999457D01*
X141341974Y-74019448D01*
X141328090Y-74038168D01*
X141312438Y-74055438D01*
X141295168Y-74071090D01*
X141276448Y-74084974D01*
X141256457Y-74096956D01*
X141235387Y-74106921D01*
X141213443Y-74114773D01*
X141190834Y-74120437D01*
X141167779Y-74123856D01*
X141144500Y-74125000D01*
X140569500Y-74125000D01*
X140546221Y-74123856D01*
X140523166Y-74120437D01*
X140500557Y-74114773D01*
X140478613Y-74106921D01*
X140457543Y-74096956D01*
X140437552Y-74084974D01*
X140418832Y-74071090D01*
X140401562Y-74055438D01*
X140385910Y-74038168D01*
X140372026Y-74019448D01*
X140360044Y-73999457D01*
X140350079Y-73978387D01*
X140342227Y-73956443D01*
X140336563Y-73933834D01*
X140333144Y-73910779D01*
X140332000Y-73887500D01*
X140332000Y-73412500D01*
X140333144Y-73389221D01*
X140336563Y-73366166D01*
X140342227Y-73343557D01*
X140350079Y-73321613D01*
X140360044Y-73300543D01*
X140372026Y-73280552D01*
X140385910Y-73261832D01*
X140401562Y-73244562D01*
X140418832Y-73228910D01*
X140437552Y-73215026D01*
X140457543Y-73203044D01*
X140478613Y-73193079D01*
X140500557Y-73185227D01*
X140523166Y-73179563D01*
X140546221Y-73176144D01*
X140569500Y-73175000D01*
X141144500Y-73175000D01*
X141167779Y-73176144D01*
X141167779Y-73176144D01*
G37*
D11*
G04 #@! TD*
G04 #@! TO.P,C1,1*
G04 #@! TO.N,+3V3*
X140857000Y-73650000D03*
D10*
G04 #@! TO.N,+3V3*
G04 #@! TO.C,C2*
G36*
X141167779Y-94268144D02*
X141190834Y-94271563D01*
X141213443Y-94277227D01*
X141235387Y-94285079D01*
X141256457Y-94295044D01*
X141276448Y-94307026D01*
X141295168Y-94320910D01*
X141312438Y-94336562D01*
X141328090Y-94353832D01*
X141341974Y-94372552D01*
X141353956Y-94392543D01*
X141363921Y-94413613D01*
X141371773Y-94435557D01*
X141377437Y-94458166D01*
X141380856Y-94481221D01*
X141382000Y-94504500D01*
X141382000Y-94979500D01*
X141380856Y-95002779D01*
X141377437Y-95025834D01*
X141371773Y-95048443D01*
X141363921Y-95070387D01*
X141353956Y-95091457D01*
X141341974Y-95111448D01*
X141328090Y-95130168D01*
X141312438Y-95147438D01*
X141295168Y-95163090D01*
X141276448Y-95176974D01*
X141256457Y-95188956D01*
X141235387Y-95198921D01*
X141213443Y-95206773D01*
X141190834Y-95212437D01*
X141167779Y-95215856D01*
X141144500Y-95217000D01*
X140569500Y-95217000D01*
X140546221Y-95215856D01*
X140523166Y-95212437D01*
X140500557Y-95206773D01*
X140478613Y-95198921D01*
X140457543Y-95188956D01*
X140437552Y-95176974D01*
X140418832Y-95163090D01*
X140401562Y-95147438D01*
X140385910Y-95130168D01*
X140372026Y-95111448D01*
X140360044Y-95091457D01*
X140350079Y-95070387D01*
X140342227Y-95048443D01*
X140336563Y-95025834D01*
X140333144Y-95002779D01*
X140332000Y-94979500D01*
X140332000Y-94504500D01*
X140333144Y-94481221D01*
X140336563Y-94458166D01*
X140342227Y-94435557D01*
X140350079Y-94413613D01*
X140360044Y-94392543D01*
X140372026Y-94372552D01*
X140385910Y-94353832D01*
X140401562Y-94336562D01*
X140418832Y-94320910D01*
X140437552Y-94307026D01*
X140457543Y-94295044D01*
X140478613Y-94285079D01*
X140500557Y-94277227D01*
X140523166Y-94271563D01*
X140546221Y-94268144D01*
X140569500Y-94267000D01*
X141144500Y-94267000D01*
X141167779Y-94268144D01*
X141167779Y-94268144D01*
G37*
D11*
G04 #@! TD*
G04 #@! TO.P,C2,1*
G04 #@! TO.N,+3V3*
X140857000Y-94742000D03*
D10*
G04 #@! TO.N,GND*
G04 #@! TO.C,C2*
G36*
X142917779Y-94268144D02*
X142940834Y-94271563D01*
X142963443Y-94277227D01*
X142985387Y-94285079D01*
X143006457Y-94295044D01*
X143026448Y-94307026D01*
X143045168Y-94320910D01*
X143062438Y-94336562D01*
X143078090Y-94353832D01*
X143091974Y-94372552D01*
X143103956Y-94392543D01*
X143113921Y-94413613D01*
X143121773Y-94435557D01*
X143127437Y-94458166D01*
X143130856Y-94481221D01*
X143132000Y-94504500D01*
X143132000Y-94979500D01*
X143130856Y-95002779D01*
X143127437Y-95025834D01*
X143121773Y-95048443D01*
X143113921Y-95070387D01*
X143103956Y-95091457D01*
X143091974Y-95111448D01*
X143078090Y-95130168D01*
X143062438Y-95147438D01*
X143045168Y-95163090D01*
X143026448Y-95176974D01*
X143006457Y-95188956D01*
X142985387Y-95198921D01*
X142963443Y-95206773D01*
X142940834Y-95212437D01*
X142917779Y-95215856D01*
X142894500Y-95217000D01*
X142319500Y-95217000D01*
X142296221Y-95215856D01*
X142273166Y-95212437D01*
X142250557Y-95206773D01*
X142228613Y-95198921D01*
X142207543Y-95188956D01*
X142187552Y-95176974D01*
X142168832Y-95163090D01*
X142151562Y-95147438D01*
X142135910Y-95130168D01*
X142122026Y-95111448D01*
X142110044Y-95091457D01*
X142100079Y-95070387D01*
X142092227Y-95048443D01*
X142086563Y-95025834D01*
X142083144Y-95002779D01*
X142082000Y-94979500D01*
X142082000Y-94504500D01*
X142083144Y-94481221D01*
X142086563Y-94458166D01*
X142092227Y-94435557D01*
X142100079Y-94413613D01*
X142110044Y-94392543D01*
X142122026Y-94372552D01*
X142135910Y-94353832D01*
X142151562Y-94336562D01*
X142168832Y-94320910D01*
X142187552Y-94307026D01*
X142207543Y-94295044D01*
X142228613Y-94285079D01*
X142250557Y-94277227D01*
X142273166Y-94271563D01*
X142296221Y-94268144D01*
X142319500Y-94267000D01*
X142894500Y-94267000D01*
X142917779Y-94268144D01*
X142917779Y-94268144D01*
G37*
D11*
G04 #@! TD*
G04 #@! TO.P,C2,2*
G04 #@! TO.N,GND*
X142607000Y-94742000D03*
D12*
G04 #@! TO.P,J1,1*
G04 #@! TO.N,+3V3*
X141730000Y-114250000D03*
D13*
G04 #@! TO.P,J1,2*
G04 #@! TO.N,GND*
X144270000Y-114250000D03*
G04 #@! TO.P,J1,3*
G04 #@! TO.N,DATA*
X146810000Y-114250000D03*
G04 #@! TO.P,J1,4*
G04 #@! TO.N,LATCH*
X149350000Y-114250000D03*
G04 #@! TO.P,J1,5*
G04 #@! TO.N,CLOCK*
X151890000Y-114250000D03*
G04 #@! TO.P,J1,6*
G04 #@! TO.N,N/C*
X154430000Y-114250000D03*
G04 #@! TO.P,J1,7*
G04 #@! TO.N,LDR*
X156970000Y-114250000D03*
G04 #@! TD*
D14*
G04 #@! TO.P,R1,1*
G04 #@! TO.N,+3V3*
X147480000Y-56000000D03*
G04 #@! TO.P,R1,2*
G04 #@! TO.N,LDR*
X150880000Y-56000000D03*
G04 #@! TD*
D10*
G04 #@! TO.N,GND*
G04 #@! TO.C,R2*
G36*
X156135779Y-55576144D02*
X156158834Y-55579563D01*
X156181443Y-55585227D01*
X156203387Y-55593079D01*
X156224457Y-55603044D01*
X156244448Y-55615026D01*
X156263168Y-55628910D01*
X156280438Y-55644562D01*
X156296090Y-55661832D01*
X156309974Y-55680552D01*
X156321956Y-55700543D01*
X156331921Y-55721613D01*
X156339773Y-55743557D01*
X156345437Y-55766166D01*
X156348856Y-55789221D01*
X156350000Y-55812500D01*
X156350000Y-56287500D01*
X156348856Y-56310779D01*
X156345437Y-56333834D01*
X156339773Y-56356443D01*
X156331921Y-56378387D01*
X156321956Y-56399457D01*
X156309974Y-56419448D01*
X156296090Y-56438168D01*
X156280438Y-56455438D01*
X156263168Y-56471090D01*
X156244448Y-56484974D01*
X156224457Y-56496956D01*
X156203387Y-56506921D01*
X156181443Y-56514773D01*
X156158834Y-56520437D01*
X156135779Y-56523856D01*
X156112500Y-56525000D01*
X155537500Y-56525000D01*
X155514221Y-56523856D01*
X155491166Y-56520437D01*
X155468557Y-56514773D01*
X155446613Y-56506921D01*
X155425543Y-56496956D01*
X155405552Y-56484974D01*
X155386832Y-56471090D01*
X155369562Y-56455438D01*
X155353910Y-56438168D01*
X155340026Y-56419448D01*
X155328044Y-56399457D01*
X155318079Y-56378387D01*
X155310227Y-56356443D01*
X155304563Y-56333834D01*
X155301144Y-56310779D01*
X155300000Y-56287500D01*
X155300000Y-55812500D01*
X155301144Y-55789221D01*
X155304563Y-55766166D01*
X155310227Y-55743557D01*
X155318079Y-55721613D01*
X155328044Y-55700543D01*
X155340026Y-55680552D01*
X155353910Y-55661832D01*
X155369562Y-55644562D01*
X155386832Y-55628910D01*
X155405552Y-55615026D01*
X155425543Y-55603044D01*
X155446613Y-55593079D01*
X155468557Y-55585227D01*
X155491166Y-55579563D01*
X155514221Y-55576144D01*
X155537500Y-55575000D01*
X156112500Y-55575000D01*
X156135779Y-55576144D01*
X156135779Y-55576144D01*
G37*
D11*
G04 #@! TD*
G04 #@! TO.P,R2,2*
G04 #@! TO.N,GND*
X155825000Y-56050000D03*
D10*
G04 #@! TO.N,LDR*
G04 #@! TO.C,R2*
G36*
X154385779Y-55576144D02*
X154408834Y-55579563D01*
X154431443Y-55585227D01*
X154453387Y-55593079D01*
X154474457Y-55603044D01*
X154494448Y-55615026D01*
X154513168Y-55628910D01*
X154530438Y-55644562D01*
X154546090Y-55661832D01*
X154559974Y-55680552D01*
X154571956Y-55700543D01*
X154581921Y-55721613D01*
X154589773Y-55743557D01*
X154595437Y-55766166D01*
X154598856Y-55789221D01*
X154600000Y-55812500D01*
X154600000Y-56287500D01*
X154598856Y-56310779D01*
X154595437Y-56333834D01*
X154589773Y-56356443D01*
X154581921Y-56378387D01*
X154571956Y-56399457D01*
X154559974Y-56419448D01*
X154546090Y-56438168D01*
X154530438Y-56455438D01*
X154513168Y-56471090D01*
X154494448Y-56484974D01*
X154474457Y-56496956D01*
X154453387Y-56506921D01*
X154431443Y-56514773D01*
X154408834Y-56520437D01*
X154385779Y-56523856D01*
X154362500Y-56525000D01*
X153787500Y-56525000D01*
X153764221Y-56523856D01*
X153741166Y-56520437D01*
X153718557Y-56514773D01*
X153696613Y-56506921D01*
X153675543Y-56496956D01*
X153655552Y-56484974D01*
X153636832Y-56471090D01*
X153619562Y-56455438D01*
X153603910Y-56438168D01*
X153590026Y-56419448D01*
X153578044Y-56399457D01*
X153568079Y-56378387D01*
X153560227Y-56356443D01*
X153554563Y-56333834D01*
X153551144Y-56310779D01*
X153550000Y-56287500D01*
X153550000Y-55812500D01*
X153551144Y-55789221D01*
X153554563Y-55766166D01*
X153560227Y-55743557D01*
X153568079Y-55721613D01*
X153578044Y-55700543D01*
X153590026Y-55680552D01*
X153603910Y-55661832D01*
X153619562Y-55644562D01*
X153636832Y-55628910D01*
X153655552Y-55615026D01*
X153675543Y-55603044D01*
X153696613Y-55593079D01*
X153718557Y-55585227D01*
X153741166Y-55579563D01*
X153764221Y-55576144D01*
X153787500Y-55575000D01*
X154362500Y-55575000D01*
X154385779Y-55576144D01*
X154385779Y-55576144D01*
G37*
D11*
G04 #@! TD*
G04 #@! TO.P,R2,1*
G04 #@! TO.N,LDR*
X154075000Y-56050000D03*
D10*
G04 #@! TO.N,Net-(R4-Pad2)*
G04 #@! TO.C,R4*
G36*
X156165779Y-94026144D02*
X156188834Y-94029563D01*
X156211443Y-94035227D01*
X156233387Y-94043079D01*
X156254457Y-94053044D01*
X156274448Y-94065026D01*
X156293168Y-94078910D01*
X156310438Y-94094562D01*
X156326090Y-94111832D01*
X156339974Y-94130552D01*
X156351956Y-94150543D01*
X156361921Y-94171613D01*
X156369773Y-94193557D01*
X156375437Y-94216166D01*
X156378856Y-94239221D01*
X156380000Y-94262500D01*
X156380000Y-94737500D01*
X156378856Y-94760779D01*
X156375437Y-94783834D01*
X156369773Y-94806443D01*
X156361921Y-94828387D01*
X156351956Y-94849457D01*
X156339974Y-94869448D01*
X156326090Y-94888168D01*
X156310438Y-94905438D01*
X156293168Y-94921090D01*
X156274448Y-94934974D01*
X156254457Y-94946956D01*
X156233387Y-94956921D01*
X156211443Y-94964773D01*
X156188834Y-94970437D01*
X156165779Y-94973856D01*
X156142500Y-94975000D01*
X155567500Y-94975000D01*
X155544221Y-94973856D01*
X155521166Y-94970437D01*
X155498557Y-94964773D01*
X155476613Y-94956921D01*
X155455543Y-94946956D01*
X155435552Y-94934974D01*
X155416832Y-94921090D01*
X155399562Y-94905438D01*
X155383910Y-94888168D01*
X155370026Y-94869448D01*
X155358044Y-94849457D01*
X155348079Y-94828387D01*
X155340227Y-94806443D01*
X155334563Y-94783834D01*
X155331144Y-94760779D01*
X155330000Y-94737500D01*
X155330000Y-94262500D01*
X155331144Y-94239221D01*
X155334563Y-94216166D01*
X155340227Y-94193557D01*
X155348079Y-94171613D01*
X155358044Y-94150543D01*
X155370026Y-94130552D01*
X155383910Y-94111832D01*
X155399562Y-94094562D01*
X155416832Y-94078910D01*
X155435552Y-94065026D01*
X155455543Y-94053044D01*
X155476613Y-94043079D01*
X155498557Y-94035227D01*
X155521166Y-94029563D01*
X155544221Y-94026144D01*
X155567500Y-94025000D01*
X156142500Y-94025000D01*
X156165779Y-94026144D01*
X156165779Y-94026144D01*
G37*
D11*
G04 #@! TD*
G04 #@! TO.P,R4,2*
G04 #@! TO.N,Net-(R4-Pad2)*
X155855000Y-94500000D03*
D10*
G04 #@! TO.N,Net-(D2-Pad1)*
G04 #@! TO.C,R4*
G36*
X154415779Y-94026144D02*
X154438834Y-94029563D01*
X154461443Y-94035227D01*
X154483387Y-94043079D01*
X154504457Y-94053044D01*
X154524448Y-94065026D01*
X154543168Y-94078910D01*
X154560438Y-94094562D01*
X154576090Y-94111832D01*
X154589974Y-94130552D01*
X154601956Y-94150543D01*
X154611921Y-94171613D01*
X154619773Y-94193557D01*
X154625437Y-94216166D01*
X154628856Y-94239221D01*
X154630000Y-94262500D01*
X154630000Y-94737500D01*
X154628856Y-94760779D01*
X154625437Y-94783834D01*
X154619773Y-94806443D01*
X154611921Y-94828387D01*
X154601956Y-94849457D01*
X154589974Y-94869448D01*
X154576090Y-94888168D01*
X154560438Y-94905438D01*
X154543168Y-94921090D01*
X154524448Y-94934974D01*
X154504457Y-94946956D01*
X154483387Y-94956921D01*
X154461443Y-94964773D01*
X154438834Y-94970437D01*
X154415779Y-94973856D01*
X154392500Y-94975000D01*
X153817500Y-94975000D01*
X153794221Y-94973856D01*
X153771166Y-94970437D01*
X153748557Y-94964773D01*
X153726613Y-94956921D01*
X153705543Y-94946956D01*
X153685552Y-94934974D01*
X153666832Y-94921090D01*
X153649562Y-94905438D01*
X153633910Y-94888168D01*
X153620026Y-94869448D01*
X153608044Y-94849457D01*
X153598079Y-94828387D01*
X153590227Y-94806443D01*
X153584563Y-94783834D01*
X153581144Y-94760779D01*
X153580000Y-94737500D01*
X153580000Y-94262500D01*
X153581144Y-94239221D01*
X153584563Y-94216166D01*
X153590227Y-94193557D01*
X153598079Y-94171613D01*
X153608044Y-94150543D01*
X153620026Y-94130552D01*
X153633910Y-94111832D01*
X153649562Y-94094562D01*
X153666832Y-94078910D01*
X153685552Y-94065026D01*
X153705543Y-94053044D01*
X153726613Y-94043079D01*
X153748557Y-94035227D01*
X153771166Y-94029563D01*
X153794221Y-94026144D01*
X153817500Y-94025000D01*
X154392500Y-94025000D01*
X154415779Y-94026144D01*
X154415779Y-94026144D01*
G37*
D11*
G04 #@! TD*
G04 #@! TO.P,R4,1*
G04 #@! TO.N,Net-(D2-Pad1)*
X154105000Y-94500000D03*
D10*
G04 #@! TO.N,Net-(R6-Pad2)*
G04 #@! TO.C,R6*
G36*
X156165779Y-66026144D02*
X156188834Y-66029563D01*
X156211443Y-66035227D01*
X156233387Y-66043079D01*
X156254457Y-66053044D01*
X156274448Y-66065026D01*
X156293168Y-66078910D01*
X156310438Y-66094562D01*
X156326090Y-66111832D01*
X156339974Y-66130552D01*
X156351956Y-66150543D01*
X156361921Y-66171613D01*
X156369773Y-66193557D01*
X156375437Y-66216166D01*
X156378856Y-66239221D01*
X156380000Y-66262500D01*
X156380000Y-66737500D01*
X156378856Y-66760779D01*
X156375437Y-66783834D01*
X156369773Y-66806443D01*
X156361921Y-66828387D01*
X156351956Y-66849457D01*
X156339974Y-66869448D01*
X156326090Y-66888168D01*
X156310438Y-66905438D01*
X156293168Y-66921090D01*
X156274448Y-66934974D01*
X156254457Y-66946956D01*
X156233387Y-66956921D01*
X156211443Y-66964773D01*
X156188834Y-66970437D01*
X156165779Y-66973856D01*
X156142500Y-66975000D01*
X155567500Y-66975000D01*
X155544221Y-66973856D01*
X155521166Y-66970437D01*
X155498557Y-66964773D01*
X155476613Y-66956921D01*
X155455543Y-66946956D01*
X155435552Y-66934974D01*
X155416832Y-66921090D01*
X155399562Y-66905438D01*
X155383910Y-66888168D01*
X155370026Y-66869448D01*
X155358044Y-66849457D01*
X155348079Y-66828387D01*
X155340227Y-66806443D01*
X155334563Y-66783834D01*
X155331144Y-66760779D01*
X155330000Y-66737500D01*
X155330000Y-66262500D01*
X155331144Y-66239221D01*
X155334563Y-66216166D01*
X155340227Y-66193557D01*
X155348079Y-66171613D01*
X155358044Y-66150543D01*
X155370026Y-66130552D01*
X155383910Y-66111832D01*
X155399562Y-66094562D01*
X155416832Y-66078910D01*
X155435552Y-66065026D01*
X155455543Y-66053044D01*
X155476613Y-66043079D01*
X155498557Y-66035227D01*
X155521166Y-66029563D01*
X155544221Y-66026144D01*
X155567500Y-66025000D01*
X156142500Y-66025000D01*
X156165779Y-66026144D01*
X156165779Y-66026144D01*
G37*
D11*
G04 #@! TD*
G04 #@! TO.P,R6,2*
G04 #@! TO.N,Net-(R6-Pad2)*
X155855000Y-66500000D03*
D10*
G04 #@! TO.N,Net-(D1-Pad3)*
G04 #@! TO.C,R6*
G36*
X154415779Y-66026144D02*
X154438834Y-66029563D01*
X154461443Y-66035227D01*
X154483387Y-66043079D01*
X154504457Y-66053044D01*
X154524448Y-66065026D01*
X154543168Y-66078910D01*
X154560438Y-66094562D01*
X154576090Y-66111832D01*
X154589974Y-66130552D01*
X154601956Y-66150543D01*
X154611921Y-66171613D01*
X154619773Y-66193557D01*
X154625437Y-66216166D01*
X154628856Y-66239221D01*
X154630000Y-66262500D01*
X154630000Y-66737500D01*
X154628856Y-66760779D01*
X154625437Y-66783834D01*
X154619773Y-66806443D01*
X154611921Y-66828387D01*
X154601956Y-66849457D01*
X154589974Y-66869448D01*
X154576090Y-66888168D01*
X154560438Y-66905438D01*
X154543168Y-66921090D01*
X154524448Y-66934974D01*
X154504457Y-66946956D01*
X154483387Y-66956921D01*
X154461443Y-66964773D01*
X154438834Y-66970437D01*
X154415779Y-66973856D01*
X154392500Y-66975000D01*
X153817500Y-66975000D01*
X153794221Y-66973856D01*
X153771166Y-66970437D01*
X153748557Y-66964773D01*
X153726613Y-66956921D01*
X153705543Y-66946956D01*
X153685552Y-66934974D01*
X153666832Y-66921090D01*
X153649562Y-66905438D01*
X153633910Y-66888168D01*
X153620026Y-66869448D01*
X153608044Y-66849457D01*
X153598079Y-66828387D01*
X153590227Y-66806443D01*
X153584563Y-66783834D01*
X153581144Y-66760779D01*
X153580000Y-66737500D01*
X153580000Y-66262500D01*
X153581144Y-66239221D01*
X153584563Y-66216166D01*
X153590227Y-66193557D01*
X153598079Y-66171613D01*
X153608044Y-66150543D01*
X153620026Y-66130552D01*
X153633910Y-66111832D01*
X153649562Y-66094562D01*
X153666832Y-66078910D01*
X153685552Y-66065026D01*
X153705543Y-66053044D01*
X153726613Y-66043079D01*
X153748557Y-66035227D01*
X153771166Y-66029563D01*
X153794221Y-66026144D01*
X153817500Y-66025000D01*
X154392500Y-66025000D01*
X154415779Y-66026144D01*
X154415779Y-66026144D01*
G37*
D11*
G04 #@! TD*
G04 #@! TO.P,R6,1*
G04 #@! TO.N,Net-(D1-Pad3)*
X154105000Y-66500000D03*
D10*
G04 #@! TO.N,Net-(D2-Pad3)*
G04 #@! TO.C,R7*
G36*
X154415779Y-96776144D02*
X154438834Y-96779563D01*
X154461443Y-96785227D01*
X154483387Y-96793079D01*
X154504457Y-96803044D01*
X154524448Y-96815026D01*
X154543168Y-96828910D01*
X154560438Y-96844562D01*
X154576090Y-96861832D01*
X154589974Y-96880552D01*
X154601956Y-96900543D01*
X154611921Y-96921613D01*
X154619773Y-96943557D01*
X154625437Y-96966166D01*
X154628856Y-96989221D01*
X154630000Y-97012500D01*
X154630000Y-97487500D01*
X154628856Y-97510779D01*
X154625437Y-97533834D01*
X154619773Y-97556443D01*
X154611921Y-97578387D01*
X154601956Y-97599457D01*
X154589974Y-97619448D01*
X154576090Y-97638168D01*
X154560438Y-97655438D01*
X154543168Y-97671090D01*
X154524448Y-97684974D01*
X154504457Y-97696956D01*
X154483387Y-97706921D01*
X154461443Y-97714773D01*
X154438834Y-97720437D01*
X154415779Y-97723856D01*
X154392500Y-97725000D01*
X153817500Y-97725000D01*
X153794221Y-97723856D01*
X153771166Y-97720437D01*
X153748557Y-97714773D01*
X153726613Y-97706921D01*
X153705543Y-97696956D01*
X153685552Y-97684974D01*
X153666832Y-97671090D01*
X153649562Y-97655438D01*
X153633910Y-97638168D01*
X153620026Y-97619448D01*
X153608044Y-97599457D01*
X153598079Y-97578387D01*
X153590227Y-97556443D01*
X153584563Y-97533834D01*
X153581144Y-97510779D01*
X153580000Y-97487500D01*
X153580000Y-97012500D01*
X153581144Y-96989221D01*
X153584563Y-96966166D01*
X153590227Y-96943557D01*
X153598079Y-96921613D01*
X153608044Y-96900543D01*
X153620026Y-96880552D01*
X153633910Y-96861832D01*
X153649562Y-96844562D01*
X153666832Y-96828910D01*
X153685552Y-96815026D01*
X153705543Y-96803044D01*
X153726613Y-96793079D01*
X153748557Y-96785227D01*
X153771166Y-96779563D01*
X153794221Y-96776144D01*
X153817500Y-96775000D01*
X154392500Y-96775000D01*
X154415779Y-96776144D01*
X154415779Y-96776144D01*
G37*
D11*
G04 #@! TD*
G04 #@! TO.P,R7,1*
G04 #@! TO.N,Net-(D2-Pad3)*
X154105000Y-97250000D03*
D10*
G04 #@! TO.N,Net-(R7-Pad2)*
G04 #@! TO.C,R7*
G36*
X156165779Y-96776144D02*
X156188834Y-96779563D01*
X156211443Y-96785227D01*
X156233387Y-96793079D01*
X156254457Y-96803044D01*
X156274448Y-96815026D01*
X156293168Y-96828910D01*
X156310438Y-96844562D01*
X156326090Y-96861832D01*
X156339974Y-96880552D01*
X156351956Y-96900543D01*
X156361921Y-96921613D01*
X156369773Y-96943557D01*
X156375437Y-96966166D01*
X156378856Y-96989221D01*
X156380000Y-97012500D01*
X156380000Y-97487500D01*
X156378856Y-97510779D01*
X156375437Y-97533834D01*
X156369773Y-97556443D01*
X156361921Y-97578387D01*
X156351956Y-97599457D01*
X156339974Y-97619448D01*
X156326090Y-97638168D01*
X156310438Y-97655438D01*
X156293168Y-97671090D01*
X156274448Y-97684974D01*
X156254457Y-97696956D01*
X156233387Y-97706921D01*
X156211443Y-97714773D01*
X156188834Y-97720437D01*
X156165779Y-97723856D01*
X156142500Y-97725000D01*
X155567500Y-97725000D01*
X155544221Y-97723856D01*
X155521166Y-97720437D01*
X155498557Y-97714773D01*
X155476613Y-97706921D01*
X155455543Y-97696956D01*
X155435552Y-97684974D01*
X155416832Y-97671090D01*
X155399562Y-97655438D01*
X155383910Y-97638168D01*
X155370026Y-97619448D01*
X155358044Y-97599457D01*
X155348079Y-97578387D01*
X155340227Y-97556443D01*
X155334563Y-97533834D01*
X155331144Y-97510779D01*
X155330000Y-97487500D01*
X155330000Y-97012500D01*
X155331144Y-96989221D01*
X155334563Y-96966166D01*
X155340227Y-96943557D01*
X155348079Y-96921613D01*
X155358044Y-96900543D01*
X155370026Y-96880552D01*
X155383910Y-96861832D01*
X155399562Y-96844562D01*
X155416832Y-96828910D01*
X155435552Y-96815026D01*
X155455543Y-96803044D01*
X155476613Y-96793079D01*
X155498557Y-96785227D01*
X155521166Y-96779563D01*
X155544221Y-96776144D01*
X155567500Y-96775000D01*
X156142500Y-96775000D01*
X156165779Y-96776144D01*
X156165779Y-96776144D01*
G37*
D11*
G04 #@! TD*
G04 #@! TO.P,R7,2*
G04 #@! TO.N,Net-(R7-Pad2)*
X155855000Y-97250000D03*
D10*
G04 #@! TO.N,Net-(D1-Pad4)*
G04 #@! TO.C,R9*
G36*
X154415779Y-68776144D02*
X154438834Y-68779563D01*
X154461443Y-68785227D01*
X154483387Y-68793079D01*
X154504457Y-68803044D01*
X154524448Y-68815026D01*
X154543168Y-68828910D01*
X154560438Y-68844562D01*
X154576090Y-68861832D01*
X154589974Y-68880552D01*
X154601956Y-68900543D01*
X154611921Y-68921613D01*
X154619773Y-68943557D01*
X154625437Y-68966166D01*
X154628856Y-68989221D01*
X154630000Y-69012500D01*
X154630000Y-69487500D01*
X154628856Y-69510779D01*
X154625437Y-69533834D01*
X154619773Y-69556443D01*
X154611921Y-69578387D01*
X154601956Y-69599457D01*
X154589974Y-69619448D01*
X154576090Y-69638168D01*
X154560438Y-69655438D01*
X154543168Y-69671090D01*
X154524448Y-69684974D01*
X154504457Y-69696956D01*
X154483387Y-69706921D01*
X154461443Y-69714773D01*
X154438834Y-69720437D01*
X154415779Y-69723856D01*
X154392500Y-69725000D01*
X153817500Y-69725000D01*
X153794221Y-69723856D01*
X153771166Y-69720437D01*
X153748557Y-69714773D01*
X153726613Y-69706921D01*
X153705543Y-69696956D01*
X153685552Y-69684974D01*
X153666832Y-69671090D01*
X153649562Y-69655438D01*
X153633910Y-69638168D01*
X153620026Y-69619448D01*
X153608044Y-69599457D01*
X153598079Y-69578387D01*
X153590227Y-69556443D01*
X153584563Y-69533834D01*
X153581144Y-69510779D01*
X153580000Y-69487500D01*
X153580000Y-69012500D01*
X153581144Y-68989221D01*
X153584563Y-68966166D01*
X153590227Y-68943557D01*
X153598079Y-68921613D01*
X153608044Y-68900543D01*
X153620026Y-68880552D01*
X153633910Y-68861832D01*
X153649562Y-68844562D01*
X153666832Y-68828910D01*
X153685552Y-68815026D01*
X153705543Y-68803044D01*
X153726613Y-68793079D01*
X153748557Y-68785227D01*
X153771166Y-68779563D01*
X153794221Y-68776144D01*
X153817500Y-68775000D01*
X154392500Y-68775000D01*
X154415779Y-68776144D01*
X154415779Y-68776144D01*
G37*
D11*
G04 #@! TD*
G04 #@! TO.P,R9,1*
G04 #@! TO.N,Net-(D1-Pad4)*
X154105000Y-69250000D03*
D10*
G04 #@! TO.N,Net-(R9-Pad2)*
G04 #@! TO.C,R9*
G36*
X156165779Y-68776144D02*
X156188834Y-68779563D01*
X156211443Y-68785227D01*
X156233387Y-68793079D01*
X156254457Y-68803044D01*
X156274448Y-68815026D01*
X156293168Y-68828910D01*
X156310438Y-68844562D01*
X156326090Y-68861832D01*
X156339974Y-68880552D01*
X156351956Y-68900543D01*
X156361921Y-68921613D01*
X156369773Y-68943557D01*
X156375437Y-68966166D01*
X156378856Y-68989221D01*
X156380000Y-69012500D01*
X156380000Y-69487500D01*
X156378856Y-69510779D01*
X156375437Y-69533834D01*
X156369773Y-69556443D01*
X156361921Y-69578387D01*
X156351956Y-69599457D01*
X156339974Y-69619448D01*
X156326090Y-69638168D01*
X156310438Y-69655438D01*
X156293168Y-69671090D01*
X156274448Y-69684974D01*
X156254457Y-69696956D01*
X156233387Y-69706921D01*
X156211443Y-69714773D01*
X156188834Y-69720437D01*
X156165779Y-69723856D01*
X156142500Y-69725000D01*
X155567500Y-69725000D01*
X155544221Y-69723856D01*
X155521166Y-69720437D01*
X155498557Y-69714773D01*
X155476613Y-69706921D01*
X155455543Y-69696956D01*
X155435552Y-69684974D01*
X155416832Y-69671090D01*
X155399562Y-69655438D01*
X155383910Y-69638168D01*
X155370026Y-69619448D01*
X155358044Y-69599457D01*
X155348079Y-69578387D01*
X155340227Y-69556443D01*
X155334563Y-69533834D01*
X155331144Y-69510779D01*
X155330000Y-69487500D01*
X155330000Y-69012500D01*
X155331144Y-68989221D01*
X155334563Y-68966166D01*
X155340227Y-68943557D01*
X155348079Y-68921613D01*
X155358044Y-68900543D01*
X155370026Y-68880552D01*
X155383910Y-68861832D01*
X155399562Y-68844562D01*
X155416832Y-68828910D01*
X155435552Y-68815026D01*
X155455543Y-68803044D01*
X155476613Y-68793079D01*
X155498557Y-68785227D01*
X155521166Y-68779563D01*
X155544221Y-68776144D01*
X155567500Y-68775000D01*
X156142500Y-68775000D01*
X156165779Y-68776144D01*
X156165779Y-68776144D01*
G37*
D11*
G04 #@! TD*
G04 #@! TO.P,R9,2*
G04 #@! TO.N,Net-(R9-Pad2)*
X155855000Y-69250000D03*
D10*
G04 #@! TO.N,Net-(R10-Pad2)*
G04 #@! TO.C,R10*
G36*
X156165779Y-99526144D02*
X156188834Y-99529563D01*
X156211443Y-99535227D01*
X156233387Y-99543079D01*
X156254457Y-99553044D01*
X156274448Y-99565026D01*
X156293168Y-99578910D01*
X156310438Y-99594562D01*
X156326090Y-99611832D01*
X156339974Y-99630552D01*
X156351956Y-99650543D01*
X156361921Y-99671613D01*
X156369773Y-99693557D01*
X156375437Y-99716166D01*
X156378856Y-99739221D01*
X156380000Y-99762500D01*
X156380000Y-100237500D01*
X156378856Y-100260779D01*
X156375437Y-100283834D01*
X156369773Y-100306443D01*
X156361921Y-100328387D01*
X156351956Y-100349457D01*
X156339974Y-100369448D01*
X156326090Y-100388168D01*
X156310438Y-100405438D01*
X156293168Y-100421090D01*
X156274448Y-100434974D01*
X156254457Y-100446956D01*
X156233387Y-100456921D01*
X156211443Y-100464773D01*
X156188834Y-100470437D01*
X156165779Y-100473856D01*
X156142500Y-100475000D01*
X155567500Y-100475000D01*
X155544221Y-100473856D01*
X155521166Y-100470437D01*
X155498557Y-100464773D01*
X155476613Y-100456921D01*
X155455543Y-100446956D01*
X155435552Y-100434974D01*
X155416832Y-100421090D01*
X155399562Y-100405438D01*
X155383910Y-100388168D01*
X155370026Y-100369448D01*
X155358044Y-100349457D01*
X155348079Y-100328387D01*
X155340227Y-100306443D01*
X155334563Y-100283834D01*
X155331144Y-100260779D01*
X155330000Y-100237500D01*
X155330000Y-99762500D01*
X155331144Y-99739221D01*
X155334563Y-99716166D01*
X155340227Y-99693557D01*
X155348079Y-99671613D01*
X155358044Y-99650543D01*
X155370026Y-99630552D01*
X155383910Y-99611832D01*
X155399562Y-99594562D01*
X155416832Y-99578910D01*
X155435552Y-99565026D01*
X155455543Y-99553044D01*
X155476613Y-99543079D01*
X155498557Y-99535227D01*
X155521166Y-99529563D01*
X155544221Y-99526144D01*
X155567500Y-99525000D01*
X156142500Y-99525000D01*
X156165779Y-99526144D01*
X156165779Y-99526144D01*
G37*
D11*
G04 #@! TD*
G04 #@! TO.P,R10,2*
G04 #@! TO.N,Net-(R10-Pad2)*
X155855000Y-100000000D03*
D10*
G04 #@! TO.N,Net-(D2-Pad4)*
G04 #@! TO.C,R10*
G36*
X154415779Y-99526144D02*
X154438834Y-99529563D01*
X154461443Y-99535227D01*
X154483387Y-99543079D01*
X154504457Y-99553044D01*
X154524448Y-99565026D01*
X154543168Y-99578910D01*
X154560438Y-99594562D01*
X154576090Y-99611832D01*
X154589974Y-99630552D01*
X154601956Y-99650543D01*
X154611921Y-99671613D01*
X154619773Y-99693557D01*
X154625437Y-99716166D01*
X154628856Y-99739221D01*
X154630000Y-99762500D01*
X154630000Y-100237500D01*
X154628856Y-100260779D01*
X154625437Y-100283834D01*
X154619773Y-100306443D01*
X154611921Y-100328387D01*
X154601956Y-100349457D01*
X154589974Y-100369448D01*
X154576090Y-100388168D01*
X154560438Y-100405438D01*
X154543168Y-100421090D01*
X154524448Y-100434974D01*
X154504457Y-100446956D01*
X154483387Y-100456921D01*
X154461443Y-100464773D01*
X154438834Y-100470437D01*
X154415779Y-100473856D01*
X154392500Y-100475000D01*
X153817500Y-100475000D01*
X153794221Y-100473856D01*
X153771166Y-100470437D01*
X153748557Y-100464773D01*
X153726613Y-100456921D01*
X153705543Y-100446956D01*
X153685552Y-100434974D01*
X153666832Y-100421090D01*
X153649562Y-100405438D01*
X153633910Y-100388168D01*
X153620026Y-100369448D01*
X153608044Y-100349457D01*
X153598079Y-100328387D01*
X153590227Y-100306443D01*
X153584563Y-100283834D01*
X153581144Y-100260779D01*
X153580000Y-100237500D01*
X153580000Y-99762500D01*
X153581144Y-99739221D01*
X153584563Y-99716166D01*
X153590227Y-99693557D01*
X153598079Y-99671613D01*
X153608044Y-99650543D01*
X153620026Y-99630552D01*
X153633910Y-99611832D01*
X153649562Y-99594562D01*
X153666832Y-99578910D01*
X153685552Y-99565026D01*
X153705543Y-99553044D01*
X153726613Y-99543079D01*
X153748557Y-99535227D01*
X153771166Y-99529563D01*
X153794221Y-99526144D01*
X153817500Y-99525000D01*
X154392500Y-99525000D01*
X154415779Y-99526144D01*
X154415779Y-99526144D01*
G37*
D11*
G04 #@! TD*
G04 #@! TO.P,R10,1*
G04 #@! TO.N,Net-(D2-Pad4)*
X154105000Y-100000000D03*
D10*
G04 #@! TO.N,Net-(D4-Pad1)*
G04 #@! TO.C,R12*
G36*
X154415779Y-73526144D02*
X154438834Y-73529563D01*
X154461443Y-73535227D01*
X154483387Y-73543079D01*
X154504457Y-73553044D01*
X154524448Y-73565026D01*
X154543168Y-73578910D01*
X154560438Y-73594562D01*
X154576090Y-73611832D01*
X154589974Y-73630552D01*
X154601956Y-73650543D01*
X154611921Y-73671613D01*
X154619773Y-73693557D01*
X154625437Y-73716166D01*
X154628856Y-73739221D01*
X154630000Y-73762500D01*
X154630000Y-74237500D01*
X154628856Y-74260779D01*
X154625437Y-74283834D01*
X154619773Y-74306443D01*
X154611921Y-74328387D01*
X154601956Y-74349457D01*
X154589974Y-74369448D01*
X154576090Y-74388168D01*
X154560438Y-74405438D01*
X154543168Y-74421090D01*
X154524448Y-74434974D01*
X154504457Y-74446956D01*
X154483387Y-74456921D01*
X154461443Y-74464773D01*
X154438834Y-74470437D01*
X154415779Y-74473856D01*
X154392500Y-74475000D01*
X153817500Y-74475000D01*
X153794221Y-74473856D01*
X153771166Y-74470437D01*
X153748557Y-74464773D01*
X153726613Y-74456921D01*
X153705543Y-74446956D01*
X153685552Y-74434974D01*
X153666832Y-74421090D01*
X153649562Y-74405438D01*
X153633910Y-74388168D01*
X153620026Y-74369448D01*
X153608044Y-74349457D01*
X153598079Y-74328387D01*
X153590227Y-74306443D01*
X153584563Y-74283834D01*
X153581144Y-74260779D01*
X153580000Y-74237500D01*
X153580000Y-73762500D01*
X153581144Y-73739221D01*
X153584563Y-73716166D01*
X153590227Y-73693557D01*
X153598079Y-73671613D01*
X153608044Y-73650543D01*
X153620026Y-73630552D01*
X153633910Y-73611832D01*
X153649562Y-73594562D01*
X153666832Y-73578910D01*
X153685552Y-73565026D01*
X153705543Y-73553044D01*
X153726613Y-73543079D01*
X153748557Y-73535227D01*
X153771166Y-73529563D01*
X153794221Y-73526144D01*
X153817500Y-73525000D01*
X154392500Y-73525000D01*
X154415779Y-73526144D01*
X154415779Y-73526144D01*
G37*
D11*
G04 #@! TD*
G04 #@! TO.P,R12,1*
G04 #@! TO.N,Net-(D4-Pad1)*
X154105000Y-74000000D03*
D10*
G04 #@! TO.N,Net-(R12-Pad2)*
G04 #@! TO.C,R12*
G36*
X156165779Y-73526144D02*
X156188834Y-73529563D01*
X156211443Y-73535227D01*
X156233387Y-73543079D01*
X156254457Y-73553044D01*
X156274448Y-73565026D01*
X156293168Y-73578910D01*
X156310438Y-73594562D01*
X156326090Y-73611832D01*
X156339974Y-73630552D01*
X156351956Y-73650543D01*
X156361921Y-73671613D01*
X156369773Y-73693557D01*
X156375437Y-73716166D01*
X156378856Y-73739221D01*
X156380000Y-73762500D01*
X156380000Y-74237500D01*
X156378856Y-74260779D01*
X156375437Y-74283834D01*
X156369773Y-74306443D01*
X156361921Y-74328387D01*
X156351956Y-74349457D01*
X156339974Y-74369448D01*
X156326090Y-74388168D01*
X156310438Y-74405438D01*
X156293168Y-74421090D01*
X156274448Y-74434974D01*
X156254457Y-74446956D01*
X156233387Y-74456921D01*
X156211443Y-74464773D01*
X156188834Y-74470437D01*
X156165779Y-74473856D01*
X156142500Y-74475000D01*
X155567500Y-74475000D01*
X155544221Y-74473856D01*
X155521166Y-74470437D01*
X155498557Y-74464773D01*
X155476613Y-74456921D01*
X155455543Y-74446956D01*
X155435552Y-74434974D01*
X155416832Y-74421090D01*
X155399562Y-74405438D01*
X155383910Y-74388168D01*
X155370026Y-74369448D01*
X155358044Y-74349457D01*
X155348079Y-74328387D01*
X155340227Y-74306443D01*
X155334563Y-74283834D01*
X155331144Y-74260779D01*
X155330000Y-74237500D01*
X155330000Y-73762500D01*
X155331144Y-73739221D01*
X155334563Y-73716166D01*
X155340227Y-73693557D01*
X155348079Y-73671613D01*
X155358044Y-73650543D01*
X155370026Y-73630552D01*
X155383910Y-73611832D01*
X155399562Y-73594562D01*
X155416832Y-73578910D01*
X155435552Y-73565026D01*
X155455543Y-73553044D01*
X155476613Y-73543079D01*
X155498557Y-73535227D01*
X155521166Y-73529563D01*
X155544221Y-73526144D01*
X155567500Y-73525000D01*
X156142500Y-73525000D01*
X156165779Y-73526144D01*
X156165779Y-73526144D01*
G37*
D11*
G04 #@! TD*
G04 #@! TO.P,R12,2*
G04 #@! TO.N,Net-(R12-Pad2)*
X155855000Y-74000000D03*
D10*
G04 #@! TO.N,Net-(R13-Pad2)*
G04 #@! TO.C,R13*
G36*
X155915779Y-104276144D02*
X155938834Y-104279563D01*
X155961443Y-104285227D01*
X155983387Y-104293079D01*
X156004457Y-104303044D01*
X156024448Y-104315026D01*
X156043168Y-104328910D01*
X156060438Y-104344562D01*
X156076090Y-104361832D01*
X156089974Y-104380552D01*
X156101956Y-104400543D01*
X156111921Y-104421613D01*
X156119773Y-104443557D01*
X156125437Y-104466166D01*
X156128856Y-104489221D01*
X156130000Y-104512500D01*
X156130000Y-104987500D01*
X156128856Y-105010779D01*
X156125437Y-105033834D01*
X156119773Y-105056443D01*
X156111921Y-105078387D01*
X156101956Y-105099457D01*
X156089974Y-105119448D01*
X156076090Y-105138168D01*
X156060438Y-105155438D01*
X156043168Y-105171090D01*
X156024448Y-105184974D01*
X156004457Y-105196956D01*
X155983387Y-105206921D01*
X155961443Y-105214773D01*
X155938834Y-105220437D01*
X155915779Y-105223856D01*
X155892500Y-105225000D01*
X155317500Y-105225000D01*
X155294221Y-105223856D01*
X155271166Y-105220437D01*
X155248557Y-105214773D01*
X155226613Y-105206921D01*
X155205543Y-105196956D01*
X155185552Y-105184974D01*
X155166832Y-105171090D01*
X155149562Y-105155438D01*
X155133910Y-105138168D01*
X155120026Y-105119448D01*
X155108044Y-105099457D01*
X155098079Y-105078387D01*
X155090227Y-105056443D01*
X155084563Y-105033834D01*
X155081144Y-105010779D01*
X155080000Y-104987500D01*
X155080000Y-104512500D01*
X155081144Y-104489221D01*
X155084563Y-104466166D01*
X155090227Y-104443557D01*
X155098079Y-104421613D01*
X155108044Y-104400543D01*
X155120026Y-104380552D01*
X155133910Y-104361832D01*
X155149562Y-104344562D01*
X155166832Y-104328910D01*
X155185552Y-104315026D01*
X155205543Y-104303044D01*
X155226613Y-104293079D01*
X155248557Y-104285227D01*
X155271166Y-104279563D01*
X155294221Y-104276144D01*
X155317500Y-104275000D01*
X155892500Y-104275000D01*
X155915779Y-104276144D01*
X155915779Y-104276144D01*
G37*
D11*
G04 #@! TD*
G04 #@! TO.P,R13,2*
G04 #@! TO.N,Net-(R13-Pad2)*
X155605000Y-104750000D03*
D10*
G04 #@! TO.N,Net-(D5-Pad1)*
G04 #@! TO.C,R13*
G36*
X154165779Y-104276144D02*
X154188834Y-104279563D01*
X154211443Y-104285227D01*
X154233387Y-104293079D01*
X154254457Y-104303044D01*
X154274448Y-104315026D01*
X154293168Y-104328910D01*
X154310438Y-104344562D01*
X154326090Y-104361832D01*
X154339974Y-104380552D01*
X154351956Y-104400543D01*
X154361921Y-104421613D01*
X154369773Y-104443557D01*
X154375437Y-104466166D01*
X154378856Y-104489221D01*
X154380000Y-104512500D01*
X154380000Y-104987500D01*
X154378856Y-105010779D01*
X154375437Y-105033834D01*
X154369773Y-105056443D01*
X154361921Y-105078387D01*
X154351956Y-105099457D01*
X154339974Y-105119448D01*
X154326090Y-105138168D01*
X154310438Y-105155438D01*
X154293168Y-105171090D01*
X154274448Y-105184974D01*
X154254457Y-105196956D01*
X154233387Y-105206921D01*
X154211443Y-105214773D01*
X154188834Y-105220437D01*
X154165779Y-105223856D01*
X154142500Y-105225000D01*
X153567500Y-105225000D01*
X153544221Y-105223856D01*
X153521166Y-105220437D01*
X153498557Y-105214773D01*
X153476613Y-105206921D01*
X153455543Y-105196956D01*
X153435552Y-105184974D01*
X153416832Y-105171090D01*
X153399562Y-105155438D01*
X153383910Y-105138168D01*
X153370026Y-105119448D01*
X153358044Y-105099457D01*
X153348079Y-105078387D01*
X153340227Y-105056443D01*
X153334563Y-105033834D01*
X153331144Y-105010779D01*
X153330000Y-104987500D01*
X153330000Y-104512500D01*
X153331144Y-104489221D01*
X153334563Y-104466166D01*
X153340227Y-104443557D01*
X153348079Y-104421613D01*
X153358044Y-104400543D01*
X153370026Y-104380552D01*
X153383910Y-104361832D01*
X153399562Y-104344562D01*
X153416832Y-104328910D01*
X153435552Y-104315026D01*
X153455543Y-104303044D01*
X153476613Y-104293079D01*
X153498557Y-104285227D01*
X153521166Y-104279563D01*
X153544221Y-104276144D01*
X153567500Y-104275000D01*
X154142500Y-104275000D01*
X154165779Y-104276144D01*
X154165779Y-104276144D01*
G37*
D11*
G04 #@! TD*
G04 #@! TO.P,R13,1*
G04 #@! TO.N,Net-(D5-Pad1)*
X153855000Y-104750000D03*
D10*
G04 #@! TO.N,Net-(R15-Pad2)*
G04 #@! TO.C,R15*
G36*
X156165779Y-76276144D02*
X156188834Y-76279563D01*
X156211443Y-76285227D01*
X156233387Y-76293079D01*
X156254457Y-76303044D01*
X156274448Y-76315026D01*
X156293168Y-76328910D01*
X156310438Y-76344562D01*
X156326090Y-76361832D01*
X156339974Y-76380552D01*
X156351956Y-76400543D01*
X156361921Y-76421613D01*
X156369773Y-76443557D01*
X156375437Y-76466166D01*
X156378856Y-76489221D01*
X156380000Y-76512500D01*
X156380000Y-76987500D01*
X156378856Y-77010779D01*
X156375437Y-77033834D01*
X156369773Y-77056443D01*
X156361921Y-77078387D01*
X156351956Y-77099457D01*
X156339974Y-77119448D01*
X156326090Y-77138168D01*
X156310438Y-77155438D01*
X156293168Y-77171090D01*
X156274448Y-77184974D01*
X156254457Y-77196956D01*
X156233387Y-77206921D01*
X156211443Y-77214773D01*
X156188834Y-77220437D01*
X156165779Y-77223856D01*
X156142500Y-77225000D01*
X155567500Y-77225000D01*
X155544221Y-77223856D01*
X155521166Y-77220437D01*
X155498557Y-77214773D01*
X155476613Y-77206921D01*
X155455543Y-77196956D01*
X155435552Y-77184974D01*
X155416832Y-77171090D01*
X155399562Y-77155438D01*
X155383910Y-77138168D01*
X155370026Y-77119448D01*
X155358044Y-77099457D01*
X155348079Y-77078387D01*
X155340227Y-77056443D01*
X155334563Y-77033834D01*
X155331144Y-77010779D01*
X155330000Y-76987500D01*
X155330000Y-76512500D01*
X155331144Y-76489221D01*
X155334563Y-76466166D01*
X155340227Y-76443557D01*
X155348079Y-76421613D01*
X155358044Y-76400543D01*
X155370026Y-76380552D01*
X155383910Y-76361832D01*
X155399562Y-76344562D01*
X155416832Y-76328910D01*
X155435552Y-76315026D01*
X155455543Y-76303044D01*
X155476613Y-76293079D01*
X155498557Y-76285227D01*
X155521166Y-76279563D01*
X155544221Y-76276144D01*
X155567500Y-76275000D01*
X156142500Y-76275000D01*
X156165779Y-76276144D01*
X156165779Y-76276144D01*
G37*
D11*
G04 #@! TD*
G04 #@! TO.P,R15,2*
G04 #@! TO.N,Net-(R15-Pad2)*
X155855000Y-76750000D03*
D10*
G04 #@! TO.N,Net-(D4-Pad3)*
G04 #@! TO.C,R15*
G36*
X154415779Y-76276144D02*
X154438834Y-76279563D01*
X154461443Y-76285227D01*
X154483387Y-76293079D01*
X154504457Y-76303044D01*
X154524448Y-76315026D01*
X154543168Y-76328910D01*
X154560438Y-76344562D01*
X154576090Y-76361832D01*
X154589974Y-76380552D01*
X154601956Y-76400543D01*
X154611921Y-76421613D01*
X154619773Y-76443557D01*
X154625437Y-76466166D01*
X154628856Y-76489221D01*
X154630000Y-76512500D01*
X154630000Y-76987500D01*
X154628856Y-77010779D01*
X154625437Y-77033834D01*
X154619773Y-77056443D01*
X154611921Y-77078387D01*
X154601956Y-77099457D01*
X154589974Y-77119448D01*
X154576090Y-77138168D01*
X154560438Y-77155438D01*
X154543168Y-77171090D01*
X154524448Y-77184974D01*
X154504457Y-77196956D01*
X154483387Y-77206921D01*
X154461443Y-77214773D01*
X154438834Y-77220437D01*
X154415779Y-77223856D01*
X154392500Y-77225000D01*
X153817500Y-77225000D01*
X153794221Y-77223856D01*
X153771166Y-77220437D01*
X153748557Y-77214773D01*
X153726613Y-77206921D01*
X153705543Y-77196956D01*
X153685552Y-77184974D01*
X153666832Y-77171090D01*
X153649562Y-77155438D01*
X153633910Y-77138168D01*
X153620026Y-77119448D01*
X153608044Y-77099457D01*
X153598079Y-77078387D01*
X153590227Y-77056443D01*
X153584563Y-77033834D01*
X153581144Y-77010779D01*
X153580000Y-76987500D01*
X153580000Y-76512500D01*
X153581144Y-76489221D01*
X153584563Y-76466166D01*
X153590227Y-76443557D01*
X153598079Y-76421613D01*
X153608044Y-76400543D01*
X153620026Y-76380552D01*
X153633910Y-76361832D01*
X153649562Y-76344562D01*
X153666832Y-76328910D01*
X153685552Y-76315026D01*
X153705543Y-76303044D01*
X153726613Y-76293079D01*
X153748557Y-76285227D01*
X153771166Y-76279563D01*
X153794221Y-76276144D01*
X153817500Y-76275000D01*
X154392500Y-76275000D01*
X154415779Y-76276144D01*
X154415779Y-76276144D01*
G37*
D11*
G04 #@! TD*
G04 #@! TO.P,R15,1*
G04 #@! TO.N,Net-(D4-Pad3)*
X154105000Y-76750000D03*
D10*
G04 #@! TO.N,Net-(D5-Pad3)*
G04 #@! TO.C,R16*
G36*
X154165779Y-107026144D02*
X154188834Y-107029563D01*
X154211443Y-107035227D01*
X154233387Y-107043079D01*
X154254457Y-107053044D01*
X154274448Y-107065026D01*
X154293168Y-107078910D01*
X154310438Y-107094562D01*
X154326090Y-107111832D01*
X154339974Y-107130552D01*
X154351956Y-107150543D01*
X154361921Y-107171613D01*
X154369773Y-107193557D01*
X154375437Y-107216166D01*
X154378856Y-107239221D01*
X154380000Y-107262500D01*
X154380000Y-107737500D01*
X154378856Y-107760779D01*
X154375437Y-107783834D01*
X154369773Y-107806443D01*
X154361921Y-107828387D01*
X154351956Y-107849457D01*
X154339974Y-107869448D01*
X154326090Y-107888168D01*
X154310438Y-107905438D01*
X154293168Y-107921090D01*
X154274448Y-107934974D01*
X154254457Y-107946956D01*
X154233387Y-107956921D01*
X154211443Y-107964773D01*
X154188834Y-107970437D01*
X154165779Y-107973856D01*
X154142500Y-107975000D01*
X153567500Y-107975000D01*
X153544221Y-107973856D01*
X153521166Y-107970437D01*
X153498557Y-107964773D01*
X153476613Y-107956921D01*
X153455543Y-107946956D01*
X153435552Y-107934974D01*
X153416832Y-107921090D01*
X153399562Y-107905438D01*
X153383910Y-107888168D01*
X153370026Y-107869448D01*
X153358044Y-107849457D01*
X153348079Y-107828387D01*
X153340227Y-107806443D01*
X153334563Y-107783834D01*
X153331144Y-107760779D01*
X153330000Y-107737500D01*
X153330000Y-107262500D01*
X153331144Y-107239221D01*
X153334563Y-107216166D01*
X153340227Y-107193557D01*
X153348079Y-107171613D01*
X153358044Y-107150543D01*
X153370026Y-107130552D01*
X153383910Y-107111832D01*
X153399562Y-107094562D01*
X153416832Y-107078910D01*
X153435552Y-107065026D01*
X153455543Y-107053044D01*
X153476613Y-107043079D01*
X153498557Y-107035227D01*
X153521166Y-107029563D01*
X153544221Y-107026144D01*
X153567500Y-107025000D01*
X154142500Y-107025000D01*
X154165779Y-107026144D01*
X154165779Y-107026144D01*
G37*
D11*
G04 #@! TD*
G04 #@! TO.P,R16,1*
G04 #@! TO.N,Net-(D5-Pad3)*
X153855000Y-107500000D03*
D10*
G04 #@! TO.N,Net-(R16-Pad2)*
G04 #@! TO.C,R16*
G36*
X155915779Y-107026144D02*
X155938834Y-107029563D01*
X155961443Y-107035227D01*
X155983387Y-107043079D01*
X156004457Y-107053044D01*
X156024448Y-107065026D01*
X156043168Y-107078910D01*
X156060438Y-107094562D01*
X156076090Y-107111832D01*
X156089974Y-107130552D01*
X156101956Y-107150543D01*
X156111921Y-107171613D01*
X156119773Y-107193557D01*
X156125437Y-107216166D01*
X156128856Y-107239221D01*
X156130000Y-107262500D01*
X156130000Y-107737500D01*
X156128856Y-107760779D01*
X156125437Y-107783834D01*
X156119773Y-107806443D01*
X156111921Y-107828387D01*
X156101956Y-107849457D01*
X156089974Y-107869448D01*
X156076090Y-107888168D01*
X156060438Y-107905438D01*
X156043168Y-107921090D01*
X156024448Y-107934974D01*
X156004457Y-107946956D01*
X155983387Y-107956921D01*
X155961443Y-107964773D01*
X155938834Y-107970437D01*
X155915779Y-107973856D01*
X155892500Y-107975000D01*
X155317500Y-107975000D01*
X155294221Y-107973856D01*
X155271166Y-107970437D01*
X155248557Y-107964773D01*
X155226613Y-107956921D01*
X155205543Y-107946956D01*
X155185552Y-107934974D01*
X155166832Y-107921090D01*
X155149562Y-107905438D01*
X155133910Y-107888168D01*
X155120026Y-107869448D01*
X155108044Y-107849457D01*
X155098079Y-107828387D01*
X155090227Y-107806443D01*
X155084563Y-107783834D01*
X155081144Y-107760779D01*
X155080000Y-107737500D01*
X155080000Y-107262500D01*
X155081144Y-107239221D01*
X155084563Y-107216166D01*
X155090227Y-107193557D01*
X155098079Y-107171613D01*
X155108044Y-107150543D01*
X155120026Y-107130552D01*
X155133910Y-107111832D01*
X155149562Y-107094562D01*
X155166832Y-107078910D01*
X155185552Y-107065026D01*
X155205543Y-107053044D01*
X155226613Y-107043079D01*
X155248557Y-107035227D01*
X155271166Y-107029563D01*
X155294221Y-107026144D01*
X155317500Y-107025000D01*
X155892500Y-107025000D01*
X155915779Y-107026144D01*
X155915779Y-107026144D01*
G37*
D11*
G04 #@! TD*
G04 #@! TO.P,R16,2*
G04 #@! TO.N,Net-(R16-Pad2)*
X155605000Y-107500000D03*
D10*
G04 #@! TO.N,Net-(D4-Pad4)*
G04 #@! TO.C,R18*
G36*
X154415779Y-79026144D02*
X154438834Y-79029563D01*
X154461443Y-79035227D01*
X154483387Y-79043079D01*
X154504457Y-79053044D01*
X154524448Y-79065026D01*
X154543168Y-79078910D01*
X154560438Y-79094562D01*
X154576090Y-79111832D01*
X154589974Y-79130552D01*
X154601956Y-79150543D01*
X154611921Y-79171613D01*
X154619773Y-79193557D01*
X154625437Y-79216166D01*
X154628856Y-79239221D01*
X154630000Y-79262500D01*
X154630000Y-79737500D01*
X154628856Y-79760779D01*
X154625437Y-79783834D01*
X154619773Y-79806443D01*
X154611921Y-79828387D01*
X154601956Y-79849457D01*
X154589974Y-79869448D01*
X154576090Y-79888168D01*
X154560438Y-79905438D01*
X154543168Y-79921090D01*
X154524448Y-79934974D01*
X154504457Y-79946956D01*
X154483387Y-79956921D01*
X154461443Y-79964773D01*
X154438834Y-79970437D01*
X154415779Y-79973856D01*
X154392500Y-79975000D01*
X153817500Y-79975000D01*
X153794221Y-79973856D01*
X153771166Y-79970437D01*
X153748557Y-79964773D01*
X153726613Y-79956921D01*
X153705543Y-79946956D01*
X153685552Y-79934974D01*
X153666832Y-79921090D01*
X153649562Y-79905438D01*
X153633910Y-79888168D01*
X153620026Y-79869448D01*
X153608044Y-79849457D01*
X153598079Y-79828387D01*
X153590227Y-79806443D01*
X153584563Y-79783834D01*
X153581144Y-79760779D01*
X153580000Y-79737500D01*
X153580000Y-79262500D01*
X153581144Y-79239221D01*
X153584563Y-79216166D01*
X153590227Y-79193557D01*
X153598079Y-79171613D01*
X153608044Y-79150543D01*
X153620026Y-79130552D01*
X153633910Y-79111832D01*
X153649562Y-79094562D01*
X153666832Y-79078910D01*
X153685552Y-79065026D01*
X153705543Y-79053044D01*
X153726613Y-79043079D01*
X153748557Y-79035227D01*
X153771166Y-79029563D01*
X153794221Y-79026144D01*
X153817500Y-79025000D01*
X154392500Y-79025000D01*
X154415779Y-79026144D01*
X154415779Y-79026144D01*
G37*
D11*
G04 #@! TD*
G04 #@! TO.P,R18,1*
G04 #@! TO.N,Net-(D4-Pad4)*
X154105000Y-79500000D03*
D10*
G04 #@! TO.N,Net-(R18-Pad2)*
G04 #@! TO.C,R18*
G36*
X156165779Y-79026144D02*
X156188834Y-79029563D01*
X156211443Y-79035227D01*
X156233387Y-79043079D01*
X156254457Y-79053044D01*
X156274448Y-79065026D01*
X156293168Y-79078910D01*
X156310438Y-79094562D01*
X156326090Y-79111832D01*
X156339974Y-79130552D01*
X156351956Y-79150543D01*
X156361921Y-79171613D01*
X156369773Y-79193557D01*
X156375437Y-79216166D01*
X156378856Y-79239221D01*
X156380000Y-79262500D01*
X156380000Y-79737500D01*
X156378856Y-79760779D01*
X156375437Y-79783834D01*
X156369773Y-79806443D01*
X156361921Y-79828387D01*
X156351956Y-79849457D01*
X156339974Y-79869448D01*
X156326090Y-79888168D01*
X156310438Y-79905438D01*
X156293168Y-79921090D01*
X156274448Y-79934974D01*
X156254457Y-79946956D01*
X156233387Y-79956921D01*
X156211443Y-79964773D01*
X156188834Y-79970437D01*
X156165779Y-79973856D01*
X156142500Y-79975000D01*
X155567500Y-79975000D01*
X155544221Y-79973856D01*
X155521166Y-79970437D01*
X155498557Y-79964773D01*
X155476613Y-79956921D01*
X155455543Y-79946956D01*
X155435552Y-79934974D01*
X155416832Y-79921090D01*
X155399562Y-79905438D01*
X155383910Y-79888168D01*
X155370026Y-79869448D01*
X155358044Y-79849457D01*
X155348079Y-79828387D01*
X155340227Y-79806443D01*
X155334563Y-79783834D01*
X155331144Y-79760779D01*
X155330000Y-79737500D01*
X155330000Y-79262500D01*
X155331144Y-79239221D01*
X155334563Y-79216166D01*
X155340227Y-79193557D01*
X155348079Y-79171613D01*
X155358044Y-79150543D01*
X155370026Y-79130552D01*
X155383910Y-79111832D01*
X155399562Y-79094562D01*
X155416832Y-79078910D01*
X155435552Y-79065026D01*
X155455543Y-79053044D01*
X155476613Y-79043079D01*
X155498557Y-79035227D01*
X155521166Y-79029563D01*
X155544221Y-79026144D01*
X155567500Y-79025000D01*
X156142500Y-79025000D01*
X156165779Y-79026144D01*
X156165779Y-79026144D01*
G37*
D11*
G04 #@! TD*
G04 #@! TO.P,R18,2*
G04 #@! TO.N,Net-(R18-Pad2)*
X155855000Y-79500000D03*
D10*
G04 #@! TO.N,Net-(R19-Pad2)*
G04 #@! TO.C,R19*
G36*
X155915779Y-109776144D02*
X155938834Y-109779563D01*
X155961443Y-109785227D01*
X155983387Y-109793079D01*
X156004457Y-109803044D01*
X156024448Y-109815026D01*
X156043168Y-109828910D01*
X156060438Y-109844562D01*
X156076090Y-109861832D01*
X156089974Y-109880552D01*
X156101956Y-109900543D01*
X156111921Y-109921613D01*
X156119773Y-109943557D01*
X156125437Y-109966166D01*
X156128856Y-109989221D01*
X156130000Y-110012500D01*
X156130000Y-110487500D01*
X156128856Y-110510779D01*
X156125437Y-110533834D01*
X156119773Y-110556443D01*
X156111921Y-110578387D01*
X156101956Y-110599457D01*
X156089974Y-110619448D01*
X156076090Y-110638168D01*
X156060438Y-110655438D01*
X156043168Y-110671090D01*
X156024448Y-110684974D01*
X156004457Y-110696956D01*
X155983387Y-110706921D01*
X155961443Y-110714773D01*
X155938834Y-110720437D01*
X155915779Y-110723856D01*
X155892500Y-110725000D01*
X155317500Y-110725000D01*
X155294221Y-110723856D01*
X155271166Y-110720437D01*
X155248557Y-110714773D01*
X155226613Y-110706921D01*
X155205543Y-110696956D01*
X155185552Y-110684974D01*
X155166832Y-110671090D01*
X155149562Y-110655438D01*
X155133910Y-110638168D01*
X155120026Y-110619448D01*
X155108044Y-110599457D01*
X155098079Y-110578387D01*
X155090227Y-110556443D01*
X155084563Y-110533834D01*
X155081144Y-110510779D01*
X155080000Y-110487500D01*
X155080000Y-110012500D01*
X155081144Y-109989221D01*
X155084563Y-109966166D01*
X155090227Y-109943557D01*
X155098079Y-109921613D01*
X155108044Y-109900543D01*
X155120026Y-109880552D01*
X155133910Y-109861832D01*
X155149562Y-109844562D01*
X155166832Y-109828910D01*
X155185552Y-109815026D01*
X155205543Y-109803044D01*
X155226613Y-109793079D01*
X155248557Y-109785227D01*
X155271166Y-109779563D01*
X155294221Y-109776144D01*
X155317500Y-109775000D01*
X155892500Y-109775000D01*
X155915779Y-109776144D01*
X155915779Y-109776144D01*
G37*
D11*
G04 #@! TD*
G04 #@! TO.P,R19,2*
G04 #@! TO.N,Net-(R19-Pad2)*
X155605000Y-110250000D03*
D10*
G04 #@! TO.N,Net-(D5-Pad4)*
G04 #@! TO.C,R19*
G36*
X154165779Y-109776144D02*
X154188834Y-109779563D01*
X154211443Y-109785227D01*
X154233387Y-109793079D01*
X154254457Y-109803044D01*
X154274448Y-109815026D01*
X154293168Y-109828910D01*
X154310438Y-109844562D01*
X154326090Y-109861832D01*
X154339974Y-109880552D01*
X154351956Y-109900543D01*
X154361921Y-109921613D01*
X154369773Y-109943557D01*
X154375437Y-109966166D01*
X154378856Y-109989221D01*
X154380000Y-110012500D01*
X154380000Y-110487500D01*
X154378856Y-110510779D01*
X154375437Y-110533834D01*
X154369773Y-110556443D01*
X154361921Y-110578387D01*
X154351956Y-110599457D01*
X154339974Y-110619448D01*
X154326090Y-110638168D01*
X154310438Y-110655438D01*
X154293168Y-110671090D01*
X154274448Y-110684974D01*
X154254457Y-110696956D01*
X154233387Y-110706921D01*
X154211443Y-110714773D01*
X154188834Y-110720437D01*
X154165779Y-110723856D01*
X154142500Y-110725000D01*
X153567500Y-110725000D01*
X153544221Y-110723856D01*
X153521166Y-110720437D01*
X153498557Y-110714773D01*
X153476613Y-110706921D01*
X153455543Y-110696956D01*
X153435552Y-110684974D01*
X153416832Y-110671090D01*
X153399562Y-110655438D01*
X153383910Y-110638168D01*
X153370026Y-110619448D01*
X153358044Y-110599457D01*
X153348079Y-110578387D01*
X153340227Y-110556443D01*
X153334563Y-110533834D01*
X153331144Y-110510779D01*
X153330000Y-110487500D01*
X153330000Y-110012500D01*
X153331144Y-109989221D01*
X153334563Y-109966166D01*
X153340227Y-109943557D01*
X153348079Y-109921613D01*
X153358044Y-109900543D01*
X153370026Y-109880552D01*
X153383910Y-109861832D01*
X153399562Y-109844562D01*
X153416832Y-109828910D01*
X153435552Y-109815026D01*
X153455543Y-109803044D01*
X153476613Y-109793079D01*
X153498557Y-109785227D01*
X153521166Y-109779563D01*
X153544221Y-109776144D01*
X153567500Y-109775000D01*
X154142500Y-109775000D01*
X154165779Y-109776144D01*
X154165779Y-109776144D01*
G37*
D11*
G04 #@! TD*
G04 #@! TO.P,R19,1*
G04 #@! TO.N,Net-(D5-Pad4)*
X153855000Y-110250000D03*
D10*
G04 #@! TO.N,Net-(D7-Pad1)*
G04 #@! TO.C,R21*
G36*
X154415779Y-83776144D02*
X154438834Y-83779563D01*
X154461443Y-83785227D01*
X154483387Y-83793079D01*
X154504457Y-83803044D01*
X154524448Y-83815026D01*
X154543168Y-83828910D01*
X154560438Y-83844562D01*
X154576090Y-83861832D01*
X154589974Y-83880552D01*
X154601956Y-83900543D01*
X154611921Y-83921613D01*
X154619773Y-83943557D01*
X154625437Y-83966166D01*
X154628856Y-83989221D01*
X154630000Y-84012500D01*
X154630000Y-84487500D01*
X154628856Y-84510779D01*
X154625437Y-84533834D01*
X154619773Y-84556443D01*
X154611921Y-84578387D01*
X154601956Y-84599457D01*
X154589974Y-84619448D01*
X154576090Y-84638168D01*
X154560438Y-84655438D01*
X154543168Y-84671090D01*
X154524448Y-84684974D01*
X154504457Y-84696956D01*
X154483387Y-84706921D01*
X154461443Y-84714773D01*
X154438834Y-84720437D01*
X154415779Y-84723856D01*
X154392500Y-84725000D01*
X153817500Y-84725000D01*
X153794221Y-84723856D01*
X153771166Y-84720437D01*
X153748557Y-84714773D01*
X153726613Y-84706921D01*
X153705543Y-84696956D01*
X153685552Y-84684974D01*
X153666832Y-84671090D01*
X153649562Y-84655438D01*
X153633910Y-84638168D01*
X153620026Y-84619448D01*
X153608044Y-84599457D01*
X153598079Y-84578387D01*
X153590227Y-84556443D01*
X153584563Y-84533834D01*
X153581144Y-84510779D01*
X153580000Y-84487500D01*
X153580000Y-84012500D01*
X153581144Y-83989221D01*
X153584563Y-83966166D01*
X153590227Y-83943557D01*
X153598079Y-83921613D01*
X153608044Y-83900543D01*
X153620026Y-83880552D01*
X153633910Y-83861832D01*
X153649562Y-83844562D01*
X153666832Y-83828910D01*
X153685552Y-83815026D01*
X153705543Y-83803044D01*
X153726613Y-83793079D01*
X153748557Y-83785227D01*
X153771166Y-83779563D01*
X153794221Y-83776144D01*
X153817500Y-83775000D01*
X154392500Y-83775000D01*
X154415779Y-83776144D01*
X154415779Y-83776144D01*
G37*
D11*
G04 #@! TD*
G04 #@! TO.P,R21,1*
G04 #@! TO.N,Net-(D7-Pad1)*
X154105000Y-84250000D03*
D10*
G04 #@! TO.N,Net-(R21-Pad2)*
G04 #@! TO.C,R21*
G36*
X156165779Y-83776144D02*
X156188834Y-83779563D01*
X156211443Y-83785227D01*
X156233387Y-83793079D01*
X156254457Y-83803044D01*
X156274448Y-83815026D01*
X156293168Y-83828910D01*
X156310438Y-83844562D01*
X156326090Y-83861832D01*
X156339974Y-83880552D01*
X156351956Y-83900543D01*
X156361921Y-83921613D01*
X156369773Y-83943557D01*
X156375437Y-83966166D01*
X156378856Y-83989221D01*
X156380000Y-84012500D01*
X156380000Y-84487500D01*
X156378856Y-84510779D01*
X156375437Y-84533834D01*
X156369773Y-84556443D01*
X156361921Y-84578387D01*
X156351956Y-84599457D01*
X156339974Y-84619448D01*
X156326090Y-84638168D01*
X156310438Y-84655438D01*
X156293168Y-84671090D01*
X156274448Y-84684974D01*
X156254457Y-84696956D01*
X156233387Y-84706921D01*
X156211443Y-84714773D01*
X156188834Y-84720437D01*
X156165779Y-84723856D01*
X156142500Y-84725000D01*
X155567500Y-84725000D01*
X155544221Y-84723856D01*
X155521166Y-84720437D01*
X155498557Y-84714773D01*
X155476613Y-84706921D01*
X155455543Y-84696956D01*
X155435552Y-84684974D01*
X155416832Y-84671090D01*
X155399562Y-84655438D01*
X155383910Y-84638168D01*
X155370026Y-84619448D01*
X155358044Y-84599457D01*
X155348079Y-84578387D01*
X155340227Y-84556443D01*
X155334563Y-84533834D01*
X155331144Y-84510779D01*
X155330000Y-84487500D01*
X155330000Y-84012500D01*
X155331144Y-83989221D01*
X155334563Y-83966166D01*
X155340227Y-83943557D01*
X155348079Y-83921613D01*
X155358044Y-83900543D01*
X155370026Y-83880552D01*
X155383910Y-83861832D01*
X155399562Y-83844562D01*
X155416832Y-83828910D01*
X155435552Y-83815026D01*
X155455543Y-83803044D01*
X155476613Y-83793079D01*
X155498557Y-83785227D01*
X155521166Y-83779563D01*
X155544221Y-83776144D01*
X155567500Y-83775000D01*
X156142500Y-83775000D01*
X156165779Y-83776144D01*
X156165779Y-83776144D01*
G37*
D11*
G04 #@! TD*
G04 #@! TO.P,R21,2*
G04 #@! TO.N,Net-(R21-Pad2)*
X155855000Y-84250000D03*
D10*
G04 #@! TO.N,Net-(R23-Pad2)*
G04 #@! TO.C,R23*
G36*
X156165779Y-86526144D02*
X156188834Y-86529563D01*
X156211443Y-86535227D01*
X156233387Y-86543079D01*
X156254457Y-86553044D01*
X156274448Y-86565026D01*
X156293168Y-86578910D01*
X156310438Y-86594562D01*
X156326090Y-86611832D01*
X156339974Y-86630552D01*
X156351956Y-86650543D01*
X156361921Y-86671613D01*
X156369773Y-86693557D01*
X156375437Y-86716166D01*
X156378856Y-86739221D01*
X156380000Y-86762500D01*
X156380000Y-87237500D01*
X156378856Y-87260779D01*
X156375437Y-87283834D01*
X156369773Y-87306443D01*
X156361921Y-87328387D01*
X156351956Y-87349457D01*
X156339974Y-87369448D01*
X156326090Y-87388168D01*
X156310438Y-87405438D01*
X156293168Y-87421090D01*
X156274448Y-87434974D01*
X156254457Y-87446956D01*
X156233387Y-87456921D01*
X156211443Y-87464773D01*
X156188834Y-87470437D01*
X156165779Y-87473856D01*
X156142500Y-87475000D01*
X155567500Y-87475000D01*
X155544221Y-87473856D01*
X155521166Y-87470437D01*
X155498557Y-87464773D01*
X155476613Y-87456921D01*
X155455543Y-87446956D01*
X155435552Y-87434974D01*
X155416832Y-87421090D01*
X155399562Y-87405438D01*
X155383910Y-87388168D01*
X155370026Y-87369448D01*
X155358044Y-87349457D01*
X155348079Y-87328387D01*
X155340227Y-87306443D01*
X155334563Y-87283834D01*
X155331144Y-87260779D01*
X155330000Y-87237500D01*
X155330000Y-86762500D01*
X155331144Y-86739221D01*
X155334563Y-86716166D01*
X155340227Y-86693557D01*
X155348079Y-86671613D01*
X155358044Y-86650543D01*
X155370026Y-86630552D01*
X155383910Y-86611832D01*
X155399562Y-86594562D01*
X155416832Y-86578910D01*
X155435552Y-86565026D01*
X155455543Y-86553044D01*
X155476613Y-86543079D01*
X155498557Y-86535227D01*
X155521166Y-86529563D01*
X155544221Y-86526144D01*
X155567500Y-86525000D01*
X156142500Y-86525000D01*
X156165779Y-86526144D01*
X156165779Y-86526144D01*
G37*
D11*
G04 #@! TD*
G04 #@! TO.P,R23,2*
G04 #@! TO.N,Net-(R23-Pad2)*
X155855000Y-87000000D03*
D10*
G04 #@! TO.N,Net-(D7-Pad3)*
G04 #@! TO.C,R23*
G36*
X154415779Y-86526144D02*
X154438834Y-86529563D01*
X154461443Y-86535227D01*
X154483387Y-86543079D01*
X154504457Y-86553044D01*
X154524448Y-86565026D01*
X154543168Y-86578910D01*
X154560438Y-86594562D01*
X154576090Y-86611832D01*
X154589974Y-86630552D01*
X154601956Y-86650543D01*
X154611921Y-86671613D01*
X154619773Y-86693557D01*
X154625437Y-86716166D01*
X154628856Y-86739221D01*
X154630000Y-86762500D01*
X154630000Y-87237500D01*
X154628856Y-87260779D01*
X154625437Y-87283834D01*
X154619773Y-87306443D01*
X154611921Y-87328387D01*
X154601956Y-87349457D01*
X154589974Y-87369448D01*
X154576090Y-87388168D01*
X154560438Y-87405438D01*
X154543168Y-87421090D01*
X154524448Y-87434974D01*
X154504457Y-87446956D01*
X154483387Y-87456921D01*
X154461443Y-87464773D01*
X154438834Y-87470437D01*
X154415779Y-87473856D01*
X154392500Y-87475000D01*
X153817500Y-87475000D01*
X153794221Y-87473856D01*
X153771166Y-87470437D01*
X153748557Y-87464773D01*
X153726613Y-87456921D01*
X153705543Y-87446956D01*
X153685552Y-87434974D01*
X153666832Y-87421090D01*
X153649562Y-87405438D01*
X153633910Y-87388168D01*
X153620026Y-87369448D01*
X153608044Y-87349457D01*
X153598079Y-87328387D01*
X153590227Y-87306443D01*
X153584563Y-87283834D01*
X153581144Y-87260779D01*
X153580000Y-87237500D01*
X153580000Y-86762500D01*
X153581144Y-86739221D01*
X153584563Y-86716166D01*
X153590227Y-86693557D01*
X153598079Y-86671613D01*
X153608044Y-86650543D01*
X153620026Y-86630552D01*
X153633910Y-86611832D01*
X153649562Y-86594562D01*
X153666832Y-86578910D01*
X153685552Y-86565026D01*
X153705543Y-86553044D01*
X153726613Y-86543079D01*
X153748557Y-86535227D01*
X153771166Y-86529563D01*
X153794221Y-86526144D01*
X153817500Y-86525000D01*
X154392500Y-86525000D01*
X154415779Y-86526144D01*
X154415779Y-86526144D01*
G37*
D11*
G04 #@! TD*
G04 #@! TO.P,R23,1*
G04 #@! TO.N,Net-(D7-Pad3)*
X154105000Y-87000000D03*
D10*
G04 #@! TO.N,Net-(D7-Pad4)*
G04 #@! TO.C,R25*
G36*
X154415779Y-89276144D02*
X154438834Y-89279563D01*
X154461443Y-89285227D01*
X154483387Y-89293079D01*
X154504457Y-89303044D01*
X154524448Y-89315026D01*
X154543168Y-89328910D01*
X154560438Y-89344562D01*
X154576090Y-89361832D01*
X154589974Y-89380552D01*
X154601956Y-89400543D01*
X154611921Y-89421613D01*
X154619773Y-89443557D01*
X154625437Y-89466166D01*
X154628856Y-89489221D01*
X154630000Y-89512500D01*
X154630000Y-89987500D01*
X154628856Y-90010779D01*
X154625437Y-90033834D01*
X154619773Y-90056443D01*
X154611921Y-90078387D01*
X154601956Y-90099457D01*
X154589974Y-90119448D01*
X154576090Y-90138168D01*
X154560438Y-90155438D01*
X154543168Y-90171090D01*
X154524448Y-90184974D01*
X154504457Y-90196956D01*
X154483387Y-90206921D01*
X154461443Y-90214773D01*
X154438834Y-90220437D01*
X154415779Y-90223856D01*
X154392500Y-90225000D01*
X153817500Y-90225000D01*
X153794221Y-90223856D01*
X153771166Y-90220437D01*
X153748557Y-90214773D01*
X153726613Y-90206921D01*
X153705543Y-90196956D01*
X153685552Y-90184974D01*
X153666832Y-90171090D01*
X153649562Y-90155438D01*
X153633910Y-90138168D01*
X153620026Y-90119448D01*
X153608044Y-90099457D01*
X153598079Y-90078387D01*
X153590227Y-90056443D01*
X153584563Y-90033834D01*
X153581144Y-90010779D01*
X153580000Y-89987500D01*
X153580000Y-89512500D01*
X153581144Y-89489221D01*
X153584563Y-89466166D01*
X153590227Y-89443557D01*
X153598079Y-89421613D01*
X153608044Y-89400543D01*
X153620026Y-89380552D01*
X153633910Y-89361832D01*
X153649562Y-89344562D01*
X153666832Y-89328910D01*
X153685552Y-89315026D01*
X153705543Y-89303044D01*
X153726613Y-89293079D01*
X153748557Y-89285227D01*
X153771166Y-89279563D01*
X153794221Y-89276144D01*
X153817500Y-89275000D01*
X154392500Y-89275000D01*
X154415779Y-89276144D01*
X154415779Y-89276144D01*
G37*
D11*
G04 #@! TD*
G04 #@! TO.P,R25,1*
G04 #@! TO.N,Net-(D7-Pad4)*
X154105000Y-89750000D03*
D10*
G04 #@! TO.N,Net-(R25-Pad2)*
G04 #@! TO.C,R25*
G36*
X156165779Y-89276144D02*
X156188834Y-89279563D01*
X156211443Y-89285227D01*
X156233387Y-89293079D01*
X156254457Y-89303044D01*
X156274448Y-89315026D01*
X156293168Y-89328910D01*
X156310438Y-89344562D01*
X156326090Y-89361832D01*
X156339974Y-89380552D01*
X156351956Y-89400543D01*
X156361921Y-89421613D01*
X156369773Y-89443557D01*
X156375437Y-89466166D01*
X156378856Y-89489221D01*
X156380000Y-89512500D01*
X156380000Y-89987500D01*
X156378856Y-90010779D01*
X156375437Y-90033834D01*
X156369773Y-90056443D01*
X156361921Y-90078387D01*
X156351956Y-90099457D01*
X156339974Y-90119448D01*
X156326090Y-90138168D01*
X156310438Y-90155438D01*
X156293168Y-90171090D01*
X156274448Y-90184974D01*
X156254457Y-90196956D01*
X156233387Y-90206921D01*
X156211443Y-90214773D01*
X156188834Y-90220437D01*
X156165779Y-90223856D01*
X156142500Y-90225000D01*
X155567500Y-90225000D01*
X155544221Y-90223856D01*
X155521166Y-90220437D01*
X155498557Y-90214773D01*
X155476613Y-90206921D01*
X155455543Y-90196956D01*
X155435552Y-90184974D01*
X155416832Y-90171090D01*
X155399562Y-90155438D01*
X155383910Y-90138168D01*
X155370026Y-90119448D01*
X155358044Y-90099457D01*
X155348079Y-90078387D01*
X155340227Y-90056443D01*
X155334563Y-90033834D01*
X155331144Y-90010779D01*
X155330000Y-89987500D01*
X155330000Y-89512500D01*
X155331144Y-89489221D01*
X155334563Y-89466166D01*
X155340227Y-89443557D01*
X155348079Y-89421613D01*
X155358044Y-89400543D01*
X155370026Y-89380552D01*
X155383910Y-89361832D01*
X155399562Y-89344562D01*
X155416832Y-89328910D01*
X155435552Y-89315026D01*
X155455543Y-89303044D01*
X155476613Y-89293079D01*
X155498557Y-89285227D01*
X155521166Y-89279563D01*
X155544221Y-89276144D01*
X155567500Y-89275000D01*
X156142500Y-89275000D01*
X156165779Y-89276144D01*
X156165779Y-89276144D01*
G37*
D11*
G04 #@! TD*
G04 #@! TO.P,R25,2*
G04 #@! TO.N,Net-(R25-Pad2)*
X155855000Y-89750000D03*
D15*
G04 #@! TO.P,U1,1*
G04 #@! TO.N,Net-(R6-Pad2)*
X148080000Y-76425000D03*
G04 #@! TO.P,U1,2*
G04 #@! TO.N,Net-(R9-Pad2)*
X148080000Y-77075000D03*
G04 #@! TO.P,U1,3*
G04 #@! TO.N,Net-(R12-Pad2)*
X148080000Y-77725000D03*
G04 #@! TO.P,U1,4*
G04 #@! TO.N,Net-(R15-Pad2)*
X148080000Y-78375000D03*
G04 #@! TO.P,U1,5*
G04 #@! TO.N,Net-(R18-Pad2)*
X148080000Y-79025000D03*
G04 #@! TO.P,U1,6*
G04 #@! TO.N,Net-(R21-Pad2)*
X148080000Y-79675000D03*
G04 #@! TO.P,U1,7*
G04 #@! TO.N,Net-(R23-Pad2)*
X148080000Y-80325000D03*
G04 #@! TO.P,U1,8*
G04 #@! TO.N,GND*
X148080000Y-80975000D03*
G04 #@! TO.P,U1,9*
G04 #@! TO.N,Net-(U1-Pad9)*
X142180000Y-80975000D03*
G04 #@! TO.P,U1,10*
G04 #@! TO.N,+3V3*
X142180000Y-80325000D03*
G04 #@! TO.P,U1,11*
G04 #@! TO.N,CLOCK*
X142180000Y-79675000D03*
G04 #@! TO.P,U1,12*
G04 #@! TO.N,LATCH*
X142180000Y-79025000D03*
G04 #@! TO.P,U1,13*
G04 #@! TO.N,GND*
X142180000Y-78375000D03*
G04 #@! TO.P,U1,14*
G04 #@! TO.N,DATA*
X142180000Y-77725000D03*
G04 #@! TO.P,U1,15*
G04 #@! TO.N,Net-(R3-Pad2)*
X142180000Y-77075000D03*
G04 #@! TO.P,U1,16*
G04 #@! TO.N,+3V3*
X142180000Y-76425000D03*
G04 #@! TD*
G04 #@! TO.P,U2,16*
G04 #@! TO.N,+3V3*
X142280000Y-96775000D03*
G04 #@! TO.P,U2,15*
G04 #@! TO.N,Net-(R25-Pad2)*
X142280000Y-97425000D03*
G04 #@! TO.P,U2,14*
G04 #@! TO.N,Net-(U1-Pad9)*
X142280000Y-98075000D03*
G04 #@! TO.P,U2,13*
G04 #@! TO.N,GND*
X142280000Y-98725000D03*
G04 #@! TO.P,U2,12*
G04 #@! TO.N,LATCH*
X142280000Y-99375000D03*
G04 #@! TO.P,U2,11*
G04 #@! TO.N,CLOCK*
X142280000Y-100025000D03*
G04 #@! TO.P,U2,10*
G04 #@! TO.N,+3V3*
X142280000Y-100675000D03*
G04 #@! TO.P,U2,9*
G04 #@! TO.N,N/C*
X142280000Y-101325000D03*
G04 #@! TO.P,U2,8*
G04 #@! TO.N,GND*
X148180000Y-101325000D03*
G04 #@! TO.P,U2,7*
G04 #@! TO.N,N/C*
X148180000Y-100675000D03*
G04 #@! TO.P,U2,6*
G04 #@! TO.N,Net-(R19-Pad2)*
X148180000Y-100025000D03*
G04 #@! TO.P,U2,5*
G04 #@! TO.N,Net-(R16-Pad2)*
X148180000Y-99375000D03*
G04 #@! TO.P,U2,4*
G04 #@! TO.N,Net-(R13-Pad2)*
X148180000Y-98725000D03*
G04 #@! TO.P,U2,3*
G04 #@! TO.N,Net-(R10-Pad2)*
X148180000Y-98075000D03*
G04 #@! TO.P,U2,2*
G04 #@! TO.N,Net-(R7-Pad2)*
X148180000Y-97425000D03*
G04 #@! TO.P,U2,1*
G04 #@! TO.N,Net-(R4-Pad2)*
X148180000Y-96775000D03*
G04 #@! TD*
D16*
G04 #@! TO.P,D1,1*
G04 #@! TO.N,Net-(D1-Pad1)*
X147320000Y-63500000D03*
D17*
G04 #@! TO.P,D1,2*
G04 #@! TO.N,GND*
X148590000Y-63500000D03*
G04 #@! TO.P,D1,3*
G04 #@! TO.N,Net-(D1-Pad3)*
X149860000Y-63500000D03*
G04 #@! TO.P,D1,4*
G04 #@! TO.N,Net-(D1-Pad4)*
X151130000Y-63500000D03*
G04 #@! TD*
D16*
G04 #@! TO.P,D2,1*
G04 #@! TO.N,Net-(D2-Pad1)*
X147320000Y-93980000D03*
D17*
G04 #@! TO.P,D2,2*
G04 #@! TO.N,GND*
X148590000Y-93980000D03*
G04 #@! TO.P,D2,3*
G04 #@! TO.N,Net-(D2-Pad3)*
X149860000Y-93980000D03*
G04 #@! TO.P,D2,4*
G04 #@! TO.N,Net-(D2-Pad4)*
X151130000Y-93980000D03*
G04 #@! TD*
G04 #@! TO.P,D4,4*
G04 #@! TO.N,Net-(D4-Pad4)*
X151130000Y-73660000D03*
G04 #@! TO.P,D4,3*
G04 #@! TO.N,Net-(D4-Pad3)*
X149860000Y-73660000D03*
G04 #@! TO.P,D4,2*
G04 #@! TO.N,GND*
X148590000Y-73660000D03*
D16*
G04 #@! TO.P,D4,1*
G04 #@! TO.N,Net-(D4-Pad1)*
X147320000Y-73660000D03*
G04 #@! TD*
D17*
G04 #@! TO.P,D5,4*
G04 #@! TO.N,Net-(D5-Pad4)*
X151130000Y-104140000D03*
G04 #@! TO.P,D5,3*
G04 #@! TO.N,Net-(D5-Pad3)*
X149860000Y-104140000D03*
G04 #@! TO.P,D5,2*
G04 #@! TO.N,GND*
X148590000Y-104140000D03*
D16*
G04 #@! TO.P,D5,1*
G04 #@! TO.N,Net-(D5-Pad1)*
X147320000Y-104140000D03*
G04 #@! TD*
G04 #@! TO.P,D7,1*
G04 #@! TO.N,Net-(D7-Pad1)*
X147320000Y-83820000D03*
D17*
G04 #@! TO.P,D7,2*
G04 #@! TO.N,GND*
X148590000Y-83820000D03*
G04 #@! TO.P,D7,3*
G04 #@! TO.N,Net-(D7-Pad3)*
X149860000Y-83820000D03*
G04 #@! TO.P,D7,4*
G04 #@! TO.N,Net-(D7-Pad4)*
X151130000Y-83820000D03*
G04 #@! TD*
D18*
G04 #@! TO.N,GND*
X142494000Y-105664000D03*
X143510000Y-55372000D03*
X148082000Y-112522000D03*
X154262123Y-112107442D03*
G04 #@! TO.N,Net-(D1-Pad4)*
X151130000Y-69300000D03*
G04 #@! TO.N,Net-(D1-Pad3)*
X149930000Y-66500000D03*
G04 #@! TO.N,Net-(D2-Pad3)*
X150155000Y-97125000D03*
G04 #@! TO.N,Net-(D2-Pad4)*
X151130000Y-100000000D03*
G04 #@! TO.N,Net-(D4-Pad3)*
X149880000Y-76750000D03*
G04 #@! TO.N,Net-(D4-Pad4)*
X151130000Y-79475000D03*
G04 #@! TO.N,Net-(D5-Pad3)*
X149930000Y-107400000D03*
G04 #@! TO.N,Net-(D5-Pad4)*
X151156343Y-110294384D03*
G04 #@! TO.N,Net-(D7-Pad4)*
X151130000Y-89800000D03*
G04 #@! TO.N,Net-(D7-Pad3)*
X149930000Y-87000000D03*
G04 #@! TO.N,DATA*
X144180000Y-77625000D03*
G04 #@! TO.N,LATCH*
X149310000Y-110369998D03*
X145630000Y-79925004D03*
X144670874Y-110250824D03*
X144830000Y-99460010D03*
G04 #@! TO.N,CLOCK*
X151820000Y-111260000D03*
X144005000Y-100300000D03*
X143629996Y-79925000D03*
X144205000Y-111325000D03*
G04 #@! TO.N,LDR*
X154150004Y-57650000D03*
G04 #@! TO.N,Net-(R3-Pad2)*
X143780000Y-75600000D03*
X143780000Y-65650000D03*
G04 #@! TO.N,Net-(R6-Pad2)*
X145879998Y-68000000D03*
X146330000Y-75625000D03*
G04 #@! TO.N,Net-(R9-Pad2)*
X144955000Y-70500000D03*
X146505000Y-77050000D03*
G04 #@! TO.N,Net-(R12-Pad2)*
X152405000Y-75950000D03*
X152380000Y-77475000D03*
G04 #@! TO.N,Net-(R16-Pad2)*
X146630000Y-99400000D03*
X146155000Y-108150000D03*
G04 #@! TO.N,Net-(R19-Pad2)*
X145705000Y-100250000D03*
X145343456Y-109118375D03*
G04 #@! TO.N,Net-(R23-Pad2)*
X145980010Y-87950000D03*
X146480000Y-81075000D03*
G04 #@! TO.N,Net-(R25-Pad2)*
X144580000Y-95075000D03*
X144555000Y-91000000D03*
G04 #@! TO.N,Net-(U1-Pad9)*
X144730010Y-97350000D03*
X144367345Y-80737335D03*
G04 #@! TD*
D19*
G04 #@! TO.N,GND*
X148150000Y-92390000D02*
X148590000Y-92830000D01*
X145650000Y-92790000D02*
X146050000Y-92390000D01*
X148590000Y-92830000D02*
X148590000Y-93980000D01*
X146050000Y-92390000D02*
X148150000Y-92390000D01*
X148590000Y-61640000D02*
X148590000Y-63500000D01*
X152105000Y-58125000D02*
X148590000Y-61640000D01*
X148590000Y-82670000D02*
X148590000Y-83820000D01*
X148590000Y-81960000D02*
X148590000Y-82670000D01*
X148080000Y-81450000D02*
X148590000Y-81960000D01*
X148080000Y-80975000D02*
X148080000Y-81450000D01*
X148180000Y-102055000D02*
X148180000Y-101325000D01*
X148590000Y-102465000D02*
X148180000Y-102055000D01*
X148590000Y-104140000D02*
X148590000Y-102465000D01*
X144980002Y-77948002D02*
X144980002Y-74876002D01*
X144980002Y-74876002D02*
X143711000Y-73607000D01*
X141560000Y-78415000D02*
X144513004Y-78415000D01*
X144513004Y-78415000D02*
X144980002Y-77948002D01*
X143668000Y-73650000D02*
X143711000Y-73607000D01*
X142607000Y-73650000D02*
X143668000Y-73650000D01*
X143711000Y-73459000D02*
X145420000Y-71750000D01*
X148590000Y-72360000D02*
X148590000Y-73660000D01*
X145420000Y-71750000D02*
X147980000Y-71750000D01*
X143711000Y-73607000D02*
X143711000Y-73459000D01*
X147980000Y-71750000D02*
X148590000Y-72360000D01*
X146050000Y-93190000D02*
X145650000Y-92790000D01*
X144851000Y-98735000D02*
X146050000Y-97536000D01*
X146050000Y-97536000D02*
X146050000Y-93190000D01*
X142873014Y-98735000D02*
X144851000Y-98735000D01*
X142607000Y-93613000D02*
X142607000Y-94742000D01*
X143095000Y-93125000D02*
X142607000Y-93613000D01*
X145315000Y-93125000D02*
X143095000Y-93125000D01*
X145650000Y-92790000D02*
X145315000Y-93125000D01*
G04 #@! TO.N,+3V3*
X141655000Y-76425000D02*
X142180000Y-76425000D01*
X146730001Y-56749999D02*
X147480000Y-56000000D01*
X140857000Y-73650000D02*
X139944000Y-73650000D01*
X139944000Y-73650000D02*
X139592000Y-73298000D01*
X139592000Y-73298000D02*
X139592000Y-56750000D01*
X139592000Y-56750000D02*
X146730001Y-56749999D01*
X141730000Y-114250000D02*
X139980000Y-114250000D01*
X139980000Y-114250000D02*
X139404990Y-113674990D01*
X139429990Y-100675000D02*
X142280000Y-100675000D01*
X139404990Y-113674990D02*
X139404990Y-100700000D01*
X139404990Y-100700000D02*
X139429990Y-100675000D01*
X139404990Y-100700000D02*
X139404990Y-96194010D01*
X142180000Y-80325000D02*
X139429990Y-80325000D01*
X139404990Y-80300000D02*
X139404990Y-96194010D01*
X139429990Y-80325000D02*
X139404990Y-80300000D01*
X140849000Y-94750000D02*
X140857000Y-94742000D01*
X139780000Y-94750000D02*
X140849000Y-94750000D01*
X139404990Y-95125010D02*
X139780000Y-94750000D01*
X139404990Y-96194010D02*
X139404990Y-95125010D01*
X139404990Y-74025010D02*
X139404990Y-80300000D01*
X139780000Y-73650000D02*
X139404990Y-74025010D01*
X140857000Y-73650000D02*
X139780000Y-73650000D01*
X140857000Y-73650000D02*
X140880000Y-73673000D01*
D10*
X142180000Y-74950000D02*
X142180000Y-76399999D01*
X140880000Y-73650000D02*
X142180000Y-74950000D01*
X140857000Y-73650000D02*
X140880000Y-73650000D01*
X142240000Y-96125000D02*
X140857000Y-94742000D01*
X142240000Y-96520000D02*
X142240000Y-96125000D01*
D19*
X142240000Y-96735000D02*
X142280000Y-96775000D01*
X142240000Y-96520000D02*
X142240000Y-96735000D01*
G04 #@! TO.N,Net-(D1-Pad4)*
X154055000Y-69300000D02*
X154105000Y-69250000D01*
X151130000Y-69300000D02*
X154055000Y-69300000D01*
G04 #@! TO.N,Net-(D1-Pad3)*
X149930000Y-66500000D02*
X154105000Y-66500000D01*
G04 #@! TO.N,Net-(D2-Pad3)*
X154105000Y-97250000D02*
X150280000Y-97250000D01*
X150280000Y-97250000D02*
X150155000Y-97125000D01*
G04 #@! TO.N,Net-(D2-Pad4)*
X151130000Y-100000000D02*
X154105000Y-100000000D01*
G04 #@! TO.N,Net-(D4-Pad3)*
X149880000Y-76750000D02*
X154105000Y-76750000D01*
G04 #@! TO.N,Net-(D4-Pad4)*
X154080000Y-79475000D02*
X154105000Y-79500000D01*
X151130000Y-79475000D02*
X154080000Y-79475000D01*
G04 #@! TO.N,Net-(D5-Pad3)*
X153755000Y-107400000D02*
X153855000Y-107500000D01*
X149930000Y-107400000D02*
X153755000Y-107400000D01*
G04 #@! TO.N,Net-(D5-Pad4)*
X153855000Y-110250000D02*
X151200727Y-110250000D01*
X151200727Y-110250000D02*
X151156343Y-110294384D01*
G04 #@! TO.N,Net-(D7-Pad4)*
X154055000Y-89800000D02*
X154105000Y-89750000D01*
X151130000Y-89800000D02*
X154055000Y-89800000D01*
G04 #@! TO.N,Net-(D7-Pad3)*
X149930000Y-87000000D02*
X154105000Y-87000000D01*
G04 #@! TO.N,DATA*
X141965000Y-77765000D02*
X141955000Y-77775000D01*
X142180000Y-77725000D02*
X144080000Y-77725000D01*
X144080000Y-77725000D02*
X144180000Y-77625000D01*
G04 #@! TO.N,LATCH*
X142515000Y-79065000D02*
X144769996Y-79065000D01*
X145230001Y-79525005D02*
X145630000Y-79925004D01*
X144769996Y-79065000D02*
X145230001Y-79525005D01*
X149310000Y-110369998D02*
X144790048Y-110369998D01*
X144790048Y-110369998D02*
X144670874Y-110250824D01*
X142280000Y-99375000D02*
X144744990Y-99375000D01*
X144744990Y-99375000D02*
X144830000Y-99460010D01*
G04 #@! TO.N,CLOCK*
X143730000Y-100025000D02*
X142280000Y-100025000D01*
X144005000Y-100300000D02*
X143730000Y-100025000D01*
X143379996Y-79675000D02*
X143629996Y-79925000D01*
X142180000Y-79675000D02*
X143379996Y-79675000D01*
X144270000Y-111260000D02*
X144205000Y-111325000D01*
X151820000Y-111260000D02*
X144270000Y-111260000D01*
G04 #@! TO.N,LDR*
X150930000Y-56050000D02*
X150880000Y-56000000D01*
X154075000Y-56050000D02*
X150930000Y-56050000D01*
X154075000Y-57574996D02*
X154150004Y-57650000D01*
X154075000Y-56050000D02*
X154075000Y-57574996D01*
G04 #@! TO.N,Net-(R3-Pad2)*
X143780000Y-76165685D02*
X143780000Y-75600000D01*
X143180000Y-77075000D02*
X143780000Y-76475000D01*
X143780000Y-76475000D02*
X143780000Y-76165685D01*
X142180000Y-77075000D02*
X143180000Y-77075000D01*
X144345685Y-65650000D02*
X143780000Y-65650000D01*
X155855000Y-63750000D02*
X153955000Y-65650000D01*
X153955000Y-65650000D02*
X144345685Y-65650000D01*
G04 #@! TO.N,Net-(R4-Pad2)*
X155355928Y-94999072D02*
X155855000Y-94500000D01*
X148180000Y-96775000D02*
X149180000Y-96775000D01*
X149180000Y-96775000D02*
X149855000Y-96100000D01*
X149855000Y-96100000D02*
X154255000Y-96100000D01*
X154255000Y-96100000D02*
X155355928Y-94999072D01*
G04 #@! TO.N,Net-(R6-Pad2)*
X146445683Y-68000000D02*
X145879998Y-68000000D01*
X155855000Y-66500000D02*
X154355000Y-68000000D01*
X154355000Y-68000000D02*
X146445683Y-68000000D01*
X148080000Y-76425000D02*
X147555000Y-76425000D01*
X147555000Y-76425000D02*
X146755000Y-75625000D01*
X146755000Y-75625000D02*
X146330000Y-75625000D01*
G04 #@! TO.N,Net-(R7-Pad2)*
X155355928Y-97749072D02*
X155855000Y-97250000D01*
X148180000Y-97425000D02*
X149180000Y-97425000D01*
X150005000Y-98250000D02*
X154855000Y-98250000D01*
X149180000Y-97425000D02*
X150005000Y-98250000D01*
X154855000Y-98250000D02*
X155355928Y-97749072D01*
G04 #@! TO.N,Net-(R9-Pad2)*
X145520685Y-70500000D02*
X144955000Y-70500000D01*
X154605000Y-70500000D02*
X145520685Y-70500000D01*
X155855000Y-69250000D02*
X154605000Y-70500000D01*
X148080000Y-77075000D02*
X146530000Y-77075000D01*
X146530000Y-77075000D02*
X146505000Y-77050000D01*
G04 #@! TO.N,Net-(R10-Pad2)*
X148180000Y-98075000D02*
X148279999Y-98174999D01*
X155355928Y-99500928D02*
X155855000Y-100000000D01*
X148180000Y-98075000D02*
X149180000Y-98075000D01*
X149180000Y-98075000D02*
X149930000Y-98825000D01*
X149930000Y-98825000D02*
X154680000Y-98825000D01*
X154680000Y-98825000D02*
X155355928Y-99500928D01*
G04 #@! TO.N,Net-(R12-Pad2)*
X154205000Y-75650000D02*
X155855000Y-74000000D01*
X152705000Y-75650000D02*
X152405000Y-75950000D01*
X154205000Y-75650000D02*
X152705000Y-75650000D01*
X150730000Y-77725000D02*
X149080000Y-77725000D01*
X150980000Y-77475000D02*
X150730000Y-77725000D01*
X149080000Y-77725000D02*
X148080000Y-77725000D01*
X152380000Y-77475000D02*
X150980000Y-77475000D01*
G04 #@! TO.N,Net-(R13-Pad2)*
X150080000Y-99625000D02*
X149180000Y-98725000D01*
X150080000Y-100850000D02*
X150080000Y-99625000D01*
X149180000Y-98725000D02*
X148180000Y-98725000D01*
X155605000Y-104750000D02*
X155605000Y-102325000D01*
X155605000Y-102325000D02*
X154755000Y-101475000D01*
X154755000Y-101475000D02*
X150705000Y-101475000D01*
X150705000Y-101475000D02*
X150080000Y-100850000D01*
G04 #@! TO.N,Net-(R15-Pad2)*
X148080000Y-78375000D02*
X149430000Y-78375000D01*
X149604999Y-78200001D02*
X154404999Y-78200001D01*
X154404999Y-78200001D02*
X155355928Y-77249072D01*
X155355928Y-77249072D02*
X155855000Y-76750000D01*
X149430000Y-78375000D02*
X149604999Y-78200001D01*
G04 #@! TO.N,Net-(R16-Pad2)*
X148155000Y-99400000D02*
X148180000Y-99375000D01*
X146630000Y-99400000D02*
X148155000Y-99400000D01*
X155605000Y-107500000D02*
X154555001Y-108549999D01*
X154555001Y-108549999D02*
X146554999Y-108549999D01*
X146554999Y-108549999D02*
X146155000Y-108150000D01*
G04 #@! TO.N,Net-(R18-Pad2)*
X155355928Y-79000928D02*
X155855000Y-79500000D01*
X148080000Y-79025000D02*
X149655000Y-79025000D01*
X149655000Y-79025000D02*
X149980010Y-78699990D01*
X149980010Y-78699990D02*
X155054990Y-78699990D01*
X155054990Y-78699990D02*
X155355928Y-79000928D01*
G04 #@! TO.N,Net-(R19-Pad2)*
X147044998Y-100250000D02*
X147269998Y-100025000D01*
X147269998Y-100025000D02*
X148180000Y-100025000D01*
X145705000Y-100250000D02*
X147044998Y-100250000D01*
X154473375Y-109118375D02*
X145909141Y-109118375D01*
X145909141Y-109118375D02*
X145343456Y-109118375D01*
X155605000Y-110250000D02*
X154473375Y-109118375D01*
G04 #@! TO.N,Net-(R21-Pad2)*
X149705000Y-79675000D02*
X148080000Y-79675000D01*
X150780000Y-80750000D02*
X149705000Y-79675000D01*
X152355000Y-80750000D02*
X150780000Y-80750000D01*
X155855000Y-84250000D02*
X152355000Y-80750000D01*
G04 #@! TO.N,Net-(R23-Pad2)*
X154905000Y-87950000D02*
X146545695Y-87950000D01*
X146545695Y-87950000D02*
X145980010Y-87950000D01*
X155855000Y-87000000D02*
X154905000Y-87950000D01*
X146480000Y-80925000D02*
X146480000Y-81075000D01*
X147080000Y-80325000D02*
X146480000Y-80925000D01*
X148080000Y-80325000D02*
X147080000Y-80325000D01*
G04 #@! TO.N,Net-(R25-Pad2)*
X142280000Y-97425000D02*
X143280000Y-97425000D01*
X143280000Y-97425000D02*
X144580000Y-96125000D01*
X144580000Y-95640685D02*
X144580000Y-95075000D01*
X144580000Y-96125000D02*
X144580000Y-95640685D01*
X145120685Y-91000000D02*
X144555000Y-91000000D01*
X154605000Y-91000000D02*
X145120685Y-91000000D01*
X155855000Y-89750000D02*
X154605000Y-91000000D01*
G04 #@! TO.N,Net-(U1-Pad9)*
X142280000Y-98075000D02*
X144005010Y-98075000D01*
X144005010Y-98075000D02*
X144330011Y-97749999D01*
X144330011Y-97749999D02*
X144730010Y-97350000D01*
X142180000Y-80975000D02*
X144129680Y-80975000D01*
X144129680Y-80975000D02*
X144367345Y-80737335D01*
G04 #@! TO.N,Net-(D1-Pad1)*
X154030000Y-63825000D02*
X154105000Y-63750000D01*
X147320000Y-63500000D02*
X147320000Y-64590000D01*
X147320000Y-64590000D02*
X147779989Y-65049989D01*
X147779989Y-65049989D02*
X152805011Y-65049989D01*
X152805011Y-65049989D02*
X154030000Y-63825000D01*
G04 #@! TO.N,Net-(D2-Pad1)*
X153605928Y-94999072D02*
X154105000Y-94500000D01*
X147320000Y-93980000D02*
X147320000Y-95130000D01*
X147320000Y-95130000D02*
X147590000Y-95400000D01*
X147590000Y-95400000D02*
X153205000Y-95400000D01*
X153205000Y-95400000D02*
X153605928Y-94999072D01*
G04 #@! TO.N,Net-(D4-Pad1)*
X153605928Y-74499072D02*
X154105000Y-74000000D01*
X147320000Y-73660000D02*
X147320000Y-74690000D01*
X147320000Y-74690000D02*
X147830000Y-75200000D01*
X147830000Y-75200000D02*
X152905000Y-75200000D01*
X152905000Y-75200000D02*
X153605928Y-74499072D01*
G04 #@! TO.N,Net-(D5-Pad1)*
X153355928Y-105249072D02*
X153855000Y-104750000D01*
X147320000Y-104140000D02*
X147320000Y-105390000D01*
X147530000Y-105600000D02*
X153005000Y-105600000D01*
X147320000Y-105390000D02*
X147530000Y-105600000D01*
X153005000Y-105600000D02*
X153355928Y-105249072D01*
G04 #@! TO.N,Net-(D7-Pad1)*
X153605928Y-84749072D02*
X154105000Y-84250000D01*
X147320000Y-83820000D02*
X147320000Y-84790000D01*
X152955000Y-85400000D02*
X153605928Y-84749072D01*
X147320000Y-84790000D02*
X147930000Y-85400000D01*
X147930000Y-85400000D02*
X152955000Y-85400000D01*
G04 #@! TD*
D20*
G04 #@! TO.N,+3V3*
G36*
X140589000Y-72557750D02*
X140571250Y-72540000D01*
X140205691Y-72540000D01*
X139972302Y-72636673D01*
X139793673Y-72815301D01*
X139697000Y-73048690D01*
X139697000Y-73364250D01*
X139855750Y-73523000D01*
X140589000Y-73523000D01*
X140589000Y-73777000D01*
X139855750Y-73777000D01*
X139697000Y-73935750D01*
X139697000Y-74251310D01*
X139793673Y-74484699D01*
X139972302Y-74663327D01*
X140205691Y-74760000D01*
X140571250Y-74760000D01*
X140589000Y-74742250D01*
X140589000Y-93649750D01*
X140571250Y-93632000D01*
X140205691Y-93632000D01*
X139972302Y-93728673D01*
X139793673Y-93907301D01*
X139697000Y-94140690D01*
X139697000Y-94456250D01*
X139855750Y-94615000D01*
X140589000Y-94615000D01*
X140589000Y-94869000D01*
X139855750Y-94869000D01*
X139697000Y-95027750D01*
X139697000Y-95343310D01*
X139793673Y-95576699D01*
X139972302Y-95755327D01*
X140205691Y-95852000D01*
X140571250Y-95852000D01*
X140589000Y-95834250D01*
X140589000Y-112522000D01*
X140598667Y-112570601D01*
X140626197Y-112611803D01*
X140667399Y-112639333D01*
X140716000Y-112649000D01*
X142367000Y-112649000D01*
X142367000Y-112765000D01*
X142015750Y-112765000D01*
X141857000Y-112923750D01*
X141857000Y-114123000D01*
X141877000Y-114123000D01*
X141877000Y-114377000D01*
X141857000Y-114377000D01*
X141857000Y-115576250D01*
X142015750Y-115735000D01*
X142367000Y-115735000D01*
X142367000Y-117146000D01*
X139758685Y-117146000D01*
X139439495Y-117092872D01*
X139207082Y-116967468D01*
X139027817Y-116773541D01*
X138915258Y-116518940D01*
X138886000Y-116287335D01*
X138886000Y-114535750D01*
X140245000Y-114535750D01*
X140245000Y-115226309D01*
X140341673Y-115459698D01*
X140520301Y-115638327D01*
X140753690Y-115735000D01*
X141444250Y-115735000D01*
X141603000Y-115576250D01*
X141603000Y-114377000D01*
X140403750Y-114377000D01*
X140245000Y-114535750D01*
X138886000Y-114535750D01*
X138886000Y-113273691D01*
X140245000Y-113273691D01*
X140245000Y-113964250D01*
X140403750Y-114123000D01*
X141603000Y-114123000D01*
X141603000Y-112923750D01*
X141444250Y-112765000D01*
X140753690Y-112765000D01*
X140520301Y-112861673D01*
X140341673Y-113040302D01*
X140245000Y-113273691D01*
X138886000Y-113273691D01*
X138886000Y-55684686D01*
X138939128Y-55365495D01*
X139064533Y-55133081D01*
X139258459Y-54953816D01*
X139513059Y-54841259D01*
X139744672Y-54812000D01*
X140589000Y-54812000D01*
X140589000Y-72557750D01*
X140589000Y-72557750D01*
G37*
X140589000Y-72557750D02*
X140571250Y-72540000D01*
X140205691Y-72540000D01*
X139972302Y-72636673D01*
X139793673Y-72815301D01*
X139697000Y-73048690D01*
X139697000Y-73364250D01*
X139855750Y-73523000D01*
X140589000Y-73523000D01*
X140589000Y-73777000D01*
X139855750Y-73777000D01*
X139697000Y-73935750D01*
X139697000Y-74251310D01*
X139793673Y-74484699D01*
X139972302Y-74663327D01*
X140205691Y-74760000D01*
X140571250Y-74760000D01*
X140589000Y-74742250D01*
X140589000Y-93649750D01*
X140571250Y-93632000D01*
X140205691Y-93632000D01*
X139972302Y-93728673D01*
X139793673Y-93907301D01*
X139697000Y-94140690D01*
X139697000Y-94456250D01*
X139855750Y-94615000D01*
X140589000Y-94615000D01*
X140589000Y-94869000D01*
X139855750Y-94869000D01*
X139697000Y-95027750D01*
X139697000Y-95343310D01*
X139793673Y-95576699D01*
X139972302Y-95755327D01*
X140205691Y-95852000D01*
X140571250Y-95852000D01*
X140589000Y-95834250D01*
X140589000Y-112522000D01*
X140598667Y-112570601D01*
X140626197Y-112611803D01*
X140667399Y-112639333D01*
X140716000Y-112649000D01*
X142367000Y-112649000D01*
X142367000Y-112765000D01*
X142015750Y-112765000D01*
X141857000Y-112923750D01*
X141857000Y-114123000D01*
X141877000Y-114123000D01*
X141877000Y-114377000D01*
X141857000Y-114377000D01*
X141857000Y-115576250D01*
X142015750Y-115735000D01*
X142367000Y-115735000D01*
X142367000Y-117146000D01*
X139758685Y-117146000D01*
X139439495Y-117092872D01*
X139207082Y-116967468D01*
X139027817Y-116773541D01*
X138915258Y-116518940D01*
X138886000Y-116287335D01*
X138886000Y-114535750D01*
X140245000Y-114535750D01*
X140245000Y-115226309D01*
X140341673Y-115459698D01*
X140520301Y-115638327D01*
X140753690Y-115735000D01*
X141444250Y-115735000D01*
X141603000Y-115576250D01*
X141603000Y-114377000D01*
X140403750Y-114377000D01*
X140245000Y-114535750D01*
X138886000Y-114535750D01*
X138886000Y-113273691D01*
X140245000Y-113273691D01*
X140245000Y-113964250D01*
X140403750Y-114123000D01*
X141603000Y-114123000D01*
X141603000Y-112923750D01*
X141444250Y-112765000D01*
X140753690Y-112765000D01*
X140520301Y-112861673D01*
X140341673Y-113040302D01*
X140245000Y-113273691D01*
X138886000Y-113273691D01*
X138886000Y-55684686D01*
X138939128Y-55365495D01*
X139064533Y-55133081D01*
X139258459Y-54953816D01*
X139513059Y-54841259D01*
X139744672Y-54812000D01*
X140589000Y-54812000D01*
X140589000Y-72557750D01*
G04 #@! TO.N,GND*
G36*
X150095460Y-54825853D02*
X149705853Y-55215460D01*
X149495000Y-55724506D01*
X149495000Y-56275494D01*
X149705853Y-56784540D01*
X150095460Y-57174147D01*
X150604506Y-57385000D01*
X151155494Y-57385000D01*
X151664540Y-57174147D01*
X152028687Y-56810000D01*
X153092765Y-56810000D01*
X153161753Y-56913247D01*
X153315001Y-57015644D01*
X153315001Y-57021292D01*
X153272573Y-57063720D01*
X153115004Y-57444126D01*
X153115004Y-57855874D01*
X153272573Y-58236280D01*
X153563724Y-58527431D01*
X153944130Y-58685000D01*
X154355878Y-58685000D01*
X154736284Y-58527431D01*
X155027435Y-58236280D01*
X155185004Y-57855874D01*
X155185004Y-57444126D01*
X155045284Y-57106812D01*
X155173691Y-57160000D01*
X155539250Y-57160000D01*
X155698000Y-57001250D01*
X155698000Y-56177000D01*
X155952000Y-56177000D01*
X155952000Y-57001250D01*
X156110750Y-57160000D01*
X156476309Y-57160000D01*
X156709698Y-57063327D01*
X156888327Y-56884699D01*
X156985000Y-56651310D01*
X156985000Y-56335750D01*
X156826250Y-56177000D01*
X155952000Y-56177000D01*
X155698000Y-56177000D01*
X155678000Y-56177000D01*
X155678000Y-55923000D01*
X155698000Y-55923000D01*
X155698000Y-55098750D01*
X155952000Y-55098750D01*
X155952000Y-55923000D01*
X156826250Y-55923000D01*
X156985000Y-55764250D01*
X156985000Y-55448690D01*
X156888327Y-55215301D01*
X156709698Y-55036673D01*
X156476309Y-54940000D01*
X156110750Y-54940000D01*
X155952000Y-55098750D01*
X155698000Y-55098750D01*
X155539250Y-54940000D01*
X155173691Y-54940000D01*
X154940302Y-55036673D01*
X154869540Y-55107435D01*
X154701152Y-54994922D01*
X154362500Y-54927560D01*
X153787500Y-54927560D01*
X153448848Y-54994922D01*
X153161753Y-55186753D01*
X153092765Y-55290000D01*
X152085022Y-55290000D01*
X152054147Y-55215460D01*
X151664540Y-54825853D01*
X151631096Y-54812000D01*
X156659314Y-54812000D01*
X156978505Y-54865128D01*
X157210919Y-54990533D01*
X157390184Y-55184459D01*
X157502741Y-55439059D01*
X157532001Y-55670680D01*
X157532000Y-112847696D01*
X157116256Y-112765000D01*
X156823744Y-112765000D01*
X156390582Y-112851161D01*
X155899375Y-113179375D01*
X155700000Y-113477761D01*
X155500625Y-113179375D01*
X155009418Y-112851161D01*
X154576256Y-112765000D01*
X154283744Y-112765000D01*
X153850582Y-112851161D01*
X153359375Y-113179375D01*
X153160000Y-113477761D01*
X152960625Y-113179375D01*
X152469418Y-112851161D01*
X152036256Y-112765000D01*
X151743744Y-112765000D01*
X151310582Y-112851161D01*
X150819375Y-113179375D01*
X150620000Y-113477761D01*
X150420625Y-113179375D01*
X149929418Y-112851161D01*
X149496256Y-112765000D01*
X149203744Y-112765000D01*
X148770582Y-112851161D01*
X148279375Y-113179375D01*
X148080000Y-113477761D01*
X147880625Y-113179375D01*
X147389418Y-112851161D01*
X146956256Y-112765000D01*
X146663744Y-112765000D01*
X146230582Y-112851161D01*
X145739375Y-113179375D01*
X145526157Y-113498478D01*
X145465183Y-113368642D01*
X145036924Y-112978355D01*
X144626890Y-112808524D01*
X144397000Y-112929845D01*
X144397000Y-114123000D01*
X144417000Y-114123000D01*
X144417000Y-114377000D01*
X144397000Y-114377000D01*
X144397000Y-115570155D01*
X144626890Y-115691476D01*
X145036924Y-115521645D01*
X145465183Y-115131358D01*
X145526157Y-115001522D01*
X145739375Y-115320625D01*
X146230582Y-115648839D01*
X146663744Y-115735000D01*
X146956256Y-115735000D01*
X147389418Y-115648839D01*
X147880625Y-115320625D01*
X148080000Y-115022239D01*
X148279375Y-115320625D01*
X148770582Y-115648839D01*
X149203744Y-115735000D01*
X149496256Y-115735000D01*
X149929418Y-115648839D01*
X150420625Y-115320625D01*
X150620000Y-115022239D01*
X150819375Y-115320625D01*
X151310582Y-115648839D01*
X151743744Y-115735000D01*
X152036256Y-115735000D01*
X152469418Y-115648839D01*
X152960625Y-115320625D01*
X153160000Y-115022239D01*
X153359375Y-115320625D01*
X153850582Y-115648839D01*
X154283744Y-115735000D01*
X154576256Y-115735000D01*
X155009418Y-115648839D01*
X155500625Y-115320625D01*
X155700000Y-115022239D01*
X155899375Y-115320625D01*
X156390582Y-115648839D01*
X156823744Y-115735000D01*
X157116256Y-115735000D01*
X157532000Y-115652304D01*
X157532000Y-116273315D01*
X157478872Y-116592505D01*
X157353468Y-116824918D01*
X157159541Y-117004183D01*
X156904940Y-117116742D01*
X156673335Y-117146000D01*
X143129000Y-117146000D01*
X143129000Y-115421333D01*
X143178157Y-115347765D01*
X143198739Y-115244292D01*
X143503076Y-115521645D01*
X143913110Y-115691476D01*
X144143000Y-115570155D01*
X144143000Y-114377000D01*
X144123000Y-114377000D01*
X144123000Y-114123000D01*
X144143000Y-114123000D01*
X144143000Y-112929845D01*
X143913110Y-112808524D01*
X143503076Y-112978355D01*
X143198739Y-113255708D01*
X143178157Y-113152235D01*
X143129000Y-113078667D01*
X143129000Y-112522000D01*
X143080664Y-112278996D01*
X142943013Y-112072987D01*
X142737004Y-111935336D01*
X142494000Y-111887000D01*
X141351000Y-111887000D01*
X141351000Y-111119126D01*
X143170000Y-111119126D01*
X143170000Y-111530874D01*
X143327569Y-111911280D01*
X143618720Y-112202431D01*
X143999126Y-112360000D01*
X144410874Y-112360000D01*
X144791280Y-112202431D01*
X144973711Y-112020000D01*
X151116289Y-112020000D01*
X151233720Y-112137431D01*
X151614126Y-112295000D01*
X152025874Y-112295000D01*
X152406280Y-112137431D01*
X152697431Y-111846280D01*
X152855000Y-111465874D01*
X152855000Y-111054126D01*
X152836722Y-111010000D01*
X152872765Y-111010000D01*
X152941753Y-111113247D01*
X153228848Y-111305078D01*
X153567500Y-111372440D01*
X154142500Y-111372440D01*
X154481152Y-111305078D01*
X154730000Y-111138803D01*
X154978848Y-111305078D01*
X155317500Y-111372440D01*
X155892500Y-111372440D01*
X156231152Y-111305078D01*
X156518247Y-111113247D01*
X156710078Y-110826152D01*
X156777440Y-110487500D01*
X156777440Y-110012500D01*
X156710078Y-109673848D01*
X156518247Y-109386753D01*
X156231152Y-109194922D01*
X155892500Y-109127560D01*
X155557362Y-109127560D01*
X155304801Y-108875000D01*
X155557361Y-108622440D01*
X155892500Y-108622440D01*
X156231152Y-108555078D01*
X156518247Y-108363247D01*
X156710078Y-108076152D01*
X156777440Y-107737500D01*
X156777440Y-107262500D01*
X156710078Y-106923848D01*
X156518247Y-106636753D01*
X156231152Y-106444922D01*
X155892500Y-106377560D01*
X155317500Y-106377560D01*
X154978848Y-106444922D01*
X154730000Y-106611197D01*
X154481152Y-106444922D01*
X154142500Y-106377560D01*
X153567500Y-106377560D01*
X153228848Y-106444922D01*
X152941753Y-106636753D01*
X152939583Y-106640000D01*
X150633711Y-106640000D01*
X150516280Y-106522569D01*
X150135874Y-106365000D01*
X149724126Y-106365000D01*
X149343720Y-106522569D01*
X149052569Y-106813720D01*
X148895000Y-107194126D01*
X148895000Y-107605874D01*
X148971267Y-107789999D01*
X147126159Y-107789999D01*
X147032431Y-107563720D01*
X146741280Y-107272569D01*
X146360874Y-107115000D01*
X145949126Y-107115000D01*
X145568720Y-107272569D01*
X145277569Y-107563720D01*
X145120000Y-107944126D01*
X145120000Y-108090658D01*
X144757176Y-108240944D01*
X144466025Y-108532095D01*
X144308456Y-108912501D01*
X144308456Y-109280667D01*
X144084594Y-109373393D01*
X143793443Y-109664544D01*
X143635874Y-110044950D01*
X143635874Y-110440464D01*
X143618720Y-110447569D01*
X143327569Y-110738720D01*
X143170000Y-111119126D01*
X141351000Y-111119126D01*
X141351000Y-102161835D01*
X141530000Y-102197440D01*
X143030000Y-102197440D01*
X143277765Y-102148157D01*
X143487809Y-102007809D01*
X143628157Y-101797765D01*
X143677440Y-101550000D01*
X143677440Y-101284596D01*
X143799126Y-101335000D01*
X144210874Y-101335000D01*
X144591280Y-101177431D01*
X144880000Y-100888711D01*
X145118720Y-101127431D01*
X145499126Y-101285000D01*
X145910874Y-101285000D01*
X146291280Y-101127431D01*
X146408711Y-101010000D01*
X146795000Y-101010000D01*
X146795000Y-101053750D01*
X146817647Y-101076397D01*
X146831843Y-101147765D01*
X146972191Y-101357809D01*
X147091456Y-101437500D01*
X146953750Y-101437500D01*
X146795000Y-101596250D01*
X146795000Y-101676310D01*
X146891673Y-101909699D01*
X147070302Y-102088327D01*
X147303691Y-102185000D01*
X147894250Y-102185000D01*
X148053000Y-102026250D01*
X148053000Y-101547440D01*
X148307000Y-101547440D01*
X148307000Y-102026250D01*
X148465750Y-102185000D01*
X149056309Y-102185000D01*
X149289698Y-102088327D01*
X149468327Y-101909699D01*
X149565000Y-101676310D01*
X149565000Y-101596250D01*
X149420752Y-101452002D01*
X149565000Y-101452002D01*
X149565000Y-101419931D01*
X149595529Y-101440330D01*
X150114672Y-101959475D01*
X150157071Y-102022929D01*
X150220524Y-102065327D01*
X150220526Y-102065329D01*
X150344488Y-102148157D01*
X150408463Y-102190904D01*
X150630148Y-102235000D01*
X150630152Y-102235000D01*
X150704999Y-102249888D01*
X150779846Y-102235000D01*
X154440199Y-102235000D01*
X154845001Y-102639803D01*
X154845000Y-103784356D01*
X154730000Y-103861197D01*
X154481152Y-103694922D01*
X154142500Y-103627560D01*
X153567500Y-103627560D01*
X153228848Y-103694922D01*
X152941753Y-103886753D01*
X152749922Y-104173848D01*
X152682560Y-104512500D01*
X152682560Y-104840000D01*
X152256285Y-104840000D01*
X152300000Y-104620230D01*
X152300000Y-103659769D01*
X152232115Y-103318489D01*
X151973523Y-102931477D01*
X151586510Y-102672885D01*
X151130000Y-102582079D01*
X150673489Y-102672885D01*
X150495000Y-102792147D01*
X150316510Y-102672885D01*
X149860000Y-102582079D01*
X149403489Y-102672885D01*
X149211849Y-102800934D01*
X148897383Y-102646100D01*
X148717000Y-102771756D01*
X148717000Y-103524032D01*
X148690000Y-103659770D01*
X148690000Y-104287000D01*
X148502440Y-104287000D01*
X148502440Y-103240000D01*
X148463000Y-103041720D01*
X148463000Y-102771756D01*
X148282617Y-102646100D01*
X148182736Y-102695278D01*
X148102765Y-102641843D01*
X147855000Y-102592560D01*
X146785000Y-102592560D01*
X146537235Y-102641843D01*
X146327191Y-102782191D01*
X146186843Y-102992235D01*
X146137560Y-103240000D01*
X146137560Y-105040000D01*
X146186843Y-105287765D01*
X146327191Y-105497809D01*
X146537235Y-105638157D01*
X146596832Y-105650011D01*
X146604097Y-105686537D01*
X146728314Y-105872440D01*
X146772072Y-105937929D01*
X146835528Y-105980329D01*
X146939669Y-106084470D01*
X146982071Y-106147929D01*
X147233463Y-106315904D01*
X147455148Y-106360000D01*
X147455152Y-106360000D01*
X147530000Y-106374888D01*
X147604848Y-106360000D01*
X152930153Y-106360000D01*
X153005000Y-106374888D01*
X153079847Y-106360000D01*
X153079852Y-106360000D01*
X153301537Y-106315904D01*
X153552929Y-106147929D01*
X153595331Y-106084470D01*
X153807361Y-105872440D01*
X154142500Y-105872440D01*
X154481152Y-105805078D01*
X154730000Y-105638803D01*
X154978848Y-105805078D01*
X155317500Y-105872440D01*
X155892500Y-105872440D01*
X156231152Y-105805078D01*
X156518247Y-105613247D01*
X156710078Y-105326152D01*
X156777440Y-104987500D01*
X156777440Y-104512500D01*
X156710078Y-104173848D01*
X156518247Y-103886753D01*
X156365000Y-103784356D01*
X156365000Y-102399848D01*
X156379888Y-102325000D01*
X156365000Y-102250152D01*
X156365000Y-102250148D01*
X156320904Y-102028463D01*
X156152929Y-101777071D01*
X156089473Y-101734671D01*
X155454830Y-101100029D01*
X155567500Y-101122440D01*
X156142500Y-101122440D01*
X156481152Y-101055078D01*
X156768247Y-100863247D01*
X156960078Y-100576152D01*
X157027440Y-100237500D01*
X157027440Y-99762500D01*
X156960078Y-99423848D01*
X156768247Y-99136753D01*
X156481152Y-98944922D01*
X156142500Y-98877560D01*
X155807362Y-98877560D01*
X155554801Y-98625000D01*
X155807362Y-98372440D01*
X156142500Y-98372440D01*
X156481152Y-98305078D01*
X156768247Y-98113247D01*
X156960078Y-97826152D01*
X157027440Y-97487500D01*
X157027440Y-97012500D01*
X156960078Y-96673848D01*
X156768247Y-96386753D01*
X156481152Y-96194922D01*
X156142500Y-96127560D01*
X155567500Y-96127560D01*
X155236378Y-96193424D01*
X155807363Y-95622440D01*
X156142500Y-95622440D01*
X156481152Y-95555078D01*
X156768247Y-95363247D01*
X156960078Y-95076152D01*
X157027440Y-94737500D01*
X157027440Y-94262500D01*
X156960078Y-93923848D01*
X156768247Y-93636753D01*
X156481152Y-93444922D01*
X156142500Y-93377560D01*
X155567500Y-93377560D01*
X155228848Y-93444922D01*
X154980000Y-93611197D01*
X154731152Y-93444922D01*
X154392500Y-93377560D01*
X153817500Y-93377560D01*
X153478848Y-93444922D01*
X153191753Y-93636753D01*
X152999922Y-93923848D01*
X152932560Y-94262500D01*
X152932560Y-94597639D01*
X152890199Y-94640000D01*
X152264242Y-94640000D01*
X152300000Y-94460230D01*
X152300000Y-93499769D01*
X152232115Y-93158489D01*
X151973523Y-92771477D01*
X151586510Y-92512885D01*
X151130000Y-92422079D01*
X150673489Y-92512885D01*
X150495000Y-92632147D01*
X150316510Y-92512885D01*
X149860000Y-92422079D01*
X149403489Y-92512885D01*
X149211849Y-92640934D01*
X148897383Y-92486100D01*
X148717000Y-92611756D01*
X148717000Y-93364032D01*
X148690000Y-93499770D01*
X148690000Y-94127000D01*
X148502440Y-94127000D01*
X148502440Y-93080000D01*
X148463000Y-92881720D01*
X148463000Y-92611756D01*
X148282617Y-92486100D01*
X148182736Y-92535278D01*
X148102765Y-92481843D01*
X147855000Y-92432560D01*
X146785000Y-92432560D01*
X146537235Y-92481843D01*
X146327191Y-92622191D01*
X146186843Y-92832235D01*
X146137560Y-93080000D01*
X146137560Y-94880000D01*
X146186843Y-95127765D01*
X146327191Y-95337809D01*
X146537235Y-95478157D01*
X146654124Y-95501407D01*
X146704681Y-95577071D01*
X146772072Y-95677929D01*
X146835528Y-95720329D01*
X146999669Y-95884470D01*
X147042071Y-95947929D01*
X147115082Y-95996714D01*
X146972191Y-96092191D01*
X146831843Y-96302235D01*
X146782560Y-96550000D01*
X146782560Y-97000000D01*
X146802451Y-97100000D01*
X146782560Y-97200000D01*
X146782560Y-97650000D01*
X146802451Y-97749999D01*
X146782560Y-97850000D01*
X146782560Y-98300000D01*
X146795489Y-98365000D01*
X146424126Y-98365000D01*
X146043720Y-98522569D01*
X145752569Y-98813720D01*
X145717572Y-98898211D01*
X145707431Y-98873730D01*
X145416280Y-98582579D01*
X145035874Y-98425010D01*
X144729801Y-98425010D01*
X144769811Y-98385000D01*
X144935884Y-98385000D01*
X145316290Y-98227431D01*
X145607441Y-97936280D01*
X145765010Y-97555874D01*
X145765010Y-97144126D01*
X145607441Y-96763720D01*
X145316290Y-96472569D01*
X145273616Y-96454893D01*
X145295904Y-96421537D01*
X145340000Y-96199852D01*
X145340000Y-96199848D01*
X145354888Y-96125000D01*
X145340000Y-96050152D01*
X145340000Y-95778711D01*
X145457431Y-95661280D01*
X145615000Y-95280874D01*
X145615000Y-94869126D01*
X145457431Y-94488720D01*
X145166280Y-94197569D01*
X144785874Y-94040000D01*
X144374126Y-94040000D01*
X143993720Y-94197569D01*
X143767000Y-94424289D01*
X143767000Y-94140690D01*
X143670327Y-93907301D01*
X143491698Y-93728673D01*
X143258309Y-93632000D01*
X142892750Y-93632000D01*
X142734000Y-93790750D01*
X142734000Y-94615000D01*
X142754000Y-94615000D01*
X142754000Y-94869000D01*
X142734000Y-94869000D01*
X142734000Y-94889000D01*
X142480000Y-94889000D01*
X142480000Y-94869000D01*
X142460000Y-94869000D01*
X142460000Y-94615000D01*
X142480000Y-94615000D01*
X142480000Y-93790750D01*
X142321250Y-93632000D01*
X141955691Y-93632000D01*
X141722302Y-93728673D01*
X141651540Y-93799435D01*
X141483152Y-93686922D01*
X141351000Y-93660635D01*
X141351000Y-81831726D01*
X141430000Y-81847440D01*
X142930000Y-81847440D01*
X143177765Y-81798157D01*
X143272285Y-81735000D01*
X144054833Y-81735000D01*
X144086583Y-81741315D01*
X144161471Y-81772335D01*
X144573219Y-81772335D01*
X144953625Y-81614766D01*
X145244776Y-81323615D01*
X145399597Y-80949844D01*
X145424126Y-80960004D01*
X145445000Y-80960004D01*
X145445000Y-81280874D01*
X145602569Y-81661280D01*
X145893720Y-81952431D01*
X146274126Y-82110000D01*
X146685874Y-82110000D01*
X147066280Y-81952431D01*
X147189563Y-81829148D01*
X147203691Y-81835000D01*
X147794250Y-81835000D01*
X147953000Y-81676250D01*
X147953000Y-81197440D01*
X148207000Y-81197440D01*
X148207000Y-81676250D01*
X148365750Y-81835000D01*
X148956309Y-81835000D01*
X149189698Y-81738327D01*
X149368327Y-81559699D01*
X149465000Y-81326310D01*
X149465000Y-81246250D01*
X149306250Y-81087500D01*
X149168544Y-81087500D01*
X149287809Y-81007809D01*
X149428157Y-80797765D01*
X149442353Y-80726397D01*
X149465000Y-80703750D01*
X149465000Y-80623690D01*
X149463502Y-80620073D01*
X149477440Y-80550000D01*
X149477440Y-80522241D01*
X150189670Y-81234472D01*
X150232071Y-81297929D01*
X150483463Y-81465904D01*
X150705148Y-81510000D01*
X150705152Y-81510000D01*
X150780000Y-81524888D01*
X150854848Y-81510000D01*
X152040199Y-81510000D01*
X153684261Y-83154063D01*
X153478848Y-83194922D01*
X153191753Y-83386753D01*
X152999922Y-83673848D01*
X152932560Y-84012500D01*
X152932560Y-84347638D01*
X152640199Y-84640000D01*
X152232416Y-84640000D01*
X152300000Y-84300230D01*
X152300000Y-83339769D01*
X152232115Y-82998489D01*
X151973523Y-82611477D01*
X151586510Y-82352885D01*
X151130000Y-82262079D01*
X150673489Y-82352885D01*
X150495000Y-82472147D01*
X150316510Y-82352885D01*
X149860000Y-82262079D01*
X149403489Y-82352885D01*
X149211849Y-82480934D01*
X148897383Y-82326100D01*
X148717000Y-82451756D01*
X148717000Y-83204032D01*
X148690000Y-83339770D01*
X148690000Y-83967000D01*
X148502440Y-83967000D01*
X148502440Y-82920000D01*
X148463000Y-82721720D01*
X148463000Y-82451756D01*
X148282617Y-82326100D01*
X148182736Y-82375278D01*
X148102765Y-82321843D01*
X147855000Y-82272560D01*
X146785000Y-82272560D01*
X146537235Y-82321843D01*
X146327191Y-82462191D01*
X146186843Y-82672235D01*
X146137560Y-82920000D01*
X146137560Y-84720000D01*
X146186843Y-84967765D01*
X146327191Y-85177809D01*
X146537235Y-85318157D01*
X146785000Y-85367440D01*
X146816238Y-85367440D01*
X146835528Y-85380329D01*
X147339671Y-85884473D01*
X147382071Y-85947929D01*
X147633463Y-86115904D01*
X147855148Y-86160000D01*
X147855152Y-86160000D01*
X147929999Y-86174888D01*
X148004846Y-86160000D01*
X149306289Y-86160000D01*
X149052569Y-86413720D01*
X148895000Y-86794126D01*
X148895000Y-87190000D01*
X146683721Y-87190000D01*
X146566290Y-87072569D01*
X146185884Y-86915000D01*
X145774136Y-86915000D01*
X145393730Y-87072569D01*
X145102579Y-87363720D01*
X144945010Y-87744126D01*
X144945010Y-88155874D01*
X145102579Y-88536280D01*
X145393730Y-88827431D01*
X145774136Y-88985000D01*
X146185884Y-88985000D01*
X146566290Y-88827431D01*
X146683721Y-88710000D01*
X153456282Y-88710000D01*
X153191753Y-88886753D01*
X153089356Y-89040000D01*
X151833711Y-89040000D01*
X151716280Y-88922569D01*
X151335874Y-88765000D01*
X150924126Y-88765000D01*
X150543720Y-88922569D01*
X150252569Y-89213720D01*
X150095000Y-89594126D01*
X150095000Y-90005874D01*
X150191978Y-90240000D01*
X145258711Y-90240000D01*
X145141280Y-90122569D01*
X144760874Y-89965000D01*
X144349126Y-89965000D01*
X143968720Y-90122569D01*
X143677569Y-90413720D01*
X143520000Y-90794126D01*
X143520000Y-91205874D01*
X143677569Y-91586280D01*
X143968720Y-91877431D01*
X144349126Y-92035000D01*
X144760874Y-92035000D01*
X145141280Y-91877431D01*
X145258711Y-91760000D01*
X154530153Y-91760000D01*
X154605000Y-91774888D01*
X154679847Y-91760000D01*
X154679852Y-91760000D01*
X154901537Y-91715904D01*
X155152929Y-91547929D01*
X155195331Y-91484470D01*
X155807362Y-90872440D01*
X156142500Y-90872440D01*
X156481152Y-90805078D01*
X156768247Y-90613247D01*
X156960078Y-90326152D01*
X157027440Y-89987500D01*
X157027440Y-89512500D01*
X156960078Y-89173848D01*
X156768247Y-88886753D01*
X156481152Y-88694922D01*
X156142500Y-88627560D01*
X155567500Y-88627560D01*
X155228848Y-88694922D01*
X154980000Y-88861197D01*
X154753718Y-88710000D01*
X154830153Y-88710000D01*
X154905000Y-88724888D01*
X154979847Y-88710000D01*
X154979852Y-88710000D01*
X155201537Y-88665904D01*
X155452929Y-88497929D01*
X155495331Y-88434470D01*
X155807361Y-88122440D01*
X156142500Y-88122440D01*
X156481152Y-88055078D01*
X156768247Y-87863247D01*
X156960078Y-87576152D01*
X157027440Y-87237500D01*
X157027440Y-86762500D01*
X156960078Y-86423848D01*
X156768247Y-86136753D01*
X156481152Y-85944922D01*
X156142500Y-85877560D01*
X155567500Y-85877560D01*
X155228848Y-85944922D01*
X154980000Y-86111197D01*
X154731152Y-85944922D01*
X154392500Y-85877560D01*
X153817500Y-85877560D01*
X153508937Y-85938937D01*
X153545331Y-85884470D01*
X154057362Y-85372440D01*
X154392500Y-85372440D01*
X154731152Y-85305078D01*
X154980000Y-85138803D01*
X155228848Y-85305078D01*
X155567500Y-85372440D01*
X156142500Y-85372440D01*
X156481152Y-85305078D01*
X156768247Y-85113247D01*
X156960078Y-84826152D01*
X157027440Y-84487500D01*
X157027440Y-84012500D01*
X156960078Y-83673848D01*
X156768247Y-83386753D01*
X156481152Y-83194922D01*
X156142500Y-83127560D01*
X155807363Y-83127560D01*
X152945331Y-80265530D01*
X152924931Y-80235000D01*
X153106061Y-80235000D01*
X153191753Y-80363247D01*
X153478848Y-80555078D01*
X153817500Y-80622440D01*
X154392500Y-80622440D01*
X154731152Y-80555078D01*
X154980000Y-80388803D01*
X155228848Y-80555078D01*
X155567500Y-80622440D01*
X156142500Y-80622440D01*
X156481152Y-80555078D01*
X156768247Y-80363247D01*
X156960078Y-80076152D01*
X157027440Y-79737500D01*
X157027440Y-79262500D01*
X156960078Y-78923848D01*
X156768247Y-78636753D01*
X156481152Y-78444922D01*
X156142500Y-78377560D01*
X155807361Y-78377560D01*
X155645321Y-78215520D01*
X155602919Y-78152061D01*
X155557853Y-78121949D01*
X155807362Y-77872440D01*
X156142500Y-77872440D01*
X156481152Y-77805078D01*
X156768247Y-77613247D01*
X156960078Y-77326152D01*
X157027440Y-76987500D01*
X157027440Y-76512500D01*
X156960078Y-76173848D01*
X156768247Y-75886753D01*
X156481152Y-75694922D01*
X156142500Y-75627560D01*
X155567500Y-75627560D01*
X155236377Y-75693424D01*
X155807362Y-75122440D01*
X156142500Y-75122440D01*
X156481152Y-75055078D01*
X156768247Y-74863247D01*
X156960078Y-74576152D01*
X157027440Y-74237500D01*
X157027440Y-73762500D01*
X156960078Y-73423848D01*
X156768247Y-73136753D01*
X156481152Y-72944922D01*
X156142500Y-72877560D01*
X155567500Y-72877560D01*
X155228848Y-72944922D01*
X154980000Y-73111197D01*
X154731152Y-72944922D01*
X154392500Y-72877560D01*
X153817500Y-72877560D01*
X153478848Y-72944922D01*
X153191753Y-73136753D01*
X152999922Y-73423848D01*
X152932560Y-73762500D01*
X152932560Y-74097638D01*
X152590199Y-74440000D01*
X152240372Y-74440000D01*
X152300000Y-74140230D01*
X152300000Y-73179769D01*
X152232115Y-72838489D01*
X151973523Y-72451477D01*
X151586510Y-72192885D01*
X151130000Y-72102079D01*
X150673489Y-72192885D01*
X150495000Y-72312147D01*
X150316510Y-72192885D01*
X149860000Y-72102079D01*
X149403489Y-72192885D01*
X149211849Y-72320934D01*
X148897383Y-72166100D01*
X148717000Y-72291756D01*
X148717000Y-73044032D01*
X148690000Y-73179770D01*
X148690000Y-73807000D01*
X148502440Y-73807000D01*
X148502440Y-72760000D01*
X148463000Y-72561720D01*
X148463000Y-72291756D01*
X148282617Y-72166100D01*
X148182736Y-72215278D01*
X148102765Y-72161843D01*
X147855000Y-72112560D01*
X146785000Y-72112560D01*
X146537235Y-72161843D01*
X146327191Y-72302191D01*
X146186843Y-72512235D01*
X146137560Y-72760000D01*
X146137560Y-74560000D01*
X146143527Y-74590000D01*
X146124126Y-74590000D01*
X145743720Y-74747569D01*
X145452569Y-75038720D01*
X145295000Y-75419126D01*
X145295000Y-75830874D01*
X145452569Y-76211280D01*
X145666289Y-76425000D01*
X145627569Y-76463720D01*
X145470000Y-76844126D01*
X145470000Y-77255874D01*
X145627569Y-77636280D01*
X145918720Y-77927431D01*
X146299126Y-78085000D01*
X146695489Y-78085000D01*
X146682560Y-78150000D01*
X146682560Y-78600000D01*
X146702451Y-78700000D01*
X146682560Y-78800000D01*
X146682560Y-79250000D01*
X146702451Y-79350000D01*
X146682560Y-79450000D01*
X146682560Y-79676517D01*
X146654982Y-79694944D01*
X146507431Y-79338724D01*
X146216280Y-79047573D01*
X145835874Y-78890004D01*
X145669802Y-78890004D01*
X145360327Y-78580529D01*
X145317925Y-78517071D01*
X145066533Y-78349096D01*
X144943990Y-78324721D01*
X145057431Y-78211280D01*
X145215000Y-77830874D01*
X145215000Y-77419126D01*
X145057431Y-77038720D01*
X144766280Y-76747569D01*
X144520890Y-76645925D01*
X144540000Y-76549852D01*
X144540000Y-76549848D01*
X144554888Y-76475001D01*
X144540000Y-76400154D01*
X144540000Y-76303711D01*
X144657431Y-76186280D01*
X144815000Y-75805874D01*
X144815000Y-75394126D01*
X144657431Y-75013720D01*
X144366280Y-74722569D01*
X143985874Y-74565000D01*
X143590026Y-74565000D01*
X143670327Y-74484699D01*
X143767000Y-74251310D01*
X143767000Y-73935750D01*
X143608250Y-73777000D01*
X142734000Y-73777000D01*
X142734000Y-73797000D01*
X142480000Y-73797000D01*
X142480000Y-73777000D01*
X142460000Y-73777000D01*
X142460000Y-73523000D01*
X142480000Y-73523000D01*
X142480000Y-72698750D01*
X142734000Y-72698750D01*
X142734000Y-73523000D01*
X143608250Y-73523000D01*
X143767000Y-73364250D01*
X143767000Y-73048690D01*
X143670327Y-72815301D01*
X143491698Y-72636673D01*
X143258309Y-72540000D01*
X142892750Y-72540000D01*
X142734000Y-72698750D01*
X142480000Y-72698750D01*
X142321250Y-72540000D01*
X141955691Y-72540000D01*
X141722302Y-72636673D01*
X141651540Y-72707435D01*
X141483152Y-72594922D01*
X141351000Y-72568635D01*
X141351000Y-65444126D01*
X142745000Y-65444126D01*
X142745000Y-65855874D01*
X142902569Y-66236280D01*
X143193720Y-66527431D01*
X143574126Y-66685000D01*
X143985874Y-66685000D01*
X144366280Y-66527431D01*
X144483711Y-66410000D01*
X148895000Y-66410000D01*
X148895000Y-66705874D01*
X149052569Y-67086280D01*
X149206289Y-67240000D01*
X146583709Y-67240000D01*
X146466278Y-67122569D01*
X146085872Y-66965000D01*
X145674124Y-66965000D01*
X145293718Y-67122569D01*
X145002567Y-67413720D01*
X144844998Y-67794126D01*
X144844998Y-68205874D01*
X145002567Y-68586280D01*
X145293718Y-68877431D01*
X145674124Y-69035000D01*
X146085872Y-69035000D01*
X146466278Y-68877431D01*
X146583709Y-68760000D01*
X150233399Y-68760000D01*
X150095000Y-69094126D01*
X150095000Y-69505874D01*
X150191978Y-69740000D01*
X145658711Y-69740000D01*
X145541280Y-69622569D01*
X145160874Y-69465000D01*
X144749126Y-69465000D01*
X144368720Y-69622569D01*
X144077569Y-69913720D01*
X143920000Y-70294126D01*
X143920000Y-70705874D01*
X144077569Y-71086280D01*
X144368720Y-71377431D01*
X144749126Y-71535000D01*
X145160874Y-71535000D01*
X145541280Y-71377431D01*
X145658711Y-71260000D01*
X154530153Y-71260000D01*
X154605000Y-71274888D01*
X154679847Y-71260000D01*
X154679852Y-71260000D01*
X154901537Y-71215904D01*
X155152929Y-71047929D01*
X155195331Y-70984470D01*
X155807362Y-70372440D01*
X156142500Y-70372440D01*
X156481152Y-70305078D01*
X156768247Y-70113247D01*
X156960078Y-69826152D01*
X157027440Y-69487500D01*
X157027440Y-69012500D01*
X156960078Y-68673848D01*
X156768247Y-68386753D01*
X156481152Y-68194922D01*
X156142500Y-68127560D01*
X155567500Y-68127560D01*
X155236377Y-68193424D01*
X155807362Y-67622440D01*
X156142500Y-67622440D01*
X156481152Y-67555078D01*
X156768247Y-67363247D01*
X156960078Y-67076152D01*
X157027440Y-66737500D01*
X157027440Y-66262500D01*
X156960078Y-65923848D01*
X156768247Y-65636753D01*
X156481152Y-65444922D01*
X156142500Y-65377560D01*
X155567500Y-65377560D01*
X155236377Y-65443424D01*
X155807362Y-64872440D01*
X156142500Y-64872440D01*
X156481152Y-64805078D01*
X156768247Y-64613247D01*
X156960078Y-64326152D01*
X157027440Y-63987500D01*
X157027440Y-63512500D01*
X156960078Y-63173848D01*
X156768247Y-62886753D01*
X156481152Y-62694922D01*
X156142500Y-62627560D01*
X155567500Y-62627560D01*
X155228848Y-62694922D01*
X154980000Y-62861197D01*
X154731152Y-62694922D01*
X154392500Y-62627560D01*
X153817500Y-62627560D01*
X153478848Y-62694922D01*
X153191753Y-62886753D01*
X152999922Y-63173848D01*
X152932560Y-63512500D01*
X152932560Y-63847638D01*
X152490210Y-64289989D01*
X152238385Y-64289989D01*
X152300000Y-63980230D01*
X152300000Y-63019769D01*
X152232115Y-62678489D01*
X151973523Y-62291477D01*
X151586510Y-62032885D01*
X151130000Y-61942079D01*
X150673489Y-62032885D01*
X150495000Y-62152147D01*
X150316510Y-62032885D01*
X149860000Y-61942079D01*
X149403489Y-62032885D01*
X149211849Y-62160934D01*
X148897383Y-62006100D01*
X148717000Y-62131756D01*
X148717000Y-62884032D01*
X148690000Y-63019770D01*
X148690000Y-63647000D01*
X148502440Y-63647000D01*
X148502440Y-62600000D01*
X148463000Y-62401720D01*
X148463000Y-62131756D01*
X148282617Y-62006100D01*
X148182736Y-62055278D01*
X148102765Y-62001843D01*
X147855000Y-61952560D01*
X146785000Y-61952560D01*
X146537235Y-62001843D01*
X146327191Y-62142191D01*
X146186843Y-62352235D01*
X146137560Y-62600000D01*
X146137560Y-64400000D01*
X146186843Y-64647765D01*
X146327191Y-64857809D01*
X146375368Y-64890000D01*
X144483711Y-64890000D01*
X144366280Y-64772569D01*
X143985874Y-64615000D01*
X143574126Y-64615000D01*
X143193720Y-64772569D01*
X142902569Y-65063720D01*
X142745000Y-65444126D01*
X141351000Y-65444126D01*
X141351000Y-57509999D01*
X146655149Y-57509998D01*
X146730001Y-57524887D01*
X147026538Y-57465902D01*
X147169387Y-57370453D01*
X147204506Y-57385000D01*
X147755494Y-57385000D01*
X148264540Y-57174147D01*
X148654147Y-56784540D01*
X148865000Y-56275494D01*
X148865000Y-55724506D01*
X148654147Y-55215460D01*
X148264540Y-54825853D01*
X148231096Y-54812000D01*
X150128904Y-54812000D01*
X150095460Y-54825853D01*
X150095460Y-54825853D01*
G37*
X150095460Y-54825853D02*
X149705853Y-55215460D01*
X149495000Y-55724506D01*
X149495000Y-56275494D01*
X149705853Y-56784540D01*
X150095460Y-57174147D01*
X150604506Y-57385000D01*
X151155494Y-57385000D01*
X151664540Y-57174147D01*
X152028687Y-56810000D01*
X153092765Y-56810000D01*
X153161753Y-56913247D01*
X153315001Y-57015644D01*
X153315001Y-57021292D01*
X153272573Y-57063720D01*
X153115004Y-57444126D01*
X153115004Y-57855874D01*
X153272573Y-58236280D01*
X153563724Y-58527431D01*
X153944130Y-58685000D01*
X154355878Y-58685000D01*
X154736284Y-58527431D01*
X155027435Y-58236280D01*
X155185004Y-57855874D01*
X155185004Y-57444126D01*
X155045284Y-57106812D01*
X155173691Y-57160000D01*
X155539250Y-57160000D01*
X155698000Y-57001250D01*
X155698000Y-56177000D01*
X155952000Y-56177000D01*
X155952000Y-57001250D01*
X156110750Y-57160000D01*
X156476309Y-57160000D01*
X156709698Y-57063327D01*
X156888327Y-56884699D01*
X156985000Y-56651310D01*
X156985000Y-56335750D01*
X156826250Y-56177000D01*
X155952000Y-56177000D01*
X155698000Y-56177000D01*
X155678000Y-56177000D01*
X155678000Y-55923000D01*
X155698000Y-55923000D01*
X155698000Y-55098750D01*
X155952000Y-55098750D01*
X155952000Y-55923000D01*
X156826250Y-55923000D01*
X156985000Y-55764250D01*
X156985000Y-55448690D01*
X156888327Y-55215301D01*
X156709698Y-55036673D01*
X156476309Y-54940000D01*
X156110750Y-54940000D01*
X155952000Y-55098750D01*
X155698000Y-55098750D01*
X155539250Y-54940000D01*
X155173691Y-54940000D01*
X154940302Y-55036673D01*
X154869540Y-55107435D01*
X154701152Y-54994922D01*
X154362500Y-54927560D01*
X153787500Y-54927560D01*
X153448848Y-54994922D01*
X153161753Y-55186753D01*
X153092765Y-55290000D01*
X152085022Y-55290000D01*
X152054147Y-55215460D01*
X151664540Y-54825853D01*
X151631096Y-54812000D01*
X156659314Y-54812000D01*
X156978505Y-54865128D01*
X157210919Y-54990533D01*
X157390184Y-55184459D01*
X157502741Y-55439059D01*
X157532001Y-55670680D01*
X157532000Y-112847696D01*
X157116256Y-112765000D01*
X156823744Y-112765000D01*
X156390582Y-112851161D01*
X155899375Y-113179375D01*
X155700000Y-113477761D01*
X155500625Y-113179375D01*
X155009418Y-112851161D01*
X154576256Y-112765000D01*
X154283744Y-112765000D01*
X153850582Y-112851161D01*
X153359375Y-113179375D01*
X153160000Y-113477761D01*
X152960625Y-113179375D01*
X152469418Y-112851161D01*
X152036256Y-112765000D01*
X151743744Y-112765000D01*
X151310582Y-112851161D01*
X150819375Y-113179375D01*
X150620000Y-113477761D01*
X150420625Y-113179375D01*
X149929418Y-112851161D01*
X149496256Y-112765000D01*
X149203744Y-112765000D01*
X148770582Y-112851161D01*
X148279375Y-113179375D01*
X148080000Y-113477761D01*
X147880625Y-113179375D01*
X147389418Y-112851161D01*
X146956256Y-112765000D01*
X146663744Y-112765000D01*
X146230582Y-112851161D01*
X145739375Y-113179375D01*
X145526157Y-113498478D01*
X145465183Y-113368642D01*
X145036924Y-112978355D01*
X144626890Y-112808524D01*
X144397000Y-112929845D01*
X144397000Y-114123000D01*
X144417000Y-114123000D01*
X144417000Y-114377000D01*
X144397000Y-114377000D01*
X144397000Y-115570155D01*
X144626890Y-115691476D01*
X145036924Y-115521645D01*
X145465183Y-115131358D01*
X145526157Y-115001522D01*
X145739375Y-115320625D01*
X146230582Y-115648839D01*
X146663744Y-115735000D01*
X146956256Y-115735000D01*
X147389418Y-115648839D01*
X147880625Y-115320625D01*
X148080000Y-115022239D01*
X148279375Y-115320625D01*
X148770582Y-115648839D01*
X149203744Y-115735000D01*
X149496256Y-115735000D01*
X149929418Y-115648839D01*
X150420625Y-115320625D01*
X150620000Y-115022239D01*
X150819375Y-115320625D01*
X151310582Y-115648839D01*
X151743744Y-115735000D01*
X152036256Y-115735000D01*
X152469418Y-115648839D01*
X152960625Y-115320625D01*
X153160000Y-115022239D01*
X153359375Y-115320625D01*
X153850582Y-115648839D01*
X154283744Y-115735000D01*
X154576256Y-115735000D01*
X155009418Y-115648839D01*
X155500625Y-115320625D01*
X155700000Y-115022239D01*
X155899375Y-115320625D01*
X156390582Y-115648839D01*
X156823744Y-115735000D01*
X157116256Y-115735000D01*
X157532000Y-115652304D01*
X157532000Y-116273315D01*
X157478872Y-116592505D01*
X157353468Y-116824918D01*
X157159541Y-117004183D01*
X156904940Y-117116742D01*
X156673335Y-117146000D01*
X143129000Y-117146000D01*
X143129000Y-115421333D01*
X143178157Y-115347765D01*
X143198739Y-115244292D01*
X143503076Y-115521645D01*
X143913110Y-115691476D01*
X144143000Y-115570155D01*
X144143000Y-114377000D01*
X144123000Y-114377000D01*
X144123000Y-114123000D01*
X144143000Y-114123000D01*
X144143000Y-112929845D01*
X143913110Y-112808524D01*
X143503076Y-112978355D01*
X143198739Y-113255708D01*
X143178157Y-113152235D01*
X143129000Y-113078667D01*
X143129000Y-112522000D01*
X143080664Y-112278996D01*
X142943013Y-112072987D01*
X142737004Y-111935336D01*
X142494000Y-111887000D01*
X141351000Y-111887000D01*
X141351000Y-111119126D01*
X143170000Y-111119126D01*
X143170000Y-111530874D01*
X143327569Y-111911280D01*
X143618720Y-112202431D01*
X143999126Y-112360000D01*
X144410874Y-112360000D01*
X144791280Y-112202431D01*
X144973711Y-112020000D01*
X151116289Y-112020000D01*
X151233720Y-112137431D01*
X151614126Y-112295000D01*
X152025874Y-112295000D01*
X152406280Y-112137431D01*
X152697431Y-111846280D01*
X152855000Y-111465874D01*
X152855000Y-111054126D01*
X152836722Y-111010000D01*
X152872765Y-111010000D01*
X152941753Y-111113247D01*
X153228848Y-111305078D01*
X153567500Y-111372440D01*
X154142500Y-111372440D01*
X154481152Y-111305078D01*
X154730000Y-111138803D01*
X154978848Y-111305078D01*
X155317500Y-111372440D01*
X155892500Y-111372440D01*
X156231152Y-111305078D01*
X156518247Y-111113247D01*
X156710078Y-110826152D01*
X156777440Y-110487500D01*
X156777440Y-110012500D01*
X156710078Y-109673848D01*
X156518247Y-109386753D01*
X156231152Y-109194922D01*
X155892500Y-109127560D01*
X155557362Y-109127560D01*
X155304801Y-108875000D01*
X155557361Y-108622440D01*
X155892500Y-108622440D01*
X156231152Y-108555078D01*
X156518247Y-108363247D01*
X156710078Y-108076152D01*
X156777440Y-107737500D01*
X156777440Y-107262500D01*
X156710078Y-106923848D01*
X156518247Y-106636753D01*
X156231152Y-106444922D01*
X155892500Y-106377560D01*
X155317500Y-106377560D01*
X154978848Y-106444922D01*
X154730000Y-106611197D01*
X154481152Y-106444922D01*
X154142500Y-106377560D01*
X153567500Y-106377560D01*
X153228848Y-106444922D01*
X152941753Y-106636753D01*
X152939583Y-106640000D01*
X150633711Y-106640000D01*
X150516280Y-106522569D01*
X150135874Y-106365000D01*
X149724126Y-106365000D01*
X149343720Y-106522569D01*
X149052569Y-106813720D01*
X148895000Y-107194126D01*
X148895000Y-107605874D01*
X148971267Y-107789999D01*
X147126159Y-107789999D01*
X147032431Y-107563720D01*
X146741280Y-107272569D01*
X146360874Y-107115000D01*
X145949126Y-107115000D01*
X145568720Y-107272569D01*
X145277569Y-107563720D01*
X145120000Y-107944126D01*
X145120000Y-108090658D01*
X144757176Y-108240944D01*
X144466025Y-108532095D01*
X144308456Y-108912501D01*
X144308456Y-109280667D01*
X144084594Y-109373393D01*
X143793443Y-109664544D01*
X143635874Y-110044950D01*
X143635874Y-110440464D01*
X143618720Y-110447569D01*
X143327569Y-110738720D01*
X143170000Y-111119126D01*
X141351000Y-111119126D01*
X141351000Y-102161835D01*
X141530000Y-102197440D01*
X143030000Y-102197440D01*
X143277765Y-102148157D01*
X143487809Y-102007809D01*
X143628157Y-101797765D01*
X143677440Y-101550000D01*
X143677440Y-101284596D01*
X143799126Y-101335000D01*
X144210874Y-101335000D01*
X144591280Y-101177431D01*
X144880000Y-100888711D01*
X145118720Y-101127431D01*
X145499126Y-101285000D01*
X145910874Y-101285000D01*
X146291280Y-101127431D01*
X146408711Y-101010000D01*
X146795000Y-101010000D01*
X146795000Y-101053750D01*
X146817647Y-101076397D01*
X146831843Y-101147765D01*
X146972191Y-101357809D01*
X147091456Y-101437500D01*
X146953750Y-101437500D01*
X146795000Y-101596250D01*
X146795000Y-101676310D01*
X146891673Y-101909699D01*
X147070302Y-102088327D01*
X147303691Y-102185000D01*
X147894250Y-102185000D01*
X148053000Y-102026250D01*
X148053000Y-101547440D01*
X148307000Y-101547440D01*
X148307000Y-102026250D01*
X148465750Y-102185000D01*
X149056309Y-102185000D01*
X149289698Y-102088327D01*
X149468327Y-101909699D01*
X149565000Y-101676310D01*
X149565000Y-101596250D01*
X149420752Y-101452002D01*
X149565000Y-101452002D01*
X149565000Y-101419931D01*
X149595529Y-101440330D01*
X150114672Y-101959475D01*
X150157071Y-102022929D01*
X150220524Y-102065327D01*
X150220526Y-102065329D01*
X150344488Y-102148157D01*
X150408463Y-102190904D01*
X150630148Y-102235000D01*
X150630152Y-102235000D01*
X150704999Y-102249888D01*
X150779846Y-102235000D01*
X154440199Y-102235000D01*
X154845001Y-102639803D01*
X154845000Y-103784356D01*
X154730000Y-103861197D01*
X154481152Y-103694922D01*
X154142500Y-103627560D01*
X153567500Y-103627560D01*
X153228848Y-103694922D01*
X152941753Y-103886753D01*
X152749922Y-104173848D01*
X152682560Y-104512500D01*
X152682560Y-104840000D01*
X152256285Y-104840000D01*
X152300000Y-104620230D01*
X152300000Y-103659769D01*
X152232115Y-103318489D01*
X151973523Y-102931477D01*
X151586510Y-102672885D01*
X151130000Y-102582079D01*
X150673489Y-102672885D01*
X150495000Y-102792147D01*
X150316510Y-102672885D01*
X149860000Y-102582079D01*
X149403489Y-102672885D01*
X149211849Y-102800934D01*
X148897383Y-102646100D01*
X148717000Y-102771756D01*
X148717000Y-103524032D01*
X148690000Y-103659770D01*
X148690000Y-104287000D01*
X148502440Y-104287000D01*
X148502440Y-103240000D01*
X148463000Y-103041720D01*
X148463000Y-102771756D01*
X148282617Y-102646100D01*
X148182736Y-102695278D01*
X148102765Y-102641843D01*
X147855000Y-102592560D01*
X146785000Y-102592560D01*
X146537235Y-102641843D01*
X146327191Y-102782191D01*
X146186843Y-102992235D01*
X146137560Y-103240000D01*
X146137560Y-105040000D01*
X146186843Y-105287765D01*
X146327191Y-105497809D01*
X146537235Y-105638157D01*
X146596832Y-105650011D01*
X146604097Y-105686537D01*
X146728314Y-105872440D01*
X146772072Y-105937929D01*
X146835528Y-105980329D01*
X146939669Y-106084470D01*
X146982071Y-106147929D01*
X147233463Y-106315904D01*
X147455148Y-106360000D01*
X147455152Y-106360000D01*
X147530000Y-106374888D01*
X147604848Y-106360000D01*
X152930153Y-106360000D01*
X153005000Y-106374888D01*
X153079847Y-106360000D01*
X153079852Y-106360000D01*
X153301537Y-106315904D01*
X153552929Y-106147929D01*
X153595331Y-106084470D01*
X153807361Y-105872440D01*
X154142500Y-105872440D01*
X154481152Y-105805078D01*
X154730000Y-105638803D01*
X154978848Y-105805078D01*
X155317500Y-105872440D01*
X155892500Y-105872440D01*
X156231152Y-105805078D01*
X156518247Y-105613247D01*
X156710078Y-105326152D01*
X156777440Y-104987500D01*
X156777440Y-104512500D01*
X156710078Y-104173848D01*
X156518247Y-103886753D01*
X156365000Y-103784356D01*
X156365000Y-102399848D01*
X156379888Y-102325000D01*
X156365000Y-102250152D01*
X156365000Y-102250148D01*
X156320904Y-102028463D01*
X156152929Y-101777071D01*
X156089473Y-101734671D01*
X155454830Y-101100029D01*
X155567500Y-101122440D01*
X156142500Y-101122440D01*
X156481152Y-101055078D01*
X156768247Y-100863247D01*
X156960078Y-100576152D01*
X157027440Y-100237500D01*
X157027440Y-99762500D01*
X156960078Y-99423848D01*
X156768247Y-99136753D01*
X156481152Y-98944922D01*
X156142500Y-98877560D01*
X155807362Y-98877560D01*
X155554801Y-98625000D01*
X155807362Y-98372440D01*
X156142500Y-98372440D01*
X156481152Y-98305078D01*
X156768247Y-98113247D01*
X156960078Y-97826152D01*
X157027440Y-97487500D01*
X157027440Y-97012500D01*
X156960078Y-96673848D01*
X156768247Y-96386753D01*
X156481152Y-96194922D01*
X156142500Y-96127560D01*
X155567500Y-96127560D01*
X155236378Y-96193424D01*
X155807363Y-95622440D01*
X156142500Y-95622440D01*
X156481152Y-95555078D01*
X156768247Y-95363247D01*
X156960078Y-95076152D01*
X157027440Y-94737500D01*
X157027440Y-94262500D01*
X156960078Y-93923848D01*
X156768247Y-93636753D01*
X156481152Y-93444922D01*
X156142500Y-93377560D01*
X155567500Y-93377560D01*
X155228848Y-93444922D01*
X154980000Y-93611197D01*
X154731152Y-93444922D01*
X154392500Y-93377560D01*
X153817500Y-93377560D01*
X153478848Y-93444922D01*
X153191753Y-93636753D01*
X152999922Y-93923848D01*
X152932560Y-94262500D01*
X152932560Y-94597639D01*
X152890199Y-94640000D01*
X152264242Y-94640000D01*
X152300000Y-94460230D01*
X152300000Y-93499769D01*
X152232115Y-93158489D01*
X151973523Y-92771477D01*
X151586510Y-92512885D01*
X151130000Y-92422079D01*
X150673489Y-92512885D01*
X150495000Y-92632147D01*
X150316510Y-92512885D01*
X149860000Y-92422079D01*
X149403489Y-92512885D01*
X149211849Y-92640934D01*
X148897383Y-92486100D01*
X148717000Y-92611756D01*
X148717000Y-93364032D01*
X148690000Y-93499770D01*
X148690000Y-94127000D01*
X148502440Y-94127000D01*
X148502440Y-93080000D01*
X148463000Y-92881720D01*
X148463000Y-92611756D01*
X148282617Y-92486100D01*
X148182736Y-92535278D01*
X148102765Y-92481843D01*
X147855000Y-92432560D01*
X146785000Y-92432560D01*
X146537235Y-92481843D01*
X146327191Y-92622191D01*
X146186843Y-92832235D01*
X146137560Y-93080000D01*
X146137560Y-94880000D01*
X146186843Y-95127765D01*
X146327191Y-95337809D01*
X146537235Y-95478157D01*
X146654124Y-95501407D01*
X146704681Y-95577071D01*
X146772072Y-95677929D01*
X146835528Y-95720329D01*
X146999669Y-95884470D01*
X147042071Y-95947929D01*
X147115082Y-95996714D01*
X146972191Y-96092191D01*
X146831843Y-96302235D01*
X146782560Y-96550000D01*
X146782560Y-97000000D01*
X146802451Y-97100000D01*
X146782560Y-97200000D01*
X146782560Y-97650000D01*
X146802451Y-97749999D01*
X146782560Y-97850000D01*
X146782560Y-98300000D01*
X146795489Y-98365000D01*
X146424126Y-98365000D01*
X146043720Y-98522569D01*
X145752569Y-98813720D01*
X145717572Y-98898211D01*
X145707431Y-98873730D01*
X145416280Y-98582579D01*
X145035874Y-98425010D01*
X144729801Y-98425010D01*
X144769811Y-98385000D01*
X144935884Y-98385000D01*
X145316290Y-98227431D01*
X145607441Y-97936280D01*
X145765010Y-97555874D01*
X145765010Y-97144126D01*
X145607441Y-96763720D01*
X145316290Y-96472569D01*
X145273616Y-96454893D01*
X145295904Y-96421537D01*
X145340000Y-96199852D01*
X145340000Y-96199848D01*
X145354888Y-96125000D01*
X145340000Y-96050152D01*
X145340000Y-95778711D01*
X145457431Y-95661280D01*
X145615000Y-95280874D01*
X145615000Y-94869126D01*
X145457431Y-94488720D01*
X145166280Y-94197569D01*
X144785874Y-94040000D01*
X144374126Y-94040000D01*
X143993720Y-94197569D01*
X143767000Y-94424289D01*
X143767000Y-94140690D01*
X143670327Y-93907301D01*
X143491698Y-93728673D01*
X143258309Y-93632000D01*
X142892750Y-93632000D01*
X142734000Y-93790750D01*
X142734000Y-94615000D01*
X142754000Y-94615000D01*
X142754000Y-94869000D01*
X142734000Y-94869000D01*
X142734000Y-94889000D01*
X142480000Y-94889000D01*
X142480000Y-94869000D01*
X142460000Y-94869000D01*
X142460000Y-94615000D01*
X142480000Y-94615000D01*
X142480000Y-93790750D01*
X142321250Y-93632000D01*
X141955691Y-93632000D01*
X141722302Y-93728673D01*
X141651540Y-93799435D01*
X141483152Y-93686922D01*
X141351000Y-93660635D01*
X141351000Y-81831726D01*
X141430000Y-81847440D01*
X142930000Y-81847440D01*
X143177765Y-81798157D01*
X143272285Y-81735000D01*
X144054833Y-81735000D01*
X144086583Y-81741315D01*
X144161471Y-81772335D01*
X144573219Y-81772335D01*
X144953625Y-81614766D01*
X145244776Y-81323615D01*
X145399597Y-80949844D01*
X145424126Y-80960004D01*
X145445000Y-80960004D01*
X145445000Y-81280874D01*
X145602569Y-81661280D01*
X145893720Y-81952431D01*
X146274126Y-82110000D01*
X146685874Y-82110000D01*
X147066280Y-81952431D01*
X147189563Y-81829148D01*
X147203691Y-81835000D01*
X147794250Y-81835000D01*
X147953000Y-81676250D01*
X147953000Y-81197440D01*
X148207000Y-81197440D01*
X148207000Y-81676250D01*
X148365750Y-81835000D01*
X148956309Y-81835000D01*
X149189698Y-81738327D01*
X149368327Y-81559699D01*
X149465000Y-81326310D01*
X149465000Y-81246250D01*
X149306250Y-81087500D01*
X149168544Y-81087500D01*
X149287809Y-81007809D01*
X149428157Y-80797765D01*
X149442353Y-80726397D01*
X149465000Y-80703750D01*
X149465000Y-80623690D01*
X149463502Y-80620073D01*
X149477440Y-80550000D01*
X149477440Y-80522241D01*
X150189670Y-81234472D01*
X150232071Y-81297929D01*
X150483463Y-81465904D01*
X150705148Y-81510000D01*
X150705152Y-81510000D01*
X150780000Y-81524888D01*
X150854848Y-81510000D01*
X152040199Y-81510000D01*
X153684261Y-83154063D01*
X153478848Y-83194922D01*
X153191753Y-83386753D01*
X152999922Y-83673848D01*
X152932560Y-84012500D01*
X152932560Y-84347638D01*
X152640199Y-84640000D01*
X152232416Y-84640000D01*
X152300000Y-84300230D01*
X152300000Y-83339769D01*
X152232115Y-82998489D01*
X151973523Y-82611477D01*
X151586510Y-82352885D01*
X151130000Y-82262079D01*
X150673489Y-82352885D01*
X150495000Y-82472147D01*
X150316510Y-82352885D01*
X149860000Y-82262079D01*
X149403489Y-82352885D01*
X149211849Y-82480934D01*
X148897383Y-82326100D01*
X148717000Y-82451756D01*
X148717000Y-83204032D01*
X148690000Y-83339770D01*
X148690000Y-83967000D01*
X148502440Y-83967000D01*
X148502440Y-82920000D01*
X148463000Y-82721720D01*
X148463000Y-82451756D01*
X148282617Y-82326100D01*
X148182736Y-82375278D01*
X148102765Y-82321843D01*
X147855000Y-82272560D01*
X146785000Y-82272560D01*
X146537235Y-82321843D01*
X146327191Y-82462191D01*
X146186843Y-82672235D01*
X146137560Y-82920000D01*
X146137560Y-84720000D01*
X146186843Y-84967765D01*
X146327191Y-85177809D01*
X146537235Y-85318157D01*
X146785000Y-85367440D01*
X146816238Y-85367440D01*
X146835528Y-85380329D01*
X147339671Y-85884473D01*
X147382071Y-85947929D01*
X147633463Y-86115904D01*
X147855148Y-86160000D01*
X147855152Y-86160000D01*
X147929999Y-86174888D01*
X148004846Y-86160000D01*
X149306289Y-86160000D01*
X149052569Y-86413720D01*
X148895000Y-86794126D01*
X148895000Y-87190000D01*
X146683721Y-87190000D01*
X146566290Y-87072569D01*
X146185884Y-86915000D01*
X145774136Y-86915000D01*
X145393730Y-87072569D01*
X145102579Y-87363720D01*
X144945010Y-87744126D01*
X144945010Y-88155874D01*
X145102579Y-88536280D01*
X145393730Y-88827431D01*
X145774136Y-88985000D01*
X146185884Y-88985000D01*
X146566290Y-88827431D01*
X146683721Y-88710000D01*
X153456282Y-88710000D01*
X153191753Y-88886753D01*
X153089356Y-89040000D01*
X151833711Y-89040000D01*
X151716280Y-88922569D01*
X151335874Y-88765000D01*
X150924126Y-88765000D01*
X150543720Y-88922569D01*
X150252569Y-89213720D01*
X150095000Y-89594126D01*
X150095000Y-90005874D01*
X150191978Y-90240000D01*
X145258711Y-90240000D01*
X145141280Y-90122569D01*
X144760874Y-89965000D01*
X144349126Y-89965000D01*
X143968720Y-90122569D01*
X143677569Y-90413720D01*
X143520000Y-90794126D01*
X143520000Y-91205874D01*
X143677569Y-91586280D01*
X143968720Y-91877431D01*
X144349126Y-92035000D01*
X144760874Y-92035000D01*
X145141280Y-91877431D01*
X145258711Y-91760000D01*
X154530153Y-91760000D01*
X154605000Y-91774888D01*
X154679847Y-91760000D01*
X154679852Y-91760000D01*
X154901537Y-91715904D01*
X155152929Y-91547929D01*
X155195331Y-91484470D01*
X155807362Y-90872440D01*
X156142500Y-90872440D01*
X156481152Y-90805078D01*
X156768247Y-90613247D01*
X156960078Y-90326152D01*
X157027440Y-89987500D01*
X157027440Y-89512500D01*
X156960078Y-89173848D01*
X156768247Y-88886753D01*
X156481152Y-88694922D01*
X156142500Y-88627560D01*
X155567500Y-88627560D01*
X155228848Y-88694922D01*
X154980000Y-88861197D01*
X154753718Y-88710000D01*
X154830153Y-88710000D01*
X154905000Y-88724888D01*
X154979847Y-88710000D01*
X154979852Y-88710000D01*
X155201537Y-88665904D01*
X155452929Y-88497929D01*
X155495331Y-88434470D01*
X155807361Y-88122440D01*
X156142500Y-88122440D01*
X156481152Y-88055078D01*
X156768247Y-87863247D01*
X156960078Y-87576152D01*
X157027440Y-87237500D01*
X157027440Y-86762500D01*
X156960078Y-86423848D01*
X156768247Y-86136753D01*
X156481152Y-85944922D01*
X156142500Y-85877560D01*
X155567500Y-85877560D01*
X155228848Y-85944922D01*
X154980000Y-86111197D01*
X154731152Y-85944922D01*
X154392500Y-85877560D01*
X153817500Y-85877560D01*
X153508937Y-85938937D01*
X153545331Y-85884470D01*
X154057362Y-85372440D01*
X154392500Y-85372440D01*
X154731152Y-85305078D01*
X154980000Y-85138803D01*
X155228848Y-85305078D01*
X155567500Y-85372440D01*
X156142500Y-85372440D01*
X156481152Y-85305078D01*
X156768247Y-85113247D01*
X156960078Y-84826152D01*
X157027440Y-84487500D01*
X157027440Y-84012500D01*
X156960078Y-83673848D01*
X156768247Y-83386753D01*
X156481152Y-83194922D01*
X156142500Y-83127560D01*
X155807363Y-83127560D01*
X152945331Y-80265530D01*
X152924931Y-80235000D01*
X153106061Y-80235000D01*
X153191753Y-80363247D01*
X153478848Y-80555078D01*
X153817500Y-80622440D01*
X154392500Y-80622440D01*
X154731152Y-80555078D01*
X154980000Y-80388803D01*
X155228848Y-80555078D01*
X155567500Y-80622440D01*
X156142500Y-80622440D01*
X156481152Y-80555078D01*
X156768247Y-80363247D01*
X156960078Y-80076152D01*
X157027440Y-79737500D01*
X157027440Y-79262500D01*
X156960078Y-78923848D01*
X156768247Y-78636753D01*
X156481152Y-78444922D01*
X156142500Y-78377560D01*
X155807361Y-78377560D01*
X155645321Y-78215520D01*
X155602919Y-78152061D01*
X155557853Y-78121949D01*
X155807362Y-77872440D01*
X156142500Y-77872440D01*
X156481152Y-77805078D01*
X156768247Y-77613247D01*
X156960078Y-77326152D01*
X157027440Y-76987500D01*
X157027440Y-76512500D01*
X156960078Y-76173848D01*
X156768247Y-75886753D01*
X156481152Y-75694922D01*
X156142500Y-75627560D01*
X155567500Y-75627560D01*
X155236377Y-75693424D01*
X155807362Y-75122440D01*
X156142500Y-75122440D01*
X156481152Y-75055078D01*
X156768247Y-74863247D01*
X156960078Y-74576152D01*
X157027440Y-74237500D01*
X157027440Y-73762500D01*
X156960078Y-73423848D01*
X156768247Y-73136753D01*
X156481152Y-72944922D01*
X156142500Y-72877560D01*
X155567500Y-72877560D01*
X155228848Y-72944922D01*
X154980000Y-73111197D01*
X154731152Y-72944922D01*
X154392500Y-72877560D01*
X153817500Y-72877560D01*
X153478848Y-72944922D01*
X153191753Y-73136753D01*
X152999922Y-73423848D01*
X152932560Y-73762500D01*
X152932560Y-74097638D01*
X152590199Y-74440000D01*
X152240372Y-74440000D01*
X152300000Y-74140230D01*
X152300000Y-73179769D01*
X152232115Y-72838489D01*
X151973523Y-72451477D01*
X151586510Y-72192885D01*
X151130000Y-72102079D01*
X150673489Y-72192885D01*
X150495000Y-72312147D01*
X150316510Y-72192885D01*
X149860000Y-72102079D01*
X149403489Y-72192885D01*
X149211849Y-72320934D01*
X148897383Y-72166100D01*
X148717000Y-72291756D01*
X148717000Y-73044032D01*
X148690000Y-73179770D01*
X148690000Y-73807000D01*
X148502440Y-73807000D01*
X148502440Y-72760000D01*
X148463000Y-72561720D01*
X148463000Y-72291756D01*
X148282617Y-72166100D01*
X148182736Y-72215278D01*
X148102765Y-72161843D01*
X147855000Y-72112560D01*
X146785000Y-72112560D01*
X146537235Y-72161843D01*
X146327191Y-72302191D01*
X146186843Y-72512235D01*
X146137560Y-72760000D01*
X146137560Y-74560000D01*
X146143527Y-74590000D01*
X146124126Y-74590000D01*
X145743720Y-74747569D01*
X145452569Y-75038720D01*
X145295000Y-75419126D01*
X145295000Y-75830874D01*
X145452569Y-76211280D01*
X145666289Y-76425000D01*
X145627569Y-76463720D01*
X145470000Y-76844126D01*
X145470000Y-77255874D01*
X145627569Y-77636280D01*
X145918720Y-77927431D01*
X146299126Y-78085000D01*
X146695489Y-78085000D01*
X146682560Y-78150000D01*
X146682560Y-78600000D01*
X146702451Y-78700000D01*
X146682560Y-78800000D01*
X146682560Y-79250000D01*
X146702451Y-79350000D01*
X146682560Y-79450000D01*
X146682560Y-79676517D01*
X146654982Y-79694944D01*
X146507431Y-79338724D01*
X146216280Y-79047573D01*
X145835874Y-78890004D01*
X145669802Y-78890004D01*
X145360327Y-78580529D01*
X145317925Y-78517071D01*
X145066533Y-78349096D01*
X144943990Y-78324721D01*
X145057431Y-78211280D01*
X145215000Y-77830874D01*
X145215000Y-77419126D01*
X145057431Y-77038720D01*
X144766280Y-76747569D01*
X144520890Y-76645925D01*
X144540000Y-76549852D01*
X144540000Y-76549848D01*
X144554888Y-76475001D01*
X144540000Y-76400154D01*
X144540000Y-76303711D01*
X144657431Y-76186280D01*
X144815000Y-75805874D01*
X144815000Y-75394126D01*
X144657431Y-75013720D01*
X144366280Y-74722569D01*
X143985874Y-74565000D01*
X143590026Y-74565000D01*
X143670327Y-74484699D01*
X143767000Y-74251310D01*
X143767000Y-73935750D01*
X143608250Y-73777000D01*
X142734000Y-73777000D01*
X142734000Y-73797000D01*
X142480000Y-73797000D01*
X142480000Y-73777000D01*
X142460000Y-73777000D01*
X142460000Y-73523000D01*
X142480000Y-73523000D01*
X142480000Y-72698750D01*
X142734000Y-72698750D01*
X142734000Y-73523000D01*
X143608250Y-73523000D01*
X143767000Y-73364250D01*
X143767000Y-73048690D01*
X143670327Y-72815301D01*
X143491698Y-72636673D01*
X143258309Y-72540000D01*
X142892750Y-72540000D01*
X142734000Y-72698750D01*
X142480000Y-72698750D01*
X142321250Y-72540000D01*
X141955691Y-72540000D01*
X141722302Y-72636673D01*
X141651540Y-72707435D01*
X141483152Y-72594922D01*
X141351000Y-72568635D01*
X141351000Y-65444126D01*
X142745000Y-65444126D01*
X142745000Y-65855874D01*
X142902569Y-66236280D01*
X143193720Y-66527431D01*
X143574126Y-66685000D01*
X143985874Y-66685000D01*
X144366280Y-66527431D01*
X144483711Y-66410000D01*
X148895000Y-66410000D01*
X148895000Y-66705874D01*
X149052569Y-67086280D01*
X149206289Y-67240000D01*
X146583709Y-67240000D01*
X146466278Y-67122569D01*
X146085872Y-66965000D01*
X145674124Y-66965000D01*
X145293718Y-67122569D01*
X145002567Y-67413720D01*
X144844998Y-67794126D01*
X144844998Y-68205874D01*
X145002567Y-68586280D01*
X145293718Y-68877431D01*
X145674124Y-69035000D01*
X146085872Y-69035000D01*
X146466278Y-68877431D01*
X146583709Y-68760000D01*
X150233399Y-68760000D01*
X150095000Y-69094126D01*
X150095000Y-69505874D01*
X150191978Y-69740000D01*
X145658711Y-69740000D01*
X145541280Y-69622569D01*
X145160874Y-69465000D01*
X144749126Y-69465000D01*
X144368720Y-69622569D01*
X144077569Y-69913720D01*
X143920000Y-70294126D01*
X143920000Y-70705874D01*
X144077569Y-71086280D01*
X144368720Y-71377431D01*
X144749126Y-71535000D01*
X145160874Y-71535000D01*
X145541280Y-71377431D01*
X145658711Y-71260000D01*
X154530153Y-71260000D01*
X154605000Y-71274888D01*
X154679847Y-71260000D01*
X154679852Y-71260000D01*
X154901537Y-71215904D01*
X155152929Y-71047929D01*
X155195331Y-70984470D01*
X155807362Y-70372440D01*
X156142500Y-70372440D01*
X156481152Y-70305078D01*
X156768247Y-70113247D01*
X156960078Y-69826152D01*
X157027440Y-69487500D01*
X157027440Y-69012500D01*
X156960078Y-68673848D01*
X156768247Y-68386753D01*
X156481152Y-68194922D01*
X156142500Y-68127560D01*
X155567500Y-68127560D01*
X155236377Y-68193424D01*
X155807362Y-67622440D01*
X156142500Y-67622440D01*
X156481152Y-67555078D01*
X156768247Y-67363247D01*
X156960078Y-67076152D01*
X157027440Y-66737500D01*
X157027440Y-66262500D01*
X156960078Y-65923848D01*
X156768247Y-65636753D01*
X156481152Y-65444922D01*
X156142500Y-65377560D01*
X155567500Y-65377560D01*
X155236377Y-65443424D01*
X155807362Y-64872440D01*
X156142500Y-64872440D01*
X156481152Y-64805078D01*
X156768247Y-64613247D01*
X156960078Y-64326152D01*
X157027440Y-63987500D01*
X157027440Y-63512500D01*
X156960078Y-63173848D01*
X156768247Y-62886753D01*
X156481152Y-62694922D01*
X156142500Y-62627560D01*
X155567500Y-62627560D01*
X155228848Y-62694922D01*
X154980000Y-62861197D01*
X154731152Y-62694922D01*
X154392500Y-62627560D01*
X153817500Y-62627560D01*
X153478848Y-62694922D01*
X153191753Y-62886753D01*
X152999922Y-63173848D01*
X152932560Y-63512500D01*
X152932560Y-63847638D01*
X152490210Y-64289989D01*
X152238385Y-64289989D01*
X152300000Y-63980230D01*
X152300000Y-63019769D01*
X152232115Y-62678489D01*
X151973523Y-62291477D01*
X151586510Y-62032885D01*
X151130000Y-61942079D01*
X150673489Y-62032885D01*
X150495000Y-62152147D01*
X150316510Y-62032885D01*
X149860000Y-61942079D01*
X149403489Y-62032885D01*
X149211849Y-62160934D01*
X148897383Y-62006100D01*
X148717000Y-62131756D01*
X148717000Y-62884032D01*
X148690000Y-63019770D01*
X148690000Y-63647000D01*
X148502440Y-63647000D01*
X148502440Y-62600000D01*
X148463000Y-62401720D01*
X148463000Y-62131756D01*
X148282617Y-62006100D01*
X148182736Y-62055278D01*
X148102765Y-62001843D01*
X147855000Y-61952560D01*
X146785000Y-61952560D01*
X146537235Y-62001843D01*
X146327191Y-62142191D01*
X146186843Y-62352235D01*
X146137560Y-62600000D01*
X146137560Y-64400000D01*
X146186843Y-64647765D01*
X146327191Y-64857809D01*
X146375368Y-64890000D01*
X144483711Y-64890000D01*
X144366280Y-64772569D01*
X143985874Y-64615000D01*
X143574126Y-64615000D01*
X143193720Y-64772569D01*
X142902569Y-65063720D01*
X142745000Y-65444126D01*
X141351000Y-65444126D01*
X141351000Y-57509999D01*
X146655149Y-57509998D01*
X146730001Y-57524887D01*
X147026538Y-57465902D01*
X147169387Y-57370453D01*
X147204506Y-57385000D01*
X147755494Y-57385000D01*
X148264540Y-57174147D01*
X148654147Y-56784540D01*
X148865000Y-56275494D01*
X148865000Y-55724506D01*
X148654147Y-55215460D01*
X148264540Y-54825853D01*
X148231096Y-54812000D01*
X150128904Y-54812000D01*
X150095460Y-54825853D01*
G36*
X146695460Y-54825853D02*
X146305853Y-55215460D01*
X146095000Y-55724506D01*
X146095000Y-55989999D01*
X141351000Y-55990000D01*
X141351000Y-54812000D01*
X146728904Y-54812000D01*
X146695460Y-54825853D01*
X146695460Y-54825853D01*
G37*
X146695460Y-54825853D02*
X146305853Y-55215460D01*
X146095000Y-55724506D01*
X146095000Y-55989999D01*
X141351000Y-55990000D01*
X141351000Y-54812000D01*
X146728904Y-54812000D01*
X146695460Y-54825853D01*
G04 #@! TD*
M02*
