G04 #@! TF.GenerationSoftware,KiCad,Pcbnew,5.0.2-bee76a0~70~ubuntu16.04.1*
G04 #@! TF.CreationDate,2020-01-11T18:35:07+00:00*
G04 #@! TF.ProjectId,transmitter,7472616e-736d-4697-9474-65722e6b6963,2.0.0*
G04 #@! TF.SameCoordinates,Original*
G04 #@! TF.FileFunction,Soldermask,Top*
G04 #@! TF.FilePolarity,Negative*
%FSLAX46Y46*%
G04 Gerber Fmt 4.6, Leading zero omitted, Abs format (unit mm)*
G04 Created by KiCad (PCBNEW 5.0.2-bee76a0~70~ubuntu16.04.1) date Sat 11 Jan 2020 18:35:07 GMT*
%MOMM*%
%LPD*%
G01*
G04 APERTURE LIST*
%ADD10C,0.150000*%
%ADD11C,0.127000*%
%ADD12C,0.076200*%
%ADD13C,0.101600*%
%ADD14C,0.500000*%
G04 APERTURE END LIST*
D10*
G04 #@! TO.C,REF\002A\002A*
X126391623Y-109425000D02*
G75*
G03X126391623Y-109425000I-31623J0D01*
G01*
D11*
X126630000Y-109505000D02*
G75*
G03X126630000Y-109505000I-410000J0D01*
G01*
D10*
X126111623Y-109425000D02*
G75*
G03X126111623Y-109425000I-31623J0D01*
G01*
D12*
X126030000Y-109645000D02*
X126150000Y-109715000D01*
X126150000Y-109715000D02*
X126280000Y-109705000D01*
X126280000Y-109705000D02*
X126400000Y-109615000D01*
D13*
X126110000Y-109035000D02*
X125840000Y-108895000D01*
X125840000Y-108895000D02*
X125560000Y-108965000D01*
X125560000Y-108965000D02*
X125450000Y-109155000D01*
X125450000Y-109155000D02*
X125560000Y-109325000D01*
X125560000Y-109325000D02*
X125770000Y-109375000D01*
X125780000Y-109445000D02*
X125510000Y-109495000D01*
X125510000Y-109495000D02*
X125420000Y-109645000D01*
X125420000Y-109645000D02*
X125460000Y-109775000D01*
X125460000Y-109775000D02*
X125580000Y-109855000D01*
X125580000Y-109855000D02*
X125830000Y-109795000D01*
X125850000Y-109815000D02*
X125770000Y-110015000D01*
X125770000Y-110015000D02*
X125780000Y-110205000D01*
X125780000Y-110205000D02*
X125890000Y-110245000D01*
X125890000Y-110245000D02*
X126010000Y-110205000D01*
X126010000Y-110205000D02*
X126070000Y-110095000D01*
X126070000Y-110095000D02*
X126090000Y-109985000D01*
X126090000Y-109985000D02*
X126110000Y-109965000D01*
X126110000Y-109965000D02*
X126080000Y-109985000D01*
X126080000Y-109985000D02*
X126070000Y-109955000D01*
X126180000Y-109075000D02*
X126270000Y-108805000D01*
X126270000Y-108805000D02*
X126430000Y-108745000D01*
X126430000Y-108745000D02*
X126600000Y-108775000D01*
X126600000Y-108775000D02*
X126650000Y-108885000D01*
X126650000Y-108885000D02*
X126630000Y-108995000D01*
X126630000Y-108995000D02*
X126540000Y-109135000D01*
X126510000Y-109125000D02*
X126880000Y-109115000D01*
X126880000Y-109115000D02*
X126990000Y-109215000D01*
X126990000Y-109215000D02*
X127010000Y-109365000D01*
X127010000Y-109365000D02*
X126910000Y-109435000D01*
X126910000Y-109435000D02*
X126760000Y-109445000D01*
X126760000Y-109445000D02*
X126660000Y-109445000D01*
X126660000Y-109475000D02*
X126840000Y-109585000D01*
X126840000Y-109585000D02*
X126940000Y-109725000D01*
X126940000Y-109725000D02*
X126940000Y-109865000D01*
X126940000Y-109865000D02*
X126900000Y-109965000D01*
X126900000Y-109965000D02*
X126790000Y-110005000D01*
X126790000Y-110005000D02*
X126660000Y-109975000D01*
X126660000Y-109975000D02*
X126570000Y-109845000D01*
X126140000Y-109975000D02*
X126210000Y-110165000D01*
X126210000Y-110165000D02*
X126330000Y-110295000D01*
X126330000Y-110295000D02*
X126450000Y-110265000D01*
X126450000Y-110265000D02*
X126500000Y-110175000D01*
X126500000Y-110175000D02*
X126480000Y-110075000D01*
X126480000Y-110075000D02*
X126480000Y-109905000D01*
X126110000Y-110065000D02*
X126200000Y-110495000D01*
X126200000Y-110495000D02*
X126420000Y-110795000D01*
X126420000Y-110795000D02*
X126540000Y-111075000D01*
X126540000Y-111075000D02*
X126500000Y-111295000D01*
X126500000Y-111295000D02*
X126660000Y-110775000D01*
D14*
G36*
X131576630Y-108107299D02*
X131736855Y-108155903D01*
X131884520Y-108234831D01*
X132013949Y-108341051D01*
X132120169Y-108470480D01*
X132199097Y-108618145D01*
X132247701Y-108778370D01*
X132264112Y-108945000D01*
X132247701Y-109111630D01*
X132199097Y-109271855D01*
X132120169Y-109419520D01*
X132013949Y-109548949D01*
X131884520Y-109655169D01*
X131736855Y-109734097D01*
X131576630Y-109782701D01*
X131451752Y-109795000D01*
X131368248Y-109795000D01*
X131243370Y-109782701D01*
X131083145Y-109734097D01*
X130935480Y-109655169D01*
X130806051Y-109548949D01*
X130699831Y-109419520D01*
X130620903Y-109271855D01*
X130572299Y-109111630D01*
X130555888Y-108945000D01*
X130572299Y-108778370D01*
X130620903Y-108618145D01*
X130699831Y-108470480D01*
X130806051Y-108341051D01*
X130935480Y-108234831D01*
X131083145Y-108155903D01*
X131243370Y-108107299D01*
X131368248Y-108095000D01*
X131451752Y-108095000D01*
X131576630Y-108107299D01*
X131576630Y-108107299D01*
G37*
G36*
X129720000Y-109795000D02*
X128020000Y-109795000D01*
X128020000Y-108095000D01*
X129720000Y-108095000D01*
X129720000Y-109795000D01*
X129720000Y-109795000D01*
G37*
G36*
X124323745Y-108273342D02*
X124450863Y-108325996D01*
X124565271Y-108402441D01*
X124662559Y-108499729D01*
X124739004Y-108614137D01*
X124791658Y-108741255D01*
X124818500Y-108876202D01*
X124818500Y-109013798D01*
X124791658Y-109148745D01*
X124739004Y-109275863D01*
X124662559Y-109390271D01*
X124565271Y-109487559D01*
X124450863Y-109564004D01*
X124323745Y-109616658D01*
X124188798Y-109643500D01*
X124051202Y-109643500D01*
X123916255Y-109616658D01*
X123789137Y-109564004D01*
X123674729Y-109487559D01*
X123577441Y-109390271D01*
X123500996Y-109275863D01*
X123448342Y-109148745D01*
X123421500Y-109013798D01*
X123421500Y-108876202D01*
X123448342Y-108741255D01*
X123500996Y-108614137D01*
X123577441Y-108499729D01*
X123674729Y-108402441D01*
X123789137Y-108325996D01*
X123916255Y-108273342D01*
X124051202Y-108246500D01*
X124188798Y-108246500D01*
X124323745Y-108273342D01*
X124323745Y-108273342D01*
G37*
G36*
X116703745Y-108273342D02*
X116830863Y-108325996D01*
X116945271Y-108402441D01*
X117042559Y-108499729D01*
X117119004Y-108614137D01*
X117171658Y-108741255D01*
X117198500Y-108876202D01*
X117198500Y-109013798D01*
X117171658Y-109148745D01*
X117119004Y-109275863D01*
X117042559Y-109390271D01*
X116945271Y-109487559D01*
X116830863Y-109564004D01*
X116703745Y-109616658D01*
X116568798Y-109643500D01*
X116431202Y-109643500D01*
X116296255Y-109616658D01*
X116169137Y-109564004D01*
X116054729Y-109487559D01*
X115957441Y-109390271D01*
X115880996Y-109275863D01*
X115828342Y-109148745D01*
X115801500Y-109013798D01*
X115801500Y-108876202D01*
X115828342Y-108741255D01*
X115880996Y-108614137D01*
X115957441Y-108499729D01*
X116054729Y-108402441D01*
X116169137Y-108325996D01*
X116296255Y-108273342D01*
X116431202Y-108246500D01*
X116568798Y-108246500D01*
X116703745Y-108273342D01*
X116703745Y-108273342D01*
G37*
G36*
X167496630Y-107707299D02*
X167656855Y-107755903D01*
X167804520Y-107834831D01*
X167933949Y-107941051D01*
X168040169Y-108070480D01*
X168119097Y-108218145D01*
X168167701Y-108378370D01*
X168184112Y-108545000D01*
X168167701Y-108711630D01*
X168119097Y-108871855D01*
X168040169Y-109019520D01*
X167933949Y-109148949D01*
X167804520Y-109255169D01*
X167656855Y-109334097D01*
X167496630Y-109382701D01*
X167371752Y-109395000D01*
X166988248Y-109395000D01*
X166863370Y-109382701D01*
X166703145Y-109334097D01*
X166555480Y-109255169D01*
X166426051Y-109148949D01*
X166319831Y-109019520D01*
X166240903Y-108871855D01*
X166192299Y-108711630D01*
X166175888Y-108545000D01*
X166192299Y-108378370D01*
X166240903Y-108218145D01*
X166319831Y-108070480D01*
X166426051Y-107941051D01*
X166555480Y-107834831D01*
X166703145Y-107755903D01*
X166863370Y-107707299D01*
X166988248Y-107695000D01*
X167371752Y-107695000D01*
X167496630Y-107707299D01*
X167496630Y-107707299D01*
G37*
G36*
X146404024Y-106923955D02*
X146436736Y-106933879D01*
X146466890Y-106949997D01*
X146493316Y-106971684D01*
X146515003Y-106998110D01*
X146531121Y-107028264D01*
X146541045Y-107060976D01*
X146545000Y-107101138D01*
X146545000Y-107688862D01*
X146541045Y-107729024D01*
X146531121Y-107761736D01*
X146515003Y-107791890D01*
X146493316Y-107818316D01*
X146466890Y-107840003D01*
X146436736Y-107856121D01*
X146404024Y-107866045D01*
X146363862Y-107870000D01*
X145676138Y-107870000D01*
X145635976Y-107866045D01*
X145603264Y-107856121D01*
X145573110Y-107840003D01*
X145546684Y-107818316D01*
X145524997Y-107791890D01*
X145508879Y-107761736D01*
X145498955Y-107729024D01*
X145495000Y-107688862D01*
X145495000Y-107101138D01*
X145498955Y-107060976D01*
X145508879Y-107028264D01*
X145524997Y-106998110D01*
X145546684Y-106971684D01*
X145573110Y-106949997D01*
X145603264Y-106933879D01*
X145635976Y-106923955D01*
X145676138Y-106920000D01*
X146363862Y-106920000D01*
X146404024Y-106923955D01*
X146404024Y-106923955D01*
G37*
G36*
X144654024Y-106923955D02*
X144686736Y-106933879D01*
X144716890Y-106949997D01*
X144743316Y-106971684D01*
X144765003Y-106998110D01*
X144781121Y-107028264D01*
X144791045Y-107060976D01*
X144795000Y-107101138D01*
X144795000Y-107688862D01*
X144791045Y-107729024D01*
X144781121Y-107761736D01*
X144765003Y-107791890D01*
X144743316Y-107818316D01*
X144716890Y-107840003D01*
X144686736Y-107856121D01*
X144654024Y-107866045D01*
X144613862Y-107870000D01*
X143926138Y-107870000D01*
X143885976Y-107866045D01*
X143853264Y-107856121D01*
X143823110Y-107840003D01*
X143796684Y-107818316D01*
X143774997Y-107791890D01*
X143758879Y-107761736D01*
X143748955Y-107729024D01*
X143745000Y-107688862D01*
X143745000Y-107101138D01*
X143748955Y-107060976D01*
X143758879Y-107028264D01*
X143774997Y-106998110D01*
X143796684Y-106971684D01*
X143823110Y-106949997D01*
X143853264Y-106933879D01*
X143885976Y-106923955D01*
X143926138Y-106920000D01*
X144613862Y-106920000D01*
X144654024Y-106923955D01*
X144654024Y-106923955D01*
G37*
G36*
X158079024Y-106873955D02*
X158111736Y-106883879D01*
X158141890Y-106899997D01*
X158168316Y-106921684D01*
X158190003Y-106948110D01*
X158206121Y-106978264D01*
X158216045Y-107010976D01*
X158220000Y-107051138D01*
X158220000Y-107638862D01*
X158216045Y-107679024D01*
X158206121Y-107711736D01*
X158190003Y-107741890D01*
X158168316Y-107768316D01*
X158141890Y-107790003D01*
X158111736Y-107806121D01*
X158079024Y-107816045D01*
X158038862Y-107820000D01*
X157351138Y-107820000D01*
X157310976Y-107816045D01*
X157278264Y-107806121D01*
X157248110Y-107790003D01*
X157221684Y-107768316D01*
X157199997Y-107741890D01*
X157183879Y-107711736D01*
X157173955Y-107679024D01*
X157170000Y-107638862D01*
X157170000Y-107051138D01*
X157173955Y-107010976D01*
X157183879Y-106978264D01*
X157199997Y-106948110D01*
X157221684Y-106921684D01*
X157248110Y-106899997D01*
X157278264Y-106883879D01*
X157310976Y-106873955D01*
X157351138Y-106870000D01*
X158038862Y-106870000D01*
X158079024Y-106873955D01*
X158079024Y-106873955D01*
G37*
G36*
X156329024Y-106873955D02*
X156361736Y-106883879D01*
X156391890Y-106899997D01*
X156418316Y-106921684D01*
X156440003Y-106948110D01*
X156456121Y-106978264D01*
X156466045Y-107010976D01*
X156470000Y-107051138D01*
X156470000Y-107638862D01*
X156466045Y-107679024D01*
X156456121Y-107711736D01*
X156440003Y-107741890D01*
X156418316Y-107768316D01*
X156391890Y-107790003D01*
X156361736Y-107806121D01*
X156329024Y-107816045D01*
X156288862Y-107820000D01*
X155601138Y-107820000D01*
X155560976Y-107816045D01*
X155528264Y-107806121D01*
X155498110Y-107790003D01*
X155471684Y-107768316D01*
X155449997Y-107741890D01*
X155433879Y-107711736D01*
X155423955Y-107679024D01*
X155420000Y-107638862D01*
X155420000Y-107051138D01*
X155423955Y-107010976D01*
X155433879Y-106978264D01*
X155449997Y-106948110D01*
X155471684Y-106921684D01*
X155498110Y-106899997D01*
X155528264Y-106883879D01*
X155560976Y-106873955D01*
X155601138Y-106870000D01*
X156288862Y-106870000D01*
X156329024Y-106873955D01*
X156329024Y-106873955D01*
G37*
G36*
X154170000Y-107645000D02*
X153170000Y-107645000D01*
X153170000Y-105045000D01*
X154170000Y-105045000D01*
X154170000Y-107645000D01*
X154170000Y-107645000D01*
G37*
G36*
X151570000Y-107645000D02*
X150570000Y-107645000D01*
X150570000Y-105045000D01*
X151570000Y-105045000D01*
X151570000Y-107645000D01*
X151570000Y-107645000D01*
G37*
G36*
X141454024Y-106048955D02*
X141486736Y-106058879D01*
X141516890Y-106074997D01*
X141543316Y-106096684D01*
X141565003Y-106123110D01*
X141581121Y-106153264D01*
X141591045Y-106185976D01*
X141595000Y-106226138D01*
X141595000Y-106913862D01*
X141591045Y-106954024D01*
X141581121Y-106986736D01*
X141565003Y-107016890D01*
X141543316Y-107043316D01*
X141516890Y-107065003D01*
X141486736Y-107081121D01*
X141454024Y-107091045D01*
X141413862Y-107095000D01*
X140826138Y-107095000D01*
X140785976Y-107091045D01*
X140753264Y-107081121D01*
X140723110Y-107065003D01*
X140696684Y-107043316D01*
X140674997Y-107016890D01*
X140658879Y-106986736D01*
X140648955Y-106954024D01*
X140645000Y-106913862D01*
X140645000Y-106226138D01*
X140648955Y-106185976D01*
X140658879Y-106153264D01*
X140674997Y-106123110D01*
X140696684Y-106096684D01*
X140723110Y-106074997D01*
X140753264Y-106058879D01*
X140785976Y-106048955D01*
X140826138Y-106045000D01*
X141413862Y-106045000D01*
X141454024Y-106048955D01*
X141454024Y-106048955D01*
G37*
G36*
X168049675Y-105198701D02*
X168079907Y-105207872D01*
X168107769Y-105222765D01*
X168132192Y-105242808D01*
X168152235Y-105267231D01*
X168167128Y-105295093D01*
X168176299Y-105325325D01*
X168180000Y-105362905D01*
X168180000Y-106727095D01*
X168176299Y-106764675D01*
X168167128Y-106794907D01*
X168152235Y-106822769D01*
X168132192Y-106847192D01*
X168107769Y-106867235D01*
X168079907Y-106882128D01*
X168049675Y-106891299D01*
X168012095Y-106895000D01*
X166347905Y-106895000D01*
X166310325Y-106891299D01*
X166280093Y-106882128D01*
X166252231Y-106867235D01*
X166227808Y-106847192D01*
X166207765Y-106822769D01*
X166192872Y-106794907D01*
X166183701Y-106764675D01*
X166180000Y-106727095D01*
X166180000Y-105362905D01*
X166183701Y-105325325D01*
X166192872Y-105295093D01*
X166207765Y-105267231D01*
X166227808Y-105242808D01*
X166252231Y-105222765D01*
X166280093Y-105207872D01*
X166310325Y-105198701D01*
X166347905Y-105195000D01*
X168012095Y-105195000D01*
X168049675Y-105198701D01*
X168049675Y-105198701D01*
G37*
G36*
X129520000Y-106395000D02*
X128720000Y-106395000D01*
X128720000Y-105495000D01*
X129520000Y-105495000D01*
X129520000Y-106395000D01*
X129520000Y-106395000D01*
G37*
G36*
X133520000Y-106395000D02*
X132720000Y-106395000D01*
X132720000Y-105495000D01*
X133520000Y-105495000D01*
X133520000Y-106395000D01*
X133520000Y-106395000D01*
G37*
G36*
X143305000Y-105882500D02*
X142705000Y-105882500D01*
X142705000Y-103682500D01*
X143305000Y-103682500D01*
X143305000Y-105882500D01*
X143305000Y-105882500D01*
G37*
G36*
X148385000Y-105882500D02*
X147785000Y-105882500D01*
X147785000Y-103682500D01*
X148385000Y-103682500D01*
X148385000Y-105882500D01*
X148385000Y-105882500D01*
G37*
G36*
X145845000Y-105882500D02*
X145245000Y-105882500D01*
X145245000Y-103682500D01*
X145845000Y-103682500D01*
X145845000Y-105882500D01*
X145845000Y-105882500D01*
G37*
G36*
X144575000Y-105882500D02*
X143975000Y-105882500D01*
X143975000Y-103682500D01*
X144575000Y-103682500D01*
X144575000Y-105882500D01*
X144575000Y-105882500D01*
G37*
G36*
X147115000Y-105882500D02*
X146515000Y-105882500D01*
X146515000Y-103682500D01*
X147115000Y-103682500D01*
X147115000Y-105882500D01*
X147115000Y-105882500D01*
G37*
G36*
X141454024Y-104298955D02*
X141486736Y-104308879D01*
X141516890Y-104324997D01*
X141543316Y-104346684D01*
X141565003Y-104373110D01*
X141581121Y-104403264D01*
X141591045Y-104435976D01*
X141595000Y-104476138D01*
X141595000Y-105163862D01*
X141591045Y-105204024D01*
X141581121Y-105236736D01*
X141565003Y-105266890D01*
X141543316Y-105293316D01*
X141516890Y-105315003D01*
X141486736Y-105331121D01*
X141454024Y-105341045D01*
X141413862Y-105345000D01*
X140826138Y-105345000D01*
X140785976Y-105341045D01*
X140753264Y-105331121D01*
X140723110Y-105315003D01*
X140696684Y-105293316D01*
X140674997Y-105266890D01*
X140658879Y-105236736D01*
X140648955Y-105204024D01*
X140645000Y-105163862D01*
X140645000Y-104476138D01*
X140648955Y-104435976D01*
X140658879Y-104403264D01*
X140674997Y-104373110D01*
X140696684Y-104346684D01*
X140723110Y-104324997D01*
X140753264Y-104308879D01*
X140785976Y-104298955D01*
X140826138Y-104295000D01*
X141413862Y-104295000D01*
X141454024Y-104298955D01*
X141454024Y-104298955D01*
G37*
G36*
X124323745Y-103193342D02*
X124450863Y-103245996D01*
X124565271Y-103322441D01*
X124662559Y-103419729D01*
X124739004Y-103534137D01*
X124791658Y-103661255D01*
X124818500Y-103796202D01*
X124818500Y-103933798D01*
X124791658Y-104068745D01*
X124739004Y-104195863D01*
X124662559Y-104310271D01*
X124565271Y-104407559D01*
X124450863Y-104484004D01*
X124323745Y-104536658D01*
X124188798Y-104563500D01*
X124051202Y-104563500D01*
X123916255Y-104536658D01*
X123789137Y-104484004D01*
X123674729Y-104407559D01*
X123577441Y-104310271D01*
X123500996Y-104195863D01*
X123448342Y-104068745D01*
X123421500Y-103933798D01*
X123421500Y-103796202D01*
X123448342Y-103661255D01*
X123500996Y-103534137D01*
X123577441Y-103419729D01*
X123674729Y-103322441D01*
X123789137Y-103245996D01*
X123916255Y-103193342D01*
X124051202Y-103166500D01*
X124188798Y-103166500D01*
X124323745Y-103193342D01*
X124323745Y-103193342D01*
G37*
G36*
X116703745Y-103193342D02*
X116830863Y-103245996D01*
X116945271Y-103322441D01*
X117042559Y-103419729D01*
X117119004Y-103534137D01*
X117171658Y-103661255D01*
X117198500Y-103796202D01*
X117198500Y-103933798D01*
X117171658Y-104068745D01*
X117119004Y-104195863D01*
X117042559Y-104310271D01*
X116945271Y-104407559D01*
X116830863Y-104484004D01*
X116703745Y-104536658D01*
X116568798Y-104563500D01*
X116431202Y-104563500D01*
X116296255Y-104536658D01*
X116169137Y-104484004D01*
X116054729Y-104407559D01*
X115957441Y-104310271D01*
X115880996Y-104195863D01*
X115828342Y-104068745D01*
X115801500Y-103933798D01*
X115801500Y-103796202D01*
X115828342Y-103661255D01*
X115880996Y-103534137D01*
X115957441Y-103419729D01*
X116054729Y-103322441D01*
X116169137Y-103245996D01*
X116296255Y-103193342D01*
X116431202Y-103166500D01*
X116568798Y-103166500D01*
X116703745Y-103193342D01*
X116703745Y-103193342D01*
G37*
G36*
X130470000Y-104395000D02*
X129670000Y-104395000D01*
X129670000Y-103495000D01*
X130470000Y-103495000D01*
X130470000Y-104395000D01*
X130470000Y-104395000D01*
G37*
G36*
X128570000Y-104395000D02*
X127770000Y-104395000D01*
X127770000Y-103495000D01*
X128570000Y-103495000D01*
X128570000Y-104395000D01*
X128570000Y-104395000D01*
G37*
G36*
X134470000Y-104395000D02*
X133670000Y-104395000D01*
X133670000Y-103495000D01*
X134470000Y-103495000D01*
X134470000Y-104395000D01*
X134470000Y-104395000D01*
G37*
G36*
X132570000Y-104395000D02*
X131770000Y-104395000D01*
X131770000Y-103495000D01*
X132570000Y-103495000D01*
X132570000Y-104395000D01*
X132570000Y-104395000D01*
G37*
G36*
X126954024Y-103298955D02*
X126986736Y-103308879D01*
X127016890Y-103324997D01*
X127043316Y-103346684D01*
X127065003Y-103373110D01*
X127081121Y-103403264D01*
X127091045Y-103435976D01*
X127095000Y-103476138D01*
X127095000Y-104163862D01*
X127091045Y-104204024D01*
X127081121Y-104236736D01*
X127065003Y-104266890D01*
X127043316Y-104293316D01*
X127016890Y-104315003D01*
X126986736Y-104331121D01*
X126954024Y-104341045D01*
X126913862Y-104345000D01*
X126326138Y-104345000D01*
X126285976Y-104341045D01*
X126253264Y-104331121D01*
X126223110Y-104315003D01*
X126196684Y-104293316D01*
X126174997Y-104266890D01*
X126158879Y-104236736D01*
X126148955Y-104204024D01*
X126145000Y-104163862D01*
X126145000Y-103476138D01*
X126148955Y-103435976D01*
X126158879Y-103403264D01*
X126174997Y-103373110D01*
X126196684Y-103346684D01*
X126223110Y-103324997D01*
X126253264Y-103308879D01*
X126285976Y-103298955D01*
X126326138Y-103295000D01*
X126913862Y-103295000D01*
X126954024Y-103298955D01*
X126954024Y-103298955D01*
G37*
G36*
X137373195Y-102762522D02*
X137422267Y-102772283D01*
X137560942Y-102829724D01*
X137685750Y-102913118D01*
X137791882Y-103019250D01*
X137875276Y-103144058D01*
X137932717Y-103282734D01*
X137962000Y-103429948D01*
X137962000Y-103580052D01*
X137932717Y-103727266D01*
X137875276Y-103865942D01*
X137791882Y-103990750D01*
X137685750Y-104096882D01*
X137685747Y-104096884D01*
X137560942Y-104180276D01*
X137422267Y-104237717D01*
X137373195Y-104247478D01*
X137275052Y-104267000D01*
X137124948Y-104267000D01*
X137026805Y-104247478D01*
X136977733Y-104237717D01*
X136839058Y-104180276D01*
X136714253Y-104096884D01*
X136714250Y-104096882D01*
X136608118Y-103990750D01*
X136524724Y-103865942D01*
X136467283Y-103727266D01*
X136438000Y-103580052D01*
X136438000Y-103429948D01*
X136467283Y-103282734D01*
X136524724Y-103144058D01*
X136608118Y-103019250D01*
X136714250Y-102913118D01*
X136839058Y-102829724D01*
X136977733Y-102772283D01*
X137026805Y-102762522D01*
X137124948Y-102743000D01*
X137275052Y-102743000D01*
X137373195Y-102762522D01*
X137373195Y-102762522D01*
G37*
G36*
X160233195Y-102762522D02*
X160282267Y-102772283D01*
X160420942Y-102829724D01*
X160545750Y-102913118D01*
X160651882Y-103019250D01*
X160735276Y-103144058D01*
X160792717Y-103282734D01*
X160822000Y-103429948D01*
X160822000Y-103580052D01*
X160792717Y-103727266D01*
X160735276Y-103865942D01*
X160651882Y-103990750D01*
X160545750Y-104096882D01*
X160545747Y-104096884D01*
X160420942Y-104180276D01*
X160282267Y-104237717D01*
X160233195Y-104247478D01*
X160135052Y-104267000D01*
X159984948Y-104267000D01*
X159886805Y-104247478D01*
X159837733Y-104237717D01*
X159699058Y-104180276D01*
X159574253Y-104096884D01*
X159574250Y-104096882D01*
X159468118Y-103990750D01*
X159384724Y-103865942D01*
X159327283Y-103727266D01*
X159298000Y-103580052D01*
X159298000Y-103429948D01*
X159327283Y-103282734D01*
X159384724Y-103144058D01*
X159468118Y-103019250D01*
X159574250Y-102913118D01*
X159699058Y-102829724D01*
X159837733Y-102772283D01*
X159886805Y-102762522D01*
X159984948Y-102743000D01*
X160135052Y-102743000D01*
X160233195Y-102762522D01*
X160233195Y-102762522D01*
G37*
G36*
X126954024Y-101548955D02*
X126986736Y-101558879D01*
X127016890Y-101574997D01*
X127043316Y-101596684D01*
X127065003Y-101623110D01*
X127081121Y-101653264D01*
X127091045Y-101685976D01*
X127095000Y-101726138D01*
X127095000Y-102413862D01*
X127091045Y-102454024D01*
X127081121Y-102486736D01*
X127065003Y-102516890D01*
X127043316Y-102543316D01*
X127016890Y-102565003D01*
X126986736Y-102581121D01*
X126954024Y-102591045D01*
X126913862Y-102595000D01*
X126326138Y-102595000D01*
X126285976Y-102591045D01*
X126253264Y-102581121D01*
X126223110Y-102565003D01*
X126196684Y-102543316D01*
X126174997Y-102516890D01*
X126158879Y-102486736D01*
X126148955Y-102454024D01*
X126145000Y-102413862D01*
X126145000Y-101726138D01*
X126148955Y-101685976D01*
X126158879Y-101653264D01*
X126174997Y-101623110D01*
X126196684Y-101596684D01*
X126223110Y-101574997D01*
X126253264Y-101558879D01*
X126285976Y-101548955D01*
X126326138Y-101545000D01*
X126913862Y-101545000D01*
X126954024Y-101548955D01*
X126954024Y-101548955D01*
G37*
G36*
X130379024Y-101473955D02*
X130411736Y-101483879D01*
X130441890Y-101499997D01*
X130468316Y-101521684D01*
X130490003Y-101548110D01*
X130506121Y-101578264D01*
X130516045Y-101610976D01*
X130520000Y-101651138D01*
X130520000Y-102238862D01*
X130516045Y-102279024D01*
X130506121Y-102311736D01*
X130490003Y-102341890D01*
X130468316Y-102368316D01*
X130441890Y-102390003D01*
X130411736Y-102406121D01*
X130379024Y-102416045D01*
X130338862Y-102420000D01*
X129651138Y-102420000D01*
X129610976Y-102416045D01*
X129578264Y-102406121D01*
X129548110Y-102390003D01*
X129521684Y-102368316D01*
X129499997Y-102341890D01*
X129483879Y-102311736D01*
X129473955Y-102279024D01*
X129470000Y-102238862D01*
X129470000Y-101651138D01*
X129473955Y-101610976D01*
X129483879Y-101578264D01*
X129499997Y-101548110D01*
X129521684Y-101521684D01*
X129548110Y-101499997D01*
X129578264Y-101483879D01*
X129610976Y-101473955D01*
X129651138Y-101470000D01*
X130338862Y-101470000D01*
X130379024Y-101473955D01*
X130379024Y-101473955D01*
G37*
G36*
X128629024Y-101473955D02*
X128661736Y-101483879D01*
X128691890Y-101499997D01*
X128718316Y-101521684D01*
X128740003Y-101548110D01*
X128756121Y-101578264D01*
X128766045Y-101610976D01*
X128770000Y-101651138D01*
X128770000Y-102238862D01*
X128766045Y-102279024D01*
X128756121Y-102311736D01*
X128740003Y-102341890D01*
X128718316Y-102368316D01*
X128691890Y-102390003D01*
X128661736Y-102406121D01*
X128629024Y-102416045D01*
X128588862Y-102420000D01*
X127901138Y-102420000D01*
X127860976Y-102416045D01*
X127828264Y-102406121D01*
X127798110Y-102390003D01*
X127771684Y-102368316D01*
X127749997Y-102341890D01*
X127733879Y-102311736D01*
X127723955Y-102279024D01*
X127720000Y-102238862D01*
X127720000Y-101651138D01*
X127723955Y-101610976D01*
X127733879Y-101578264D01*
X127749997Y-101548110D01*
X127771684Y-101521684D01*
X127798110Y-101499997D01*
X127828264Y-101483879D01*
X127860976Y-101473955D01*
X127901138Y-101470000D01*
X128588862Y-101470000D01*
X128629024Y-101473955D01*
X128629024Y-101473955D01*
G37*
G36*
X134379024Y-101473955D02*
X134411736Y-101483879D01*
X134441890Y-101499997D01*
X134468316Y-101521684D01*
X134490003Y-101548110D01*
X134506121Y-101578264D01*
X134516045Y-101610976D01*
X134520000Y-101651138D01*
X134520000Y-102238862D01*
X134516045Y-102279024D01*
X134506121Y-102311736D01*
X134490003Y-102341890D01*
X134468316Y-102368316D01*
X134441890Y-102390003D01*
X134411736Y-102406121D01*
X134379024Y-102416045D01*
X134338862Y-102420000D01*
X133651138Y-102420000D01*
X133610976Y-102416045D01*
X133578264Y-102406121D01*
X133548110Y-102390003D01*
X133521684Y-102368316D01*
X133499997Y-102341890D01*
X133483879Y-102311736D01*
X133473955Y-102279024D01*
X133470000Y-102238862D01*
X133470000Y-101651138D01*
X133473955Y-101610976D01*
X133483879Y-101578264D01*
X133499997Y-101548110D01*
X133521684Y-101521684D01*
X133548110Y-101499997D01*
X133578264Y-101483879D01*
X133610976Y-101473955D01*
X133651138Y-101470000D01*
X134338862Y-101470000D01*
X134379024Y-101473955D01*
X134379024Y-101473955D01*
G37*
G36*
X132629024Y-101473955D02*
X132661736Y-101483879D01*
X132691890Y-101499997D01*
X132718316Y-101521684D01*
X132740003Y-101548110D01*
X132756121Y-101578264D01*
X132766045Y-101610976D01*
X132770000Y-101651138D01*
X132770000Y-102238862D01*
X132766045Y-102279024D01*
X132756121Y-102311736D01*
X132740003Y-102341890D01*
X132718316Y-102368316D01*
X132691890Y-102390003D01*
X132661736Y-102406121D01*
X132629024Y-102416045D01*
X132588862Y-102420000D01*
X131901138Y-102420000D01*
X131860976Y-102416045D01*
X131828264Y-102406121D01*
X131798110Y-102390003D01*
X131771684Y-102368316D01*
X131749997Y-102341890D01*
X131733879Y-102311736D01*
X131723955Y-102279024D01*
X131720000Y-102238862D01*
X131720000Y-101651138D01*
X131723955Y-101610976D01*
X131733879Y-101578264D01*
X131749997Y-101548110D01*
X131771684Y-101521684D01*
X131798110Y-101499997D01*
X131828264Y-101483879D01*
X131860976Y-101473955D01*
X131901138Y-101470000D01*
X132588862Y-101470000D01*
X132629024Y-101473955D01*
X132629024Y-101473955D01*
G37*
G36*
X153629024Y-100873955D02*
X153661736Y-100883879D01*
X153691890Y-100899997D01*
X153718316Y-100921684D01*
X153740003Y-100948110D01*
X153756121Y-100978264D01*
X153766045Y-101010976D01*
X153770000Y-101051138D01*
X153770000Y-101638862D01*
X153766045Y-101679024D01*
X153756121Y-101711736D01*
X153740003Y-101741890D01*
X153718316Y-101768316D01*
X153691890Y-101790003D01*
X153661736Y-101806121D01*
X153629024Y-101816045D01*
X153588862Y-101820000D01*
X152901138Y-101820000D01*
X152860976Y-101816045D01*
X152828264Y-101806121D01*
X152798110Y-101790003D01*
X152771684Y-101768316D01*
X152749997Y-101741890D01*
X152733879Y-101711736D01*
X152723955Y-101679024D01*
X152720000Y-101638862D01*
X152720000Y-101051138D01*
X152723955Y-101010976D01*
X152733879Y-100978264D01*
X152749997Y-100948110D01*
X152771684Y-100921684D01*
X152798110Y-100899997D01*
X152828264Y-100883879D01*
X152860976Y-100873955D01*
X152901138Y-100870000D01*
X153588862Y-100870000D01*
X153629024Y-100873955D01*
X153629024Y-100873955D01*
G37*
G36*
X151879024Y-100873955D02*
X151911736Y-100883879D01*
X151941890Y-100899997D01*
X151968316Y-100921684D01*
X151990003Y-100948110D01*
X152006121Y-100978264D01*
X152016045Y-101010976D01*
X152020000Y-101051138D01*
X152020000Y-101638862D01*
X152016045Y-101679024D01*
X152006121Y-101711736D01*
X151990003Y-101741890D01*
X151968316Y-101768316D01*
X151941890Y-101790003D01*
X151911736Y-101806121D01*
X151879024Y-101816045D01*
X151838862Y-101820000D01*
X151151138Y-101820000D01*
X151110976Y-101816045D01*
X151078264Y-101806121D01*
X151048110Y-101790003D01*
X151021684Y-101768316D01*
X150999997Y-101741890D01*
X150983879Y-101711736D01*
X150973955Y-101679024D01*
X150970000Y-101638862D01*
X150970000Y-101051138D01*
X150973955Y-101010976D01*
X150983879Y-100978264D01*
X150999997Y-100948110D01*
X151021684Y-100921684D01*
X151048110Y-100899997D01*
X151078264Y-100883879D01*
X151110976Y-100873955D01*
X151151138Y-100870000D01*
X151838862Y-100870000D01*
X151879024Y-100873955D01*
X151879024Y-100873955D01*
G37*
G36*
X167496630Y-100087299D02*
X167656855Y-100135903D01*
X167804520Y-100214831D01*
X167933949Y-100321051D01*
X168040169Y-100450480D01*
X168119097Y-100598145D01*
X168167701Y-100758370D01*
X168184112Y-100925000D01*
X168167701Y-101091630D01*
X168119097Y-101251855D01*
X168040169Y-101399520D01*
X167933949Y-101528949D01*
X167804520Y-101635169D01*
X167656855Y-101714097D01*
X167496630Y-101762701D01*
X167371752Y-101775000D01*
X166988248Y-101775000D01*
X166863370Y-101762701D01*
X166703145Y-101714097D01*
X166555480Y-101635169D01*
X166426051Y-101528949D01*
X166319831Y-101399520D01*
X166240903Y-101251855D01*
X166192299Y-101091630D01*
X166175888Y-100925000D01*
X166192299Y-100758370D01*
X166240903Y-100598145D01*
X166319831Y-100450480D01*
X166426051Y-100321051D01*
X166555480Y-100214831D01*
X166703145Y-100135903D01*
X166863370Y-100087299D01*
X166988248Y-100075000D01*
X167371752Y-100075000D01*
X167496630Y-100087299D01*
X167496630Y-100087299D01*
G37*
G36*
X160233195Y-100222522D02*
X160282267Y-100232283D01*
X160420942Y-100289724D01*
X160545750Y-100373118D01*
X160651882Y-100479250D01*
X160651884Y-100479253D01*
X160735276Y-100604058D01*
X160792717Y-100742733D01*
X160802478Y-100791805D01*
X160822000Y-100889948D01*
X160822000Y-101040052D01*
X160792717Y-101187266D01*
X160735276Y-101325942D01*
X160651882Y-101450750D01*
X160545750Y-101556882D01*
X160545747Y-101556884D01*
X160420942Y-101640276D01*
X160282267Y-101697717D01*
X160233195Y-101707478D01*
X160135052Y-101727000D01*
X159984948Y-101727000D01*
X159886805Y-101707478D01*
X159837733Y-101697717D01*
X159699058Y-101640276D01*
X159574253Y-101556884D01*
X159574250Y-101556882D01*
X159468118Y-101450750D01*
X159384724Y-101325942D01*
X159327283Y-101187266D01*
X159298000Y-101040052D01*
X159298000Y-100889948D01*
X159317522Y-100791805D01*
X159327283Y-100742733D01*
X159384724Y-100604058D01*
X159468116Y-100479253D01*
X159468118Y-100479250D01*
X159574250Y-100373118D01*
X159699058Y-100289724D01*
X159837733Y-100232283D01*
X159886805Y-100222522D01*
X159984948Y-100203000D01*
X160135052Y-100203000D01*
X160233195Y-100222522D01*
X160233195Y-100222522D01*
G37*
G36*
X137373195Y-100222522D02*
X137422267Y-100232283D01*
X137560942Y-100289724D01*
X137685750Y-100373118D01*
X137791882Y-100479250D01*
X137791884Y-100479253D01*
X137875276Y-100604058D01*
X137932717Y-100742733D01*
X137942478Y-100791805D01*
X137962000Y-100889948D01*
X137962000Y-101040052D01*
X137932717Y-101187266D01*
X137875276Y-101325942D01*
X137791882Y-101450750D01*
X137685750Y-101556882D01*
X137685747Y-101556884D01*
X137560942Y-101640276D01*
X137422267Y-101697717D01*
X137373195Y-101707478D01*
X137275052Y-101727000D01*
X137124948Y-101727000D01*
X137026805Y-101707478D01*
X136977733Y-101697717D01*
X136839058Y-101640276D01*
X136714253Y-101556884D01*
X136714250Y-101556882D01*
X136608118Y-101450750D01*
X136524724Y-101325942D01*
X136467283Y-101187266D01*
X136438000Y-101040052D01*
X136438000Y-100889948D01*
X136457522Y-100791805D01*
X136467283Y-100742733D01*
X136524724Y-100604058D01*
X136608116Y-100479253D01*
X136608118Y-100479250D01*
X136714250Y-100373118D01*
X136839058Y-100289724D01*
X136977733Y-100232283D01*
X137026805Y-100222522D01*
X137124948Y-100203000D01*
X137275052Y-100203000D01*
X137373195Y-100222522D01*
X137373195Y-100222522D01*
G37*
G36*
X126000000Y-99970000D02*
X124440000Y-99970000D01*
X124440000Y-99320000D01*
X126000000Y-99320000D01*
X126000000Y-99970000D01*
X126000000Y-99970000D01*
G37*
G36*
X123300000Y-99970000D02*
X121740000Y-99970000D01*
X121740000Y-99320000D01*
X123300000Y-99320000D01*
X123300000Y-99970000D01*
X123300000Y-99970000D01*
G37*
G36*
X119704024Y-98798955D02*
X119736736Y-98808879D01*
X119766890Y-98824997D01*
X119793316Y-98846684D01*
X119815003Y-98873110D01*
X119831121Y-98903264D01*
X119841045Y-98935976D01*
X119845000Y-98976138D01*
X119845000Y-99663862D01*
X119841045Y-99704024D01*
X119831121Y-99736736D01*
X119815003Y-99766890D01*
X119793316Y-99793316D01*
X119766890Y-99815003D01*
X119736736Y-99831121D01*
X119704024Y-99841045D01*
X119663862Y-99845000D01*
X119076138Y-99845000D01*
X119035976Y-99841045D01*
X119003264Y-99831121D01*
X118973110Y-99815003D01*
X118946684Y-99793316D01*
X118924997Y-99766890D01*
X118908879Y-99736736D01*
X118898955Y-99704024D01*
X118895000Y-99663862D01*
X118895000Y-98976138D01*
X118898955Y-98935976D01*
X118908879Y-98903264D01*
X118924997Y-98873110D01*
X118946684Y-98846684D01*
X118973110Y-98824997D01*
X119003264Y-98808879D01*
X119035976Y-98798955D01*
X119076138Y-98795000D01*
X119663862Y-98795000D01*
X119704024Y-98798955D01*
X119704024Y-98798955D01*
G37*
G36*
X117925522Y-98649039D02*
X117959053Y-98659211D01*
X117989960Y-98675731D01*
X118017043Y-98697957D01*
X118039269Y-98725040D01*
X118055789Y-98755947D01*
X118065961Y-98789478D01*
X118070000Y-98830487D01*
X118070000Y-99609513D01*
X118065961Y-99650522D01*
X118055789Y-99684053D01*
X118039269Y-99714960D01*
X118017043Y-99742043D01*
X117989960Y-99764269D01*
X117959053Y-99780789D01*
X117925522Y-99790961D01*
X117884513Y-99795000D01*
X116855487Y-99795000D01*
X116814478Y-99790961D01*
X116780947Y-99780789D01*
X116750040Y-99764269D01*
X116722957Y-99742043D01*
X116700731Y-99714960D01*
X116684211Y-99684053D01*
X116674039Y-99650522D01*
X116670000Y-99609513D01*
X116670000Y-98830487D01*
X116674039Y-98789478D01*
X116684211Y-98755947D01*
X116700731Y-98725040D01*
X116722957Y-98697957D01*
X116750040Y-98675731D01*
X116780947Y-98659211D01*
X116814478Y-98649039D01*
X116855487Y-98645000D01*
X117884513Y-98645000D01*
X117925522Y-98649039D01*
X117925522Y-98649039D01*
G37*
G36*
X147270000Y-99557500D02*
X143820000Y-99557500D01*
X143820000Y-97407500D01*
X147270000Y-97407500D01*
X147270000Y-99557500D01*
X147270000Y-99557500D01*
G37*
G36*
X168049675Y-97578701D02*
X168079907Y-97587872D01*
X168107769Y-97602765D01*
X168132192Y-97622808D01*
X168152235Y-97647231D01*
X168167128Y-97675093D01*
X168176299Y-97705325D01*
X168180000Y-97742905D01*
X168180000Y-99107095D01*
X168176299Y-99144675D01*
X168167128Y-99174907D01*
X168152235Y-99202769D01*
X168132192Y-99227192D01*
X168107769Y-99247235D01*
X168079907Y-99262128D01*
X168049675Y-99271299D01*
X168012095Y-99275000D01*
X166347905Y-99275000D01*
X166310325Y-99271299D01*
X166280093Y-99262128D01*
X166252231Y-99247235D01*
X166227808Y-99227192D01*
X166207765Y-99202769D01*
X166192872Y-99174907D01*
X166183701Y-99144675D01*
X166180000Y-99107095D01*
X166180000Y-97742905D01*
X166183701Y-97705325D01*
X166192872Y-97675093D01*
X166207765Y-97647231D01*
X166227808Y-97622808D01*
X166252231Y-97602765D01*
X166280093Y-97587872D01*
X166310325Y-97578701D01*
X166347905Y-97575000D01*
X168012095Y-97575000D01*
X168049675Y-97578701D01*
X168049675Y-97578701D01*
G37*
G36*
X153629024Y-98273955D02*
X153661736Y-98283879D01*
X153691890Y-98299997D01*
X153718316Y-98321684D01*
X153740003Y-98348110D01*
X153756121Y-98378264D01*
X153766045Y-98410976D01*
X153770000Y-98451138D01*
X153770000Y-99038862D01*
X153766045Y-99079024D01*
X153756121Y-99111736D01*
X153740003Y-99141890D01*
X153718316Y-99168316D01*
X153691890Y-99190003D01*
X153661736Y-99206121D01*
X153629024Y-99216045D01*
X153588862Y-99220000D01*
X152901138Y-99220000D01*
X152860976Y-99216045D01*
X152828264Y-99206121D01*
X152798110Y-99190003D01*
X152771684Y-99168316D01*
X152749997Y-99141890D01*
X152733879Y-99111736D01*
X152723955Y-99079024D01*
X152720000Y-99038862D01*
X152720000Y-98451138D01*
X152723955Y-98410976D01*
X152733879Y-98378264D01*
X152749997Y-98348110D01*
X152771684Y-98321684D01*
X152798110Y-98299997D01*
X152828264Y-98283879D01*
X152860976Y-98273955D01*
X152901138Y-98270000D01*
X153588862Y-98270000D01*
X153629024Y-98273955D01*
X153629024Y-98273955D01*
G37*
G36*
X151879024Y-98273955D02*
X151911736Y-98283879D01*
X151941890Y-98299997D01*
X151968316Y-98321684D01*
X151990003Y-98348110D01*
X152006121Y-98378264D01*
X152016045Y-98410976D01*
X152020000Y-98451138D01*
X152020000Y-99038862D01*
X152016045Y-99079024D01*
X152006121Y-99111736D01*
X151990003Y-99141890D01*
X151968316Y-99168316D01*
X151941890Y-99190003D01*
X151911736Y-99206121D01*
X151879024Y-99216045D01*
X151838862Y-99220000D01*
X151151138Y-99220000D01*
X151110976Y-99216045D01*
X151078264Y-99206121D01*
X151048110Y-99190003D01*
X151021684Y-99168316D01*
X150999997Y-99141890D01*
X150983879Y-99111736D01*
X150973955Y-99079024D01*
X150970000Y-99038862D01*
X150970000Y-98451138D01*
X150973955Y-98410976D01*
X150983879Y-98378264D01*
X150999997Y-98348110D01*
X151021684Y-98321684D01*
X151048110Y-98299997D01*
X151078264Y-98283879D01*
X151110976Y-98273955D01*
X151151138Y-98270000D01*
X151838862Y-98270000D01*
X151879024Y-98273955D01*
X151879024Y-98273955D01*
G37*
G36*
X160233195Y-97682522D02*
X160282267Y-97692283D01*
X160397939Y-97740196D01*
X160420942Y-97749724D01*
X160545750Y-97833118D01*
X160651882Y-97939250D01*
X160651884Y-97939253D01*
X160735276Y-98064058D01*
X160792717Y-98202733D01*
X160822000Y-98349950D01*
X160822000Y-98500050D01*
X160792717Y-98647267D01*
X160763326Y-98718223D01*
X160735276Y-98785942D01*
X160651882Y-98910750D01*
X160545750Y-99016882D01*
X160545747Y-99016884D01*
X160420942Y-99100276D01*
X160282267Y-99157717D01*
X160233195Y-99167478D01*
X160135052Y-99187000D01*
X159984948Y-99187000D01*
X159886805Y-99167478D01*
X159837733Y-99157717D01*
X159699058Y-99100276D01*
X159574253Y-99016884D01*
X159574250Y-99016882D01*
X159468118Y-98910750D01*
X159384724Y-98785942D01*
X159356674Y-98718223D01*
X159327283Y-98647267D01*
X159298000Y-98500050D01*
X159298000Y-98349950D01*
X159327283Y-98202733D01*
X159384724Y-98064058D01*
X159468116Y-97939253D01*
X159468118Y-97939250D01*
X159574250Y-97833118D01*
X159699058Y-97749724D01*
X159722061Y-97740196D01*
X159837733Y-97692283D01*
X159886805Y-97682522D01*
X159984948Y-97663000D01*
X160135052Y-97663000D01*
X160233195Y-97682522D01*
X160233195Y-97682522D01*
G37*
G36*
X137373195Y-97682522D02*
X137422267Y-97692283D01*
X137537939Y-97740196D01*
X137560942Y-97749724D01*
X137685750Y-97833118D01*
X137791882Y-97939250D01*
X137791884Y-97939253D01*
X137875276Y-98064058D01*
X137932717Y-98202733D01*
X137962000Y-98349950D01*
X137962000Y-98500050D01*
X137932717Y-98647267D01*
X137903326Y-98718223D01*
X137875276Y-98785942D01*
X137791882Y-98910750D01*
X137685750Y-99016882D01*
X137685747Y-99016884D01*
X137560942Y-99100276D01*
X137422267Y-99157717D01*
X137373195Y-99167478D01*
X137275052Y-99187000D01*
X137124948Y-99187000D01*
X137026805Y-99167478D01*
X136977733Y-99157717D01*
X136839058Y-99100276D01*
X136714253Y-99016884D01*
X136714250Y-99016882D01*
X136608118Y-98910750D01*
X136524724Y-98785942D01*
X136496674Y-98718223D01*
X136467283Y-98647267D01*
X136438000Y-98500050D01*
X136438000Y-98349950D01*
X136467283Y-98202733D01*
X136524724Y-98064058D01*
X136608116Y-97939253D01*
X136608118Y-97939250D01*
X136714250Y-97833118D01*
X136839058Y-97749724D01*
X136862061Y-97740196D01*
X136977733Y-97692283D01*
X137026805Y-97682522D01*
X137124948Y-97663000D01*
X137275052Y-97663000D01*
X137373195Y-97682522D01*
X137373195Y-97682522D01*
G37*
G36*
X126000000Y-99020000D02*
X124440000Y-99020000D01*
X124440000Y-98370000D01*
X126000000Y-98370000D01*
X126000000Y-99020000D01*
X126000000Y-99020000D01*
G37*
G36*
X119704024Y-97048955D02*
X119736736Y-97058879D01*
X119766890Y-97074997D01*
X119793316Y-97096684D01*
X119815003Y-97123110D01*
X119831121Y-97153264D01*
X119841045Y-97185976D01*
X119845000Y-97226138D01*
X119845000Y-97913862D01*
X119841045Y-97954024D01*
X119831121Y-97986736D01*
X119815003Y-98016890D01*
X119793316Y-98043316D01*
X119766890Y-98065003D01*
X119736736Y-98081121D01*
X119704024Y-98091045D01*
X119663862Y-98095000D01*
X119076138Y-98095000D01*
X119035976Y-98091045D01*
X119003264Y-98081121D01*
X118973110Y-98065003D01*
X118946684Y-98043316D01*
X118924997Y-98016890D01*
X118908879Y-97986736D01*
X118898955Y-97954024D01*
X118895000Y-97913862D01*
X118895000Y-97226138D01*
X118898955Y-97185976D01*
X118908879Y-97153264D01*
X118924997Y-97123110D01*
X118946684Y-97096684D01*
X118973110Y-97074997D01*
X119003264Y-97058879D01*
X119035976Y-97048955D01*
X119076138Y-97045000D01*
X119663862Y-97045000D01*
X119704024Y-97048955D01*
X119704024Y-97048955D01*
G37*
G36*
X123300000Y-98070000D02*
X121740000Y-98070000D01*
X121740000Y-97420000D01*
X123300000Y-97420000D01*
X123300000Y-98070000D01*
X123300000Y-98070000D01*
G37*
G36*
X126000000Y-98070000D02*
X124440000Y-98070000D01*
X124440000Y-97420000D01*
X126000000Y-97420000D01*
X126000000Y-98070000D01*
X126000000Y-98070000D01*
G37*
G36*
X117925522Y-96599039D02*
X117959053Y-96609211D01*
X117989960Y-96625731D01*
X118017043Y-96647957D01*
X118039269Y-96675040D01*
X118055789Y-96705947D01*
X118065961Y-96739478D01*
X118070000Y-96780487D01*
X118070000Y-97559513D01*
X118065961Y-97600522D01*
X118055789Y-97634053D01*
X118039269Y-97664960D01*
X118017043Y-97692043D01*
X117989960Y-97714269D01*
X117959053Y-97730789D01*
X117925522Y-97740961D01*
X117884513Y-97745000D01*
X116855487Y-97745000D01*
X116814478Y-97740961D01*
X116780947Y-97730789D01*
X116750040Y-97714269D01*
X116722957Y-97692043D01*
X116700731Y-97664960D01*
X116684211Y-97634053D01*
X116674039Y-97600522D01*
X116670000Y-97559513D01*
X116670000Y-96780487D01*
X116674039Y-96739478D01*
X116684211Y-96705947D01*
X116700731Y-96675040D01*
X116722957Y-96647957D01*
X116750040Y-96625731D01*
X116780947Y-96609211D01*
X116814478Y-96599039D01*
X116855487Y-96595000D01*
X117884513Y-96595000D01*
X117925522Y-96599039D01*
X117925522Y-96599039D01*
G37*
G36*
X132246630Y-95047299D02*
X132406855Y-95095903D01*
X132554520Y-95174831D01*
X132683949Y-95281051D01*
X132790169Y-95410480D01*
X132869097Y-95558145D01*
X132917701Y-95718370D01*
X132934112Y-95885000D01*
X132917701Y-96051630D01*
X132869097Y-96211855D01*
X132790169Y-96359520D01*
X132683949Y-96488949D01*
X132554520Y-96595169D01*
X132406855Y-96674097D01*
X132246630Y-96722701D01*
X132121752Y-96735000D01*
X132038248Y-96735000D01*
X131913370Y-96722701D01*
X131753145Y-96674097D01*
X131605480Y-96595169D01*
X131476051Y-96488949D01*
X131369831Y-96359520D01*
X131290903Y-96211855D01*
X131242299Y-96051630D01*
X131225888Y-95885000D01*
X131242299Y-95718370D01*
X131290903Y-95558145D01*
X131369831Y-95410480D01*
X131476051Y-95281051D01*
X131605480Y-95174831D01*
X131753145Y-95095903D01*
X131913370Y-95047299D01*
X132038248Y-95035000D01*
X132121752Y-95035000D01*
X132246630Y-95047299D01*
X132246630Y-95047299D01*
G37*
G36*
X130390000Y-96735000D02*
X128690000Y-96735000D01*
X128690000Y-95035000D01*
X130390000Y-95035000D01*
X130390000Y-96735000D01*
X130390000Y-96735000D01*
G37*
G36*
X160233195Y-95142522D02*
X160282267Y-95152283D01*
X160336705Y-95174832D01*
X160420942Y-95209724D01*
X160545750Y-95293118D01*
X160651882Y-95399250D01*
X160651884Y-95399253D01*
X160735276Y-95524058D01*
X160792717Y-95662733D01*
X160822000Y-95809950D01*
X160822000Y-95960050D01*
X160792717Y-96107267D01*
X160749395Y-96211855D01*
X160735276Y-96245942D01*
X160651882Y-96370750D01*
X160545750Y-96476882D01*
X160545747Y-96476884D01*
X160420942Y-96560276D01*
X160282267Y-96617717D01*
X160233195Y-96627478D01*
X160135052Y-96647000D01*
X159984948Y-96647000D01*
X159886805Y-96627478D01*
X159837733Y-96617717D01*
X159699058Y-96560276D01*
X159574253Y-96476884D01*
X159574250Y-96476882D01*
X159468118Y-96370750D01*
X159384724Y-96245942D01*
X159370605Y-96211855D01*
X159327283Y-96107267D01*
X159298000Y-95960050D01*
X159298000Y-95809950D01*
X159327283Y-95662733D01*
X159384724Y-95524058D01*
X159468116Y-95399253D01*
X159468118Y-95399250D01*
X159574250Y-95293118D01*
X159699058Y-95209724D01*
X159783295Y-95174832D01*
X159837733Y-95152283D01*
X159886805Y-95142522D01*
X159984948Y-95123000D01*
X160135052Y-95123000D01*
X160233195Y-95142522D01*
X160233195Y-95142522D01*
G37*
G36*
X137373195Y-95142522D02*
X137422267Y-95152283D01*
X137476705Y-95174832D01*
X137560942Y-95209724D01*
X137685750Y-95293118D01*
X137791882Y-95399250D01*
X137791884Y-95399253D01*
X137875276Y-95524058D01*
X137932717Y-95662733D01*
X137962000Y-95809950D01*
X137962000Y-95960050D01*
X137932717Y-96107267D01*
X137889395Y-96211855D01*
X137875276Y-96245942D01*
X137791882Y-96370750D01*
X137685750Y-96476882D01*
X137685747Y-96476884D01*
X137560942Y-96560276D01*
X137422267Y-96617717D01*
X137373195Y-96627478D01*
X137275052Y-96647000D01*
X137124948Y-96647000D01*
X137026805Y-96627478D01*
X136977733Y-96617717D01*
X136839058Y-96560276D01*
X136714253Y-96476884D01*
X136714250Y-96476882D01*
X136608118Y-96370750D01*
X136524724Y-96245942D01*
X136510605Y-96211855D01*
X136467283Y-96107267D01*
X136438000Y-95960050D01*
X136438000Y-95809950D01*
X136467283Y-95662733D01*
X136524724Y-95524058D01*
X136608116Y-95399253D01*
X136608118Y-95399250D01*
X136714250Y-95293118D01*
X136839058Y-95209724D01*
X136923295Y-95174832D01*
X136977733Y-95152283D01*
X137026805Y-95142522D01*
X137124948Y-95123000D01*
X137275052Y-95123000D01*
X137373195Y-95142522D01*
X137373195Y-95142522D01*
G37*
G36*
X125629024Y-95473955D02*
X125661736Y-95483879D01*
X125691890Y-95499997D01*
X125718316Y-95521684D01*
X125740003Y-95548110D01*
X125756121Y-95578264D01*
X125766045Y-95610976D01*
X125770000Y-95651138D01*
X125770000Y-96238862D01*
X125766045Y-96279024D01*
X125756121Y-96311736D01*
X125740003Y-96341890D01*
X125718316Y-96368316D01*
X125691890Y-96390003D01*
X125661736Y-96406121D01*
X125629024Y-96416045D01*
X125588862Y-96420000D01*
X124901138Y-96420000D01*
X124860976Y-96416045D01*
X124828264Y-96406121D01*
X124798110Y-96390003D01*
X124771684Y-96368316D01*
X124749997Y-96341890D01*
X124733879Y-96311736D01*
X124723955Y-96279024D01*
X124720000Y-96238862D01*
X124720000Y-95651138D01*
X124723955Y-95610976D01*
X124733879Y-95578264D01*
X124749997Y-95548110D01*
X124771684Y-95521684D01*
X124798110Y-95499997D01*
X124828264Y-95483879D01*
X124860976Y-95473955D01*
X124901138Y-95470000D01*
X125588862Y-95470000D01*
X125629024Y-95473955D01*
X125629024Y-95473955D01*
G37*
G36*
X127379024Y-95473955D02*
X127411736Y-95483879D01*
X127441890Y-95499997D01*
X127468316Y-95521684D01*
X127490003Y-95548110D01*
X127506121Y-95578264D01*
X127516045Y-95610976D01*
X127520000Y-95651138D01*
X127520000Y-96238862D01*
X127516045Y-96279024D01*
X127506121Y-96311736D01*
X127490003Y-96341890D01*
X127468316Y-96368316D01*
X127441890Y-96390003D01*
X127411736Y-96406121D01*
X127379024Y-96416045D01*
X127338862Y-96420000D01*
X126651138Y-96420000D01*
X126610976Y-96416045D01*
X126578264Y-96406121D01*
X126548110Y-96390003D01*
X126521684Y-96368316D01*
X126499997Y-96341890D01*
X126483879Y-96311736D01*
X126473955Y-96279024D01*
X126470000Y-96238862D01*
X126470000Y-95651138D01*
X126473955Y-95610976D01*
X126483879Y-95578264D01*
X126499997Y-95548110D01*
X126521684Y-95521684D01*
X126548110Y-95499997D01*
X126578264Y-95483879D01*
X126610976Y-95473955D01*
X126651138Y-95470000D01*
X127338862Y-95470000D01*
X127379024Y-95473955D01*
X127379024Y-95473955D01*
G37*
G36*
X143379024Y-93473955D02*
X143411736Y-93483879D01*
X143441890Y-93499997D01*
X143468316Y-93521684D01*
X143490003Y-93548110D01*
X143506121Y-93578264D01*
X143516045Y-93610976D01*
X143520000Y-93651138D01*
X143520000Y-94238862D01*
X143516045Y-94279024D01*
X143506121Y-94311736D01*
X143490003Y-94341890D01*
X143468316Y-94368316D01*
X143441890Y-94390003D01*
X143411736Y-94406121D01*
X143379024Y-94416045D01*
X143338862Y-94420000D01*
X142651138Y-94420000D01*
X142610976Y-94416045D01*
X142578264Y-94406121D01*
X142548110Y-94390003D01*
X142521684Y-94368316D01*
X142499997Y-94341890D01*
X142483879Y-94311736D01*
X142473955Y-94279024D01*
X142470000Y-94238862D01*
X142470000Y-93651138D01*
X142473955Y-93610976D01*
X142483879Y-93578264D01*
X142499997Y-93548110D01*
X142521684Y-93521684D01*
X142548110Y-93499997D01*
X142578264Y-93483879D01*
X142610976Y-93473955D01*
X142651138Y-93470000D01*
X143338862Y-93470000D01*
X143379024Y-93473955D01*
X143379024Y-93473955D01*
G37*
G36*
X148129024Y-93473955D02*
X148161736Y-93483879D01*
X148191890Y-93499997D01*
X148218316Y-93521684D01*
X148240003Y-93548110D01*
X148256121Y-93578264D01*
X148266045Y-93610976D01*
X148270000Y-93651138D01*
X148270000Y-94238862D01*
X148266045Y-94279024D01*
X148256121Y-94311736D01*
X148240003Y-94341890D01*
X148218316Y-94368316D01*
X148191890Y-94390003D01*
X148161736Y-94406121D01*
X148129024Y-94416045D01*
X148088862Y-94420000D01*
X147401138Y-94420000D01*
X147360976Y-94416045D01*
X147328264Y-94406121D01*
X147298110Y-94390003D01*
X147271684Y-94368316D01*
X147249997Y-94341890D01*
X147233879Y-94311736D01*
X147223955Y-94279024D01*
X147220000Y-94238862D01*
X147220000Y-93651138D01*
X147223955Y-93610976D01*
X147233879Y-93578264D01*
X147249997Y-93548110D01*
X147271684Y-93521684D01*
X147298110Y-93499997D01*
X147328264Y-93483879D01*
X147360976Y-93473955D01*
X147401138Y-93470000D01*
X148088862Y-93470000D01*
X148129024Y-93473955D01*
X148129024Y-93473955D01*
G37*
G36*
X145129024Y-93473955D02*
X145161736Y-93483879D01*
X145191890Y-93499997D01*
X145218316Y-93521684D01*
X145240003Y-93548110D01*
X145256121Y-93578264D01*
X145266045Y-93610976D01*
X145270000Y-93651138D01*
X145270000Y-94238862D01*
X145266045Y-94279024D01*
X145256121Y-94311736D01*
X145240003Y-94341890D01*
X145218316Y-94368316D01*
X145191890Y-94390003D01*
X145161736Y-94406121D01*
X145129024Y-94416045D01*
X145088862Y-94420000D01*
X144401138Y-94420000D01*
X144360976Y-94416045D01*
X144328264Y-94406121D01*
X144298110Y-94390003D01*
X144271684Y-94368316D01*
X144249997Y-94341890D01*
X144233879Y-94311736D01*
X144223955Y-94279024D01*
X144220000Y-94238862D01*
X144220000Y-93651138D01*
X144223955Y-93610976D01*
X144233879Y-93578264D01*
X144249997Y-93548110D01*
X144271684Y-93521684D01*
X144298110Y-93499997D01*
X144328264Y-93483879D01*
X144360976Y-93473955D01*
X144401138Y-93470000D01*
X145088862Y-93470000D01*
X145129024Y-93473955D01*
X145129024Y-93473955D01*
G37*
G36*
X149879024Y-93473955D02*
X149911736Y-93483879D01*
X149941890Y-93499997D01*
X149968316Y-93521684D01*
X149990003Y-93548110D01*
X150006121Y-93578264D01*
X150016045Y-93610976D01*
X150020000Y-93651138D01*
X150020000Y-94238862D01*
X150016045Y-94279024D01*
X150006121Y-94311736D01*
X149990003Y-94341890D01*
X149968316Y-94368316D01*
X149941890Y-94390003D01*
X149911736Y-94406121D01*
X149879024Y-94416045D01*
X149838862Y-94420000D01*
X149151138Y-94420000D01*
X149110976Y-94416045D01*
X149078264Y-94406121D01*
X149048110Y-94390003D01*
X149021684Y-94368316D01*
X148999997Y-94341890D01*
X148983879Y-94311736D01*
X148973955Y-94279024D01*
X148970000Y-94238862D01*
X148970000Y-93651138D01*
X148973955Y-93610976D01*
X148983879Y-93578264D01*
X148999997Y-93548110D01*
X149021684Y-93521684D01*
X149048110Y-93499997D01*
X149078264Y-93483879D01*
X149110976Y-93473955D01*
X149151138Y-93470000D01*
X149838862Y-93470000D01*
X149879024Y-93473955D01*
X149879024Y-93473955D01*
G37*
G36*
X167496630Y-92467299D02*
X167656855Y-92515903D01*
X167804520Y-92594831D01*
X167933949Y-92701051D01*
X168040169Y-92830480D01*
X168119097Y-92978145D01*
X168167701Y-93138370D01*
X168184112Y-93305000D01*
X168167701Y-93471630D01*
X168119097Y-93631855D01*
X168040169Y-93779520D01*
X167933949Y-93908949D01*
X167804520Y-94015169D01*
X167656855Y-94094097D01*
X167496630Y-94142701D01*
X167371752Y-94155000D01*
X166988248Y-94155000D01*
X166863370Y-94142701D01*
X166703145Y-94094097D01*
X166555480Y-94015169D01*
X166426051Y-93908949D01*
X166319831Y-93779520D01*
X166240903Y-93631855D01*
X166192299Y-93471630D01*
X166175888Y-93305000D01*
X166192299Y-93138370D01*
X166240903Y-92978145D01*
X166319831Y-92830480D01*
X166426051Y-92701051D01*
X166555480Y-92594831D01*
X166703145Y-92515903D01*
X166863370Y-92467299D01*
X166988248Y-92455000D01*
X167371752Y-92455000D01*
X167496630Y-92467299D01*
X167496630Y-92467299D01*
G37*
G36*
X160233195Y-92602522D02*
X160282267Y-92612283D01*
X160420942Y-92669724D01*
X160545750Y-92753118D01*
X160651882Y-92859250D01*
X160651884Y-92859253D01*
X160735276Y-92984058D01*
X160792717Y-93122733D01*
X160802478Y-93171805D01*
X160822000Y-93269948D01*
X160822000Y-93420052D01*
X160811740Y-93471630D01*
X160792717Y-93567267D01*
X160753823Y-93661166D01*
X160735276Y-93705942D01*
X160651882Y-93830750D01*
X160545750Y-93936882D01*
X160545747Y-93936884D01*
X160420942Y-94020276D01*
X160282267Y-94077717D01*
X160233195Y-94087478D01*
X160135052Y-94107000D01*
X159984948Y-94107000D01*
X159886805Y-94087478D01*
X159837733Y-94077717D01*
X159699058Y-94020276D01*
X159574253Y-93936884D01*
X159574250Y-93936882D01*
X159468118Y-93830750D01*
X159384724Y-93705942D01*
X159366177Y-93661166D01*
X159327283Y-93567267D01*
X159308260Y-93471630D01*
X159298000Y-93420052D01*
X159298000Y-93269948D01*
X159317522Y-93171805D01*
X159327283Y-93122733D01*
X159384724Y-92984058D01*
X159468116Y-92859253D01*
X159468118Y-92859250D01*
X159574250Y-92753118D01*
X159699058Y-92669724D01*
X159837733Y-92612283D01*
X159886805Y-92602522D01*
X159984948Y-92583000D01*
X160135052Y-92583000D01*
X160233195Y-92602522D01*
X160233195Y-92602522D01*
G37*
G36*
X137373195Y-92602522D02*
X137422267Y-92612283D01*
X137560942Y-92669724D01*
X137685750Y-92753118D01*
X137791882Y-92859250D01*
X137791884Y-92859253D01*
X137875276Y-92984058D01*
X137932717Y-93122733D01*
X137942478Y-93171805D01*
X137962000Y-93269948D01*
X137962000Y-93420052D01*
X137951740Y-93471630D01*
X137932717Y-93567267D01*
X137893823Y-93661166D01*
X137875276Y-93705942D01*
X137791882Y-93830750D01*
X137685750Y-93936882D01*
X137685747Y-93936884D01*
X137560942Y-94020276D01*
X137422267Y-94077717D01*
X137373195Y-94087478D01*
X137275052Y-94107000D01*
X137124948Y-94107000D01*
X137026805Y-94087478D01*
X136977733Y-94077717D01*
X136839058Y-94020276D01*
X136714253Y-93936884D01*
X136714250Y-93936882D01*
X136608118Y-93830750D01*
X136524724Y-93705942D01*
X136506177Y-93661166D01*
X136467283Y-93567267D01*
X136448260Y-93471630D01*
X136438000Y-93420052D01*
X136438000Y-93269948D01*
X136457522Y-93171805D01*
X136467283Y-93122733D01*
X136524724Y-92984058D01*
X136608116Y-92859253D01*
X136608118Y-92859250D01*
X136714250Y-92753118D01*
X136839058Y-92669724D01*
X136977733Y-92612283D01*
X137026805Y-92602522D01*
X137124948Y-92583000D01*
X137275052Y-92583000D01*
X137373195Y-92602522D01*
X137373195Y-92602522D01*
G37*
G36*
X149970000Y-92395000D02*
X149170000Y-92395000D01*
X149170000Y-91495000D01*
X149970000Y-91495000D01*
X149970000Y-92395000D01*
X149970000Y-92395000D01*
G37*
G36*
X145220000Y-92395000D02*
X144420000Y-92395000D01*
X144420000Y-91495000D01*
X145220000Y-91495000D01*
X145220000Y-92395000D01*
X145220000Y-92395000D01*
G37*
G36*
X143320000Y-92395000D02*
X142520000Y-92395000D01*
X142520000Y-91495000D01*
X143320000Y-91495000D01*
X143320000Y-92395000D01*
X143320000Y-92395000D01*
G37*
G36*
X148070000Y-92395000D02*
X147270000Y-92395000D01*
X147270000Y-91495000D01*
X148070000Y-91495000D01*
X148070000Y-92395000D01*
X148070000Y-92395000D01*
G37*
G36*
X168049675Y-89958701D02*
X168079907Y-89967872D01*
X168107769Y-89982765D01*
X168132192Y-90002808D01*
X168152235Y-90027231D01*
X168167128Y-90055093D01*
X168176299Y-90085325D01*
X168180000Y-90122905D01*
X168180000Y-91487095D01*
X168176299Y-91524675D01*
X168167128Y-91554907D01*
X168152235Y-91582769D01*
X168132192Y-91607192D01*
X168107769Y-91627235D01*
X168079907Y-91642128D01*
X168049675Y-91651299D01*
X168012095Y-91655000D01*
X166347905Y-91655000D01*
X166310325Y-91651299D01*
X166280093Y-91642128D01*
X166252231Y-91627235D01*
X166227808Y-91607192D01*
X166207765Y-91582769D01*
X166192872Y-91554907D01*
X166183701Y-91524675D01*
X166180000Y-91487095D01*
X166180000Y-90122905D01*
X166183701Y-90085325D01*
X166192872Y-90055093D01*
X166207765Y-90027231D01*
X166227808Y-90002808D01*
X166252231Y-89982765D01*
X166280093Y-89967872D01*
X166310325Y-89958701D01*
X166347905Y-89955000D01*
X168012095Y-89955000D01*
X168049675Y-89958701D01*
X168049675Y-89958701D01*
G37*
G36*
X137373195Y-90062522D02*
X137422267Y-90072283D01*
X137517259Y-90111630D01*
X137560942Y-90129724D01*
X137685750Y-90213118D01*
X137791882Y-90319250D01*
X137791884Y-90319253D01*
X137875276Y-90444058D01*
X137918723Y-90548948D01*
X137932717Y-90582734D01*
X137962000Y-90729948D01*
X137962000Y-90880052D01*
X137932717Y-91027266D01*
X137875276Y-91165942D01*
X137791882Y-91290750D01*
X137685750Y-91396882D01*
X137685747Y-91396884D01*
X137560942Y-91480276D01*
X137422267Y-91537717D01*
X137373195Y-91547478D01*
X137275052Y-91567000D01*
X137124948Y-91567000D01*
X137026805Y-91547478D01*
X136977733Y-91537717D01*
X136839058Y-91480276D01*
X136714253Y-91396884D01*
X136714250Y-91396882D01*
X136608118Y-91290750D01*
X136524724Y-91165942D01*
X136467283Y-91027266D01*
X136438000Y-90880052D01*
X136438000Y-90729948D01*
X136467283Y-90582734D01*
X136481278Y-90548948D01*
X136524724Y-90444058D01*
X136608116Y-90319253D01*
X136608118Y-90319250D01*
X136714250Y-90213118D01*
X136839058Y-90129724D01*
X136882741Y-90111630D01*
X136977733Y-90072283D01*
X137026805Y-90062522D01*
X137124948Y-90043000D01*
X137275052Y-90043000D01*
X137373195Y-90062522D01*
X137373195Y-90062522D01*
G37*
G36*
X160233195Y-90062522D02*
X160282267Y-90072283D01*
X160377259Y-90111630D01*
X160420942Y-90129724D01*
X160545750Y-90213118D01*
X160651882Y-90319250D01*
X160651884Y-90319253D01*
X160735276Y-90444058D01*
X160778723Y-90548948D01*
X160792717Y-90582734D01*
X160822000Y-90729948D01*
X160822000Y-90880052D01*
X160792717Y-91027266D01*
X160735276Y-91165942D01*
X160651882Y-91290750D01*
X160545750Y-91396882D01*
X160545747Y-91396884D01*
X160420942Y-91480276D01*
X160282267Y-91537717D01*
X160233195Y-91547478D01*
X160135052Y-91567000D01*
X159984948Y-91567000D01*
X159886805Y-91547478D01*
X159837733Y-91537717D01*
X159699058Y-91480276D01*
X159574253Y-91396884D01*
X159574250Y-91396882D01*
X159468118Y-91290750D01*
X159384724Y-91165942D01*
X159327283Y-91027266D01*
X159298000Y-90880052D01*
X159298000Y-90729948D01*
X159327283Y-90582734D01*
X159341278Y-90548948D01*
X159384724Y-90444058D01*
X159468116Y-90319253D01*
X159468118Y-90319250D01*
X159574250Y-90213118D01*
X159699058Y-90129724D01*
X159742741Y-90111630D01*
X159837733Y-90072283D01*
X159886805Y-90062522D01*
X159984948Y-90043000D01*
X160135052Y-90043000D01*
X160233195Y-90062522D01*
X160233195Y-90062522D01*
G37*
G36*
X119470000Y-90795000D02*
X117770000Y-90795000D01*
X117770000Y-89095000D01*
X119470000Y-89095000D01*
X119470000Y-90795000D01*
X119470000Y-90795000D01*
G37*
G36*
X132786630Y-89107299D02*
X132946855Y-89155903D01*
X133094520Y-89234831D01*
X133223949Y-89341051D01*
X133330169Y-89470480D01*
X133409097Y-89618145D01*
X133457701Y-89778370D01*
X133474112Y-89945000D01*
X133457701Y-90111630D01*
X133409097Y-90271855D01*
X133330169Y-90419520D01*
X133223949Y-90548949D01*
X133094520Y-90655169D01*
X132946855Y-90734097D01*
X132786630Y-90782701D01*
X132661752Y-90795000D01*
X132578248Y-90795000D01*
X132453370Y-90782701D01*
X132293145Y-90734097D01*
X132145480Y-90655169D01*
X132016051Y-90548949D01*
X131909831Y-90419520D01*
X131830903Y-90271855D01*
X131782299Y-90111630D01*
X131765888Y-89945000D01*
X131782299Y-89778370D01*
X131830903Y-89618145D01*
X131909831Y-89470480D01*
X132016051Y-89341051D01*
X132145480Y-89234831D01*
X132293145Y-89155903D01*
X132453370Y-89107299D01*
X132578248Y-89095000D01*
X132661752Y-89095000D01*
X132786630Y-89107299D01*
X132786630Y-89107299D01*
G37*
G36*
X144270000Y-90395000D02*
X143470000Y-90395000D01*
X143470000Y-89495000D01*
X144270000Y-89495000D01*
X144270000Y-90395000D01*
X144270000Y-90395000D01*
G37*
G36*
X149020000Y-90395000D02*
X148220000Y-90395000D01*
X148220000Y-89495000D01*
X149020000Y-89495000D01*
X149020000Y-90395000D01*
X149020000Y-90395000D01*
G37*
G36*
X160233195Y-87522522D02*
X160282267Y-87532283D01*
X160420942Y-87589724D01*
X160545750Y-87673118D01*
X160651882Y-87779250D01*
X160735276Y-87904058D01*
X160792717Y-88042734D01*
X160822000Y-88189948D01*
X160822000Y-88340052D01*
X160792717Y-88487266D01*
X160735276Y-88625942D01*
X160651882Y-88750750D01*
X160545750Y-88856882D01*
X160545747Y-88856884D01*
X160420942Y-88940276D01*
X160282267Y-88997717D01*
X160233195Y-89007478D01*
X160135052Y-89027000D01*
X159984948Y-89027000D01*
X159886805Y-89007478D01*
X159837733Y-88997717D01*
X159699058Y-88940276D01*
X159574253Y-88856884D01*
X159574250Y-88856882D01*
X159468118Y-88750750D01*
X159384724Y-88625942D01*
X159327283Y-88487266D01*
X159298000Y-88340052D01*
X159298000Y-88189948D01*
X159327283Y-88042734D01*
X159384724Y-87904058D01*
X159468118Y-87779250D01*
X159574250Y-87673118D01*
X159699058Y-87589724D01*
X159837733Y-87532283D01*
X159886805Y-87522522D01*
X159984948Y-87503000D01*
X160135052Y-87503000D01*
X160233195Y-87522522D01*
X160233195Y-87522522D01*
G37*
G36*
X137373195Y-87522522D02*
X137422267Y-87532283D01*
X137560942Y-87589724D01*
X137685750Y-87673118D01*
X137791882Y-87779250D01*
X137875276Y-87904058D01*
X137932717Y-88042734D01*
X137962000Y-88189948D01*
X137962000Y-88340052D01*
X137932717Y-88487266D01*
X137875276Y-88625942D01*
X137791882Y-88750750D01*
X137685750Y-88856882D01*
X137685747Y-88856884D01*
X137560942Y-88940276D01*
X137422267Y-88997717D01*
X137373195Y-89007478D01*
X137275052Y-89027000D01*
X137124948Y-89027000D01*
X137026805Y-89007478D01*
X136977733Y-88997717D01*
X136839058Y-88940276D01*
X136714253Y-88856884D01*
X136714250Y-88856882D01*
X136608118Y-88750750D01*
X136524724Y-88625942D01*
X136467283Y-88487266D01*
X136438000Y-88340052D01*
X136438000Y-88189948D01*
X136467283Y-88042734D01*
X136524724Y-87904058D01*
X136608118Y-87779250D01*
X136714250Y-87673118D01*
X136839058Y-87589724D01*
X136977733Y-87532283D01*
X137026805Y-87522522D01*
X137124948Y-87503000D01*
X137275052Y-87503000D01*
X137373195Y-87522522D01*
X137373195Y-87522522D01*
G37*
G36*
X143379024Y-86223955D02*
X143411736Y-86233879D01*
X143441890Y-86249997D01*
X143468316Y-86271684D01*
X143490003Y-86298110D01*
X143506121Y-86328264D01*
X143516045Y-86360976D01*
X143520000Y-86401138D01*
X143520000Y-86988862D01*
X143516045Y-87029024D01*
X143506121Y-87061736D01*
X143490003Y-87091890D01*
X143468316Y-87118316D01*
X143441890Y-87140003D01*
X143411736Y-87156121D01*
X143379024Y-87166045D01*
X143338862Y-87170000D01*
X142651138Y-87170000D01*
X142610976Y-87166045D01*
X142578264Y-87156121D01*
X142548110Y-87140003D01*
X142521684Y-87118316D01*
X142499997Y-87091890D01*
X142483879Y-87061736D01*
X142473955Y-87029024D01*
X142470000Y-86988862D01*
X142470000Y-86401138D01*
X142473955Y-86360976D01*
X142483879Y-86328264D01*
X142499997Y-86298110D01*
X142521684Y-86271684D01*
X142548110Y-86249997D01*
X142578264Y-86233879D01*
X142610976Y-86223955D01*
X142651138Y-86220000D01*
X143338862Y-86220000D01*
X143379024Y-86223955D01*
X143379024Y-86223955D01*
G37*
G36*
X149879024Y-86223955D02*
X149911736Y-86233879D01*
X149941890Y-86249997D01*
X149968316Y-86271684D01*
X149990003Y-86298110D01*
X150006121Y-86328264D01*
X150016045Y-86360976D01*
X150020000Y-86401138D01*
X150020000Y-86988862D01*
X150016045Y-87029024D01*
X150006121Y-87061736D01*
X149990003Y-87091890D01*
X149968316Y-87118316D01*
X149941890Y-87140003D01*
X149911736Y-87156121D01*
X149879024Y-87166045D01*
X149838862Y-87170000D01*
X149151138Y-87170000D01*
X149110976Y-87166045D01*
X149078264Y-87156121D01*
X149048110Y-87140003D01*
X149021684Y-87118316D01*
X148999997Y-87091890D01*
X148983879Y-87061736D01*
X148973955Y-87029024D01*
X148970000Y-86988862D01*
X148970000Y-86401138D01*
X148973955Y-86360976D01*
X148983879Y-86328264D01*
X148999997Y-86298110D01*
X149021684Y-86271684D01*
X149048110Y-86249997D01*
X149078264Y-86233879D01*
X149110976Y-86223955D01*
X149151138Y-86220000D01*
X149838862Y-86220000D01*
X149879024Y-86223955D01*
X149879024Y-86223955D01*
G37*
G36*
X148129024Y-86223955D02*
X148161736Y-86233879D01*
X148191890Y-86249997D01*
X148218316Y-86271684D01*
X148240003Y-86298110D01*
X148256121Y-86328264D01*
X148266045Y-86360976D01*
X148270000Y-86401138D01*
X148270000Y-86988862D01*
X148266045Y-87029024D01*
X148256121Y-87061736D01*
X148240003Y-87091890D01*
X148218316Y-87118316D01*
X148191890Y-87140003D01*
X148161736Y-87156121D01*
X148129024Y-87166045D01*
X148088862Y-87170000D01*
X147401138Y-87170000D01*
X147360976Y-87166045D01*
X147328264Y-87156121D01*
X147298110Y-87140003D01*
X147271684Y-87118316D01*
X147249997Y-87091890D01*
X147233879Y-87061736D01*
X147223955Y-87029024D01*
X147220000Y-86988862D01*
X147220000Y-86401138D01*
X147223955Y-86360976D01*
X147233879Y-86328264D01*
X147249997Y-86298110D01*
X147271684Y-86271684D01*
X147298110Y-86249997D01*
X147328264Y-86233879D01*
X147360976Y-86223955D01*
X147401138Y-86220000D01*
X148088862Y-86220000D01*
X148129024Y-86223955D01*
X148129024Y-86223955D01*
G37*
G36*
X145129024Y-86223955D02*
X145161736Y-86233879D01*
X145191890Y-86249997D01*
X145218316Y-86271684D01*
X145240003Y-86298110D01*
X145256121Y-86328264D01*
X145266045Y-86360976D01*
X145270000Y-86401138D01*
X145270000Y-86988862D01*
X145266045Y-87029024D01*
X145256121Y-87061736D01*
X145240003Y-87091890D01*
X145218316Y-87118316D01*
X145191890Y-87140003D01*
X145161736Y-87156121D01*
X145129024Y-87166045D01*
X145088862Y-87170000D01*
X144401138Y-87170000D01*
X144360976Y-87166045D01*
X144328264Y-87156121D01*
X144298110Y-87140003D01*
X144271684Y-87118316D01*
X144249997Y-87091890D01*
X144233879Y-87061736D01*
X144223955Y-87029024D01*
X144220000Y-86988862D01*
X144220000Y-86401138D01*
X144223955Y-86360976D01*
X144233879Y-86328264D01*
X144249997Y-86298110D01*
X144271684Y-86271684D01*
X144298110Y-86249997D01*
X144328264Y-86233879D01*
X144360976Y-86223955D01*
X144401138Y-86220000D01*
X145088862Y-86220000D01*
X145129024Y-86223955D01*
X145129024Y-86223955D01*
G37*
G36*
X167496630Y-84847299D02*
X167656855Y-84895903D01*
X167804520Y-84974831D01*
X167933949Y-85081051D01*
X168040169Y-85210480D01*
X168119097Y-85358145D01*
X168167701Y-85518370D01*
X168184112Y-85685000D01*
X168167701Y-85851630D01*
X168119097Y-86011855D01*
X168040169Y-86159520D01*
X167933949Y-86288949D01*
X167804520Y-86395169D01*
X167656855Y-86474097D01*
X167496630Y-86522701D01*
X167371752Y-86535000D01*
X166988248Y-86535000D01*
X166863370Y-86522701D01*
X166703145Y-86474097D01*
X166555480Y-86395169D01*
X166426051Y-86288949D01*
X166319831Y-86159520D01*
X166240903Y-86011855D01*
X166192299Y-85851630D01*
X166175888Y-85685000D01*
X166192299Y-85518370D01*
X166240903Y-85358145D01*
X166319831Y-85210480D01*
X166426051Y-85081051D01*
X166555480Y-84974831D01*
X166703145Y-84895903D01*
X166863370Y-84847299D01*
X166988248Y-84835000D01*
X167371752Y-84835000D01*
X167496630Y-84847299D01*
X167496630Y-84847299D01*
G37*
G36*
X160233195Y-84982522D02*
X160282267Y-84992283D01*
X160420942Y-85049724D01*
X160545750Y-85133118D01*
X160651882Y-85239250D01*
X160651884Y-85239253D01*
X160735276Y-85364058D01*
X160792717Y-85502733D01*
X160802478Y-85551805D01*
X160822000Y-85649948D01*
X160822000Y-85800052D01*
X160792717Y-85947266D01*
X160735276Y-86085942D01*
X160651882Y-86210750D01*
X160545750Y-86316882D01*
X160545747Y-86316884D01*
X160420942Y-86400276D01*
X160282267Y-86457717D01*
X160233195Y-86467478D01*
X160135052Y-86487000D01*
X159984948Y-86487000D01*
X159886805Y-86467478D01*
X159837733Y-86457717D01*
X159699058Y-86400276D01*
X159574253Y-86316884D01*
X159574250Y-86316882D01*
X159468118Y-86210750D01*
X159384724Y-86085942D01*
X159327283Y-85947266D01*
X159298000Y-85800052D01*
X159298000Y-85649948D01*
X159317522Y-85551805D01*
X159327283Y-85502733D01*
X159384724Y-85364058D01*
X159468116Y-85239253D01*
X159468118Y-85239250D01*
X159574250Y-85133118D01*
X159699058Y-85049724D01*
X159837733Y-84992283D01*
X159886805Y-84982522D01*
X159984948Y-84963000D01*
X160135052Y-84963000D01*
X160233195Y-84982522D01*
X160233195Y-84982522D01*
G37*
G36*
X137373195Y-84982522D02*
X137422267Y-84992283D01*
X137560942Y-85049724D01*
X137685750Y-85133118D01*
X137791882Y-85239250D01*
X137791884Y-85239253D01*
X137875276Y-85364058D01*
X137932717Y-85502733D01*
X137942478Y-85551805D01*
X137962000Y-85649948D01*
X137962000Y-85800052D01*
X137932717Y-85947266D01*
X137875276Y-86085942D01*
X137791882Y-86210750D01*
X137685750Y-86316882D01*
X137685747Y-86316884D01*
X137560942Y-86400276D01*
X137422267Y-86457717D01*
X137373195Y-86467478D01*
X137275052Y-86487000D01*
X137124948Y-86487000D01*
X137026805Y-86467478D01*
X136977733Y-86457717D01*
X136839058Y-86400276D01*
X136714253Y-86316884D01*
X136714250Y-86316882D01*
X136608118Y-86210750D01*
X136524724Y-86085942D01*
X136467283Y-85947266D01*
X136438000Y-85800052D01*
X136438000Y-85649948D01*
X136457522Y-85551805D01*
X136467283Y-85502733D01*
X136524724Y-85364058D01*
X136608116Y-85239253D01*
X136608118Y-85239250D01*
X136714250Y-85133118D01*
X136839058Y-85049724D01*
X136977733Y-84992283D01*
X137026805Y-84982522D01*
X137124948Y-84963000D01*
X137275052Y-84963000D01*
X137373195Y-84982522D01*
X137373195Y-84982522D01*
G37*
G36*
X168049675Y-82338701D02*
X168079907Y-82347872D01*
X168107769Y-82362765D01*
X168132192Y-82382808D01*
X168152235Y-82407231D01*
X168167128Y-82435093D01*
X168176299Y-82465325D01*
X168180000Y-82502905D01*
X168180000Y-83867095D01*
X168176299Y-83904675D01*
X168167128Y-83934907D01*
X168152235Y-83962769D01*
X168132192Y-83987192D01*
X168107769Y-84007235D01*
X168079907Y-84022128D01*
X168049675Y-84031299D01*
X168012095Y-84035000D01*
X166347905Y-84035000D01*
X166310325Y-84031299D01*
X166280093Y-84022128D01*
X166252231Y-84007235D01*
X166227808Y-83987192D01*
X166207765Y-83962769D01*
X166192872Y-83934907D01*
X166183701Y-83904675D01*
X166180000Y-83867095D01*
X166180000Y-82502905D01*
X166183701Y-82465325D01*
X166192872Y-82435093D01*
X166207765Y-82407231D01*
X166227808Y-82382808D01*
X166252231Y-82362765D01*
X166280093Y-82347872D01*
X166310325Y-82338701D01*
X166347905Y-82335000D01*
X168012095Y-82335000D01*
X168049675Y-82338701D01*
X168049675Y-82338701D01*
G37*
G36*
X137373195Y-82442522D02*
X137422267Y-82452283D01*
X137511704Y-82489329D01*
X137560942Y-82509724D01*
X137685750Y-82593118D01*
X137791882Y-82699250D01*
X137875276Y-82824058D01*
X137932717Y-82962734D01*
X137962000Y-83109948D01*
X137962000Y-83260052D01*
X137932717Y-83407266D01*
X137875276Y-83545942D01*
X137791882Y-83670750D01*
X137685750Y-83776882D01*
X137685747Y-83776884D01*
X137560942Y-83860276D01*
X137422267Y-83917717D01*
X137373195Y-83927478D01*
X137275052Y-83947000D01*
X137124948Y-83947000D01*
X137026805Y-83927478D01*
X136977733Y-83917717D01*
X136839058Y-83860276D01*
X136714253Y-83776884D01*
X136714250Y-83776882D01*
X136608118Y-83670750D01*
X136524724Y-83545942D01*
X136467283Y-83407266D01*
X136438000Y-83260052D01*
X136438000Y-83109948D01*
X136467283Y-82962734D01*
X136524724Y-82824058D01*
X136608118Y-82699250D01*
X136714250Y-82593118D01*
X136839058Y-82509724D01*
X136888296Y-82489329D01*
X136977733Y-82452283D01*
X137026805Y-82442522D01*
X137124948Y-82423000D01*
X137275052Y-82423000D01*
X137373195Y-82442522D01*
X137373195Y-82442522D01*
G37*
G36*
X160233195Y-82442522D02*
X160282267Y-82452283D01*
X160371704Y-82489329D01*
X160420942Y-82509724D01*
X160545750Y-82593118D01*
X160651882Y-82699250D01*
X160735276Y-82824058D01*
X160792717Y-82962734D01*
X160822000Y-83109948D01*
X160822000Y-83260052D01*
X160792717Y-83407266D01*
X160735276Y-83545942D01*
X160651882Y-83670750D01*
X160545750Y-83776882D01*
X160545747Y-83776884D01*
X160420942Y-83860276D01*
X160282267Y-83917717D01*
X160233195Y-83927478D01*
X160135052Y-83947000D01*
X159984948Y-83947000D01*
X159886805Y-83927478D01*
X159837733Y-83917717D01*
X159699058Y-83860276D01*
X159574253Y-83776884D01*
X159574250Y-83776882D01*
X159468118Y-83670750D01*
X159384724Y-83545942D01*
X159327283Y-83407266D01*
X159298000Y-83260052D01*
X159298000Y-83109948D01*
X159327283Y-82962734D01*
X159384724Y-82824058D01*
X159468118Y-82699250D01*
X159574250Y-82593118D01*
X159699058Y-82509724D01*
X159748296Y-82489329D01*
X159837733Y-82452283D01*
X159886805Y-82442522D01*
X159984948Y-82423000D01*
X160135052Y-82423000D01*
X160233195Y-82442522D01*
X160233195Y-82442522D01*
G37*
G36*
X156919024Y-81363955D02*
X156951736Y-81373879D01*
X156981890Y-81389997D01*
X157008316Y-81411684D01*
X157030003Y-81438110D01*
X157046121Y-81468264D01*
X157056045Y-81500976D01*
X157060000Y-81541138D01*
X157060000Y-82128862D01*
X157056045Y-82169024D01*
X157046121Y-82201736D01*
X157030003Y-82231890D01*
X157008316Y-82258316D01*
X156981890Y-82280003D01*
X156951736Y-82296121D01*
X156919024Y-82306045D01*
X156878862Y-82310000D01*
X156191138Y-82310000D01*
X156150976Y-82306045D01*
X156118264Y-82296121D01*
X156088110Y-82280003D01*
X156061684Y-82258316D01*
X156039997Y-82231890D01*
X156023879Y-82201736D01*
X156013955Y-82169024D01*
X156010000Y-82128862D01*
X156010000Y-81541138D01*
X156013955Y-81500976D01*
X156023879Y-81468264D01*
X156039997Y-81438110D01*
X156061684Y-81411684D01*
X156088110Y-81389997D01*
X156118264Y-81373879D01*
X156150976Y-81363955D01*
X156191138Y-81360000D01*
X156878862Y-81360000D01*
X156919024Y-81363955D01*
X156919024Y-81363955D01*
G37*
G36*
X155169024Y-81363955D02*
X155201736Y-81373879D01*
X155231890Y-81389997D01*
X155258316Y-81411684D01*
X155280003Y-81438110D01*
X155296121Y-81468264D01*
X155306045Y-81500976D01*
X155310000Y-81541138D01*
X155310000Y-82128862D01*
X155306045Y-82169024D01*
X155296121Y-82201736D01*
X155280003Y-82231890D01*
X155258316Y-82258316D01*
X155231890Y-82280003D01*
X155201736Y-82296121D01*
X155169024Y-82306045D01*
X155128862Y-82310000D01*
X154441138Y-82310000D01*
X154400976Y-82306045D01*
X154368264Y-82296121D01*
X154338110Y-82280003D01*
X154311684Y-82258316D01*
X154289997Y-82231890D01*
X154273879Y-82201736D01*
X154263955Y-82169024D01*
X154260000Y-82128862D01*
X154260000Y-81541138D01*
X154263955Y-81500976D01*
X154273879Y-81468264D01*
X154289997Y-81438110D01*
X154311684Y-81411684D01*
X154338110Y-81389997D01*
X154368264Y-81373879D01*
X154400976Y-81363955D01*
X154441138Y-81360000D01*
X155128862Y-81360000D01*
X155169024Y-81363955D01*
X155169024Y-81363955D01*
G37*
G36*
X137373195Y-79902522D02*
X137422267Y-79912283D01*
X137560942Y-79969724D01*
X137685750Y-80053118D01*
X137791882Y-80159250D01*
X137875276Y-80284058D01*
X137932717Y-80422734D01*
X137962000Y-80569948D01*
X137962000Y-80720052D01*
X137932717Y-80867266D01*
X137875276Y-81005942D01*
X137791882Y-81130750D01*
X137685750Y-81236882D01*
X137685747Y-81236884D01*
X137560942Y-81320276D01*
X137422267Y-81377717D01*
X137373195Y-81387478D01*
X137275052Y-81407000D01*
X137124948Y-81407000D01*
X137026805Y-81387478D01*
X136977733Y-81377717D01*
X136839058Y-81320276D01*
X136714253Y-81236884D01*
X136714250Y-81236882D01*
X136608118Y-81130750D01*
X136524724Y-81005942D01*
X136467283Y-80867266D01*
X136438000Y-80720052D01*
X136438000Y-80569948D01*
X136467283Y-80422734D01*
X136524724Y-80284058D01*
X136608118Y-80159250D01*
X136714250Y-80053118D01*
X136839058Y-79969724D01*
X136977733Y-79912283D01*
X137026805Y-79902522D01*
X137124948Y-79883000D01*
X137275052Y-79883000D01*
X137373195Y-79902522D01*
X137373195Y-79902522D01*
G37*
G36*
X160233195Y-79902522D02*
X160282267Y-79912283D01*
X160420942Y-79969724D01*
X160545750Y-80053118D01*
X160651882Y-80159250D01*
X160735276Y-80284058D01*
X160792717Y-80422734D01*
X160822000Y-80569948D01*
X160822000Y-80720052D01*
X160792717Y-80867266D01*
X160735276Y-81005942D01*
X160651882Y-81130750D01*
X160545750Y-81236882D01*
X160545747Y-81236884D01*
X160420942Y-81320276D01*
X160282267Y-81377717D01*
X160233195Y-81387478D01*
X160135052Y-81407000D01*
X159984948Y-81407000D01*
X159886805Y-81387478D01*
X159837733Y-81377717D01*
X159699058Y-81320276D01*
X159574253Y-81236884D01*
X159574250Y-81236882D01*
X159468118Y-81130750D01*
X159384724Y-81005942D01*
X159327283Y-80867266D01*
X159298000Y-80720052D01*
X159298000Y-80569948D01*
X159327283Y-80422734D01*
X159384724Y-80284058D01*
X159468118Y-80159250D01*
X159574250Y-80053118D01*
X159699058Y-79969724D01*
X159837733Y-79912283D01*
X159886805Y-79902522D01*
X159984948Y-79883000D01*
X160135052Y-79883000D01*
X160233195Y-79902522D01*
X160233195Y-79902522D01*
G37*
G36*
X146670000Y-80690000D02*
X145170000Y-80690000D01*
X145170000Y-80090000D01*
X146670000Y-80090000D01*
X146670000Y-80690000D01*
X146670000Y-80690000D01*
G37*
G36*
X152070000Y-80690000D02*
X150570000Y-80690000D01*
X150570000Y-80090000D01*
X152070000Y-80090000D01*
X152070000Y-80690000D01*
X152070000Y-80690000D01*
G37*
G36*
X156919024Y-78823955D02*
X156951736Y-78833879D01*
X156981890Y-78849997D01*
X157008316Y-78871684D01*
X157030003Y-78898110D01*
X157046121Y-78928264D01*
X157056045Y-78960976D01*
X157060000Y-79001138D01*
X157060000Y-79588862D01*
X157056045Y-79629024D01*
X157046121Y-79661736D01*
X157030003Y-79691890D01*
X157008316Y-79718316D01*
X156981890Y-79740003D01*
X156951736Y-79756121D01*
X156919024Y-79766045D01*
X156878862Y-79770000D01*
X156191138Y-79770000D01*
X156150976Y-79766045D01*
X156118264Y-79756121D01*
X156088110Y-79740003D01*
X156061684Y-79718316D01*
X156039997Y-79691890D01*
X156023879Y-79661736D01*
X156013955Y-79629024D01*
X156010000Y-79588862D01*
X156010000Y-79001138D01*
X156013955Y-78960976D01*
X156023879Y-78928264D01*
X156039997Y-78898110D01*
X156061684Y-78871684D01*
X156088110Y-78849997D01*
X156118264Y-78833879D01*
X156150976Y-78823955D01*
X156191138Y-78820000D01*
X156878862Y-78820000D01*
X156919024Y-78823955D01*
X156919024Y-78823955D01*
G37*
G36*
X155169024Y-78823955D02*
X155201736Y-78833879D01*
X155231890Y-78849997D01*
X155258316Y-78871684D01*
X155280003Y-78898110D01*
X155296121Y-78928264D01*
X155306045Y-78960976D01*
X155310000Y-79001138D01*
X155310000Y-79588862D01*
X155306045Y-79629024D01*
X155296121Y-79661736D01*
X155280003Y-79691890D01*
X155258316Y-79718316D01*
X155231890Y-79740003D01*
X155201736Y-79756121D01*
X155169024Y-79766045D01*
X155128862Y-79770000D01*
X154441138Y-79770000D01*
X154400976Y-79766045D01*
X154368264Y-79756121D01*
X154338110Y-79740003D01*
X154311684Y-79718316D01*
X154289997Y-79691890D01*
X154273879Y-79661736D01*
X154263955Y-79629024D01*
X154260000Y-79588862D01*
X154260000Y-79001138D01*
X154263955Y-78960976D01*
X154273879Y-78928264D01*
X154289997Y-78898110D01*
X154311684Y-78871684D01*
X154338110Y-78849997D01*
X154368264Y-78833879D01*
X154400976Y-78823955D01*
X154441138Y-78820000D01*
X155128862Y-78820000D01*
X155169024Y-78823955D01*
X155169024Y-78823955D01*
G37*
G36*
X152070000Y-79420000D02*
X150570000Y-79420000D01*
X150570000Y-78820000D01*
X152070000Y-78820000D01*
X152070000Y-79420000D01*
X152070000Y-79420000D01*
G37*
G36*
X146670000Y-79420000D02*
X145170000Y-79420000D01*
X145170000Y-78820000D01*
X146670000Y-78820000D01*
X146670000Y-79420000D01*
X146670000Y-79420000D01*
G37*
G36*
X167496630Y-77227299D02*
X167656855Y-77275903D01*
X167804520Y-77354831D01*
X167933949Y-77461051D01*
X168040169Y-77590480D01*
X168119097Y-77738145D01*
X168167701Y-77898370D01*
X168184112Y-78065000D01*
X168167701Y-78231630D01*
X168119097Y-78391855D01*
X168040169Y-78539520D01*
X167933949Y-78668949D01*
X167804520Y-78775169D01*
X167656855Y-78854097D01*
X167496630Y-78902701D01*
X167371752Y-78915000D01*
X166988248Y-78915000D01*
X166863370Y-78902701D01*
X166703145Y-78854097D01*
X166555480Y-78775169D01*
X166426051Y-78668949D01*
X166319831Y-78539520D01*
X166240903Y-78391855D01*
X166192299Y-78231630D01*
X166175888Y-78065000D01*
X166192299Y-77898370D01*
X166240903Y-77738145D01*
X166319831Y-77590480D01*
X166426051Y-77461051D01*
X166555480Y-77354831D01*
X166703145Y-77275903D01*
X166863370Y-77227299D01*
X166988248Y-77215000D01*
X167371752Y-77215000D01*
X167496630Y-77227299D01*
X167496630Y-77227299D01*
G37*
G36*
X137373195Y-77362522D02*
X137422267Y-77372283D01*
X137560942Y-77429724D01*
X137685750Y-77513118D01*
X137791882Y-77619250D01*
X137791884Y-77619253D01*
X137875276Y-77744058D01*
X137932717Y-77882733D01*
X137942478Y-77931805D01*
X137962000Y-78029948D01*
X137962000Y-78180052D01*
X137932717Y-78327266D01*
X137875276Y-78465942D01*
X137791882Y-78590750D01*
X137685750Y-78696882D01*
X137685747Y-78696884D01*
X137560942Y-78780276D01*
X137422267Y-78837717D01*
X137373195Y-78847478D01*
X137275052Y-78867000D01*
X137124948Y-78867000D01*
X137026805Y-78847478D01*
X136977733Y-78837717D01*
X136839058Y-78780276D01*
X136714253Y-78696884D01*
X136714250Y-78696882D01*
X136608118Y-78590750D01*
X136524724Y-78465942D01*
X136467283Y-78327266D01*
X136438000Y-78180052D01*
X136438000Y-78029948D01*
X136457522Y-77931805D01*
X136467283Y-77882733D01*
X136524724Y-77744058D01*
X136608116Y-77619253D01*
X136608118Y-77619250D01*
X136714250Y-77513118D01*
X136839058Y-77429724D01*
X136977733Y-77372283D01*
X137026805Y-77362522D01*
X137124948Y-77343000D01*
X137275052Y-77343000D01*
X137373195Y-77362522D01*
X137373195Y-77362522D01*
G37*
G36*
X160233195Y-77362522D02*
X160282267Y-77372283D01*
X160420942Y-77429724D01*
X160545750Y-77513118D01*
X160651882Y-77619250D01*
X160651884Y-77619253D01*
X160735276Y-77744058D01*
X160792717Y-77882733D01*
X160802478Y-77931805D01*
X160822000Y-78029948D01*
X160822000Y-78180052D01*
X160792717Y-78327266D01*
X160735276Y-78465942D01*
X160651882Y-78590750D01*
X160545750Y-78696882D01*
X160545747Y-78696884D01*
X160420942Y-78780276D01*
X160282267Y-78837717D01*
X160233195Y-78847478D01*
X160135052Y-78867000D01*
X159984948Y-78867000D01*
X159886805Y-78847478D01*
X159837733Y-78837717D01*
X159699058Y-78780276D01*
X159574253Y-78696884D01*
X159574250Y-78696882D01*
X159468118Y-78590750D01*
X159384724Y-78465942D01*
X159327283Y-78327266D01*
X159298000Y-78180052D01*
X159298000Y-78029948D01*
X159317522Y-77931805D01*
X159327283Y-77882733D01*
X159384724Y-77744058D01*
X159468116Y-77619253D01*
X159468118Y-77619250D01*
X159574250Y-77513118D01*
X159699058Y-77429724D01*
X159837733Y-77372283D01*
X159886805Y-77362522D01*
X159984948Y-77343000D01*
X160135052Y-77343000D01*
X160233195Y-77362522D01*
X160233195Y-77362522D01*
G37*
G36*
X152070000Y-78150000D02*
X150570000Y-78150000D01*
X150570000Y-77550000D01*
X152070000Y-77550000D01*
X152070000Y-78150000D01*
X152070000Y-78150000D01*
G37*
G36*
X146670000Y-78150000D02*
X145170000Y-78150000D01*
X145170000Y-77550000D01*
X146670000Y-77550000D01*
X146670000Y-78150000D01*
X146670000Y-78150000D01*
G37*
G36*
X156919024Y-76283955D02*
X156951736Y-76293879D01*
X156981890Y-76309997D01*
X157008316Y-76331684D01*
X157030003Y-76358110D01*
X157046121Y-76388264D01*
X157056045Y-76420976D01*
X157060000Y-76461138D01*
X157060000Y-77048862D01*
X157056045Y-77089024D01*
X157046121Y-77121736D01*
X157030003Y-77151890D01*
X157008316Y-77178316D01*
X156981890Y-77200003D01*
X156951736Y-77216121D01*
X156919024Y-77226045D01*
X156878862Y-77230000D01*
X156191138Y-77230000D01*
X156150976Y-77226045D01*
X156118264Y-77216121D01*
X156088110Y-77200003D01*
X156061684Y-77178316D01*
X156039997Y-77151890D01*
X156023879Y-77121736D01*
X156013955Y-77089024D01*
X156010000Y-77048862D01*
X156010000Y-76461138D01*
X156013955Y-76420976D01*
X156023879Y-76388264D01*
X156039997Y-76358110D01*
X156061684Y-76331684D01*
X156088110Y-76309997D01*
X156118264Y-76293879D01*
X156150976Y-76283955D01*
X156191138Y-76280000D01*
X156878862Y-76280000D01*
X156919024Y-76283955D01*
X156919024Y-76283955D01*
G37*
G36*
X155169024Y-76283955D02*
X155201736Y-76293879D01*
X155231890Y-76309997D01*
X155258316Y-76331684D01*
X155280003Y-76358110D01*
X155296121Y-76388264D01*
X155306045Y-76420976D01*
X155310000Y-76461138D01*
X155310000Y-77048862D01*
X155306045Y-77089024D01*
X155296121Y-77121736D01*
X155280003Y-77151890D01*
X155258316Y-77178316D01*
X155231890Y-77200003D01*
X155201736Y-77216121D01*
X155169024Y-77226045D01*
X155128862Y-77230000D01*
X154441138Y-77230000D01*
X154400976Y-77226045D01*
X154368264Y-77216121D01*
X154338110Y-77200003D01*
X154311684Y-77178316D01*
X154289997Y-77151890D01*
X154273879Y-77121736D01*
X154263955Y-77089024D01*
X154260000Y-77048862D01*
X154260000Y-76461138D01*
X154263955Y-76420976D01*
X154273879Y-76388264D01*
X154289997Y-76358110D01*
X154311684Y-76331684D01*
X154338110Y-76309997D01*
X154368264Y-76293879D01*
X154400976Y-76283955D01*
X154441138Y-76280000D01*
X155128862Y-76280000D01*
X155169024Y-76283955D01*
X155169024Y-76283955D01*
G37*
G36*
X146670000Y-76880000D02*
X145170000Y-76880000D01*
X145170000Y-76280000D01*
X146670000Y-76280000D01*
X146670000Y-76880000D01*
X146670000Y-76880000D01*
G37*
G36*
X152070000Y-76880000D02*
X150570000Y-76880000D01*
X150570000Y-76280000D01*
X152070000Y-76280000D01*
X152070000Y-76880000D01*
X152070000Y-76880000D01*
G37*
G36*
X168049675Y-74718701D02*
X168079907Y-74727872D01*
X168107769Y-74742765D01*
X168132192Y-74762808D01*
X168152235Y-74787231D01*
X168167128Y-74815093D01*
X168176299Y-74845325D01*
X168180000Y-74882905D01*
X168180000Y-76247095D01*
X168176299Y-76284675D01*
X168167128Y-76314907D01*
X168152235Y-76342769D01*
X168132192Y-76367192D01*
X168107769Y-76387235D01*
X168079907Y-76402128D01*
X168049675Y-76411299D01*
X168012095Y-76415000D01*
X166347905Y-76415000D01*
X166310325Y-76411299D01*
X166280093Y-76402128D01*
X166252231Y-76387235D01*
X166227808Y-76367192D01*
X166207765Y-76342769D01*
X166192872Y-76314907D01*
X166183701Y-76284675D01*
X166180000Y-76247095D01*
X166180000Y-74882905D01*
X166183701Y-74845325D01*
X166192872Y-74815093D01*
X166207765Y-74787231D01*
X166227808Y-74762808D01*
X166252231Y-74742765D01*
X166280093Y-74727872D01*
X166310325Y-74718701D01*
X166347905Y-74715000D01*
X168012095Y-74715000D01*
X168049675Y-74718701D01*
X168049675Y-74718701D01*
G37*
G36*
X160233195Y-74822522D02*
X160282267Y-74832283D01*
X160371704Y-74869329D01*
X160420942Y-74889724D01*
X160545750Y-74973118D01*
X160651882Y-75079250D01*
X160735276Y-75204058D01*
X160792717Y-75342734D01*
X160822000Y-75489948D01*
X160822000Y-75640052D01*
X160792717Y-75787266D01*
X160735276Y-75925942D01*
X160651882Y-76050750D01*
X160545750Y-76156882D01*
X160545747Y-76156884D01*
X160420942Y-76240276D01*
X160282267Y-76297717D01*
X160233195Y-76307478D01*
X160135052Y-76327000D01*
X159984948Y-76327000D01*
X159886805Y-76307478D01*
X159837733Y-76297717D01*
X159699058Y-76240276D01*
X159574253Y-76156884D01*
X159574250Y-76156882D01*
X159468118Y-76050750D01*
X159384724Y-75925942D01*
X159327283Y-75787266D01*
X159298000Y-75640052D01*
X159298000Y-75489948D01*
X159327283Y-75342734D01*
X159384724Y-75204058D01*
X159468118Y-75079250D01*
X159574250Y-74973118D01*
X159699058Y-74889724D01*
X159748296Y-74869329D01*
X159837733Y-74832283D01*
X159886805Y-74822522D01*
X159984948Y-74803000D01*
X160135052Y-74803000D01*
X160233195Y-74822522D01*
X160233195Y-74822522D01*
G37*
G36*
X137373195Y-74822522D02*
X137422267Y-74832283D01*
X137511704Y-74869329D01*
X137560942Y-74889724D01*
X137685750Y-74973118D01*
X137791882Y-75079250D01*
X137875276Y-75204058D01*
X137932717Y-75342734D01*
X137962000Y-75489948D01*
X137962000Y-75640052D01*
X137932717Y-75787266D01*
X137875276Y-75925942D01*
X137791882Y-76050750D01*
X137685750Y-76156882D01*
X137685747Y-76156884D01*
X137560942Y-76240276D01*
X137422267Y-76297717D01*
X137373195Y-76307478D01*
X137275052Y-76327000D01*
X137124948Y-76327000D01*
X137026805Y-76307478D01*
X136977733Y-76297717D01*
X136839058Y-76240276D01*
X136714253Y-76156884D01*
X136714250Y-76156882D01*
X136608118Y-76050750D01*
X136524724Y-75925942D01*
X136467283Y-75787266D01*
X136438000Y-75640052D01*
X136438000Y-75489948D01*
X136467283Y-75342734D01*
X136524724Y-75204058D01*
X136608118Y-75079250D01*
X136714250Y-74973118D01*
X136839058Y-74889724D01*
X136888296Y-74869329D01*
X136977733Y-74832283D01*
X137026805Y-74822522D01*
X137124948Y-74803000D01*
X137275052Y-74803000D01*
X137373195Y-74822522D01*
X137373195Y-74822522D01*
G37*
G36*
X152070000Y-75610000D02*
X150570000Y-75610000D01*
X150570000Y-75010000D01*
X152070000Y-75010000D01*
X152070000Y-75610000D01*
X152070000Y-75610000D01*
G37*
G36*
X146670000Y-75610000D02*
X145170000Y-75610000D01*
X145170000Y-75010000D01*
X146670000Y-75010000D01*
X146670000Y-75610000D01*
X146670000Y-75610000D01*
G37*
G36*
X155169024Y-73743955D02*
X155201736Y-73753879D01*
X155231890Y-73769997D01*
X155258316Y-73791684D01*
X155280003Y-73818110D01*
X155296121Y-73848264D01*
X155306045Y-73880976D01*
X155310000Y-73921138D01*
X155310000Y-74508862D01*
X155306045Y-74549024D01*
X155296121Y-74581736D01*
X155280003Y-74611890D01*
X155258316Y-74638316D01*
X155231890Y-74660003D01*
X155201736Y-74676121D01*
X155169024Y-74686045D01*
X155128862Y-74690000D01*
X154441138Y-74690000D01*
X154400976Y-74686045D01*
X154368264Y-74676121D01*
X154338110Y-74660003D01*
X154311684Y-74638316D01*
X154289997Y-74611890D01*
X154273879Y-74581736D01*
X154263955Y-74549024D01*
X154260000Y-74508862D01*
X154260000Y-73921138D01*
X154263955Y-73880976D01*
X154273879Y-73848264D01*
X154289997Y-73818110D01*
X154311684Y-73791684D01*
X154338110Y-73769997D01*
X154368264Y-73753879D01*
X154400976Y-73743955D01*
X154441138Y-73740000D01*
X155128862Y-73740000D01*
X155169024Y-73743955D01*
X155169024Y-73743955D01*
G37*
G36*
X156919024Y-73743955D02*
X156951736Y-73753879D01*
X156981890Y-73769997D01*
X157008316Y-73791684D01*
X157030003Y-73818110D01*
X157046121Y-73848264D01*
X157056045Y-73880976D01*
X157060000Y-73921138D01*
X157060000Y-74508862D01*
X157056045Y-74549024D01*
X157046121Y-74581736D01*
X157030003Y-74611890D01*
X157008316Y-74638316D01*
X156981890Y-74660003D01*
X156951736Y-74676121D01*
X156919024Y-74686045D01*
X156878862Y-74690000D01*
X156191138Y-74690000D01*
X156150976Y-74686045D01*
X156118264Y-74676121D01*
X156088110Y-74660003D01*
X156061684Y-74638316D01*
X156039997Y-74611890D01*
X156023879Y-74581736D01*
X156013955Y-74549024D01*
X156010000Y-74508862D01*
X156010000Y-73921138D01*
X156013955Y-73880976D01*
X156023879Y-73848264D01*
X156039997Y-73818110D01*
X156061684Y-73791684D01*
X156088110Y-73769997D01*
X156118264Y-73753879D01*
X156150976Y-73743955D01*
X156191138Y-73740000D01*
X156878862Y-73740000D01*
X156919024Y-73743955D01*
X156919024Y-73743955D01*
G37*
G36*
X140929024Y-73673955D02*
X140961736Y-73683879D01*
X140991890Y-73699997D01*
X141018316Y-73721684D01*
X141040003Y-73748110D01*
X141056121Y-73778264D01*
X141066045Y-73810976D01*
X141070000Y-73851138D01*
X141070000Y-74438862D01*
X141066045Y-74479024D01*
X141056121Y-74511736D01*
X141040003Y-74541890D01*
X141018316Y-74568316D01*
X140991890Y-74590003D01*
X140961736Y-74606121D01*
X140929024Y-74616045D01*
X140888862Y-74620000D01*
X140201138Y-74620000D01*
X140160976Y-74616045D01*
X140128264Y-74606121D01*
X140098110Y-74590003D01*
X140071684Y-74568316D01*
X140049997Y-74541890D01*
X140033879Y-74511736D01*
X140023955Y-74479024D01*
X140020000Y-74438862D01*
X140020000Y-73851138D01*
X140023955Y-73810976D01*
X140033879Y-73778264D01*
X140049997Y-73748110D01*
X140071684Y-73721684D01*
X140098110Y-73699997D01*
X140128264Y-73683879D01*
X140160976Y-73673955D01*
X140201138Y-73670000D01*
X140888862Y-73670000D01*
X140929024Y-73673955D01*
X140929024Y-73673955D01*
G37*
G36*
X142679024Y-73673955D02*
X142711736Y-73683879D01*
X142741890Y-73699997D01*
X142768316Y-73721684D01*
X142790003Y-73748110D01*
X142806121Y-73778264D01*
X142816045Y-73810976D01*
X142820000Y-73851138D01*
X142820000Y-74438862D01*
X142816045Y-74479024D01*
X142806121Y-74511736D01*
X142790003Y-74541890D01*
X142768316Y-74568316D01*
X142741890Y-74590003D01*
X142711736Y-74606121D01*
X142679024Y-74616045D01*
X142638862Y-74620000D01*
X141951138Y-74620000D01*
X141910976Y-74616045D01*
X141878264Y-74606121D01*
X141848110Y-74590003D01*
X141821684Y-74568316D01*
X141799997Y-74541890D01*
X141783879Y-74511736D01*
X141773955Y-74479024D01*
X141770000Y-74438862D01*
X141770000Y-73851138D01*
X141773955Y-73810976D01*
X141783879Y-73778264D01*
X141799997Y-73748110D01*
X141821684Y-73721684D01*
X141848110Y-73699997D01*
X141878264Y-73683879D01*
X141910976Y-73673955D01*
X141951138Y-73670000D01*
X142638862Y-73670000D01*
X142679024Y-73673955D01*
X142679024Y-73673955D01*
G37*
G36*
X146670000Y-74340000D02*
X145170000Y-74340000D01*
X145170000Y-73740000D01*
X146670000Y-73740000D01*
X146670000Y-74340000D01*
X146670000Y-74340000D01*
G37*
G36*
X152070000Y-74340000D02*
X150570000Y-74340000D01*
X150570000Y-73740000D01*
X152070000Y-73740000D01*
X152070000Y-74340000D01*
X152070000Y-74340000D01*
G37*
G36*
X160233195Y-72282522D02*
X160282267Y-72292283D01*
X160420942Y-72349724D01*
X160545750Y-72433118D01*
X160651882Y-72539250D01*
X160735276Y-72664058D01*
X160792717Y-72802734D01*
X160822000Y-72949948D01*
X160822000Y-73100052D01*
X160792717Y-73247266D01*
X160735276Y-73385942D01*
X160651882Y-73510750D01*
X160545750Y-73616882D01*
X160545747Y-73616884D01*
X160420942Y-73700276D01*
X160282267Y-73757717D01*
X160233195Y-73767478D01*
X160135052Y-73787000D01*
X159984948Y-73787000D01*
X159886805Y-73767478D01*
X159837733Y-73757717D01*
X159699058Y-73700276D01*
X159574253Y-73616884D01*
X159574250Y-73616882D01*
X159468118Y-73510750D01*
X159384724Y-73385942D01*
X159327283Y-73247266D01*
X159298000Y-73100052D01*
X159298000Y-72949948D01*
X159327283Y-72802734D01*
X159384724Y-72664058D01*
X159468118Y-72539250D01*
X159574250Y-72433118D01*
X159699058Y-72349724D01*
X159837733Y-72292283D01*
X159886805Y-72282522D01*
X159984948Y-72263000D01*
X160135052Y-72263000D01*
X160233195Y-72282522D01*
X160233195Y-72282522D01*
G37*
G36*
X137373195Y-72282522D02*
X137422267Y-72292283D01*
X137560942Y-72349724D01*
X137685750Y-72433118D01*
X137791882Y-72539250D01*
X137875276Y-72664058D01*
X137932717Y-72802734D01*
X137962000Y-72949948D01*
X137962000Y-73100052D01*
X137932717Y-73247266D01*
X137875276Y-73385942D01*
X137791882Y-73510750D01*
X137685750Y-73616882D01*
X137685747Y-73616884D01*
X137560942Y-73700276D01*
X137422267Y-73757717D01*
X137373195Y-73767478D01*
X137275052Y-73787000D01*
X137124948Y-73787000D01*
X137026805Y-73767478D01*
X136977733Y-73757717D01*
X136839058Y-73700276D01*
X136714253Y-73616884D01*
X136714250Y-73616882D01*
X136608118Y-73510750D01*
X136524724Y-73385942D01*
X136467283Y-73247266D01*
X136438000Y-73100052D01*
X136438000Y-72949948D01*
X136467283Y-72802734D01*
X136524724Y-72664058D01*
X136608118Y-72539250D01*
X136714250Y-72433118D01*
X136839058Y-72349724D01*
X136977733Y-72292283D01*
X137026805Y-72282522D01*
X137124948Y-72263000D01*
X137275052Y-72263000D01*
X137373195Y-72282522D01*
X137373195Y-72282522D01*
G37*
G36*
X146670000Y-73070000D02*
X145170000Y-73070000D01*
X145170000Y-72470000D01*
X146670000Y-72470000D01*
X146670000Y-73070000D01*
X146670000Y-73070000D01*
G37*
G36*
X152070000Y-73070000D02*
X150570000Y-73070000D01*
X150570000Y-72470000D01*
X152070000Y-72470000D01*
X152070000Y-73070000D01*
X152070000Y-73070000D01*
G37*
G36*
X140929024Y-71023955D02*
X140961736Y-71033879D01*
X140991890Y-71049997D01*
X141018316Y-71071684D01*
X141040003Y-71098110D01*
X141056121Y-71128264D01*
X141066045Y-71160976D01*
X141070000Y-71201138D01*
X141070000Y-71788862D01*
X141066045Y-71829024D01*
X141056121Y-71861736D01*
X141040003Y-71891890D01*
X141018316Y-71918316D01*
X140991890Y-71940003D01*
X140961736Y-71956121D01*
X140929024Y-71966045D01*
X140888862Y-71970000D01*
X140201138Y-71970000D01*
X140160976Y-71966045D01*
X140128264Y-71956121D01*
X140098110Y-71940003D01*
X140071684Y-71918316D01*
X140049997Y-71891890D01*
X140033879Y-71861736D01*
X140023955Y-71829024D01*
X140020000Y-71788862D01*
X140020000Y-71201138D01*
X140023955Y-71160976D01*
X140033879Y-71128264D01*
X140049997Y-71098110D01*
X140071684Y-71071684D01*
X140098110Y-71049997D01*
X140128264Y-71033879D01*
X140160976Y-71023955D01*
X140201138Y-71020000D01*
X140888862Y-71020000D01*
X140929024Y-71023955D01*
X140929024Y-71023955D01*
G37*
G36*
X142679024Y-71023955D02*
X142711736Y-71033879D01*
X142741890Y-71049997D01*
X142768316Y-71071684D01*
X142790003Y-71098110D01*
X142806121Y-71128264D01*
X142816045Y-71160976D01*
X142820000Y-71201138D01*
X142820000Y-71788862D01*
X142816045Y-71829024D01*
X142806121Y-71861736D01*
X142790003Y-71891890D01*
X142768316Y-71918316D01*
X142741890Y-71940003D01*
X142711736Y-71956121D01*
X142679024Y-71966045D01*
X142638862Y-71970000D01*
X141951138Y-71970000D01*
X141910976Y-71966045D01*
X141878264Y-71956121D01*
X141848110Y-71940003D01*
X141821684Y-71918316D01*
X141799997Y-71891890D01*
X141783879Y-71861736D01*
X141773955Y-71829024D01*
X141770000Y-71788862D01*
X141770000Y-71201138D01*
X141773955Y-71160976D01*
X141783879Y-71128264D01*
X141799997Y-71098110D01*
X141821684Y-71071684D01*
X141848110Y-71049997D01*
X141878264Y-71033879D01*
X141910976Y-71023955D01*
X141951138Y-71020000D01*
X142638862Y-71020000D01*
X142679024Y-71023955D01*
X142679024Y-71023955D01*
G37*
G36*
X156554024Y-70898955D02*
X156586736Y-70908879D01*
X156616890Y-70924997D01*
X156643316Y-70946684D01*
X156665003Y-70973110D01*
X156681121Y-71003264D01*
X156691045Y-71035976D01*
X156695000Y-71076138D01*
X156695000Y-71763862D01*
X156691045Y-71804024D01*
X156681121Y-71836736D01*
X156665003Y-71866890D01*
X156643316Y-71893316D01*
X156616890Y-71915003D01*
X156586736Y-71931121D01*
X156554024Y-71941045D01*
X156513862Y-71945000D01*
X155926138Y-71945000D01*
X155885976Y-71941045D01*
X155853264Y-71931121D01*
X155823110Y-71915003D01*
X155796684Y-71893316D01*
X155774997Y-71866890D01*
X155758879Y-71836736D01*
X155748955Y-71804024D01*
X155745000Y-71763862D01*
X155745000Y-71076138D01*
X155748955Y-71035976D01*
X155758879Y-71003264D01*
X155774997Y-70973110D01*
X155796684Y-70946684D01*
X155823110Y-70924997D01*
X155853264Y-70908879D01*
X155885976Y-70898955D01*
X155926138Y-70895000D01*
X156513862Y-70895000D01*
X156554024Y-70898955D01*
X156554024Y-70898955D01*
G37*
G36*
X154354024Y-70898955D02*
X154386736Y-70908879D01*
X154416890Y-70924997D01*
X154443316Y-70946684D01*
X154465003Y-70973110D01*
X154481121Y-71003264D01*
X154491045Y-71035976D01*
X154495000Y-71076138D01*
X154495000Y-71763862D01*
X154491045Y-71804024D01*
X154481121Y-71836736D01*
X154465003Y-71866890D01*
X154443316Y-71893316D01*
X154416890Y-71915003D01*
X154386736Y-71931121D01*
X154354024Y-71941045D01*
X154313862Y-71945000D01*
X153726138Y-71945000D01*
X153685976Y-71941045D01*
X153653264Y-71931121D01*
X153623110Y-71915003D01*
X153596684Y-71893316D01*
X153574997Y-71866890D01*
X153558879Y-71836736D01*
X153548955Y-71804024D01*
X153545000Y-71763862D01*
X153545000Y-71076138D01*
X153548955Y-71035976D01*
X153558879Y-71003264D01*
X153574997Y-70973110D01*
X153596684Y-70946684D01*
X153623110Y-70924997D01*
X153653264Y-70908879D01*
X153685976Y-70898955D01*
X153726138Y-70895000D01*
X154313862Y-70895000D01*
X154354024Y-70898955D01*
X154354024Y-70898955D01*
G37*
G36*
X146670000Y-71800000D02*
X145170000Y-71800000D01*
X145170000Y-71200000D01*
X146670000Y-71200000D01*
X146670000Y-71800000D01*
X146670000Y-71800000D01*
G37*
G36*
X152070000Y-71800000D02*
X150570000Y-71800000D01*
X150570000Y-71200000D01*
X152070000Y-71200000D01*
X152070000Y-71800000D01*
X152070000Y-71800000D01*
G37*
G36*
X167496630Y-69607299D02*
X167656855Y-69655903D01*
X167804520Y-69734831D01*
X167933949Y-69841051D01*
X168040169Y-69970480D01*
X168119097Y-70118145D01*
X168167701Y-70278370D01*
X168184112Y-70445000D01*
X168167701Y-70611630D01*
X168119097Y-70771855D01*
X168040169Y-70919520D01*
X167933949Y-71048949D01*
X167804520Y-71155169D01*
X167656855Y-71234097D01*
X167496630Y-71282701D01*
X167371752Y-71295000D01*
X166988248Y-71295000D01*
X166863370Y-71282701D01*
X166703145Y-71234097D01*
X166555480Y-71155169D01*
X166426051Y-71048949D01*
X166319831Y-70919520D01*
X166240903Y-70771855D01*
X166192299Y-70611630D01*
X166175888Y-70445000D01*
X166192299Y-70278370D01*
X166240903Y-70118145D01*
X166319831Y-69970480D01*
X166426051Y-69841051D01*
X166555480Y-69734831D01*
X166703145Y-69655903D01*
X166863370Y-69607299D01*
X166988248Y-69595000D01*
X167371752Y-69595000D01*
X167496630Y-69607299D01*
X167496630Y-69607299D01*
G37*
G36*
X160233195Y-69742522D02*
X160282267Y-69752283D01*
X160420942Y-69809724D01*
X160545750Y-69893118D01*
X160651882Y-69999250D01*
X160651884Y-69999253D01*
X160735276Y-70124058D01*
X160792717Y-70262733D01*
X160802478Y-70311805D01*
X160822000Y-70409948D01*
X160822000Y-70560052D01*
X160792717Y-70707266D01*
X160735276Y-70845942D01*
X160651882Y-70970750D01*
X160545750Y-71076882D01*
X160526773Y-71089562D01*
X160420942Y-71160276D01*
X160282267Y-71217717D01*
X160233195Y-71227478D01*
X160135052Y-71247000D01*
X159984948Y-71247000D01*
X159886805Y-71227478D01*
X159837733Y-71217717D01*
X159699058Y-71160276D01*
X159593227Y-71089562D01*
X159574250Y-71076882D01*
X159468118Y-70970750D01*
X159384724Y-70845942D01*
X159327283Y-70707266D01*
X159298000Y-70560052D01*
X159298000Y-70409948D01*
X159317522Y-70311805D01*
X159327283Y-70262733D01*
X159384724Y-70124058D01*
X159468116Y-69999253D01*
X159468118Y-69999250D01*
X159574250Y-69893118D01*
X159699058Y-69809724D01*
X159837733Y-69752283D01*
X159886805Y-69742522D01*
X159984948Y-69723000D01*
X160135052Y-69723000D01*
X160233195Y-69742522D01*
X160233195Y-69742522D01*
G37*
G36*
X137373195Y-69742522D02*
X137422267Y-69752283D01*
X137560942Y-69809724D01*
X137685750Y-69893118D01*
X137791882Y-69999250D01*
X137791884Y-69999253D01*
X137875276Y-70124058D01*
X137932717Y-70262733D01*
X137942478Y-70311805D01*
X137962000Y-70409948D01*
X137962000Y-70560052D01*
X137932717Y-70707266D01*
X137875276Y-70845942D01*
X137791882Y-70970750D01*
X137685750Y-71076882D01*
X137666773Y-71089562D01*
X137560942Y-71160276D01*
X137422267Y-71217717D01*
X137373195Y-71227478D01*
X137275052Y-71247000D01*
X137124948Y-71247000D01*
X137026805Y-71227478D01*
X136977733Y-71217717D01*
X136839058Y-71160276D01*
X136733227Y-71089562D01*
X136714250Y-71076882D01*
X136608118Y-70970750D01*
X136524724Y-70845942D01*
X136467283Y-70707266D01*
X136438000Y-70560052D01*
X136438000Y-70409948D01*
X136457522Y-70311805D01*
X136467283Y-70262733D01*
X136524724Y-70124058D01*
X136608116Y-69999253D01*
X136608118Y-69999250D01*
X136714250Y-69893118D01*
X136839058Y-69809724D01*
X136977733Y-69752283D01*
X137026805Y-69742522D01*
X137124948Y-69723000D01*
X137275052Y-69723000D01*
X137373195Y-69742522D01*
X137373195Y-69742522D01*
G37*
G36*
X156554024Y-69148955D02*
X156586736Y-69158879D01*
X156616890Y-69174997D01*
X156643316Y-69196684D01*
X156665003Y-69223110D01*
X156681121Y-69253264D01*
X156691045Y-69285976D01*
X156695000Y-69326138D01*
X156695000Y-70013862D01*
X156691045Y-70054024D01*
X156681121Y-70086736D01*
X156665003Y-70116890D01*
X156643316Y-70143316D01*
X156616890Y-70165003D01*
X156586736Y-70181121D01*
X156554024Y-70191045D01*
X156513862Y-70195000D01*
X155926138Y-70195000D01*
X155885976Y-70191045D01*
X155853264Y-70181121D01*
X155823110Y-70165003D01*
X155796684Y-70143316D01*
X155774997Y-70116890D01*
X155758879Y-70086736D01*
X155748955Y-70054024D01*
X155745000Y-70013862D01*
X155745000Y-69326138D01*
X155748955Y-69285976D01*
X155758879Y-69253264D01*
X155774997Y-69223110D01*
X155796684Y-69196684D01*
X155823110Y-69174997D01*
X155853264Y-69158879D01*
X155885976Y-69148955D01*
X155926138Y-69145000D01*
X156513862Y-69145000D01*
X156554024Y-69148955D01*
X156554024Y-69148955D01*
G37*
G36*
X154354024Y-69148955D02*
X154386736Y-69158879D01*
X154416890Y-69174997D01*
X154443316Y-69196684D01*
X154465003Y-69223110D01*
X154481121Y-69253264D01*
X154491045Y-69285976D01*
X154495000Y-69326138D01*
X154495000Y-70013862D01*
X154491045Y-70054024D01*
X154481121Y-70086736D01*
X154465003Y-70116890D01*
X154443316Y-70143316D01*
X154416890Y-70165003D01*
X154386736Y-70181121D01*
X154354024Y-70191045D01*
X154313862Y-70195000D01*
X153726138Y-70195000D01*
X153685976Y-70191045D01*
X153653264Y-70181121D01*
X153623110Y-70165003D01*
X153596684Y-70143316D01*
X153574997Y-70116890D01*
X153558879Y-70086736D01*
X153548955Y-70054024D01*
X153545000Y-70013862D01*
X153545000Y-69326138D01*
X153548955Y-69285976D01*
X153558879Y-69253264D01*
X153574997Y-69223110D01*
X153596684Y-69196684D01*
X153623110Y-69174997D01*
X153653264Y-69158879D01*
X153685976Y-69148955D01*
X153726138Y-69145000D01*
X154313862Y-69145000D01*
X154354024Y-69148955D01*
X154354024Y-69148955D01*
G37*
G36*
X168049675Y-67098701D02*
X168079907Y-67107872D01*
X168107769Y-67122765D01*
X168132192Y-67142808D01*
X168152235Y-67167231D01*
X168167128Y-67195093D01*
X168176299Y-67225325D01*
X168180000Y-67262905D01*
X168180000Y-68627095D01*
X168176299Y-68664675D01*
X168167128Y-68694907D01*
X168152235Y-68722769D01*
X168132192Y-68747192D01*
X168107769Y-68767235D01*
X168079907Y-68782128D01*
X168049675Y-68791299D01*
X168012095Y-68795000D01*
X166347905Y-68795000D01*
X166310325Y-68791299D01*
X166280093Y-68782128D01*
X166252231Y-68767235D01*
X166227808Y-68747192D01*
X166207765Y-68722769D01*
X166192872Y-68694907D01*
X166183701Y-68664675D01*
X166180000Y-68627095D01*
X166180000Y-67262905D01*
X166183701Y-67225325D01*
X166192872Y-67195093D01*
X166207765Y-67167231D01*
X166227808Y-67142808D01*
X166252231Y-67122765D01*
X166280093Y-67107872D01*
X166310325Y-67098701D01*
X166347905Y-67095000D01*
X168012095Y-67095000D01*
X168049675Y-67098701D01*
X168049675Y-67098701D01*
G37*
G36*
X137373195Y-67202522D02*
X137422267Y-67212283D01*
X137511704Y-67249329D01*
X137560942Y-67269724D01*
X137685750Y-67353118D01*
X137791882Y-67459250D01*
X137875276Y-67584058D01*
X137932717Y-67722734D01*
X137962000Y-67869948D01*
X137962000Y-68020052D01*
X137932717Y-68167266D01*
X137875276Y-68305942D01*
X137791882Y-68430750D01*
X137685750Y-68536882D01*
X137685747Y-68536884D01*
X137560942Y-68620276D01*
X137422267Y-68677717D01*
X137373195Y-68687478D01*
X137275052Y-68707000D01*
X137124948Y-68707000D01*
X137026805Y-68687478D01*
X136977733Y-68677717D01*
X136839058Y-68620276D01*
X136714253Y-68536884D01*
X136714250Y-68536882D01*
X136608118Y-68430750D01*
X136524724Y-68305942D01*
X136467283Y-68167266D01*
X136438000Y-68020052D01*
X136438000Y-67869948D01*
X136467283Y-67722734D01*
X136524724Y-67584058D01*
X136608118Y-67459250D01*
X136714250Y-67353118D01*
X136839058Y-67269724D01*
X136888296Y-67249329D01*
X136977733Y-67212283D01*
X137026805Y-67202522D01*
X137124948Y-67183000D01*
X137275052Y-67183000D01*
X137373195Y-67202522D01*
X137373195Y-67202522D01*
G37*
G36*
X160233195Y-67202522D02*
X160282267Y-67212283D01*
X160371704Y-67249329D01*
X160420942Y-67269724D01*
X160545750Y-67353118D01*
X160651882Y-67459250D01*
X160735276Y-67584058D01*
X160792717Y-67722734D01*
X160822000Y-67869948D01*
X160822000Y-68020052D01*
X160792717Y-68167266D01*
X160735276Y-68305942D01*
X160651882Y-68430750D01*
X160545750Y-68536882D01*
X160545747Y-68536884D01*
X160420942Y-68620276D01*
X160282267Y-68677717D01*
X160233195Y-68687478D01*
X160135052Y-68707000D01*
X159984948Y-68707000D01*
X159886805Y-68687478D01*
X159837733Y-68677717D01*
X159699058Y-68620276D01*
X159574253Y-68536884D01*
X159574250Y-68536882D01*
X159468118Y-68430750D01*
X159384724Y-68305942D01*
X159327283Y-68167266D01*
X159298000Y-68020052D01*
X159298000Y-67869948D01*
X159327283Y-67722734D01*
X159384724Y-67584058D01*
X159468118Y-67459250D01*
X159574250Y-67353118D01*
X159699058Y-67269724D01*
X159748296Y-67249329D01*
X159837733Y-67212283D01*
X159886805Y-67202522D01*
X159984948Y-67183000D01*
X160135052Y-67183000D01*
X160233195Y-67202522D01*
X160233195Y-67202522D01*
G37*
M02*
