G04 #@! TF.GenerationSoftware,KiCad,Pcbnew,5.0.2-bee76a0~70~ubuntu16.04.1*
G04 #@! TF.CreationDate,2020-01-11T18:35:07+00:00*
G04 #@! TF.ProjectId,transmitter,7472616e-736d-4697-9474-65722e6b6963,2.0.0*
G04 #@! TF.SameCoordinates,Original*
G04 #@! TF.FileFunction,Legend,Top*
G04 #@! TF.FilePolarity,Positive*
%FSLAX46Y46*%
G04 Gerber Fmt 4.6, Leading zero omitted, Abs format (unit mm)*
G04 Created by KiCad (PCBNEW 5.0.2-bee76a0~70~ubuntu16.04.1) date Sat 11 Jan 2020 18:35:07 GMT*
%MOMM*%
%LPD*%
G01*
G04 APERTURE LIST*
%ADD10C,0.150000*%
%ADD11C,0.300000*%
%ADD12C,0.120000*%
G04 APERTURE END LIST*
D10*
X143636547Y-109506904D02*
X143636547Y-110078333D01*
X143598452Y-110192619D01*
X143522261Y-110268809D01*
X143407976Y-110306904D01*
X143331785Y-110306904D01*
X144360357Y-110306904D02*
X144360357Y-109887857D01*
X144322261Y-109811666D01*
X144246071Y-109773571D01*
X144093690Y-109773571D01*
X144017500Y-109811666D01*
X144360357Y-110268809D02*
X144284166Y-110306904D01*
X144093690Y-110306904D01*
X144017500Y-110268809D01*
X143979404Y-110192619D01*
X143979404Y-110116428D01*
X144017500Y-110040238D01*
X144093690Y-110002142D01*
X144284166Y-110002142D01*
X144360357Y-109964047D01*
X144741309Y-109773571D02*
X144741309Y-110306904D01*
X144741309Y-109849761D02*
X144779404Y-109811666D01*
X144855595Y-109773571D01*
X144969880Y-109773571D01*
X145046071Y-109811666D01*
X145084166Y-109887857D01*
X145084166Y-110306904D01*
X146036547Y-109583095D02*
X146074642Y-109545000D01*
X146150833Y-109506904D01*
X146341309Y-109506904D01*
X146417500Y-109545000D01*
X146455595Y-109583095D01*
X146493690Y-109659285D01*
X146493690Y-109735476D01*
X146455595Y-109849761D01*
X145998452Y-110306904D01*
X146493690Y-110306904D01*
X146988928Y-109506904D02*
X147065119Y-109506904D01*
X147141309Y-109545000D01*
X147179404Y-109583095D01*
X147217500Y-109659285D01*
X147255595Y-109811666D01*
X147255595Y-110002142D01*
X147217500Y-110154523D01*
X147179404Y-110230714D01*
X147141309Y-110268809D01*
X147065119Y-110306904D01*
X146988928Y-110306904D01*
X146912738Y-110268809D01*
X146874642Y-110230714D01*
X146836547Y-110154523D01*
X146798452Y-110002142D01*
X146798452Y-109811666D01*
X146836547Y-109659285D01*
X146874642Y-109583095D01*
X146912738Y-109545000D01*
X146988928Y-109506904D01*
X147560357Y-109583095D02*
X147598452Y-109545000D01*
X147674642Y-109506904D01*
X147865119Y-109506904D01*
X147941309Y-109545000D01*
X147979404Y-109583095D01*
X148017500Y-109659285D01*
X148017500Y-109735476D01*
X147979404Y-109849761D01*
X147522261Y-110306904D01*
X148017500Y-110306904D01*
X148512738Y-109506904D02*
X148588928Y-109506904D01*
X148665119Y-109545000D01*
X148703214Y-109583095D01*
X148741309Y-109659285D01*
X148779404Y-109811666D01*
X148779404Y-110002142D01*
X148741309Y-110154523D01*
X148703214Y-110230714D01*
X148665119Y-110268809D01*
X148588928Y-110306904D01*
X148512738Y-110306904D01*
X148436547Y-110268809D01*
X148398452Y-110230714D01*
X148360357Y-110154523D01*
X148322261Y-110002142D01*
X148322261Y-109811666D01*
X148360357Y-109659285D01*
X148398452Y-109583095D01*
X148436547Y-109545000D01*
X148512738Y-109506904D01*
X150188928Y-110306904D02*
X149922261Y-109925952D01*
X149731785Y-110306904D02*
X149731785Y-109506904D01*
X150036547Y-109506904D01*
X150112738Y-109545000D01*
X150150833Y-109583095D01*
X150188928Y-109659285D01*
X150188928Y-109773571D01*
X150150833Y-109849761D01*
X150112738Y-109887857D01*
X150036547Y-109925952D01*
X149731785Y-109925952D01*
X150836547Y-110268809D02*
X150760357Y-110306904D01*
X150607976Y-110306904D01*
X150531785Y-110268809D01*
X150493690Y-110192619D01*
X150493690Y-109887857D01*
X150531785Y-109811666D01*
X150607976Y-109773571D01*
X150760357Y-109773571D01*
X150836547Y-109811666D01*
X150874642Y-109887857D01*
X150874642Y-109964047D01*
X150493690Y-110040238D01*
X151141309Y-109773571D02*
X151331785Y-110306904D01*
X151522261Y-109773571D01*
X152398452Y-109583095D02*
X152436547Y-109545000D01*
X152512738Y-109506904D01*
X152703214Y-109506904D01*
X152779404Y-109545000D01*
X152817500Y-109583095D01*
X152855595Y-109659285D01*
X152855595Y-109735476D01*
X152817500Y-109849761D01*
X152360357Y-110306904D01*
X152855595Y-110306904D01*
X153198452Y-110230714D02*
X153236547Y-110268809D01*
X153198452Y-110306904D01*
X153160357Y-110268809D01*
X153198452Y-110230714D01*
X153198452Y-110306904D01*
X153731785Y-109506904D02*
X153807976Y-109506904D01*
X153884166Y-109545000D01*
X153922261Y-109583095D01*
X153960357Y-109659285D01*
X153998452Y-109811666D01*
X153998452Y-110002142D01*
X153960357Y-110154523D01*
X153922261Y-110230714D01*
X153884166Y-110268809D01*
X153807976Y-110306904D01*
X153731785Y-110306904D01*
X153655595Y-110268809D01*
X153617500Y-110230714D01*
X153579404Y-110154523D01*
X153541309Y-110002142D01*
X153541309Y-109811666D01*
X153579404Y-109659285D01*
X153617500Y-109583095D01*
X153655595Y-109545000D01*
X153731785Y-109506904D01*
X154341309Y-110230714D02*
X154379404Y-110268809D01*
X154341309Y-110306904D01*
X154303214Y-110268809D01*
X154341309Y-110230714D01*
X154341309Y-110306904D01*
X154874642Y-109506904D02*
X154950833Y-109506904D01*
X155027023Y-109545000D01*
X155065119Y-109583095D01*
X155103214Y-109659285D01*
X155141309Y-109811666D01*
X155141309Y-110002142D01*
X155103214Y-110154523D01*
X155065119Y-110230714D01*
X155027023Y-110268809D01*
X154950833Y-110306904D01*
X154874642Y-110306904D01*
X154798452Y-110268809D01*
X154760357Y-110230714D01*
X154722261Y-110154523D01*
X154684166Y-110002142D01*
X154684166Y-109811666D01*
X154722261Y-109659285D01*
X154760357Y-109583095D01*
X154798452Y-109545000D01*
X154874642Y-109506904D01*
X145662857Y-68078333D02*
X146043809Y-68078333D01*
X145586666Y-68306904D02*
X145853333Y-67506904D01*
X146120000Y-68306904D01*
X146386666Y-68306904D02*
X146386666Y-67506904D01*
X146843809Y-68306904D01*
X146843809Y-67506904D01*
X147110476Y-67506904D02*
X147567619Y-67506904D01*
X147339047Y-68306904D02*
X147339047Y-67506904D01*
X147834285Y-67887857D02*
X148100952Y-67887857D01*
X148215238Y-68306904D02*
X147834285Y-68306904D01*
X147834285Y-67506904D01*
X148215238Y-67506904D01*
X148558095Y-68306904D02*
X148558095Y-67506904D01*
X149015238Y-68306904D01*
X149015238Y-67506904D01*
X149396190Y-68306904D02*
X149396190Y-67506904D01*
X149853333Y-68306904D01*
X149853333Y-67506904D01*
X150196190Y-68078333D02*
X150577142Y-68078333D01*
X150120000Y-68306904D02*
X150386666Y-67506904D01*
X150653333Y-68306904D01*
X151181904Y-96906904D02*
X151639047Y-96906904D01*
X151410476Y-97706904D02*
X151410476Y-96906904D01*
X151905714Y-97706904D02*
X151905714Y-96906904D01*
X152286666Y-97706904D02*
X152286666Y-96906904D01*
X152553333Y-97478333D01*
X152820000Y-96906904D01*
X152820000Y-97706904D01*
X153200952Y-97287857D02*
X153467619Y-97287857D01*
X153581904Y-97706904D02*
X153200952Y-97706904D01*
X153200952Y-96906904D01*
X153581904Y-96906904D01*
X155905714Y-85804404D02*
X154748571Y-85118690D01*
X155905714Y-86642500D02*
X154748571Y-85956785D01*
X155562857Y-87252023D02*
X154834285Y-87252023D01*
X154748571Y-87213928D01*
X154705714Y-87175833D01*
X154662857Y-87099642D01*
X154662857Y-86985357D01*
X154705714Y-86909166D01*
X155005714Y-87252023D02*
X154962857Y-87175833D01*
X154962857Y-87023452D01*
X155005714Y-86947261D01*
X155048571Y-86909166D01*
X155134285Y-86871071D01*
X155391428Y-86871071D01*
X155477142Y-86909166D01*
X155520000Y-86947261D01*
X155562857Y-87023452D01*
X155562857Y-87175833D01*
X155520000Y-87252023D01*
X154962857Y-87632976D02*
X155562857Y-87632976D01*
X155862857Y-87632976D02*
X155820000Y-87594880D01*
X155777142Y-87632976D01*
X155820000Y-87671071D01*
X155862857Y-87632976D01*
X155777142Y-87632976D01*
X155562857Y-87899642D02*
X155562857Y-88204404D01*
X155862857Y-88013928D02*
X155091428Y-88013928D01*
X155005714Y-88052023D01*
X154962857Y-88128214D01*
X154962857Y-88204404D01*
X154962857Y-88471071D02*
X155862857Y-88471071D01*
X154962857Y-88813928D02*
X155434285Y-88813928D01*
X155520000Y-88775833D01*
X155562857Y-88699642D01*
X155562857Y-88585357D01*
X155520000Y-88509166D01*
X155477142Y-88471071D01*
X155562857Y-89537738D02*
X154962857Y-89537738D01*
X155562857Y-89194880D02*
X155091428Y-89194880D01*
X155005714Y-89232976D01*
X154962857Y-89309166D01*
X154962857Y-89423452D01*
X155005714Y-89499642D01*
X155048571Y-89537738D01*
X154962857Y-89918690D02*
X155862857Y-89918690D01*
X155520000Y-89918690D02*
X155562857Y-89994880D01*
X155562857Y-90147261D01*
X155520000Y-90223452D01*
X155477142Y-90261547D01*
X155391428Y-90299642D01*
X155134285Y-90299642D01*
X155048571Y-90261547D01*
X155005714Y-90223452D01*
X154962857Y-90147261D01*
X154962857Y-89994880D01*
X155005714Y-89918690D01*
X155048571Y-90642500D02*
X155005714Y-90680595D01*
X154962857Y-90642500D01*
X155005714Y-90604404D01*
X155048571Y-90642500D01*
X154962857Y-90642500D01*
X155005714Y-91366309D02*
X154962857Y-91290119D01*
X154962857Y-91137738D01*
X155005714Y-91061547D01*
X155048571Y-91023452D01*
X155134285Y-90985357D01*
X155391428Y-90985357D01*
X155477142Y-91023452D01*
X155520000Y-91061547D01*
X155562857Y-91137738D01*
X155562857Y-91290119D01*
X155520000Y-91366309D01*
X154962857Y-91823452D02*
X155005714Y-91747261D01*
X155048571Y-91709166D01*
X155134285Y-91671071D01*
X155391428Y-91671071D01*
X155477142Y-91709166D01*
X155520000Y-91747261D01*
X155562857Y-91823452D01*
X155562857Y-91937738D01*
X155520000Y-92013928D01*
X155477142Y-92052023D01*
X155391428Y-92090119D01*
X155134285Y-92090119D01*
X155048571Y-92052023D01*
X155005714Y-92013928D01*
X154962857Y-91937738D01*
X154962857Y-91823452D01*
X154962857Y-92432976D02*
X155562857Y-92432976D01*
X155477142Y-92432976D02*
X155520000Y-92471071D01*
X155562857Y-92547261D01*
X155562857Y-92661547D01*
X155520000Y-92737738D01*
X155434285Y-92775833D01*
X154962857Y-92775833D01*
X155434285Y-92775833D02*
X155520000Y-92813928D01*
X155562857Y-92890119D01*
X155562857Y-93004404D01*
X155520000Y-93080595D01*
X155434285Y-93118690D01*
X154962857Y-93118690D01*
X155905714Y-94071071D02*
X154748571Y-93385357D01*
X155562857Y-94223452D02*
X155562857Y-94528214D01*
X155862857Y-94337738D02*
X155091428Y-94337738D01*
X155005714Y-94375833D01*
X154962857Y-94452023D01*
X154962857Y-94528214D01*
X154962857Y-94794880D02*
X155862857Y-94794880D01*
X154962857Y-95137738D02*
X155434285Y-95137738D01*
X155520000Y-95099642D01*
X155562857Y-95023452D01*
X155562857Y-94909166D01*
X155520000Y-94832976D01*
X155477142Y-94794880D01*
X155005714Y-95823452D02*
X154962857Y-95747261D01*
X154962857Y-95594880D01*
X155005714Y-95518690D01*
X155091428Y-95480595D01*
X155434285Y-95480595D01*
X155520000Y-95518690D01*
X155562857Y-95594880D01*
X155562857Y-95747261D01*
X155520000Y-95823452D01*
X155434285Y-95861547D01*
X155348571Y-95861547D01*
X155262857Y-95480595D01*
X154962857Y-96547261D02*
X155434285Y-96547261D01*
X155520000Y-96509166D01*
X155562857Y-96432976D01*
X155562857Y-96280595D01*
X155520000Y-96204404D01*
X155005714Y-96547261D02*
X154962857Y-96471071D01*
X154962857Y-96280595D01*
X155005714Y-96204404D01*
X155091428Y-96166309D01*
X155177142Y-96166309D01*
X155262857Y-96204404D01*
X155305714Y-96280595D01*
X155305714Y-96471071D01*
X155348571Y-96547261D01*
X155562857Y-96928214D02*
X154662857Y-96928214D01*
X155520000Y-96928214D02*
X155562857Y-97004404D01*
X155562857Y-97156785D01*
X155520000Y-97232976D01*
X155477142Y-97271071D01*
X155391428Y-97309166D01*
X155134285Y-97309166D01*
X155048571Y-97271071D01*
X155005714Y-97232976D01*
X154962857Y-97156785D01*
X154962857Y-97004404D01*
X155005714Y-96928214D01*
X154962857Y-97652023D02*
X155562857Y-97652023D01*
X155862857Y-97652023D02*
X155820000Y-97613928D01*
X155777142Y-97652023D01*
X155820000Y-97690119D01*
X155862857Y-97652023D01*
X155777142Y-97652023D01*
X155905714Y-98604404D02*
X154748571Y-97918690D01*
X153505714Y-85537738D02*
X153462857Y-85461547D01*
X153462857Y-85309166D01*
X153505714Y-85232976D01*
X153591428Y-85194880D01*
X153934285Y-85194880D01*
X154020000Y-85232976D01*
X154062857Y-85309166D01*
X154062857Y-85461547D01*
X154020000Y-85537738D01*
X153934285Y-85575833D01*
X153848571Y-85575833D01*
X153762857Y-85194880D01*
X153505714Y-85880595D02*
X153462857Y-85956785D01*
X153462857Y-86109166D01*
X153505714Y-86185357D01*
X153591428Y-86223452D01*
X153634285Y-86223452D01*
X153720000Y-86185357D01*
X153762857Y-86109166D01*
X153762857Y-85994880D01*
X153805714Y-85918690D01*
X153891428Y-85880595D01*
X153934285Y-85880595D01*
X154020000Y-85918690D01*
X154062857Y-85994880D01*
X154062857Y-86109166D01*
X154020000Y-86185357D01*
X154062857Y-86566309D02*
X153162857Y-86566309D01*
X154020000Y-86566309D02*
X154062857Y-86642500D01*
X154062857Y-86794880D01*
X154020000Y-86871071D01*
X153977142Y-86909166D01*
X153891428Y-86947261D01*
X153634285Y-86947261D01*
X153548571Y-86909166D01*
X153505714Y-86871071D01*
X153462857Y-86794880D01*
X153462857Y-86642500D01*
X153505714Y-86566309D01*
X153977142Y-87404404D02*
X154020000Y-87328214D01*
X154062857Y-87290119D01*
X154148571Y-87252023D01*
X154191428Y-87252023D01*
X154277142Y-87290119D01*
X154320000Y-87328214D01*
X154362857Y-87404404D01*
X154362857Y-87556785D01*
X154320000Y-87632976D01*
X154277142Y-87671071D01*
X154191428Y-87709166D01*
X154148571Y-87709166D01*
X154062857Y-87671071D01*
X154020000Y-87632976D01*
X153977142Y-87556785D01*
X153977142Y-87404404D01*
X153934285Y-87328214D01*
X153891428Y-87290119D01*
X153805714Y-87252023D01*
X153634285Y-87252023D01*
X153548571Y-87290119D01*
X153505714Y-87328214D01*
X153462857Y-87404404D01*
X153462857Y-87556785D01*
X153505714Y-87632976D01*
X153548571Y-87671071D01*
X153634285Y-87709166D01*
X153805714Y-87709166D01*
X153891428Y-87671071D01*
X153934285Y-87632976D01*
X153977142Y-87556785D01*
X154277142Y-88013928D02*
X154320000Y-88052023D01*
X154362857Y-88128214D01*
X154362857Y-88318690D01*
X154320000Y-88394880D01*
X154277142Y-88432976D01*
X154191428Y-88471071D01*
X154105714Y-88471071D01*
X153977142Y-88432976D01*
X153462857Y-87975833D01*
X153462857Y-88471071D01*
X154362857Y-89156785D02*
X154362857Y-89004404D01*
X154320000Y-88928214D01*
X154277142Y-88890119D01*
X154148571Y-88813928D01*
X153977142Y-88775833D01*
X153634285Y-88775833D01*
X153548571Y-88813928D01*
X153505714Y-88852023D01*
X153462857Y-88928214D01*
X153462857Y-89080595D01*
X153505714Y-89156785D01*
X153548571Y-89194880D01*
X153634285Y-89232976D01*
X153848571Y-89232976D01*
X153934285Y-89194880D01*
X153977142Y-89156785D01*
X154020000Y-89080595D01*
X154020000Y-88928214D01*
X153977142Y-88852023D01*
X153934285Y-88813928D01*
X153848571Y-88775833D01*
X154362857Y-89918690D02*
X154362857Y-89766309D01*
X154320000Y-89690119D01*
X154277142Y-89652023D01*
X154148571Y-89575833D01*
X153977142Y-89537738D01*
X153634285Y-89537738D01*
X153548571Y-89575833D01*
X153505714Y-89613928D01*
X153462857Y-89690119D01*
X153462857Y-89842500D01*
X153505714Y-89918690D01*
X153548571Y-89956785D01*
X153634285Y-89994880D01*
X153848571Y-89994880D01*
X153934285Y-89956785D01*
X153977142Y-89918690D01*
X154020000Y-89842500D01*
X154020000Y-89690119D01*
X153977142Y-89613928D01*
X153934285Y-89575833D01*
X153848571Y-89537738D01*
X154062857Y-90261547D02*
X153462857Y-90413928D01*
X153891428Y-90566309D01*
X153462857Y-90718690D01*
X154062857Y-90871071D01*
X153505714Y-91137738D02*
X153462857Y-91213928D01*
X153462857Y-91366309D01*
X153505714Y-91442500D01*
X153591428Y-91480595D01*
X153634285Y-91480595D01*
X153720000Y-91442500D01*
X153762857Y-91366309D01*
X153762857Y-91252023D01*
X153805714Y-91175833D01*
X153891428Y-91137738D01*
X153934285Y-91137738D01*
X154020000Y-91175833D01*
X154062857Y-91252023D01*
X154062857Y-91366309D01*
X154020000Y-91442500D01*
X154062857Y-91823452D02*
X153462857Y-91823452D01*
X153977142Y-91823452D02*
X154020000Y-91861547D01*
X154062857Y-91937738D01*
X154062857Y-92052023D01*
X154020000Y-92128214D01*
X153934285Y-92166309D01*
X153462857Y-92166309D01*
X163193809Y-71042619D02*
X163231904Y-70928333D01*
X163231904Y-70737857D01*
X163193809Y-70661666D01*
X163155714Y-70623571D01*
X163079523Y-70585476D01*
X163003333Y-70585476D01*
X162927142Y-70623571D01*
X162889047Y-70661666D01*
X162850952Y-70737857D01*
X162812857Y-70890238D01*
X162774761Y-70966428D01*
X162736666Y-71004523D01*
X162660476Y-71042619D01*
X162584285Y-71042619D01*
X162508095Y-71004523D01*
X162470000Y-70966428D01*
X162431904Y-70890238D01*
X162431904Y-70699761D01*
X162470000Y-70585476D01*
X162431904Y-70090238D02*
X162431904Y-69937857D01*
X162470000Y-69861666D01*
X162546190Y-69785476D01*
X162698571Y-69747380D01*
X162965238Y-69747380D01*
X163117619Y-69785476D01*
X163193809Y-69861666D01*
X163231904Y-69937857D01*
X163231904Y-70090238D01*
X163193809Y-70166428D01*
X163117619Y-70242619D01*
X162965238Y-70280714D01*
X162698571Y-70280714D01*
X162546190Y-70242619D01*
X162470000Y-70166428D01*
X162431904Y-70090238D01*
X163231904Y-69404523D02*
X162431904Y-69404523D01*
X163231904Y-68642619D02*
X163231904Y-69023571D01*
X162431904Y-69023571D01*
X162431904Y-67423571D02*
X162431904Y-67575952D01*
X162470000Y-67652142D01*
X162508095Y-67690238D01*
X162622380Y-67766428D01*
X162774761Y-67804523D01*
X163079523Y-67804523D01*
X163155714Y-67766428D01*
X163193809Y-67728333D01*
X163231904Y-67652142D01*
X163231904Y-67499761D01*
X163193809Y-67423571D01*
X163155714Y-67385476D01*
X163079523Y-67347380D01*
X162889047Y-67347380D01*
X162812857Y-67385476D01*
X162774761Y-67423571D01*
X162736666Y-67499761D01*
X162736666Y-67652142D01*
X162774761Y-67728333D01*
X162812857Y-67766428D01*
X162889047Y-67804523D01*
X163193809Y-78542619D02*
X163231904Y-78428333D01*
X163231904Y-78237857D01*
X163193809Y-78161666D01*
X163155714Y-78123571D01*
X163079523Y-78085476D01*
X163003333Y-78085476D01*
X162927142Y-78123571D01*
X162889047Y-78161666D01*
X162850952Y-78237857D01*
X162812857Y-78390238D01*
X162774761Y-78466428D01*
X162736666Y-78504523D01*
X162660476Y-78542619D01*
X162584285Y-78542619D01*
X162508095Y-78504523D01*
X162470000Y-78466428D01*
X162431904Y-78390238D01*
X162431904Y-78199761D01*
X162470000Y-78085476D01*
X162431904Y-77590238D02*
X162431904Y-77437857D01*
X162470000Y-77361666D01*
X162546190Y-77285476D01*
X162698571Y-77247380D01*
X162965238Y-77247380D01*
X163117619Y-77285476D01*
X163193809Y-77361666D01*
X163231904Y-77437857D01*
X163231904Y-77590238D01*
X163193809Y-77666428D01*
X163117619Y-77742619D01*
X162965238Y-77780714D01*
X162698571Y-77780714D01*
X162546190Y-77742619D01*
X162470000Y-77666428D01*
X162431904Y-77590238D01*
X163231904Y-76904523D02*
X162431904Y-76904523D01*
X163231904Y-76142619D02*
X163231904Y-76523571D01*
X162431904Y-76523571D01*
X162431904Y-74885476D02*
X162431904Y-75266428D01*
X162812857Y-75304523D01*
X162774761Y-75266428D01*
X162736666Y-75190238D01*
X162736666Y-74999761D01*
X162774761Y-74923571D01*
X162812857Y-74885476D01*
X162889047Y-74847380D01*
X163079523Y-74847380D01*
X163155714Y-74885476D01*
X163193809Y-74923571D01*
X163231904Y-74999761D01*
X163231904Y-75190238D01*
X163193809Y-75266428D01*
X163155714Y-75304523D01*
X163193809Y-86292619D02*
X163231904Y-86178333D01*
X163231904Y-85987857D01*
X163193809Y-85911666D01*
X163155714Y-85873571D01*
X163079523Y-85835476D01*
X163003333Y-85835476D01*
X162927142Y-85873571D01*
X162889047Y-85911666D01*
X162850952Y-85987857D01*
X162812857Y-86140238D01*
X162774761Y-86216428D01*
X162736666Y-86254523D01*
X162660476Y-86292619D01*
X162584285Y-86292619D01*
X162508095Y-86254523D01*
X162470000Y-86216428D01*
X162431904Y-86140238D01*
X162431904Y-85949761D01*
X162470000Y-85835476D01*
X162431904Y-85340238D02*
X162431904Y-85187857D01*
X162470000Y-85111666D01*
X162546190Y-85035476D01*
X162698571Y-84997380D01*
X162965238Y-84997380D01*
X163117619Y-85035476D01*
X163193809Y-85111666D01*
X163231904Y-85187857D01*
X163231904Y-85340238D01*
X163193809Y-85416428D01*
X163117619Y-85492619D01*
X162965238Y-85530714D01*
X162698571Y-85530714D01*
X162546190Y-85492619D01*
X162470000Y-85416428D01*
X162431904Y-85340238D01*
X163231904Y-84654523D02*
X162431904Y-84654523D01*
X163231904Y-83892619D02*
X163231904Y-84273571D01*
X162431904Y-84273571D01*
X162698571Y-82673571D02*
X163231904Y-82673571D01*
X162393809Y-82864047D02*
X162965238Y-83054523D01*
X162965238Y-82559285D01*
X163193809Y-93792619D02*
X163231904Y-93678333D01*
X163231904Y-93487857D01*
X163193809Y-93411666D01*
X163155714Y-93373571D01*
X163079523Y-93335476D01*
X163003333Y-93335476D01*
X162927142Y-93373571D01*
X162889047Y-93411666D01*
X162850952Y-93487857D01*
X162812857Y-93640238D01*
X162774761Y-93716428D01*
X162736666Y-93754523D01*
X162660476Y-93792619D01*
X162584285Y-93792619D01*
X162508095Y-93754523D01*
X162470000Y-93716428D01*
X162431904Y-93640238D01*
X162431904Y-93449761D01*
X162470000Y-93335476D01*
X162431904Y-92840238D02*
X162431904Y-92687857D01*
X162470000Y-92611666D01*
X162546190Y-92535476D01*
X162698571Y-92497380D01*
X162965238Y-92497380D01*
X163117619Y-92535476D01*
X163193809Y-92611666D01*
X163231904Y-92687857D01*
X163231904Y-92840238D01*
X163193809Y-92916428D01*
X163117619Y-92992619D01*
X162965238Y-93030714D01*
X162698571Y-93030714D01*
X162546190Y-92992619D01*
X162470000Y-92916428D01*
X162431904Y-92840238D01*
X163231904Y-92154523D02*
X162431904Y-92154523D01*
X163231904Y-91392619D02*
X163231904Y-91773571D01*
X162431904Y-91773571D01*
X162431904Y-90592619D02*
X162431904Y-90097380D01*
X162736666Y-90364047D01*
X162736666Y-90249761D01*
X162774761Y-90173571D01*
X162812857Y-90135476D01*
X162889047Y-90097380D01*
X163079523Y-90097380D01*
X163155714Y-90135476D01*
X163193809Y-90173571D01*
X163231904Y-90249761D01*
X163231904Y-90478333D01*
X163193809Y-90554523D01*
X163155714Y-90592619D01*
X163193809Y-101542619D02*
X163231904Y-101428333D01*
X163231904Y-101237857D01*
X163193809Y-101161666D01*
X163155714Y-101123571D01*
X163079523Y-101085476D01*
X163003333Y-101085476D01*
X162927142Y-101123571D01*
X162889047Y-101161666D01*
X162850952Y-101237857D01*
X162812857Y-101390238D01*
X162774761Y-101466428D01*
X162736666Y-101504523D01*
X162660476Y-101542619D01*
X162584285Y-101542619D01*
X162508095Y-101504523D01*
X162470000Y-101466428D01*
X162431904Y-101390238D01*
X162431904Y-101199761D01*
X162470000Y-101085476D01*
X162431904Y-100590238D02*
X162431904Y-100437857D01*
X162470000Y-100361666D01*
X162546190Y-100285476D01*
X162698571Y-100247380D01*
X162965238Y-100247380D01*
X163117619Y-100285476D01*
X163193809Y-100361666D01*
X163231904Y-100437857D01*
X163231904Y-100590238D01*
X163193809Y-100666428D01*
X163117619Y-100742619D01*
X162965238Y-100780714D01*
X162698571Y-100780714D01*
X162546190Y-100742619D01*
X162470000Y-100666428D01*
X162431904Y-100590238D01*
X163231904Y-99904523D02*
X162431904Y-99904523D01*
X163231904Y-99142619D02*
X163231904Y-99523571D01*
X162431904Y-99523571D01*
X162508095Y-98304523D02*
X162470000Y-98266428D01*
X162431904Y-98190238D01*
X162431904Y-97999761D01*
X162470000Y-97923571D01*
X162508095Y-97885476D01*
X162584285Y-97847380D01*
X162660476Y-97847380D01*
X162774761Y-97885476D01*
X163231904Y-98342619D01*
X163231904Y-97847380D01*
X163193809Y-109292619D02*
X163231904Y-109178333D01*
X163231904Y-108987857D01*
X163193809Y-108911666D01*
X163155714Y-108873571D01*
X163079523Y-108835476D01*
X163003333Y-108835476D01*
X162927142Y-108873571D01*
X162889047Y-108911666D01*
X162850952Y-108987857D01*
X162812857Y-109140238D01*
X162774761Y-109216428D01*
X162736666Y-109254523D01*
X162660476Y-109292619D01*
X162584285Y-109292619D01*
X162508095Y-109254523D01*
X162470000Y-109216428D01*
X162431904Y-109140238D01*
X162431904Y-108949761D01*
X162470000Y-108835476D01*
X162431904Y-108340238D02*
X162431904Y-108187857D01*
X162470000Y-108111666D01*
X162546190Y-108035476D01*
X162698571Y-107997380D01*
X162965238Y-107997380D01*
X163117619Y-108035476D01*
X163193809Y-108111666D01*
X163231904Y-108187857D01*
X163231904Y-108340238D01*
X163193809Y-108416428D01*
X163117619Y-108492619D01*
X162965238Y-108530714D01*
X162698571Y-108530714D01*
X162546190Y-108492619D01*
X162470000Y-108416428D01*
X162431904Y-108340238D01*
X163231904Y-107654523D02*
X162431904Y-107654523D01*
X163231904Y-106892619D02*
X163231904Y-107273571D01*
X162431904Y-107273571D01*
X163231904Y-105597380D02*
X163231904Y-106054523D01*
X163231904Y-105825952D02*
X162431904Y-105825952D01*
X162546190Y-105902142D01*
X162622380Y-105978333D01*
X162660476Y-106054523D01*
X118181904Y-88240238D02*
X118181904Y-88087857D01*
X118220000Y-88011666D01*
X118296190Y-87935476D01*
X118448571Y-87897380D01*
X118715238Y-87897380D01*
X118867619Y-87935476D01*
X118943809Y-88011666D01*
X118981904Y-88087857D01*
X118981904Y-88240238D01*
X118943809Y-88316428D01*
X118867619Y-88392619D01*
X118715238Y-88430714D01*
X118448571Y-88430714D01*
X118296190Y-88392619D01*
X118220000Y-88316428D01*
X118181904Y-88240238D01*
X118181904Y-87554523D02*
X118829523Y-87554523D01*
X118905714Y-87516428D01*
X118943809Y-87478333D01*
X118981904Y-87402142D01*
X118981904Y-87249761D01*
X118943809Y-87173571D01*
X118905714Y-87135476D01*
X118829523Y-87097380D01*
X118181904Y-87097380D01*
X118181904Y-86830714D02*
X118181904Y-86373571D01*
X118981904Y-86602142D02*
X118181904Y-86602142D01*
X118677142Y-86106904D02*
X118677142Y-85497380D01*
X132181904Y-87990238D02*
X132181904Y-87837857D01*
X132220000Y-87761666D01*
X132296190Y-87685476D01*
X132448571Y-87647380D01*
X132715238Y-87647380D01*
X132867619Y-87685476D01*
X132943809Y-87761666D01*
X132981904Y-87837857D01*
X132981904Y-87990238D01*
X132943809Y-88066428D01*
X132867619Y-88142619D01*
X132715238Y-88180714D01*
X132448571Y-88180714D01*
X132296190Y-88142619D01*
X132220000Y-88066428D01*
X132181904Y-87990238D01*
X132181904Y-87304523D02*
X132829523Y-87304523D01*
X132905714Y-87266428D01*
X132943809Y-87228333D01*
X132981904Y-87152142D01*
X132981904Y-86999761D01*
X132943809Y-86923571D01*
X132905714Y-86885476D01*
X132829523Y-86847380D01*
X132181904Y-86847380D01*
X132181904Y-86580714D02*
X132181904Y-86123571D01*
X132981904Y-86352142D02*
X132181904Y-86352142D01*
X132677142Y-85856904D02*
X132677142Y-85247380D01*
X132981904Y-85552142D02*
X132372380Y-85552142D01*
X128272380Y-111306904D02*
X128272380Y-110506904D01*
X128577142Y-110506904D01*
X128653333Y-110545000D01*
X128691428Y-110583095D01*
X128729523Y-110659285D01*
X128729523Y-110773571D01*
X128691428Y-110849761D01*
X128653333Y-110887857D01*
X128577142Y-110925952D01*
X128272380Y-110925952D01*
X129224761Y-110506904D02*
X129377142Y-110506904D01*
X129453333Y-110545000D01*
X129529523Y-110621190D01*
X129567619Y-110773571D01*
X129567619Y-111040238D01*
X129529523Y-111192619D01*
X129453333Y-111268809D01*
X129377142Y-111306904D01*
X129224761Y-111306904D01*
X129148571Y-111268809D01*
X129072380Y-111192619D01*
X129034285Y-111040238D01*
X129034285Y-110773571D01*
X129072380Y-110621190D01*
X129148571Y-110545000D01*
X129224761Y-110506904D01*
X129834285Y-110506904D02*
X130024761Y-111306904D01*
X130177142Y-110735476D01*
X130329523Y-111306904D01*
X130520000Y-110506904D01*
X130824761Y-110887857D02*
X131091428Y-110887857D01*
X131205714Y-111306904D02*
X130824761Y-111306904D01*
X130824761Y-110506904D01*
X131205714Y-110506904D01*
X132005714Y-111306904D02*
X131739047Y-110925952D01*
X131548571Y-111306904D02*
X131548571Y-110506904D01*
X131853333Y-110506904D01*
X131929523Y-110545000D01*
X131967619Y-110583095D01*
X132005714Y-110659285D01*
X132005714Y-110773571D01*
X131967619Y-110849761D01*
X131929523Y-110887857D01*
X131853333Y-110925952D01*
X131548571Y-110925952D01*
X128970000Y-93954523D02*
X128931904Y-94030714D01*
X128931904Y-94145000D01*
X128970000Y-94259285D01*
X129046190Y-94335476D01*
X129122380Y-94373571D01*
X129274761Y-94411666D01*
X129389047Y-94411666D01*
X129541428Y-94373571D01*
X129617619Y-94335476D01*
X129693809Y-94259285D01*
X129731904Y-94145000D01*
X129731904Y-94068809D01*
X129693809Y-93954523D01*
X129655714Y-93916428D01*
X129389047Y-93916428D01*
X129389047Y-94068809D01*
X129731904Y-93573571D02*
X128931904Y-93573571D01*
X129731904Y-93116428D01*
X128931904Y-93116428D01*
X129731904Y-92735476D02*
X128931904Y-92735476D01*
X128931904Y-92545000D01*
X128970000Y-92430714D01*
X129046190Y-92354523D01*
X129122380Y-92316428D01*
X129274761Y-92278333D01*
X129389047Y-92278333D01*
X129541428Y-92316428D01*
X129617619Y-92354523D01*
X129693809Y-92430714D01*
X129731904Y-92545000D01*
X129731904Y-92735476D01*
X131681904Y-94185476D02*
X131681904Y-93690238D01*
X131986666Y-93956904D01*
X131986666Y-93842619D01*
X132024761Y-93766428D01*
X132062857Y-93728333D01*
X132139047Y-93690238D01*
X132329523Y-93690238D01*
X132405714Y-93728333D01*
X132443809Y-93766428D01*
X132481904Y-93842619D01*
X132481904Y-94071190D01*
X132443809Y-94147380D01*
X132405714Y-94185476D01*
X131681904Y-93461666D02*
X132481904Y-93195000D01*
X131681904Y-92928333D01*
X131681904Y-92737857D02*
X131681904Y-92242619D01*
X131986666Y-92509285D01*
X131986666Y-92395000D01*
X132024761Y-92318809D01*
X132062857Y-92280714D01*
X132139047Y-92242619D01*
X132329523Y-92242619D01*
X132405714Y-92280714D01*
X132443809Y-92318809D01*
X132481904Y-92395000D01*
X132481904Y-92623571D01*
X132443809Y-92699761D01*
X132405714Y-92737857D01*
D11*
X121214285Y-77513571D02*
X122071428Y-77513571D01*
X121642857Y-79013571D02*
X121642857Y-77513571D01*
X122571428Y-79013571D02*
X122571428Y-77513571D01*
X123142857Y-77513571D01*
X123285714Y-77585000D01*
X123357142Y-77656428D01*
X123428571Y-77799285D01*
X123428571Y-78013571D01*
X123357142Y-78156428D01*
X123285714Y-78227857D01*
X123142857Y-78299285D01*
X122571428Y-78299285D01*
X124714285Y-78013571D02*
X124714285Y-79013571D01*
X124357142Y-77442142D02*
X124000000Y-78513571D01*
X124928571Y-78513571D01*
X125785714Y-77513571D02*
X125928571Y-77513571D01*
X126071428Y-77585000D01*
X126142857Y-77656428D01*
X126214285Y-77799285D01*
X126285714Y-78085000D01*
X126285714Y-78442142D01*
X126214285Y-78727857D01*
X126142857Y-78870714D01*
X126071428Y-78942142D01*
X125928571Y-79013571D01*
X125785714Y-79013571D01*
X125642857Y-78942142D01*
X125571428Y-78870714D01*
X125500000Y-78727857D01*
X125428571Y-78442142D01*
X125428571Y-78085000D01*
X125500000Y-77799285D01*
X125571428Y-77656428D01*
X125642857Y-77585000D01*
X125785714Y-77513571D01*
X127642857Y-77513571D02*
X126928571Y-77513571D01*
X126857142Y-78227857D01*
X126928571Y-78156428D01*
X127071428Y-78085000D01*
X127428571Y-78085000D01*
X127571428Y-78156428D01*
X127642857Y-78227857D01*
X127714285Y-78370714D01*
X127714285Y-78727857D01*
X127642857Y-78870714D01*
X127571428Y-78942142D01*
X127428571Y-79013571D01*
X127071428Y-79013571D01*
X126928571Y-78942142D01*
X126857142Y-78870714D01*
X129000000Y-77513571D02*
X128714285Y-77513571D01*
X128571428Y-77585000D01*
X128500000Y-77656428D01*
X128357142Y-77870714D01*
X128285714Y-78156428D01*
X128285714Y-78727857D01*
X128357142Y-78870714D01*
X128428571Y-78942142D01*
X128571428Y-79013571D01*
X128857142Y-79013571D01*
X129000000Y-78942142D01*
X129071428Y-78870714D01*
X129142857Y-78727857D01*
X129142857Y-78370714D01*
X129071428Y-78227857D01*
X129000000Y-78156428D01*
X128857142Y-78085000D01*
X128571428Y-78085000D01*
X128428571Y-78156428D01*
X128357142Y-78227857D01*
X128285714Y-78370714D01*
D10*
G04 #@! TO.C,U1*
X142620000Y-69445000D02*
X154620000Y-69445000D01*
X154620000Y-69445000D02*
X154620000Y-84445000D01*
X154620000Y-84445000D02*
X142620000Y-84445000D01*
X142620000Y-84445000D02*
X142620000Y-69445000D01*
X150630000Y-67270000D02*
X143010000Y-67270000D01*
X143010000Y-67270000D02*
X143010000Y-62190000D01*
X143010000Y-62190000D02*
X144280000Y-62190000D01*
X144280000Y-62190000D02*
X144280000Y-66000000D01*
X144280000Y-66000000D02*
X145550000Y-66000000D01*
X145550000Y-66000000D02*
X145550000Y-62190000D01*
X145550000Y-62190000D02*
X146820000Y-62190000D01*
X146820000Y-62190000D02*
X146820000Y-66000000D01*
X146820000Y-66000000D02*
X148090000Y-66000000D01*
X148090000Y-66000000D02*
X148090000Y-62190000D01*
X148090000Y-62190000D02*
X149360000Y-62190000D01*
X149360000Y-62190000D02*
X149360000Y-66000000D01*
X149360000Y-66000000D02*
X150630000Y-66000000D01*
X150630000Y-66000000D02*
X150630000Y-62190000D01*
X150630000Y-62190000D02*
X154440000Y-62190000D01*
X140200000Y-63445000D02*
G75*
G03X140200000Y-63445000I-1500000J0D01*
G01*
X160120000Y-63445000D02*
G75*
G03X160120000Y-63445000I-1500000J0D01*
G01*
X161120000Y-60945000D02*
X136200000Y-60945000D01*
X136200000Y-60945000D02*
X136190000Y-104500000D01*
X161090000Y-105000000D02*
X161120000Y-60945000D01*
D12*
G04 #@! TO.C,C6*
X126291267Y-96455000D02*
X125948733Y-96455000D01*
X126291267Y-95435000D02*
X125948733Y-95435000D01*
G04 #@! TO.C,SW1*
X124120000Y-110215000D02*
X116500000Y-110215000D01*
X116500000Y-110215000D02*
X116500000Y-109915000D01*
X116500000Y-102595000D02*
X124120000Y-102595000D01*
X124120000Y-110215000D02*
X124120000Y-109915000D01*
X116500000Y-107975000D02*
X116500000Y-104835000D01*
X124120000Y-107975000D02*
X124120000Y-104835000D01*
X116500000Y-102895000D02*
X116500000Y-102595000D01*
X124120000Y-102895000D02*
X124120000Y-102595000D01*
X122850000Y-106405000D02*
G75*
G03X122850000Y-106405000I-2540000J0D01*
G01*
G04 #@! TO.C,C5*
X144973733Y-107905000D02*
X145316267Y-107905000D01*
X144973733Y-106885000D02*
X145316267Y-106885000D01*
G04 #@! TO.C,SW2*
X132740000Y-110275000D02*
X132740000Y-107615000D01*
X130140000Y-110275000D02*
X132740000Y-110275000D01*
X130140000Y-107615000D02*
X132740000Y-107615000D01*
X130140000Y-110275000D02*
X130140000Y-107615000D01*
X128870000Y-110275000D02*
X127540000Y-110275000D01*
X127540000Y-110275000D02*
X127540000Y-108945000D01*
G04 #@! TO.C,J4*
X133990000Y-91275000D02*
X133990000Y-88615000D01*
X131390000Y-91275000D02*
X133990000Y-91275000D01*
X131390000Y-88615000D02*
X133990000Y-88615000D01*
X131390000Y-91275000D02*
X131390000Y-88615000D01*
X118620000Y-91275000D02*
X117290000Y-91275000D01*
X117290000Y-91275000D02*
X117290000Y-89945000D01*
G04 #@! TO.C,C2*
X156730000Y-70716267D02*
X156730000Y-70373733D01*
X155710000Y-70716267D02*
X155710000Y-70373733D01*
G04 #@! TO.C,C1*
X153510000Y-70716267D02*
X153510000Y-70373733D01*
X154530000Y-70716267D02*
X154530000Y-70373733D01*
G04 #@! TO.C,C3*
X140610000Y-105523733D02*
X140610000Y-105866267D01*
X141630000Y-105523733D02*
X141630000Y-105866267D01*
G04 #@! TO.C,C4*
X156648733Y-106835000D02*
X156991267Y-106835000D01*
X156648733Y-107855000D02*
X156991267Y-107855000D01*
G04 #@! TO.C,R1*
X148791267Y-87205000D02*
X148448733Y-87205000D01*
X148791267Y-86185000D02*
X148448733Y-86185000D01*
G04 #@! TO.C,R2*
X144041267Y-86185000D02*
X143698733Y-86185000D01*
X144041267Y-87205000D02*
X143698733Y-87205000D01*
G04 #@! TO.C,R3*
X155831267Y-74725000D02*
X155488733Y-74725000D01*
X155831267Y-73705000D02*
X155488733Y-73705000D01*
G04 #@! TO.C,R4*
X155831267Y-76245000D02*
X155488733Y-76245000D01*
X155831267Y-77265000D02*
X155488733Y-77265000D01*
G04 #@! TO.C,R5*
X155831267Y-79805000D02*
X155488733Y-79805000D01*
X155831267Y-78785000D02*
X155488733Y-78785000D01*
G04 #@! TO.C,R6*
X155831267Y-81325000D02*
X155488733Y-81325000D01*
X155831267Y-82345000D02*
X155488733Y-82345000D01*
G04 #@! TO.C,R7*
X141248733Y-70985000D02*
X141591267Y-70985000D01*
X141248733Y-72005000D02*
X141591267Y-72005000D01*
G04 #@! TO.C,R8*
X141248733Y-74655000D02*
X141591267Y-74655000D01*
X141248733Y-73635000D02*
X141591267Y-73635000D01*
G04 #@! TO.C,J1*
X169640000Y-65385000D02*
X163670000Y-65385000D01*
X163670000Y-65385000D02*
X163670000Y-73005000D01*
X163670000Y-73005000D02*
X169640000Y-73005000D01*
X169640000Y-73005000D02*
X169640000Y-65385000D01*
X169630000Y-68695000D02*
X168880000Y-68695000D01*
X168880000Y-68695000D02*
X168880000Y-69695000D01*
X168880000Y-69695000D02*
X169630000Y-69695000D01*
X169630000Y-69695000D02*
X169630000Y-68695000D01*
X169630000Y-65395000D02*
X168880000Y-65395000D01*
X168880000Y-65395000D02*
X168880000Y-67195000D01*
X168880000Y-67195000D02*
X169630000Y-67195000D01*
X169630000Y-67195000D02*
X169630000Y-65395000D01*
X169630000Y-71195000D02*
X168880000Y-71195000D01*
X168880000Y-71195000D02*
X168880000Y-72995000D01*
X168880000Y-72995000D02*
X169630000Y-72995000D01*
X169630000Y-72995000D02*
X169630000Y-71195000D01*
X167380000Y-65395000D02*
X167380000Y-66145000D01*
X167380000Y-66145000D02*
X164430000Y-66145000D01*
X164430000Y-66145000D02*
X164430000Y-69195000D01*
X167380000Y-72995000D02*
X167380000Y-72245000D01*
X167380000Y-72245000D02*
X164430000Y-72245000D01*
X164430000Y-72245000D02*
X164430000Y-69195000D01*
X169930000Y-66345000D02*
X169930000Y-65095000D01*
X169930000Y-65095000D02*
X168680000Y-65095000D01*
G04 #@! TO.C,J2*
X169930000Y-72715000D02*
X168680000Y-72715000D01*
X169930000Y-73965000D02*
X169930000Y-72715000D01*
X164430000Y-79865000D02*
X164430000Y-76815000D01*
X167380000Y-79865000D02*
X164430000Y-79865000D01*
X167380000Y-80615000D02*
X167380000Y-79865000D01*
X164430000Y-73765000D02*
X164430000Y-76815000D01*
X167380000Y-73765000D02*
X164430000Y-73765000D01*
X167380000Y-73015000D02*
X167380000Y-73765000D01*
X169630000Y-80615000D02*
X169630000Y-78815000D01*
X168880000Y-80615000D02*
X169630000Y-80615000D01*
X168880000Y-78815000D02*
X168880000Y-80615000D01*
X169630000Y-78815000D02*
X168880000Y-78815000D01*
X169630000Y-74815000D02*
X169630000Y-73015000D01*
X168880000Y-74815000D02*
X169630000Y-74815000D01*
X168880000Y-73015000D02*
X168880000Y-74815000D01*
X169630000Y-73015000D02*
X168880000Y-73015000D01*
X169630000Y-77315000D02*
X169630000Y-76315000D01*
X168880000Y-77315000D02*
X169630000Y-77315000D01*
X168880000Y-76315000D02*
X168880000Y-77315000D01*
X169630000Y-76315000D02*
X168880000Y-76315000D01*
X169640000Y-80625000D02*
X169640000Y-73005000D01*
X163670000Y-80625000D02*
X169640000Y-80625000D01*
X163670000Y-73005000D02*
X163670000Y-80625000D01*
X169640000Y-73005000D02*
X163670000Y-73005000D01*
G04 #@! TO.C,J5*
X169640000Y-80625000D02*
X163670000Y-80625000D01*
X163670000Y-80625000D02*
X163670000Y-88245000D01*
X163670000Y-88245000D02*
X169640000Y-88245000D01*
X169640000Y-88245000D02*
X169640000Y-80625000D01*
X169630000Y-83935000D02*
X168880000Y-83935000D01*
X168880000Y-83935000D02*
X168880000Y-84935000D01*
X168880000Y-84935000D02*
X169630000Y-84935000D01*
X169630000Y-84935000D02*
X169630000Y-83935000D01*
X169630000Y-80635000D02*
X168880000Y-80635000D01*
X168880000Y-80635000D02*
X168880000Y-82435000D01*
X168880000Y-82435000D02*
X169630000Y-82435000D01*
X169630000Y-82435000D02*
X169630000Y-80635000D01*
X169630000Y-86435000D02*
X168880000Y-86435000D01*
X168880000Y-86435000D02*
X168880000Y-88235000D01*
X168880000Y-88235000D02*
X169630000Y-88235000D01*
X169630000Y-88235000D02*
X169630000Y-86435000D01*
X167380000Y-80635000D02*
X167380000Y-81385000D01*
X167380000Y-81385000D02*
X164430000Y-81385000D01*
X164430000Y-81385000D02*
X164430000Y-84435000D01*
X167380000Y-88235000D02*
X167380000Y-87485000D01*
X167380000Y-87485000D02*
X164430000Y-87485000D01*
X164430000Y-87485000D02*
X164430000Y-84435000D01*
X169930000Y-81585000D02*
X169930000Y-80335000D01*
X169930000Y-80335000D02*
X168680000Y-80335000D01*
G04 #@! TO.C,J6*
X169930000Y-87955000D02*
X168680000Y-87955000D01*
X169930000Y-89205000D02*
X169930000Y-87955000D01*
X164430000Y-95105000D02*
X164430000Y-92055000D01*
X167380000Y-95105000D02*
X164430000Y-95105000D01*
X167380000Y-95855000D02*
X167380000Y-95105000D01*
X164430000Y-89005000D02*
X164430000Y-92055000D01*
X167380000Y-89005000D02*
X164430000Y-89005000D01*
X167380000Y-88255000D02*
X167380000Y-89005000D01*
X169630000Y-95855000D02*
X169630000Y-94055000D01*
X168880000Y-95855000D02*
X169630000Y-95855000D01*
X168880000Y-94055000D02*
X168880000Y-95855000D01*
X169630000Y-94055000D02*
X168880000Y-94055000D01*
X169630000Y-90055000D02*
X169630000Y-88255000D01*
X168880000Y-90055000D02*
X169630000Y-90055000D01*
X168880000Y-88255000D02*
X168880000Y-90055000D01*
X169630000Y-88255000D02*
X168880000Y-88255000D01*
X169630000Y-92555000D02*
X169630000Y-91555000D01*
X168880000Y-92555000D02*
X169630000Y-92555000D01*
X168880000Y-91555000D02*
X168880000Y-92555000D01*
X169630000Y-91555000D02*
X168880000Y-91555000D01*
X169640000Y-95865000D02*
X169640000Y-88245000D01*
X163670000Y-95865000D02*
X169640000Y-95865000D01*
X163670000Y-88245000D02*
X163670000Y-95865000D01*
X169640000Y-88245000D02*
X163670000Y-88245000D01*
G04 #@! TO.C,J7*
X169640000Y-95865000D02*
X163670000Y-95865000D01*
X163670000Y-95865000D02*
X163670000Y-103485000D01*
X163670000Y-103485000D02*
X169640000Y-103485000D01*
X169640000Y-103485000D02*
X169640000Y-95865000D01*
X169630000Y-99175000D02*
X168880000Y-99175000D01*
X168880000Y-99175000D02*
X168880000Y-100175000D01*
X168880000Y-100175000D02*
X169630000Y-100175000D01*
X169630000Y-100175000D02*
X169630000Y-99175000D01*
X169630000Y-95875000D02*
X168880000Y-95875000D01*
X168880000Y-95875000D02*
X168880000Y-97675000D01*
X168880000Y-97675000D02*
X169630000Y-97675000D01*
X169630000Y-97675000D02*
X169630000Y-95875000D01*
X169630000Y-101675000D02*
X168880000Y-101675000D01*
X168880000Y-101675000D02*
X168880000Y-103475000D01*
X168880000Y-103475000D02*
X169630000Y-103475000D01*
X169630000Y-103475000D02*
X169630000Y-101675000D01*
X167380000Y-95875000D02*
X167380000Y-96625000D01*
X167380000Y-96625000D02*
X164430000Y-96625000D01*
X164430000Y-96625000D02*
X164430000Y-99675000D01*
X167380000Y-103475000D02*
X167380000Y-102725000D01*
X167380000Y-102725000D02*
X164430000Y-102725000D01*
X164430000Y-102725000D02*
X164430000Y-99675000D01*
X169930000Y-96825000D02*
X169930000Y-95575000D01*
X169930000Y-95575000D02*
X168680000Y-95575000D01*
G04 #@! TO.C,J8*
X169640000Y-103485000D02*
X163670000Y-103485000D01*
X163670000Y-103485000D02*
X163670000Y-111105000D01*
X163670000Y-111105000D02*
X169640000Y-111105000D01*
X169640000Y-111105000D02*
X169640000Y-103485000D01*
X169630000Y-106795000D02*
X168880000Y-106795000D01*
X168880000Y-106795000D02*
X168880000Y-107795000D01*
X168880000Y-107795000D02*
X169630000Y-107795000D01*
X169630000Y-107795000D02*
X169630000Y-106795000D01*
X169630000Y-103495000D02*
X168880000Y-103495000D01*
X168880000Y-103495000D02*
X168880000Y-105295000D01*
X168880000Y-105295000D02*
X169630000Y-105295000D01*
X169630000Y-105295000D02*
X169630000Y-103495000D01*
X169630000Y-109295000D02*
X168880000Y-109295000D01*
X168880000Y-109295000D02*
X168880000Y-111095000D01*
X168880000Y-111095000D02*
X169630000Y-111095000D01*
X169630000Y-111095000D02*
X169630000Y-109295000D01*
X167380000Y-103495000D02*
X167380000Y-104245000D01*
X167380000Y-104245000D02*
X164430000Y-104245000D01*
X164430000Y-104245000D02*
X164430000Y-107295000D01*
X167380000Y-111095000D02*
X167380000Y-110345000D01*
X167380000Y-110345000D02*
X164430000Y-110345000D01*
X164430000Y-110345000D02*
X164430000Y-107295000D01*
X169930000Y-104445000D02*
X169930000Y-103195000D01*
X169930000Y-103195000D02*
X168680000Y-103195000D01*
G04 #@! TO.C,J3*
X133410000Y-97215000D02*
X133410000Y-94555000D01*
X130810000Y-97215000D02*
X133410000Y-97215000D01*
X130810000Y-94555000D02*
X133410000Y-94555000D01*
X130810000Y-97215000D02*
X130810000Y-94555000D01*
X129540000Y-97215000D02*
X128210000Y-97215000D01*
X128210000Y-97215000D02*
X128210000Y-95885000D01*
G04 #@! TO.C,C7*
X127130000Y-102773733D02*
X127130000Y-103116267D01*
X126110000Y-102773733D02*
X126110000Y-103116267D01*
G04 #@! TO.C,Q1*
X150200000Y-90185000D02*
X149270000Y-90185000D01*
X147040000Y-90185000D02*
X147970000Y-90185000D01*
X147040000Y-90185000D02*
X147040000Y-92345000D01*
X150200000Y-90185000D02*
X150200000Y-91645000D01*
G04 #@! TO.C,Q2*
X145450000Y-90185000D02*
X145450000Y-91645000D01*
X142290000Y-90185000D02*
X142290000Y-92345000D01*
X142290000Y-90185000D02*
X143220000Y-90185000D01*
X145450000Y-90185000D02*
X144520000Y-90185000D01*
G04 #@! TO.C,Q3*
X131540000Y-105705000D02*
X132470000Y-105705000D01*
X134700000Y-105705000D02*
X133770000Y-105705000D01*
X134700000Y-105705000D02*
X134700000Y-103545000D01*
X131540000Y-105705000D02*
X131540000Y-104245000D01*
G04 #@! TO.C,Q4*
X127540000Y-105705000D02*
X127540000Y-104245000D01*
X130700000Y-105705000D02*
X130700000Y-103545000D01*
X130700000Y-105705000D02*
X129770000Y-105705000D01*
X127540000Y-105705000D02*
X128470000Y-105705000D01*
G04 #@! TO.C,R9*
X148791267Y-93435000D02*
X148448733Y-93435000D01*
X148791267Y-94455000D02*
X148448733Y-94455000D01*
G04 #@! TO.C,R10*
X143698733Y-93435000D02*
X144041267Y-93435000D01*
X143698733Y-94455000D02*
X144041267Y-94455000D01*
G04 #@! TO.C,R11*
X129291267Y-102455000D02*
X128948733Y-102455000D01*
X129291267Y-101435000D02*
X128948733Y-101435000D01*
G04 #@! TO.C,R12*
X132948733Y-102455000D02*
X133291267Y-102455000D01*
X132948733Y-101435000D02*
X133291267Y-101435000D01*
G04 #@! TO.C,R13*
X152198733Y-100835000D02*
X152541267Y-100835000D01*
X152198733Y-101855000D02*
X152541267Y-101855000D01*
G04 #@! TO.C,R14*
X152541267Y-98235000D02*
X152198733Y-98235000D01*
X152541267Y-99255000D02*
X152198733Y-99255000D01*
G04 #@! TO.C,U4*
X148955000Y-99772500D02*
X147695000Y-99772500D01*
X142135000Y-99772500D02*
X143395000Y-99772500D01*
X148955000Y-103532500D02*
X148955000Y-99772500D01*
X142135000Y-105782500D02*
X142135000Y-99772500D01*
G04 #@! TO.C,U5*
X124770000Y-97085000D02*
X122970000Y-97085000D01*
X122970000Y-100305000D02*
X125420000Y-100305000D01*
D10*
G04 #@! TO.C,U3*
X146545000Y-70870000D02*
X146545000Y-70895000D01*
X150695000Y-70870000D02*
X150695000Y-70975000D01*
X150695000Y-81020000D02*
X150695000Y-80915000D01*
X146545000Y-81020000D02*
X146545000Y-80915000D01*
X146545000Y-70870000D02*
X150695000Y-70870000D01*
X146545000Y-81020000D02*
X150695000Y-81020000D01*
X146545000Y-70895000D02*
X145170000Y-70895000D01*
D12*
G04 #@! TO.C,D1*
X116410000Y-97195000D02*
X116410000Y-100055000D01*
X116410000Y-100055000D02*
X118330000Y-100055000D01*
X118330000Y-100055000D02*
X118330000Y-97195000D01*
G04 #@! TO.C,U2*
X151520000Y-107945000D02*
X154120000Y-107945000D01*
X151520000Y-104745000D02*
X153220000Y-104745000D01*
G04 #@! TO.C,R15*
X119880000Y-98273733D02*
X119880000Y-98616267D01*
X118860000Y-98273733D02*
X118860000Y-98616267D01*
G04 #@! TO.C,U1*
D10*
X138644761Y-102957380D02*
X138978095Y-103957380D01*
X139311428Y-102957380D01*
X139644761Y-103957380D02*
X139644761Y-102957380D01*
X140120952Y-103957380D02*
X140120952Y-102957380D01*
X140692380Y-103957380D01*
X140692380Y-102957380D01*
X140001904Y-100465000D02*
X139906666Y-100417380D01*
X139763809Y-100417380D01*
X139620952Y-100465000D01*
X139525714Y-100560238D01*
X139478095Y-100655476D01*
X139430476Y-100845952D01*
X139430476Y-100988809D01*
X139478095Y-101179285D01*
X139525714Y-101274523D01*
X139620952Y-101369761D01*
X139763809Y-101417380D01*
X139859047Y-101417380D01*
X140001904Y-101369761D01*
X140049523Y-101322142D01*
X140049523Y-100988809D01*
X139859047Y-100988809D01*
X139192380Y-98877380D02*
X138859047Y-98401190D01*
X138620952Y-98877380D02*
X138620952Y-97877380D01*
X139001904Y-97877380D01*
X139097142Y-97925000D01*
X139144761Y-97972619D01*
X139192380Y-98067857D01*
X139192380Y-98210714D01*
X139144761Y-98305952D01*
X139097142Y-98353571D01*
X139001904Y-98401190D01*
X138620952Y-98401190D01*
X139573333Y-98829761D02*
X139716190Y-98877380D01*
X139954285Y-98877380D01*
X140049523Y-98829761D01*
X140097142Y-98782142D01*
X140144761Y-98686904D01*
X140144761Y-98591666D01*
X140097142Y-98496428D01*
X140049523Y-98448809D01*
X139954285Y-98401190D01*
X139763809Y-98353571D01*
X139668571Y-98305952D01*
X139620952Y-98258333D01*
X139573333Y-98163095D01*
X139573333Y-98067857D01*
X139620952Y-97972619D01*
X139668571Y-97925000D01*
X139763809Y-97877380D01*
X140001904Y-97877380D01*
X140144761Y-97925000D01*
X140430476Y-97877380D02*
X141001904Y-97877380D01*
X140716190Y-98877380D02*
X140716190Y-97877380D01*
X139001904Y-95813571D02*
X139335238Y-95813571D01*
X139478095Y-96337380D02*
X139001904Y-96337380D01*
X139001904Y-95337380D01*
X139478095Y-95337380D01*
X139906666Y-96337380D02*
X139906666Y-95337380D01*
X140478095Y-96337380D01*
X140478095Y-95337380D01*
X138978095Y-92797380D02*
X139597142Y-92797380D01*
X139263809Y-93178333D01*
X139406666Y-93178333D01*
X139501904Y-93225952D01*
X139549523Y-93273571D01*
X139597142Y-93368809D01*
X139597142Y-93606904D01*
X139549523Y-93702142D01*
X139501904Y-93749761D01*
X139406666Y-93797380D01*
X139120952Y-93797380D01*
X139025714Y-93749761D01*
X138978095Y-93702142D01*
X139882857Y-92797380D02*
X140216190Y-93797380D01*
X140549523Y-92797380D01*
X140001904Y-90305000D02*
X139906666Y-90257380D01*
X139763809Y-90257380D01*
X139620952Y-90305000D01*
X139525714Y-90400238D01*
X139478095Y-90495476D01*
X139430476Y-90685952D01*
X139430476Y-90828809D01*
X139478095Y-91019285D01*
X139525714Y-91114523D01*
X139620952Y-91209761D01*
X139763809Y-91257380D01*
X139859047Y-91257380D01*
X140001904Y-91209761D01*
X140049523Y-91162142D01*
X140049523Y-90828809D01*
X139859047Y-90828809D01*
X138954285Y-88669761D02*
X139097142Y-88717380D01*
X139335238Y-88717380D01*
X139430476Y-88669761D01*
X139478095Y-88622142D01*
X139525714Y-88526904D01*
X139525714Y-88431666D01*
X139478095Y-88336428D01*
X139430476Y-88288809D01*
X139335238Y-88241190D01*
X139144761Y-88193571D01*
X139049523Y-88145952D01*
X139001904Y-88098333D01*
X138954285Y-88003095D01*
X138954285Y-87907857D01*
X139001904Y-87812619D01*
X139049523Y-87765000D01*
X139144761Y-87717380D01*
X139382857Y-87717380D01*
X139525714Y-87765000D01*
X139954285Y-88717380D02*
X139954285Y-87717380D01*
X140525714Y-88717380D02*
X140097142Y-88145952D01*
X140525714Y-87717380D02*
X139954285Y-88288809D01*
X138930476Y-86129761D02*
X139073333Y-86177380D01*
X139311428Y-86177380D01*
X139406666Y-86129761D01*
X139454285Y-86082142D01*
X139501904Y-85986904D01*
X139501904Y-85891666D01*
X139454285Y-85796428D01*
X139406666Y-85748809D01*
X139311428Y-85701190D01*
X139120952Y-85653571D01*
X139025714Y-85605952D01*
X138978095Y-85558333D01*
X138930476Y-85463095D01*
X138930476Y-85367857D01*
X138978095Y-85272619D01*
X139025714Y-85225000D01*
X139120952Y-85177380D01*
X139359047Y-85177380D01*
X139501904Y-85225000D01*
X140120952Y-85177380D02*
X140311428Y-85177380D01*
X140406666Y-85225000D01*
X140501904Y-85320238D01*
X140549523Y-85510714D01*
X140549523Y-85844047D01*
X140501904Y-86034523D01*
X140406666Y-86129761D01*
X140311428Y-86177380D01*
X140120952Y-86177380D01*
X140025714Y-86129761D01*
X139930476Y-86034523D01*
X139882857Y-85844047D01*
X139882857Y-85510714D01*
X139930476Y-85320238D01*
X140025714Y-85225000D01*
X140120952Y-85177380D01*
X138954285Y-83589761D02*
X139097142Y-83637380D01*
X139335238Y-83637380D01*
X139430476Y-83589761D01*
X139478095Y-83542142D01*
X139525714Y-83446904D01*
X139525714Y-83351666D01*
X139478095Y-83256428D01*
X139430476Y-83208809D01*
X139335238Y-83161190D01*
X139144761Y-83113571D01*
X139049523Y-83065952D01*
X139001904Y-83018333D01*
X138954285Y-82923095D01*
X138954285Y-82827857D01*
X139001904Y-82732619D01*
X139049523Y-82685000D01*
X139144761Y-82637380D01*
X139382857Y-82637380D01*
X139525714Y-82685000D01*
X140525714Y-83542142D02*
X140478095Y-83589761D01*
X140335238Y-83637380D01*
X140240000Y-83637380D01*
X140097142Y-83589761D01*
X140001904Y-83494523D01*
X139954285Y-83399285D01*
X139906666Y-83208809D01*
X139906666Y-83065952D01*
X139954285Y-82875476D01*
X140001904Y-82780238D01*
X140097142Y-82685000D01*
X140240000Y-82637380D01*
X140335238Y-82637380D01*
X140478095Y-82685000D01*
X140525714Y-82732619D01*
X138978095Y-81049761D02*
X139120952Y-81097380D01*
X139359047Y-81097380D01*
X139454285Y-81049761D01*
X139501904Y-81002142D01*
X139549523Y-80906904D01*
X139549523Y-80811666D01*
X139501904Y-80716428D01*
X139454285Y-80668809D01*
X139359047Y-80621190D01*
X139168571Y-80573571D01*
X139073333Y-80525952D01*
X139025714Y-80478333D01*
X138978095Y-80383095D01*
X138978095Y-80287857D01*
X139025714Y-80192619D01*
X139073333Y-80145000D01*
X139168571Y-80097380D01*
X139406666Y-80097380D01*
X139549523Y-80145000D01*
X140501904Y-81097380D02*
X139930476Y-81097380D01*
X140216190Y-81097380D02*
X140216190Y-80097380D01*
X140120952Y-80240238D01*
X140025714Y-80335476D01*
X139930476Y-80383095D01*
X138978095Y-78509761D02*
X139120952Y-78557380D01*
X139359047Y-78557380D01*
X139454285Y-78509761D01*
X139501904Y-78462142D01*
X139549523Y-78366904D01*
X139549523Y-78271666D01*
X139501904Y-78176428D01*
X139454285Y-78128809D01*
X139359047Y-78081190D01*
X139168571Y-78033571D01*
X139073333Y-77985952D01*
X139025714Y-77938333D01*
X138978095Y-77843095D01*
X138978095Y-77747857D01*
X139025714Y-77652619D01*
X139073333Y-77605000D01*
X139168571Y-77557380D01*
X139406666Y-77557380D01*
X139549523Y-77605000D01*
X139930476Y-77652619D02*
X139978095Y-77605000D01*
X140073333Y-77557380D01*
X140311428Y-77557380D01*
X140406666Y-77605000D01*
X140454285Y-77652619D01*
X140501904Y-77747857D01*
X140501904Y-77843095D01*
X140454285Y-77985952D01*
X139882857Y-78557380D01*
X140501904Y-78557380D01*
X156758095Y-102957380D02*
X157377142Y-102957380D01*
X157043809Y-103338333D01*
X157186666Y-103338333D01*
X157281904Y-103385952D01*
X157329523Y-103433571D01*
X157377142Y-103528809D01*
X157377142Y-103766904D01*
X157329523Y-103862142D01*
X157281904Y-103909761D01*
X157186666Y-103957380D01*
X156900952Y-103957380D01*
X156805714Y-103909761D01*
X156758095Y-103862142D01*
X157662857Y-102957380D02*
X157996190Y-103957380D01*
X158329523Y-102957380D01*
X157781904Y-100465000D02*
X157686666Y-100417380D01*
X157543809Y-100417380D01*
X157400952Y-100465000D01*
X157305714Y-100560238D01*
X157258095Y-100655476D01*
X157210476Y-100845952D01*
X157210476Y-100988809D01*
X157258095Y-101179285D01*
X157305714Y-101274523D01*
X157400952Y-101369761D01*
X157543809Y-101417380D01*
X157639047Y-101417380D01*
X157781904Y-101369761D01*
X157829523Y-101322142D01*
X157829523Y-100988809D01*
X157639047Y-100988809D01*
X156758095Y-97877380D02*
X157329523Y-97877380D01*
X157043809Y-98877380D02*
X157043809Y-97877380D01*
X157567619Y-97877380D02*
X158234285Y-98877380D01*
X158234285Y-97877380D02*
X157567619Y-98877380D01*
X157353333Y-96337380D02*
X157020000Y-95861190D01*
X156781904Y-96337380D02*
X156781904Y-95337380D01*
X157162857Y-95337380D01*
X157258095Y-95385000D01*
X157305714Y-95432619D01*
X157353333Y-95527857D01*
X157353333Y-95670714D01*
X157305714Y-95765952D01*
X157258095Y-95813571D01*
X157162857Y-95861190D01*
X156781904Y-95861190D01*
X157686666Y-95337380D02*
X158353333Y-96337380D01*
X158353333Y-95337380D02*
X157686666Y-96337380D01*
X156781904Y-93797380D02*
X156781904Y-92797380D01*
X157020000Y-92797380D01*
X157162857Y-92845000D01*
X157258095Y-92940238D01*
X157305714Y-93035476D01*
X157353333Y-93225952D01*
X157353333Y-93368809D01*
X157305714Y-93559285D01*
X157258095Y-93654523D01*
X157162857Y-93749761D01*
X157020000Y-93797380D01*
X156781904Y-93797380D01*
X157924761Y-93225952D02*
X157829523Y-93178333D01*
X157781904Y-93130714D01*
X157734285Y-93035476D01*
X157734285Y-92987857D01*
X157781904Y-92892619D01*
X157829523Y-92845000D01*
X157924761Y-92797380D01*
X158115238Y-92797380D01*
X158210476Y-92845000D01*
X158258095Y-92892619D01*
X158305714Y-92987857D01*
X158305714Y-93035476D01*
X158258095Y-93130714D01*
X158210476Y-93178333D01*
X158115238Y-93225952D01*
X157924761Y-93225952D01*
X157829523Y-93273571D01*
X157781904Y-93321190D01*
X157734285Y-93416428D01*
X157734285Y-93606904D01*
X157781904Y-93702142D01*
X157829523Y-93749761D01*
X157924761Y-93797380D01*
X158115238Y-93797380D01*
X158210476Y-93749761D01*
X158258095Y-93702142D01*
X158305714Y-93606904D01*
X158305714Y-93416428D01*
X158258095Y-93321190D01*
X158210476Y-93273571D01*
X158115238Y-93225952D01*
X156781904Y-91257380D02*
X156781904Y-90257380D01*
X157020000Y-90257380D01*
X157162857Y-90305000D01*
X157258095Y-90400238D01*
X157305714Y-90495476D01*
X157353333Y-90685952D01*
X157353333Y-90828809D01*
X157305714Y-91019285D01*
X157258095Y-91114523D01*
X157162857Y-91209761D01*
X157020000Y-91257380D01*
X156781904Y-91257380D01*
X157686666Y-90257380D02*
X158353333Y-90257380D01*
X157924761Y-91257380D01*
X156781904Y-88717380D02*
X156781904Y-87717380D01*
X157020000Y-87717380D01*
X157162857Y-87765000D01*
X157258095Y-87860238D01*
X157305714Y-87955476D01*
X157353333Y-88145952D01*
X157353333Y-88288809D01*
X157305714Y-88479285D01*
X157258095Y-88574523D01*
X157162857Y-88669761D01*
X157020000Y-88717380D01*
X156781904Y-88717380D01*
X158210476Y-87717380D02*
X158020000Y-87717380D01*
X157924761Y-87765000D01*
X157877142Y-87812619D01*
X157781904Y-87955476D01*
X157734285Y-88145952D01*
X157734285Y-88526904D01*
X157781904Y-88622142D01*
X157829523Y-88669761D01*
X157924761Y-88717380D01*
X158115238Y-88717380D01*
X158210476Y-88669761D01*
X158258095Y-88622142D01*
X158305714Y-88526904D01*
X158305714Y-88288809D01*
X158258095Y-88193571D01*
X158210476Y-88145952D01*
X158115238Y-88098333D01*
X157924761Y-88098333D01*
X157829523Y-88145952D01*
X157781904Y-88193571D01*
X157734285Y-88288809D01*
X156781904Y-86177380D02*
X156781904Y-85177380D01*
X157020000Y-85177380D01*
X157162857Y-85225000D01*
X157258095Y-85320238D01*
X157305714Y-85415476D01*
X157353333Y-85605952D01*
X157353333Y-85748809D01*
X157305714Y-85939285D01*
X157258095Y-86034523D01*
X157162857Y-86129761D01*
X157020000Y-86177380D01*
X156781904Y-86177380D01*
X158258095Y-85177380D02*
X157781904Y-85177380D01*
X157734285Y-85653571D01*
X157781904Y-85605952D01*
X157877142Y-85558333D01*
X158115238Y-85558333D01*
X158210476Y-85605952D01*
X158258095Y-85653571D01*
X158305714Y-85748809D01*
X158305714Y-85986904D01*
X158258095Y-86082142D01*
X158210476Y-86129761D01*
X158115238Y-86177380D01*
X157877142Y-86177380D01*
X157781904Y-86129761D01*
X157734285Y-86082142D01*
X158581904Y-82745000D02*
X158486666Y-82697380D01*
X158343809Y-82697380D01*
X158200952Y-82745000D01*
X158105714Y-82840238D01*
X158058095Y-82935476D01*
X158010476Y-83125952D01*
X158010476Y-83268809D01*
X158058095Y-83459285D01*
X158105714Y-83554523D01*
X158200952Y-83649761D01*
X158343809Y-83697380D01*
X158439047Y-83697380D01*
X158581904Y-83649761D01*
X158629523Y-83602142D01*
X158629523Y-83268809D01*
X158439047Y-83268809D01*
G04 #@! TO.C,C6*
X125986666Y-95030714D02*
X125948571Y-95068809D01*
X125834285Y-95106904D01*
X125758095Y-95106904D01*
X125643809Y-95068809D01*
X125567619Y-94992619D01*
X125529523Y-94916428D01*
X125491428Y-94764047D01*
X125491428Y-94649761D01*
X125529523Y-94497380D01*
X125567619Y-94421190D01*
X125643809Y-94345000D01*
X125758095Y-94306904D01*
X125834285Y-94306904D01*
X125948571Y-94345000D01*
X125986666Y-94383095D01*
X126672380Y-94306904D02*
X126520000Y-94306904D01*
X126443809Y-94345000D01*
X126405714Y-94383095D01*
X126329523Y-94497380D01*
X126291428Y-94649761D01*
X126291428Y-94954523D01*
X126329523Y-95030714D01*
X126367619Y-95068809D01*
X126443809Y-95106904D01*
X126596190Y-95106904D01*
X126672380Y-95068809D01*
X126710476Y-95030714D01*
X126748571Y-94954523D01*
X126748571Y-94764047D01*
X126710476Y-94687857D01*
X126672380Y-94649761D01*
X126596190Y-94611666D01*
X126443809Y-94611666D01*
X126367619Y-94649761D01*
X126329523Y-94687857D01*
X126291428Y-94764047D01*
G04 #@! TO.C,SW1*
X119243333Y-111348809D02*
X119357619Y-111386904D01*
X119548095Y-111386904D01*
X119624285Y-111348809D01*
X119662380Y-111310714D01*
X119700476Y-111234523D01*
X119700476Y-111158333D01*
X119662380Y-111082142D01*
X119624285Y-111044047D01*
X119548095Y-111005952D01*
X119395714Y-110967857D01*
X119319523Y-110929761D01*
X119281428Y-110891666D01*
X119243333Y-110815476D01*
X119243333Y-110739285D01*
X119281428Y-110663095D01*
X119319523Y-110625000D01*
X119395714Y-110586904D01*
X119586190Y-110586904D01*
X119700476Y-110625000D01*
X119967142Y-110586904D02*
X120157619Y-111386904D01*
X120310000Y-110815476D01*
X120462380Y-111386904D01*
X120652857Y-110586904D01*
X121376666Y-111386904D02*
X120919523Y-111386904D01*
X121148095Y-111386904D02*
X121148095Y-110586904D01*
X121071904Y-110701190D01*
X120995714Y-110777380D01*
X120919523Y-110815476D01*
G04 #@! TO.C,C5*
X147536666Y-107655714D02*
X147498571Y-107693809D01*
X147384285Y-107731904D01*
X147308095Y-107731904D01*
X147193809Y-107693809D01*
X147117619Y-107617619D01*
X147079523Y-107541428D01*
X147041428Y-107389047D01*
X147041428Y-107274761D01*
X147079523Y-107122380D01*
X147117619Y-107046190D01*
X147193809Y-106970000D01*
X147308095Y-106931904D01*
X147384285Y-106931904D01*
X147498571Y-106970000D01*
X147536666Y-107008095D01*
X148260476Y-106931904D02*
X147879523Y-106931904D01*
X147841428Y-107312857D01*
X147879523Y-107274761D01*
X147955714Y-107236666D01*
X148146190Y-107236666D01*
X148222380Y-107274761D01*
X148260476Y-107312857D01*
X148298571Y-107389047D01*
X148298571Y-107579523D01*
X148260476Y-107655714D01*
X148222380Y-107693809D01*
X148146190Y-107731904D01*
X147955714Y-107731904D01*
X147879523Y-107693809D01*
X147841428Y-107655714D01*
G04 #@! TO.C,C2*
X156036666Y-68580714D02*
X155998571Y-68618809D01*
X155884285Y-68656904D01*
X155808095Y-68656904D01*
X155693809Y-68618809D01*
X155617619Y-68542619D01*
X155579523Y-68466428D01*
X155541428Y-68314047D01*
X155541428Y-68199761D01*
X155579523Y-68047380D01*
X155617619Y-67971190D01*
X155693809Y-67895000D01*
X155808095Y-67856904D01*
X155884285Y-67856904D01*
X155998571Y-67895000D01*
X156036666Y-67933095D01*
X156341428Y-67933095D02*
X156379523Y-67895000D01*
X156455714Y-67856904D01*
X156646190Y-67856904D01*
X156722380Y-67895000D01*
X156760476Y-67933095D01*
X156798571Y-68009285D01*
X156798571Y-68085476D01*
X156760476Y-68199761D01*
X156303333Y-68656904D01*
X156798571Y-68656904D01*
G04 #@! TO.C,C1*
X153786666Y-68630714D02*
X153748571Y-68668809D01*
X153634285Y-68706904D01*
X153558095Y-68706904D01*
X153443809Y-68668809D01*
X153367619Y-68592619D01*
X153329523Y-68516428D01*
X153291428Y-68364047D01*
X153291428Y-68249761D01*
X153329523Y-68097380D01*
X153367619Y-68021190D01*
X153443809Y-67945000D01*
X153558095Y-67906904D01*
X153634285Y-67906904D01*
X153748571Y-67945000D01*
X153786666Y-67983095D01*
X154548571Y-68706904D02*
X154091428Y-68706904D01*
X154320000Y-68706904D02*
X154320000Y-67906904D01*
X154243809Y-68021190D01*
X154167619Y-68097380D01*
X154091428Y-68135476D01*
G04 #@! TO.C,C3*
X140986666Y-108230714D02*
X140948571Y-108268809D01*
X140834285Y-108306904D01*
X140758095Y-108306904D01*
X140643809Y-108268809D01*
X140567619Y-108192619D01*
X140529523Y-108116428D01*
X140491428Y-107964047D01*
X140491428Y-107849761D01*
X140529523Y-107697380D01*
X140567619Y-107621190D01*
X140643809Y-107545000D01*
X140758095Y-107506904D01*
X140834285Y-107506904D01*
X140948571Y-107545000D01*
X140986666Y-107583095D01*
X141253333Y-107506904D02*
X141748571Y-107506904D01*
X141481904Y-107811666D01*
X141596190Y-107811666D01*
X141672380Y-107849761D01*
X141710476Y-107887857D01*
X141748571Y-107964047D01*
X141748571Y-108154523D01*
X141710476Y-108230714D01*
X141672380Y-108268809D01*
X141596190Y-108306904D01*
X141367619Y-108306904D01*
X141291428Y-108268809D01*
X141253333Y-108230714D01*
G04 #@! TO.C,C4*
X154805714Y-107478333D02*
X154843809Y-107516428D01*
X154881904Y-107630714D01*
X154881904Y-107706904D01*
X154843809Y-107821190D01*
X154767619Y-107897380D01*
X154691428Y-107935476D01*
X154539047Y-107973571D01*
X154424761Y-107973571D01*
X154272380Y-107935476D01*
X154196190Y-107897380D01*
X154120000Y-107821190D01*
X154081904Y-107706904D01*
X154081904Y-107630714D01*
X154120000Y-107516428D01*
X154158095Y-107478333D01*
X154348571Y-106792619D02*
X154881904Y-106792619D01*
X154043809Y-106983095D02*
X154615238Y-107173571D01*
X154615238Y-106678333D01*
G04 #@! TO.C,R1*
X148486666Y-88236904D02*
X148220000Y-87855952D01*
X148029523Y-88236904D02*
X148029523Y-87436904D01*
X148334285Y-87436904D01*
X148410476Y-87475000D01*
X148448571Y-87513095D01*
X148486666Y-87589285D01*
X148486666Y-87703571D01*
X148448571Y-87779761D01*
X148410476Y-87817857D01*
X148334285Y-87855952D01*
X148029523Y-87855952D01*
X149248571Y-88236904D02*
X148791428Y-88236904D01*
X149020000Y-88236904D02*
X149020000Y-87436904D01*
X148943809Y-87551190D01*
X148867619Y-87627380D01*
X148791428Y-87665476D01*
G04 #@! TO.C,R2*
X143736666Y-88226904D02*
X143470000Y-87845952D01*
X143279523Y-88226904D02*
X143279523Y-87426904D01*
X143584285Y-87426904D01*
X143660476Y-87465000D01*
X143698571Y-87503095D01*
X143736666Y-87579285D01*
X143736666Y-87693571D01*
X143698571Y-87769761D01*
X143660476Y-87807857D01*
X143584285Y-87845952D01*
X143279523Y-87845952D01*
X144041428Y-87503095D02*
X144079523Y-87465000D01*
X144155714Y-87426904D01*
X144346190Y-87426904D01*
X144422380Y-87465000D01*
X144460476Y-87503095D01*
X144498571Y-87579285D01*
X144498571Y-87655476D01*
X144460476Y-87769761D01*
X144003333Y-88226904D01*
X144498571Y-88226904D01*
G04 #@! TO.C,R3*
X155526666Y-73456904D02*
X155260000Y-73075952D01*
X155069523Y-73456904D02*
X155069523Y-72656904D01*
X155374285Y-72656904D01*
X155450476Y-72695000D01*
X155488571Y-72733095D01*
X155526666Y-72809285D01*
X155526666Y-72923571D01*
X155488571Y-72999761D01*
X155450476Y-73037857D01*
X155374285Y-73075952D01*
X155069523Y-73075952D01*
X155793333Y-72656904D02*
X156288571Y-72656904D01*
X156021904Y-72961666D01*
X156136190Y-72961666D01*
X156212380Y-72999761D01*
X156250476Y-73037857D01*
X156288571Y-73114047D01*
X156288571Y-73304523D01*
X156250476Y-73380714D01*
X156212380Y-73418809D01*
X156136190Y-73456904D01*
X155907619Y-73456904D01*
X155831428Y-73418809D01*
X155793333Y-73380714D01*
G04 #@! TO.C,R4*
X155526666Y-76056904D02*
X155260000Y-75675952D01*
X155069523Y-76056904D02*
X155069523Y-75256904D01*
X155374285Y-75256904D01*
X155450476Y-75295000D01*
X155488571Y-75333095D01*
X155526666Y-75409285D01*
X155526666Y-75523571D01*
X155488571Y-75599761D01*
X155450476Y-75637857D01*
X155374285Y-75675952D01*
X155069523Y-75675952D01*
X156212380Y-75523571D02*
X156212380Y-76056904D01*
X156021904Y-75218809D02*
X155831428Y-75790238D01*
X156326666Y-75790238D01*
G04 #@! TO.C,R5*
X155536666Y-78456904D02*
X155270000Y-78075952D01*
X155079523Y-78456904D02*
X155079523Y-77656904D01*
X155384285Y-77656904D01*
X155460476Y-77695000D01*
X155498571Y-77733095D01*
X155536666Y-77809285D01*
X155536666Y-77923571D01*
X155498571Y-77999761D01*
X155460476Y-78037857D01*
X155384285Y-78075952D01*
X155079523Y-78075952D01*
X156260476Y-77656904D02*
X155879523Y-77656904D01*
X155841428Y-78037857D01*
X155879523Y-77999761D01*
X155955714Y-77961666D01*
X156146190Y-77961666D01*
X156222380Y-77999761D01*
X156260476Y-78037857D01*
X156298571Y-78114047D01*
X156298571Y-78304523D01*
X156260476Y-78380714D01*
X156222380Y-78418809D01*
X156146190Y-78456904D01*
X155955714Y-78456904D01*
X155879523Y-78418809D01*
X155841428Y-78380714D01*
G04 #@! TO.C,R6*
X155536666Y-81056904D02*
X155270000Y-80675952D01*
X155079523Y-81056904D02*
X155079523Y-80256904D01*
X155384285Y-80256904D01*
X155460476Y-80295000D01*
X155498571Y-80333095D01*
X155536666Y-80409285D01*
X155536666Y-80523571D01*
X155498571Y-80599761D01*
X155460476Y-80637857D01*
X155384285Y-80675952D01*
X155079523Y-80675952D01*
X156222380Y-80256904D02*
X156070000Y-80256904D01*
X155993809Y-80295000D01*
X155955714Y-80333095D01*
X155879523Y-80447380D01*
X155841428Y-80599761D01*
X155841428Y-80904523D01*
X155879523Y-80980714D01*
X155917619Y-81018809D01*
X155993809Y-81056904D01*
X156146190Y-81056904D01*
X156222380Y-81018809D01*
X156260476Y-80980714D01*
X156298571Y-80904523D01*
X156298571Y-80714047D01*
X156260476Y-80637857D01*
X156222380Y-80599761D01*
X156146190Y-80561666D01*
X155993809Y-80561666D01*
X155917619Y-80599761D01*
X155879523Y-80637857D01*
X155841428Y-80714047D01*
G04 #@! TO.C,R7*
X141336666Y-70576904D02*
X141070000Y-70195952D01*
X140879523Y-70576904D02*
X140879523Y-69776904D01*
X141184285Y-69776904D01*
X141260476Y-69815000D01*
X141298571Y-69853095D01*
X141336666Y-69929285D01*
X141336666Y-70043571D01*
X141298571Y-70119761D01*
X141260476Y-70157857D01*
X141184285Y-70195952D01*
X140879523Y-70195952D01*
X141603333Y-69776904D02*
X142136666Y-69776904D01*
X141793809Y-70576904D01*
G04 #@! TO.C,R8*
X141336666Y-73286904D02*
X141070000Y-72905952D01*
X140879523Y-73286904D02*
X140879523Y-72486904D01*
X141184285Y-72486904D01*
X141260476Y-72525000D01*
X141298571Y-72563095D01*
X141336666Y-72639285D01*
X141336666Y-72753571D01*
X141298571Y-72829761D01*
X141260476Y-72867857D01*
X141184285Y-72905952D01*
X140879523Y-72905952D01*
X141793809Y-72829761D02*
X141717619Y-72791666D01*
X141679523Y-72753571D01*
X141641428Y-72677380D01*
X141641428Y-72639285D01*
X141679523Y-72563095D01*
X141717619Y-72525000D01*
X141793809Y-72486904D01*
X141946190Y-72486904D01*
X142022380Y-72525000D01*
X142060476Y-72563095D01*
X142098571Y-72639285D01*
X142098571Y-72677380D01*
X142060476Y-72753571D01*
X142022380Y-72791666D01*
X141946190Y-72829761D01*
X141793809Y-72829761D01*
X141717619Y-72867857D01*
X141679523Y-72905952D01*
X141641428Y-72982142D01*
X141641428Y-73134523D01*
X141679523Y-73210714D01*
X141717619Y-73248809D01*
X141793809Y-73286904D01*
X141946190Y-73286904D01*
X142022380Y-73248809D01*
X142060476Y-73210714D01*
X142098571Y-73134523D01*
X142098571Y-72982142D01*
X142060476Y-72905952D01*
X142022380Y-72867857D01*
X141946190Y-72829761D01*
G04 #@! TO.C,C7*
X126486666Y-105480714D02*
X126448571Y-105518809D01*
X126334285Y-105556904D01*
X126258095Y-105556904D01*
X126143809Y-105518809D01*
X126067619Y-105442619D01*
X126029523Y-105366428D01*
X125991428Y-105214047D01*
X125991428Y-105099761D01*
X126029523Y-104947380D01*
X126067619Y-104871190D01*
X126143809Y-104795000D01*
X126258095Y-104756904D01*
X126334285Y-104756904D01*
X126448571Y-104795000D01*
X126486666Y-104833095D01*
X126753333Y-104756904D02*
X127286666Y-104756904D01*
X126943809Y-105556904D01*
G04 #@! TO.C,Q1*
X147043809Y-89883095D02*
X146967619Y-89845000D01*
X146891428Y-89768809D01*
X146777142Y-89654523D01*
X146700952Y-89616428D01*
X146624761Y-89616428D01*
X146662857Y-89806904D02*
X146586666Y-89768809D01*
X146510476Y-89692619D01*
X146472380Y-89540238D01*
X146472380Y-89273571D01*
X146510476Y-89121190D01*
X146586666Y-89045000D01*
X146662857Y-89006904D01*
X146815238Y-89006904D01*
X146891428Y-89045000D01*
X146967619Y-89121190D01*
X147005714Y-89273571D01*
X147005714Y-89540238D01*
X146967619Y-89692619D01*
X146891428Y-89768809D01*
X146815238Y-89806904D01*
X146662857Y-89806904D01*
X147767619Y-89806904D02*
X147310476Y-89806904D01*
X147539047Y-89806904D02*
X147539047Y-89006904D01*
X147462857Y-89121190D01*
X147386666Y-89197380D01*
X147310476Y-89235476D01*
G04 #@! TO.C,Q2*
X142293809Y-89883095D02*
X142217619Y-89845000D01*
X142141428Y-89768809D01*
X142027142Y-89654523D01*
X141950952Y-89616428D01*
X141874761Y-89616428D01*
X141912857Y-89806904D02*
X141836666Y-89768809D01*
X141760476Y-89692619D01*
X141722380Y-89540238D01*
X141722380Y-89273571D01*
X141760476Y-89121190D01*
X141836666Y-89045000D01*
X141912857Y-89006904D01*
X142065238Y-89006904D01*
X142141428Y-89045000D01*
X142217619Y-89121190D01*
X142255714Y-89273571D01*
X142255714Y-89540238D01*
X142217619Y-89692619D01*
X142141428Y-89768809D01*
X142065238Y-89806904D01*
X141912857Y-89806904D01*
X142560476Y-89083095D02*
X142598571Y-89045000D01*
X142674761Y-89006904D01*
X142865238Y-89006904D01*
X142941428Y-89045000D01*
X142979523Y-89083095D01*
X143017619Y-89159285D01*
X143017619Y-89235476D01*
X142979523Y-89349761D01*
X142522380Y-89806904D01*
X143017619Y-89806904D01*
G04 #@! TO.C,Q3*
X134793809Y-107133095D02*
X134717619Y-107095000D01*
X134641428Y-107018809D01*
X134527142Y-106904523D01*
X134450952Y-106866428D01*
X134374761Y-106866428D01*
X134412857Y-107056904D02*
X134336666Y-107018809D01*
X134260476Y-106942619D01*
X134222380Y-106790238D01*
X134222380Y-106523571D01*
X134260476Y-106371190D01*
X134336666Y-106295000D01*
X134412857Y-106256904D01*
X134565238Y-106256904D01*
X134641428Y-106295000D01*
X134717619Y-106371190D01*
X134755714Y-106523571D01*
X134755714Y-106790238D01*
X134717619Y-106942619D01*
X134641428Y-107018809D01*
X134565238Y-107056904D01*
X134412857Y-107056904D01*
X135022380Y-106256904D02*
X135517619Y-106256904D01*
X135250952Y-106561666D01*
X135365238Y-106561666D01*
X135441428Y-106599761D01*
X135479523Y-106637857D01*
X135517619Y-106714047D01*
X135517619Y-106904523D01*
X135479523Y-106980714D01*
X135441428Y-107018809D01*
X135365238Y-107056904D01*
X135136666Y-107056904D01*
X135060476Y-107018809D01*
X135022380Y-106980714D01*
G04 #@! TO.C,Q4*
X127543809Y-107133095D02*
X127467619Y-107095000D01*
X127391428Y-107018809D01*
X127277142Y-106904523D01*
X127200952Y-106866428D01*
X127124761Y-106866428D01*
X127162857Y-107056904D02*
X127086666Y-107018809D01*
X127010476Y-106942619D01*
X126972380Y-106790238D01*
X126972380Y-106523571D01*
X127010476Y-106371190D01*
X127086666Y-106295000D01*
X127162857Y-106256904D01*
X127315238Y-106256904D01*
X127391428Y-106295000D01*
X127467619Y-106371190D01*
X127505714Y-106523571D01*
X127505714Y-106790238D01*
X127467619Y-106942619D01*
X127391428Y-107018809D01*
X127315238Y-107056904D01*
X127162857Y-107056904D01*
X128191428Y-106523571D02*
X128191428Y-107056904D01*
X128000952Y-106218809D02*
X127810476Y-106790238D01*
X128305714Y-106790238D01*
G04 #@! TO.C,R9*
X148486666Y-95736904D02*
X148220000Y-95355952D01*
X148029523Y-95736904D02*
X148029523Y-94936904D01*
X148334285Y-94936904D01*
X148410476Y-94975000D01*
X148448571Y-95013095D01*
X148486666Y-95089285D01*
X148486666Y-95203571D01*
X148448571Y-95279761D01*
X148410476Y-95317857D01*
X148334285Y-95355952D01*
X148029523Y-95355952D01*
X148867619Y-95736904D02*
X149020000Y-95736904D01*
X149096190Y-95698809D01*
X149134285Y-95660714D01*
X149210476Y-95546428D01*
X149248571Y-95394047D01*
X149248571Y-95089285D01*
X149210476Y-95013095D01*
X149172380Y-94975000D01*
X149096190Y-94936904D01*
X148943809Y-94936904D01*
X148867619Y-94975000D01*
X148829523Y-95013095D01*
X148791428Y-95089285D01*
X148791428Y-95279761D01*
X148829523Y-95355952D01*
X148867619Y-95394047D01*
X148943809Y-95432142D01*
X149096190Y-95432142D01*
X149172380Y-95394047D01*
X149210476Y-95355952D01*
X149248571Y-95279761D01*
G04 #@! TO.C,R10*
X143355714Y-95806904D02*
X143089047Y-95425952D01*
X142898571Y-95806904D02*
X142898571Y-95006904D01*
X143203333Y-95006904D01*
X143279523Y-95045000D01*
X143317619Y-95083095D01*
X143355714Y-95159285D01*
X143355714Y-95273571D01*
X143317619Y-95349761D01*
X143279523Y-95387857D01*
X143203333Y-95425952D01*
X142898571Y-95425952D01*
X144117619Y-95806904D02*
X143660476Y-95806904D01*
X143889047Y-95806904D02*
X143889047Y-95006904D01*
X143812857Y-95121190D01*
X143736666Y-95197380D01*
X143660476Y-95235476D01*
X144612857Y-95006904D02*
X144689047Y-95006904D01*
X144765238Y-95045000D01*
X144803333Y-95083095D01*
X144841428Y-95159285D01*
X144879523Y-95311666D01*
X144879523Y-95502142D01*
X144841428Y-95654523D01*
X144803333Y-95730714D01*
X144765238Y-95768809D01*
X144689047Y-95806904D01*
X144612857Y-95806904D01*
X144536666Y-95768809D01*
X144498571Y-95730714D01*
X144460476Y-95654523D01*
X144422380Y-95502142D01*
X144422380Y-95311666D01*
X144460476Y-95159285D01*
X144498571Y-95083095D01*
X144536666Y-95045000D01*
X144612857Y-95006904D01*
G04 #@! TO.C,R11*
X128605714Y-101056904D02*
X128339047Y-100675952D01*
X128148571Y-101056904D02*
X128148571Y-100256904D01*
X128453333Y-100256904D01*
X128529523Y-100295000D01*
X128567619Y-100333095D01*
X128605714Y-100409285D01*
X128605714Y-100523571D01*
X128567619Y-100599761D01*
X128529523Y-100637857D01*
X128453333Y-100675952D01*
X128148571Y-100675952D01*
X129367619Y-101056904D02*
X128910476Y-101056904D01*
X129139047Y-101056904D02*
X129139047Y-100256904D01*
X129062857Y-100371190D01*
X128986666Y-100447380D01*
X128910476Y-100485476D01*
X130129523Y-101056904D02*
X129672380Y-101056904D01*
X129900952Y-101056904D02*
X129900952Y-100256904D01*
X129824761Y-100371190D01*
X129748571Y-100447380D01*
X129672380Y-100485476D01*
G04 #@! TO.C,R12*
X132605714Y-101056904D02*
X132339047Y-100675952D01*
X132148571Y-101056904D02*
X132148571Y-100256904D01*
X132453333Y-100256904D01*
X132529523Y-100295000D01*
X132567619Y-100333095D01*
X132605714Y-100409285D01*
X132605714Y-100523571D01*
X132567619Y-100599761D01*
X132529523Y-100637857D01*
X132453333Y-100675952D01*
X132148571Y-100675952D01*
X133367619Y-101056904D02*
X132910476Y-101056904D01*
X133139047Y-101056904D02*
X133139047Y-100256904D01*
X133062857Y-100371190D01*
X132986666Y-100447380D01*
X132910476Y-100485476D01*
X133672380Y-100333095D02*
X133710476Y-100295000D01*
X133786666Y-100256904D01*
X133977142Y-100256904D01*
X134053333Y-100295000D01*
X134091428Y-100333095D01*
X134129523Y-100409285D01*
X134129523Y-100485476D01*
X134091428Y-100599761D01*
X133634285Y-101056904D01*
X134129523Y-101056904D01*
G04 #@! TO.C,R13*
X151805714Y-103056904D02*
X151539047Y-102675952D01*
X151348571Y-103056904D02*
X151348571Y-102256904D01*
X151653333Y-102256904D01*
X151729523Y-102295000D01*
X151767619Y-102333095D01*
X151805714Y-102409285D01*
X151805714Y-102523571D01*
X151767619Y-102599761D01*
X151729523Y-102637857D01*
X151653333Y-102675952D01*
X151348571Y-102675952D01*
X152567619Y-103056904D02*
X152110476Y-103056904D01*
X152339047Y-103056904D02*
X152339047Y-102256904D01*
X152262857Y-102371190D01*
X152186666Y-102447380D01*
X152110476Y-102485476D01*
X152834285Y-102256904D02*
X153329523Y-102256904D01*
X153062857Y-102561666D01*
X153177142Y-102561666D01*
X153253333Y-102599761D01*
X153291428Y-102637857D01*
X153329523Y-102714047D01*
X153329523Y-102904523D01*
X153291428Y-102980714D01*
X153253333Y-103018809D01*
X153177142Y-103056904D01*
X152948571Y-103056904D01*
X152872380Y-103018809D01*
X152834285Y-102980714D01*
G04 #@! TO.C,R14*
X151855714Y-100456904D02*
X151589047Y-100075952D01*
X151398571Y-100456904D02*
X151398571Y-99656904D01*
X151703333Y-99656904D01*
X151779523Y-99695000D01*
X151817619Y-99733095D01*
X151855714Y-99809285D01*
X151855714Y-99923571D01*
X151817619Y-99999761D01*
X151779523Y-100037857D01*
X151703333Y-100075952D01*
X151398571Y-100075952D01*
X152617619Y-100456904D02*
X152160476Y-100456904D01*
X152389047Y-100456904D02*
X152389047Y-99656904D01*
X152312857Y-99771190D01*
X152236666Y-99847380D01*
X152160476Y-99885476D01*
X153303333Y-99923571D02*
X153303333Y-100456904D01*
X153112857Y-99618809D02*
X152922380Y-100190238D01*
X153417619Y-100190238D01*
G04 #@! TO.C,U4*
X142060476Y-98731904D02*
X142060476Y-99379523D01*
X142098571Y-99455714D01*
X142136666Y-99493809D01*
X142212857Y-99531904D01*
X142365238Y-99531904D01*
X142441428Y-99493809D01*
X142479523Y-99455714D01*
X142517619Y-99379523D01*
X142517619Y-98731904D01*
X143241428Y-98998571D02*
X143241428Y-99531904D01*
X143050952Y-98693809D02*
X142860476Y-99265238D01*
X143355714Y-99265238D01*
G04 #@! TO.C,U5*
X123260476Y-100756904D02*
X123260476Y-101404523D01*
X123298571Y-101480714D01*
X123336666Y-101518809D01*
X123412857Y-101556904D01*
X123565238Y-101556904D01*
X123641428Y-101518809D01*
X123679523Y-101480714D01*
X123717619Y-101404523D01*
X123717619Y-100756904D01*
X124479523Y-100756904D02*
X124098571Y-100756904D01*
X124060476Y-101137857D01*
X124098571Y-101099761D01*
X124174761Y-101061666D01*
X124365238Y-101061666D01*
X124441428Y-101099761D01*
X124479523Y-101137857D01*
X124517619Y-101214047D01*
X124517619Y-101404523D01*
X124479523Y-101480714D01*
X124441428Y-101518809D01*
X124365238Y-101556904D01*
X124174761Y-101556904D01*
X124098571Y-101518809D01*
X124060476Y-101480714D01*
G04 #@! TO.C,U3*
X148010476Y-69506904D02*
X148010476Y-70154523D01*
X148048571Y-70230714D01*
X148086666Y-70268809D01*
X148162857Y-70306904D01*
X148315238Y-70306904D01*
X148391428Y-70268809D01*
X148429523Y-70230714D01*
X148467619Y-70154523D01*
X148467619Y-69506904D01*
X148772380Y-69506904D02*
X149267619Y-69506904D01*
X149000952Y-69811666D01*
X149115238Y-69811666D01*
X149191428Y-69849761D01*
X149229523Y-69887857D01*
X149267619Y-69964047D01*
X149267619Y-70154523D01*
X149229523Y-70230714D01*
X149191428Y-70268809D01*
X149115238Y-70306904D01*
X148886666Y-70306904D01*
X148810476Y-70268809D01*
X148772380Y-70230714D01*
G04 #@! TO.C,D1*
X116779523Y-101306904D02*
X116779523Y-100506904D01*
X116970000Y-100506904D01*
X117084285Y-100545000D01*
X117160476Y-100621190D01*
X117198571Y-100697380D01*
X117236666Y-100849761D01*
X117236666Y-100964047D01*
X117198571Y-101116428D01*
X117160476Y-101192619D01*
X117084285Y-101268809D01*
X116970000Y-101306904D01*
X116779523Y-101306904D01*
X117998571Y-101306904D02*
X117541428Y-101306904D01*
X117770000Y-101306904D02*
X117770000Y-100506904D01*
X117693809Y-100621190D01*
X117617619Y-100697380D01*
X117541428Y-100735476D01*
G04 #@! TO.C,U2*
X151760476Y-108256904D02*
X151760476Y-108904523D01*
X151798571Y-108980714D01*
X151836666Y-109018809D01*
X151912857Y-109056904D01*
X152065238Y-109056904D01*
X152141428Y-109018809D01*
X152179523Y-108980714D01*
X152217619Y-108904523D01*
X152217619Y-108256904D01*
X152560476Y-108333095D02*
X152598571Y-108295000D01*
X152674761Y-108256904D01*
X152865238Y-108256904D01*
X152941428Y-108295000D01*
X152979523Y-108333095D01*
X153017619Y-108409285D01*
X153017619Y-108485476D01*
X152979523Y-108599761D01*
X152522380Y-109056904D01*
X153017619Y-109056904D01*
G04 #@! TO.C,R15*
X118855714Y-96306904D02*
X118589047Y-95925952D01*
X118398571Y-96306904D02*
X118398571Y-95506904D01*
X118703333Y-95506904D01*
X118779523Y-95545000D01*
X118817619Y-95583095D01*
X118855714Y-95659285D01*
X118855714Y-95773571D01*
X118817619Y-95849761D01*
X118779523Y-95887857D01*
X118703333Y-95925952D01*
X118398571Y-95925952D01*
X119617619Y-96306904D02*
X119160476Y-96306904D01*
X119389047Y-96306904D02*
X119389047Y-95506904D01*
X119312857Y-95621190D01*
X119236666Y-95697380D01*
X119160476Y-95735476D01*
X120341428Y-95506904D02*
X119960476Y-95506904D01*
X119922380Y-95887857D01*
X119960476Y-95849761D01*
X120036666Y-95811666D01*
X120227142Y-95811666D01*
X120303333Y-95849761D01*
X120341428Y-95887857D01*
X120379523Y-95964047D01*
X120379523Y-96154523D01*
X120341428Y-96230714D01*
X120303333Y-96268809D01*
X120227142Y-96306904D01*
X120036666Y-96306904D01*
X119960476Y-96268809D01*
X119922380Y-96230714D01*
G04 #@! TD*
M02*
