G04 #@! TF.GenerationSoftware,KiCad,Pcbnew,5.0.2-bee76a0~70~ubuntu16.04.1*
G04 #@! TF.CreationDate,2020-01-22T11:55:58+00:00*
G04 #@! TF.ProjectId,transmitter,7472616e-736d-4697-9474-65722e6b6963,2.0.0*
G04 #@! TF.SameCoordinates,Original*
G04 #@! TF.FileFunction,Legend,Top*
G04 #@! TF.FilePolarity,Positive*
%FSLAX46Y46*%
G04 Gerber Fmt 4.6, Leading zero omitted, Abs format (unit mm)*
G04 Created by KiCad (PCBNEW 5.0.2-bee76a0~70~ubuntu16.04.1) date Wed 22 Jan 2020 11:55:58 GMT*
%MOMM*%
%LPD*%
G01*
G04 APERTURE LIST*
%ADD10C,0.150000*%
%ADD11C,0.300000*%
%ADD12C,0.120000*%
G04 APERTURE END LIST*
D10*
X117181904Y-94206904D02*
X117639047Y-94206904D01*
X117410476Y-95006904D02*
X117410476Y-94206904D01*
X117905714Y-95006904D02*
X117905714Y-94206904D01*
X118286666Y-95006904D02*
X118286666Y-94206904D01*
X118553333Y-94778333D01*
X118820000Y-94206904D01*
X118820000Y-95006904D01*
X119200952Y-94587857D02*
X119467619Y-94587857D01*
X119581904Y-95006904D02*
X119200952Y-95006904D01*
X119200952Y-94206904D01*
X119581904Y-94206904D01*
X120381904Y-95006904D02*
X120115238Y-94625952D01*
X119924761Y-95006904D02*
X119924761Y-94206904D01*
X120229523Y-94206904D01*
X120305714Y-94245000D01*
X120343809Y-94283095D01*
X120381904Y-94359285D01*
X120381904Y-94473571D01*
X120343809Y-94549761D01*
X120305714Y-94587857D01*
X120229523Y-94625952D01*
X119924761Y-94625952D01*
X142926547Y-109326904D02*
X142926547Y-109898333D01*
X142888452Y-110012619D01*
X142812261Y-110088809D01*
X142697976Y-110126904D01*
X142621785Y-110126904D01*
X143650357Y-110126904D02*
X143650357Y-109707857D01*
X143612261Y-109631666D01*
X143536071Y-109593571D01*
X143383690Y-109593571D01*
X143307500Y-109631666D01*
X143650357Y-110088809D02*
X143574166Y-110126904D01*
X143383690Y-110126904D01*
X143307500Y-110088809D01*
X143269404Y-110012619D01*
X143269404Y-109936428D01*
X143307500Y-109860238D01*
X143383690Y-109822142D01*
X143574166Y-109822142D01*
X143650357Y-109784047D01*
X144031309Y-109593571D02*
X144031309Y-110126904D01*
X144031309Y-109669761D02*
X144069404Y-109631666D01*
X144145595Y-109593571D01*
X144259880Y-109593571D01*
X144336071Y-109631666D01*
X144374166Y-109707857D01*
X144374166Y-110126904D01*
X145326547Y-109403095D02*
X145364642Y-109365000D01*
X145440833Y-109326904D01*
X145631309Y-109326904D01*
X145707500Y-109365000D01*
X145745595Y-109403095D01*
X145783690Y-109479285D01*
X145783690Y-109555476D01*
X145745595Y-109669761D01*
X145288452Y-110126904D01*
X145783690Y-110126904D01*
X146278928Y-109326904D02*
X146355119Y-109326904D01*
X146431309Y-109365000D01*
X146469404Y-109403095D01*
X146507500Y-109479285D01*
X146545595Y-109631666D01*
X146545595Y-109822142D01*
X146507500Y-109974523D01*
X146469404Y-110050714D01*
X146431309Y-110088809D01*
X146355119Y-110126904D01*
X146278928Y-110126904D01*
X146202738Y-110088809D01*
X146164642Y-110050714D01*
X146126547Y-109974523D01*
X146088452Y-109822142D01*
X146088452Y-109631666D01*
X146126547Y-109479285D01*
X146164642Y-109403095D01*
X146202738Y-109365000D01*
X146278928Y-109326904D01*
X146850357Y-109403095D02*
X146888452Y-109365000D01*
X146964642Y-109326904D01*
X147155119Y-109326904D01*
X147231309Y-109365000D01*
X147269404Y-109403095D01*
X147307500Y-109479285D01*
X147307500Y-109555476D01*
X147269404Y-109669761D01*
X146812261Y-110126904D01*
X147307500Y-110126904D01*
X147802738Y-109326904D02*
X147878928Y-109326904D01*
X147955119Y-109365000D01*
X147993214Y-109403095D01*
X148031309Y-109479285D01*
X148069404Y-109631666D01*
X148069404Y-109822142D01*
X148031309Y-109974523D01*
X147993214Y-110050714D01*
X147955119Y-110088809D01*
X147878928Y-110126904D01*
X147802738Y-110126904D01*
X147726547Y-110088809D01*
X147688452Y-110050714D01*
X147650357Y-109974523D01*
X147612261Y-109822142D01*
X147612261Y-109631666D01*
X147650357Y-109479285D01*
X147688452Y-109403095D01*
X147726547Y-109365000D01*
X147802738Y-109326904D01*
X149478928Y-110126904D02*
X149212261Y-109745952D01*
X149021785Y-110126904D02*
X149021785Y-109326904D01*
X149326547Y-109326904D01*
X149402738Y-109365000D01*
X149440833Y-109403095D01*
X149478928Y-109479285D01*
X149478928Y-109593571D01*
X149440833Y-109669761D01*
X149402738Y-109707857D01*
X149326547Y-109745952D01*
X149021785Y-109745952D01*
X150126547Y-110088809D02*
X150050357Y-110126904D01*
X149897976Y-110126904D01*
X149821785Y-110088809D01*
X149783690Y-110012619D01*
X149783690Y-109707857D01*
X149821785Y-109631666D01*
X149897976Y-109593571D01*
X150050357Y-109593571D01*
X150126547Y-109631666D01*
X150164642Y-109707857D01*
X150164642Y-109784047D01*
X149783690Y-109860238D01*
X150431309Y-109593571D02*
X150621785Y-110126904D01*
X150812261Y-109593571D01*
X151688452Y-109403095D02*
X151726547Y-109365000D01*
X151802738Y-109326904D01*
X151993214Y-109326904D01*
X152069404Y-109365000D01*
X152107500Y-109403095D01*
X152145595Y-109479285D01*
X152145595Y-109555476D01*
X152107500Y-109669761D01*
X151650357Y-110126904D01*
X152145595Y-110126904D01*
X152488452Y-110050714D02*
X152526547Y-110088809D01*
X152488452Y-110126904D01*
X152450357Y-110088809D01*
X152488452Y-110050714D01*
X152488452Y-110126904D01*
X153021785Y-109326904D02*
X153097976Y-109326904D01*
X153174166Y-109365000D01*
X153212261Y-109403095D01*
X153250357Y-109479285D01*
X153288452Y-109631666D01*
X153288452Y-109822142D01*
X153250357Y-109974523D01*
X153212261Y-110050714D01*
X153174166Y-110088809D01*
X153097976Y-110126904D01*
X153021785Y-110126904D01*
X152945595Y-110088809D01*
X152907500Y-110050714D01*
X152869404Y-109974523D01*
X152831309Y-109822142D01*
X152831309Y-109631666D01*
X152869404Y-109479285D01*
X152907500Y-109403095D01*
X152945595Y-109365000D01*
X153021785Y-109326904D01*
X153631309Y-110050714D02*
X153669404Y-110088809D01*
X153631309Y-110126904D01*
X153593214Y-110088809D01*
X153631309Y-110050714D01*
X153631309Y-110126904D01*
X154164642Y-109326904D02*
X154240833Y-109326904D01*
X154317023Y-109365000D01*
X154355119Y-109403095D01*
X154393214Y-109479285D01*
X154431309Y-109631666D01*
X154431309Y-109822142D01*
X154393214Y-109974523D01*
X154355119Y-110050714D01*
X154317023Y-110088809D01*
X154240833Y-110126904D01*
X154164642Y-110126904D01*
X154088452Y-110088809D01*
X154050357Y-110050714D01*
X154012261Y-109974523D01*
X153974166Y-109822142D01*
X153974166Y-109631666D01*
X154012261Y-109479285D01*
X154050357Y-109403095D01*
X154088452Y-109365000D01*
X154164642Y-109326904D01*
X145662857Y-68078333D02*
X146043809Y-68078333D01*
X145586666Y-68306904D02*
X145853333Y-67506904D01*
X146120000Y-68306904D01*
X146386666Y-68306904D02*
X146386666Y-67506904D01*
X146843809Y-68306904D01*
X146843809Y-67506904D01*
X147110476Y-67506904D02*
X147567619Y-67506904D01*
X147339047Y-68306904D02*
X147339047Y-67506904D01*
X147834285Y-67887857D02*
X148100952Y-67887857D01*
X148215238Y-68306904D02*
X147834285Y-68306904D01*
X147834285Y-67506904D01*
X148215238Y-67506904D01*
X148558095Y-68306904D02*
X148558095Y-67506904D01*
X149015238Y-68306904D01*
X149015238Y-67506904D01*
X149396190Y-68306904D02*
X149396190Y-67506904D01*
X149853333Y-68306904D01*
X149853333Y-67506904D01*
X150196190Y-68078333D02*
X150577142Y-68078333D01*
X150120000Y-68306904D02*
X150386666Y-67506904D01*
X150653333Y-68306904D01*
X116014285Y-89575595D02*
X117171428Y-90261309D01*
X116014285Y-88737500D02*
X117171428Y-89423214D01*
X116357142Y-88127976D02*
X117085714Y-88127976D01*
X117171428Y-88166071D01*
X117214285Y-88204166D01*
X117257142Y-88280357D01*
X117257142Y-88394642D01*
X117214285Y-88470833D01*
X116914285Y-88127976D02*
X116957142Y-88204166D01*
X116957142Y-88356547D01*
X116914285Y-88432738D01*
X116871428Y-88470833D01*
X116785714Y-88508928D01*
X116528571Y-88508928D01*
X116442857Y-88470833D01*
X116400000Y-88432738D01*
X116357142Y-88356547D01*
X116357142Y-88204166D01*
X116400000Y-88127976D01*
X116957142Y-87747023D02*
X116357142Y-87747023D01*
X116057142Y-87747023D02*
X116100000Y-87785119D01*
X116142857Y-87747023D01*
X116100000Y-87708928D01*
X116057142Y-87747023D01*
X116142857Y-87747023D01*
X116357142Y-87480357D02*
X116357142Y-87175595D01*
X116057142Y-87366071D02*
X116828571Y-87366071D01*
X116914285Y-87327976D01*
X116957142Y-87251785D01*
X116957142Y-87175595D01*
X116957142Y-86908928D02*
X116057142Y-86908928D01*
X116957142Y-86566071D02*
X116485714Y-86566071D01*
X116400000Y-86604166D01*
X116357142Y-86680357D01*
X116357142Y-86794642D01*
X116400000Y-86870833D01*
X116442857Y-86908928D01*
X116357142Y-85842261D02*
X116957142Y-85842261D01*
X116357142Y-86185119D02*
X116828571Y-86185119D01*
X116914285Y-86147023D01*
X116957142Y-86070833D01*
X116957142Y-85956547D01*
X116914285Y-85880357D01*
X116871428Y-85842261D01*
X116957142Y-85461309D02*
X116057142Y-85461309D01*
X116400000Y-85461309D02*
X116357142Y-85385119D01*
X116357142Y-85232738D01*
X116400000Y-85156547D01*
X116442857Y-85118452D01*
X116528571Y-85080357D01*
X116785714Y-85080357D01*
X116871428Y-85118452D01*
X116914285Y-85156547D01*
X116957142Y-85232738D01*
X116957142Y-85385119D01*
X116914285Y-85461309D01*
X116871428Y-84737500D02*
X116914285Y-84699404D01*
X116957142Y-84737500D01*
X116914285Y-84775595D01*
X116871428Y-84737500D01*
X116957142Y-84737500D01*
X116914285Y-84013690D02*
X116957142Y-84089880D01*
X116957142Y-84242261D01*
X116914285Y-84318452D01*
X116871428Y-84356547D01*
X116785714Y-84394642D01*
X116528571Y-84394642D01*
X116442857Y-84356547D01*
X116400000Y-84318452D01*
X116357142Y-84242261D01*
X116357142Y-84089880D01*
X116400000Y-84013690D01*
X116957142Y-83556547D02*
X116914285Y-83632738D01*
X116871428Y-83670833D01*
X116785714Y-83708928D01*
X116528571Y-83708928D01*
X116442857Y-83670833D01*
X116400000Y-83632738D01*
X116357142Y-83556547D01*
X116357142Y-83442261D01*
X116400000Y-83366071D01*
X116442857Y-83327976D01*
X116528571Y-83289880D01*
X116785714Y-83289880D01*
X116871428Y-83327976D01*
X116914285Y-83366071D01*
X116957142Y-83442261D01*
X116957142Y-83556547D01*
X116957142Y-82947023D02*
X116357142Y-82947023D01*
X116442857Y-82947023D02*
X116400000Y-82908928D01*
X116357142Y-82832738D01*
X116357142Y-82718452D01*
X116400000Y-82642261D01*
X116485714Y-82604166D01*
X116957142Y-82604166D01*
X116485714Y-82604166D02*
X116400000Y-82566071D01*
X116357142Y-82489880D01*
X116357142Y-82375595D01*
X116400000Y-82299404D01*
X116485714Y-82261309D01*
X116957142Y-82261309D01*
X116014285Y-81308928D02*
X117171428Y-81994642D01*
X116357142Y-81156547D02*
X116357142Y-80851785D01*
X116057142Y-81042261D02*
X116828571Y-81042261D01*
X116914285Y-81004166D01*
X116957142Y-80927976D01*
X116957142Y-80851785D01*
X116957142Y-80585119D02*
X116057142Y-80585119D01*
X116957142Y-80242261D02*
X116485714Y-80242261D01*
X116400000Y-80280357D01*
X116357142Y-80356547D01*
X116357142Y-80470833D01*
X116400000Y-80547023D01*
X116442857Y-80585119D01*
X116914285Y-79556547D02*
X116957142Y-79632738D01*
X116957142Y-79785119D01*
X116914285Y-79861309D01*
X116828571Y-79899404D01*
X116485714Y-79899404D01*
X116400000Y-79861309D01*
X116357142Y-79785119D01*
X116357142Y-79632738D01*
X116400000Y-79556547D01*
X116485714Y-79518452D01*
X116571428Y-79518452D01*
X116657142Y-79899404D01*
X116957142Y-78832738D02*
X116485714Y-78832738D01*
X116400000Y-78870833D01*
X116357142Y-78947023D01*
X116357142Y-79099404D01*
X116400000Y-79175595D01*
X116914285Y-78832738D02*
X116957142Y-78908928D01*
X116957142Y-79099404D01*
X116914285Y-79175595D01*
X116828571Y-79213690D01*
X116742857Y-79213690D01*
X116657142Y-79175595D01*
X116614285Y-79099404D01*
X116614285Y-78908928D01*
X116571428Y-78832738D01*
X116357142Y-78451785D02*
X117257142Y-78451785D01*
X116400000Y-78451785D02*
X116357142Y-78375595D01*
X116357142Y-78223214D01*
X116400000Y-78147023D01*
X116442857Y-78108928D01*
X116528571Y-78070833D01*
X116785714Y-78070833D01*
X116871428Y-78108928D01*
X116914285Y-78147023D01*
X116957142Y-78223214D01*
X116957142Y-78375595D01*
X116914285Y-78451785D01*
X116957142Y-77727976D02*
X116357142Y-77727976D01*
X116057142Y-77727976D02*
X116100000Y-77766071D01*
X116142857Y-77727976D01*
X116100000Y-77689880D01*
X116057142Y-77727976D01*
X116142857Y-77727976D01*
X116014285Y-76775595D02*
X117171428Y-77461309D01*
X116914285Y-76204166D02*
X116957142Y-76280357D01*
X116957142Y-76432738D01*
X116914285Y-76508928D01*
X116828571Y-76547023D01*
X116485714Y-76547023D01*
X116400000Y-76508928D01*
X116357142Y-76432738D01*
X116357142Y-76280357D01*
X116400000Y-76204166D01*
X116485714Y-76166071D01*
X116571428Y-76166071D01*
X116657142Y-76547023D01*
X116914285Y-75861309D02*
X116957142Y-75785119D01*
X116957142Y-75632738D01*
X116914285Y-75556547D01*
X116828571Y-75518452D01*
X116785714Y-75518452D01*
X116700000Y-75556547D01*
X116657142Y-75632738D01*
X116657142Y-75747023D01*
X116614285Y-75823214D01*
X116528571Y-75861309D01*
X116485714Y-75861309D01*
X116400000Y-75823214D01*
X116357142Y-75747023D01*
X116357142Y-75632738D01*
X116400000Y-75556547D01*
X116357142Y-75175595D02*
X117257142Y-75175595D01*
X116400000Y-75175595D02*
X116357142Y-75099404D01*
X116357142Y-74947023D01*
X116400000Y-74870833D01*
X116442857Y-74832738D01*
X116528571Y-74794642D01*
X116785714Y-74794642D01*
X116871428Y-74832738D01*
X116914285Y-74870833D01*
X116957142Y-74947023D01*
X116957142Y-75099404D01*
X116914285Y-75175595D01*
X116442857Y-74337500D02*
X116400000Y-74413690D01*
X116357142Y-74451785D01*
X116271428Y-74489880D01*
X116228571Y-74489880D01*
X116142857Y-74451785D01*
X116100000Y-74413690D01*
X116057142Y-74337500D01*
X116057142Y-74185119D01*
X116100000Y-74108928D01*
X116142857Y-74070833D01*
X116228571Y-74032738D01*
X116271428Y-74032738D01*
X116357142Y-74070833D01*
X116400000Y-74108928D01*
X116442857Y-74185119D01*
X116442857Y-74337500D01*
X116485714Y-74413690D01*
X116528571Y-74451785D01*
X116614285Y-74489880D01*
X116785714Y-74489880D01*
X116871428Y-74451785D01*
X116914285Y-74413690D01*
X116957142Y-74337500D01*
X116957142Y-74185119D01*
X116914285Y-74108928D01*
X116871428Y-74070833D01*
X116785714Y-74032738D01*
X116614285Y-74032738D01*
X116528571Y-74070833D01*
X116485714Y-74108928D01*
X116442857Y-74185119D01*
X116142857Y-73727976D02*
X116100000Y-73689880D01*
X116057142Y-73613690D01*
X116057142Y-73423214D01*
X116100000Y-73347023D01*
X116142857Y-73308928D01*
X116228571Y-73270833D01*
X116314285Y-73270833D01*
X116442857Y-73308928D01*
X116957142Y-73766071D01*
X116957142Y-73270833D01*
X116057142Y-72585119D02*
X116057142Y-72737500D01*
X116100000Y-72813690D01*
X116142857Y-72851785D01*
X116271428Y-72927976D01*
X116442857Y-72966071D01*
X116785714Y-72966071D01*
X116871428Y-72927976D01*
X116914285Y-72889880D01*
X116957142Y-72813690D01*
X116957142Y-72661309D01*
X116914285Y-72585119D01*
X116871428Y-72547023D01*
X116785714Y-72508928D01*
X116571428Y-72508928D01*
X116485714Y-72547023D01*
X116442857Y-72585119D01*
X116400000Y-72661309D01*
X116400000Y-72813690D01*
X116442857Y-72889880D01*
X116485714Y-72927976D01*
X116571428Y-72966071D01*
X116057142Y-71823214D02*
X116057142Y-71975595D01*
X116100000Y-72051785D01*
X116142857Y-72089880D01*
X116271428Y-72166071D01*
X116442857Y-72204166D01*
X116785714Y-72204166D01*
X116871428Y-72166071D01*
X116914285Y-72127976D01*
X116957142Y-72051785D01*
X116957142Y-71899404D01*
X116914285Y-71823214D01*
X116871428Y-71785119D01*
X116785714Y-71747023D01*
X116571428Y-71747023D01*
X116485714Y-71785119D01*
X116442857Y-71823214D01*
X116400000Y-71899404D01*
X116400000Y-72051785D01*
X116442857Y-72127976D01*
X116485714Y-72166071D01*
X116571428Y-72204166D01*
X116357142Y-71480357D02*
X116957142Y-71327976D01*
X116528571Y-71175595D01*
X116957142Y-71023214D01*
X116357142Y-70870833D01*
X116914285Y-70604166D02*
X116957142Y-70527976D01*
X116957142Y-70375595D01*
X116914285Y-70299404D01*
X116828571Y-70261309D01*
X116785714Y-70261309D01*
X116700000Y-70299404D01*
X116657142Y-70375595D01*
X116657142Y-70489880D01*
X116614285Y-70566071D01*
X116528571Y-70604166D01*
X116485714Y-70604166D01*
X116400000Y-70566071D01*
X116357142Y-70489880D01*
X116357142Y-70375595D01*
X116400000Y-70299404D01*
X116357142Y-69918452D02*
X116957142Y-69918452D01*
X116442857Y-69918452D02*
X116400000Y-69880357D01*
X116357142Y-69804166D01*
X116357142Y-69689880D01*
X116400000Y-69613690D01*
X116485714Y-69575595D01*
X116957142Y-69575595D01*
X162343809Y-70992619D02*
X162381904Y-70878333D01*
X162381904Y-70687857D01*
X162343809Y-70611666D01*
X162305714Y-70573571D01*
X162229523Y-70535476D01*
X162153333Y-70535476D01*
X162077142Y-70573571D01*
X162039047Y-70611666D01*
X162000952Y-70687857D01*
X161962857Y-70840238D01*
X161924761Y-70916428D01*
X161886666Y-70954523D01*
X161810476Y-70992619D01*
X161734285Y-70992619D01*
X161658095Y-70954523D01*
X161620000Y-70916428D01*
X161581904Y-70840238D01*
X161581904Y-70649761D01*
X161620000Y-70535476D01*
X161581904Y-70040238D02*
X161581904Y-69887857D01*
X161620000Y-69811666D01*
X161696190Y-69735476D01*
X161848571Y-69697380D01*
X162115238Y-69697380D01*
X162267619Y-69735476D01*
X162343809Y-69811666D01*
X162381904Y-69887857D01*
X162381904Y-70040238D01*
X162343809Y-70116428D01*
X162267619Y-70192619D01*
X162115238Y-70230714D01*
X161848571Y-70230714D01*
X161696190Y-70192619D01*
X161620000Y-70116428D01*
X161581904Y-70040238D01*
X162381904Y-69354523D02*
X161581904Y-69354523D01*
X162381904Y-68592619D02*
X162381904Y-68973571D01*
X161581904Y-68973571D01*
X161581904Y-67373571D02*
X161581904Y-67525952D01*
X161620000Y-67602142D01*
X161658095Y-67640238D01*
X161772380Y-67716428D01*
X161924761Y-67754523D01*
X162229523Y-67754523D01*
X162305714Y-67716428D01*
X162343809Y-67678333D01*
X162381904Y-67602142D01*
X162381904Y-67449761D01*
X162343809Y-67373571D01*
X162305714Y-67335476D01*
X162229523Y-67297380D01*
X162039047Y-67297380D01*
X161962857Y-67335476D01*
X161924761Y-67373571D01*
X161886666Y-67449761D01*
X161886666Y-67602142D01*
X161924761Y-67678333D01*
X161962857Y-67716428D01*
X162039047Y-67754523D01*
X162343809Y-78592619D02*
X162381904Y-78478333D01*
X162381904Y-78287857D01*
X162343809Y-78211666D01*
X162305714Y-78173571D01*
X162229523Y-78135476D01*
X162153333Y-78135476D01*
X162077142Y-78173571D01*
X162039047Y-78211666D01*
X162000952Y-78287857D01*
X161962857Y-78440238D01*
X161924761Y-78516428D01*
X161886666Y-78554523D01*
X161810476Y-78592619D01*
X161734285Y-78592619D01*
X161658095Y-78554523D01*
X161620000Y-78516428D01*
X161581904Y-78440238D01*
X161581904Y-78249761D01*
X161620000Y-78135476D01*
X161581904Y-77640238D02*
X161581904Y-77487857D01*
X161620000Y-77411666D01*
X161696190Y-77335476D01*
X161848571Y-77297380D01*
X162115238Y-77297380D01*
X162267619Y-77335476D01*
X162343809Y-77411666D01*
X162381904Y-77487857D01*
X162381904Y-77640238D01*
X162343809Y-77716428D01*
X162267619Y-77792619D01*
X162115238Y-77830714D01*
X161848571Y-77830714D01*
X161696190Y-77792619D01*
X161620000Y-77716428D01*
X161581904Y-77640238D01*
X162381904Y-76954523D02*
X161581904Y-76954523D01*
X162381904Y-76192619D02*
X162381904Y-76573571D01*
X161581904Y-76573571D01*
X161581904Y-74935476D02*
X161581904Y-75316428D01*
X161962857Y-75354523D01*
X161924761Y-75316428D01*
X161886666Y-75240238D01*
X161886666Y-75049761D01*
X161924761Y-74973571D01*
X161962857Y-74935476D01*
X162039047Y-74897380D01*
X162229523Y-74897380D01*
X162305714Y-74935476D01*
X162343809Y-74973571D01*
X162381904Y-75049761D01*
X162381904Y-75240238D01*
X162343809Y-75316428D01*
X162305714Y-75354523D01*
X162343809Y-86392619D02*
X162381904Y-86278333D01*
X162381904Y-86087857D01*
X162343809Y-86011666D01*
X162305714Y-85973571D01*
X162229523Y-85935476D01*
X162153333Y-85935476D01*
X162077142Y-85973571D01*
X162039047Y-86011666D01*
X162000952Y-86087857D01*
X161962857Y-86240238D01*
X161924761Y-86316428D01*
X161886666Y-86354523D01*
X161810476Y-86392619D01*
X161734285Y-86392619D01*
X161658095Y-86354523D01*
X161620000Y-86316428D01*
X161581904Y-86240238D01*
X161581904Y-86049761D01*
X161620000Y-85935476D01*
X161581904Y-85440238D02*
X161581904Y-85287857D01*
X161620000Y-85211666D01*
X161696190Y-85135476D01*
X161848571Y-85097380D01*
X162115238Y-85097380D01*
X162267619Y-85135476D01*
X162343809Y-85211666D01*
X162381904Y-85287857D01*
X162381904Y-85440238D01*
X162343809Y-85516428D01*
X162267619Y-85592619D01*
X162115238Y-85630714D01*
X161848571Y-85630714D01*
X161696190Y-85592619D01*
X161620000Y-85516428D01*
X161581904Y-85440238D01*
X162381904Y-84754523D02*
X161581904Y-84754523D01*
X162381904Y-83992619D02*
X162381904Y-84373571D01*
X161581904Y-84373571D01*
X161848571Y-82773571D02*
X162381904Y-82773571D01*
X161543809Y-82964047D02*
X162115238Y-83154523D01*
X162115238Y-82659285D01*
X162343809Y-93792619D02*
X162381904Y-93678333D01*
X162381904Y-93487857D01*
X162343809Y-93411666D01*
X162305714Y-93373571D01*
X162229523Y-93335476D01*
X162153333Y-93335476D01*
X162077142Y-93373571D01*
X162039047Y-93411666D01*
X162000952Y-93487857D01*
X161962857Y-93640238D01*
X161924761Y-93716428D01*
X161886666Y-93754523D01*
X161810476Y-93792619D01*
X161734285Y-93792619D01*
X161658095Y-93754523D01*
X161620000Y-93716428D01*
X161581904Y-93640238D01*
X161581904Y-93449761D01*
X161620000Y-93335476D01*
X161581904Y-92840238D02*
X161581904Y-92687857D01*
X161620000Y-92611666D01*
X161696190Y-92535476D01*
X161848571Y-92497380D01*
X162115238Y-92497380D01*
X162267619Y-92535476D01*
X162343809Y-92611666D01*
X162381904Y-92687857D01*
X162381904Y-92840238D01*
X162343809Y-92916428D01*
X162267619Y-92992619D01*
X162115238Y-93030714D01*
X161848571Y-93030714D01*
X161696190Y-92992619D01*
X161620000Y-92916428D01*
X161581904Y-92840238D01*
X162381904Y-92154523D02*
X161581904Y-92154523D01*
X162381904Y-91392619D02*
X162381904Y-91773571D01*
X161581904Y-91773571D01*
X161581904Y-90592619D02*
X161581904Y-90097380D01*
X161886666Y-90364047D01*
X161886666Y-90249761D01*
X161924761Y-90173571D01*
X161962857Y-90135476D01*
X162039047Y-90097380D01*
X162229523Y-90097380D01*
X162305714Y-90135476D01*
X162343809Y-90173571D01*
X162381904Y-90249761D01*
X162381904Y-90478333D01*
X162343809Y-90554523D01*
X162305714Y-90592619D01*
X162343809Y-101592619D02*
X162381904Y-101478333D01*
X162381904Y-101287857D01*
X162343809Y-101211666D01*
X162305714Y-101173571D01*
X162229523Y-101135476D01*
X162153333Y-101135476D01*
X162077142Y-101173571D01*
X162039047Y-101211666D01*
X162000952Y-101287857D01*
X161962857Y-101440238D01*
X161924761Y-101516428D01*
X161886666Y-101554523D01*
X161810476Y-101592619D01*
X161734285Y-101592619D01*
X161658095Y-101554523D01*
X161620000Y-101516428D01*
X161581904Y-101440238D01*
X161581904Y-101249761D01*
X161620000Y-101135476D01*
X161581904Y-100640238D02*
X161581904Y-100487857D01*
X161620000Y-100411666D01*
X161696190Y-100335476D01*
X161848571Y-100297380D01*
X162115238Y-100297380D01*
X162267619Y-100335476D01*
X162343809Y-100411666D01*
X162381904Y-100487857D01*
X162381904Y-100640238D01*
X162343809Y-100716428D01*
X162267619Y-100792619D01*
X162115238Y-100830714D01*
X161848571Y-100830714D01*
X161696190Y-100792619D01*
X161620000Y-100716428D01*
X161581904Y-100640238D01*
X162381904Y-99954523D02*
X161581904Y-99954523D01*
X162381904Y-99192619D02*
X162381904Y-99573571D01*
X161581904Y-99573571D01*
X161658095Y-98354523D02*
X161620000Y-98316428D01*
X161581904Y-98240238D01*
X161581904Y-98049761D01*
X161620000Y-97973571D01*
X161658095Y-97935476D01*
X161734285Y-97897380D01*
X161810476Y-97897380D01*
X161924761Y-97935476D01*
X162381904Y-98392619D01*
X162381904Y-97897380D01*
X162343809Y-109192619D02*
X162381904Y-109078333D01*
X162381904Y-108887857D01*
X162343809Y-108811666D01*
X162305714Y-108773571D01*
X162229523Y-108735476D01*
X162153333Y-108735476D01*
X162077142Y-108773571D01*
X162039047Y-108811666D01*
X162000952Y-108887857D01*
X161962857Y-109040238D01*
X161924761Y-109116428D01*
X161886666Y-109154523D01*
X161810476Y-109192619D01*
X161734285Y-109192619D01*
X161658095Y-109154523D01*
X161620000Y-109116428D01*
X161581904Y-109040238D01*
X161581904Y-108849761D01*
X161620000Y-108735476D01*
X161581904Y-108240238D02*
X161581904Y-108087857D01*
X161620000Y-108011666D01*
X161696190Y-107935476D01*
X161848571Y-107897380D01*
X162115238Y-107897380D01*
X162267619Y-107935476D01*
X162343809Y-108011666D01*
X162381904Y-108087857D01*
X162381904Y-108240238D01*
X162343809Y-108316428D01*
X162267619Y-108392619D01*
X162115238Y-108430714D01*
X161848571Y-108430714D01*
X161696190Y-108392619D01*
X161620000Y-108316428D01*
X161581904Y-108240238D01*
X162381904Y-107554523D02*
X161581904Y-107554523D01*
X162381904Y-106792619D02*
X162381904Y-107173571D01*
X161581904Y-107173571D01*
X162381904Y-105497380D02*
X162381904Y-105954523D01*
X162381904Y-105725952D02*
X161581904Y-105725952D01*
X161696190Y-105802142D01*
X161772380Y-105878333D01*
X161810476Y-105954523D01*
X118181904Y-88240238D02*
X118181904Y-88087857D01*
X118220000Y-88011666D01*
X118296190Y-87935476D01*
X118448571Y-87897380D01*
X118715238Y-87897380D01*
X118867619Y-87935476D01*
X118943809Y-88011666D01*
X118981904Y-88087857D01*
X118981904Y-88240238D01*
X118943809Y-88316428D01*
X118867619Y-88392619D01*
X118715238Y-88430714D01*
X118448571Y-88430714D01*
X118296190Y-88392619D01*
X118220000Y-88316428D01*
X118181904Y-88240238D01*
X118181904Y-87554523D02*
X118829523Y-87554523D01*
X118905714Y-87516428D01*
X118943809Y-87478333D01*
X118981904Y-87402142D01*
X118981904Y-87249761D01*
X118943809Y-87173571D01*
X118905714Y-87135476D01*
X118829523Y-87097380D01*
X118181904Y-87097380D01*
X118181904Y-86830714D02*
X118181904Y-86373571D01*
X118981904Y-86602142D02*
X118181904Y-86602142D01*
X118677142Y-86106904D02*
X118677142Y-85497380D01*
X132181904Y-87990238D02*
X132181904Y-87837857D01*
X132220000Y-87761666D01*
X132296190Y-87685476D01*
X132448571Y-87647380D01*
X132715238Y-87647380D01*
X132867619Y-87685476D01*
X132943809Y-87761666D01*
X132981904Y-87837857D01*
X132981904Y-87990238D01*
X132943809Y-88066428D01*
X132867619Y-88142619D01*
X132715238Y-88180714D01*
X132448571Y-88180714D01*
X132296190Y-88142619D01*
X132220000Y-88066428D01*
X132181904Y-87990238D01*
X132181904Y-87304523D02*
X132829523Y-87304523D01*
X132905714Y-87266428D01*
X132943809Y-87228333D01*
X132981904Y-87152142D01*
X132981904Y-86999761D01*
X132943809Y-86923571D01*
X132905714Y-86885476D01*
X132829523Y-86847380D01*
X132181904Y-86847380D01*
X132181904Y-86580714D02*
X132181904Y-86123571D01*
X132981904Y-86352142D02*
X132181904Y-86352142D01*
X132677142Y-85856904D02*
X132677142Y-85247380D01*
X132981904Y-85552142D02*
X132372380Y-85552142D01*
X128272380Y-111306904D02*
X128272380Y-110506904D01*
X128577142Y-110506904D01*
X128653333Y-110545000D01*
X128691428Y-110583095D01*
X128729523Y-110659285D01*
X128729523Y-110773571D01*
X128691428Y-110849761D01*
X128653333Y-110887857D01*
X128577142Y-110925952D01*
X128272380Y-110925952D01*
X129224761Y-110506904D02*
X129377142Y-110506904D01*
X129453333Y-110545000D01*
X129529523Y-110621190D01*
X129567619Y-110773571D01*
X129567619Y-111040238D01*
X129529523Y-111192619D01*
X129453333Y-111268809D01*
X129377142Y-111306904D01*
X129224761Y-111306904D01*
X129148571Y-111268809D01*
X129072380Y-111192619D01*
X129034285Y-111040238D01*
X129034285Y-110773571D01*
X129072380Y-110621190D01*
X129148571Y-110545000D01*
X129224761Y-110506904D01*
X129834285Y-110506904D02*
X130024761Y-111306904D01*
X130177142Y-110735476D01*
X130329523Y-111306904D01*
X130520000Y-110506904D01*
X130824761Y-110887857D02*
X131091428Y-110887857D01*
X131205714Y-111306904D02*
X130824761Y-111306904D01*
X130824761Y-110506904D01*
X131205714Y-110506904D01*
X132005714Y-111306904D02*
X131739047Y-110925952D01*
X131548571Y-111306904D02*
X131548571Y-110506904D01*
X131853333Y-110506904D01*
X131929523Y-110545000D01*
X131967619Y-110583095D01*
X132005714Y-110659285D01*
X132005714Y-110773571D01*
X131967619Y-110849761D01*
X131929523Y-110887857D01*
X131853333Y-110925952D01*
X131548571Y-110925952D01*
X128970000Y-93954523D02*
X128931904Y-94030714D01*
X128931904Y-94145000D01*
X128970000Y-94259285D01*
X129046190Y-94335476D01*
X129122380Y-94373571D01*
X129274761Y-94411666D01*
X129389047Y-94411666D01*
X129541428Y-94373571D01*
X129617619Y-94335476D01*
X129693809Y-94259285D01*
X129731904Y-94145000D01*
X129731904Y-94068809D01*
X129693809Y-93954523D01*
X129655714Y-93916428D01*
X129389047Y-93916428D01*
X129389047Y-94068809D01*
X129731904Y-93573571D02*
X128931904Y-93573571D01*
X129731904Y-93116428D01*
X128931904Y-93116428D01*
X129731904Y-92735476D02*
X128931904Y-92735476D01*
X128931904Y-92545000D01*
X128970000Y-92430714D01*
X129046190Y-92354523D01*
X129122380Y-92316428D01*
X129274761Y-92278333D01*
X129389047Y-92278333D01*
X129541428Y-92316428D01*
X129617619Y-92354523D01*
X129693809Y-92430714D01*
X129731904Y-92545000D01*
X129731904Y-92735476D01*
X131681904Y-94185476D02*
X131681904Y-93690238D01*
X131986666Y-93956904D01*
X131986666Y-93842619D01*
X132024761Y-93766428D01*
X132062857Y-93728333D01*
X132139047Y-93690238D01*
X132329523Y-93690238D01*
X132405714Y-93728333D01*
X132443809Y-93766428D01*
X132481904Y-93842619D01*
X132481904Y-94071190D01*
X132443809Y-94147380D01*
X132405714Y-94185476D01*
X131681904Y-93461666D02*
X132481904Y-93195000D01*
X131681904Y-92928333D01*
X131681904Y-92737857D02*
X131681904Y-92242619D01*
X131986666Y-92509285D01*
X131986666Y-92395000D01*
X132024761Y-92318809D01*
X132062857Y-92280714D01*
X132139047Y-92242619D01*
X132329523Y-92242619D01*
X132405714Y-92280714D01*
X132443809Y-92318809D01*
X132481904Y-92395000D01*
X132481904Y-92623571D01*
X132443809Y-92699761D01*
X132405714Y-92737857D01*
D11*
X121214285Y-77513571D02*
X122071428Y-77513571D01*
X121642857Y-79013571D02*
X121642857Y-77513571D01*
X122571428Y-79013571D02*
X122571428Y-77513571D01*
X123142857Y-77513571D01*
X123285714Y-77585000D01*
X123357142Y-77656428D01*
X123428571Y-77799285D01*
X123428571Y-78013571D01*
X123357142Y-78156428D01*
X123285714Y-78227857D01*
X123142857Y-78299285D01*
X122571428Y-78299285D01*
X124714285Y-78013571D02*
X124714285Y-79013571D01*
X124357142Y-77442142D02*
X124000000Y-78513571D01*
X124928571Y-78513571D01*
X125785714Y-77513571D02*
X125928571Y-77513571D01*
X126071428Y-77585000D01*
X126142857Y-77656428D01*
X126214285Y-77799285D01*
X126285714Y-78085000D01*
X126285714Y-78442142D01*
X126214285Y-78727857D01*
X126142857Y-78870714D01*
X126071428Y-78942142D01*
X125928571Y-79013571D01*
X125785714Y-79013571D01*
X125642857Y-78942142D01*
X125571428Y-78870714D01*
X125500000Y-78727857D01*
X125428571Y-78442142D01*
X125428571Y-78085000D01*
X125500000Y-77799285D01*
X125571428Y-77656428D01*
X125642857Y-77585000D01*
X125785714Y-77513571D01*
X127642857Y-77513571D02*
X126928571Y-77513571D01*
X126857142Y-78227857D01*
X126928571Y-78156428D01*
X127071428Y-78085000D01*
X127428571Y-78085000D01*
X127571428Y-78156428D01*
X127642857Y-78227857D01*
X127714285Y-78370714D01*
X127714285Y-78727857D01*
X127642857Y-78870714D01*
X127571428Y-78942142D01*
X127428571Y-79013571D01*
X127071428Y-79013571D01*
X126928571Y-78942142D01*
X126857142Y-78870714D01*
X129000000Y-77513571D02*
X128714285Y-77513571D01*
X128571428Y-77585000D01*
X128500000Y-77656428D01*
X128357142Y-77870714D01*
X128285714Y-78156428D01*
X128285714Y-78727857D01*
X128357142Y-78870714D01*
X128428571Y-78942142D01*
X128571428Y-79013571D01*
X128857142Y-79013571D01*
X129000000Y-78942142D01*
X129071428Y-78870714D01*
X129142857Y-78727857D01*
X129142857Y-78370714D01*
X129071428Y-78227857D01*
X129000000Y-78156428D01*
X128857142Y-78085000D01*
X128571428Y-78085000D01*
X128428571Y-78156428D01*
X128357142Y-78227857D01*
X128285714Y-78370714D01*
D12*
G04 #@! TO.C,U2*
X153280000Y-97405000D02*
X150680000Y-97405000D01*
X153280000Y-100605000D02*
X151580000Y-100605000D01*
D10*
G04 #@! TO.C,U1*
X142620000Y-69445000D02*
X154620000Y-69445000D01*
X154620000Y-69445000D02*
X154620000Y-84445000D01*
X154620000Y-84445000D02*
X142620000Y-84445000D01*
X142620000Y-84445000D02*
X142620000Y-69445000D01*
X150630000Y-67270000D02*
X143010000Y-67270000D01*
X143010000Y-67270000D02*
X143010000Y-62190000D01*
X143010000Y-62190000D02*
X144280000Y-62190000D01*
X144280000Y-62190000D02*
X144280000Y-66000000D01*
X144280000Y-66000000D02*
X145550000Y-66000000D01*
X145550000Y-66000000D02*
X145550000Y-62190000D01*
X145550000Y-62190000D02*
X146820000Y-62190000D01*
X146820000Y-62190000D02*
X146820000Y-66000000D01*
X146820000Y-66000000D02*
X148090000Y-66000000D01*
X148090000Y-66000000D02*
X148090000Y-62190000D01*
X148090000Y-62190000D02*
X149360000Y-62190000D01*
X149360000Y-62190000D02*
X149360000Y-66000000D01*
X149360000Y-66000000D02*
X150630000Y-66000000D01*
X150630000Y-66000000D02*
X150630000Y-62190000D01*
X150630000Y-62190000D02*
X154440000Y-62190000D01*
X140200000Y-63445000D02*
G75*
G03X140200000Y-63445000I-1500000J0D01*
G01*
X160120000Y-63445000D02*
G75*
G03X160120000Y-63445000I-1500000J0D01*
G01*
X161120000Y-60945000D02*
X136200000Y-60945000D01*
X136200000Y-60945000D02*
X136190000Y-104500000D01*
X161090000Y-105000000D02*
X161120000Y-60945000D01*
D12*
G04 #@! TO.C,C6*
X124851267Y-95525000D02*
X124508733Y-95525000D01*
X124851267Y-94505000D02*
X124508733Y-94505000D01*
G04 #@! TO.C,SW1*
X125120000Y-109715000D02*
X117500000Y-109715000D01*
X117500000Y-109715000D02*
X117500000Y-109415000D01*
X117500000Y-102095000D02*
X125120000Y-102095000D01*
X125120000Y-109715000D02*
X125120000Y-109415000D01*
X117500000Y-107475000D02*
X117500000Y-104335000D01*
X125120000Y-107475000D02*
X125120000Y-104335000D01*
X117500000Y-102395000D02*
X117500000Y-102095000D01*
X125120000Y-102395000D02*
X125120000Y-102095000D01*
X123850000Y-105905000D02*
G75*
G03X123850000Y-105905000I-2540000J0D01*
G01*
G04 #@! TO.C,C5*
X144973733Y-107905000D02*
X145316267Y-107905000D01*
X144973733Y-106885000D02*
X145316267Y-106885000D01*
G04 #@! TO.C,SW2*
X132740000Y-110275000D02*
X132740000Y-107615000D01*
X130140000Y-110275000D02*
X132740000Y-110275000D01*
X130140000Y-107615000D02*
X132740000Y-107615000D01*
X130140000Y-110275000D02*
X130140000Y-107615000D01*
X128870000Y-110275000D02*
X127540000Y-110275000D01*
X127540000Y-110275000D02*
X127540000Y-108945000D01*
G04 #@! TO.C,J4*
X134990000Y-91275000D02*
X134990000Y-88615000D01*
X132390000Y-91275000D02*
X134990000Y-91275000D01*
X132390000Y-88615000D02*
X134990000Y-88615000D01*
X132390000Y-91275000D02*
X132390000Y-88615000D01*
X119620000Y-91275000D02*
X118290000Y-91275000D01*
X118290000Y-91275000D02*
X118290000Y-89945000D01*
G04 #@! TO.C,C2*
X156730000Y-70716267D02*
X156730000Y-70373733D01*
X155710000Y-70716267D02*
X155710000Y-70373733D01*
G04 #@! TO.C,C1*
X153510000Y-70716267D02*
X153510000Y-70373733D01*
X154530000Y-70716267D02*
X154530000Y-70373733D01*
G04 #@! TO.C,C3*
X140610000Y-105523733D02*
X140610000Y-105866267D01*
X141630000Y-105523733D02*
X141630000Y-105866267D01*
G04 #@! TO.C,C4*
X151858733Y-95345000D02*
X152201267Y-95345000D01*
X151858733Y-96365000D02*
X152201267Y-96365000D01*
G04 #@! TO.C,R1*
X148791267Y-87205000D02*
X148448733Y-87205000D01*
X148791267Y-86185000D02*
X148448733Y-86185000D01*
G04 #@! TO.C,R2*
X144041267Y-86185000D02*
X143698733Y-86185000D01*
X144041267Y-87205000D02*
X143698733Y-87205000D01*
G04 #@! TO.C,R3*
X155831267Y-74725000D02*
X155488733Y-74725000D01*
X155831267Y-73705000D02*
X155488733Y-73705000D01*
G04 #@! TO.C,R4*
X155831267Y-76245000D02*
X155488733Y-76245000D01*
X155831267Y-77265000D02*
X155488733Y-77265000D01*
G04 #@! TO.C,R5*
X155831267Y-79805000D02*
X155488733Y-79805000D01*
X155831267Y-78785000D02*
X155488733Y-78785000D01*
G04 #@! TO.C,R6*
X155831267Y-81325000D02*
X155488733Y-81325000D01*
X155831267Y-82345000D02*
X155488733Y-82345000D01*
G04 #@! TO.C,R7*
X141248733Y-70985000D02*
X141591267Y-70985000D01*
X141248733Y-72005000D02*
X141591267Y-72005000D01*
G04 #@! TO.C,R8*
X141248733Y-74655000D02*
X141591267Y-74655000D01*
X141248733Y-73635000D02*
X141591267Y-73635000D01*
G04 #@! TO.C,J1*
X168640000Y-65385000D02*
X162670000Y-65385000D01*
X162670000Y-65385000D02*
X162670000Y-73005000D01*
X162670000Y-73005000D02*
X168640000Y-73005000D01*
X168640000Y-73005000D02*
X168640000Y-65385000D01*
X168630000Y-68695000D02*
X167880000Y-68695000D01*
X167880000Y-68695000D02*
X167880000Y-69695000D01*
X167880000Y-69695000D02*
X168630000Y-69695000D01*
X168630000Y-69695000D02*
X168630000Y-68695000D01*
X168630000Y-65395000D02*
X167880000Y-65395000D01*
X167880000Y-65395000D02*
X167880000Y-67195000D01*
X167880000Y-67195000D02*
X168630000Y-67195000D01*
X168630000Y-67195000D02*
X168630000Y-65395000D01*
X168630000Y-71195000D02*
X167880000Y-71195000D01*
X167880000Y-71195000D02*
X167880000Y-72995000D01*
X167880000Y-72995000D02*
X168630000Y-72995000D01*
X168630000Y-72995000D02*
X168630000Y-71195000D01*
X166380000Y-65395000D02*
X166380000Y-66145000D01*
X166380000Y-66145000D02*
X163430000Y-66145000D01*
X163430000Y-66145000D02*
X163430000Y-69195000D01*
X166380000Y-72995000D02*
X166380000Y-72245000D01*
X166380000Y-72245000D02*
X163430000Y-72245000D01*
X163430000Y-72245000D02*
X163430000Y-69195000D01*
X168930000Y-66345000D02*
X168930000Y-65095000D01*
X168930000Y-65095000D02*
X167680000Y-65095000D01*
G04 #@! TO.C,J2*
X168930000Y-72715000D02*
X167680000Y-72715000D01*
X168930000Y-73965000D02*
X168930000Y-72715000D01*
X163430000Y-79865000D02*
X163430000Y-76815000D01*
X166380000Y-79865000D02*
X163430000Y-79865000D01*
X166380000Y-80615000D02*
X166380000Y-79865000D01*
X163430000Y-73765000D02*
X163430000Y-76815000D01*
X166380000Y-73765000D02*
X163430000Y-73765000D01*
X166380000Y-73015000D02*
X166380000Y-73765000D01*
X168630000Y-80615000D02*
X168630000Y-78815000D01*
X167880000Y-80615000D02*
X168630000Y-80615000D01*
X167880000Y-78815000D02*
X167880000Y-80615000D01*
X168630000Y-78815000D02*
X167880000Y-78815000D01*
X168630000Y-74815000D02*
X168630000Y-73015000D01*
X167880000Y-74815000D02*
X168630000Y-74815000D01*
X167880000Y-73015000D02*
X167880000Y-74815000D01*
X168630000Y-73015000D02*
X167880000Y-73015000D01*
X168630000Y-77315000D02*
X168630000Y-76315000D01*
X167880000Y-77315000D02*
X168630000Y-77315000D01*
X167880000Y-76315000D02*
X167880000Y-77315000D01*
X168630000Y-76315000D02*
X167880000Y-76315000D01*
X168640000Y-80625000D02*
X168640000Y-73005000D01*
X162670000Y-80625000D02*
X168640000Y-80625000D01*
X162670000Y-73005000D02*
X162670000Y-80625000D01*
X168640000Y-73005000D02*
X162670000Y-73005000D01*
G04 #@! TO.C,J5*
X168640000Y-80625000D02*
X162670000Y-80625000D01*
X162670000Y-80625000D02*
X162670000Y-88245000D01*
X162670000Y-88245000D02*
X168640000Y-88245000D01*
X168640000Y-88245000D02*
X168640000Y-80625000D01*
X168630000Y-83935000D02*
X167880000Y-83935000D01*
X167880000Y-83935000D02*
X167880000Y-84935000D01*
X167880000Y-84935000D02*
X168630000Y-84935000D01*
X168630000Y-84935000D02*
X168630000Y-83935000D01*
X168630000Y-80635000D02*
X167880000Y-80635000D01*
X167880000Y-80635000D02*
X167880000Y-82435000D01*
X167880000Y-82435000D02*
X168630000Y-82435000D01*
X168630000Y-82435000D02*
X168630000Y-80635000D01*
X168630000Y-86435000D02*
X167880000Y-86435000D01*
X167880000Y-86435000D02*
X167880000Y-88235000D01*
X167880000Y-88235000D02*
X168630000Y-88235000D01*
X168630000Y-88235000D02*
X168630000Y-86435000D01*
X166380000Y-80635000D02*
X166380000Y-81385000D01*
X166380000Y-81385000D02*
X163430000Y-81385000D01*
X163430000Y-81385000D02*
X163430000Y-84435000D01*
X166380000Y-88235000D02*
X166380000Y-87485000D01*
X166380000Y-87485000D02*
X163430000Y-87485000D01*
X163430000Y-87485000D02*
X163430000Y-84435000D01*
X168930000Y-81585000D02*
X168930000Y-80335000D01*
X168930000Y-80335000D02*
X167680000Y-80335000D01*
G04 #@! TO.C,J6*
X168930000Y-87955000D02*
X167680000Y-87955000D01*
X168930000Y-89205000D02*
X168930000Y-87955000D01*
X163430000Y-95105000D02*
X163430000Y-92055000D01*
X166380000Y-95105000D02*
X163430000Y-95105000D01*
X166380000Y-95855000D02*
X166380000Y-95105000D01*
X163430000Y-89005000D02*
X163430000Y-92055000D01*
X166380000Y-89005000D02*
X163430000Y-89005000D01*
X166380000Y-88255000D02*
X166380000Y-89005000D01*
X168630000Y-95855000D02*
X168630000Y-94055000D01*
X167880000Y-95855000D02*
X168630000Y-95855000D01*
X167880000Y-94055000D02*
X167880000Y-95855000D01*
X168630000Y-94055000D02*
X167880000Y-94055000D01*
X168630000Y-90055000D02*
X168630000Y-88255000D01*
X167880000Y-90055000D02*
X168630000Y-90055000D01*
X167880000Y-88255000D02*
X167880000Y-90055000D01*
X168630000Y-88255000D02*
X167880000Y-88255000D01*
X168630000Y-92555000D02*
X168630000Y-91555000D01*
X167880000Y-92555000D02*
X168630000Y-92555000D01*
X167880000Y-91555000D02*
X167880000Y-92555000D01*
X168630000Y-91555000D02*
X167880000Y-91555000D01*
X168640000Y-95865000D02*
X168640000Y-88245000D01*
X162670000Y-95865000D02*
X168640000Y-95865000D01*
X162670000Y-88245000D02*
X162670000Y-95865000D01*
X168640000Y-88245000D02*
X162670000Y-88245000D01*
G04 #@! TO.C,J7*
X168640000Y-95865000D02*
X162670000Y-95865000D01*
X162670000Y-95865000D02*
X162670000Y-103485000D01*
X162670000Y-103485000D02*
X168640000Y-103485000D01*
X168640000Y-103485000D02*
X168640000Y-95865000D01*
X168630000Y-99175000D02*
X167880000Y-99175000D01*
X167880000Y-99175000D02*
X167880000Y-100175000D01*
X167880000Y-100175000D02*
X168630000Y-100175000D01*
X168630000Y-100175000D02*
X168630000Y-99175000D01*
X168630000Y-95875000D02*
X167880000Y-95875000D01*
X167880000Y-95875000D02*
X167880000Y-97675000D01*
X167880000Y-97675000D02*
X168630000Y-97675000D01*
X168630000Y-97675000D02*
X168630000Y-95875000D01*
X168630000Y-101675000D02*
X167880000Y-101675000D01*
X167880000Y-101675000D02*
X167880000Y-103475000D01*
X167880000Y-103475000D02*
X168630000Y-103475000D01*
X168630000Y-103475000D02*
X168630000Y-101675000D01*
X166380000Y-95875000D02*
X166380000Y-96625000D01*
X166380000Y-96625000D02*
X163430000Y-96625000D01*
X163430000Y-96625000D02*
X163430000Y-99675000D01*
X166380000Y-103475000D02*
X166380000Y-102725000D01*
X166380000Y-102725000D02*
X163430000Y-102725000D01*
X163430000Y-102725000D02*
X163430000Y-99675000D01*
X168930000Y-96825000D02*
X168930000Y-95575000D01*
X168930000Y-95575000D02*
X167680000Y-95575000D01*
G04 #@! TO.C,J8*
X168640000Y-103485000D02*
X162670000Y-103485000D01*
X162670000Y-103485000D02*
X162670000Y-111105000D01*
X162670000Y-111105000D02*
X168640000Y-111105000D01*
X168640000Y-111105000D02*
X168640000Y-103485000D01*
X168630000Y-106795000D02*
X167880000Y-106795000D01*
X167880000Y-106795000D02*
X167880000Y-107795000D01*
X167880000Y-107795000D02*
X168630000Y-107795000D01*
X168630000Y-107795000D02*
X168630000Y-106795000D01*
X168630000Y-103495000D02*
X167880000Y-103495000D01*
X167880000Y-103495000D02*
X167880000Y-105295000D01*
X167880000Y-105295000D02*
X168630000Y-105295000D01*
X168630000Y-105295000D02*
X168630000Y-103495000D01*
X168630000Y-109295000D02*
X167880000Y-109295000D01*
X167880000Y-109295000D02*
X167880000Y-111095000D01*
X167880000Y-111095000D02*
X168630000Y-111095000D01*
X168630000Y-111095000D02*
X168630000Y-109295000D01*
X166380000Y-103495000D02*
X166380000Y-104245000D01*
X166380000Y-104245000D02*
X163430000Y-104245000D01*
X163430000Y-104245000D02*
X163430000Y-107295000D01*
X166380000Y-111095000D02*
X166380000Y-110345000D01*
X166380000Y-110345000D02*
X163430000Y-110345000D01*
X163430000Y-110345000D02*
X163430000Y-107295000D01*
X168930000Y-104445000D02*
X168930000Y-103195000D01*
X168930000Y-103195000D02*
X167680000Y-103195000D01*
G04 #@! TO.C,J3*
X133410000Y-97215000D02*
X133410000Y-94555000D01*
X130810000Y-97215000D02*
X133410000Y-97215000D01*
X130810000Y-94555000D02*
X133410000Y-94555000D01*
X130810000Y-97215000D02*
X130810000Y-94555000D01*
X129540000Y-97215000D02*
X128210000Y-97215000D01*
X128210000Y-97215000D02*
X128210000Y-95885000D01*
G04 #@! TO.C,C7*
X127630000Y-102773733D02*
X127630000Y-103116267D01*
X126610000Y-102773733D02*
X126610000Y-103116267D01*
G04 #@! TO.C,Q1*
X150200000Y-90185000D02*
X149270000Y-90185000D01*
X147040000Y-90185000D02*
X147970000Y-90185000D01*
X147040000Y-90185000D02*
X147040000Y-92345000D01*
X150200000Y-90185000D02*
X150200000Y-91645000D01*
G04 #@! TO.C,Q2*
X145450000Y-90185000D02*
X145450000Y-91645000D01*
X142290000Y-90185000D02*
X142290000Y-92345000D01*
X142290000Y-90185000D02*
X143220000Y-90185000D01*
X145450000Y-90185000D02*
X144520000Y-90185000D01*
G04 #@! TO.C,Q3*
X132040000Y-105705000D02*
X132970000Y-105705000D01*
X135200000Y-105705000D02*
X134270000Y-105705000D01*
X135200000Y-105705000D02*
X135200000Y-103545000D01*
X132040000Y-105705000D02*
X132040000Y-104245000D01*
G04 #@! TO.C,Q4*
X128040000Y-105705000D02*
X128040000Y-104245000D01*
X131200000Y-105705000D02*
X131200000Y-103545000D01*
X131200000Y-105705000D02*
X130270000Y-105705000D01*
X128040000Y-105705000D02*
X128970000Y-105705000D01*
G04 #@! TO.C,R9*
X148791267Y-93435000D02*
X148448733Y-93435000D01*
X148791267Y-94455000D02*
X148448733Y-94455000D01*
G04 #@! TO.C,R10*
X143698733Y-93435000D02*
X144041267Y-93435000D01*
X143698733Y-94455000D02*
X144041267Y-94455000D01*
G04 #@! TO.C,R11*
X129791267Y-102455000D02*
X129448733Y-102455000D01*
X129791267Y-101435000D02*
X129448733Y-101435000D01*
G04 #@! TO.C,R12*
X133448733Y-102455000D02*
X133791267Y-102455000D01*
X133448733Y-101435000D02*
X133791267Y-101435000D01*
G04 #@! TO.C,R13*
X118648733Y-98435000D02*
X118991267Y-98435000D01*
X118648733Y-99455000D02*
X118991267Y-99455000D01*
G04 #@! TO.C,R14*
X118991267Y-96735000D02*
X118648733Y-96735000D01*
X118991267Y-97755000D02*
X118648733Y-97755000D01*
G04 #@! TO.C,U4*
X148955000Y-99772500D02*
X147695000Y-99772500D01*
X142135000Y-99772500D02*
X143395000Y-99772500D01*
X148955000Y-103532500D02*
X148955000Y-99772500D01*
X142135000Y-105782500D02*
X142135000Y-99772500D01*
G04 #@! TO.C,U5*
X123010000Y-98045000D02*
X123010000Y-99845000D01*
X126230000Y-99845000D02*
X126230000Y-97395000D01*
D10*
G04 #@! TO.C,U3*
X146545000Y-70870000D02*
X146545000Y-70895000D01*
X150695000Y-70870000D02*
X150695000Y-70975000D01*
X150695000Y-81020000D02*
X150695000Y-80915000D01*
X146545000Y-81020000D02*
X146545000Y-80915000D01*
X146545000Y-70870000D02*
X150695000Y-70870000D01*
X146545000Y-81020000D02*
X150695000Y-81020000D01*
X146545000Y-70895000D02*
X145170000Y-70895000D01*
D12*
G04 #@! TO.C,D1*
X132120000Y-98235000D02*
X129260000Y-98235000D01*
X129260000Y-98235000D02*
X129260000Y-100155000D01*
X129260000Y-100155000D02*
X132120000Y-100155000D01*
G04 #@! TO.C,R15*
X134110000Y-98616267D02*
X134110000Y-98273733D01*
X135130000Y-98616267D02*
X135130000Y-98273733D01*
G04 #@! TO.C,JP1*
X122620000Y-99645000D02*
G75*
G02X121920000Y-100345000I-700000J0D01*
G01*
X121320000Y-100345000D02*
G75*
G02X120620000Y-99645000I0J700000D01*
G01*
X120620000Y-98245000D02*
G75*
G02X121320000Y-97545000I700000J0D01*
G01*
X121920000Y-97545000D02*
G75*
G02X122620000Y-98245000I0J-700000D01*
G01*
X121320000Y-97545000D02*
X121920000Y-97545000D01*
X120620000Y-99645000D02*
X120620000Y-98245000D01*
X121920000Y-100345000D02*
X121320000Y-100345000D01*
X122620000Y-98245000D02*
X122620000Y-99645000D01*
G04 #@! TO.C,R16*
X141541267Y-77205000D02*
X141198733Y-77205000D01*
X141541267Y-76185000D02*
X141198733Y-76185000D01*
G04 #@! TO.C,TP1*
X134720000Y-109845000D02*
G75*
G03X134720000Y-109845000I-700000J0D01*
G01*
G04 #@! TO.C,R17*
X156501267Y-101515000D02*
X156158733Y-101515000D01*
X156501267Y-100495000D02*
X156158733Y-100495000D01*
G04 #@! TO.C,C8*
X152538733Y-104035000D02*
X152881267Y-104035000D01*
X152538733Y-105055000D02*
X152881267Y-105055000D01*
G04 #@! TO.C,C9*
X156501267Y-102995000D02*
X156158733Y-102995000D01*
X156501267Y-104015000D02*
X156158733Y-104015000D01*
G04 #@! TO.C,R18*
X152568733Y-102205000D02*
X152911267Y-102205000D01*
X152568733Y-103225000D02*
X152911267Y-103225000D01*
G04 #@! TO.C,R19*
X156501267Y-97995000D02*
X156158733Y-97995000D01*
X156501267Y-99015000D02*
X156158733Y-99015000D01*
G04 #@! TO.C,U2*
D10*
X153460476Y-96716904D02*
X153460476Y-97364523D01*
X153498571Y-97440714D01*
X153536666Y-97478809D01*
X153612857Y-97516904D01*
X153765238Y-97516904D01*
X153841428Y-97478809D01*
X153879523Y-97440714D01*
X153917619Y-97364523D01*
X153917619Y-96716904D01*
X154260476Y-96793095D02*
X154298571Y-96755000D01*
X154374761Y-96716904D01*
X154565238Y-96716904D01*
X154641428Y-96755000D01*
X154679523Y-96793095D01*
X154717619Y-96869285D01*
X154717619Y-96945476D01*
X154679523Y-97059761D01*
X154222380Y-97516904D01*
X154717619Y-97516904D01*
G04 #@! TO.C,U1*
X138644761Y-102957380D02*
X138978095Y-103957380D01*
X139311428Y-102957380D01*
X139644761Y-103957380D02*
X139644761Y-102957380D01*
X140120952Y-103957380D02*
X140120952Y-102957380D01*
X140692380Y-103957380D01*
X140692380Y-102957380D01*
X140001904Y-100465000D02*
X139906666Y-100417380D01*
X139763809Y-100417380D01*
X139620952Y-100465000D01*
X139525714Y-100560238D01*
X139478095Y-100655476D01*
X139430476Y-100845952D01*
X139430476Y-100988809D01*
X139478095Y-101179285D01*
X139525714Y-101274523D01*
X139620952Y-101369761D01*
X139763809Y-101417380D01*
X139859047Y-101417380D01*
X140001904Y-101369761D01*
X140049523Y-101322142D01*
X140049523Y-100988809D01*
X139859047Y-100988809D01*
X139192380Y-98877380D02*
X138859047Y-98401190D01*
X138620952Y-98877380D02*
X138620952Y-97877380D01*
X139001904Y-97877380D01*
X139097142Y-97925000D01*
X139144761Y-97972619D01*
X139192380Y-98067857D01*
X139192380Y-98210714D01*
X139144761Y-98305952D01*
X139097142Y-98353571D01*
X139001904Y-98401190D01*
X138620952Y-98401190D01*
X139573333Y-98829761D02*
X139716190Y-98877380D01*
X139954285Y-98877380D01*
X140049523Y-98829761D01*
X140097142Y-98782142D01*
X140144761Y-98686904D01*
X140144761Y-98591666D01*
X140097142Y-98496428D01*
X140049523Y-98448809D01*
X139954285Y-98401190D01*
X139763809Y-98353571D01*
X139668571Y-98305952D01*
X139620952Y-98258333D01*
X139573333Y-98163095D01*
X139573333Y-98067857D01*
X139620952Y-97972619D01*
X139668571Y-97925000D01*
X139763809Y-97877380D01*
X140001904Y-97877380D01*
X140144761Y-97925000D01*
X140430476Y-97877380D02*
X141001904Y-97877380D01*
X140716190Y-98877380D02*
X140716190Y-97877380D01*
X139001904Y-95813571D02*
X139335238Y-95813571D01*
X139478095Y-96337380D02*
X139001904Y-96337380D01*
X139001904Y-95337380D01*
X139478095Y-95337380D01*
X139906666Y-96337380D02*
X139906666Y-95337380D01*
X140478095Y-96337380D01*
X140478095Y-95337380D01*
X138978095Y-92797380D02*
X139597142Y-92797380D01*
X139263809Y-93178333D01*
X139406666Y-93178333D01*
X139501904Y-93225952D01*
X139549523Y-93273571D01*
X139597142Y-93368809D01*
X139597142Y-93606904D01*
X139549523Y-93702142D01*
X139501904Y-93749761D01*
X139406666Y-93797380D01*
X139120952Y-93797380D01*
X139025714Y-93749761D01*
X138978095Y-93702142D01*
X139882857Y-92797380D02*
X140216190Y-93797380D01*
X140549523Y-92797380D01*
X140001904Y-90305000D02*
X139906666Y-90257380D01*
X139763809Y-90257380D01*
X139620952Y-90305000D01*
X139525714Y-90400238D01*
X139478095Y-90495476D01*
X139430476Y-90685952D01*
X139430476Y-90828809D01*
X139478095Y-91019285D01*
X139525714Y-91114523D01*
X139620952Y-91209761D01*
X139763809Y-91257380D01*
X139859047Y-91257380D01*
X140001904Y-91209761D01*
X140049523Y-91162142D01*
X140049523Y-90828809D01*
X139859047Y-90828809D01*
X138954285Y-88669761D02*
X139097142Y-88717380D01*
X139335238Y-88717380D01*
X139430476Y-88669761D01*
X139478095Y-88622142D01*
X139525714Y-88526904D01*
X139525714Y-88431666D01*
X139478095Y-88336428D01*
X139430476Y-88288809D01*
X139335238Y-88241190D01*
X139144761Y-88193571D01*
X139049523Y-88145952D01*
X139001904Y-88098333D01*
X138954285Y-88003095D01*
X138954285Y-87907857D01*
X139001904Y-87812619D01*
X139049523Y-87765000D01*
X139144761Y-87717380D01*
X139382857Y-87717380D01*
X139525714Y-87765000D01*
X139954285Y-88717380D02*
X139954285Y-87717380D01*
X140525714Y-88717380D02*
X140097142Y-88145952D01*
X140525714Y-87717380D02*
X139954285Y-88288809D01*
X138930476Y-86129761D02*
X139073333Y-86177380D01*
X139311428Y-86177380D01*
X139406666Y-86129761D01*
X139454285Y-86082142D01*
X139501904Y-85986904D01*
X139501904Y-85891666D01*
X139454285Y-85796428D01*
X139406666Y-85748809D01*
X139311428Y-85701190D01*
X139120952Y-85653571D01*
X139025714Y-85605952D01*
X138978095Y-85558333D01*
X138930476Y-85463095D01*
X138930476Y-85367857D01*
X138978095Y-85272619D01*
X139025714Y-85225000D01*
X139120952Y-85177380D01*
X139359047Y-85177380D01*
X139501904Y-85225000D01*
X140120952Y-85177380D02*
X140311428Y-85177380D01*
X140406666Y-85225000D01*
X140501904Y-85320238D01*
X140549523Y-85510714D01*
X140549523Y-85844047D01*
X140501904Y-86034523D01*
X140406666Y-86129761D01*
X140311428Y-86177380D01*
X140120952Y-86177380D01*
X140025714Y-86129761D01*
X139930476Y-86034523D01*
X139882857Y-85844047D01*
X139882857Y-85510714D01*
X139930476Y-85320238D01*
X140025714Y-85225000D01*
X140120952Y-85177380D01*
X138954285Y-83589761D02*
X139097142Y-83637380D01*
X139335238Y-83637380D01*
X139430476Y-83589761D01*
X139478095Y-83542142D01*
X139525714Y-83446904D01*
X139525714Y-83351666D01*
X139478095Y-83256428D01*
X139430476Y-83208809D01*
X139335238Y-83161190D01*
X139144761Y-83113571D01*
X139049523Y-83065952D01*
X139001904Y-83018333D01*
X138954285Y-82923095D01*
X138954285Y-82827857D01*
X139001904Y-82732619D01*
X139049523Y-82685000D01*
X139144761Y-82637380D01*
X139382857Y-82637380D01*
X139525714Y-82685000D01*
X140525714Y-83542142D02*
X140478095Y-83589761D01*
X140335238Y-83637380D01*
X140240000Y-83637380D01*
X140097142Y-83589761D01*
X140001904Y-83494523D01*
X139954285Y-83399285D01*
X139906666Y-83208809D01*
X139906666Y-83065952D01*
X139954285Y-82875476D01*
X140001904Y-82780238D01*
X140097142Y-82685000D01*
X140240000Y-82637380D01*
X140335238Y-82637380D01*
X140478095Y-82685000D01*
X140525714Y-82732619D01*
X138978095Y-81049761D02*
X139120952Y-81097380D01*
X139359047Y-81097380D01*
X139454285Y-81049761D01*
X139501904Y-81002142D01*
X139549523Y-80906904D01*
X139549523Y-80811666D01*
X139501904Y-80716428D01*
X139454285Y-80668809D01*
X139359047Y-80621190D01*
X139168571Y-80573571D01*
X139073333Y-80525952D01*
X139025714Y-80478333D01*
X138978095Y-80383095D01*
X138978095Y-80287857D01*
X139025714Y-80192619D01*
X139073333Y-80145000D01*
X139168571Y-80097380D01*
X139406666Y-80097380D01*
X139549523Y-80145000D01*
X140501904Y-81097380D02*
X139930476Y-81097380D01*
X140216190Y-81097380D02*
X140216190Y-80097380D01*
X140120952Y-80240238D01*
X140025714Y-80335476D01*
X139930476Y-80383095D01*
X138978095Y-78509761D02*
X139120952Y-78557380D01*
X139359047Y-78557380D01*
X139454285Y-78509761D01*
X139501904Y-78462142D01*
X139549523Y-78366904D01*
X139549523Y-78271666D01*
X139501904Y-78176428D01*
X139454285Y-78128809D01*
X139359047Y-78081190D01*
X139168571Y-78033571D01*
X139073333Y-77985952D01*
X139025714Y-77938333D01*
X138978095Y-77843095D01*
X138978095Y-77747857D01*
X139025714Y-77652619D01*
X139073333Y-77605000D01*
X139168571Y-77557380D01*
X139406666Y-77557380D01*
X139549523Y-77605000D01*
X139930476Y-77652619D02*
X139978095Y-77605000D01*
X140073333Y-77557380D01*
X140311428Y-77557380D01*
X140406666Y-77605000D01*
X140454285Y-77652619D01*
X140501904Y-77747857D01*
X140501904Y-77843095D01*
X140454285Y-77985952D01*
X139882857Y-78557380D01*
X140501904Y-78557380D01*
X159298095Y-104957380D02*
X159917142Y-104957380D01*
X159583809Y-105338333D01*
X159726666Y-105338333D01*
X159821904Y-105385952D01*
X159869523Y-105433571D01*
X159917142Y-105528809D01*
X159917142Y-105766904D01*
X159869523Y-105862142D01*
X159821904Y-105909761D01*
X159726666Y-105957380D01*
X159440952Y-105957380D01*
X159345714Y-105909761D01*
X159298095Y-105862142D01*
X160202857Y-104957380D02*
X160536190Y-105957380D01*
X160869523Y-104957380D01*
X158881904Y-99745000D02*
X158786666Y-99697380D01*
X158643809Y-99697380D01*
X158500952Y-99745000D01*
X158405714Y-99840238D01*
X158358095Y-99935476D01*
X158310476Y-100125952D01*
X158310476Y-100268809D01*
X158358095Y-100459285D01*
X158405714Y-100554523D01*
X158500952Y-100649761D01*
X158643809Y-100697380D01*
X158739047Y-100697380D01*
X158881904Y-100649761D01*
X158929523Y-100602142D01*
X158929523Y-100268809D01*
X158739047Y-100268809D01*
X156781904Y-93797380D02*
X156781904Y-92797380D01*
X157020000Y-92797380D01*
X157162857Y-92845000D01*
X157258095Y-92940238D01*
X157305714Y-93035476D01*
X157353333Y-93225952D01*
X157353333Y-93368809D01*
X157305714Y-93559285D01*
X157258095Y-93654523D01*
X157162857Y-93749761D01*
X157020000Y-93797380D01*
X156781904Y-93797380D01*
X157924761Y-93225952D02*
X157829523Y-93178333D01*
X157781904Y-93130714D01*
X157734285Y-93035476D01*
X157734285Y-92987857D01*
X157781904Y-92892619D01*
X157829523Y-92845000D01*
X157924761Y-92797380D01*
X158115238Y-92797380D01*
X158210476Y-92845000D01*
X158258095Y-92892619D01*
X158305714Y-92987857D01*
X158305714Y-93035476D01*
X158258095Y-93130714D01*
X158210476Y-93178333D01*
X158115238Y-93225952D01*
X157924761Y-93225952D01*
X157829523Y-93273571D01*
X157781904Y-93321190D01*
X157734285Y-93416428D01*
X157734285Y-93606904D01*
X157781904Y-93702142D01*
X157829523Y-93749761D01*
X157924761Y-93797380D01*
X158115238Y-93797380D01*
X158210476Y-93749761D01*
X158258095Y-93702142D01*
X158305714Y-93606904D01*
X158305714Y-93416428D01*
X158258095Y-93321190D01*
X158210476Y-93273571D01*
X158115238Y-93225952D01*
X156781904Y-91257380D02*
X156781904Y-90257380D01*
X157020000Y-90257380D01*
X157162857Y-90305000D01*
X157258095Y-90400238D01*
X157305714Y-90495476D01*
X157353333Y-90685952D01*
X157353333Y-90828809D01*
X157305714Y-91019285D01*
X157258095Y-91114523D01*
X157162857Y-91209761D01*
X157020000Y-91257380D01*
X156781904Y-91257380D01*
X157686666Y-90257380D02*
X158353333Y-90257380D01*
X157924761Y-91257380D01*
X156781904Y-88717380D02*
X156781904Y-87717380D01*
X157020000Y-87717380D01*
X157162857Y-87765000D01*
X157258095Y-87860238D01*
X157305714Y-87955476D01*
X157353333Y-88145952D01*
X157353333Y-88288809D01*
X157305714Y-88479285D01*
X157258095Y-88574523D01*
X157162857Y-88669761D01*
X157020000Y-88717380D01*
X156781904Y-88717380D01*
X158210476Y-87717380D02*
X158020000Y-87717380D01*
X157924761Y-87765000D01*
X157877142Y-87812619D01*
X157781904Y-87955476D01*
X157734285Y-88145952D01*
X157734285Y-88526904D01*
X157781904Y-88622142D01*
X157829523Y-88669761D01*
X157924761Y-88717380D01*
X158115238Y-88717380D01*
X158210476Y-88669761D01*
X158258095Y-88622142D01*
X158305714Y-88526904D01*
X158305714Y-88288809D01*
X158258095Y-88193571D01*
X158210476Y-88145952D01*
X158115238Y-88098333D01*
X157924761Y-88098333D01*
X157829523Y-88145952D01*
X157781904Y-88193571D01*
X157734285Y-88288809D01*
X156781904Y-86177380D02*
X156781904Y-85177380D01*
X157020000Y-85177380D01*
X157162857Y-85225000D01*
X157258095Y-85320238D01*
X157305714Y-85415476D01*
X157353333Y-85605952D01*
X157353333Y-85748809D01*
X157305714Y-85939285D01*
X157258095Y-86034523D01*
X157162857Y-86129761D01*
X157020000Y-86177380D01*
X156781904Y-86177380D01*
X158258095Y-85177380D02*
X157781904Y-85177380D01*
X157734285Y-85653571D01*
X157781904Y-85605952D01*
X157877142Y-85558333D01*
X158115238Y-85558333D01*
X158210476Y-85605952D01*
X158258095Y-85653571D01*
X158305714Y-85748809D01*
X158305714Y-85986904D01*
X158258095Y-86082142D01*
X158210476Y-86129761D01*
X158115238Y-86177380D01*
X157877142Y-86177380D01*
X157781904Y-86129761D01*
X157734285Y-86082142D01*
X158581904Y-82745000D02*
X158486666Y-82697380D01*
X158343809Y-82697380D01*
X158200952Y-82745000D01*
X158105714Y-82840238D01*
X158058095Y-82935476D01*
X158010476Y-83125952D01*
X158010476Y-83268809D01*
X158058095Y-83459285D01*
X158105714Y-83554523D01*
X158200952Y-83649761D01*
X158343809Y-83697380D01*
X158439047Y-83697380D01*
X158581904Y-83649761D01*
X158629523Y-83602142D01*
X158629523Y-83268809D01*
X158439047Y-83268809D01*
G04 #@! TO.C,C6*
X124536666Y-94240714D02*
X124498571Y-94278809D01*
X124384285Y-94316904D01*
X124308095Y-94316904D01*
X124193809Y-94278809D01*
X124117619Y-94202619D01*
X124079523Y-94126428D01*
X124041428Y-93974047D01*
X124041428Y-93859761D01*
X124079523Y-93707380D01*
X124117619Y-93631190D01*
X124193809Y-93555000D01*
X124308095Y-93516904D01*
X124384285Y-93516904D01*
X124498571Y-93555000D01*
X124536666Y-93593095D01*
X125222380Y-93516904D02*
X125070000Y-93516904D01*
X124993809Y-93555000D01*
X124955714Y-93593095D01*
X124879523Y-93707380D01*
X124841428Y-93859761D01*
X124841428Y-94164523D01*
X124879523Y-94240714D01*
X124917619Y-94278809D01*
X124993809Y-94316904D01*
X125146190Y-94316904D01*
X125222380Y-94278809D01*
X125260476Y-94240714D01*
X125298571Y-94164523D01*
X125298571Y-93974047D01*
X125260476Y-93897857D01*
X125222380Y-93859761D01*
X125146190Y-93821666D01*
X124993809Y-93821666D01*
X124917619Y-93859761D01*
X124879523Y-93897857D01*
X124841428Y-93974047D01*
G04 #@! TO.C,SW1*
X120243333Y-110848809D02*
X120357619Y-110886904D01*
X120548095Y-110886904D01*
X120624285Y-110848809D01*
X120662380Y-110810714D01*
X120700476Y-110734523D01*
X120700476Y-110658333D01*
X120662380Y-110582142D01*
X120624285Y-110544047D01*
X120548095Y-110505952D01*
X120395714Y-110467857D01*
X120319523Y-110429761D01*
X120281428Y-110391666D01*
X120243333Y-110315476D01*
X120243333Y-110239285D01*
X120281428Y-110163095D01*
X120319523Y-110125000D01*
X120395714Y-110086904D01*
X120586190Y-110086904D01*
X120700476Y-110125000D01*
X120967142Y-110086904D02*
X121157619Y-110886904D01*
X121310000Y-110315476D01*
X121462380Y-110886904D01*
X121652857Y-110086904D01*
X122376666Y-110886904D02*
X121919523Y-110886904D01*
X122148095Y-110886904D02*
X122148095Y-110086904D01*
X122071904Y-110201190D01*
X121995714Y-110277380D01*
X121919523Y-110315476D01*
G04 #@! TO.C,C5*
X147536666Y-107655714D02*
X147498571Y-107693809D01*
X147384285Y-107731904D01*
X147308095Y-107731904D01*
X147193809Y-107693809D01*
X147117619Y-107617619D01*
X147079523Y-107541428D01*
X147041428Y-107389047D01*
X147041428Y-107274761D01*
X147079523Y-107122380D01*
X147117619Y-107046190D01*
X147193809Y-106970000D01*
X147308095Y-106931904D01*
X147384285Y-106931904D01*
X147498571Y-106970000D01*
X147536666Y-107008095D01*
X148260476Y-106931904D02*
X147879523Y-106931904D01*
X147841428Y-107312857D01*
X147879523Y-107274761D01*
X147955714Y-107236666D01*
X148146190Y-107236666D01*
X148222380Y-107274761D01*
X148260476Y-107312857D01*
X148298571Y-107389047D01*
X148298571Y-107579523D01*
X148260476Y-107655714D01*
X148222380Y-107693809D01*
X148146190Y-107731904D01*
X147955714Y-107731904D01*
X147879523Y-107693809D01*
X147841428Y-107655714D01*
G04 #@! TO.C,C2*
X156036666Y-68580714D02*
X155998571Y-68618809D01*
X155884285Y-68656904D01*
X155808095Y-68656904D01*
X155693809Y-68618809D01*
X155617619Y-68542619D01*
X155579523Y-68466428D01*
X155541428Y-68314047D01*
X155541428Y-68199761D01*
X155579523Y-68047380D01*
X155617619Y-67971190D01*
X155693809Y-67895000D01*
X155808095Y-67856904D01*
X155884285Y-67856904D01*
X155998571Y-67895000D01*
X156036666Y-67933095D01*
X156341428Y-67933095D02*
X156379523Y-67895000D01*
X156455714Y-67856904D01*
X156646190Y-67856904D01*
X156722380Y-67895000D01*
X156760476Y-67933095D01*
X156798571Y-68009285D01*
X156798571Y-68085476D01*
X156760476Y-68199761D01*
X156303333Y-68656904D01*
X156798571Y-68656904D01*
G04 #@! TO.C,C1*
X153786666Y-68630714D02*
X153748571Y-68668809D01*
X153634285Y-68706904D01*
X153558095Y-68706904D01*
X153443809Y-68668809D01*
X153367619Y-68592619D01*
X153329523Y-68516428D01*
X153291428Y-68364047D01*
X153291428Y-68249761D01*
X153329523Y-68097380D01*
X153367619Y-68021190D01*
X153443809Y-67945000D01*
X153558095Y-67906904D01*
X153634285Y-67906904D01*
X153748571Y-67945000D01*
X153786666Y-67983095D01*
X154548571Y-68706904D02*
X154091428Y-68706904D01*
X154320000Y-68706904D02*
X154320000Y-67906904D01*
X154243809Y-68021190D01*
X154167619Y-68097380D01*
X154091428Y-68135476D01*
G04 #@! TO.C,C3*
X140986666Y-108230714D02*
X140948571Y-108268809D01*
X140834285Y-108306904D01*
X140758095Y-108306904D01*
X140643809Y-108268809D01*
X140567619Y-108192619D01*
X140529523Y-108116428D01*
X140491428Y-107964047D01*
X140491428Y-107849761D01*
X140529523Y-107697380D01*
X140567619Y-107621190D01*
X140643809Y-107545000D01*
X140758095Y-107506904D01*
X140834285Y-107506904D01*
X140948571Y-107545000D01*
X140986666Y-107583095D01*
X141253333Y-107506904D02*
X141748571Y-107506904D01*
X141481904Y-107811666D01*
X141596190Y-107811666D01*
X141672380Y-107849761D01*
X141710476Y-107887857D01*
X141748571Y-107964047D01*
X141748571Y-108154523D01*
X141710476Y-108230714D01*
X141672380Y-108268809D01*
X141596190Y-108306904D01*
X141367619Y-108306904D01*
X141291428Y-108268809D01*
X141253333Y-108230714D01*
G04 #@! TO.C,C4*
X151866666Y-94930714D02*
X151828571Y-94968809D01*
X151714285Y-95006904D01*
X151638095Y-95006904D01*
X151523809Y-94968809D01*
X151447619Y-94892619D01*
X151409523Y-94816428D01*
X151371428Y-94664047D01*
X151371428Y-94549761D01*
X151409523Y-94397380D01*
X151447619Y-94321190D01*
X151523809Y-94245000D01*
X151638095Y-94206904D01*
X151714285Y-94206904D01*
X151828571Y-94245000D01*
X151866666Y-94283095D01*
X152552380Y-94473571D02*
X152552380Y-95006904D01*
X152361904Y-94168809D02*
X152171428Y-94740238D01*
X152666666Y-94740238D01*
G04 #@! TO.C,R1*
X148486666Y-88236904D02*
X148220000Y-87855952D01*
X148029523Y-88236904D02*
X148029523Y-87436904D01*
X148334285Y-87436904D01*
X148410476Y-87475000D01*
X148448571Y-87513095D01*
X148486666Y-87589285D01*
X148486666Y-87703571D01*
X148448571Y-87779761D01*
X148410476Y-87817857D01*
X148334285Y-87855952D01*
X148029523Y-87855952D01*
X149248571Y-88236904D02*
X148791428Y-88236904D01*
X149020000Y-88236904D02*
X149020000Y-87436904D01*
X148943809Y-87551190D01*
X148867619Y-87627380D01*
X148791428Y-87665476D01*
G04 #@! TO.C,R2*
X143736666Y-88226904D02*
X143470000Y-87845952D01*
X143279523Y-88226904D02*
X143279523Y-87426904D01*
X143584285Y-87426904D01*
X143660476Y-87465000D01*
X143698571Y-87503095D01*
X143736666Y-87579285D01*
X143736666Y-87693571D01*
X143698571Y-87769761D01*
X143660476Y-87807857D01*
X143584285Y-87845952D01*
X143279523Y-87845952D01*
X144041428Y-87503095D02*
X144079523Y-87465000D01*
X144155714Y-87426904D01*
X144346190Y-87426904D01*
X144422380Y-87465000D01*
X144460476Y-87503095D01*
X144498571Y-87579285D01*
X144498571Y-87655476D01*
X144460476Y-87769761D01*
X144003333Y-88226904D01*
X144498571Y-88226904D01*
G04 #@! TO.C,R3*
X155526666Y-73456904D02*
X155260000Y-73075952D01*
X155069523Y-73456904D02*
X155069523Y-72656904D01*
X155374285Y-72656904D01*
X155450476Y-72695000D01*
X155488571Y-72733095D01*
X155526666Y-72809285D01*
X155526666Y-72923571D01*
X155488571Y-72999761D01*
X155450476Y-73037857D01*
X155374285Y-73075952D01*
X155069523Y-73075952D01*
X155793333Y-72656904D02*
X156288571Y-72656904D01*
X156021904Y-72961666D01*
X156136190Y-72961666D01*
X156212380Y-72999761D01*
X156250476Y-73037857D01*
X156288571Y-73114047D01*
X156288571Y-73304523D01*
X156250476Y-73380714D01*
X156212380Y-73418809D01*
X156136190Y-73456904D01*
X155907619Y-73456904D01*
X155831428Y-73418809D01*
X155793333Y-73380714D01*
G04 #@! TO.C,R4*
X155526666Y-76056904D02*
X155260000Y-75675952D01*
X155069523Y-76056904D02*
X155069523Y-75256904D01*
X155374285Y-75256904D01*
X155450476Y-75295000D01*
X155488571Y-75333095D01*
X155526666Y-75409285D01*
X155526666Y-75523571D01*
X155488571Y-75599761D01*
X155450476Y-75637857D01*
X155374285Y-75675952D01*
X155069523Y-75675952D01*
X156212380Y-75523571D02*
X156212380Y-76056904D01*
X156021904Y-75218809D02*
X155831428Y-75790238D01*
X156326666Y-75790238D01*
G04 #@! TO.C,R5*
X155536666Y-78456904D02*
X155270000Y-78075952D01*
X155079523Y-78456904D02*
X155079523Y-77656904D01*
X155384285Y-77656904D01*
X155460476Y-77695000D01*
X155498571Y-77733095D01*
X155536666Y-77809285D01*
X155536666Y-77923571D01*
X155498571Y-77999761D01*
X155460476Y-78037857D01*
X155384285Y-78075952D01*
X155079523Y-78075952D01*
X156260476Y-77656904D02*
X155879523Y-77656904D01*
X155841428Y-78037857D01*
X155879523Y-77999761D01*
X155955714Y-77961666D01*
X156146190Y-77961666D01*
X156222380Y-77999761D01*
X156260476Y-78037857D01*
X156298571Y-78114047D01*
X156298571Y-78304523D01*
X156260476Y-78380714D01*
X156222380Y-78418809D01*
X156146190Y-78456904D01*
X155955714Y-78456904D01*
X155879523Y-78418809D01*
X155841428Y-78380714D01*
G04 #@! TO.C,R6*
X155536666Y-81056904D02*
X155270000Y-80675952D01*
X155079523Y-81056904D02*
X155079523Y-80256904D01*
X155384285Y-80256904D01*
X155460476Y-80295000D01*
X155498571Y-80333095D01*
X155536666Y-80409285D01*
X155536666Y-80523571D01*
X155498571Y-80599761D01*
X155460476Y-80637857D01*
X155384285Y-80675952D01*
X155079523Y-80675952D01*
X156222380Y-80256904D02*
X156070000Y-80256904D01*
X155993809Y-80295000D01*
X155955714Y-80333095D01*
X155879523Y-80447380D01*
X155841428Y-80599761D01*
X155841428Y-80904523D01*
X155879523Y-80980714D01*
X155917619Y-81018809D01*
X155993809Y-81056904D01*
X156146190Y-81056904D01*
X156222380Y-81018809D01*
X156260476Y-80980714D01*
X156298571Y-80904523D01*
X156298571Y-80714047D01*
X156260476Y-80637857D01*
X156222380Y-80599761D01*
X156146190Y-80561666D01*
X155993809Y-80561666D01*
X155917619Y-80599761D01*
X155879523Y-80637857D01*
X155841428Y-80714047D01*
G04 #@! TO.C,R7*
X141336666Y-70576904D02*
X141070000Y-70195952D01*
X140879523Y-70576904D02*
X140879523Y-69776904D01*
X141184285Y-69776904D01*
X141260476Y-69815000D01*
X141298571Y-69853095D01*
X141336666Y-69929285D01*
X141336666Y-70043571D01*
X141298571Y-70119761D01*
X141260476Y-70157857D01*
X141184285Y-70195952D01*
X140879523Y-70195952D01*
X141603333Y-69776904D02*
X142136666Y-69776904D01*
X141793809Y-70576904D01*
G04 #@! TO.C,R8*
X141336666Y-73286904D02*
X141070000Y-72905952D01*
X140879523Y-73286904D02*
X140879523Y-72486904D01*
X141184285Y-72486904D01*
X141260476Y-72525000D01*
X141298571Y-72563095D01*
X141336666Y-72639285D01*
X141336666Y-72753571D01*
X141298571Y-72829761D01*
X141260476Y-72867857D01*
X141184285Y-72905952D01*
X140879523Y-72905952D01*
X141793809Y-72829761D02*
X141717619Y-72791666D01*
X141679523Y-72753571D01*
X141641428Y-72677380D01*
X141641428Y-72639285D01*
X141679523Y-72563095D01*
X141717619Y-72525000D01*
X141793809Y-72486904D01*
X141946190Y-72486904D01*
X142022380Y-72525000D01*
X142060476Y-72563095D01*
X142098571Y-72639285D01*
X142098571Y-72677380D01*
X142060476Y-72753571D01*
X142022380Y-72791666D01*
X141946190Y-72829761D01*
X141793809Y-72829761D01*
X141717619Y-72867857D01*
X141679523Y-72905952D01*
X141641428Y-72982142D01*
X141641428Y-73134523D01*
X141679523Y-73210714D01*
X141717619Y-73248809D01*
X141793809Y-73286904D01*
X141946190Y-73286904D01*
X142022380Y-73248809D01*
X142060476Y-73210714D01*
X142098571Y-73134523D01*
X142098571Y-72982142D01*
X142060476Y-72905952D01*
X142022380Y-72867857D01*
X141946190Y-72829761D01*
G04 #@! TO.C,C7*
X126986666Y-105480714D02*
X126948571Y-105518809D01*
X126834285Y-105556904D01*
X126758095Y-105556904D01*
X126643809Y-105518809D01*
X126567619Y-105442619D01*
X126529523Y-105366428D01*
X126491428Y-105214047D01*
X126491428Y-105099761D01*
X126529523Y-104947380D01*
X126567619Y-104871190D01*
X126643809Y-104795000D01*
X126758095Y-104756904D01*
X126834285Y-104756904D01*
X126948571Y-104795000D01*
X126986666Y-104833095D01*
X127253333Y-104756904D02*
X127786666Y-104756904D01*
X127443809Y-105556904D01*
G04 #@! TO.C,Q1*
X147043809Y-89883095D02*
X146967619Y-89845000D01*
X146891428Y-89768809D01*
X146777142Y-89654523D01*
X146700952Y-89616428D01*
X146624761Y-89616428D01*
X146662857Y-89806904D02*
X146586666Y-89768809D01*
X146510476Y-89692619D01*
X146472380Y-89540238D01*
X146472380Y-89273571D01*
X146510476Y-89121190D01*
X146586666Y-89045000D01*
X146662857Y-89006904D01*
X146815238Y-89006904D01*
X146891428Y-89045000D01*
X146967619Y-89121190D01*
X147005714Y-89273571D01*
X147005714Y-89540238D01*
X146967619Y-89692619D01*
X146891428Y-89768809D01*
X146815238Y-89806904D01*
X146662857Y-89806904D01*
X147767619Y-89806904D02*
X147310476Y-89806904D01*
X147539047Y-89806904D02*
X147539047Y-89006904D01*
X147462857Y-89121190D01*
X147386666Y-89197380D01*
X147310476Y-89235476D01*
G04 #@! TO.C,Q2*
X142293809Y-89883095D02*
X142217619Y-89845000D01*
X142141428Y-89768809D01*
X142027142Y-89654523D01*
X141950952Y-89616428D01*
X141874761Y-89616428D01*
X141912857Y-89806904D02*
X141836666Y-89768809D01*
X141760476Y-89692619D01*
X141722380Y-89540238D01*
X141722380Y-89273571D01*
X141760476Y-89121190D01*
X141836666Y-89045000D01*
X141912857Y-89006904D01*
X142065238Y-89006904D01*
X142141428Y-89045000D01*
X142217619Y-89121190D01*
X142255714Y-89273571D01*
X142255714Y-89540238D01*
X142217619Y-89692619D01*
X142141428Y-89768809D01*
X142065238Y-89806904D01*
X141912857Y-89806904D01*
X142560476Y-89083095D02*
X142598571Y-89045000D01*
X142674761Y-89006904D01*
X142865238Y-89006904D01*
X142941428Y-89045000D01*
X142979523Y-89083095D01*
X143017619Y-89159285D01*
X143017619Y-89235476D01*
X142979523Y-89349761D01*
X142522380Y-89806904D01*
X143017619Y-89806904D01*
G04 #@! TO.C,Q3*
X135293809Y-107133095D02*
X135217619Y-107095000D01*
X135141428Y-107018809D01*
X135027142Y-106904523D01*
X134950952Y-106866428D01*
X134874761Y-106866428D01*
X134912857Y-107056904D02*
X134836666Y-107018809D01*
X134760476Y-106942619D01*
X134722380Y-106790238D01*
X134722380Y-106523571D01*
X134760476Y-106371190D01*
X134836666Y-106295000D01*
X134912857Y-106256904D01*
X135065238Y-106256904D01*
X135141428Y-106295000D01*
X135217619Y-106371190D01*
X135255714Y-106523571D01*
X135255714Y-106790238D01*
X135217619Y-106942619D01*
X135141428Y-107018809D01*
X135065238Y-107056904D01*
X134912857Y-107056904D01*
X135522380Y-106256904D02*
X136017619Y-106256904D01*
X135750952Y-106561666D01*
X135865238Y-106561666D01*
X135941428Y-106599761D01*
X135979523Y-106637857D01*
X136017619Y-106714047D01*
X136017619Y-106904523D01*
X135979523Y-106980714D01*
X135941428Y-107018809D01*
X135865238Y-107056904D01*
X135636666Y-107056904D01*
X135560476Y-107018809D01*
X135522380Y-106980714D01*
G04 #@! TO.C,Q4*
X128043809Y-107133095D02*
X127967619Y-107095000D01*
X127891428Y-107018809D01*
X127777142Y-106904523D01*
X127700952Y-106866428D01*
X127624761Y-106866428D01*
X127662857Y-107056904D02*
X127586666Y-107018809D01*
X127510476Y-106942619D01*
X127472380Y-106790238D01*
X127472380Y-106523571D01*
X127510476Y-106371190D01*
X127586666Y-106295000D01*
X127662857Y-106256904D01*
X127815238Y-106256904D01*
X127891428Y-106295000D01*
X127967619Y-106371190D01*
X128005714Y-106523571D01*
X128005714Y-106790238D01*
X127967619Y-106942619D01*
X127891428Y-107018809D01*
X127815238Y-107056904D01*
X127662857Y-107056904D01*
X128691428Y-106523571D02*
X128691428Y-107056904D01*
X128500952Y-106218809D02*
X128310476Y-106790238D01*
X128805714Y-106790238D01*
G04 #@! TO.C,R9*
X148486666Y-95736904D02*
X148220000Y-95355952D01*
X148029523Y-95736904D02*
X148029523Y-94936904D01*
X148334285Y-94936904D01*
X148410476Y-94975000D01*
X148448571Y-95013095D01*
X148486666Y-95089285D01*
X148486666Y-95203571D01*
X148448571Y-95279761D01*
X148410476Y-95317857D01*
X148334285Y-95355952D01*
X148029523Y-95355952D01*
X148867619Y-95736904D02*
X149020000Y-95736904D01*
X149096190Y-95698809D01*
X149134285Y-95660714D01*
X149210476Y-95546428D01*
X149248571Y-95394047D01*
X149248571Y-95089285D01*
X149210476Y-95013095D01*
X149172380Y-94975000D01*
X149096190Y-94936904D01*
X148943809Y-94936904D01*
X148867619Y-94975000D01*
X148829523Y-95013095D01*
X148791428Y-95089285D01*
X148791428Y-95279761D01*
X148829523Y-95355952D01*
X148867619Y-95394047D01*
X148943809Y-95432142D01*
X149096190Y-95432142D01*
X149172380Y-95394047D01*
X149210476Y-95355952D01*
X149248571Y-95279761D01*
G04 #@! TO.C,R10*
X143355714Y-95806904D02*
X143089047Y-95425952D01*
X142898571Y-95806904D02*
X142898571Y-95006904D01*
X143203333Y-95006904D01*
X143279523Y-95045000D01*
X143317619Y-95083095D01*
X143355714Y-95159285D01*
X143355714Y-95273571D01*
X143317619Y-95349761D01*
X143279523Y-95387857D01*
X143203333Y-95425952D01*
X142898571Y-95425952D01*
X144117619Y-95806904D02*
X143660476Y-95806904D01*
X143889047Y-95806904D02*
X143889047Y-95006904D01*
X143812857Y-95121190D01*
X143736666Y-95197380D01*
X143660476Y-95235476D01*
X144612857Y-95006904D02*
X144689047Y-95006904D01*
X144765238Y-95045000D01*
X144803333Y-95083095D01*
X144841428Y-95159285D01*
X144879523Y-95311666D01*
X144879523Y-95502142D01*
X144841428Y-95654523D01*
X144803333Y-95730714D01*
X144765238Y-95768809D01*
X144689047Y-95806904D01*
X144612857Y-95806904D01*
X144536666Y-95768809D01*
X144498571Y-95730714D01*
X144460476Y-95654523D01*
X144422380Y-95502142D01*
X144422380Y-95311666D01*
X144460476Y-95159285D01*
X144498571Y-95083095D01*
X144536666Y-95045000D01*
X144612857Y-95006904D01*
G04 #@! TO.C,R11*
X129105714Y-101056904D02*
X128839047Y-100675952D01*
X128648571Y-101056904D02*
X128648571Y-100256904D01*
X128953333Y-100256904D01*
X129029523Y-100295000D01*
X129067619Y-100333095D01*
X129105714Y-100409285D01*
X129105714Y-100523571D01*
X129067619Y-100599761D01*
X129029523Y-100637857D01*
X128953333Y-100675952D01*
X128648571Y-100675952D01*
X129867619Y-101056904D02*
X129410476Y-101056904D01*
X129639047Y-101056904D02*
X129639047Y-100256904D01*
X129562857Y-100371190D01*
X129486666Y-100447380D01*
X129410476Y-100485476D01*
X130629523Y-101056904D02*
X130172380Y-101056904D01*
X130400952Y-101056904D02*
X130400952Y-100256904D01*
X130324761Y-100371190D01*
X130248571Y-100447380D01*
X130172380Y-100485476D01*
G04 #@! TO.C,R12*
X133105714Y-101056904D02*
X132839047Y-100675952D01*
X132648571Y-101056904D02*
X132648571Y-100256904D01*
X132953333Y-100256904D01*
X133029523Y-100295000D01*
X133067619Y-100333095D01*
X133105714Y-100409285D01*
X133105714Y-100523571D01*
X133067619Y-100599761D01*
X133029523Y-100637857D01*
X132953333Y-100675952D01*
X132648571Y-100675952D01*
X133867619Y-101056904D02*
X133410476Y-101056904D01*
X133639047Y-101056904D02*
X133639047Y-100256904D01*
X133562857Y-100371190D01*
X133486666Y-100447380D01*
X133410476Y-100485476D01*
X134172380Y-100333095D02*
X134210476Y-100295000D01*
X134286666Y-100256904D01*
X134477142Y-100256904D01*
X134553333Y-100295000D01*
X134591428Y-100333095D01*
X134629523Y-100409285D01*
X134629523Y-100485476D01*
X134591428Y-100599761D01*
X134134285Y-101056904D01*
X134629523Y-101056904D01*
G04 #@! TO.C,R13*
X118305714Y-100556904D02*
X118039047Y-100175952D01*
X117848571Y-100556904D02*
X117848571Y-99756904D01*
X118153333Y-99756904D01*
X118229523Y-99795000D01*
X118267619Y-99833095D01*
X118305714Y-99909285D01*
X118305714Y-100023571D01*
X118267619Y-100099761D01*
X118229523Y-100137857D01*
X118153333Y-100175952D01*
X117848571Y-100175952D01*
X119067619Y-100556904D02*
X118610476Y-100556904D01*
X118839047Y-100556904D02*
X118839047Y-99756904D01*
X118762857Y-99871190D01*
X118686666Y-99947380D01*
X118610476Y-99985476D01*
X119334285Y-99756904D02*
X119829523Y-99756904D01*
X119562857Y-100061666D01*
X119677142Y-100061666D01*
X119753333Y-100099761D01*
X119791428Y-100137857D01*
X119829523Y-100214047D01*
X119829523Y-100404523D01*
X119791428Y-100480714D01*
X119753333Y-100518809D01*
X119677142Y-100556904D01*
X119448571Y-100556904D01*
X119372380Y-100518809D01*
X119334285Y-100480714D01*
G04 #@! TO.C,R14*
X118305714Y-96406904D02*
X118039047Y-96025952D01*
X117848571Y-96406904D02*
X117848571Y-95606904D01*
X118153333Y-95606904D01*
X118229523Y-95645000D01*
X118267619Y-95683095D01*
X118305714Y-95759285D01*
X118305714Y-95873571D01*
X118267619Y-95949761D01*
X118229523Y-95987857D01*
X118153333Y-96025952D01*
X117848571Y-96025952D01*
X119067619Y-96406904D02*
X118610476Y-96406904D01*
X118839047Y-96406904D02*
X118839047Y-95606904D01*
X118762857Y-95721190D01*
X118686666Y-95797380D01*
X118610476Y-95835476D01*
X119753333Y-95873571D02*
X119753333Y-96406904D01*
X119562857Y-95568809D02*
X119372380Y-96140238D01*
X119867619Y-96140238D01*
G04 #@! TO.C,U4*
X142060476Y-98731904D02*
X142060476Y-99379523D01*
X142098571Y-99455714D01*
X142136666Y-99493809D01*
X142212857Y-99531904D01*
X142365238Y-99531904D01*
X142441428Y-99493809D01*
X142479523Y-99455714D01*
X142517619Y-99379523D01*
X142517619Y-98731904D01*
X143241428Y-98998571D02*
X143241428Y-99531904D01*
X143050952Y-98693809D02*
X142860476Y-99265238D01*
X143355714Y-99265238D01*
G04 #@! TO.C,U5*
X124010476Y-101256904D02*
X124010476Y-101904523D01*
X124048571Y-101980714D01*
X124086666Y-102018809D01*
X124162857Y-102056904D01*
X124315238Y-102056904D01*
X124391428Y-102018809D01*
X124429523Y-101980714D01*
X124467619Y-101904523D01*
X124467619Y-101256904D01*
X125229523Y-101256904D02*
X124848571Y-101256904D01*
X124810476Y-101637857D01*
X124848571Y-101599761D01*
X124924761Y-101561666D01*
X125115238Y-101561666D01*
X125191428Y-101599761D01*
X125229523Y-101637857D01*
X125267619Y-101714047D01*
X125267619Y-101904523D01*
X125229523Y-101980714D01*
X125191428Y-102018809D01*
X125115238Y-102056904D01*
X124924761Y-102056904D01*
X124848571Y-102018809D01*
X124810476Y-101980714D01*
G04 #@! TO.C,U3*
X148060476Y-81336904D02*
X148060476Y-81984523D01*
X148098571Y-82060714D01*
X148136666Y-82098809D01*
X148212857Y-82136904D01*
X148365238Y-82136904D01*
X148441428Y-82098809D01*
X148479523Y-82060714D01*
X148517619Y-81984523D01*
X148517619Y-81336904D01*
X148822380Y-81336904D02*
X149317619Y-81336904D01*
X149050952Y-81641666D01*
X149165238Y-81641666D01*
X149241428Y-81679761D01*
X149279523Y-81717857D01*
X149317619Y-81794047D01*
X149317619Y-81984523D01*
X149279523Y-82060714D01*
X149241428Y-82098809D01*
X149165238Y-82136904D01*
X148936666Y-82136904D01*
X148860476Y-82098809D01*
X148822380Y-82060714D01*
G04 #@! TO.C,D1*
X127779523Y-99556904D02*
X127779523Y-98756904D01*
X127970000Y-98756904D01*
X128084285Y-98795000D01*
X128160476Y-98871190D01*
X128198571Y-98947380D01*
X128236666Y-99099761D01*
X128236666Y-99214047D01*
X128198571Y-99366428D01*
X128160476Y-99442619D01*
X128084285Y-99518809D01*
X127970000Y-99556904D01*
X127779523Y-99556904D01*
X128998571Y-99556904D02*
X128541428Y-99556904D01*
X128770000Y-99556904D02*
X128770000Y-98756904D01*
X128693809Y-98871190D01*
X128617619Y-98947380D01*
X128541428Y-98985476D01*
G04 #@! TO.C,R15*
X134981904Y-96059285D02*
X134600952Y-96325952D01*
X134981904Y-96516428D02*
X134181904Y-96516428D01*
X134181904Y-96211666D01*
X134220000Y-96135476D01*
X134258095Y-96097380D01*
X134334285Y-96059285D01*
X134448571Y-96059285D01*
X134524761Y-96097380D01*
X134562857Y-96135476D01*
X134600952Y-96211666D01*
X134600952Y-96516428D01*
X134981904Y-95297380D02*
X134981904Y-95754523D01*
X134981904Y-95525952D02*
X134181904Y-95525952D01*
X134296190Y-95602142D01*
X134372380Y-95678333D01*
X134410476Y-95754523D01*
X134181904Y-94573571D02*
X134181904Y-94954523D01*
X134562857Y-94992619D01*
X134524761Y-94954523D01*
X134486666Y-94878333D01*
X134486666Y-94687857D01*
X134524761Y-94611666D01*
X134562857Y-94573571D01*
X134639047Y-94535476D01*
X134829523Y-94535476D01*
X134905714Y-94573571D01*
X134943809Y-94611666D01*
X134981904Y-94687857D01*
X134981904Y-94878333D01*
X134943809Y-94954523D01*
X134905714Y-94992619D01*
G04 #@! TO.C,R16*
X140855714Y-75806904D02*
X140589047Y-75425952D01*
X140398571Y-75806904D02*
X140398571Y-75006904D01*
X140703333Y-75006904D01*
X140779523Y-75045000D01*
X140817619Y-75083095D01*
X140855714Y-75159285D01*
X140855714Y-75273571D01*
X140817619Y-75349761D01*
X140779523Y-75387857D01*
X140703333Y-75425952D01*
X140398571Y-75425952D01*
X141617619Y-75806904D02*
X141160476Y-75806904D01*
X141389047Y-75806904D02*
X141389047Y-75006904D01*
X141312857Y-75121190D01*
X141236666Y-75197380D01*
X141160476Y-75235476D01*
X142303333Y-75006904D02*
X142150952Y-75006904D01*
X142074761Y-75045000D01*
X142036666Y-75083095D01*
X141960476Y-75197380D01*
X141922380Y-75349761D01*
X141922380Y-75654523D01*
X141960476Y-75730714D01*
X141998571Y-75768809D01*
X142074761Y-75806904D01*
X142227142Y-75806904D01*
X142303333Y-75768809D01*
X142341428Y-75730714D01*
X142379523Y-75654523D01*
X142379523Y-75464047D01*
X142341428Y-75387857D01*
X142303333Y-75349761D01*
X142227142Y-75311666D01*
X142074761Y-75311666D01*
X141998571Y-75349761D01*
X141960476Y-75387857D01*
X141922380Y-75464047D01*
G04 #@! TO.C,TP1*
X133010476Y-107958904D02*
X133467619Y-107958904D01*
X133239047Y-108758904D02*
X133239047Y-107958904D01*
X133734285Y-108758904D02*
X133734285Y-107958904D01*
X134039047Y-107958904D01*
X134115238Y-107997000D01*
X134153333Y-108035095D01*
X134191428Y-108111285D01*
X134191428Y-108225571D01*
X134153333Y-108301761D01*
X134115238Y-108339857D01*
X134039047Y-108377952D01*
X133734285Y-108377952D01*
X134953333Y-108758904D02*
X134496190Y-108758904D01*
X134724761Y-108758904D02*
X134724761Y-107958904D01*
X134648571Y-108073190D01*
X134572380Y-108149380D01*
X134496190Y-108187476D01*
G04 #@! TO.C,R17*
X155715714Y-100266904D02*
X155449047Y-99885952D01*
X155258571Y-100266904D02*
X155258571Y-99466904D01*
X155563333Y-99466904D01*
X155639523Y-99505000D01*
X155677619Y-99543095D01*
X155715714Y-99619285D01*
X155715714Y-99733571D01*
X155677619Y-99809761D01*
X155639523Y-99847857D01*
X155563333Y-99885952D01*
X155258571Y-99885952D01*
X156477619Y-100266904D02*
X156020476Y-100266904D01*
X156249047Y-100266904D02*
X156249047Y-99466904D01*
X156172857Y-99581190D01*
X156096666Y-99657380D01*
X156020476Y-99695476D01*
X156744285Y-99466904D02*
X157277619Y-99466904D01*
X156934761Y-100266904D01*
G04 #@! TO.C,C8*
X152526666Y-106090714D02*
X152488571Y-106128809D01*
X152374285Y-106166904D01*
X152298095Y-106166904D01*
X152183809Y-106128809D01*
X152107619Y-106052619D01*
X152069523Y-105976428D01*
X152031428Y-105824047D01*
X152031428Y-105709761D01*
X152069523Y-105557380D01*
X152107619Y-105481190D01*
X152183809Y-105405000D01*
X152298095Y-105366904D01*
X152374285Y-105366904D01*
X152488571Y-105405000D01*
X152526666Y-105443095D01*
X152983809Y-105709761D02*
X152907619Y-105671666D01*
X152869523Y-105633571D01*
X152831428Y-105557380D01*
X152831428Y-105519285D01*
X152869523Y-105443095D01*
X152907619Y-105405000D01*
X152983809Y-105366904D01*
X153136190Y-105366904D01*
X153212380Y-105405000D01*
X153250476Y-105443095D01*
X153288571Y-105519285D01*
X153288571Y-105557380D01*
X153250476Y-105633571D01*
X153212380Y-105671666D01*
X153136190Y-105709761D01*
X152983809Y-105709761D01*
X152907619Y-105747857D01*
X152869523Y-105785952D01*
X152831428Y-105862142D01*
X152831428Y-106014523D01*
X152869523Y-106090714D01*
X152907619Y-106128809D01*
X152983809Y-106166904D01*
X153136190Y-106166904D01*
X153212380Y-106128809D01*
X153250476Y-106090714D01*
X153288571Y-106014523D01*
X153288571Y-105862142D01*
X153250476Y-105785952D01*
X153212380Y-105747857D01*
X153136190Y-105709761D01*
G04 #@! TO.C,C9*
X156196666Y-102590714D02*
X156158571Y-102628809D01*
X156044285Y-102666904D01*
X155968095Y-102666904D01*
X155853809Y-102628809D01*
X155777619Y-102552619D01*
X155739523Y-102476428D01*
X155701428Y-102324047D01*
X155701428Y-102209761D01*
X155739523Y-102057380D01*
X155777619Y-101981190D01*
X155853809Y-101905000D01*
X155968095Y-101866904D01*
X156044285Y-101866904D01*
X156158571Y-101905000D01*
X156196666Y-101943095D01*
X156577619Y-102666904D02*
X156730000Y-102666904D01*
X156806190Y-102628809D01*
X156844285Y-102590714D01*
X156920476Y-102476428D01*
X156958571Y-102324047D01*
X156958571Y-102019285D01*
X156920476Y-101943095D01*
X156882380Y-101905000D01*
X156806190Y-101866904D01*
X156653809Y-101866904D01*
X156577619Y-101905000D01*
X156539523Y-101943095D01*
X156501428Y-102019285D01*
X156501428Y-102209761D01*
X156539523Y-102285952D01*
X156577619Y-102324047D01*
X156653809Y-102362142D01*
X156806190Y-102362142D01*
X156882380Y-102324047D01*
X156920476Y-102285952D01*
X156958571Y-102209761D01*
G04 #@! TO.C,R18*
X152220714Y-101846904D02*
X151954047Y-101465952D01*
X151763571Y-101846904D02*
X151763571Y-101046904D01*
X152068333Y-101046904D01*
X152144523Y-101085000D01*
X152182619Y-101123095D01*
X152220714Y-101199285D01*
X152220714Y-101313571D01*
X152182619Y-101389761D01*
X152144523Y-101427857D01*
X152068333Y-101465952D01*
X151763571Y-101465952D01*
X152982619Y-101846904D02*
X152525476Y-101846904D01*
X152754047Y-101846904D02*
X152754047Y-101046904D01*
X152677857Y-101161190D01*
X152601666Y-101237380D01*
X152525476Y-101275476D01*
X153439761Y-101389761D02*
X153363571Y-101351666D01*
X153325476Y-101313571D01*
X153287380Y-101237380D01*
X153287380Y-101199285D01*
X153325476Y-101123095D01*
X153363571Y-101085000D01*
X153439761Y-101046904D01*
X153592142Y-101046904D01*
X153668333Y-101085000D01*
X153706428Y-101123095D01*
X153744523Y-101199285D01*
X153744523Y-101237380D01*
X153706428Y-101313571D01*
X153668333Y-101351666D01*
X153592142Y-101389761D01*
X153439761Y-101389761D01*
X153363571Y-101427857D01*
X153325476Y-101465952D01*
X153287380Y-101542142D01*
X153287380Y-101694523D01*
X153325476Y-101770714D01*
X153363571Y-101808809D01*
X153439761Y-101846904D01*
X153592142Y-101846904D01*
X153668333Y-101808809D01*
X153706428Y-101770714D01*
X153744523Y-101694523D01*
X153744523Y-101542142D01*
X153706428Y-101465952D01*
X153668333Y-101427857D01*
X153592142Y-101389761D01*
G04 #@! TO.C,R19*
X155795714Y-97696904D02*
X155529047Y-97315952D01*
X155338571Y-97696904D02*
X155338571Y-96896904D01*
X155643333Y-96896904D01*
X155719523Y-96935000D01*
X155757619Y-96973095D01*
X155795714Y-97049285D01*
X155795714Y-97163571D01*
X155757619Y-97239761D01*
X155719523Y-97277857D01*
X155643333Y-97315952D01*
X155338571Y-97315952D01*
X156557619Y-97696904D02*
X156100476Y-97696904D01*
X156329047Y-97696904D02*
X156329047Y-96896904D01*
X156252857Y-97011190D01*
X156176666Y-97087380D01*
X156100476Y-97125476D01*
X156938571Y-97696904D02*
X157090952Y-97696904D01*
X157167142Y-97658809D01*
X157205238Y-97620714D01*
X157281428Y-97506428D01*
X157319523Y-97354047D01*
X157319523Y-97049285D01*
X157281428Y-96973095D01*
X157243333Y-96935000D01*
X157167142Y-96896904D01*
X157014761Y-96896904D01*
X156938571Y-96935000D01*
X156900476Y-96973095D01*
X156862380Y-97049285D01*
X156862380Y-97239761D01*
X156900476Y-97315952D01*
X156938571Y-97354047D01*
X157014761Y-97392142D01*
X157167142Y-97392142D01*
X157243333Y-97354047D01*
X157281428Y-97315952D01*
X157319523Y-97239761D01*
G04 #@! TD*
M02*
