M48
;DRILL file {KiCad 5.0.2-bee76a0~70~ubuntu16.04.1} date Sat 11 Jan 2020 18:35:14 GMT
;FORMAT={-:-/ absolute / inch / decimal}
FMAT,2
INCH,TZ
T1C0.0157
T2C0.0300
T3C0.0320
T4C0.0394
%
G90
G05
T1
X4.6996Y-3.9841
X5.6701Y-2.9191
X5.6937Y-3.8758
X5.7331Y-3.9742
X5.7724Y-3.8758
X5.8197Y-2.8167
X5.8197Y-3.0844
X5.8512Y-3.2656
X5.8819Y-2.9659
X5.8831Y-2.8659
X5.8831Y-2.9148
X5.8831Y-3.0152
X5.8866Y-3.7744
X5.9535Y-4.0923
X6.0402Y-4.053
X6.3039Y-4.2104
T2
X5.4016Y-2.675
X5.4016Y-2.775
X5.4016Y-2.875
X5.4016Y-2.975
X5.4016Y-3.075
X5.4016Y-3.175
X5.4016Y-3.275
X5.4016Y-3.375
X5.4016Y-3.475
X5.4016Y-3.575
X5.4016Y-3.675
X5.4016Y-3.775
X5.4016Y-3.875
X5.4016Y-3.975
X5.4016Y-4.075
X6.3016Y-2.675
X6.3016Y-2.775
X6.3016Y-2.875
X6.3016Y-2.975
X6.3016Y-3.075
X6.3016Y-3.175
X6.3016Y-3.275
X6.3016Y-3.375
X6.3016Y-3.475
X6.3016Y-3.575
X6.3016Y-3.675
X6.3016Y-3.775
X6.3016Y-3.875
X6.3016Y-3.975
X6.3016Y-4.075
T3
X4.5866Y-4.0892
X4.5866Y-4.2892
X4.8866Y-4.0892
X4.8866Y-4.2892
T4
X6.5819Y-3.875
X6.5819Y-3.9734
X6.5819Y-2.975
X6.5819Y-3.0734
X6.5819Y-4.175
X6.5819Y-4.2734
X6.5819Y-3.575
X6.5819Y-3.6734
X6.5819Y-3.275
X6.5819Y-3.3734
X5.1Y-3.775
X5.2Y-3.775
X5.0736Y-4.2892
X5.1736Y-4.2892
X6.5819Y-2.675
X6.5819Y-2.7734
X4.6701Y-3.5411
X5.2213Y-3.5411
T0
M30
