G04 #@! TF.GenerationSoftware,KiCad,Pcbnew,5.0.2-bee76a0~70~ubuntu16.04.1*
G04 #@! TF.CreationDate,2020-01-17T22:29:31+00:00*
G04 #@! TF.ProjectId,transmitter,7472616e-736d-4697-9474-65722e6b6963,2.0.0*
G04 #@! TF.SameCoordinates,Original*
G04 #@! TF.FileFunction,Copper,L2,Bot*
G04 #@! TF.FilePolarity,Positive*
%FSLAX46Y46*%
G04 Gerber Fmt 4.6, Leading zero omitted, Abs format (unit mm)*
G04 Created by KiCad (PCBNEW 5.0.2-bee76a0~70~ubuntu16.04.1) date Fri 17 Jan 2020 22:29:31 GMT*
%MOMM*%
%LPD*%
G01*
G04 APERTURE LIST*
G04 #@! TA.AperFunction,ComponentPad*
%ADD10C,1.524000*%
G04 #@! TD*
G04 #@! TA.AperFunction,ComponentPad*
%ADD11C,1.397000*%
G04 #@! TD*
G04 #@! TA.AperFunction,ComponentPad*
%ADD12R,1.700000X1.700000*%
G04 #@! TD*
G04 #@! TA.AperFunction,ComponentPad*
%ADD13O,1.700000X1.700000*%
G04 #@! TD*
G04 #@! TA.AperFunction,Conductor*
%ADD14C,0.500000*%
G04 #@! TD*
G04 #@! TA.AperFunction,ComponentPad*
%ADD15C,1.700000*%
G04 #@! TD*
G04 #@! TA.AperFunction,ComponentPad*
%ADD16O,2.000000X1.700000*%
G04 #@! TD*
G04 #@! TA.AperFunction,SMDPad,CuDef*
%ADD17C,0.950000*%
G04 #@! TD*
G04 #@! TA.AperFunction,SMDPad,CuDef*
%ADD18C,0.500000*%
G04 #@! TD*
G04 #@! TA.AperFunction,ViaPad*
%ADD19C,0.800000*%
G04 #@! TD*
G04 #@! TA.AperFunction,Conductor*
%ADD20C,0.250000*%
G04 #@! TD*
G04 #@! TA.AperFunction,Conductor*
%ADD21C,0.254000*%
G04 #@! TD*
G04 APERTURE END LIST*
D10*
G04 #@! TO.P,U1,1*
G04 #@! TO.N,A0*
X137200000Y-67945000D03*
G04 #@! TO.P,U1,2*
G04 #@! TO.N,N/C*
X137200000Y-70485000D03*
G04 #@! TO.P,U1,3*
X137200000Y-73025000D03*
G04 #@! TO.P,U1,4*
X137200000Y-75565000D03*
G04 #@! TO.P,U1,5*
X137200000Y-78105000D03*
G04 #@! TO.P,U1,6*
X137200000Y-80645000D03*
G04 #@! TO.P,U1,7*
X137200000Y-83185000D03*
G04 #@! TO.P,U1,8*
X137200000Y-85725000D03*
G04 #@! TO.P,U1,9*
X137200000Y-88265000D03*
G04 #@! TO.P,U1,10*
G04 #@! TO.N,GND*
X137200000Y-90805000D03*
G04 #@! TO.P,U1,11*
G04 #@! TO.N,3V3*
X137200000Y-93345000D03*
G04 #@! TO.P,U1,12*
G04 #@! TO.N,N/C*
X137200000Y-95885000D03*
G04 #@! TO.P,U1,13*
X137200000Y-98425000D03*
G04 #@! TO.P,U1,14*
G04 #@! TO.N,GND*
X137200000Y-100965000D03*
G04 #@! TO.P,U1,15*
G04 #@! TO.N,/VBAT*
X137200000Y-103505000D03*
G04 #@! TO.P,U1,16*
G04 #@! TO.N,3V3*
X160060000Y-103505000D03*
G04 #@! TO.P,U1,17*
G04 #@! TO.N,GND*
X160060000Y-100965000D03*
G04 #@! TO.P,U1,18*
G04 #@! TO.N,N/C*
X160060000Y-98425000D03*
G04 #@! TO.P,U1,19*
X160060000Y-95885000D03*
G04 #@! TO.P,U1,20*
X160060000Y-93345000D03*
G04 #@! TO.P,U1,21*
G04 #@! TO.N,Net-(U1-Pad21)*
X160060000Y-90805000D03*
G04 #@! TO.P,U1,22*
G04 #@! TO.N,Net-(U1-Pad22)*
X160060000Y-88265000D03*
G04 #@! TO.P,U1,23*
G04 #@! TO.N,Net-(U1-Pad23)*
X160060000Y-85725000D03*
G04 #@! TO.P,U1,24*
G04 #@! TO.N,GND*
X160060000Y-83185000D03*
G04 #@! TO.P,U1,25*
G04 #@! TO.N,3V3*
X160060000Y-80645000D03*
G04 #@! TO.P,U1,26*
G04 #@! TO.N,N/C*
X160060000Y-78105000D03*
G04 #@! TO.P,U1,27*
X160060000Y-75565000D03*
G04 #@! TO.P,U1,28*
G04 #@! TO.N,Net-(R16-Pad2)*
X160060000Y-73025000D03*
G04 #@! TO.P,U1,29*
G04 #@! TO.N,DONE*
X160060000Y-70485000D03*
G04 #@! TO.P,U1,30*
G04 #@! TO.N,N/C*
X160060000Y-67945000D03*
G04 #@! TD*
D11*
G04 #@! TO.P,SW1,1*
G04 #@! TO.N,/VBAT*
X116500000Y-108945000D03*
G04 #@! TO.P,SW1,2*
G04 #@! TO.N,Net-(JP1-Pad2)*
X116500000Y-103865000D03*
G04 #@! TO.P,SW1,1*
G04 #@! TO.N,/VBAT*
X124120000Y-108945000D03*
G04 #@! TO.P,SW1,2*
G04 #@! TO.N,Net-(JP1-Pad2)*
X124120000Y-103865000D03*
G04 #@! TD*
D12*
G04 #@! TO.P,SW2,1*
G04 #@! TO.N,Net-(Q3-Pad3)*
X128870000Y-108945000D03*
D13*
G04 #@! TO.P,SW2,2*
G04 #@! TO.N,/VBAT*
X131410000Y-108945000D03*
G04 #@! TD*
D12*
G04 #@! TO.P,J4,1*
G04 #@! TO.N,GND*
X118620000Y-89945000D03*
D13*
G04 #@! TO.P,J4,2*
G04 #@! TO.N,/OUT+*
X132620000Y-89945000D03*
G04 #@! TD*
D14*
G04 #@! TO.N,GND*
G04 #@! TO.C,J1*
G36*
X167954504Y-67096204D02*
X167978773Y-67099804D01*
X168002571Y-67105765D01*
X168025671Y-67114030D01*
X168047849Y-67124520D01*
X168068893Y-67137133D01*
X168088598Y-67151747D01*
X168106777Y-67168223D01*
X168123253Y-67186402D01*
X168137867Y-67206107D01*
X168150480Y-67227151D01*
X168160970Y-67249329D01*
X168169235Y-67272429D01*
X168175196Y-67296227D01*
X168178796Y-67320496D01*
X168180000Y-67345000D01*
X168180000Y-68545000D01*
X168178796Y-68569504D01*
X168175196Y-68593773D01*
X168169235Y-68617571D01*
X168160970Y-68640671D01*
X168150480Y-68662849D01*
X168137867Y-68683893D01*
X168123253Y-68703598D01*
X168106777Y-68721777D01*
X168088598Y-68738253D01*
X168068893Y-68752867D01*
X168047849Y-68765480D01*
X168025671Y-68775970D01*
X168002571Y-68784235D01*
X167978773Y-68790196D01*
X167954504Y-68793796D01*
X167930000Y-68795000D01*
X166430000Y-68795000D01*
X166405496Y-68793796D01*
X166381227Y-68790196D01*
X166357429Y-68784235D01*
X166334329Y-68775970D01*
X166312151Y-68765480D01*
X166291107Y-68752867D01*
X166271402Y-68738253D01*
X166253223Y-68721777D01*
X166236747Y-68703598D01*
X166222133Y-68683893D01*
X166209520Y-68662849D01*
X166199030Y-68640671D01*
X166190765Y-68617571D01*
X166184804Y-68593773D01*
X166181204Y-68569504D01*
X166180000Y-68545000D01*
X166180000Y-67345000D01*
X166181204Y-67320496D01*
X166184804Y-67296227D01*
X166190765Y-67272429D01*
X166199030Y-67249329D01*
X166209520Y-67227151D01*
X166222133Y-67206107D01*
X166236747Y-67186402D01*
X166253223Y-67168223D01*
X166271402Y-67151747D01*
X166291107Y-67137133D01*
X166312151Y-67124520D01*
X166334329Y-67114030D01*
X166357429Y-67105765D01*
X166381227Y-67099804D01*
X166405496Y-67096204D01*
X166430000Y-67095000D01*
X167930000Y-67095000D01*
X167954504Y-67096204D01*
X167954504Y-67096204D01*
G37*
D15*
G04 #@! TD*
G04 #@! TO.P,J1,1*
G04 #@! TO.N,GND*
X167180000Y-67945000D03*
D16*
G04 #@! TO.P,J1,2*
G04 #@! TO.N,SOIL_1*
X167180000Y-70445000D03*
G04 #@! TD*
G04 #@! TO.P,J2,2*
G04 #@! TO.N,SOIL_2*
X167180000Y-78065000D03*
D14*
G04 #@! TD*
G04 #@! TO.N,GND*
G04 #@! TO.C,J2*
G36*
X167954504Y-74716204D02*
X167978773Y-74719804D01*
X168002571Y-74725765D01*
X168025671Y-74734030D01*
X168047849Y-74744520D01*
X168068893Y-74757133D01*
X168088598Y-74771747D01*
X168106777Y-74788223D01*
X168123253Y-74806402D01*
X168137867Y-74826107D01*
X168150480Y-74847151D01*
X168160970Y-74869329D01*
X168169235Y-74892429D01*
X168175196Y-74916227D01*
X168178796Y-74940496D01*
X168180000Y-74965000D01*
X168180000Y-76165000D01*
X168178796Y-76189504D01*
X168175196Y-76213773D01*
X168169235Y-76237571D01*
X168160970Y-76260671D01*
X168150480Y-76282849D01*
X168137867Y-76303893D01*
X168123253Y-76323598D01*
X168106777Y-76341777D01*
X168088598Y-76358253D01*
X168068893Y-76372867D01*
X168047849Y-76385480D01*
X168025671Y-76395970D01*
X168002571Y-76404235D01*
X167978773Y-76410196D01*
X167954504Y-76413796D01*
X167930000Y-76415000D01*
X166430000Y-76415000D01*
X166405496Y-76413796D01*
X166381227Y-76410196D01*
X166357429Y-76404235D01*
X166334329Y-76395970D01*
X166312151Y-76385480D01*
X166291107Y-76372867D01*
X166271402Y-76358253D01*
X166253223Y-76341777D01*
X166236747Y-76323598D01*
X166222133Y-76303893D01*
X166209520Y-76282849D01*
X166199030Y-76260671D01*
X166190765Y-76237571D01*
X166184804Y-76213773D01*
X166181204Y-76189504D01*
X166180000Y-76165000D01*
X166180000Y-74965000D01*
X166181204Y-74940496D01*
X166184804Y-74916227D01*
X166190765Y-74892429D01*
X166199030Y-74869329D01*
X166209520Y-74847151D01*
X166222133Y-74826107D01*
X166236747Y-74806402D01*
X166253223Y-74788223D01*
X166271402Y-74771747D01*
X166291107Y-74757133D01*
X166312151Y-74744520D01*
X166334329Y-74734030D01*
X166357429Y-74725765D01*
X166381227Y-74719804D01*
X166405496Y-74716204D01*
X166430000Y-74715000D01*
X167930000Y-74715000D01*
X167954504Y-74716204D01*
X167954504Y-74716204D01*
G37*
D15*
G04 #@! TO.P,J2,1*
G04 #@! TO.N,GND*
X167180000Y-75565000D03*
G04 #@! TD*
D14*
G04 #@! TO.N,GND*
G04 #@! TO.C,J5*
G36*
X167954504Y-82336204D02*
X167978773Y-82339804D01*
X168002571Y-82345765D01*
X168025671Y-82354030D01*
X168047849Y-82364520D01*
X168068893Y-82377133D01*
X168088598Y-82391747D01*
X168106777Y-82408223D01*
X168123253Y-82426402D01*
X168137867Y-82446107D01*
X168150480Y-82467151D01*
X168160970Y-82489329D01*
X168169235Y-82512429D01*
X168175196Y-82536227D01*
X168178796Y-82560496D01*
X168180000Y-82585000D01*
X168180000Y-83785000D01*
X168178796Y-83809504D01*
X168175196Y-83833773D01*
X168169235Y-83857571D01*
X168160970Y-83880671D01*
X168150480Y-83902849D01*
X168137867Y-83923893D01*
X168123253Y-83943598D01*
X168106777Y-83961777D01*
X168088598Y-83978253D01*
X168068893Y-83992867D01*
X168047849Y-84005480D01*
X168025671Y-84015970D01*
X168002571Y-84024235D01*
X167978773Y-84030196D01*
X167954504Y-84033796D01*
X167930000Y-84035000D01*
X166430000Y-84035000D01*
X166405496Y-84033796D01*
X166381227Y-84030196D01*
X166357429Y-84024235D01*
X166334329Y-84015970D01*
X166312151Y-84005480D01*
X166291107Y-83992867D01*
X166271402Y-83978253D01*
X166253223Y-83961777D01*
X166236747Y-83943598D01*
X166222133Y-83923893D01*
X166209520Y-83902849D01*
X166199030Y-83880671D01*
X166190765Y-83857571D01*
X166184804Y-83833773D01*
X166181204Y-83809504D01*
X166180000Y-83785000D01*
X166180000Y-82585000D01*
X166181204Y-82560496D01*
X166184804Y-82536227D01*
X166190765Y-82512429D01*
X166199030Y-82489329D01*
X166209520Y-82467151D01*
X166222133Y-82446107D01*
X166236747Y-82426402D01*
X166253223Y-82408223D01*
X166271402Y-82391747D01*
X166291107Y-82377133D01*
X166312151Y-82364520D01*
X166334329Y-82354030D01*
X166357429Y-82345765D01*
X166381227Y-82339804D01*
X166405496Y-82336204D01*
X166430000Y-82335000D01*
X167930000Y-82335000D01*
X167954504Y-82336204D01*
X167954504Y-82336204D01*
G37*
D15*
G04 #@! TD*
G04 #@! TO.P,J5,1*
G04 #@! TO.N,GND*
X167180000Y-83185000D03*
D16*
G04 #@! TO.P,J5,2*
G04 #@! TO.N,SOIL_3*
X167180000Y-85685000D03*
G04 #@! TD*
G04 #@! TO.P,J6,2*
G04 #@! TO.N,SOIL_4*
X167180000Y-93305000D03*
D14*
G04 #@! TD*
G04 #@! TO.N,GND*
G04 #@! TO.C,J6*
G36*
X167954504Y-89956204D02*
X167978773Y-89959804D01*
X168002571Y-89965765D01*
X168025671Y-89974030D01*
X168047849Y-89984520D01*
X168068893Y-89997133D01*
X168088598Y-90011747D01*
X168106777Y-90028223D01*
X168123253Y-90046402D01*
X168137867Y-90066107D01*
X168150480Y-90087151D01*
X168160970Y-90109329D01*
X168169235Y-90132429D01*
X168175196Y-90156227D01*
X168178796Y-90180496D01*
X168180000Y-90205000D01*
X168180000Y-91405000D01*
X168178796Y-91429504D01*
X168175196Y-91453773D01*
X168169235Y-91477571D01*
X168160970Y-91500671D01*
X168150480Y-91522849D01*
X168137867Y-91543893D01*
X168123253Y-91563598D01*
X168106777Y-91581777D01*
X168088598Y-91598253D01*
X168068893Y-91612867D01*
X168047849Y-91625480D01*
X168025671Y-91635970D01*
X168002571Y-91644235D01*
X167978773Y-91650196D01*
X167954504Y-91653796D01*
X167930000Y-91655000D01*
X166430000Y-91655000D01*
X166405496Y-91653796D01*
X166381227Y-91650196D01*
X166357429Y-91644235D01*
X166334329Y-91635970D01*
X166312151Y-91625480D01*
X166291107Y-91612867D01*
X166271402Y-91598253D01*
X166253223Y-91581777D01*
X166236747Y-91563598D01*
X166222133Y-91543893D01*
X166209520Y-91522849D01*
X166199030Y-91500671D01*
X166190765Y-91477571D01*
X166184804Y-91453773D01*
X166181204Y-91429504D01*
X166180000Y-91405000D01*
X166180000Y-90205000D01*
X166181204Y-90180496D01*
X166184804Y-90156227D01*
X166190765Y-90132429D01*
X166199030Y-90109329D01*
X166209520Y-90087151D01*
X166222133Y-90066107D01*
X166236747Y-90046402D01*
X166253223Y-90028223D01*
X166271402Y-90011747D01*
X166291107Y-89997133D01*
X166312151Y-89984520D01*
X166334329Y-89974030D01*
X166357429Y-89965765D01*
X166381227Y-89959804D01*
X166405496Y-89956204D01*
X166430000Y-89955000D01*
X167930000Y-89955000D01*
X167954504Y-89956204D01*
X167954504Y-89956204D01*
G37*
D15*
G04 #@! TO.P,J6,1*
G04 #@! TO.N,GND*
X167180000Y-90805000D03*
G04 #@! TD*
D14*
G04 #@! TO.N,GND*
G04 #@! TO.C,J7*
G36*
X167954504Y-97576204D02*
X167978773Y-97579804D01*
X168002571Y-97585765D01*
X168025671Y-97594030D01*
X168047849Y-97604520D01*
X168068893Y-97617133D01*
X168088598Y-97631747D01*
X168106777Y-97648223D01*
X168123253Y-97666402D01*
X168137867Y-97686107D01*
X168150480Y-97707151D01*
X168160970Y-97729329D01*
X168169235Y-97752429D01*
X168175196Y-97776227D01*
X168178796Y-97800496D01*
X168180000Y-97825000D01*
X168180000Y-99025000D01*
X168178796Y-99049504D01*
X168175196Y-99073773D01*
X168169235Y-99097571D01*
X168160970Y-99120671D01*
X168150480Y-99142849D01*
X168137867Y-99163893D01*
X168123253Y-99183598D01*
X168106777Y-99201777D01*
X168088598Y-99218253D01*
X168068893Y-99232867D01*
X168047849Y-99245480D01*
X168025671Y-99255970D01*
X168002571Y-99264235D01*
X167978773Y-99270196D01*
X167954504Y-99273796D01*
X167930000Y-99275000D01*
X166430000Y-99275000D01*
X166405496Y-99273796D01*
X166381227Y-99270196D01*
X166357429Y-99264235D01*
X166334329Y-99255970D01*
X166312151Y-99245480D01*
X166291107Y-99232867D01*
X166271402Y-99218253D01*
X166253223Y-99201777D01*
X166236747Y-99183598D01*
X166222133Y-99163893D01*
X166209520Y-99142849D01*
X166199030Y-99120671D01*
X166190765Y-99097571D01*
X166184804Y-99073773D01*
X166181204Y-99049504D01*
X166180000Y-99025000D01*
X166180000Y-97825000D01*
X166181204Y-97800496D01*
X166184804Y-97776227D01*
X166190765Y-97752429D01*
X166199030Y-97729329D01*
X166209520Y-97707151D01*
X166222133Y-97686107D01*
X166236747Y-97666402D01*
X166253223Y-97648223D01*
X166271402Y-97631747D01*
X166291107Y-97617133D01*
X166312151Y-97604520D01*
X166334329Y-97594030D01*
X166357429Y-97585765D01*
X166381227Y-97579804D01*
X166405496Y-97576204D01*
X166430000Y-97575000D01*
X167930000Y-97575000D01*
X167954504Y-97576204D01*
X167954504Y-97576204D01*
G37*
D15*
G04 #@! TD*
G04 #@! TO.P,J7,1*
G04 #@! TO.N,GND*
X167180000Y-98425000D03*
D16*
G04 #@! TO.P,J7,2*
G04 #@! TO.N,SOIL_5*
X167180000Y-100925000D03*
G04 #@! TD*
D14*
G04 #@! TO.N,GND*
G04 #@! TO.C,J8*
G36*
X167954504Y-105196204D02*
X167978773Y-105199804D01*
X168002571Y-105205765D01*
X168025671Y-105214030D01*
X168047849Y-105224520D01*
X168068893Y-105237133D01*
X168088598Y-105251747D01*
X168106777Y-105268223D01*
X168123253Y-105286402D01*
X168137867Y-105306107D01*
X168150480Y-105327151D01*
X168160970Y-105349329D01*
X168169235Y-105372429D01*
X168175196Y-105396227D01*
X168178796Y-105420496D01*
X168180000Y-105445000D01*
X168180000Y-106645000D01*
X168178796Y-106669504D01*
X168175196Y-106693773D01*
X168169235Y-106717571D01*
X168160970Y-106740671D01*
X168150480Y-106762849D01*
X168137867Y-106783893D01*
X168123253Y-106803598D01*
X168106777Y-106821777D01*
X168088598Y-106838253D01*
X168068893Y-106852867D01*
X168047849Y-106865480D01*
X168025671Y-106875970D01*
X168002571Y-106884235D01*
X167978773Y-106890196D01*
X167954504Y-106893796D01*
X167930000Y-106895000D01*
X166430000Y-106895000D01*
X166405496Y-106893796D01*
X166381227Y-106890196D01*
X166357429Y-106884235D01*
X166334329Y-106875970D01*
X166312151Y-106865480D01*
X166291107Y-106852867D01*
X166271402Y-106838253D01*
X166253223Y-106821777D01*
X166236747Y-106803598D01*
X166222133Y-106783893D01*
X166209520Y-106762849D01*
X166199030Y-106740671D01*
X166190765Y-106717571D01*
X166184804Y-106693773D01*
X166181204Y-106669504D01*
X166180000Y-106645000D01*
X166180000Y-105445000D01*
X166181204Y-105420496D01*
X166184804Y-105396227D01*
X166190765Y-105372429D01*
X166199030Y-105349329D01*
X166209520Y-105327151D01*
X166222133Y-105306107D01*
X166236747Y-105286402D01*
X166253223Y-105268223D01*
X166271402Y-105251747D01*
X166291107Y-105237133D01*
X166312151Y-105224520D01*
X166334329Y-105214030D01*
X166357429Y-105205765D01*
X166381227Y-105199804D01*
X166405496Y-105196204D01*
X166430000Y-105195000D01*
X167930000Y-105195000D01*
X167954504Y-105196204D01*
X167954504Y-105196204D01*
G37*
D15*
G04 #@! TD*
G04 #@! TO.P,J8,1*
G04 #@! TO.N,GND*
X167180000Y-106045000D03*
D16*
G04 #@! TO.P,J8,2*
G04 #@! TO.N,SOIL_6*
X167180000Y-108545000D03*
G04 #@! TD*
D12*
G04 #@! TO.P,J3,1*
G04 #@! TO.N,GND*
X129540000Y-95885000D03*
D13*
G04 #@! TO.P,J3,2*
G04 #@! TO.N,3V3*
X132080000Y-95885000D03*
G04 #@! TD*
D14*
G04 #@! TO.N,Net-(R13-Pad1)*
G04 #@! TO.C,R13*
G36*
X151805779Y-100871144D02*
X151828834Y-100874563D01*
X151851443Y-100880227D01*
X151873387Y-100888079D01*
X151894457Y-100898044D01*
X151914448Y-100910026D01*
X151933168Y-100923910D01*
X151950438Y-100939562D01*
X151966090Y-100956832D01*
X151979974Y-100975552D01*
X151991956Y-100995543D01*
X152001921Y-101016613D01*
X152009773Y-101038557D01*
X152015437Y-101061166D01*
X152018856Y-101084221D01*
X152020000Y-101107500D01*
X152020000Y-101582500D01*
X152018856Y-101605779D01*
X152015437Y-101628834D01*
X152009773Y-101651443D01*
X152001921Y-101673387D01*
X151991956Y-101694457D01*
X151979974Y-101714448D01*
X151966090Y-101733168D01*
X151950438Y-101750438D01*
X151933168Y-101766090D01*
X151914448Y-101779974D01*
X151894457Y-101791956D01*
X151873387Y-101801921D01*
X151851443Y-101809773D01*
X151828834Y-101815437D01*
X151805779Y-101818856D01*
X151782500Y-101820000D01*
X151207500Y-101820000D01*
X151184221Y-101818856D01*
X151161166Y-101815437D01*
X151138557Y-101809773D01*
X151116613Y-101801921D01*
X151095543Y-101791956D01*
X151075552Y-101779974D01*
X151056832Y-101766090D01*
X151039562Y-101750438D01*
X151023910Y-101733168D01*
X151010026Y-101714448D01*
X150998044Y-101694457D01*
X150988079Y-101673387D01*
X150980227Y-101651443D01*
X150974563Y-101628834D01*
X150971144Y-101605779D01*
X150970000Y-101582500D01*
X150970000Y-101107500D01*
X150971144Y-101084221D01*
X150974563Y-101061166D01*
X150980227Y-101038557D01*
X150988079Y-101016613D01*
X150998044Y-100995543D01*
X151010026Y-100975552D01*
X151023910Y-100956832D01*
X151039562Y-100939562D01*
X151056832Y-100923910D01*
X151075552Y-100910026D01*
X151095543Y-100898044D01*
X151116613Y-100888079D01*
X151138557Y-100880227D01*
X151161166Y-100874563D01*
X151184221Y-100871144D01*
X151207500Y-100870000D01*
X151782500Y-100870000D01*
X151805779Y-100871144D01*
X151805779Y-100871144D01*
G37*
D17*
G04 #@! TD*
G04 #@! TO.P,R13,1*
G04 #@! TO.N,Net-(R13-Pad1)*
X151495000Y-101345000D03*
D14*
G04 #@! TO.N,Net-(JP1-Pad2)*
G04 #@! TO.C,R13*
G36*
X153555779Y-100871144D02*
X153578834Y-100874563D01*
X153601443Y-100880227D01*
X153623387Y-100888079D01*
X153644457Y-100898044D01*
X153664448Y-100910026D01*
X153683168Y-100923910D01*
X153700438Y-100939562D01*
X153716090Y-100956832D01*
X153729974Y-100975552D01*
X153741956Y-100995543D01*
X153751921Y-101016613D01*
X153759773Y-101038557D01*
X153765437Y-101061166D01*
X153768856Y-101084221D01*
X153770000Y-101107500D01*
X153770000Y-101582500D01*
X153768856Y-101605779D01*
X153765437Y-101628834D01*
X153759773Y-101651443D01*
X153751921Y-101673387D01*
X153741956Y-101694457D01*
X153729974Y-101714448D01*
X153716090Y-101733168D01*
X153700438Y-101750438D01*
X153683168Y-101766090D01*
X153664448Y-101779974D01*
X153644457Y-101791956D01*
X153623387Y-101801921D01*
X153601443Y-101809773D01*
X153578834Y-101815437D01*
X153555779Y-101818856D01*
X153532500Y-101820000D01*
X152957500Y-101820000D01*
X152934221Y-101818856D01*
X152911166Y-101815437D01*
X152888557Y-101809773D01*
X152866613Y-101801921D01*
X152845543Y-101791956D01*
X152825552Y-101779974D01*
X152806832Y-101766090D01*
X152789562Y-101750438D01*
X152773910Y-101733168D01*
X152760026Y-101714448D01*
X152748044Y-101694457D01*
X152738079Y-101673387D01*
X152730227Y-101651443D01*
X152724563Y-101628834D01*
X152721144Y-101605779D01*
X152720000Y-101582500D01*
X152720000Y-101107500D01*
X152721144Y-101084221D01*
X152724563Y-101061166D01*
X152730227Y-101038557D01*
X152738079Y-101016613D01*
X152748044Y-100995543D01*
X152760026Y-100975552D01*
X152773910Y-100956832D01*
X152789562Y-100939562D01*
X152806832Y-100923910D01*
X152825552Y-100910026D01*
X152845543Y-100898044D01*
X152866613Y-100888079D01*
X152888557Y-100880227D01*
X152911166Y-100874563D01*
X152934221Y-100871144D01*
X152957500Y-100870000D01*
X153532500Y-100870000D01*
X153555779Y-100871144D01*
X153555779Y-100871144D01*
G37*
D17*
G04 #@! TD*
G04 #@! TO.P,R13,2*
G04 #@! TO.N,Net-(JP1-Pad2)*
X153245000Y-101345000D03*
D14*
G04 #@! TO.N,Net-(R13-Pad1)*
G04 #@! TO.C,R14*
G36*
X149805779Y-100871144D02*
X149828834Y-100874563D01*
X149851443Y-100880227D01*
X149873387Y-100888079D01*
X149894457Y-100898044D01*
X149914448Y-100910026D01*
X149933168Y-100923910D01*
X149950438Y-100939562D01*
X149966090Y-100956832D01*
X149979974Y-100975552D01*
X149991956Y-100995543D01*
X150001921Y-101016613D01*
X150009773Y-101038557D01*
X150015437Y-101061166D01*
X150018856Y-101084221D01*
X150020000Y-101107500D01*
X150020000Y-101582500D01*
X150018856Y-101605779D01*
X150015437Y-101628834D01*
X150009773Y-101651443D01*
X150001921Y-101673387D01*
X149991956Y-101694457D01*
X149979974Y-101714448D01*
X149966090Y-101733168D01*
X149950438Y-101750438D01*
X149933168Y-101766090D01*
X149914448Y-101779974D01*
X149894457Y-101791956D01*
X149873387Y-101801921D01*
X149851443Y-101809773D01*
X149828834Y-101815437D01*
X149805779Y-101818856D01*
X149782500Y-101820000D01*
X149207500Y-101820000D01*
X149184221Y-101818856D01*
X149161166Y-101815437D01*
X149138557Y-101809773D01*
X149116613Y-101801921D01*
X149095543Y-101791956D01*
X149075552Y-101779974D01*
X149056832Y-101766090D01*
X149039562Y-101750438D01*
X149023910Y-101733168D01*
X149010026Y-101714448D01*
X148998044Y-101694457D01*
X148988079Y-101673387D01*
X148980227Y-101651443D01*
X148974563Y-101628834D01*
X148971144Y-101605779D01*
X148970000Y-101582500D01*
X148970000Y-101107500D01*
X148971144Y-101084221D01*
X148974563Y-101061166D01*
X148980227Y-101038557D01*
X148988079Y-101016613D01*
X148998044Y-100995543D01*
X149010026Y-100975552D01*
X149023910Y-100956832D01*
X149039562Y-100939562D01*
X149056832Y-100923910D01*
X149075552Y-100910026D01*
X149095543Y-100898044D01*
X149116613Y-100888079D01*
X149138557Y-100880227D01*
X149161166Y-100874563D01*
X149184221Y-100871144D01*
X149207500Y-100870000D01*
X149782500Y-100870000D01*
X149805779Y-100871144D01*
X149805779Y-100871144D01*
G37*
D17*
G04 #@! TD*
G04 #@! TO.P,R14,2*
G04 #@! TO.N,Net-(R13-Pad1)*
X149495000Y-101345000D03*
D14*
G04 #@! TO.N,GND*
G04 #@! TO.C,R14*
G36*
X148055779Y-100871144D02*
X148078834Y-100874563D01*
X148101443Y-100880227D01*
X148123387Y-100888079D01*
X148144457Y-100898044D01*
X148164448Y-100910026D01*
X148183168Y-100923910D01*
X148200438Y-100939562D01*
X148216090Y-100956832D01*
X148229974Y-100975552D01*
X148241956Y-100995543D01*
X148251921Y-101016613D01*
X148259773Y-101038557D01*
X148265437Y-101061166D01*
X148268856Y-101084221D01*
X148270000Y-101107500D01*
X148270000Y-101582500D01*
X148268856Y-101605779D01*
X148265437Y-101628834D01*
X148259773Y-101651443D01*
X148251921Y-101673387D01*
X148241956Y-101694457D01*
X148229974Y-101714448D01*
X148216090Y-101733168D01*
X148200438Y-101750438D01*
X148183168Y-101766090D01*
X148164448Y-101779974D01*
X148144457Y-101791956D01*
X148123387Y-101801921D01*
X148101443Y-101809773D01*
X148078834Y-101815437D01*
X148055779Y-101818856D01*
X148032500Y-101820000D01*
X147457500Y-101820000D01*
X147434221Y-101818856D01*
X147411166Y-101815437D01*
X147388557Y-101809773D01*
X147366613Y-101801921D01*
X147345543Y-101791956D01*
X147325552Y-101779974D01*
X147306832Y-101766090D01*
X147289562Y-101750438D01*
X147273910Y-101733168D01*
X147260026Y-101714448D01*
X147248044Y-101694457D01*
X147238079Y-101673387D01*
X147230227Y-101651443D01*
X147224563Y-101628834D01*
X147221144Y-101605779D01*
X147220000Y-101582500D01*
X147220000Y-101107500D01*
X147221144Y-101084221D01*
X147224563Y-101061166D01*
X147230227Y-101038557D01*
X147238079Y-101016613D01*
X147248044Y-100995543D01*
X147260026Y-100975552D01*
X147273910Y-100956832D01*
X147289562Y-100939562D01*
X147306832Y-100923910D01*
X147325552Y-100910026D01*
X147345543Y-100898044D01*
X147366613Y-100888079D01*
X147388557Y-100880227D01*
X147411166Y-100874563D01*
X147434221Y-100871144D01*
X147457500Y-100870000D01*
X148032500Y-100870000D01*
X148055779Y-100871144D01*
X148055779Y-100871144D01*
G37*
D17*
G04 #@! TD*
G04 #@! TO.P,R14,1*
G04 #@! TO.N,GND*
X147745000Y-101345000D03*
D18*
G04 #@! TO.P,JP1,1*
G04 #@! TO.N,/DELAY_VAL*
X155620000Y-99395000D03*
D14*
G04 #@! TD*
G04 #@! TO.N,/DELAY_VAL*
G04 #@! TO.C,JP1*
G36*
X154870000Y-99895000D02*
X154870000Y-99395000D01*
X154870602Y-99395000D01*
X154870602Y-99370466D01*
X154875412Y-99321635D01*
X154884984Y-99273510D01*
X154899228Y-99226555D01*
X154918005Y-99181222D01*
X154941136Y-99137949D01*
X154968396Y-99097150D01*
X154999524Y-99059221D01*
X155034221Y-99024524D01*
X155072150Y-98993396D01*
X155112949Y-98966136D01*
X155156222Y-98943005D01*
X155201555Y-98924228D01*
X155248510Y-98909984D01*
X155296635Y-98900412D01*
X155345466Y-98895602D01*
X155370000Y-98895602D01*
X155370000Y-98895000D01*
X155870000Y-98895000D01*
X155870000Y-98895602D01*
X155894534Y-98895602D01*
X155943365Y-98900412D01*
X155991490Y-98909984D01*
X156038445Y-98924228D01*
X156083778Y-98943005D01*
X156127051Y-98966136D01*
X156167850Y-98993396D01*
X156205779Y-99024524D01*
X156240476Y-99059221D01*
X156271604Y-99097150D01*
X156298864Y-99137949D01*
X156321995Y-99181222D01*
X156340772Y-99226555D01*
X156355016Y-99273510D01*
X156364588Y-99321635D01*
X156369398Y-99370466D01*
X156369398Y-99395000D01*
X156370000Y-99395000D01*
X156370000Y-99895000D01*
X154870000Y-99895000D01*
X154870000Y-99895000D01*
G37*
D18*
G04 #@! TO.P,JP1,2*
G04 #@! TO.N,Net-(JP1-Pad2)*
X155620000Y-100695000D03*
D14*
G04 #@! TD*
G04 #@! TO.N,Net-(JP1-Pad2)*
G04 #@! TO.C,JP1*
G36*
X156369398Y-100695000D02*
X156369398Y-100719534D01*
X156364588Y-100768365D01*
X156355016Y-100816490D01*
X156340772Y-100863445D01*
X156321995Y-100908778D01*
X156298864Y-100952051D01*
X156271604Y-100992850D01*
X156240476Y-101030779D01*
X156205779Y-101065476D01*
X156167850Y-101096604D01*
X156127051Y-101123864D01*
X156083778Y-101146995D01*
X156038445Y-101165772D01*
X155991490Y-101180016D01*
X155943365Y-101189588D01*
X155894534Y-101194398D01*
X155870000Y-101194398D01*
X155870000Y-101195000D01*
X155370000Y-101195000D01*
X155370000Y-101194398D01*
X155345466Y-101194398D01*
X155296635Y-101189588D01*
X155248510Y-101180016D01*
X155201555Y-101165772D01*
X155156222Y-101146995D01*
X155112949Y-101123864D01*
X155072150Y-101096604D01*
X155034221Y-101065476D01*
X154999524Y-101030779D01*
X154968396Y-100992850D01*
X154941136Y-100952051D01*
X154918005Y-100908778D01*
X154899228Y-100863445D01*
X154884984Y-100816490D01*
X154875412Y-100768365D01*
X154870602Y-100719534D01*
X154870602Y-100695000D01*
X154870000Y-100695000D01*
X154870000Y-100195000D01*
X156370000Y-100195000D01*
X156370000Y-100695000D01*
X156369398Y-100695000D01*
X156369398Y-100695000D01*
G37*
G04 #@! TO.N,/DELAY_VAL*
G04 #@! TO.C,R16*
G36*
X144380779Y-75046144D02*
X144403834Y-75049563D01*
X144426443Y-75055227D01*
X144448387Y-75063079D01*
X144469457Y-75073044D01*
X144489448Y-75085026D01*
X144508168Y-75098910D01*
X144525438Y-75114562D01*
X144541090Y-75131832D01*
X144554974Y-75150552D01*
X144566956Y-75170543D01*
X144576921Y-75191613D01*
X144584773Y-75213557D01*
X144590437Y-75236166D01*
X144593856Y-75259221D01*
X144595000Y-75282500D01*
X144595000Y-75857500D01*
X144593856Y-75880779D01*
X144590437Y-75903834D01*
X144584773Y-75926443D01*
X144576921Y-75948387D01*
X144566956Y-75969457D01*
X144554974Y-75989448D01*
X144541090Y-76008168D01*
X144525438Y-76025438D01*
X144508168Y-76041090D01*
X144489448Y-76054974D01*
X144469457Y-76066956D01*
X144448387Y-76076921D01*
X144426443Y-76084773D01*
X144403834Y-76090437D01*
X144380779Y-76093856D01*
X144357500Y-76095000D01*
X143882500Y-76095000D01*
X143859221Y-76093856D01*
X143836166Y-76090437D01*
X143813557Y-76084773D01*
X143791613Y-76076921D01*
X143770543Y-76066956D01*
X143750552Y-76054974D01*
X143731832Y-76041090D01*
X143714562Y-76025438D01*
X143698910Y-76008168D01*
X143685026Y-75989448D01*
X143673044Y-75969457D01*
X143663079Y-75948387D01*
X143655227Y-75926443D01*
X143649563Y-75903834D01*
X143646144Y-75880779D01*
X143645000Y-75857500D01*
X143645000Y-75282500D01*
X143646144Y-75259221D01*
X143649563Y-75236166D01*
X143655227Y-75213557D01*
X143663079Y-75191613D01*
X143673044Y-75170543D01*
X143685026Y-75150552D01*
X143698910Y-75131832D01*
X143714562Y-75114562D01*
X143731832Y-75098910D01*
X143750552Y-75085026D01*
X143770543Y-75073044D01*
X143791613Y-75063079D01*
X143813557Y-75055227D01*
X143836166Y-75049563D01*
X143859221Y-75046144D01*
X143882500Y-75045000D01*
X144357500Y-75045000D01*
X144380779Y-75046144D01*
X144380779Y-75046144D01*
G37*
D17*
G04 #@! TD*
G04 #@! TO.P,R16,1*
G04 #@! TO.N,/DELAY_VAL*
X144120000Y-75570000D03*
D14*
G04 #@! TO.N,Net-(R16-Pad2)*
G04 #@! TO.C,R16*
G36*
X144380779Y-76796144D02*
X144403834Y-76799563D01*
X144426443Y-76805227D01*
X144448387Y-76813079D01*
X144469457Y-76823044D01*
X144489448Y-76835026D01*
X144508168Y-76848910D01*
X144525438Y-76864562D01*
X144541090Y-76881832D01*
X144554974Y-76900552D01*
X144566956Y-76920543D01*
X144576921Y-76941613D01*
X144584773Y-76963557D01*
X144590437Y-76986166D01*
X144593856Y-77009221D01*
X144595000Y-77032500D01*
X144595000Y-77607500D01*
X144593856Y-77630779D01*
X144590437Y-77653834D01*
X144584773Y-77676443D01*
X144576921Y-77698387D01*
X144566956Y-77719457D01*
X144554974Y-77739448D01*
X144541090Y-77758168D01*
X144525438Y-77775438D01*
X144508168Y-77791090D01*
X144489448Y-77804974D01*
X144469457Y-77816956D01*
X144448387Y-77826921D01*
X144426443Y-77834773D01*
X144403834Y-77840437D01*
X144380779Y-77843856D01*
X144357500Y-77845000D01*
X143882500Y-77845000D01*
X143859221Y-77843856D01*
X143836166Y-77840437D01*
X143813557Y-77834773D01*
X143791613Y-77826921D01*
X143770543Y-77816956D01*
X143750552Y-77804974D01*
X143731832Y-77791090D01*
X143714562Y-77775438D01*
X143698910Y-77758168D01*
X143685026Y-77739448D01*
X143673044Y-77719457D01*
X143663079Y-77698387D01*
X143655227Y-77676443D01*
X143649563Y-77653834D01*
X143646144Y-77630779D01*
X143645000Y-77607500D01*
X143645000Y-77032500D01*
X143646144Y-77009221D01*
X143649563Y-76986166D01*
X143655227Y-76963557D01*
X143663079Y-76941613D01*
X143673044Y-76920543D01*
X143685026Y-76900552D01*
X143698910Y-76881832D01*
X143714562Y-76864562D01*
X143731832Y-76848910D01*
X143750552Y-76835026D01*
X143770543Y-76823044D01*
X143791613Y-76813079D01*
X143813557Y-76805227D01*
X143836166Y-76799563D01*
X143859221Y-76796144D01*
X143882500Y-76795000D01*
X144357500Y-76795000D01*
X144380779Y-76796144D01*
X144380779Y-76796144D01*
G37*
D17*
G04 #@! TD*
G04 #@! TO.P,R16,2*
G04 #@! TO.N,Net-(R16-Pad2)*
X144120000Y-77320000D03*
D14*
G04 #@! TO.N,Net-(R18-Pad1)*
G04 #@! TO.C,R18*
G36*
X151755779Y-98471144D02*
X151778834Y-98474563D01*
X151801443Y-98480227D01*
X151823387Y-98488079D01*
X151844457Y-98498044D01*
X151864448Y-98510026D01*
X151883168Y-98523910D01*
X151900438Y-98539562D01*
X151916090Y-98556832D01*
X151929974Y-98575552D01*
X151941956Y-98595543D01*
X151951921Y-98616613D01*
X151959773Y-98638557D01*
X151965437Y-98661166D01*
X151968856Y-98684221D01*
X151970000Y-98707500D01*
X151970000Y-99182500D01*
X151968856Y-99205779D01*
X151965437Y-99228834D01*
X151959773Y-99251443D01*
X151951921Y-99273387D01*
X151941956Y-99294457D01*
X151929974Y-99314448D01*
X151916090Y-99333168D01*
X151900438Y-99350438D01*
X151883168Y-99366090D01*
X151864448Y-99379974D01*
X151844457Y-99391956D01*
X151823387Y-99401921D01*
X151801443Y-99409773D01*
X151778834Y-99415437D01*
X151755779Y-99418856D01*
X151732500Y-99420000D01*
X151157500Y-99420000D01*
X151134221Y-99418856D01*
X151111166Y-99415437D01*
X151088557Y-99409773D01*
X151066613Y-99401921D01*
X151045543Y-99391956D01*
X151025552Y-99379974D01*
X151006832Y-99366090D01*
X150989562Y-99350438D01*
X150973910Y-99333168D01*
X150960026Y-99314448D01*
X150948044Y-99294457D01*
X150938079Y-99273387D01*
X150930227Y-99251443D01*
X150924563Y-99228834D01*
X150921144Y-99205779D01*
X150920000Y-99182500D01*
X150920000Y-98707500D01*
X150921144Y-98684221D01*
X150924563Y-98661166D01*
X150930227Y-98638557D01*
X150938079Y-98616613D01*
X150948044Y-98595543D01*
X150960026Y-98575552D01*
X150973910Y-98556832D01*
X150989562Y-98539562D01*
X151006832Y-98523910D01*
X151025552Y-98510026D01*
X151045543Y-98498044D01*
X151066613Y-98488079D01*
X151088557Y-98480227D01*
X151111166Y-98474563D01*
X151134221Y-98471144D01*
X151157500Y-98470000D01*
X151732500Y-98470000D01*
X151755779Y-98471144D01*
X151755779Y-98471144D01*
G37*
D17*
G04 #@! TD*
G04 #@! TO.P,R18,1*
G04 #@! TO.N,Net-(R18-Pad1)*
X151445000Y-98945000D03*
D14*
G04 #@! TO.N,/DELAY_VAL*
G04 #@! TO.C,R18*
G36*
X153505779Y-98471144D02*
X153528834Y-98474563D01*
X153551443Y-98480227D01*
X153573387Y-98488079D01*
X153594457Y-98498044D01*
X153614448Y-98510026D01*
X153633168Y-98523910D01*
X153650438Y-98539562D01*
X153666090Y-98556832D01*
X153679974Y-98575552D01*
X153691956Y-98595543D01*
X153701921Y-98616613D01*
X153709773Y-98638557D01*
X153715437Y-98661166D01*
X153718856Y-98684221D01*
X153720000Y-98707500D01*
X153720000Y-99182500D01*
X153718856Y-99205779D01*
X153715437Y-99228834D01*
X153709773Y-99251443D01*
X153701921Y-99273387D01*
X153691956Y-99294457D01*
X153679974Y-99314448D01*
X153666090Y-99333168D01*
X153650438Y-99350438D01*
X153633168Y-99366090D01*
X153614448Y-99379974D01*
X153594457Y-99391956D01*
X153573387Y-99401921D01*
X153551443Y-99409773D01*
X153528834Y-99415437D01*
X153505779Y-99418856D01*
X153482500Y-99420000D01*
X152907500Y-99420000D01*
X152884221Y-99418856D01*
X152861166Y-99415437D01*
X152838557Y-99409773D01*
X152816613Y-99401921D01*
X152795543Y-99391956D01*
X152775552Y-99379974D01*
X152756832Y-99366090D01*
X152739562Y-99350438D01*
X152723910Y-99333168D01*
X152710026Y-99314448D01*
X152698044Y-99294457D01*
X152688079Y-99273387D01*
X152680227Y-99251443D01*
X152674563Y-99228834D01*
X152671144Y-99205779D01*
X152670000Y-99182500D01*
X152670000Y-98707500D01*
X152671144Y-98684221D01*
X152674563Y-98661166D01*
X152680227Y-98638557D01*
X152688079Y-98616613D01*
X152698044Y-98595543D01*
X152710026Y-98575552D01*
X152723910Y-98556832D01*
X152739562Y-98539562D01*
X152756832Y-98523910D01*
X152775552Y-98510026D01*
X152795543Y-98498044D01*
X152816613Y-98488079D01*
X152838557Y-98480227D01*
X152861166Y-98474563D01*
X152884221Y-98471144D01*
X152907500Y-98470000D01*
X153482500Y-98470000D01*
X153505779Y-98471144D01*
X153505779Y-98471144D01*
G37*
D17*
G04 #@! TD*
G04 #@! TO.P,R18,2*
G04 #@! TO.N,/DELAY_VAL*
X153195000Y-98945000D03*
D14*
G04 #@! TO.N,Net-(R18-Pad1)*
G04 #@! TO.C,R19*
G36*
X149705779Y-98471144D02*
X149728834Y-98474563D01*
X149751443Y-98480227D01*
X149773387Y-98488079D01*
X149794457Y-98498044D01*
X149814448Y-98510026D01*
X149833168Y-98523910D01*
X149850438Y-98539562D01*
X149866090Y-98556832D01*
X149879974Y-98575552D01*
X149891956Y-98595543D01*
X149901921Y-98616613D01*
X149909773Y-98638557D01*
X149915437Y-98661166D01*
X149918856Y-98684221D01*
X149920000Y-98707500D01*
X149920000Y-99182500D01*
X149918856Y-99205779D01*
X149915437Y-99228834D01*
X149909773Y-99251443D01*
X149901921Y-99273387D01*
X149891956Y-99294457D01*
X149879974Y-99314448D01*
X149866090Y-99333168D01*
X149850438Y-99350438D01*
X149833168Y-99366090D01*
X149814448Y-99379974D01*
X149794457Y-99391956D01*
X149773387Y-99401921D01*
X149751443Y-99409773D01*
X149728834Y-99415437D01*
X149705779Y-99418856D01*
X149682500Y-99420000D01*
X149107500Y-99420000D01*
X149084221Y-99418856D01*
X149061166Y-99415437D01*
X149038557Y-99409773D01*
X149016613Y-99401921D01*
X148995543Y-99391956D01*
X148975552Y-99379974D01*
X148956832Y-99366090D01*
X148939562Y-99350438D01*
X148923910Y-99333168D01*
X148910026Y-99314448D01*
X148898044Y-99294457D01*
X148888079Y-99273387D01*
X148880227Y-99251443D01*
X148874563Y-99228834D01*
X148871144Y-99205779D01*
X148870000Y-99182500D01*
X148870000Y-98707500D01*
X148871144Y-98684221D01*
X148874563Y-98661166D01*
X148880227Y-98638557D01*
X148888079Y-98616613D01*
X148898044Y-98595543D01*
X148910026Y-98575552D01*
X148923910Y-98556832D01*
X148939562Y-98539562D01*
X148956832Y-98523910D01*
X148975552Y-98510026D01*
X148995543Y-98498044D01*
X149016613Y-98488079D01*
X149038557Y-98480227D01*
X149061166Y-98474563D01*
X149084221Y-98471144D01*
X149107500Y-98470000D01*
X149682500Y-98470000D01*
X149705779Y-98471144D01*
X149705779Y-98471144D01*
G37*
D17*
G04 #@! TD*
G04 #@! TO.P,R19,2*
G04 #@! TO.N,Net-(R18-Pad1)*
X149395000Y-98945000D03*
D14*
G04 #@! TO.N,GND*
G04 #@! TO.C,R19*
G36*
X147955779Y-98471144D02*
X147978834Y-98474563D01*
X148001443Y-98480227D01*
X148023387Y-98488079D01*
X148044457Y-98498044D01*
X148064448Y-98510026D01*
X148083168Y-98523910D01*
X148100438Y-98539562D01*
X148116090Y-98556832D01*
X148129974Y-98575552D01*
X148141956Y-98595543D01*
X148151921Y-98616613D01*
X148159773Y-98638557D01*
X148165437Y-98661166D01*
X148168856Y-98684221D01*
X148170000Y-98707500D01*
X148170000Y-99182500D01*
X148168856Y-99205779D01*
X148165437Y-99228834D01*
X148159773Y-99251443D01*
X148151921Y-99273387D01*
X148141956Y-99294457D01*
X148129974Y-99314448D01*
X148116090Y-99333168D01*
X148100438Y-99350438D01*
X148083168Y-99366090D01*
X148064448Y-99379974D01*
X148044457Y-99391956D01*
X148023387Y-99401921D01*
X148001443Y-99409773D01*
X147978834Y-99415437D01*
X147955779Y-99418856D01*
X147932500Y-99420000D01*
X147357500Y-99420000D01*
X147334221Y-99418856D01*
X147311166Y-99415437D01*
X147288557Y-99409773D01*
X147266613Y-99401921D01*
X147245543Y-99391956D01*
X147225552Y-99379974D01*
X147206832Y-99366090D01*
X147189562Y-99350438D01*
X147173910Y-99333168D01*
X147160026Y-99314448D01*
X147148044Y-99294457D01*
X147138079Y-99273387D01*
X147130227Y-99251443D01*
X147124563Y-99228834D01*
X147121144Y-99205779D01*
X147120000Y-99182500D01*
X147120000Y-98707500D01*
X147121144Y-98684221D01*
X147124563Y-98661166D01*
X147130227Y-98638557D01*
X147138079Y-98616613D01*
X147148044Y-98595543D01*
X147160026Y-98575552D01*
X147173910Y-98556832D01*
X147189562Y-98539562D01*
X147206832Y-98523910D01*
X147225552Y-98510026D01*
X147245543Y-98498044D01*
X147266613Y-98488079D01*
X147288557Y-98480227D01*
X147311166Y-98474563D01*
X147334221Y-98471144D01*
X147357500Y-98470000D01*
X147932500Y-98470000D01*
X147955779Y-98471144D01*
X147955779Y-98471144D01*
G37*
D17*
G04 #@! TD*
G04 #@! TO.P,R19,1*
G04 #@! TO.N,GND*
X147645000Y-98945000D03*
D19*
G04 #@! TO.N,GND*
X146620000Y-98445000D03*
X144620000Y-98445000D03*
X148620000Y-82945000D03*
X145620000Y-100945000D03*
G04 #@! TO.N,3V3*
X119370000Y-101195000D03*
X156420000Y-93345000D03*
X151920000Y-93345000D03*
G04 #@! TO.N,A0*
X144020000Y-74145000D03*
G04 #@! TO.N,SOIL_1*
X149429972Y-72795000D03*
G04 #@! TO.N,SOIL_2*
X149430012Y-74035000D03*
G04 #@! TO.N,SOIL_3*
X149399986Y-75335000D03*
G04 #@! TO.N,SOIL_4*
X149430012Y-76585000D03*
G04 #@! TO.N,SOIL_5*
X147820000Y-71545000D03*
G04 #@! TO.N,SOIL_6*
X147820000Y-78345000D03*
G04 #@! TO.N,/VBAT*
X149520000Y-95870000D03*
G04 #@! TO.N,Net-(JP1-Pad2)*
X153420000Y-102945006D03*
G04 #@! TO.N,DONE*
X151220000Y-103944998D03*
X160120000Y-106944996D03*
G04 #@! TO.N,/DELAY_VAL*
X142520000Y-75645000D03*
G04 #@! TO.N,Net-(TP1-Pad1)*
X148820000Y-107445000D03*
X135520000Y-109845000D03*
G04 #@! TD*
D20*
G04 #@! TO.N,GND*
X162090000Y-83185000D02*
X167180000Y-88275000D01*
X167180000Y-88275000D02*
X167180000Y-90805000D01*
X160637630Y-83185000D02*
X162090000Y-83185000D01*
D14*
G04 #@! TO.N,3V3*
X126770000Y-101195000D02*
X119370000Y-101195000D01*
X132080000Y-95885000D02*
X126770000Y-101195000D01*
X158270000Y-101715000D02*
X160060000Y-103505000D01*
X158270000Y-95195000D02*
X158270000Y-101715000D01*
X156420000Y-93345000D02*
X158270000Y-95195000D01*
X151920000Y-93345000D02*
X137200000Y-93345000D01*
D20*
G04 #@! TO.N,A0*
X137820000Y-67945000D02*
X137200000Y-67945000D01*
X144020000Y-74145000D02*
X137820000Y-67945000D01*
G04 #@! TO.N,SOIL_1*
X160830000Y-74295000D02*
X164680000Y-70445000D01*
X150929972Y-74295000D02*
X160830000Y-74295000D01*
X164680000Y-70445000D02*
X167180000Y-70445000D01*
X149429972Y-72795000D02*
X150929972Y-74295000D01*
G04 #@! TO.N,SOIL_2*
X165350000Y-78065000D02*
X167180000Y-78065000D01*
X164120000Y-76835000D02*
X165350000Y-78065000D01*
X152230012Y-76835000D02*
X164120000Y-76835000D01*
X149430012Y-74035000D02*
X152230012Y-76835000D01*
G04 #@! TO.N,SOIL_3*
X167030000Y-85685000D02*
X167180000Y-85685000D01*
X163290000Y-81945000D02*
X167030000Y-85685000D01*
X156009986Y-81945000D02*
X163290000Y-81945000D01*
X149399986Y-75335000D02*
X156009986Y-81945000D01*
G04 #@! TO.N,SOIL_4*
X164700000Y-90975000D02*
X167030000Y-93305000D01*
X160920000Y-84545000D02*
X164700000Y-88325000D01*
X157390012Y-84545000D02*
X160920000Y-84545000D01*
X167030000Y-93305000D02*
X167180000Y-93305000D01*
X164700000Y-88325000D02*
X164700000Y-90975000D01*
X149430012Y-76585000D02*
X157390012Y-84545000D01*
G04 #@! TO.N,SOIL_5*
X167030000Y-100925000D02*
X167180000Y-100925000D01*
X164160000Y-98055000D02*
X167030000Y-100925000D01*
X164160000Y-90285000D02*
X164160000Y-98055000D01*
X147820000Y-71545000D02*
X147820000Y-76545000D01*
X147820000Y-76545000D02*
X158310000Y-87035000D01*
X160910000Y-87035000D02*
X164160000Y-90285000D01*
X158310000Y-87035000D02*
X160910000Y-87035000D01*
G04 #@! TO.N,SOIL_6*
X167030000Y-108545000D02*
X167180000Y-108545000D01*
X163490000Y-105005000D02*
X167030000Y-108545000D01*
X147820000Y-78345000D02*
X159070000Y-89595000D01*
X159070000Y-89595000D02*
X161180000Y-89595000D01*
X161180000Y-89595000D02*
X163490000Y-91905000D01*
X163490000Y-91905000D02*
X163490000Y-105005000D01*
D14*
G04 #@! TO.N,/VBAT*
X125470001Y-107594999D02*
X124818499Y-108246501D01*
X124818499Y-108246501D02*
X124120000Y-108945000D01*
X130059999Y-107594999D02*
X125470001Y-107594999D01*
X131410000Y-108945000D02*
X130059999Y-107594999D01*
X124120000Y-108945000D02*
X116500000Y-108945000D01*
X138600000Y-103505000D02*
X137200000Y-103505000D01*
X149520000Y-95870000D02*
X141425000Y-95870000D01*
X141425000Y-95870000D02*
X139830000Y-97465000D01*
X139830000Y-97465000D02*
X139830000Y-102275000D01*
X139830000Y-102275000D02*
X138600000Y-103505000D01*
D20*
G04 #@! TO.N,Net-(R13-Pad1)*
X149495000Y-101345000D02*
X151495000Y-101345000D01*
G04 #@! TO.N,Net-(JP1-Pad2)*
X124120000Y-103865000D02*
X116500000Y-103865000D01*
X152854315Y-102945006D02*
X153420000Y-102945006D01*
X124120000Y-103865000D02*
X125670000Y-105415000D01*
X125670000Y-105415000D02*
X147150000Y-105415000D01*
X149619994Y-102945006D02*
X152854315Y-102945006D01*
X147150000Y-105415000D02*
X149619994Y-102945006D01*
X153420000Y-101520000D02*
X153245000Y-101345000D01*
X153420000Y-102945006D02*
X153420000Y-101520000D01*
G04 #@! TO.N,DONE*
X151220000Y-103944998D02*
X154219998Y-106944996D01*
X154219998Y-106944996D02*
X159554315Y-106944996D01*
X159554315Y-106944996D02*
X160120000Y-106944996D01*
G04 #@! TO.N,/DELAY_VAL*
X142595000Y-75570000D02*
X142520000Y-75645000D01*
X144120000Y-75570000D02*
X142595000Y-75570000D01*
X155620000Y-97395000D02*
X155620000Y-99395000D01*
X142520000Y-75645000D02*
X142520000Y-79579315D01*
X142520000Y-79579315D02*
X153820000Y-90879315D01*
X153820000Y-90879315D02*
X153820000Y-95595000D01*
X153820000Y-95595000D02*
X155620000Y-97395000D01*
X153495000Y-99245000D02*
X155470000Y-99245000D01*
X155470000Y-99245000D02*
X155620000Y-99395000D01*
X153195000Y-98945000D02*
X153495000Y-99245000D01*
G04 #@! TO.N,Net-(JP1-Pad2)*
X154970000Y-101345000D02*
X155620000Y-100695000D01*
X153245000Y-101345000D02*
X154970000Y-101345000D01*
G04 #@! TO.N,Net-(R16-Pad2)*
X160060000Y-73025000D02*
X151600000Y-73025000D01*
X151600000Y-73025000D02*
X148820000Y-70245000D01*
X148820000Y-70245000D02*
X147120000Y-70245000D01*
X147120000Y-70245000D02*
X145920000Y-71445000D01*
X145920000Y-75520000D02*
X144120000Y-77320000D01*
X145920000Y-71445000D02*
X145920000Y-75520000D01*
G04 #@! TO.N,Net-(R18-Pad1)*
X149395000Y-98945000D02*
X151445000Y-98945000D01*
G04 #@! TO.N,Net-(TP1-Pad1)*
X146420000Y-109845000D02*
X135520000Y-109845000D01*
X148820000Y-107445000D02*
X146420000Y-109845000D01*
G04 #@! TD*
D21*
G04 #@! TO.N,GND*
G36*
X138725655Y-65689926D02*
X138815225Y-65749774D01*
X138875074Y-65839345D01*
X138923642Y-66083513D01*
X138999762Y-66466196D01*
X139007827Y-66485666D01*
X139105776Y-66722138D01*
X139322549Y-67046561D01*
X139322550Y-67046562D01*
X139518438Y-67242451D01*
X139842862Y-67459223D01*
X139934747Y-67497283D01*
X140098804Y-67565238D01*
X140481486Y-67641358D01*
X140481491Y-67641358D01*
X140550074Y-67655000D01*
X156689926Y-67655000D01*
X156758509Y-67641358D01*
X156758513Y-67641358D01*
X157141196Y-67565238D01*
X157241895Y-67523527D01*
X157397138Y-67459224D01*
X157721561Y-67242451D01*
X157810349Y-67153663D01*
X157917451Y-67046562D01*
X158134223Y-66722138D01*
X158203030Y-66556024D01*
X158240238Y-66466196D01*
X158316358Y-66083514D01*
X158316358Y-66083513D01*
X158364926Y-65839345D01*
X158424774Y-65749775D01*
X158514345Y-65689926D01*
X158689930Y-65655000D01*
X165588382Y-65655000D01*
X166379192Y-65725578D01*
X167114389Y-65926705D01*
X167802351Y-66254846D01*
X168087854Y-66460000D01*
X167465750Y-66460000D01*
X167307000Y-66618750D01*
X167307000Y-67818000D01*
X168656250Y-67818000D01*
X168815000Y-67659250D01*
X168815000Y-67105862D01*
X168951761Y-67246988D01*
X169376884Y-67879639D01*
X169683251Y-68577561D01*
X169862499Y-69324183D01*
X169910000Y-69971030D01*
X169910001Y-106913370D01*
X169839422Y-107704193D01*
X169638295Y-108439389D01*
X169310152Y-109127355D01*
X168865374Y-109746328D01*
X168318012Y-110276761D01*
X167685362Y-110701883D01*
X166987439Y-111008251D01*
X166240819Y-111187499D01*
X165593970Y-111235000D01*
X159162032Y-111235000D01*
X159134223Y-111167862D01*
X158917451Y-110843438D01*
X158721562Y-110647550D01*
X158721561Y-110647549D01*
X158397138Y-110430776D01*
X158213368Y-110354657D01*
X158141196Y-110324762D01*
X157758513Y-110248642D01*
X157758509Y-110248642D01*
X157689926Y-110235000D01*
X147104801Y-110235000D01*
X148859802Y-108480000D01*
X149025874Y-108480000D01*
X149406280Y-108322431D01*
X149697431Y-108031280D01*
X149855000Y-107650874D01*
X149855000Y-107239126D01*
X149697431Y-106858720D01*
X149406280Y-106567569D01*
X149025874Y-106410000D01*
X148614126Y-106410000D01*
X148233720Y-106567569D01*
X147942569Y-106858720D01*
X147785000Y-107239126D01*
X147785000Y-107405198D01*
X146105199Y-109085000D01*
X136223711Y-109085000D01*
X136106280Y-108967569D01*
X135725874Y-108810000D01*
X135314126Y-108810000D01*
X134933720Y-108967569D01*
X134642569Y-109258720D01*
X134485000Y-109639126D01*
X134485000Y-110050874D01*
X134642569Y-110431280D01*
X134933720Y-110722431D01*
X135314126Y-110880000D01*
X135725874Y-110880000D01*
X136106280Y-110722431D01*
X136223711Y-110605000D01*
X138582117Y-110605000D01*
X138518438Y-110647549D01*
X138411376Y-110754612D01*
X138322549Y-110843439D01*
X138105776Y-111167862D01*
X138077967Y-111235000D01*
X119651618Y-111235000D01*
X118860807Y-111164422D01*
X118125611Y-110963295D01*
X117437645Y-110635152D01*
X116876933Y-110232239D01*
X117255367Y-110075487D01*
X117500854Y-109830000D01*
X123119146Y-109830000D01*
X123364633Y-110075487D01*
X123854750Y-110278500D01*
X124385250Y-110278500D01*
X124875367Y-110075487D01*
X125250487Y-109700367D01*
X125453500Y-109210250D01*
X125453500Y-108863079D01*
X125505923Y-108810656D01*
X125505925Y-108810653D01*
X125836580Y-108479999D01*
X127372560Y-108479999D01*
X127372560Y-109795000D01*
X127421843Y-110042765D01*
X127562191Y-110252809D01*
X127772235Y-110393157D01*
X128020000Y-110442440D01*
X129720000Y-110442440D01*
X129967765Y-110393157D01*
X130177809Y-110252809D01*
X130318157Y-110042765D01*
X130327184Y-109997381D01*
X130339375Y-110015625D01*
X130830582Y-110343839D01*
X131263744Y-110430000D01*
X131556256Y-110430000D01*
X131989418Y-110343839D01*
X132480625Y-110015625D01*
X132808839Y-109524418D01*
X132924092Y-108945000D01*
X132808839Y-108365582D01*
X132480625Y-107874375D01*
X131989418Y-107546161D01*
X131556256Y-107460000D01*
X131263744Y-107460000D01*
X131191040Y-107474462D01*
X130747424Y-107030846D01*
X130698048Y-106956950D01*
X130405309Y-106761347D01*
X130147164Y-106709999D01*
X130147160Y-106709999D01*
X130059999Y-106692662D01*
X129972838Y-106709999D01*
X125557162Y-106709999D01*
X125470001Y-106692662D01*
X125382840Y-106709999D01*
X125382836Y-106709999D01*
X125143272Y-106757651D01*
X125124691Y-106761347D01*
X124905846Y-106907575D01*
X124905845Y-106907576D01*
X124831952Y-106956950D01*
X124782578Y-107030843D01*
X124254347Y-107559075D01*
X124254344Y-107559077D01*
X124201921Y-107611500D01*
X123854750Y-107611500D01*
X123364633Y-107814513D01*
X123119146Y-108060000D01*
X117500854Y-108060000D01*
X117255367Y-107814513D01*
X116765250Y-107611500D01*
X116234750Y-107611500D01*
X115744633Y-107814513D01*
X115496725Y-108062421D01*
X115377501Y-107565819D01*
X115330000Y-106918970D01*
X115330000Y-104524974D01*
X115369513Y-104620367D01*
X115744633Y-104995487D01*
X116234750Y-105198500D01*
X116765250Y-105198500D01*
X117255367Y-104995487D01*
X117625854Y-104625000D01*
X122994146Y-104625000D01*
X123364633Y-104995487D01*
X123854750Y-105198500D01*
X124378698Y-105198500D01*
X125079671Y-105899473D01*
X125122071Y-105962929D01*
X125373463Y-106130904D01*
X125595148Y-106175000D01*
X125595152Y-106175000D01*
X125669999Y-106189888D01*
X125744846Y-106175000D01*
X147075153Y-106175000D01*
X147150000Y-106189888D01*
X147224847Y-106175000D01*
X147224852Y-106175000D01*
X147446537Y-106130904D01*
X147697929Y-105962929D01*
X147740331Y-105899470D01*
X149934796Y-103705006D01*
X150199132Y-103705006D01*
X150185000Y-103739124D01*
X150185000Y-104150872D01*
X150342569Y-104531278D01*
X150633720Y-104822429D01*
X151014126Y-104979998D01*
X151180199Y-104979998D01*
X153629669Y-107429469D01*
X153672069Y-107492925D01*
X153923461Y-107660900D01*
X154145146Y-107704996D01*
X154145151Y-107704996D01*
X154219998Y-107719884D01*
X154294845Y-107704996D01*
X159416289Y-107704996D01*
X159533720Y-107822427D01*
X159914126Y-107979996D01*
X160325874Y-107979996D01*
X160706280Y-107822427D01*
X160997431Y-107531276D01*
X161155000Y-107150870D01*
X161155000Y-106739122D01*
X160997431Y-106358716D01*
X160706280Y-106067565D01*
X160325874Y-105909996D01*
X159914126Y-105909996D01*
X159533720Y-106067565D01*
X159416289Y-106184996D01*
X154534800Y-106184996D01*
X152255000Y-103905197D01*
X152255000Y-103739124D01*
X152240868Y-103705006D01*
X152716289Y-103705006D01*
X152833720Y-103822437D01*
X153214126Y-103980006D01*
X153625874Y-103980006D01*
X154006280Y-103822437D01*
X154297431Y-103531286D01*
X154455000Y-103150880D01*
X154455000Y-102739132D01*
X154297431Y-102358726D01*
X154180000Y-102241295D01*
X154180000Y-102175691D01*
X154227235Y-102105000D01*
X154895153Y-102105000D01*
X154970000Y-102119888D01*
X155044847Y-102105000D01*
X155044852Y-102105000D01*
X155266537Y-102060904D01*
X155517929Y-101892929D01*
X155551665Y-101842440D01*
X155870000Y-101842440D01*
X155882106Y-101840032D01*
X155919009Y-101840032D01*
X156045318Y-101827592D01*
X156141451Y-101808470D01*
X156262904Y-101771628D01*
X156353460Y-101734119D01*
X156465397Y-101674287D01*
X156546896Y-101619831D01*
X156645006Y-101539314D01*
X156714314Y-101470006D01*
X156794831Y-101371896D01*
X156849287Y-101290397D01*
X156909119Y-101178460D01*
X156946628Y-101087904D01*
X156983470Y-100966451D01*
X157002592Y-100870318D01*
X157015032Y-100744009D01*
X157015032Y-100707106D01*
X157017440Y-100695000D01*
X157017440Y-100195000D01*
X156987603Y-100045000D01*
X157017440Y-99895000D01*
X157017440Y-99395000D01*
X157015032Y-99382894D01*
X157015032Y-99345991D01*
X157002592Y-99219682D01*
X156983470Y-99123549D01*
X156946628Y-99002096D01*
X156909119Y-98911540D01*
X156849287Y-98799603D01*
X156794831Y-98718104D01*
X156714314Y-98619994D01*
X156645006Y-98550686D01*
X156546896Y-98470169D01*
X156465397Y-98415713D01*
X156380000Y-98370067D01*
X156380000Y-97469846D01*
X156394888Y-97394999D01*
X156380000Y-97320152D01*
X156380000Y-97320148D01*
X156335904Y-97098463D01*
X156240463Y-96955625D01*
X156210329Y-96910526D01*
X156210327Y-96910524D01*
X156167929Y-96847071D01*
X156104476Y-96804673D01*
X154580000Y-95280199D01*
X154580000Y-90954161D01*
X154594888Y-90879314D01*
X154580000Y-90804467D01*
X154580000Y-90804463D01*
X154535904Y-90582778D01*
X154367929Y-90331386D01*
X154304473Y-90288986D01*
X143280000Y-79264514D01*
X143280000Y-78248780D01*
X143543848Y-78425078D01*
X143882500Y-78492440D01*
X144357500Y-78492440D01*
X144696152Y-78425078D01*
X144983247Y-78233247D01*
X145175078Y-77946152D01*
X145242440Y-77607500D01*
X145242440Y-77272362D01*
X146404476Y-76110327D01*
X146467929Y-76067929D01*
X146510327Y-76004476D01*
X146510329Y-76004474D01*
X146612961Y-75850874D01*
X146635904Y-75816537D01*
X146680000Y-75594852D01*
X146680000Y-75594848D01*
X146694888Y-75520001D01*
X146680000Y-75445154D01*
X146680000Y-71759801D01*
X146785000Y-71654801D01*
X146785000Y-71750874D01*
X146942569Y-72131280D01*
X147060000Y-72248711D01*
X147060001Y-76470148D01*
X147045112Y-76545000D01*
X147060001Y-76619852D01*
X147104097Y-76841537D01*
X147272072Y-77092929D01*
X147335528Y-77135329D01*
X147540638Y-77340439D01*
X147233720Y-77467569D01*
X146942569Y-77758720D01*
X146785000Y-78139126D01*
X146785000Y-78550874D01*
X146942569Y-78931280D01*
X147233720Y-79222431D01*
X147614126Y-79380000D01*
X147780199Y-79380000D01*
X158479670Y-90079472D01*
X158522071Y-90142929D01*
X158757090Y-90299964D01*
X158663000Y-90527119D01*
X158663000Y-91082881D01*
X158875680Y-91596337D01*
X159268663Y-91989320D01*
X159475513Y-92075000D01*
X159268663Y-92160680D01*
X158875680Y-92553663D01*
X158663000Y-93067119D01*
X158663000Y-93622881D01*
X158875680Y-94136337D01*
X159268663Y-94529320D01*
X159475513Y-94615000D01*
X159268663Y-94700680D01*
X159106307Y-94863036D01*
X159103652Y-94849690D01*
X158908049Y-94556951D01*
X158834156Y-94507577D01*
X157447431Y-93120853D01*
X157297431Y-92758720D01*
X157006280Y-92467569D01*
X156625874Y-92310000D01*
X156214126Y-92310000D01*
X155833720Y-92467569D01*
X155542569Y-92758720D01*
X155385000Y-93139126D01*
X155385000Y-93550874D01*
X155542569Y-93931280D01*
X155833720Y-94222431D01*
X156195853Y-94372431D01*
X157385000Y-95561579D01*
X157385001Y-101627835D01*
X157367663Y-101715000D01*
X157436348Y-102060309D01*
X157582576Y-102279154D01*
X157582578Y-102279156D01*
X157631952Y-102353049D01*
X157705845Y-102402423D01*
X158663000Y-103359579D01*
X158663000Y-103782881D01*
X158875680Y-104296337D01*
X159268663Y-104689320D01*
X159782119Y-104902000D01*
X160337881Y-104902000D01*
X160851337Y-104689320D01*
X161244320Y-104296337D01*
X161457000Y-103782881D01*
X161457000Y-103227119D01*
X161244320Y-102713663D01*
X160851337Y-102320680D01*
X160660353Y-102241572D01*
X160791143Y-102187397D01*
X160860608Y-101945213D01*
X160060000Y-101144605D01*
X160045858Y-101158748D01*
X159866253Y-100979143D01*
X159880395Y-100965000D01*
X160239605Y-100965000D01*
X161040213Y-101765608D01*
X161282397Y-101696143D01*
X161469144Y-101172698D01*
X161441362Y-100617632D01*
X161282397Y-100233857D01*
X161040213Y-100164392D01*
X160239605Y-100965000D01*
X159880395Y-100965000D01*
X159866253Y-100950858D01*
X160045858Y-100771253D01*
X160060000Y-100785395D01*
X160860608Y-99984787D01*
X160791143Y-99742603D01*
X160650607Y-99692465D01*
X160851337Y-99609320D01*
X161244320Y-99216337D01*
X161457000Y-98702881D01*
X161457000Y-98147119D01*
X161244320Y-97633663D01*
X160851337Y-97240680D01*
X160644487Y-97155000D01*
X160851337Y-97069320D01*
X161244320Y-96676337D01*
X161457000Y-96162881D01*
X161457000Y-95607119D01*
X161244320Y-95093663D01*
X160851337Y-94700680D01*
X160644487Y-94615000D01*
X160851337Y-94529320D01*
X161244320Y-94136337D01*
X161457000Y-93622881D01*
X161457000Y-93067119D01*
X161244320Y-92553663D01*
X160851337Y-92160680D01*
X160644487Y-92075000D01*
X160851337Y-91989320D01*
X161244320Y-91596337D01*
X161457000Y-91082881D01*
X161457000Y-90946802D01*
X162730000Y-92219803D01*
X162730001Y-104930148D01*
X162715112Y-105005000D01*
X162774097Y-105301537D01*
X162849911Y-105415000D01*
X162942072Y-105552929D01*
X163005528Y-105595329D01*
X165588791Y-108178592D01*
X165515908Y-108545000D01*
X165631161Y-109124418D01*
X165959375Y-109615625D01*
X166450582Y-109943839D01*
X166883744Y-110030000D01*
X167476256Y-110030000D01*
X167909418Y-109943839D01*
X168400625Y-109615625D01*
X168728839Y-109124418D01*
X168844092Y-108545000D01*
X168728839Y-107965582D01*
X168409291Y-107487344D01*
X168539699Y-107433327D01*
X168718327Y-107254698D01*
X168815000Y-107021309D01*
X168815000Y-106330750D01*
X168656250Y-106172000D01*
X167307000Y-106172000D01*
X167307000Y-106192000D01*
X167053000Y-106192000D01*
X167053000Y-106172000D01*
X167033000Y-106172000D01*
X167033000Y-105918000D01*
X167053000Y-105918000D01*
X167053000Y-104718750D01*
X167307000Y-104718750D01*
X167307000Y-105918000D01*
X168656250Y-105918000D01*
X168815000Y-105759250D01*
X168815000Y-105068691D01*
X168718327Y-104835302D01*
X168539699Y-104656673D01*
X168306310Y-104560000D01*
X167465750Y-104560000D01*
X167307000Y-104718750D01*
X167053000Y-104718750D01*
X166894250Y-104560000D01*
X166053690Y-104560000D01*
X165820301Y-104656673D01*
X165641673Y-104835302D01*
X165545000Y-105068691D01*
X165545000Y-105759250D01*
X165703748Y-105917998D01*
X165545000Y-105917998D01*
X165545000Y-105985199D01*
X164250000Y-104690199D01*
X164250000Y-99219801D01*
X165588791Y-100558592D01*
X165515908Y-100925000D01*
X165631161Y-101504418D01*
X165959375Y-101995625D01*
X166450582Y-102323839D01*
X166883744Y-102410000D01*
X167476256Y-102410000D01*
X167909418Y-102323839D01*
X168400625Y-101995625D01*
X168728839Y-101504418D01*
X168844092Y-100925000D01*
X168728839Y-100345582D01*
X168409291Y-99867344D01*
X168539699Y-99813327D01*
X168718327Y-99634698D01*
X168815000Y-99401309D01*
X168815000Y-98710750D01*
X168656250Y-98552000D01*
X167307000Y-98552000D01*
X167307000Y-98572000D01*
X167053000Y-98572000D01*
X167053000Y-98552000D01*
X167033000Y-98552000D01*
X167033000Y-98298000D01*
X167053000Y-98298000D01*
X167053000Y-97098750D01*
X167307000Y-97098750D01*
X167307000Y-98298000D01*
X168656250Y-98298000D01*
X168815000Y-98139250D01*
X168815000Y-97448691D01*
X168718327Y-97215302D01*
X168539699Y-97036673D01*
X168306310Y-96940000D01*
X167465750Y-96940000D01*
X167307000Y-97098750D01*
X167053000Y-97098750D01*
X166894250Y-96940000D01*
X166053690Y-96940000D01*
X165820301Y-97036673D01*
X165641673Y-97215302D01*
X165545000Y-97448691D01*
X165545000Y-98139250D01*
X165703748Y-98297998D01*
X165545000Y-98297998D01*
X165545000Y-98365199D01*
X164920000Y-97740199D01*
X164920000Y-92269801D01*
X165588791Y-92938592D01*
X165515908Y-93305000D01*
X165631161Y-93884418D01*
X165959375Y-94375625D01*
X166450582Y-94703839D01*
X166883744Y-94790000D01*
X167476256Y-94790000D01*
X167909418Y-94703839D01*
X168400625Y-94375625D01*
X168728839Y-93884418D01*
X168844092Y-93305000D01*
X168728839Y-92725582D01*
X168409291Y-92247344D01*
X168539699Y-92193327D01*
X168718327Y-92014698D01*
X168815000Y-91781309D01*
X168815000Y-91090750D01*
X168656250Y-90932000D01*
X167307000Y-90932000D01*
X167307000Y-90952000D01*
X167053000Y-90952000D01*
X167053000Y-90932000D01*
X167033000Y-90932000D01*
X167033000Y-90678000D01*
X167053000Y-90678000D01*
X167053000Y-89478750D01*
X167307000Y-89478750D01*
X167307000Y-90678000D01*
X168656250Y-90678000D01*
X168815000Y-90519250D01*
X168815000Y-89828691D01*
X168718327Y-89595302D01*
X168539699Y-89416673D01*
X168306310Y-89320000D01*
X167465750Y-89320000D01*
X167307000Y-89478750D01*
X167053000Y-89478750D01*
X166894250Y-89320000D01*
X166053690Y-89320000D01*
X165820301Y-89416673D01*
X165641673Y-89595302D01*
X165545000Y-89828691D01*
X165545000Y-90519250D01*
X165703748Y-90677998D01*
X165545000Y-90677998D01*
X165545000Y-90745199D01*
X165460000Y-90660199D01*
X165460000Y-88399846D01*
X165474888Y-88324999D01*
X165460000Y-88250152D01*
X165460000Y-88250148D01*
X165415904Y-88028463D01*
X165247929Y-87777071D01*
X165184473Y-87734671D01*
X161510331Y-84060530D01*
X161467929Y-83997071D01*
X161294797Y-83881387D01*
X161469144Y-83392698D01*
X161441362Y-82837632D01*
X161386424Y-82705000D01*
X162975199Y-82705000D01*
X165588791Y-85318592D01*
X165515908Y-85685000D01*
X165631161Y-86264418D01*
X165959375Y-86755625D01*
X166450582Y-87083839D01*
X166883744Y-87170000D01*
X167476256Y-87170000D01*
X167909418Y-87083839D01*
X168400625Y-86755625D01*
X168728839Y-86264418D01*
X168844092Y-85685000D01*
X168728839Y-85105582D01*
X168409291Y-84627344D01*
X168539699Y-84573327D01*
X168718327Y-84394698D01*
X168815000Y-84161309D01*
X168815000Y-83470750D01*
X168656250Y-83312000D01*
X167307000Y-83312000D01*
X167307000Y-83332000D01*
X167053000Y-83332000D01*
X167053000Y-83312000D01*
X167033000Y-83312000D01*
X167033000Y-83058000D01*
X167053000Y-83058000D01*
X167053000Y-81858750D01*
X167307000Y-81858750D01*
X167307000Y-83058000D01*
X168656250Y-83058000D01*
X168815000Y-82899250D01*
X168815000Y-82208691D01*
X168718327Y-81975302D01*
X168539699Y-81796673D01*
X168306310Y-81700000D01*
X167465750Y-81700000D01*
X167307000Y-81858750D01*
X167053000Y-81858750D01*
X166894250Y-81700000D01*
X166053690Y-81700000D01*
X165820301Y-81796673D01*
X165641673Y-81975302D01*
X165545000Y-82208691D01*
X165545000Y-82899250D01*
X165703748Y-83057998D01*
X165545000Y-83057998D01*
X165545000Y-83125198D01*
X163880331Y-81460530D01*
X163837929Y-81397071D01*
X163586537Y-81229096D01*
X163364852Y-81185000D01*
X163364847Y-81185000D01*
X163290000Y-81170112D01*
X163215153Y-81185000D01*
X161348427Y-81185000D01*
X161457000Y-80922881D01*
X161457000Y-80367119D01*
X161244320Y-79853663D01*
X160851337Y-79460680D01*
X160644487Y-79375000D01*
X160851337Y-79289320D01*
X161244320Y-78896337D01*
X161457000Y-78382881D01*
X161457000Y-77827119D01*
X161360853Y-77595000D01*
X163805199Y-77595000D01*
X164759671Y-78549473D01*
X164802071Y-78612929D01*
X164865527Y-78655329D01*
X165053462Y-78780904D01*
X165101605Y-78790480D01*
X165275148Y-78825000D01*
X165275152Y-78825000D01*
X165350000Y-78839888D01*
X165424848Y-78825000D01*
X165751822Y-78825000D01*
X165959375Y-79135625D01*
X166450582Y-79463839D01*
X166883744Y-79550000D01*
X167476256Y-79550000D01*
X167909418Y-79463839D01*
X168400625Y-79135625D01*
X168728839Y-78644418D01*
X168844092Y-78065000D01*
X168728839Y-77485582D01*
X168409291Y-77007344D01*
X168539699Y-76953327D01*
X168718327Y-76774698D01*
X168815000Y-76541309D01*
X168815000Y-75850750D01*
X168656250Y-75692000D01*
X167307000Y-75692000D01*
X167307000Y-75712000D01*
X167053000Y-75712000D01*
X167053000Y-75692000D01*
X165703750Y-75692000D01*
X165545000Y-75850750D01*
X165545000Y-76541309D01*
X165641673Y-76774698D01*
X165820301Y-76953327D01*
X165950709Y-77007344D01*
X165751822Y-77305000D01*
X165664802Y-77305000D01*
X164710331Y-76350530D01*
X164667929Y-76287071D01*
X164416537Y-76119096D01*
X164194852Y-76075000D01*
X164194847Y-76075000D01*
X164120000Y-76060112D01*
X164045153Y-76075000D01*
X161360853Y-76075000D01*
X161457000Y-75842881D01*
X161457000Y-75287119D01*
X161295754Y-74897836D01*
X161377929Y-74842929D01*
X161420331Y-74779470D01*
X161611110Y-74588691D01*
X165545000Y-74588691D01*
X165545000Y-75279250D01*
X165703750Y-75438000D01*
X167053000Y-75438000D01*
X167053000Y-74238750D01*
X167307000Y-74238750D01*
X167307000Y-75438000D01*
X168656250Y-75438000D01*
X168815000Y-75279250D01*
X168815000Y-74588691D01*
X168718327Y-74355302D01*
X168539699Y-74176673D01*
X168306310Y-74080000D01*
X167465750Y-74080000D01*
X167307000Y-74238750D01*
X167053000Y-74238750D01*
X166894250Y-74080000D01*
X166053690Y-74080000D01*
X165820301Y-74176673D01*
X165641673Y-74355302D01*
X165545000Y-74588691D01*
X161611110Y-74588691D01*
X164994802Y-71205000D01*
X165751822Y-71205000D01*
X165959375Y-71515625D01*
X166450582Y-71843839D01*
X166883744Y-71930000D01*
X167476256Y-71930000D01*
X167909418Y-71843839D01*
X168400625Y-71515625D01*
X168728839Y-71024418D01*
X168844092Y-70445000D01*
X168728839Y-69865582D01*
X168409291Y-69387344D01*
X168539699Y-69333327D01*
X168718327Y-69154698D01*
X168815000Y-68921309D01*
X168815000Y-68230750D01*
X168656250Y-68072000D01*
X167307000Y-68072000D01*
X167307000Y-68092000D01*
X167053000Y-68092000D01*
X167053000Y-68072000D01*
X165703750Y-68072000D01*
X165545000Y-68230750D01*
X165545000Y-68921309D01*
X165641673Y-69154698D01*
X165820301Y-69333327D01*
X165950709Y-69387344D01*
X165751822Y-69685000D01*
X164754846Y-69685000D01*
X164679999Y-69670112D01*
X164605152Y-69685000D01*
X164605148Y-69685000D01*
X164383463Y-69729096D01*
X164132071Y-69897071D01*
X164089671Y-69960527D01*
X161411918Y-72638281D01*
X161244320Y-72233663D01*
X160851337Y-71840680D01*
X160644487Y-71755000D01*
X160851337Y-71669320D01*
X161244320Y-71276337D01*
X161457000Y-70762881D01*
X161457000Y-70207119D01*
X161244320Y-69693663D01*
X160851337Y-69300680D01*
X160644487Y-69215000D01*
X160851337Y-69129320D01*
X161244320Y-68736337D01*
X161457000Y-68222881D01*
X161457000Y-67667119D01*
X161244320Y-67153663D01*
X161059348Y-66968691D01*
X165545000Y-66968691D01*
X165545000Y-67659250D01*
X165703750Y-67818000D01*
X167053000Y-67818000D01*
X167053000Y-66618750D01*
X166894250Y-66460000D01*
X166053690Y-66460000D01*
X165820301Y-66556673D01*
X165641673Y-66735302D01*
X165545000Y-66968691D01*
X161059348Y-66968691D01*
X160851337Y-66760680D01*
X160337881Y-66548000D01*
X159782119Y-66548000D01*
X159268663Y-66760680D01*
X158875680Y-67153663D01*
X158663000Y-67667119D01*
X158663000Y-68222881D01*
X158875680Y-68736337D01*
X159268663Y-69129320D01*
X159475513Y-69215000D01*
X159268663Y-69300680D01*
X158875680Y-69693663D01*
X158663000Y-70207119D01*
X158663000Y-70762881D01*
X158875680Y-71276337D01*
X159268663Y-71669320D01*
X159475513Y-71755000D01*
X159268663Y-71840680D01*
X158875680Y-72233663D01*
X158862700Y-72265000D01*
X151914802Y-72265000D01*
X149410331Y-69760530D01*
X149367929Y-69697071D01*
X149116537Y-69529096D01*
X148894852Y-69485000D01*
X148894847Y-69485000D01*
X148820000Y-69470112D01*
X148745153Y-69485000D01*
X147194846Y-69485000D01*
X147119999Y-69470112D01*
X147045152Y-69485000D01*
X147045148Y-69485000D01*
X146823463Y-69529096D01*
X146572071Y-69697071D01*
X146529671Y-69760527D01*
X145435530Y-70854669D01*
X145372071Y-70897071D01*
X145204096Y-71148464D01*
X145160000Y-71370149D01*
X145160000Y-71370153D01*
X145145112Y-71445000D01*
X145160000Y-71519847D01*
X145160001Y-74921283D01*
X144983247Y-74656753D01*
X144940212Y-74627998D01*
X145055000Y-74350874D01*
X145055000Y-73939126D01*
X144897431Y-73558720D01*
X144606280Y-73267569D01*
X144225874Y-73110000D01*
X144059802Y-73110000D01*
X138582914Y-67633113D01*
X138384320Y-67153663D01*
X137991337Y-66760680D01*
X137477881Y-66548000D01*
X136922119Y-66548000D01*
X136408663Y-66760680D01*
X136015680Y-67153663D01*
X135803000Y-67667119D01*
X135803000Y-68222881D01*
X136015680Y-68736337D01*
X136408663Y-69129320D01*
X136615513Y-69215000D01*
X136408663Y-69300680D01*
X136015680Y-69693663D01*
X135803000Y-70207119D01*
X135803000Y-70762881D01*
X136015680Y-71276337D01*
X136408663Y-71669320D01*
X136615513Y-71755000D01*
X136408663Y-71840680D01*
X136015680Y-72233663D01*
X135803000Y-72747119D01*
X135803000Y-73302881D01*
X136015680Y-73816337D01*
X136408663Y-74209320D01*
X136615513Y-74295000D01*
X136408663Y-74380680D01*
X136015680Y-74773663D01*
X135803000Y-75287119D01*
X135803000Y-75842881D01*
X136015680Y-76356337D01*
X136408663Y-76749320D01*
X136615513Y-76835000D01*
X136408663Y-76920680D01*
X136015680Y-77313663D01*
X135803000Y-77827119D01*
X135803000Y-78382881D01*
X136015680Y-78896337D01*
X136408663Y-79289320D01*
X136615513Y-79375000D01*
X136408663Y-79460680D01*
X136015680Y-79853663D01*
X135803000Y-80367119D01*
X135803000Y-80922881D01*
X136015680Y-81436337D01*
X136408663Y-81829320D01*
X136615513Y-81915000D01*
X136408663Y-82000680D01*
X136015680Y-82393663D01*
X135803000Y-82907119D01*
X135803000Y-83462881D01*
X136015680Y-83976337D01*
X136408663Y-84369320D01*
X136615513Y-84455000D01*
X136408663Y-84540680D01*
X136015680Y-84933663D01*
X135803000Y-85447119D01*
X135803000Y-86002881D01*
X136015680Y-86516337D01*
X136408663Y-86909320D01*
X136615513Y-86995000D01*
X136408663Y-87080680D01*
X136015680Y-87473663D01*
X135803000Y-87987119D01*
X135803000Y-88542881D01*
X136015680Y-89056337D01*
X136408663Y-89449320D01*
X136599647Y-89528428D01*
X136468857Y-89582603D01*
X136399392Y-89824787D01*
X137200000Y-90625395D01*
X138000608Y-89824787D01*
X137931143Y-89582603D01*
X137790607Y-89532465D01*
X137991337Y-89449320D01*
X138384320Y-89056337D01*
X138597000Y-88542881D01*
X138597000Y-87987119D01*
X138384320Y-87473663D01*
X137991337Y-87080680D01*
X137784487Y-86995000D01*
X137991337Y-86909320D01*
X138384320Y-86516337D01*
X138597000Y-86002881D01*
X138597000Y-85447119D01*
X138384320Y-84933663D01*
X137991337Y-84540680D01*
X137784487Y-84455000D01*
X137991337Y-84369320D01*
X138384320Y-83976337D01*
X138597000Y-83462881D01*
X138597000Y-82907119D01*
X138384320Y-82393663D01*
X137991337Y-82000680D01*
X137784487Y-81915000D01*
X137991337Y-81829320D01*
X138384320Y-81436337D01*
X138597000Y-80922881D01*
X138597000Y-80367119D01*
X138384320Y-79853663D01*
X137991337Y-79460680D01*
X137784487Y-79375000D01*
X137991337Y-79289320D01*
X138384320Y-78896337D01*
X138597000Y-78382881D01*
X138597000Y-77827119D01*
X138384320Y-77313663D01*
X137991337Y-76920680D01*
X137784487Y-76835000D01*
X137991337Y-76749320D01*
X138384320Y-76356337D01*
X138597000Y-75842881D01*
X138597000Y-75287119D01*
X138384320Y-74773663D01*
X137991337Y-74380680D01*
X137784487Y-74295000D01*
X137991337Y-74209320D01*
X138384320Y-73816337D01*
X138597000Y-73302881D01*
X138597000Y-72747119D01*
X138384320Y-72233663D01*
X137991337Y-71840680D01*
X137784487Y-71755000D01*
X137991337Y-71669320D01*
X138384320Y-71276337D01*
X138597000Y-70762881D01*
X138597000Y-70207119D01*
X138384320Y-69693663D01*
X137991337Y-69300680D01*
X137784487Y-69215000D01*
X137947625Y-69147426D01*
X142985000Y-74184802D01*
X142985000Y-74350874D01*
X143142569Y-74731280D01*
X143181166Y-74769877D01*
X143154356Y-74810000D01*
X143148711Y-74810000D01*
X143106280Y-74767569D01*
X142725874Y-74610000D01*
X142314126Y-74610000D01*
X141933720Y-74767569D01*
X141642569Y-75058720D01*
X141485000Y-75439126D01*
X141485000Y-75850874D01*
X141642569Y-76231280D01*
X141760000Y-76348711D01*
X141760001Y-79504463D01*
X141745112Y-79579315D01*
X141760001Y-79654167D01*
X141804097Y-79875852D01*
X141972072Y-80127244D01*
X142035528Y-80169644D01*
X153060000Y-91194117D01*
X153060001Y-95520148D01*
X153045112Y-95595000D01*
X153060001Y-95669852D01*
X153104097Y-95891537D01*
X153272072Y-96142929D01*
X153335528Y-96185329D01*
X154860000Y-97709803D01*
X154860000Y-98370067D01*
X154774603Y-98415713D01*
X154693104Y-98470169D01*
X154675032Y-98485000D01*
X154323182Y-98485000D01*
X154300078Y-98368848D01*
X154108247Y-98081753D01*
X153821152Y-97889922D01*
X153482500Y-97822560D01*
X152907500Y-97822560D01*
X152568848Y-97889922D01*
X152320000Y-98056197D01*
X152071152Y-97889922D01*
X151732500Y-97822560D01*
X151157500Y-97822560D01*
X150818848Y-97889922D01*
X150531753Y-98081753D01*
X150462765Y-98185000D01*
X150377235Y-98185000D01*
X150308247Y-98081753D01*
X150021152Y-97889922D01*
X149682500Y-97822560D01*
X149107500Y-97822560D01*
X148768848Y-97889922D01*
X148600460Y-98002435D01*
X148529698Y-97931673D01*
X148296309Y-97835000D01*
X147930750Y-97835000D01*
X147772000Y-97993750D01*
X147772000Y-98818000D01*
X147792000Y-98818000D01*
X147792000Y-99072000D01*
X147772000Y-99072000D01*
X147772000Y-99896250D01*
X147930750Y-100055000D01*
X148296309Y-100055000D01*
X148529698Y-99958327D01*
X148600460Y-99887565D01*
X148768848Y-100000078D01*
X149107500Y-100067440D01*
X149682500Y-100067440D01*
X150021152Y-100000078D01*
X150308247Y-99808247D01*
X150377235Y-99705000D01*
X150462765Y-99705000D01*
X150531753Y-99808247D01*
X150818848Y-100000078D01*
X151157500Y-100067440D01*
X151732500Y-100067440D01*
X152071152Y-100000078D01*
X152320000Y-99833803D01*
X152568848Y-100000078D01*
X152907500Y-100067440D01*
X153482500Y-100067440D01*
X153796407Y-100005000D01*
X154244440Y-100005000D01*
X154252397Y-100045000D01*
X154222560Y-100195000D01*
X154222560Y-100578004D01*
X154158247Y-100481753D01*
X153871152Y-100289922D01*
X153532500Y-100222560D01*
X152957500Y-100222560D01*
X152618848Y-100289922D01*
X152370000Y-100456197D01*
X152121152Y-100289922D01*
X151782500Y-100222560D01*
X151207500Y-100222560D01*
X150868848Y-100289922D01*
X150581753Y-100481753D01*
X150512765Y-100585000D01*
X150477235Y-100585000D01*
X150408247Y-100481753D01*
X150121152Y-100289922D01*
X149782500Y-100222560D01*
X149207500Y-100222560D01*
X148868848Y-100289922D01*
X148700460Y-100402435D01*
X148629698Y-100331673D01*
X148396309Y-100235000D01*
X148030750Y-100235000D01*
X147872000Y-100393750D01*
X147872000Y-101218000D01*
X147892000Y-101218000D01*
X147892000Y-101472000D01*
X147872000Y-101472000D01*
X147872000Y-102296250D01*
X148030750Y-102455000D01*
X148396309Y-102455000D01*
X148629698Y-102358327D01*
X148700460Y-102287565D01*
X148868848Y-102400078D01*
X149046454Y-102435406D01*
X149029665Y-102460533D01*
X146835199Y-104655000D01*
X138025657Y-104655000D01*
X138290657Y-104390000D01*
X138512839Y-104390000D01*
X138600000Y-104407337D01*
X138687161Y-104390000D01*
X138687165Y-104390000D01*
X138945310Y-104338652D01*
X139238049Y-104143049D01*
X139287425Y-104069153D01*
X140394156Y-102962423D01*
X140468049Y-102913049D01*
X140663652Y-102620310D01*
X140715000Y-102362165D01*
X140715000Y-102362161D01*
X140732337Y-102275000D01*
X140715000Y-102187839D01*
X140715000Y-101630750D01*
X146585000Y-101630750D01*
X146585000Y-101946310D01*
X146681673Y-102179699D01*
X146860302Y-102358327D01*
X147093691Y-102455000D01*
X147459250Y-102455000D01*
X147618000Y-102296250D01*
X147618000Y-101472000D01*
X146743750Y-101472000D01*
X146585000Y-101630750D01*
X140715000Y-101630750D01*
X140715000Y-100743690D01*
X146585000Y-100743690D01*
X146585000Y-101059250D01*
X146743750Y-101218000D01*
X147618000Y-101218000D01*
X147618000Y-100393750D01*
X147459250Y-100235000D01*
X147093691Y-100235000D01*
X146860302Y-100331673D01*
X146681673Y-100510301D01*
X146585000Y-100743690D01*
X140715000Y-100743690D01*
X140715000Y-99230750D01*
X146485000Y-99230750D01*
X146485000Y-99546310D01*
X146581673Y-99779699D01*
X146760302Y-99958327D01*
X146993691Y-100055000D01*
X147359250Y-100055000D01*
X147518000Y-99896250D01*
X147518000Y-99072000D01*
X146643750Y-99072000D01*
X146485000Y-99230750D01*
X140715000Y-99230750D01*
X140715000Y-98343690D01*
X146485000Y-98343690D01*
X146485000Y-98659250D01*
X146643750Y-98818000D01*
X147518000Y-98818000D01*
X147518000Y-97993750D01*
X147359250Y-97835000D01*
X146993691Y-97835000D01*
X146760302Y-97931673D01*
X146581673Y-98110301D01*
X146485000Y-98343690D01*
X140715000Y-98343690D01*
X140715000Y-97831578D01*
X141791579Y-96755000D01*
X148951993Y-96755000D01*
X149314126Y-96905000D01*
X149725874Y-96905000D01*
X150106280Y-96747431D01*
X150397431Y-96456280D01*
X150555000Y-96075874D01*
X150555000Y-95664126D01*
X150397431Y-95283720D01*
X150106280Y-94992569D01*
X149725874Y-94835000D01*
X149314126Y-94835000D01*
X148951993Y-94985000D01*
X141512161Y-94985000D01*
X141425000Y-94967663D01*
X141337839Y-94985000D01*
X141337835Y-94985000D01*
X141079690Y-95036348D01*
X140860845Y-95182576D01*
X140860844Y-95182577D01*
X140786951Y-95231951D01*
X140737577Y-95305844D01*
X139265847Y-96777575D01*
X139191951Y-96826951D01*
X138996348Y-97119691D01*
X138945000Y-97377836D01*
X138945000Y-97377839D01*
X138927663Y-97465000D01*
X138945000Y-97552161D01*
X138945001Y-101908420D01*
X138262039Y-102591382D01*
X137991337Y-102320680D01*
X137800353Y-102241572D01*
X137931143Y-102187397D01*
X138000608Y-101945213D01*
X137200000Y-101144605D01*
X136399392Y-101945213D01*
X136468857Y-102187397D01*
X136609393Y-102237535D01*
X136408663Y-102320680D01*
X136015680Y-102713663D01*
X135803000Y-103227119D01*
X135803000Y-103782881D01*
X136015680Y-104296337D01*
X136374343Y-104655000D01*
X125984802Y-104655000D01*
X125453500Y-104123698D01*
X125453500Y-103599750D01*
X125250487Y-103109633D01*
X124875367Y-102734513D01*
X124385250Y-102531500D01*
X123854750Y-102531500D01*
X123364633Y-102734513D01*
X122994146Y-103105000D01*
X117625854Y-103105000D01*
X117255367Y-102734513D01*
X116765250Y-102531500D01*
X116234750Y-102531500D01*
X115744633Y-102734513D01*
X115369513Y-103109633D01*
X115330000Y-103205026D01*
X115330000Y-100989126D01*
X118335000Y-100989126D01*
X118335000Y-101400874D01*
X118492569Y-101781280D01*
X118783720Y-102072431D01*
X119164126Y-102230000D01*
X119575874Y-102230000D01*
X119938007Y-102080000D01*
X126682839Y-102080000D01*
X126770000Y-102097337D01*
X126857161Y-102080000D01*
X126857165Y-102080000D01*
X127115310Y-102028652D01*
X127408049Y-101833049D01*
X127457425Y-101759153D01*
X128459276Y-100757302D01*
X135790856Y-100757302D01*
X135818638Y-101312368D01*
X135977603Y-101696143D01*
X136219787Y-101765608D01*
X137020395Y-100965000D01*
X137379605Y-100965000D01*
X138180213Y-101765608D01*
X138422397Y-101696143D01*
X138609144Y-101172698D01*
X138581362Y-100617632D01*
X138422397Y-100233857D01*
X138180213Y-100164392D01*
X137379605Y-100965000D01*
X137020395Y-100965000D01*
X136219787Y-100164392D01*
X135977603Y-100233857D01*
X135790856Y-100757302D01*
X128459276Y-100757302D01*
X131861040Y-97355538D01*
X131933744Y-97370000D01*
X132226256Y-97370000D01*
X132659418Y-97283839D01*
X133150625Y-96955625D01*
X133478839Y-96464418D01*
X133594092Y-95885000D01*
X133478839Y-95305582D01*
X133150625Y-94814375D01*
X132659418Y-94486161D01*
X132226256Y-94400000D01*
X131933744Y-94400000D01*
X131500582Y-94486161D01*
X131009375Y-94814375D01*
X130994904Y-94836033D01*
X130928327Y-94675302D01*
X130749699Y-94496673D01*
X130516310Y-94400000D01*
X129825750Y-94400000D01*
X129667000Y-94558750D01*
X129667000Y-95758000D01*
X129687000Y-95758000D01*
X129687000Y-96012000D01*
X129667000Y-96012000D01*
X129667000Y-96032000D01*
X129413000Y-96032000D01*
X129413000Y-96012000D01*
X128213750Y-96012000D01*
X128055000Y-96170750D01*
X128055000Y-96861309D01*
X128151673Y-97094698D01*
X128330301Y-97273327D01*
X128563690Y-97370000D01*
X129254250Y-97370000D01*
X129412998Y-97211252D01*
X129412998Y-97300423D01*
X126403422Y-100310000D01*
X119938007Y-100310000D01*
X119575874Y-100160000D01*
X119164126Y-100160000D01*
X118783720Y-100317569D01*
X118492569Y-100608720D01*
X118335000Y-100989126D01*
X115330000Y-100989126D01*
X115330000Y-94908691D01*
X128055000Y-94908691D01*
X128055000Y-95599250D01*
X128213750Y-95758000D01*
X129413000Y-95758000D01*
X129413000Y-94558750D01*
X129254250Y-94400000D01*
X128563690Y-94400000D01*
X128330301Y-94496673D01*
X128151673Y-94675302D01*
X128055000Y-94908691D01*
X115330000Y-94908691D01*
X115330000Y-93067119D01*
X135803000Y-93067119D01*
X135803000Y-93622881D01*
X136015680Y-94136337D01*
X136408663Y-94529320D01*
X136615513Y-94615000D01*
X136408663Y-94700680D01*
X136015680Y-95093663D01*
X135803000Y-95607119D01*
X135803000Y-96162881D01*
X136015680Y-96676337D01*
X136408663Y-97069320D01*
X136615513Y-97155000D01*
X136408663Y-97240680D01*
X136015680Y-97633663D01*
X135803000Y-98147119D01*
X135803000Y-98702881D01*
X136015680Y-99216337D01*
X136408663Y-99609320D01*
X136599647Y-99688428D01*
X136468857Y-99742603D01*
X136399392Y-99984787D01*
X137200000Y-100785395D01*
X138000608Y-99984787D01*
X137931143Y-99742603D01*
X137790607Y-99692465D01*
X137991337Y-99609320D01*
X138384320Y-99216337D01*
X138597000Y-98702881D01*
X138597000Y-98147119D01*
X138384320Y-97633663D01*
X137991337Y-97240680D01*
X137784487Y-97155000D01*
X137991337Y-97069320D01*
X138384320Y-96676337D01*
X138597000Y-96162881D01*
X138597000Y-95607119D01*
X138384320Y-95093663D01*
X137991337Y-94700680D01*
X137784487Y-94615000D01*
X137991337Y-94529320D01*
X138290657Y-94230000D01*
X151351993Y-94230000D01*
X151714126Y-94380000D01*
X152125874Y-94380000D01*
X152506280Y-94222431D01*
X152797431Y-93931280D01*
X152955000Y-93550874D01*
X152955000Y-93139126D01*
X152797431Y-92758720D01*
X152506280Y-92467569D01*
X152125874Y-92310000D01*
X151714126Y-92310000D01*
X151351993Y-92460000D01*
X138290657Y-92460000D01*
X137991337Y-92160680D01*
X137800353Y-92081572D01*
X137931143Y-92027397D01*
X138000608Y-91785213D01*
X137200000Y-90984605D01*
X136399392Y-91785213D01*
X136468857Y-92027397D01*
X136609393Y-92077535D01*
X136408663Y-92160680D01*
X136015680Y-92553663D01*
X135803000Y-93067119D01*
X115330000Y-93067119D01*
X115330000Y-90230750D01*
X117135000Y-90230750D01*
X117135000Y-90921309D01*
X117231673Y-91154698D01*
X117410301Y-91333327D01*
X117643690Y-91430000D01*
X118334250Y-91430000D01*
X118493000Y-91271250D01*
X118493000Y-90072000D01*
X118747000Y-90072000D01*
X118747000Y-91271250D01*
X118905750Y-91430000D01*
X119596310Y-91430000D01*
X119829699Y-91333327D01*
X120008327Y-91154698D01*
X120105000Y-90921309D01*
X120105000Y-90230750D01*
X119946250Y-90072000D01*
X118747000Y-90072000D01*
X118493000Y-90072000D01*
X117293750Y-90072000D01*
X117135000Y-90230750D01*
X115330000Y-90230750D01*
X115330000Y-89945000D01*
X131105908Y-89945000D01*
X131221161Y-90524418D01*
X131549375Y-91015625D01*
X132040582Y-91343839D01*
X132473744Y-91430000D01*
X132766256Y-91430000D01*
X133199418Y-91343839D01*
X133690625Y-91015625D01*
X133970139Y-90597302D01*
X135790856Y-90597302D01*
X135818638Y-91152368D01*
X135977603Y-91536143D01*
X136219787Y-91605608D01*
X137020395Y-90805000D01*
X137379605Y-90805000D01*
X138180213Y-91605608D01*
X138422397Y-91536143D01*
X138609144Y-91012698D01*
X138581362Y-90457632D01*
X138422397Y-90073857D01*
X138180213Y-90004392D01*
X137379605Y-90805000D01*
X137020395Y-90805000D01*
X136219787Y-90004392D01*
X135977603Y-90073857D01*
X135790856Y-90597302D01*
X133970139Y-90597302D01*
X134018839Y-90524418D01*
X134134092Y-89945000D01*
X134018839Y-89365582D01*
X133690625Y-88874375D01*
X133199418Y-88546161D01*
X132766256Y-88460000D01*
X132473744Y-88460000D01*
X132040582Y-88546161D01*
X131549375Y-88874375D01*
X131221161Y-89365582D01*
X131105908Y-89945000D01*
X115330000Y-89945000D01*
X115330000Y-88968691D01*
X117135000Y-88968691D01*
X117135000Y-89659250D01*
X117293750Y-89818000D01*
X118493000Y-89818000D01*
X118493000Y-88618750D01*
X118747000Y-88618750D01*
X118747000Y-89818000D01*
X119946250Y-89818000D01*
X120105000Y-89659250D01*
X120105000Y-88968691D01*
X120008327Y-88735302D01*
X119829699Y-88556673D01*
X119596310Y-88460000D01*
X118905750Y-88460000D01*
X118747000Y-88618750D01*
X118493000Y-88618750D01*
X118334250Y-88460000D01*
X117643690Y-88460000D01*
X117410301Y-88556673D01*
X117231673Y-88735302D01*
X117135000Y-88968691D01*
X115330000Y-88968691D01*
X115330000Y-69976618D01*
X115400578Y-69185808D01*
X115601705Y-68450611D01*
X115929846Y-67762649D01*
X116374628Y-67143669D01*
X116921988Y-66613239D01*
X117554639Y-66188116D01*
X118252561Y-65881749D01*
X118999183Y-65702501D01*
X119646030Y-65655000D01*
X138550070Y-65655000D01*
X138725655Y-65689926D01*
X138725655Y-65689926D01*
G37*
X138725655Y-65689926D02*
X138815225Y-65749774D01*
X138875074Y-65839345D01*
X138923642Y-66083513D01*
X138999762Y-66466196D01*
X139007827Y-66485666D01*
X139105776Y-66722138D01*
X139322549Y-67046561D01*
X139322550Y-67046562D01*
X139518438Y-67242451D01*
X139842862Y-67459223D01*
X139934747Y-67497283D01*
X140098804Y-67565238D01*
X140481486Y-67641358D01*
X140481491Y-67641358D01*
X140550074Y-67655000D01*
X156689926Y-67655000D01*
X156758509Y-67641358D01*
X156758513Y-67641358D01*
X157141196Y-67565238D01*
X157241895Y-67523527D01*
X157397138Y-67459224D01*
X157721561Y-67242451D01*
X157810349Y-67153663D01*
X157917451Y-67046562D01*
X158134223Y-66722138D01*
X158203030Y-66556024D01*
X158240238Y-66466196D01*
X158316358Y-66083514D01*
X158316358Y-66083513D01*
X158364926Y-65839345D01*
X158424774Y-65749775D01*
X158514345Y-65689926D01*
X158689930Y-65655000D01*
X165588382Y-65655000D01*
X166379192Y-65725578D01*
X167114389Y-65926705D01*
X167802351Y-66254846D01*
X168087854Y-66460000D01*
X167465750Y-66460000D01*
X167307000Y-66618750D01*
X167307000Y-67818000D01*
X168656250Y-67818000D01*
X168815000Y-67659250D01*
X168815000Y-67105862D01*
X168951761Y-67246988D01*
X169376884Y-67879639D01*
X169683251Y-68577561D01*
X169862499Y-69324183D01*
X169910000Y-69971030D01*
X169910001Y-106913370D01*
X169839422Y-107704193D01*
X169638295Y-108439389D01*
X169310152Y-109127355D01*
X168865374Y-109746328D01*
X168318012Y-110276761D01*
X167685362Y-110701883D01*
X166987439Y-111008251D01*
X166240819Y-111187499D01*
X165593970Y-111235000D01*
X159162032Y-111235000D01*
X159134223Y-111167862D01*
X158917451Y-110843438D01*
X158721562Y-110647550D01*
X158721561Y-110647549D01*
X158397138Y-110430776D01*
X158213368Y-110354657D01*
X158141196Y-110324762D01*
X157758513Y-110248642D01*
X157758509Y-110248642D01*
X157689926Y-110235000D01*
X147104801Y-110235000D01*
X148859802Y-108480000D01*
X149025874Y-108480000D01*
X149406280Y-108322431D01*
X149697431Y-108031280D01*
X149855000Y-107650874D01*
X149855000Y-107239126D01*
X149697431Y-106858720D01*
X149406280Y-106567569D01*
X149025874Y-106410000D01*
X148614126Y-106410000D01*
X148233720Y-106567569D01*
X147942569Y-106858720D01*
X147785000Y-107239126D01*
X147785000Y-107405198D01*
X146105199Y-109085000D01*
X136223711Y-109085000D01*
X136106280Y-108967569D01*
X135725874Y-108810000D01*
X135314126Y-108810000D01*
X134933720Y-108967569D01*
X134642569Y-109258720D01*
X134485000Y-109639126D01*
X134485000Y-110050874D01*
X134642569Y-110431280D01*
X134933720Y-110722431D01*
X135314126Y-110880000D01*
X135725874Y-110880000D01*
X136106280Y-110722431D01*
X136223711Y-110605000D01*
X138582117Y-110605000D01*
X138518438Y-110647549D01*
X138411376Y-110754612D01*
X138322549Y-110843439D01*
X138105776Y-111167862D01*
X138077967Y-111235000D01*
X119651618Y-111235000D01*
X118860807Y-111164422D01*
X118125611Y-110963295D01*
X117437645Y-110635152D01*
X116876933Y-110232239D01*
X117255367Y-110075487D01*
X117500854Y-109830000D01*
X123119146Y-109830000D01*
X123364633Y-110075487D01*
X123854750Y-110278500D01*
X124385250Y-110278500D01*
X124875367Y-110075487D01*
X125250487Y-109700367D01*
X125453500Y-109210250D01*
X125453500Y-108863079D01*
X125505923Y-108810656D01*
X125505925Y-108810653D01*
X125836580Y-108479999D01*
X127372560Y-108479999D01*
X127372560Y-109795000D01*
X127421843Y-110042765D01*
X127562191Y-110252809D01*
X127772235Y-110393157D01*
X128020000Y-110442440D01*
X129720000Y-110442440D01*
X129967765Y-110393157D01*
X130177809Y-110252809D01*
X130318157Y-110042765D01*
X130327184Y-109997381D01*
X130339375Y-110015625D01*
X130830582Y-110343839D01*
X131263744Y-110430000D01*
X131556256Y-110430000D01*
X131989418Y-110343839D01*
X132480625Y-110015625D01*
X132808839Y-109524418D01*
X132924092Y-108945000D01*
X132808839Y-108365582D01*
X132480625Y-107874375D01*
X131989418Y-107546161D01*
X131556256Y-107460000D01*
X131263744Y-107460000D01*
X131191040Y-107474462D01*
X130747424Y-107030846D01*
X130698048Y-106956950D01*
X130405309Y-106761347D01*
X130147164Y-106709999D01*
X130147160Y-106709999D01*
X130059999Y-106692662D01*
X129972838Y-106709999D01*
X125557162Y-106709999D01*
X125470001Y-106692662D01*
X125382840Y-106709999D01*
X125382836Y-106709999D01*
X125143272Y-106757651D01*
X125124691Y-106761347D01*
X124905846Y-106907575D01*
X124905845Y-106907576D01*
X124831952Y-106956950D01*
X124782578Y-107030843D01*
X124254347Y-107559075D01*
X124254344Y-107559077D01*
X124201921Y-107611500D01*
X123854750Y-107611500D01*
X123364633Y-107814513D01*
X123119146Y-108060000D01*
X117500854Y-108060000D01*
X117255367Y-107814513D01*
X116765250Y-107611500D01*
X116234750Y-107611500D01*
X115744633Y-107814513D01*
X115496725Y-108062421D01*
X115377501Y-107565819D01*
X115330000Y-106918970D01*
X115330000Y-104524974D01*
X115369513Y-104620367D01*
X115744633Y-104995487D01*
X116234750Y-105198500D01*
X116765250Y-105198500D01*
X117255367Y-104995487D01*
X117625854Y-104625000D01*
X122994146Y-104625000D01*
X123364633Y-104995487D01*
X123854750Y-105198500D01*
X124378698Y-105198500D01*
X125079671Y-105899473D01*
X125122071Y-105962929D01*
X125373463Y-106130904D01*
X125595148Y-106175000D01*
X125595152Y-106175000D01*
X125669999Y-106189888D01*
X125744846Y-106175000D01*
X147075153Y-106175000D01*
X147150000Y-106189888D01*
X147224847Y-106175000D01*
X147224852Y-106175000D01*
X147446537Y-106130904D01*
X147697929Y-105962929D01*
X147740331Y-105899470D01*
X149934796Y-103705006D01*
X150199132Y-103705006D01*
X150185000Y-103739124D01*
X150185000Y-104150872D01*
X150342569Y-104531278D01*
X150633720Y-104822429D01*
X151014126Y-104979998D01*
X151180199Y-104979998D01*
X153629669Y-107429469D01*
X153672069Y-107492925D01*
X153923461Y-107660900D01*
X154145146Y-107704996D01*
X154145151Y-107704996D01*
X154219998Y-107719884D01*
X154294845Y-107704996D01*
X159416289Y-107704996D01*
X159533720Y-107822427D01*
X159914126Y-107979996D01*
X160325874Y-107979996D01*
X160706280Y-107822427D01*
X160997431Y-107531276D01*
X161155000Y-107150870D01*
X161155000Y-106739122D01*
X160997431Y-106358716D01*
X160706280Y-106067565D01*
X160325874Y-105909996D01*
X159914126Y-105909996D01*
X159533720Y-106067565D01*
X159416289Y-106184996D01*
X154534800Y-106184996D01*
X152255000Y-103905197D01*
X152255000Y-103739124D01*
X152240868Y-103705006D01*
X152716289Y-103705006D01*
X152833720Y-103822437D01*
X153214126Y-103980006D01*
X153625874Y-103980006D01*
X154006280Y-103822437D01*
X154297431Y-103531286D01*
X154455000Y-103150880D01*
X154455000Y-102739132D01*
X154297431Y-102358726D01*
X154180000Y-102241295D01*
X154180000Y-102175691D01*
X154227235Y-102105000D01*
X154895153Y-102105000D01*
X154970000Y-102119888D01*
X155044847Y-102105000D01*
X155044852Y-102105000D01*
X155266537Y-102060904D01*
X155517929Y-101892929D01*
X155551665Y-101842440D01*
X155870000Y-101842440D01*
X155882106Y-101840032D01*
X155919009Y-101840032D01*
X156045318Y-101827592D01*
X156141451Y-101808470D01*
X156262904Y-101771628D01*
X156353460Y-101734119D01*
X156465397Y-101674287D01*
X156546896Y-101619831D01*
X156645006Y-101539314D01*
X156714314Y-101470006D01*
X156794831Y-101371896D01*
X156849287Y-101290397D01*
X156909119Y-101178460D01*
X156946628Y-101087904D01*
X156983470Y-100966451D01*
X157002592Y-100870318D01*
X157015032Y-100744009D01*
X157015032Y-100707106D01*
X157017440Y-100695000D01*
X157017440Y-100195000D01*
X156987603Y-100045000D01*
X157017440Y-99895000D01*
X157017440Y-99395000D01*
X157015032Y-99382894D01*
X157015032Y-99345991D01*
X157002592Y-99219682D01*
X156983470Y-99123549D01*
X156946628Y-99002096D01*
X156909119Y-98911540D01*
X156849287Y-98799603D01*
X156794831Y-98718104D01*
X156714314Y-98619994D01*
X156645006Y-98550686D01*
X156546896Y-98470169D01*
X156465397Y-98415713D01*
X156380000Y-98370067D01*
X156380000Y-97469846D01*
X156394888Y-97394999D01*
X156380000Y-97320152D01*
X156380000Y-97320148D01*
X156335904Y-97098463D01*
X156240463Y-96955625D01*
X156210329Y-96910526D01*
X156210327Y-96910524D01*
X156167929Y-96847071D01*
X156104476Y-96804673D01*
X154580000Y-95280199D01*
X154580000Y-90954161D01*
X154594888Y-90879314D01*
X154580000Y-90804467D01*
X154580000Y-90804463D01*
X154535904Y-90582778D01*
X154367929Y-90331386D01*
X154304473Y-90288986D01*
X143280000Y-79264514D01*
X143280000Y-78248780D01*
X143543848Y-78425078D01*
X143882500Y-78492440D01*
X144357500Y-78492440D01*
X144696152Y-78425078D01*
X144983247Y-78233247D01*
X145175078Y-77946152D01*
X145242440Y-77607500D01*
X145242440Y-77272362D01*
X146404476Y-76110327D01*
X146467929Y-76067929D01*
X146510327Y-76004476D01*
X146510329Y-76004474D01*
X146612961Y-75850874D01*
X146635904Y-75816537D01*
X146680000Y-75594852D01*
X146680000Y-75594848D01*
X146694888Y-75520001D01*
X146680000Y-75445154D01*
X146680000Y-71759801D01*
X146785000Y-71654801D01*
X146785000Y-71750874D01*
X146942569Y-72131280D01*
X147060000Y-72248711D01*
X147060001Y-76470148D01*
X147045112Y-76545000D01*
X147060001Y-76619852D01*
X147104097Y-76841537D01*
X147272072Y-77092929D01*
X147335528Y-77135329D01*
X147540638Y-77340439D01*
X147233720Y-77467569D01*
X146942569Y-77758720D01*
X146785000Y-78139126D01*
X146785000Y-78550874D01*
X146942569Y-78931280D01*
X147233720Y-79222431D01*
X147614126Y-79380000D01*
X147780199Y-79380000D01*
X158479670Y-90079472D01*
X158522071Y-90142929D01*
X158757090Y-90299964D01*
X158663000Y-90527119D01*
X158663000Y-91082881D01*
X158875680Y-91596337D01*
X159268663Y-91989320D01*
X159475513Y-92075000D01*
X159268663Y-92160680D01*
X158875680Y-92553663D01*
X158663000Y-93067119D01*
X158663000Y-93622881D01*
X158875680Y-94136337D01*
X159268663Y-94529320D01*
X159475513Y-94615000D01*
X159268663Y-94700680D01*
X159106307Y-94863036D01*
X159103652Y-94849690D01*
X158908049Y-94556951D01*
X158834156Y-94507577D01*
X157447431Y-93120853D01*
X157297431Y-92758720D01*
X157006280Y-92467569D01*
X156625874Y-92310000D01*
X156214126Y-92310000D01*
X155833720Y-92467569D01*
X155542569Y-92758720D01*
X155385000Y-93139126D01*
X155385000Y-93550874D01*
X155542569Y-93931280D01*
X155833720Y-94222431D01*
X156195853Y-94372431D01*
X157385000Y-95561579D01*
X157385001Y-101627835D01*
X157367663Y-101715000D01*
X157436348Y-102060309D01*
X157582576Y-102279154D01*
X157582578Y-102279156D01*
X157631952Y-102353049D01*
X157705845Y-102402423D01*
X158663000Y-103359579D01*
X158663000Y-103782881D01*
X158875680Y-104296337D01*
X159268663Y-104689320D01*
X159782119Y-104902000D01*
X160337881Y-104902000D01*
X160851337Y-104689320D01*
X161244320Y-104296337D01*
X161457000Y-103782881D01*
X161457000Y-103227119D01*
X161244320Y-102713663D01*
X160851337Y-102320680D01*
X160660353Y-102241572D01*
X160791143Y-102187397D01*
X160860608Y-101945213D01*
X160060000Y-101144605D01*
X160045858Y-101158748D01*
X159866253Y-100979143D01*
X159880395Y-100965000D01*
X160239605Y-100965000D01*
X161040213Y-101765608D01*
X161282397Y-101696143D01*
X161469144Y-101172698D01*
X161441362Y-100617632D01*
X161282397Y-100233857D01*
X161040213Y-100164392D01*
X160239605Y-100965000D01*
X159880395Y-100965000D01*
X159866253Y-100950858D01*
X160045858Y-100771253D01*
X160060000Y-100785395D01*
X160860608Y-99984787D01*
X160791143Y-99742603D01*
X160650607Y-99692465D01*
X160851337Y-99609320D01*
X161244320Y-99216337D01*
X161457000Y-98702881D01*
X161457000Y-98147119D01*
X161244320Y-97633663D01*
X160851337Y-97240680D01*
X160644487Y-97155000D01*
X160851337Y-97069320D01*
X161244320Y-96676337D01*
X161457000Y-96162881D01*
X161457000Y-95607119D01*
X161244320Y-95093663D01*
X160851337Y-94700680D01*
X160644487Y-94615000D01*
X160851337Y-94529320D01*
X161244320Y-94136337D01*
X161457000Y-93622881D01*
X161457000Y-93067119D01*
X161244320Y-92553663D01*
X160851337Y-92160680D01*
X160644487Y-92075000D01*
X160851337Y-91989320D01*
X161244320Y-91596337D01*
X161457000Y-91082881D01*
X161457000Y-90946802D01*
X162730000Y-92219803D01*
X162730001Y-104930148D01*
X162715112Y-105005000D01*
X162774097Y-105301537D01*
X162849911Y-105415000D01*
X162942072Y-105552929D01*
X163005528Y-105595329D01*
X165588791Y-108178592D01*
X165515908Y-108545000D01*
X165631161Y-109124418D01*
X165959375Y-109615625D01*
X166450582Y-109943839D01*
X166883744Y-110030000D01*
X167476256Y-110030000D01*
X167909418Y-109943839D01*
X168400625Y-109615625D01*
X168728839Y-109124418D01*
X168844092Y-108545000D01*
X168728839Y-107965582D01*
X168409291Y-107487344D01*
X168539699Y-107433327D01*
X168718327Y-107254698D01*
X168815000Y-107021309D01*
X168815000Y-106330750D01*
X168656250Y-106172000D01*
X167307000Y-106172000D01*
X167307000Y-106192000D01*
X167053000Y-106192000D01*
X167053000Y-106172000D01*
X167033000Y-106172000D01*
X167033000Y-105918000D01*
X167053000Y-105918000D01*
X167053000Y-104718750D01*
X167307000Y-104718750D01*
X167307000Y-105918000D01*
X168656250Y-105918000D01*
X168815000Y-105759250D01*
X168815000Y-105068691D01*
X168718327Y-104835302D01*
X168539699Y-104656673D01*
X168306310Y-104560000D01*
X167465750Y-104560000D01*
X167307000Y-104718750D01*
X167053000Y-104718750D01*
X166894250Y-104560000D01*
X166053690Y-104560000D01*
X165820301Y-104656673D01*
X165641673Y-104835302D01*
X165545000Y-105068691D01*
X165545000Y-105759250D01*
X165703748Y-105917998D01*
X165545000Y-105917998D01*
X165545000Y-105985199D01*
X164250000Y-104690199D01*
X164250000Y-99219801D01*
X165588791Y-100558592D01*
X165515908Y-100925000D01*
X165631161Y-101504418D01*
X165959375Y-101995625D01*
X166450582Y-102323839D01*
X166883744Y-102410000D01*
X167476256Y-102410000D01*
X167909418Y-102323839D01*
X168400625Y-101995625D01*
X168728839Y-101504418D01*
X168844092Y-100925000D01*
X168728839Y-100345582D01*
X168409291Y-99867344D01*
X168539699Y-99813327D01*
X168718327Y-99634698D01*
X168815000Y-99401309D01*
X168815000Y-98710750D01*
X168656250Y-98552000D01*
X167307000Y-98552000D01*
X167307000Y-98572000D01*
X167053000Y-98572000D01*
X167053000Y-98552000D01*
X167033000Y-98552000D01*
X167033000Y-98298000D01*
X167053000Y-98298000D01*
X167053000Y-97098750D01*
X167307000Y-97098750D01*
X167307000Y-98298000D01*
X168656250Y-98298000D01*
X168815000Y-98139250D01*
X168815000Y-97448691D01*
X168718327Y-97215302D01*
X168539699Y-97036673D01*
X168306310Y-96940000D01*
X167465750Y-96940000D01*
X167307000Y-97098750D01*
X167053000Y-97098750D01*
X166894250Y-96940000D01*
X166053690Y-96940000D01*
X165820301Y-97036673D01*
X165641673Y-97215302D01*
X165545000Y-97448691D01*
X165545000Y-98139250D01*
X165703748Y-98297998D01*
X165545000Y-98297998D01*
X165545000Y-98365199D01*
X164920000Y-97740199D01*
X164920000Y-92269801D01*
X165588791Y-92938592D01*
X165515908Y-93305000D01*
X165631161Y-93884418D01*
X165959375Y-94375625D01*
X166450582Y-94703839D01*
X166883744Y-94790000D01*
X167476256Y-94790000D01*
X167909418Y-94703839D01*
X168400625Y-94375625D01*
X168728839Y-93884418D01*
X168844092Y-93305000D01*
X168728839Y-92725582D01*
X168409291Y-92247344D01*
X168539699Y-92193327D01*
X168718327Y-92014698D01*
X168815000Y-91781309D01*
X168815000Y-91090750D01*
X168656250Y-90932000D01*
X167307000Y-90932000D01*
X167307000Y-90952000D01*
X167053000Y-90952000D01*
X167053000Y-90932000D01*
X167033000Y-90932000D01*
X167033000Y-90678000D01*
X167053000Y-90678000D01*
X167053000Y-89478750D01*
X167307000Y-89478750D01*
X167307000Y-90678000D01*
X168656250Y-90678000D01*
X168815000Y-90519250D01*
X168815000Y-89828691D01*
X168718327Y-89595302D01*
X168539699Y-89416673D01*
X168306310Y-89320000D01*
X167465750Y-89320000D01*
X167307000Y-89478750D01*
X167053000Y-89478750D01*
X166894250Y-89320000D01*
X166053690Y-89320000D01*
X165820301Y-89416673D01*
X165641673Y-89595302D01*
X165545000Y-89828691D01*
X165545000Y-90519250D01*
X165703748Y-90677998D01*
X165545000Y-90677998D01*
X165545000Y-90745199D01*
X165460000Y-90660199D01*
X165460000Y-88399846D01*
X165474888Y-88324999D01*
X165460000Y-88250152D01*
X165460000Y-88250148D01*
X165415904Y-88028463D01*
X165247929Y-87777071D01*
X165184473Y-87734671D01*
X161510331Y-84060530D01*
X161467929Y-83997071D01*
X161294797Y-83881387D01*
X161469144Y-83392698D01*
X161441362Y-82837632D01*
X161386424Y-82705000D01*
X162975199Y-82705000D01*
X165588791Y-85318592D01*
X165515908Y-85685000D01*
X165631161Y-86264418D01*
X165959375Y-86755625D01*
X166450582Y-87083839D01*
X166883744Y-87170000D01*
X167476256Y-87170000D01*
X167909418Y-87083839D01*
X168400625Y-86755625D01*
X168728839Y-86264418D01*
X168844092Y-85685000D01*
X168728839Y-85105582D01*
X168409291Y-84627344D01*
X168539699Y-84573327D01*
X168718327Y-84394698D01*
X168815000Y-84161309D01*
X168815000Y-83470750D01*
X168656250Y-83312000D01*
X167307000Y-83312000D01*
X167307000Y-83332000D01*
X167053000Y-83332000D01*
X167053000Y-83312000D01*
X167033000Y-83312000D01*
X167033000Y-83058000D01*
X167053000Y-83058000D01*
X167053000Y-81858750D01*
X167307000Y-81858750D01*
X167307000Y-83058000D01*
X168656250Y-83058000D01*
X168815000Y-82899250D01*
X168815000Y-82208691D01*
X168718327Y-81975302D01*
X168539699Y-81796673D01*
X168306310Y-81700000D01*
X167465750Y-81700000D01*
X167307000Y-81858750D01*
X167053000Y-81858750D01*
X166894250Y-81700000D01*
X166053690Y-81700000D01*
X165820301Y-81796673D01*
X165641673Y-81975302D01*
X165545000Y-82208691D01*
X165545000Y-82899250D01*
X165703748Y-83057998D01*
X165545000Y-83057998D01*
X165545000Y-83125198D01*
X163880331Y-81460530D01*
X163837929Y-81397071D01*
X163586537Y-81229096D01*
X163364852Y-81185000D01*
X163364847Y-81185000D01*
X163290000Y-81170112D01*
X163215153Y-81185000D01*
X161348427Y-81185000D01*
X161457000Y-80922881D01*
X161457000Y-80367119D01*
X161244320Y-79853663D01*
X160851337Y-79460680D01*
X160644487Y-79375000D01*
X160851337Y-79289320D01*
X161244320Y-78896337D01*
X161457000Y-78382881D01*
X161457000Y-77827119D01*
X161360853Y-77595000D01*
X163805199Y-77595000D01*
X164759671Y-78549473D01*
X164802071Y-78612929D01*
X164865527Y-78655329D01*
X165053462Y-78780904D01*
X165101605Y-78790480D01*
X165275148Y-78825000D01*
X165275152Y-78825000D01*
X165350000Y-78839888D01*
X165424848Y-78825000D01*
X165751822Y-78825000D01*
X165959375Y-79135625D01*
X166450582Y-79463839D01*
X166883744Y-79550000D01*
X167476256Y-79550000D01*
X167909418Y-79463839D01*
X168400625Y-79135625D01*
X168728839Y-78644418D01*
X168844092Y-78065000D01*
X168728839Y-77485582D01*
X168409291Y-77007344D01*
X168539699Y-76953327D01*
X168718327Y-76774698D01*
X168815000Y-76541309D01*
X168815000Y-75850750D01*
X168656250Y-75692000D01*
X167307000Y-75692000D01*
X167307000Y-75712000D01*
X167053000Y-75712000D01*
X167053000Y-75692000D01*
X165703750Y-75692000D01*
X165545000Y-75850750D01*
X165545000Y-76541309D01*
X165641673Y-76774698D01*
X165820301Y-76953327D01*
X165950709Y-77007344D01*
X165751822Y-77305000D01*
X165664802Y-77305000D01*
X164710331Y-76350530D01*
X164667929Y-76287071D01*
X164416537Y-76119096D01*
X164194852Y-76075000D01*
X164194847Y-76075000D01*
X164120000Y-76060112D01*
X164045153Y-76075000D01*
X161360853Y-76075000D01*
X161457000Y-75842881D01*
X161457000Y-75287119D01*
X161295754Y-74897836D01*
X161377929Y-74842929D01*
X161420331Y-74779470D01*
X161611110Y-74588691D01*
X165545000Y-74588691D01*
X165545000Y-75279250D01*
X165703750Y-75438000D01*
X167053000Y-75438000D01*
X167053000Y-74238750D01*
X167307000Y-74238750D01*
X167307000Y-75438000D01*
X168656250Y-75438000D01*
X168815000Y-75279250D01*
X168815000Y-74588691D01*
X168718327Y-74355302D01*
X168539699Y-74176673D01*
X168306310Y-74080000D01*
X167465750Y-74080000D01*
X167307000Y-74238750D01*
X167053000Y-74238750D01*
X166894250Y-74080000D01*
X166053690Y-74080000D01*
X165820301Y-74176673D01*
X165641673Y-74355302D01*
X165545000Y-74588691D01*
X161611110Y-74588691D01*
X164994802Y-71205000D01*
X165751822Y-71205000D01*
X165959375Y-71515625D01*
X166450582Y-71843839D01*
X166883744Y-71930000D01*
X167476256Y-71930000D01*
X167909418Y-71843839D01*
X168400625Y-71515625D01*
X168728839Y-71024418D01*
X168844092Y-70445000D01*
X168728839Y-69865582D01*
X168409291Y-69387344D01*
X168539699Y-69333327D01*
X168718327Y-69154698D01*
X168815000Y-68921309D01*
X168815000Y-68230750D01*
X168656250Y-68072000D01*
X167307000Y-68072000D01*
X167307000Y-68092000D01*
X167053000Y-68092000D01*
X167053000Y-68072000D01*
X165703750Y-68072000D01*
X165545000Y-68230750D01*
X165545000Y-68921309D01*
X165641673Y-69154698D01*
X165820301Y-69333327D01*
X165950709Y-69387344D01*
X165751822Y-69685000D01*
X164754846Y-69685000D01*
X164679999Y-69670112D01*
X164605152Y-69685000D01*
X164605148Y-69685000D01*
X164383463Y-69729096D01*
X164132071Y-69897071D01*
X164089671Y-69960527D01*
X161411918Y-72638281D01*
X161244320Y-72233663D01*
X160851337Y-71840680D01*
X160644487Y-71755000D01*
X160851337Y-71669320D01*
X161244320Y-71276337D01*
X161457000Y-70762881D01*
X161457000Y-70207119D01*
X161244320Y-69693663D01*
X160851337Y-69300680D01*
X160644487Y-69215000D01*
X160851337Y-69129320D01*
X161244320Y-68736337D01*
X161457000Y-68222881D01*
X161457000Y-67667119D01*
X161244320Y-67153663D01*
X161059348Y-66968691D01*
X165545000Y-66968691D01*
X165545000Y-67659250D01*
X165703750Y-67818000D01*
X167053000Y-67818000D01*
X167053000Y-66618750D01*
X166894250Y-66460000D01*
X166053690Y-66460000D01*
X165820301Y-66556673D01*
X165641673Y-66735302D01*
X165545000Y-66968691D01*
X161059348Y-66968691D01*
X160851337Y-66760680D01*
X160337881Y-66548000D01*
X159782119Y-66548000D01*
X159268663Y-66760680D01*
X158875680Y-67153663D01*
X158663000Y-67667119D01*
X158663000Y-68222881D01*
X158875680Y-68736337D01*
X159268663Y-69129320D01*
X159475513Y-69215000D01*
X159268663Y-69300680D01*
X158875680Y-69693663D01*
X158663000Y-70207119D01*
X158663000Y-70762881D01*
X158875680Y-71276337D01*
X159268663Y-71669320D01*
X159475513Y-71755000D01*
X159268663Y-71840680D01*
X158875680Y-72233663D01*
X158862700Y-72265000D01*
X151914802Y-72265000D01*
X149410331Y-69760530D01*
X149367929Y-69697071D01*
X149116537Y-69529096D01*
X148894852Y-69485000D01*
X148894847Y-69485000D01*
X148820000Y-69470112D01*
X148745153Y-69485000D01*
X147194846Y-69485000D01*
X147119999Y-69470112D01*
X147045152Y-69485000D01*
X147045148Y-69485000D01*
X146823463Y-69529096D01*
X146572071Y-69697071D01*
X146529671Y-69760527D01*
X145435530Y-70854669D01*
X145372071Y-70897071D01*
X145204096Y-71148464D01*
X145160000Y-71370149D01*
X145160000Y-71370153D01*
X145145112Y-71445000D01*
X145160000Y-71519847D01*
X145160001Y-74921283D01*
X144983247Y-74656753D01*
X144940212Y-74627998D01*
X145055000Y-74350874D01*
X145055000Y-73939126D01*
X144897431Y-73558720D01*
X144606280Y-73267569D01*
X144225874Y-73110000D01*
X144059802Y-73110000D01*
X138582914Y-67633113D01*
X138384320Y-67153663D01*
X137991337Y-66760680D01*
X137477881Y-66548000D01*
X136922119Y-66548000D01*
X136408663Y-66760680D01*
X136015680Y-67153663D01*
X135803000Y-67667119D01*
X135803000Y-68222881D01*
X136015680Y-68736337D01*
X136408663Y-69129320D01*
X136615513Y-69215000D01*
X136408663Y-69300680D01*
X136015680Y-69693663D01*
X135803000Y-70207119D01*
X135803000Y-70762881D01*
X136015680Y-71276337D01*
X136408663Y-71669320D01*
X136615513Y-71755000D01*
X136408663Y-71840680D01*
X136015680Y-72233663D01*
X135803000Y-72747119D01*
X135803000Y-73302881D01*
X136015680Y-73816337D01*
X136408663Y-74209320D01*
X136615513Y-74295000D01*
X136408663Y-74380680D01*
X136015680Y-74773663D01*
X135803000Y-75287119D01*
X135803000Y-75842881D01*
X136015680Y-76356337D01*
X136408663Y-76749320D01*
X136615513Y-76835000D01*
X136408663Y-76920680D01*
X136015680Y-77313663D01*
X135803000Y-77827119D01*
X135803000Y-78382881D01*
X136015680Y-78896337D01*
X136408663Y-79289320D01*
X136615513Y-79375000D01*
X136408663Y-79460680D01*
X136015680Y-79853663D01*
X135803000Y-80367119D01*
X135803000Y-80922881D01*
X136015680Y-81436337D01*
X136408663Y-81829320D01*
X136615513Y-81915000D01*
X136408663Y-82000680D01*
X136015680Y-82393663D01*
X135803000Y-82907119D01*
X135803000Y-83462881D01*
X136015680Y-83976337D01*
X136408663Y-84369320D01*
X136615513Y-84455000D01*
X136408663Y-84540680D01*
X136015680Y-84933663D01*
X135803000Y-85447119D01*
X135803000Y-86002881D01*
X136015680Y-86516337D01*
X136408663Y-86909320D01*
X136615513Y-86995000D01*
X136408663Y-87080680D01*
X136015680Y-87473663D01*
X135803000Y-87987119D01*
X135803000Y-88542881D01*
X136015680Y-89056337D01*
X136408663Y-89449320D01*
X136599647Y-89528428D01*
X136468857Y-89582603D01*
X136399392Y-89824787D01*
X137200000Y-90625395D01*
X138000608Y-89824787D01*
X137931143Y-89582603D01*
X137790607Y-89532465D01*
X137991337Y-89449320D01*
X138384320Y-89056337D01*
X138597000Y-88542881D01*
X138597000Y-87987119D01*
X138384320Y-87473663D01*
X137991337Y-87080680D01*
X137784487Y-86995000D01*
X137991337Y-86909320D01*
X138384320Y-86516337D01*
X138597000Y-86002881D01*
X138597000Y-85447119D01*
X138384320Y-84933663D01*
X137991337Y-84540680D01*
X137784487Y-84455000D01*
X137991337Y-84369320D01*
X138384320Y-83976337D01*
X138597000Y-83462881D01*
X138597000Y-82907119D01*
X138384320Y-82393663D01*
X137991337Y-82000680D01*
X137784487Y-81915000D01*
X137991337Y-81829320D01*
X138384320Y-81436337D01*
X138597000Y-80922881D01*
X138597000Y-80367119D01*
X138384320Y-79853663D01*
X137991337Y-79460680D01*
X137784487Y-79375000D01*
X137991337Y-79289320D01*
X138384320Y-78896337D01*
X138597000Y-78382881D01*
X138597000Y-77827119D01*
X138384320Y-77313663D01*
X137991337Y-76920680D01*
X137784487Y-76835000D01*
X137991337Y-76749320D01*
X138384320Y-76356337D01*
X138597000Y-75842881D01*
X138597000Y-75287119D01*
X138384320Y-74773663D01*
X137991337Y-74380680D01*
X137784487Y-74295000D01*
X137991337Y-74209320D01*
X138384320Y-73816337D01*
X138597000Y-73302881D01*
X138597000Y-72747119D01*
X138384320Y-72233663D01*
X137991337Y-71840680D01*
X137784487Y-71755000D01*
X137991337Y-71669320D01*
X138384320Y-71276337D01*
X138597000Y-70762881D01*
X138597000Y-70207119D01*
X138384320Y-69693663D01*
X137991337Y-69300680D01*
X137784487Y-69215000D01*
X137947625Y-69147426D01*
X142985000Y-74184802D01*
X142985000Y-74350874D01*
X143142569Y-74731280D01*
X143181166Y-74769877D01*
X143154356Y-74810000D01*
X143148711Y-74810000D01*
X143106280Y-74767569D01*
X142725874Y-74610000D01*
X142314126Y-74610000D01*
X141933720Y-74767569D01*
X141642569Y-75058720D01*
X141485000Y-75439126D01*
X141485000Y-75850874D01*
X141642569Y-76231280D01*
X141760000Y-76348711D01*
X141760001Y-79504463D01*
X141745112Y-79579315D01*
X141760001Y-79654167D01*
X141804097Y-79875852D01*
X141972072Y-80127244D01*
X142035528Y-80169644D01*
X153060000Y-91194117D01*
X153060001Y-95520148D01*
X153045112Y-95595000D01*
X153060001Y-95669852D01*
X153104097Y-95891537D01*
X153272072Y-96142929D01*
X153335528Y-96185329D01*
X154860000Y-97709803D01*
X154860000Y-98370067D01*
X154774603Y-98415713D01*
X154693104Y-98470169D01*
X154675032Y-98485000D01*
X154323182Y-98485000D01*
X154300078Y-98368848D01*
X154108247Y-98081753D01*
X153821152Y-97889922D01*
X153482500Y-97822560D01*
X152907500Y-97822560D01*
X152568848Y-97889922D01*
X152320000Y-98056197D01*
X152071152Y-97889922D01*
X151732500Y-97822560D01*
X151157500Y-97822560D01*
X150818848Y-97889922D01*
X150531753Y-98081753D01*
X150462765Y-98185000D01*
X150377235Y-98185000D01*
X150308247Y-98081753D01*
X150021152Y-97889922D01*
X149682500Y-97822560D01*
X149107500Y-97822560D01*
X148768848Y-97889922D01*
X148600460Y-98002435D01*
X148529698Y-97931673D01*
X148296309Y-97835000D01*
X147930750Y-97835000D01*
X147772000Y-97993750D01*
X147772000Y-98818000D01*
X147792000Y-98818000D01*
X147792000Y-99072000D01*
X147772000Y-99072000D01*
X147772000Y-99896250D01*
X147930750Y-100055000D01*
X148296309Y-100055000D01*
X148529698Y-99958327D01*
X148600460Y-99887565D01*
X148768848Y-100000078D01*
X149107500Y-100067440D01*
X149682500Y-100067440D01*
X150021152Y-100000078D01*
X150308247Y-99808247D01*
X150377235Y-99705000D01*
X150462765Y-99705000D01*
X150531753Y-99808247D01*
X150818848Y-100000078D01*
X151157500Y-100067440D01*
X151732500Y-100067440D01*
X152071152Y-100000078D01*
X152320000Y-99833803D01*
X152568848Y-100000078D01*
X152907500Y-100067440D01*
X153482500Y-100067440D01*
X153796407Y-100005000D01*
X154244440Y-100005000D01*
X154252397Y-100045000D01*
X154222560Y-100195000D01*
X154222560Y-100578004D01*
X154158247Y-100481753D01*
X153871152Y-100289922D01*
X153532500Y-100222560D01*
X152957500Y-100222560D01*
X152618848Y-100289922D01*
X152370000Y-100456197D01*
X152121152Y-100289922D01*
X151782500Y-100222560D01*
X151207500Y-100222560D01*
X150868848Y-100289922D01*
X150581753Y-100481753D01*
X150512765Y-100585000D01*
X150477235Y-100585000D01*
X150408247Y-100481753D01*
X150121152Y-100289922D01*
X149782500Y-100222560D01*
X149207500Y-100222560D01*
X148868848Y-100289922D01*
X148700460Y-100402435D01*
X148629698Y-100331673D01*
X148396309Y-100235000D01*
X148030750Y-100235000D01*
X147872000Y-100393750D01*
X147872000Y-101218000D01*
X147892000Y-101218000D01*
X147892000Y-101472000D01*
X147872000Y-101472000D01*
X147872000Y-102296250D01*
X148030750Y-102455000D01*
X148396309Y-102455000D01*
X148629698Y-102358327D01*
X148700460Y-102287565D01*
X148868848Y-102400078D01*
X149046454Y-102435406D01*
X149029665Y-102460533D01*
X146835199Y-104655000D01*
X138025657Y-104655000D01*
X138290657Y-104390000D01*
X138512839Y-104390000D01*
X138600000Y-104407337D01*
X138687161Y-104390000D01*
X138687165Y-104390000D01*
X138945310Y-104338652D01*
X139238049Y-104143049D01*
X139287425Y-104069153D01*
X140394156Y-102962423D01*
X140468049Y-102913049D01*
X140663652Y-102620310D01*
X140715000Y-102362165D01*
X140715000Y-102362161D01*
X140732337Y-102275000D01*
X140715000Y-102187839D01*
X140715000Y-101630750D01*
X146585000Y-101630750D01*
X146585000Y-101946310D01*
X146681673Y-102179699D01*
X146860302Y-102358327D01*
X147093691Y-102455000D01*
X147459250Y-102455000D01*
X147618000Y-102296250D01*
X147618000Y-101472000D01*
X146743750Y-101472000D01*
X146585000Y-101630750D01*
X140715000Y-101630750D01*
X140715000Y-100743690D01*
X146585000Y-100743690D01*
X146585000Y-101059250D01*
X146743750Y-101218000D01*
X147618000Y-101218000D01*
X147618000Y-100393750D01*
X147459250Y-100235000D01*
X147093691Y-100235000D01*
X146860302Y-100331673D01*
X146681673Y-100510301D01*
X146585000Y-100743690D01*
X140715000Y-100743690D01*
X140715000Y-99230750D01*
X146485000Y-99230750D01*
X146485000Y-99546310D01*
X146581673Y-99779699D01*
X146760302Y-99958327D01*
X146993691Y-100055000D01*
X147359250Y-100055000D01*
X147518000Y-99896250D01*
X147518000Y-99072000D01*
X146643750Y-99072000D01*
X146485000Y-99230750D01*
X140715000Y-99230750D01*
X140715000Y-98343690D01*
X146485000Y-98343690D01*
X146485000Y-98659250D01*
X146643750Y-98818000D01*
X147518000Y-98818000D01*
X147518000Y-97993750D01*
X147359250Y-97835000D01*
X146993691Y-97835000D01*
X146760302Y-97931673D01*
X146581673Y-98110301D01*
X146485000Y-98343690D01*
X140715000Y-98343690D01*
X140715000Y-97831578D01*
X141791579Y-96755000D01*
X148951993Y-96755000D01*
X149314126Y-96905000D01*
X149725874Y-96905000D01*
X150106280Y-96747431D01*
X150397431Y-96456280D01*
X150555000Y-96075874D01*
X150555000Y-95664126D01*
X150397431Y-95283720D01*
X150106280Y-94992569D01*
X149725874Y-94835000D01*
X149314126Y-94835000D01*
X148951993Y-94985000D01*
X141512161Y-94985000D01*
X141425000Y-94967663D01*
X141337839Y-94985000D01*
X141337835Y-94985000D01*
X141079690Y-95036348D01*
X140860845Y-95182576D01*
X140860844Y-95182577D01*
X140786951Y-95231951D01*
X140737577Y-95305844D01*
X139265847Y-96777575D01*
X139191951Y-96826951D01*
X138996348Y-97119691D01*
X138945000Y-97377836D01*
X138945000Y-97377839D01*
X138927663Y-97465000D01*
X138945000Y-97552161D01*
X138945001Y-101908420D01*
X138262039Y-102591382D01*
X137991337Y-102320680D01*
X137800353Y-102241572D01*
X137931143Y-102187397D01*
X138000608Y-101945213D01*
X137200000Y-101144605D01*
X136399392Y-101945213D01*
X136468857Y-102187397D01*
X136609393Y-102237535D01*
X136408663Y-102320680D01*
X136015680Y-102713663D01*
X135803000Y-103227119D01*
X135803000Y-103782881D01*
X136015680Y-104296337D01*
X136374343Y-104655000D01*
X125984802Y-104655000D01*
X125453500Y-104123698D01*
X125453500Y-103599750D01*
X125250487Y-103109633D01*
X124875367Y-102734513D01*
X124385250Y-102531500D01*
X123854750Y-102531500D01*
X123364633Y-102734513D01*
X122994146Y-103105000D01*
X117625854Y-103105000D01*
X117255367Y-102734513D01*
X116765250Y-102531500D01*
X116234750Y-102531500D01*
X115744633Y-102734513D01*
X115369513Y-103109633D01*
X115330000Y-103205026D01*
X115330000Y-100989126D01*
X118335000Y-100989126D01*
X118335000Y-101400874D01*
X118492569Y-101781280D01*
X118783720Y-102072431D01*
X119164126Y-102230000D01*
X119575874Y-102230000D01*
X119938007Y-102080000D01*
X126682839Y-102080000D01*
X126770000Y-102097337D01*
X126857161Y-102080000D01*
X126857165Y-102080000D01*
X127115310Y-102028652D01*
X127408049Y-101833049D01*
X127457425Y-101759153D01*
X128459276Y-100757302D01*
X135790856Y-100757302D01*
X135818638Y-101312368D01*
X135977603Y-101696143D01*
X136219787Y-101765608D01*
X137020395Y-100965000D01*
X137379605Y-100965000D01*
X138180213Y-101765608D01*
X138422397Y-101696143D01*
X138609144Y-101172698D01*
X138581362Y-100617632D01*
X138422397Y-100233857D01*
X138180213Y-100164392D01*
X137379605Y-100965000D01*
X137020395Y-100965000D01*
X136219787Y-100164392D01*
X135977603Y-100233857D01*
X135790856Y-100757302D01*
X128459276Y-100757302D01*
X131861040Y-97355538D01*
X131933744Y-97370000D01*
X132226256Y-97370000D01*
X132659418Y-97283839D01*
X133150625Y-96955625D01*
X133478839Y-96464418D01*
X133594092Y-95885000D01*
X133478839Y-95305582D01*
X133150625Y-94814375D01*
X132659418Y-94486161D01*
X132226256Y-94400000D01*
X131933744Y-94400000D01*
X131500582Y-94486161D01*
X131009375Y-94814375D01*
X130994904Y-94836033D01*
X130928327Y-94675302D01*
X130749699Y-94496673D01*
X130516310Y-94400000D01*
X129825750Y-94400000D01*
X129667000Y-94558750D01*
X129667000Y-95758000D01*
X129687000Y-95758000D01*
X129687000Y-96012000D01*
X129667000Y-96012000D01*
X129667000Y-96032000D01*
X129413000Y-96032000D01*
X129413000Y-96012000D01*
X128213750Y-96012000D01*
X128055000Y-96170750D01*
X128055000Y-96861309D01*
X128151673Y-97094698D01*
X128330301Y-97273327D01*
X128563690Y-97370000D01*
X129254250Y-97370000D01*
X129412998Y-97211252D01*
X129412998Y-97300423D01*
X126403422Y-100310000D01*
X119938007Y-100310000D01*
X119575874Y-100160000D01*
X119164126Y-100160000D01*
X118783720Y-100317569D01*
X118492569Y-100608720D01*
X118335000Y-100989126D01*
X115330000Y-100989126D01*
X115330000Y-94908691D01*
X128055000Y-94908691D01*
X128055000Y-95599250D01*
X128213750Y-95758000D01*
X129413000Y-95758000D01*
X129413000Y-94558750D01*
X129254250Y-94400000D01*
X128563690Y-94400000D01*
X128330301Y-94496673D01*
X128151673Y-94675302D01*
X128055000Y-94908691D01*
X115330000Y-94908691D01*
X115330000Y-93067119D01*
X135803000Y-93067119D01*
X135803000Y-93622881D01*
X136015680Y-94136337D01*
X136408663Y-94529320D01*
X136615513Y-94615000D01*
X136408663Y-94700680D01*
X136015680Y-95093663D01*
X135803000Y-95607119D01*
X135803000Y-96162881D01*
X136015680Y-96676337D01*
X136408663Y-97069320D01*
X136615513Y-97155000D01*
X136408663Y-97240680D01*
X136015680Y-97633663D01*
X135803000Y-98147119D01*
X135803000Y-98702881D01*
X136015680Y-99216337D01*
X136408663Y-99609320D01*
X136599647Y-99688428D01*
X136468857Y-99742603D01*
X136399392Y-99984787D01*
X137200000Y-100785395D01*
X138000608Y-99984787D01*
X137931143Y-99742603D01*
X137790607Y-99692465D01*
X137991337Y-99609320D01*
X138384320Y-99216337D01*
X138597000Y-98702881D01*
X138597000Y-98147119D01*
X138384320Y-97633663D01*
X137991337Y-97240680D01*
X137784487Y-97155000D01*
X137991337Y-97069320D01*
X138384320Y-96676337D01*
X138597000Y-96162881D01*
X138597000Y-95607119D01*
X138384320Y-95093663D01*
X137991337Y-94700680D01*
X137784487Y-94615000D01*
X137991337Y-94529320D01*
X138290657Y-94230000D01*
X151351993Y-94230000D01*
X151714126Y-94380000D01*
X152125874Y-94380000D01*
X152506280Y-94222431D01*
X152797431Y-93931280D01*
X152955000Y-93550874D01*
X152955000Y-93139126D01*
X152797431Y-92758720D01*
X152506280Y-92467569D01*
X152125874Y-92310000D01*
X151714126Y-92310000D01*
X151351993Y-92460000D01*
X138290657Y-92460000D01*
X137991337Y-92160680D01*
X137800353Y-92081572D01*
X137931143Y-92027397D01*
X138000608Y-91785213D01*
X137200000Y-90984605D01*
X136399392Y-91785213D01*
X136468857Y-92027397D01*
X136609393Y-92077535D01*
X136408663Y-92160680D01*
X136015680Y-92553663D01*
X135803000Y-93067119D01*
X115330000Y-93067119D01*
X115330000Y-90230750D01*
X117135000Y-90230750D01*
X117135000Y-90921309D01*
X117231673Y-91154698D01*
X117410301Y-91333327D01*
X117643690Y-91430000D01*
X118334250Y-91430000D01*
X118493000Y-91271250D01*
X118493000Y-90072000D01*
X118747000Y-90072000D01*
X118747000Y-91271250D01*
X118905750Y-91430000D01*
X119596310Y-91430000D01*
X119829699Y-91333327D01*
X120008327Y-91154698D01*
X120105000Y-90921309D01*
X120105000Y-90230750D01*
X119946250Y-90072000D01*
X118747000Y-90072000D01*
X118493000Y-90072000D01*
X117293750Y-90072000D01*
X117135000Y-90230750D01*
X115330000Y-90230750D01*
X115330000Y-89945000D01*
X131105908Y-89945000D01*
X131221161Y-90524418D01*
X131549375Y-91015625D01*
X132040582Y-91343839D01*
X132473744Y-91430000D01*
X132766256Y-91430000D01*
X133199418Y-91343839D01*
X133690625Y-91015625D01*
X133970139Y-90597302D01*
X135790856Y-90597302D01*
X135818638Y-91152368D01*
X135977603Y-91536143D01*
X136219787Y-91605608D01*
X137020395Y-90805000D01*
X137379605Y-90805000D01*
X138180213Y-91605608D01*
X138422397Y-91536143D01*
X138609144Y-91012698D01*
X138581362Y-90457632D01*
X138422397Y-90073857D01*
X138180213Y-90004392D01*
X137379605Y-90805000D01*
X137020395Y-90805000D01*
X136219787Y-90004392D01*
X135977603Y-90073857D01*
X135790856Y-90597302D01*
X133970139Y-90597302D01*
X134018839Y-90524418D01*
X134134092Y-89945000D01*
X134018839Y-89365582D01*
X133690625Y-88874375D01*
X133199418Y-88546161D01*
X132766256Y-88460000D01*
X132473744Y-88460000D01*
X132040582Y-88546161D01*
X131549375Y-88874375D01*
X131221161Y-89365582D01*
X131105908Y-89945000D01*
X115330000Y-89945000D01*
X115330000Y-88968691D01*
X117135000Y-88968691D01*
X117135000Y-89659250D01*
X117293750Y-89818000D01*
X118493000Y-89818000D01*
X118493000Y-88618750D01*
X118747000Y-88618750D01*
X118747000Y-89818000D01*
X119946250Y-89818000D01*
X120105000Y-89659250D01*
X120105000Y-88968691D01*
X120008327Y-88735302D01*
X119829699Y-88556673D01*
X119596310Y-88460000D01*
X118905750Y-88460000D01*
X118747000Y-88618750D01*
X118493000Y-88618750D01*
X118334250Y-88460000D01*
X117643690Y-88460000D01*
X117410301Y-88556673D01*
X117231673Y-88735302D01*
X117135000Y-88968691D01*
X115330000Y-88968691D01*
X115330000Y-69976618D01*
X115400578Y-69185808D01*
X115601705Y-68450611D01*
X115929846Y-67762649D01*
X116374628Y-67143669D01*
X116921988Y-66613239D01*
X117554639Y-66188116D01*
X118252561Y-65881749D01*
X118999183Y-65702501D01*
X119646030Y-65655000D01*
X138550070Y-65655000D01*
X138725655Y-65689926D01*
G36*
X160253748Y-83170858D02*
X160239605Y-83185000D01*
X160253748Y-83199143D01*
X160074143Y-83378748D01*
X160060000Y-83364605D01*
X160045858Y-83378748D01*
X159866253Y-83199143D01*
X159880395Y-83185000D01*
X159866253Y-83170858D01*
X160045858Y-82991253D01*
X160060000Y-83005395D01*
X160074143Y-82991253D01*
X160253748Y-83170858D01*
X160253748Y-83170858D01*
G37*
X160253748Y-83170858D02*
X160239605Y-83185000D01*
X160253748Y-83199143D01*
X160074143Y-83378748D01*
X160060000Y-83364605D01*
X160045858Y-83378748D01*
X159866253Y-83199143D01*
X159880395Y-83185000D01*
X159866253Y-83170858D01*
X160045858Y-82991253D01*
X160060000Y-83005395D01*
X160074143Y-82991253D01*
X160253748Y-83170858D01*
G04 #@! TD*
M02*
