G04 #@! TF.GenerationSoftware,KiCad,Pcbnew,5.0.2-bee76a0~70~ubuntu16.04.1*
G04 #@! TF.CreationDate,2019-11-05T21:27:42+00:00*
G04 #@! TF.ProjectId,transmitter,7472616e-736d-4697-9474-65722e6b6963,rev?*
G04 #@! TF.SameCoordinates,Original*
G04 #@! TF.FileFunction,Legend,Top*
G04 #@! TF.FilePolarity,Positive*
%FSLAX46Y46*%
G04 Gerber Fmt 4.6, Leading zero omitted, Abs format (unit mm)*
G04 Created by KiCad (PCBNEW 5.0.2-bee76a0~70~ubuntu16.04.1) date Tue 05 Nov 2019 21:27:42 GMT*
%MOMM*%
%LPD*%
G01*
G04 APERTURE LIST*
%ADD10C,0.150000*%
%ADD11C,0.300000*%
%ADD12C,0.120000*%
G04 APERTURE END LIST*
D10*
X163193809Y-71042619D02*
X163231904Y-70928333D01*
X163231904Y-70737857D01*
X163193809Y-70661666D01*
X163155714Y-70623571D01*
X163079523Y-70585476D01*
X163003333Y-70585476D01*
X162927142Y-70623571D01*
X162889047Y-70661666D01*
X162850952Y-70737857D01*
X162812857Y-70890238D01*
X162774761Y-70966428D01*
X162736666Y-71004523D01*
X162660476Y-71042619D01*
X162584285Y-71042619D01*
X162508095Y-71004523D01*
X162470000Y-70966428D01*
X162431904Y-70890238D01*
X162431904Y-70699761D01*
X162470000Y-70585476D01*
X162431904Y-70090238D02*
X162431904Y-69937857D01*
X162470000Y-69861666D01*
X162546190Y-69785476D01*
X162698571Y-69747380D01*
X162965238Y-69747380D01*
X163117619Y-69785476D01*
X163193809Y-69861666D01*
X163231904Y-69937857D01*
X163231904Y-70090238D01*
X163193809Y-70166428D01*
X163117619Y-70242619D01*
X162965238Y-70280714D01*
X162698571Y-70280714D01*
X162546190Y-70242619D01*
X162470000Y-70166428D01*
X162431904Y-70090238D01*
X163231904Y-69404523D02*
X162431904Y-69404523D01*
X163231904Y-68642619D02*
X163231904Y-69023571D01*
X162431904Y-69023571D01*
X162431904Y-67423571D02*
X162431904Y-67575952D01*
X162470000Y-67652142D01*
X162508095Y-67690238D01*
X162622380Y-67766428D01*
X162774761Y-67804523D01*
X163079523Y-67804523D01*
X163155714Y-67766428D01*
X163193809Y-67728333D01*
X163231904Y-67652142D01*
X163231904Y-67499761D01*
X163193809Y-67423571D01*
X163155714Y-67385476D01*
X163079523Y-67347380D01*
X162889047Y-67347380D01*
X162812857Y-67385476D01*
X162774761Y-67423571D01*
X162736666Y-67499761D01*
X162736666Y-67652142D01*
X162774761Y-67728333D01*
X162812857Y-67766428D01*
X162889047Y-67804523D01*
X163193809Y-78542619D02*
X163231904Y-78428333D01*
X163231904Y-78237857D01*
X163193809Y-78161666D01*
X163155714Y-78123571D01*
X163079523Y-78085476D01*
X163003333Y-78085476D01*
X162927142Y-78123571D01*
X162889047Y-78161666D01*
X162850952Y-78237857D01*
X162812857Y-78390238D01*
X162774761Y-78466428D01*
X162736666Y-78504523D01*
X162660476Y-78542619D01*
X162584285Y-78542619D01*
X162508095Y-78504523D01*
X162470000Y-78466428D01*
X162431904Y-78390238D01*
X162431904Y-78199761D01*
X162470000Y-78085476D01*
X162431904Y-77590238D02*
X162431904Y-77437857D01*
X162470000Y-77361666D01*
X162546190Y-77285476D01*
X162698571Y-77247380D01*
X162965238Y-77247380D01*
X163117619Y-77285476D01*
X163193809Y-77361666D01*
X163231904Y-77437857D01*
X163231904Y-77590238D01*
X163193809Y-77666428D01*
X163117619Y-77742619D01*
X162965238Y-77780714D01*
X162698571Y-77780714D01*
X162546190Y-77742619D01*
X162470000Y-77666428D01*
X162431904Y-77590238D01*
X163231904Y-76904523D02*
X162431904Y-76904523D01*
X163231904Y-76142619D02*
X163231904Y-76523571D01*
X162431904Y-76523571D01*
X162431904Y-74885476D02*
X162431904Y-75266428D01*
X162812857Y-75304523D01*
X162774761Y-75266428D01*
X162736666Y-75190238D01*
X162736666Y-74999761D01*
X162774761Y-74923571D01*
X162812857Y-74885476D01*
X162889047Y-74847380D01*
X163079523Y-74847380D01*
X163155714Y-74885476D01*
X163193809Y-74923571D01*
X163231904Y-74999761D01*
X163231904Y-75190238D01*
X163193809Y-75266428D01*
X163155714Y-75304523D01*
X163193809Y-86292619D02*
X163231904Y-86178333D01*
X163231904Y-85987857D01*
X163193809Y-85911666D01*
X163155714Y-85873571D01*
X163079523Y-85835476D01*
X163003333Y-85835476D01*
X162927142Y-85873571D01*
X162889047Y-85911666D01*
X162850952Y-85987857D01*
X162812857Y-86140238D01*
X162774761Y-86216428D01*
X162736666Y-86254523D01*
X162660476Y-86292619D01*
X162584285Y-86292619D01*
X162508095Y-86254523D01*
X162470000Y-86216428D01*
X162431904Y-86140238D01*
X162431904Y-85949761D01*
X162470000Y-85835476D01*
X162431904Y-85340238D02*
X162431904Y-85187857D01*
X162470000Y-85111666D01*
X162546190Y-85035476D01*
X162698571Y-84997380D01*
X162965238Y-84997380D01*
X163117619Y-85035476D01*
X163193809Y-85111666D01*
X163231904Y-85187857D01*
X163231904Y-85340238D01*
X163193809Y-85416428D01*
X163117619Y-85492619D01*
X162965238Y-85530714D01*
X162698571Y-85530714D01*
X162546190Y-85492619D01*
X162470000Y-85416428D01*
X162431904Y-85340238D01*
X163231904Y-84654523D02*
X162431904Y-84654523D01*
X163231904Y-83892619D02*
X163231904Y-84273571D01*
X162431904Y-84273571D01*
X162698571Y-82673571D02*
X163231904Y-82673571D01*
X162393809Y-82864047D02*
X162965238Y-83054523D01*
X162965238Y-82559285D01*
X163193809Y-93792619D02*
X163231904Y-93678333D01*
X163231904Y-93487857D01*
X163193809Y-93411666D01*
X163155714Y-93373571D01*
X163079523Y-93335476D01*
X163003333Y-93335476D01*
X162927142Y-93373571D01*
X162889047Y-93411666D01*
X162850952Y-93487857D01*
X162812857Y-93640238D01*
X162774761Y-93716428D01*
X162736666Y-93754523D01*
X162660476Y-93792619D01*
X162584285Y-93792619D01*
X162508095Y-93754523D01*
X162470000Y-93716428D01*
X162431904Y-93640238D01*
X162431904Y-93449761D01*
X162470000Y-93335476D01*
X162431904Y-92840238D02*
X162431904Y-92687857D01*
X162470000Y-92611666D01*
X162546190Y-92535476D01*
X162698571Y-92497380D01*
X162965238Y-92497380D01*
X163117619Y-92535476D01*
X163193809Y-92611666D01*
X163231904Y-92687857D01*
X163231904Y-92840238D01*
X163193809Y-92916428D01*
X163117619Y-92992619D01*
X162965238Y-93030714D01*
X162698571Y-93030714D01*
X162546190Y-92992619D01*
X162470000Y-92916428D01*
X162431904Y-92840238D01*
X163231904Y-92154523D02*
X162431904Y-92154523D01*
X163231904Y-91392619D02*
X163231904Y-91773571D01*
X162431904Y-91773571D01*
X162431904Y-90592619D02*
X162431904Y-90097380D01*
X162736666Y-90364047D01*
X162736666Y-90249761D01*
X162774761Y-90173571D01*
X162812857Y-90135476D01*
X162889047Y-90097380D01*
X163079523Y-90097380D01*
X163155714Y-90135476D01*
X163193809Y-90173571D01*
X163231904Y-90249761D01*
X163231904Y-90478333D01*
X163193809Y-90554523D01*
X163155714Y-90592619D01*
X163193809Y-101542619D02*
X163231904Y-101428333D01*
X163231904Y-101237857D01*
X163193809Y-101161666D01*
X163155714Y-101123571D01*
X163079523Y-101085476D01*
X163003333Y-101085476D01*
X162927142Y-101123571D01*
X162889047Y-101161666D01*
X162850952Y-101237857D01*
X162812857Y-101390238D01*
X162774761Y-101466428D01*
X162736666Y-101504523D01*
X162660476Y-101542619D01*
X162584285Y-101542619D01*
X162508095Y-101504523D01*
X162470000Y-101466428D01*
X162431904Y-101390238D01*
X162431904Y-101199761D01*
X162470000Y-101085476D01*
X162431904Y-100590238D02*
X162431904Y-100437857D01*
X162470000Y-100361666D01*
X162546190Y-100285476D01*
X162698571Y-100247380D01*
X162965238Y-100247380D01*
X163117619Y-100285476D01*
X163193809Y-100361666D01*
X163231904Y-100437857D01*
X163231904Y-100590238D01*
X163193809Y-100666428D01*
X163117619Y-100742619D01*
X162965238Y-100780714D01*
X162698571Y-100780714D01*
X162546190Y-100742619D01*
X162470000Y-100666428D01*
X162431904Y-100590238D01*
X163231904Y-99904523D02*
X162431904Y-99904523D01*
X163231904Y-99142619D02*
X163231904Y-99523571D01*
X162431904Y-99523571D01*
X162508095Y-98304523D02*
X162470000Y-98266428D01*
X162431904Y-98190238D01*
X162431904Y-97999761D01*
X162470000Y-97923571D01*
X162508095Y-97885476D01*
X162584285Y-97847380D01*
X162660476Y-97847380D01*
X162774761Y-97885476D01*
X163231904Y-98342619D01*
X163231904Y-97847380D01*
X163193809Y-109292619D02*
X163231904Y-109178333D01*
X163231904Y-108987857D01*
X163193809Y-108911666D01*
X163155714Y-108873571D01*
X163079523Y-108835476D01*
X163003333Y-108835476D01*
X162927142Y-108873571D01*
X162889047Y-108911666D01*
X162850952Y-108987857D01*
X162812857Y-109140238D01*
X162774761Y-109216428D01*
X162736666Y-109254523D01*
X162660476Y-109292619D01*
X162584285Y-109292619D01*
X162508095Y-109254523D01*
X162470000Y-109216428D01*
X162431904Y-109140238D01*
X162431904Y-108949761D01*
X162470000Y-108835476D01*
X162431904Y-108340238D02*
X162431904Y-108187857D01*
X162470000Y-108111666D01*
X162546190Y-108035476D01*
X162698571Y-107997380D01*
X162965238Y-107997380D01*
X163117619Y-108035476D01*
X163193809Y-108111666D01*
X163231904Y-108187857D01*
X163231904Y-108340238D01*
X163193809Y-108416428D01*
X163117619Y-108492619D01*
X162965238Y-108530714D01*
X162698571Y-108530714D01*
X162546190Y-108492619D01*
X162470000Y-108416428D01*
X162431904Y-108340238D01*
X163231904Y-107654523D02*
X162431904Y-107654523D01*
X163231904Y-106892619D02*
X163231904Y-107273571D01*
X162431904Y-107273571D01*
X163231904Y-105597380D02*
X163231904Y-106054523D01*
X163231904Y-105825952D02*
X162431904Y-105825952D01*
X162546190Y-105902142D01*
X162622380Y-105978333D01*
X162660476Y-106054523D01*
X118181904Y-88240238D02*
X118181904Y-88087857D01*
X118220000Y-88011666D01*
X118296190Y-87935476D01*
X118448571Y-87897380D01*
X118715238Y-87897380D01*
X118867619Y-87935476D01*
X118943809Y-88011666D01*
X118981904Y-88087857D01*
X118981904Y-88240238D01*
X118943809Y-88316428D01*
X118867619Y-88392619D01*
X118715238Y-88430714D01*
X118448571Y-88430714D01*
X118296190Y-88392619D01*
X118220000Y-88316428D01*
X118181904Y-88240238D01*
X118181904Y-87554523D02*
X118829523Y-87554523D01*
X118905714Y-87516428D01*
X118943809Y-87478333D01*
X118981904Y-87402142D01*
X118981904Y-87249761D01*
X118943809Y-87173571D01*
X118905714Y-87135476D01*
X118829523Y-87097380D01*
X118181904Y-87097380D01*
X118181904Y-86830714D02*
X118181904Y-86373571D01*
X118981904Y-86602142D02*
X118181904Y-86602142D01*
X118677142Y-86106904D02*
X118677142Y-85497380D01*
X132181904Y-87990238D02*
X132181904Y-87837857D01*
X132220000Y-87761666D01*
X132296190Y-87685476D01*
X132448571Y-87647380D01*
X132715238Y-87647380D01*
X132867619Y-87685476D01*
X132943809Y-87761666D01*
X132981904Y-87837857D01*
X132981904Y-87990238D01*
X132943809Y-88066428D01*
X132867619Y-88142619D01*
X132715238Y-88180714D01*
X132448571Y-88180714D01*
X132296190Y-88142619D01*
X132220000Y-88066428D01*
X132181904Y-87990238D01*
X132181904Y-87304523D02*
X132829523Y-87304523D01*
X132905714Y-87266428D01*
X132943809Y-87228333D01*
X132981904Y-87152142D01*
X132981904Y-86999761D01*
X132943809Y-86923571D01*
X132905714Y-86885476D01*
X132829523Y-86847380D01*
X132181904Y-86847380D01*
X132181904Y-86580714D02*
X132181904Y-86123571D01*
X132981904Y-86352142D02*
X132181904Y-86352142D01*
X132677142Y-85856904D02*
X132677142Y-85247380D01*
X132981904Y-85552142D02*
X132372380Y-85552142D01*
X130231904Y-109042619D02*
X129431904Y-109042619D01*
X129431904Y-108737857D01*
X129470000Y-108661666D01*
X129508095Y-108623571D01*
X129584285Y-108585476D01*
X129698571Y-108585476D01*
X129774761Y-108623571D01*
X129812857Y-108661666D01*
X129850952Y-108737857D01*
X129850952Y-109042619D01*
X129431904Y-108090238D02*
X129431904Y-107937857D01*
X129470000Y-107861666D01*
X129546190Y-107785476D01*
X129698571Y-107747380D01*
X129965238Y-107747380D01*
X130117619Y-107785476D01*
X130193809Y-107861666D01*
X130231904Y-107937857D01*
X130231904Y-108090238D01*
X130193809Y-108166428D01*
X130117619Y-108242619D01*
X129965238Y-108280714D01*
X129698571Y-108280714D01*
X129546190Y-108242619D01*
X129470000Y-108166428D01*
X129431904Y-108090238D01*
X129431904Y-107480714D02*
X130231904Y-107290238D01*
X129660476Y-107137857D01*
X130231904Y-106985476D01*
X129431904Y-106795000D01*
X129812857Y-106490238D02*
X129812857Y-106223571D01*
X130231904Y-106109285D02*
X130231904Y-106490238D01*
X129431904Y-106490238D01*
X129431904Y-106109285D01*
X130231904Y-105309285D02*
X129850952Y-105575952D01*
X130231904Y-105766428D02*
X129431904Y-105766428D01*
X129431904Y-105461666D01*
X129470000Y-105385476D01*
X129508095Y-105347380D01*
X129584285Y-105309285D01*
X129698571Y-105309285D01*
X129774761Y-105347380D01*
X129812857Y-105385476D01*
X129850952Y-105461666D01*
X129850952Y-105766428D01*
X130193809Y-102621190D02*
X130231904Y-102506904D01*
X130231904Y-102316428D01*
X130193809Y-102240238D01*
X130155714Y-102202142D01*
X130079523Y-102164047D01*
X130003333Y-102164047D01*
X129927142Y-102202142D01*
X129889047Y-102240238D01*
X129850952Y-102316428D01*
X129812857Y-102468809D01*
X129774761Y-102545000D01*
X129736666Y-102583095D01*
X129660476Y-102621190D01*
X129584285Y-102621190D01*
X129508095Y-102583095D01*
X129470000Y-102545000D01*
X129431904Y-102468809D01*
X129431904Y-102278333D01*
X129470000Y-102164047D01*
X130231904Y-101440238D02*
X130231904Y-101821190D01*
X129431904Y-101821190D01*
X129812857Y-101173571D02*
X129812857Y-100906904D01*
X130231904Y-100792619D02*
X130231904Y-101173571D01*
X129431904Y-101173571D01*
X129431904Y-100792619D01*
X129812857Y-100449761D02*
X129812857Y-100183095D01*
X130231904Y-100068809D02*
X130231904Y-100449761D01*
X129431904Y-100449761D01*
X129431904Y-100068809D01*
X130231904Y-99725952D02*
X129431904Y-99725952D01*
X129431904Y-99421190D01*
X129470000Y-99345000D01*
X129508095Y-99306904D01*
X129584285Y-99268809D01*
X129698571Y-99268809D01*
X129774761Y-99306904D01*
X129812857Y-99345000D01*
X129850952Y-99421190D01*
X129850952Y-99725952D01*
X128970000Y-93954523D02*
X128931904Y-94030714D01*
X128931904Y-94145000D01*
X128970000Y-94259285D01*
X129046190Y-94335476D01*
X129122380Y-94373571D01*
X129274761Y-94411666D01*
X129389047Y-94411666D01*
X129541428Y-94373571D01*
X129617619Y-94335476D01*
X129693809Y-94259285D01*
X129731904Y-94145000D01*
X129731904Y-94068809D01*
X129693809Y-93954523D01*
X129655714Y-93916428D01*
X129389047Y-93916428D01*
X129389047Y-94068809D01*
X129731904Y-93573571D02*
X128931904Y-93573571D01*
X129731904Y-93116428D01*
X128931904Y-93116428D01*
X129731904Y-92735476D02*
X128931904Y-92735476D01*
X128931904Y-92545000D01*
X128970000Y-92430714D01*
X129046190Y-92354523D01*
X129122380Y-92316428D01*
X129274761Y-92278333D01*
X129389047Y-92278333D01*
X129541428Y-92316428D01*
X129617619Y-92354523D01*
X129693809Y-92430714D01*
X129731904Y-92545000D01*
X129731904Y-92735476D01*
X131681904Y-94185476D02*
X131681904Y-93690238D01*
X131986666Y-93956904D01*
X131986666Y-93842619D01*
X132024761Y-93766428D01*
X132062857Y-93728333D01*
X132139047Y-93690238D01*
X132329523Y-93690238D01*
X132405714Y-93728333D01*
X132443809Y-93766428D01*
X132481904Y-93842619D01*
X132481904Y-94071190D01*
X132443809Y-94147380D01*
X132405714Y-94185476D01*
X131681904Y-93461666D02*
X132481904Y-93195000D01*
X131681904Y-92928333D01*
X131681904Y-92737857D02*
X131681904Y-92242619D01*
X131986666Y-92509285D01*
X131986666Y-92395000D01*
X132024761Y-92318809D01*
X132062857Y-92280714D01*
X132139047Y-92242619D01*
X132329523Y-92242619D01*
X132405714Y-92280714D01*
X132443809Y-92318809D01*
X132481904Y-92395000D01*
X132481904Y-92623571D01*
X132443809Y-92699761D01*
X132405714Y-92737857D01*
D11*
X121798571Y-82280714D02*
X121798571Y-81423571D01*
X123298571Y-81852142D02*
X121798571Y-81852142D01*
X123298571Y-80923571D02*
X121798571Y-80923571D01*
X121798571Y-80352142D01*
X121870000Y-80209285D01*
X121941428Y-80137857D01*
X122084285Y-80066428D01*
X122298571Y-80066428D01*
X122441428Y-80137857D01*
X122512857Y-80209285D01*
X122584285Y-80352142D01*
X122584285Y-80923571D01*
X122298571Y-78780714D02*
X123298571Y-78780714D01*
X121727142Y-79137857D02*
X122798571Y-79495000D01*
X122798571Y-78566428D01*
X121798571Y-77709285D02*
X121798571Y-77566428D01*
X121870000Y-77423571D01*
X121941428Y-77352142D01*
X122084285Y-77280714D01*
X122370000Y-77209285D01*
X122727142Y-77209285D01*
X123012857Y-77280714D01*
X123155714Y-77352142D01*
X123227142Y-77423571D01*
X123298571Y-77566428D01*
X123298571Y-77709285D01*
X123227142Y-77852142D01*
X123155714Y-77923571D01*
X123012857Y-77995000D01*
X122727142Y-78066428D01*
X122370000Y-78066428D01*
X122084285Y-77995000D01*
X121941428Y-77923571D01*
X121870000Y-77852142D01*
X121798571Y-77709285D01*
X121798571Y-75852142D02*
X121798571Y-76566428D01*
X122512857Y-76637857D01*
X122441428Y-76566428D01*
X122370000Y-76423571D01*
X122370000Y-76066428D01*
X122441428Y-75923571D01*
X122512857Y-75852142D01*
X122655714Y-75780714D01*
X123012857Y-75780714D01*
X123155714Y-75852142D01*
X123227142Y-75923571D01*
X123298571Y-76066428D01*
X123298571Y-76423571D01*
X123227142Y-76566428D01*
X123155714Y-76637857D01*
X121798571Y-74495000D02*
X121798571Y-74780714D01*
X121870000Y-74923571D01*
X121941428Y-74995000D01*
X122155714Y-75137857D01*
X122441428Y-75209285D01*
X123012857Y-75209285D01*
X123155714Y-75137857D01*
X123227142Y-75066428D01*
X123298571Y-74923571D01*
X123298571Y-74637857D01*
X123227142Y-74495000D01*
X123155714Y-74423571D01*
X123012857Y-74352142D01*
X122655714Y-74352142D01*
X122512857Y-74423571D01*
X122441428Y-74495000D01*
X122370000Y-74637857D01*
X122370000Y-74923571D01*
X122441428Y-75066428D01*
X122512857Y-75137857D01*
X122655714Y-75209285D01*
D10*
G04 #@! TO.C,U1*
X142620000Y-69445000D02*
X154620000Y-69445000D01*
X154620000Y-69445000D02*
X154620000Y-84445000D01*
X154620000Y-84445000D02*
X142620000Y-84445000D01*
X142620000Y-84445000D02*
X142620000Y-69445000D01*
X150630000Y-67270000D02*
X143010000Y-67270000D01*
X143010000Y-67270000D02*
X143010000Y-62190000D01*
X143010000Y-62190000D02*
X144280000Y-62190000D01*
X144280000Y-62190000D02*
X144280000Y-66000000D01*
X144280000Y-66000000D02*
X145550000Y-66000000D01*
X145550000Y-66000000D02*
X145550000Y-62190000D01*
X145550000Y-62190000D02*
X146820000Y-62190000D01*
X146820000Y-62190000D02*
X146820000Y-66000000D01*
X146820000Y-66000000D02*
X148090000Y-66000000D01*
X148090000Y-66000000D02*
X148090000Y-62190000D01*
X148090000Y-62190000D02*
X149360000Y-62190000D01*
X149360000Y-62190000D02*
X149360000Y-66000000D01*
X149360000Y-66000000D02*
X150630000Y-66000000D01*
X150630000Y-66000000D02*
X150630000Y-62190000D01*
X150630000Y-62190000D02*
X154440000Y-62190000D01*
X144780000Y-111340000D02*
X152400000Y-111340000D01*
X152400000Y-111340000D02*
X152400000Y-104990000D01*
X152400000Y-104990000D02*
X144780000Y-104990000D01*
X144780000Y-104990000D02*
X144780000Y-111340000D01*
X160120000Y-107945000D02*
G75*
G03X160120000Y-107945000I-1500000J0D01*
G01*
X140200000Y-107945000D02*
G75*
G03X140200000Y-107945000I-1500000J0D01*
G01*
X140200000Y-63445000D02*
G75*
G03X140200000Y-63445000I-1500000J0D01*
G01*
X160120000Y-63445000D02*
G75*
G03X160120000Y-63445000I-1500000J0D01*
G01*
X161120000Y-60945000D02*
X136200000Y-60945000D01*
X136200000Y-60945000D02*
X136200000Y-110445000D01*
X136200000Y-110445000D02*
X161200000Y-110445000D01*
X161120000Y-110445000D02*
X161120000Y-60945000D01*
D12*
G04 #@! TO.C,SW2*
X133410000Y-104715000D02*
X130750000Y-104715000D01*
X133410000Y-107315000D02*
X133410000Y-104715000D01*
X130750000Y-107315000D02*
X130750000Y-104715000D01*
X133410000Y-107315000D02*
X130750000Y-107315000D01*
X133410000Y-108585000D02*
X133410000Y-109915000D01*
X133410000Y-109915000D02*
X132080000Y-109915000D01*
G04 #@! TO.C,J4*
X133990000Y-91275000D02*
X133990000Y-88615000D01*
X131390000Y-91275000D02*
X133990000Y-91275000D01*
X131390000Y-88615000D02*
X133990000Y-88615000D01*
X131390000Y-91275000D02*
X131390000Y-88615000D01*
X118620000Y-91275000D02*
X117290000Y-91275000D01*
X117290000Y-91275000D02*
X117290000Y-89945000D01*
G04 #@! TO.C,C2*
X154610000Y-71773733D02*
X154610000Y-72116267D01*
X155630000Y-71773733D02*
X155630000Y-72116267D01*
G04 #@! TO.C,F1*
X124410000Y-107731252D02*
X124410000Y-104958748D01*
X127830000Y-107731252D02*
X127830000Y-104958748D01*
G04 #@! TO.C,C1*
X157630000Y-71773733D02*
X157630000Y-72116267D01*
X156610000Y-71773733D02*
X156610000Y-72116267D01*
G04 #@! TO.C,C3*
X142248733Y-104855000D02*
X142591267Y-104855000D01*
X142248733Y-103835000D02*
X142591267Y-103835000D01*
G04 #@! TO.C,C4*
X142591267Y-97255000D02*
X142248733Y-97255000D01*
X142591267Y-96235000D02*
X142248733Y-96235000D01*
G04 #@! TO.C,R1*
X147543733Y-99915000D02*
X147886267Y-99915000D01*
X147543733Y-100935000D02*
X147886267Y-100935000D01*
G04 #@! TO.C,R2*
X147886267Y-101665000D02*
X147543733Y-101665000D01*
X147886267Y-102685000D02*
X147543733Y-102685000D01*
G04 #@! TO.C,R3*
X156381267Y-76075000D02*
X156038733Y-76075000D01*
X156381267Y-75055000D02*
X156038733Y-75055000D01*
G04 #@! TO.C,R4*
X156381267Y-77595000D02*
X156038733Y-77595000D01*
X156381267Y-78615000D02*
X156038733Y-78615000D01*
G04 #@! TO.C,R5*
X156381267Y-81155000D02*
X156038733Y-81155000D01*
X156381267Y-80135000D02*
X156038733Y-80135000D01*
G04 #@! TO.C,SW1*
X133410000Y-98365000D02*
X130750000Y-98365000D01*
X133410000Y-100965000D02*
X133410000Y-98365000D01*
X130750000Y-100965000D02*
X130750000Y-98365000D01*
X133410000Y-100965000D02*
X130750000Y-100965000D01*
X133410000Y-102235000D02*
X133410000Y-103565000D01*
X133410000Y-103565000D02*
X132080000Y-103565000D01*
G04 #@! TO.C,U2*
X140940000Y-99245000D02*
X140940000Y-98045000D01*
X140940000Y-98045000D02*
X143640000Y-98045000D01*
X144940000Y-102845000D02*
X140940000Y-102845000D01*
X140940000Y-102845000D02*
X140940000Y-101645000D01*
G04 #@! TO.C,U3*
X149590000Y-71695000D02*
G75*
G02X147590000Y-71695000I-1000000J0D01*
G01*
X147590000Y-71695000D02*
X145940000Y-71695000D01*
X145940000Y-71695000D02*
X145940000Y-92135000D01*
X145940000Y-92135000D02*
X151240000Y-92135000D01*
X151240000Y-92135000D02*
X151240000Y-71695000D01*
X151240000Y-71695000D02*
X149590000Y-71695000D01*
G04 #@! TO.C,R6*
X156381267Y-82675000D02*
X156038733Y-82675000D01*
X156381267Y-83695000D02*
X156038733Y-83695000D01*
G04 #@! TO.C,R7*
X140798733Y-72515000D02*
X141141267Y-72515000D01*
X140798733Y-73535000D02*
X141141267Y-73535000D01*
G04 #@! TO.C,R8*
X140798733Y-76075000D02*
X141141267Y-76075000D01*
X140798733Y-75055000D02*
X141141267Y-75055000D01*
G04 #@! TO.C,J1*
X169640000Y-65385000D02*
X163670000Y-65385000D01*
X163670000Y-65385000D02*
X163670000Y-73005000D01*
X163670000Y-73005000D02*
X169640000Y-73005000D01*
X169640000Y-73005000D02*
X169640000Y-65385000D01*
X169630000Y-68695000D02*
X168880000Y-68695000D01*
X168880000Y-68695000D02*
X168880000Y-69695000D01*
X168880000Y-69695000D02*
X169630000Y-69695000D01*
X169630000Y-69695000D02*
X169630000Y-68695000D01*
X169630000Y-65395000D02*
X168880000Y-65395000D01*
X168880000Y-65395000D02*
X168880000Y-67195000D01*
X168880000Y-67195000D02*
X169630000Y-67195000D01*
X169630000Y-67195000D02*
X169630000Y-65395000D01*
X169630000Y-71195000D02*
X168880000Y-71195000D01*
X168880000Y-71195000D02*
X168880000Y-72995000D01*
X168880000Y-72995000D02*
X169630000Y-72995000D01*
X169630000Y-72995000D02*
X169630000Y-71195000D01*
X167380000Y-65395000D02*
X167380000Y-66145000D01*
X167380000Y-66145000D02*
X164430000Y-66145000D01*
X164430000Y-66145000D02*
X164430000Y-69195000D01*
X167380000Y-72995000D02*
X167380000Y-72245000D01*
X167380000Y-72245000D02*
X164430000Y-72245000D01*
X164430000Y-72245000D02*
X164430000Y-69195000D01*
X169930000Y-66345000D02*
X169930000Y-65095000D01*
X169930000Y-65095000D02*
X168680000Y-65095000D01*
G04 #@! TO.C,J2*
X169930000Y-72715000D02*
X168680000Y-72715000D01*
X169930000Y-73965000D02*
X169930000Y-72715000D01*
X164430000Y-79865000D02*
X164430000Y-76815000D01*
X167380000Y-79865000D02*
X164430000Y-79865000D01*
X167380000Y-80615000D02*
X167380000Y-79865000D01*
X164430000Y-73765000D02*
X164430000Y-76815000D01*
X167380000Y-73765000D02*
X164430000Y-73765000D01*
X167380000Y-73015000D02*
X167380000Y-73765000D01*
X169630000Y-80615000D02*
X169630000Y-78815000D01*
X168880000Y-80615000D02*
X169630000Y-80615000D01*
X168880000Y-78815000D02*
X168880000Y-80615000D01*
X169630000Y-78815000D02*
X168880000Y-78815000D01*
X169630000Y-74815000D02*
X169630000Y-73015000D01*
X168880000Y-74815000D02*
X169630000Y-74815000D01*
X168880000Y-73015000D02*
X168880000Y-74815000D01*
X169630000Y-73015000D02*
X168880000Y-73015000D01*
X169630000Y-77315000D02*
X169630000Y-76315000D01*
X168880000Y-77315000D02*
X169630000Y-77315000D01*
X168880000Y-76315000D02*
X168880000Y-77315000D01*
X169630000Y-76315000D02*
X168880000Y-76315000D01*
X169640000Y-80625000D02*
X169640000Y-73005000D01*
X163670000Y-80625000D02*
X169640000Y-80625000D01*
X163670000Y-73005000D02*
X163670000Y-80625000D01*
X169640000Y-73005000D02*
X163670000Y-73005000D01*
G04 #@! TO.C,J5*
X169640000Y-80625000D02*
X163670000Y-80625000D01*
X163670000Y-80625000D02*
X163670000Y-88245000D01*
X163670000Y-88245000D02*
X169640000Y-88245000D01*
X169640000Y-88245000D02*
X169640000Y-80625000D01*
X169630000Y-83935000D02*
X168880000Y-83935000D01*
X168880000Y-83935000D02*
X168880000Y-84935000D01*
X168880000Y-84935000D02*
X169630000Y-84935000D01*
X169630000Y-84935000D02*
X169630000Y-83935000D01*
X169630000Y-80635000D02*
X168880000Y-80635000D01*
X168880000Y-80635000D02*
X168880000Y-82435000D01*
X168880000Y-82435000D02*
X169630000Y-82435000D01*
X169630000Y-82435000D02*
X169630000Y-80635000D01*
X169630000Y-86435000D02*
X168880000Y-86435000D01*
X168880000Y-86435000D02*
X168880000Y-88235000D01*
X168880000Y-88235000D02*
X169630000Y-88235000D01*
X169630000Y-88235000D02*
X169630000Y-86435000D01*
X167380000Y-80635000D02*
X167380000Y-81385000D01*
X167380000Y-81385000D02*
X164430000Y-81385000D01*
X164430000Y-81385000D02*
X164430000Y-84435000D01*
X167380000Y-88235000D02*
X167380000Y-87485000D01*
X167380000Y-87485000D02*
X164430000Y-87485000D01*
X164430000Y-87485000D02*
X164430000Y-84435000D01*
X169930000Y-81585000D02*
X169930000Y-80335000D01*
X169930000Y-80335000D02*
X168680000Y-80335000D01*
G04 #@! TO.C,J6*
X169930000Y-87955000D02*
X168680000Y-87955000D01*
X169930000Y-89205000D02*
X169930000Y-87955000D01*
X164430000Y-95105000D02*
X164430000Y-92055000D01*
X167380000Y-95105000D02*
X164430000Y-95105000D01*
X167380000Y-95855000D02*
X167380000Y-95105000D01*
X164430000Y-89005000D02*
X164430000Y-92055000D01*
X167380000Y-89005000D02*
X164430000Y-89005000D01*
X167380000Y-88255000D02*
X167380000Y-89005000D01*
X169630000Y-95855000D02*
X169630000Y-94055000D01*
X168880000Y-95855000D02*
X169630000Y-95855000D01*
X168880000Y-94055000D02*
X168880000Y-95855000D01*
X169630000Y-94055000D02*
X168880000Y-94055000D01*
X169630000Y-90055000D02*
X169630000Y-88255000D01*
X168880000Y-90055000D02*
X169630000Y-90055000D01*
X168880000Y-88255000D02*
X168880000Y-90055000D01*
X169630000Y-88255000D02*
X168880000Y-88255000D01*
X169630000Y-92555000D02*
X169630000Y-91555000D01*
X168880000Y-92555000D02*
X169630000Y-92555000D01*
X168880000Y-91555000D02*
X168880000Y-92555000D01*
X169630000Y-91555000D02*
X168880000Y-91555000D01*
X169640000Y-95865000D02*
X169640000Y-88245000D01*
X163670000Y-95865000D02*
X169640000Y-95865000D01*
X163670000Y-88245000D02*
X163670000Y-95865000D01*
X169640000Y-88245000D02*
X163670000Y-88245000D01*
G04 #@! TO.C,J7*
X169640000Y-95865000D02*
X163670000Y-95865000D01*
X163670000Y-95865000D02*
X163670000Y-103485000D01*
X163670000Y-103485000D02*
X169640000Y-103485000D01*
X169640000Y-103485000D02*
X169640000Y-95865000D01*
X169630000Y-99175000D02*
X168880000Y-99175000D01*
X168880000Y-99175000D02*
X168880000Y-100175000D01*
X168880000Y-100175000D02*
X169630000Y-100175000D01*
X169630000Y-100175000D02*
X169630000Y-99175000D01*
X169630000Y-95875000D02*
X168880000Y-95875000D01*
X168880000Y-95875000D02*
X168880000Y-97675000D01*
X168880000Y-97675000D02*
X169630000Y-97675000D01*
X169630000Y-97675000D02*
X169630000Y-95875000D01*
X169630000Y-101675000D02*
X168880000Y-101675000D01*
X168880000Y-101675000D02*
X168880000Y-103475000D01*
X168880000Y-103475000D02*
X169630000Y-103475000D01*
X169630000Y-103475000D02*
X169630000Y-101675000D01*
X167380000Y-95875000D02*
X167380000Y-96625000D01*
X167380000Y-96625000D02*
X164430000Y-96625000D01*
X164430000Y-96625000D02*
X164430000Y-99675000D01*
X167380000Y-103475000D02*
X167380000Y-102725000D01*
X167380000Y-102725000D02*
X164430000Y-102725000D01*
X164430000Y-102725000D02*
X164430000Y-99675000D01*
X169930000Y-96825000D02*
X169930000Y-95575000D01*
X169930000Y-95575000D02*
X168680000Y-95575000D01*
G04 #@! TO.C,J8*
X169640000Y-103485000D02*
X163670000Y-103485000D01*
X163670000Y-103485000D02*
X163670000Y-111105000D01*
X163670000Y-111105000D02*
X169640000Y-111105000D01*
X169640000Y-111105000D02*
X169640000Y-103485000D01*
X169630000Y-106795000D02*
X168880000Y-106795000D01*
X168880000Y-106795000D02*
X168880000Y-107795000D01*
X168880000Y-107795000D02*
X169630000Y-107795000D01*
X169630000Y-107795000D02*
X169630000Y-106795000D01*
X169630000Y-103495000D02*
X168880000Y-103495000D01*
X168880000Y-103495000D02*
X168880000Y-105295000D01*
X168880000Y-105295000D02*
X169630000Y-105295000D01*
X169630000Y-105295000D02*
X169630000Y-103495000D01*
X169630000Y-109295000D02*
X168880000Y-109295000D01*
X168880000Y-109295000D02*
X168880000Y-111095000D01*
X168880000Y-111095000D02*
X169630000Y-111095000D01*
X169630000Y-111095000D02*
X169630000Y-109295000D01*
X167380000Y-103495000D02*
X167380000Y-104245000D01*
X167380000Y-104245000D02*
X164430000Y-104245000D01*
X164430000Y-104245000D02*
X164430000Y-107295000D01*
X167380000Y-111095000D02*
X167380000Y-110345000D01*
X167380000Y-110345000D02*
X164430000Y-110345000D01*
X164430000Y-110345000D02*
X164430000Y-107295000D01*
X169930000Y-104445000D02*
X169930000Y-103195000D01*
X169930000Y-103195000D02*
X168680000Y-103195000D01*
G04 #@! TO.C,J3*
X133410000Y-97215000D02*
X133410000Y-94555000D01*
X130810000Y-97215000D02*
X133410000Y-97215000D01*
X130810000Y-94555000D02*
X133410000Y-94555000D01*
X130810000Y-97215000D02*
X130810000Y-94555000D01*
X129540000Y-97215000D02*
X128210000Y-97215000D01*
X128210000Y-97215000D02*
X128210000Y-95885000D01*
D10*
G04 #@! TO.C,REF\002A\002A*
X121974214Y-100115000D02*
G75*
G03X121974214Y-100115000I-1414214J0D01*
G01*
X119430000Y-98825000D02*
X119540000Y-99055000D01*
X119350000Y-98635000D02*
X119430000Y-98825000D01*
X119200000Y-98485000D02*
X119350000Y-98635000D01*
X119010000Y-98445000D02*
X119200000Y-98485000D01*
X118660000Y-98485000D02*
X119010000Y-98445000D01*
X118360000Y-98635000D02*
X118660000Y-98485000D01*
X118210000Y-99015000D02*
X118360000Y-98635000D01*
X118250000Y-99395000D02*
X118210000Y-99015000D01*
X118550000Y-99745000D02*
X118250000Y-99395000D01*
X118740000Y-99975000D02*
X118550000Y-99745000D01*
X119120000Y-100125000D02*
X118740000Y-99975000D01*
X119960000Y-101455000D02*
X120000000Y-101455000D01*
X119960000Y-101535000D02*
X119960000Y-101455000D01*
X119920000Y-101765000D02*
X119960000Y-101535000D01*
X119770000Y-102025000D02*
X119920000Y-101765000D01*
X119350000Y-102215000D02*
X119770000Y-102025000D01*
X118740000Y-102105000D02*
X119350000Y-102215000D01*
X118440000Y-101805000D02*
X118740000Y-102105000D01*
X118280000Y-101385000D02*
X118440000Y-101805000D01*
X118360000Y-100805000D02*
X118280000Y-101385000D01*
X118550000Y-100465000D02*
X118360000Y-100805000D01*
X119160000Y-100125000D02*
X118550000Y-100465000D01*
X121410000Y-101415000D02*
X121410000Y-101345000D01*
X121710000Y-101685000D02*
X121410000Y-101415000D01*
X121830000Y-101875000D02*
X121710000Y-101685000D01*
X121830000Y-102255000D02*
X121830000Y-101875000D01*
X121520000Y-102605000D02*
X121830000Y-102255000D01*
X121290000Y-102675000D02*
X121520000Y-102605000D01*
X121030000Y-102675000D02*
X121290000Y-102675000D01*
X120760000Y-102605000D02*
X121030000Y-102675000D01*
X120460000Y-102445000D02*
X120760000Y-102605000D01*
X120190000Y-102025000D02*
X120460000Y-102445000D01*
X119960000Y-101495000D02*
X120190000Y-102025000D01*
X122250000Y-99785000D02*
X121980000Y-99785000D01*
X122590000Y-99855000D02*
X122250000Y-99785000D01*
X122930000Y-99975000D02*
X122590000Y-99855000D01*
X123280000Y-100195000D02*
X122930000Y-99975000D01*
X123390000Y-100775000D02*
X123280000Y-100195000D01*
X123080000Y-101265000D02*
X123390000Y-100775000D01*
X122550000Y-101535000D02*
X123080000Y-101265000D01*
X121980000Y-101495000D02*
X122550000Y-101535000D01*
X121410000Y-101345000D02*
X121980000Y-101495000D01*
X120910000Y-98635000D02*
X120840000Y-98795000D01*
X120990000Y-98405000D02*
X120910000Y-98635000D01*
X121030000Y-98065000D02*
X120990000Y-98405000D01*
X120950000Y-97765000D02*
X121030000Y-98065000D01*
X120840000Y-97415000D02*
X120950000Y-97765000D01*
X120530000Y-97265000D02*
X120840000Y-97415000D01*
X120230000Y-97265000D02*
X120530000Y-97265000D01*
X119810000Y-97345000D02*
X120230000Y-97265000D01*
X119470000Y-97875000D02*
X119810000Y-97345000D01*
X119500000Y-98375000D02*
X119470000Y-97875000D01*
X119690000Y-99015000D02*
X119500000Y-98375000D01*
X122210000Y-99625000D02*
X121980000Y-99785000D01*
X122590000Y-99395000D02*
X122210000Y-99625000D01*
X122780000Y-99205000D02*
X122590000Y-99395000D01*
X122930000Y-98905000D02*
X122780000Y-99205000D01*
X122930000Y-98565000D02*
X122930000Y-98905000D01*
X122670000Y-98215000D02*
X122930000Y-98565000D01*
X122400000Y-98025000D02*
X122670000Y-98215000D01*
X121940000Y-98025000D02*
X122400000Y-98025000D01*
X121410000Y-98255000D02*
X121940000Y-98025000D01*
X120910000Y-98675000D02*
X121410000Y-98255000D01*
X120650000Y-99205000D02*
X120720000Y-99285000D01*
X120870000Y-99325000D02*
X120650000Y-99205000D01*
X121070000Y-99435000D02*
X120870000Y-99325000D01*
X121260000Y-99665000D02*
X121070000Y-99435000D01*
X121330000Y-99815000D02*
X121260000Y-99665000D01*
X121330000Y-99975000D02*
X121330000Y-99815000D01*
X121330000Y-100125000D02*
X121330000Y-99975000D01*
X121330000Y-100315000D02*
X121330000Y-100125000D01*
X121260000Y-100465000D02*
X121330000Y-100315000D01*
X120990000Y-100805000D02*
X121260000Y-100465000D01*
X120060000Y-100665000D02*
X120000000Y-100925000D01*
X120140000Y-100555000D02*
X120060000Y-100665000D01*
X120240000Y-100575000D02*
X120140000Y-100555000D01*
X120390000Y-100695000D02*
X120240000Y-100575000D01*
X120490000Y-100845000D02*
X120390000Y-100695000D01*
X120410000Y-100995000D02*
X120490000Y-100845000D01*
X120320000Y-101095000D02*
X120410000Y-100995000D01*
X120170000Y-101075000D02*
X120320000Y-101095000D01*
X119950000Y-100955000D02*
X120170000Y-101075000D01*
X119860000Y-99535000D02*
X119820000Y-99715000D01*
X119970000Y-99445000D02*
X119860000Y-99535000D01*
X120090000Y-99415000D02*
X119970000Y-99445000D01*
X120260000Y-99535000D02*
X120090000Y-99415000D01*
X120300000Y-99715000D02*
X120260000Y-99535000D01*
X120240000Y-99875000D02*
X120300000Y-99715000D01*
X120140000Y-99975000D02*
X120240000Y-99875000D01*
X119950000Y-99885000D02*
X120140000Y-99975000D01*
X119830000Y-99735000D02*
X119950000Y-99885000D01*
X127610000Y-98685000D02*
X127610000Y-98735000D01*
X127170000Y-98795000D02*
X127610000Y-98685000D01*
X126220000Y-99015000D02*
X127170000Y-98795000D01*
X125830000Y-99015000D02*
X126220000Y-99015000D01*
X125270000Y-98855000D02*
X125830000Y-99015000D01*
X124760000Y-98855000D02*
X125270000Y-98855000D01*
X124320000Y-98855000D02*
X124760000Y-98855000D01*
X123870000Y-99015000D02*
X124320000Y-98855000D01*
X123420000Y-99295000D02*
X123870000Y-99015000D01*
X122360000Y-99745000D02*
X123420000Y-99295000D01*
X126250000Y-98655000D02*
X126490000Y-98855000D01*
X126120000Y-98535000D02*
X126250000Y-98655000D01*
X126080000Y-98215000D02*
X126120000Y-98535000D01*
X126250000Y-98395000D02*
X126080000Y-98215000D01*
X126440000Y-98565000D02*
X126250000Y-98395000D01*
X126630000Y-98685000D02*
X126440000Y-98565000D01*
X126900000Y-98825000D02*
X126630000Y-98685000D01*
D12*
G04 #@! TO.C,C5*
X151110000Y-103773733D02*
X151110000Y-104116267D01*
X152130000Y-103773733D02*
X152130000Y-104116267D01*
G04 #@! TO.C,C6*
X156130000Y-103773733D02*
X156130000Y-104116267D01*
X155110000Y-103773733D02*
X155110000Y-104116267D01*
G04 #@! TO.C,U4*
X157030000Y-95535000D02*
X155770000Y-95535000D01*
X150210000Y-95535000D02*
X151470000Y-95535000D01*
X157030000Y-99295000D02*
X157030000Y-95535000D01*
X150210000Y-101545000D02*
X150210000Y-95535000D01*
G04 #@! TO.C,U1*
D10*
X138644761Y-102957380D02*
X138978095Y-103957380D01*
X139311428Y-102957380D01*
X139644761Y-103957380D02*
X139644761Y-102957380D01*
X140120952Y-103957380D02*
X140120952Y-102957380D01*
X140692380Y-103957380D01*
X140692380Y-102957380D01*
X140001904Y-100465000D02*
X139906666Y-100417380D01*
X139763809Y-100417380D01*
X139620952Y-100465000D01*
X139525714Y-100560238D01*
X139478095Y-100655476D01*
X139430476Y-100845952D01*
X139430476Y-100988809D01*
X139478095Y-101179285D01*
X139525714Y-101274523D01*
X139620952Y-101369761D01*
X139763809Y-101417380D01*
X139859047Y-101417380D01*
X140001904Y-101369761D01*
X140049523Y-101322142D01*
X140049523Y-100988809D01*
X139859047Y-100988809D01*
X139192380Y-98877380D02*
X138859047Y-98401190D01*
X138620952Y-98877380D02*
X138620952Y-97877380D01*
X139001904Y-97877380D01*
X139097142Y-97925000D01*
X139144761Y-97972619D01*
X139192380Y-98067857D01*
X139192380Y-98210714D01*
X139144761Y-98305952D01*
X139097142Y-98353571D01*
X139001904Y-98401190D01*
X138620952Y-98401190D01*
X139573333Y-98829761D02*
X139716190Y-98877380D01*
X139954285Y-98877380D01*
X140049523Y-98829761D01*
X140097142Y-98782142D01*
X140144761Y-98686904D01*
X140144761Y-98591666D01*
X140097142Y-98496428D01*
X140049523Y-98448809D01*
X139954285Y-98401190D01*
X139763809Y-98353571D01*
X139668571Y-98305952D01*
X139620952Y-98258333D01*
X139573333Y-98163095D01*
X139573333Y-98067857D01*
X139620952Y-97972619D01*
X139668571Y-97925000D01*
X139763809Y-97877380D01*
X140001904Y-97877380D01*
X140144761Y-97925000D01*
X140430476Y-97877380D02*
X141001904Y-97877380D01*
X140716190Y-98877380D02*
X140716190Y-97877380D01*
X139001904Y-95813571D02*
X139335238Y-95813571D01*
X139478095Y-96337380D02*
X139001904Y-96337380D01*
X139001904Y-95337380D01*
X139478095Y-95337380D01*
X139906666Y-96337380D02*
X139906666Y-95337380D01*
X140478095Y-96337380D01*
X140478095Y-95337380D01*
X138978095Y-92797380D02*
X139597142Y-92797380D01*
X139263809Y-93178333D01*
X139406666Y-93178333D01*
X139501904Y-93225952D01*
X139549523Y-93273571D01*
X139597142Y-93368809D01*
X139597142Y-93606904D01*
X139549523Y-93702142D01*
X139501904Y-93749761D01*
X139406666Y-93797380D01*
X139120952Y-93797380D01*
X139025714Y-93749761D01*
X138978095Y-93702142D01*
X139882857Y-92797380D02*
X140216190Y-93797380D01*
X140549523Y-92797380D01*
X140001904Y-90305000D02*
X139906666Y-90257380D01*
X139763809Y-90257380D01*
X139620952Y-90305000D01*
X139525714Y-90400238D01*
X139478095Y-90495476D01*
X139430476Y-90685952D01*
X139430476Y-90828809D01*
X139478095Y-91019285D01*
X139525714Y-91114523D01*
X139620952Y-91209761D01*
X139763809Y-91257380D01*
X139859047Y-91257380D01*
X140001904Y-91209761D01*
X140049523Y-91162142D01*
X140049523Y-90828809D01*
X139859047Y-90828809D01*
X138954285Y-88669761D02*
X139097142Y-88717380D01*
X139335238Y-88717380D01*
X139430476Y-88669761D01*
X139478095Y-88622142D01*
X139525714Y-88526904D01*
X139525714Y-88431666D01*
X139478095Y-88336428D01*
X139430476Y-88288809D01*
X139335238Y-88241190D01*
X139144761Y-88193571D01*
X139049523Y-88145952D01*
X139001904Y-88098333D01*
X138954285Y-88003095D01*
X138954285Y-87907857D01*
X139001904Y-87812619D01*
X139049523Y-87765000D01*
X139144761Y-87717380D01*
X139382857Y-87717380D01*
X139525714Y-87765000D01*
X139954285Y-88717380D02*
X139954285Y-87717380D01*
X140525714Y-88717380D02*
X140097142Y-88145952D01*
X140525714Y-87717380D02*
X139954285Y-88288809D01*
X138930476Y-86129761D02*
X139073333Y-86177380D01*
X139311428Y-86177380D01*
X139406666Y-86129761D01*
X139454285Y-86082142D01*
X139501904Y-85986904D01*
X139501904Y-85891666D01*
X139454285Y-85796428D01*
X139406666Y-85748809D01*
X139311428Y-85701190D01*
X139120952Y-85653571D01*
X139025714Y-85605952D01*
X138978095Y-85558333D01*
X138930476Y-85463095D01*
X138930476Y-85367857D01*
X138978095Y-85272619D01*
X139025714Y-85225000D01*
X139120952Y-85177380D01*
X139359047Y-85177380D01*
X139501904Y-85225000D01*
X140120952Y-85177380D02*
X140311428Y-85177380D01*
X140406666Y-85225000D01*
X140501904Y-85320238D01*
X140549523Y-85510714D01*
X140549523Y-85844047D01*
X140501904Y-86034523D01*
X140406666Y-86129761D01*
X140311428Y-86177380D01*
X140120952Y-86177380D01*
X140025714Y-86129761D01*
X139930476Y-86034523D01*
X139882857Y-85844047D01*
X139882857Y-85510714D01*
X139930476Y-85320238D01*
X140025714Y-85225000D01*
X140120952Y-85177380D01*
X138954285Y-83589761D02*
X139097142Y-83637380D01*
X139335238Y-83637380D01*
X139430476Y-83589761D01*
X139478095Y-83542142D01*
X139525714Y-83446904D01*
X139525714Y-83351666D01*
X139478095Y-83256428D01*
X139430476Y-83208809D01*
X139335238Y-83161190D01*
X139144761Y-83113571D01*
X139049523Y-83065952D01*
X139001904Y-83018333D01*
X138954285Y-82923095D01*
X138954285Y-82827857D01*
X139001904Y-82732619D01*
X139049523Y-82685000D01*
X139144761Y-82637380D01*
X139382857Y-82637380D01*
X139525714Y-82685000D01*
X140525714Y-83542142D02*
X140478095Y-83589761D01*
X140335238Y-83637380D01*
X140240000Y-83637380D01*
X140097142Y-83589761D01*
X140001904Y-83494523D01*
X139954285Y-83399285D01*
X139906666Y-83208809D01*
X139906666Y-83065952D01*
X139954285Y-82875476D01*
X140001904Y-82780238D01*
X140097142Y-82685000D01*
X140240000Y-82637380D01*
X140335238Y-82637380D01*
X140478095Y-82685000D01*
X140525714Y-82732619D01*
X138978095Y-81049761D02*
X139120952Y-81097380D01*
X139359047Y-81097380D01*
X139454285Y-81049761D01*
X139501904Y-81002142D01*
X139549523Y-80906904D01*
X139549523Y-80811666D01*
X139501904Y-80716428D01*
X139454285Y-80668809D01*
X139359047Y-80621190D01*
X139168571Y-80573571D01*
X139073333Y-80525952D01*
X139025714Y-80478333D01*
X138978095Y-80383095D01*
X138978095Y-80287857D01*
X139025714Y-80192619D01*
X139073333Y-80145000D01*
X139168571Y-80097380D01*
X139406666Y-80097380D01*
X139549523Y-80145000D01*
X140501904Y-81097380D02*
X139930476Y-81097380D01*
X140216190Y-81097380D02*
X140216190Y-80097380D01*
X140120952Y-80240238D01*
X140025714Y-80335476D01*
X139930476Y-80383095D01*
X138978095Y-78509761D02*
X139120952Y-78557380D01*
X139359047Y-78557380D01*
X139454285Y-78509761D01*
X139501904Y-78462142D01*
X139549523Y-78366904D01*
X139549523Y-78271666D01*
X139501904Y-78176428D01*
X139454285Y-78128809D01*
X139359047Y-78081190D01*
X139168571Y-78033571D01*
X139073333Y-77985952D01*
X139025714Y-77938333D01*
X138978095Y-77843095D01*
X138978095Y-77747857D01*
X139025714Y-77652619D01*
X139073333Y-77605000D01*
X139168571Y-77557380D01*
X139406666Y-77557380D01*
X139549523Y-77605000D01*
X139930476Y-77652619D02*
X139978095Y-77605000D01*
X140073333Y-77557380D01*
X140311428Y-77557380D01*
X140406666Y-77605000D01*
X140454285Y-77652619D01*
X140501904Y-77747857D01*
X140501904Y-77843095D01*
X140454285Y-77985952D01*
X139882857Y-78557380D01*
X140501904Y-78557380D01*
X156758095Y-102957380D02*
X157377142Y-102957380D01*
X157043809Y-103338333D01*
X157186666Y-103338333D01*
X157281904Y-103385952D01*
X157329523Y-103433571D01*
X157377142Y-103528809D01*
X157377142Y-103766904D01*
X157329523Y-103862142D01*
X157281904Y-103909761D01*
X157186666Y-103957380D01*
X156900952Y-103957380D01*
X156805714Y-103909761D01*
X156758095Y-103862142D01*
X157662857Y-102957380D02*
X157996190Y-103957380D01*
X158329523Y-102957380D01*
X157781904Y-100465000D02*
X157686666Y-100417380D01*
X157543809Y-100417380D01*
X157400952Y-100465000D01*
X157305714Y-100560238D01*
X157258095Y-100655476D01*
X157210476Y-100845952D01*
X157210476Y-100988809D01*
X157258095Y-101179285D01*
X157305714Y-101274523D01*
X157400952Y-101369761D01*
X157543809Y-101417380D01*
X157639047Y-101417380D01*
X157781904Y-101369761D01*
X157829523Y-101322142D01*
X157829523Y-100988809D01*
X157639047Y-100988809D01*
X156758095Y-97877380D02*
X157329523Y-97877380D01*
X157043809Y-98877380D02*
X157043809Y-97877380D01*
X157567619Y-97877380D02*
X158234285Y-98877380D01*
X158234285Y-97877380D02*
X157567619Y-98877380D01*
X157353333Y-96337380D02*
X157020000Y-95861190D01*
X156781904Y-96337380D02*
X156781904Y-95337380D01*
X157162857Y-95337380D01*
X157258095Y-95385000D01*
X157305714Y-95432619D01*
X157353333Y-95527857D01*
X157353333Y-95670714D01*
X157305714Y-95765952D01*
X157258095Y-95813571D01*
X157162857Y-95861190D01*
X156781904Y-95861190D01*
X157686666Y-95337380D02*
X158353333Y-96337380D01*
X158353333Y-95337380D02*
X157686666Y-96337380D01*
X156781904Y-93797380D02*
X156781904Y-92797380D01*
X157020000Y-92797380D01*
X157162857Y-92845000D01*
X157258095Y-92940238D01*
X157305714Y-93035476D01*
X157353333Y-93225952D01*
X157353333Y-93368809D01*
X157305714Y-93559285D01*
X157258095Y-93654523D01*
X157162857Y-93749761D01*
X157020000Y-93797380D01*
X156781904Y-93797380D01*
X157924761Y-93225952D02*
X157829523Y-93178333D01*
X157781904Y-93130714D01*
X157734285Y-93035476D01*
X157734285Y-92987857D01*
X157781904Y-92892619D01*
X157829523Y-92845000D01*
X157924761Y-92797380D01*
X158115238Y-92797380D01*
X158210476Y-92845000D01*
X158258095Y-92892619D01*
X158305714Y-92987857D01*
X158305714Y-93035476D01*
X158258095Y-93130714D01*
X158210476Y-93178333D01*
X158115238Y-93225952D01*
X157924761Y-93225952D01*
X157829523Y-93273571D01*
X157781904Y-93321190D01*
X157734285Y-93416428D01*
X157734285Y-93606904D01*
X157781904Y-93702142D01*
X157829523Y-93749761D01*
X157924761Y-93797380D01*
X158115238Y-93797380D01*
X158210476Y-93749761D01*
X158258095Y-93702142D01*
X158305714Y-93606904D01*
X158305714Y-93416428D01*
X158258095Y-93321190D01*
X158210476Y-93273571D01*
X158115238Y-93225952D01*
X156781904Y-91257380D02*
X156781904Y-90257380D01*
X157020000Y-90257380D01*
X157162857Y-90305000D01*
X157258095Y-90400238D01*
X157305714Y-90495476D01*
X157353333Y-90685952D01*
X157353333Y-90828809D01*
X157305714Y-91019285D01*
X157258095Y-91114523D01*
X157162857Y-91209761D01*
X157020000Y-91257380D01*
X156781904Y-91257380D01*
X157686666Y-90257380D02*
X158353333Y-90257380D01*
X157924761Y-91257380D01*
X156781904Y-88717380D02*
X156781904Y-87717380D01*
X157020000Y-87717380D01*
X157162857Y-87765000D01*
X157258095Y-87860238D01*
X157305714Y-87955476D01*
X157353333Y-88145952D01*
X157353333Y-88288809D01*
X157305714Y-88479285D01*
X157258095Y-88574523D01*
X157162857Y-88669761D01*
X157020000Y-88717380D01*
X156781904Y-88717380D01*
X158210476Y-87717380D02*
X158020000Y-87717380D01*
X157924761Y-87765000D01*
X157877142Y-87812619D01*
X157781904Y-87955476D01*
X157734285Y-88145952D01*
X157734285Y-88526904D01*
X157781904Y-88622142D01*
X157829523Y-88669761D01*
X157924761Y-88717380D01*
X158115238Y-88717380D01*
X158210476Y-88669761D01*
X158258095Y-88622142D01*
X158305714Y-88526904D01*
X158305714Y-88288809D01*
X158258095Y-88193571D01*
X158210476Y-88145952D01*
X158115238Y-88098333D01*
X157924761Y-88098333D01*
X157829523Y-88145952D01*
X157781904Y-88193571D01*
X157734285Y-88288809D01*
X156781904Y-86177380D02*
X156781904Y-85177380D01*
X157020000Y-85177380D01*
X157162857Y-85225000D01*
X157258095Y-85320238D01*
X157305714Y-85415476D01*
X157353333Y-85605952D01*
X157353333Y-85748809D01*
X157305714Y-85939285D01*
X157258095Y-86034523D01*
X157162857Y-86129761D01*
X157020000Y-86177380D01*
X156781904Y-86177380D01*
X158258095Y-85177380D02*
X157781904Y-85177380D01*
X157734285Y-85653571D01*
X157781904Y-85605952D01*
X157877142Y-85558333D01*
X158115238Y-85558333D01*
X158210476Y-85605952D01*
X158258095Y-85653571D01*
X158305714Y-85748809D01*
X158305714Y-85986904D01*
X158258095Y-86082142D01*
X158210476Y-86129761D01*
X158115238Y-86177380D01*
X157877142Y-86177380D01*
X157781904Y-86129761D01*
X157734285Y-86082142D01*
X158581904Y-82745000D02*
X158486666Y-82697380D01*
X158343809Y-82697380D01*
X158200952Y-82745000D01*
X158105714Y-82840238D01*
X158058095Y-82935476D01*
X158010476Y-83125952D01*
X158010476Y-83268809D01*
X158058095Y-83459285D01*
X158105714Y-83554523D01*
X158200952Y-83649761D01*
X158343809Y-83697380D01*
X158439047Y-83697380D01*
X158581904Y-83649761D01*
X158629523Y-83602142D01*
X158629523Y-83268809D01*
X158439047Y-83268809D01*
G04 #@! TO.C,C2*
X154305714Y-72078333D02*
X154343809Y-72116428D01*
X154381904Y-72230714D01*
X154381904Y-72306904D01*
X154343809Y-72421190D01*
X154267619Y-72497380D01*
X154191428Y-72535476D01*
X154039047Y-72573571D01*
X153924761Y-72573571D01*
X153772380Y-72535476D01*
X153696190Y-72497380D01*
X153620000Y-72421190D01*
X153581904Y-72306904D01*
X153581904Y-72230714D01*
X153620000Y-72116428D01*
X153658095Y-72078333D01*
X153658095Y-71773571D02*
X153620000Y-71735476D01*
X153581904Y-71659285D01*
X153581904Y-71468809D01*
X153620000Y-71392619D01*
X153658095Y-71354523D01*
X153734285Y-71316428D01*
X153810476Y-71316428D01*
X153924761Y-71354523D01*
X154381904Y-71811666D01*
X154381904Y-71316428D01*
G04 #@! TO.C,F1*
X123412857Y-106611666D02*
X123412857Y-106878333D01*
X123831904Y-106878333D02*
X123031904Y-106878333D01*
X123031904Y-106497380D01*
X123831904Y-105773571D02*
X123831904Y-106230714D01*
X123831904Y-106002142D02*
X123031904Y-106002142D01*
X123146190Y-106078333D01*
X123222380Y-106154523D01*
X123260476Y-106230714D01*
G04 #@! TO.C,C1*
X158835714Y-72078333D02*
X158873809Y-72116428D01*
X158911904Y-72230714D01*
X158911904Y-72306904D01*
X158873809Y-72421190D01*
X158797619Y-72497380D01*
X158721428Y-72535476D01*
X158569047Y-72573571D01*
X158454761Y-72573571D01*
X158302380Y-72535476D01*
X158226190Y-72497380D01*
X158150000Y-72421190D01*
X158111904Y-72306904D01*
X158111904Y-72230714D01*
X158150000Y-72116428D01*
X158188095Y-72078333D01*
X158911904Y-71316428D02*
X158911904Y-71773571D01*
X158911904Y-71545000D02*
X158111904Y-71545000D01*
X158226190Y-71621190D01*
X158302380Y-71697380D01*
X158340476Y-71773571D01*
G04 #@! TO.C,C3*
X142286666Y-105930714D02*
X142248571Y-105968809D01*
X142134285Y-106006904D01*
X142058095Y-106006904D01*
X141943809Y-105968809D01*
X141867619Y-105892619D01*
X141829523Y-105816428D01*
X141791428Y-105664047D01*
X141791428Y-105549761D01*
X141829523Y-105397380D01*
X141867619Y-105321190D01*
X141943809Y-105245000D01*
X142058095Y-105206904D01*
X142134285Y-105206904D01*
X142248571Y-105245000D01*
X142286666Y-105283095D01*
X142553333Y-105206904D02*
X143048571Y-105206904D01*
X142781904Y-105511666D01*
X142896190Y-105511666D01*
X142972380Y-105549761D01*
X143010476Y-105587857D01*
X143048571Y-105664047D01*
X143048571Y-105854523D01*
X143010476Y-105930714D01*
X142972380Y-105968809D01*
X142896190Y-106006904D01*
X142667619Y-106006904D01*
X142591428Y-105968809D01*
X142553333Y-105930714D01*
G04 #@! TO.C,C4*
X142286666Y-95830714D02*
X142248571Y-95868809D01*
X142134285Y-95906904D01*
X142058095Y-95906904D01*
X141943809Y-95868809D01*
X141867619Y-95792619D01*
X141829523Y-95716428D01*
X141791428Y-95564047D01*
X141791428Y-95449761D01*
X141829523Y-95297380D01*
X141867619Y-95221190D01*
X141943809Y-95145000D01*
X142058095Y-95106904D01*
X142134285Y-95106904D01*
X142248571Y-95145000D01*
X142286666Y-95183095D01*
X142972380Y-95373571D02*
X142972380Y-95906904D01*
X142781904Y-95068809D02*
X142591428Y-95640238D01*
X143086666Y-95640238D01*
G04 #@! TO.C,R1*
X147581666Y-99606904D02*
X147315000Y-99225952D01*
X147124523Y-99606904D02*
X147124523Y-98806904D01*
X147429285Y-98806904D01*
X147505476Y-98845000D01*
X147543571Y-98883095D01*
X147581666Y-98959285D01*
X147581666Y-99073571D01*
X147543571Y-99149761D01*
X147505476Y-99187857D01*
X147429285Y-99225952D01*
X147124523Y-99225952D01*
X148343571Y-99606904D02*
X147886428Y-99606904D01*
X148115000Y-99606904D02*
X148115000Y-98806904D01*
X148038809Y-98921190D01*
X147962619Y-98997380D01*
X147886428Y-99035476D01*
G04 #@! TO.C,R2*
X147581666Y-103706904D02*
X147315000Y-103325952D01*
X147124523Y-103706904D02*
X147124523Y-102906904D01*
X147429285Y-102906904D01*
X147505476Y-102945000D01*
X147543571Y-102983095D01*
X147581666Y-103059285D01*
X147581666Y-103173571D01*
X147543571Y-103249761D01*
X147505476Y-103287857D01*
X147429285Y-103325952D01*
X147124523Y-103325952D01*
X147886428Y-102983095D02*
X147924523Y-102945000D01*
X148000714Y-102906904D01*
X148191190Y-102906904D01*
X148267380Y-102945000D01*
X148305476Y-102983095D01*
X148343571Y-103059285D01*
X148343571Y-103135476D01*
X148305476Y-103249761D01*
X147848333Y-103706904D01*
X148343571Y-103706904D01*
G04 #@! TO.C,R3*
X156076666Y-74806904D02*
X155810000Y-74425952D01*
X155619523Y-74806904D02*
X155619523Y-74006904D01*
X155924285Y-74006904D01*
X156000476Y-74045000D01*
X156038571Y-74083095D01*
X156076666Y-74159285D01*
X156076666Y-74273571D01*
X156038571Y-74349761D01*
X156000476Y-74387857D01*
X155924285Y-74425952D01*
X155619523Y-74425952D01*
X156343333Y-74006904D02*
X156838571Y-74006904D01*
X156571904Y-74311666D01*
X156686190Y-74311666D01*
X156762380Y-74349761D01*
X156800476Y-74387857D01*
X156838571Y-74464047D01*
X156838571Y-74654523D01*
X156800476Y-74730714D01*
X156762380Y-74768809D01*
X156686190Y-74806904D01*
X156457619Y-74806904D01*
X156381428Y-74768809D01*
X156343333Y-74730714D01*
G04 #@! TO.C,R4*
X156076666Y-77406904D02*
X155810000Y-77025952D01*
X155619523Y-77406904D02*
X155619523Y-76606904D01*
X155924285Y-76606904D01*
X156000476Y-76645000D01*
X156038571Y-76683095D01*
X156076666Y-76759285D01*
X156076666Y-76873571D01*
X156038571Y-76949761D01*
X156000476Y-76987857D01*
X155924285Y-77025952D01*
X155619523Y-77025952D01*
X156762380Y-76873571D02*
X156762380Y-77406904D01*
X156571904Y-76568809D02*
X156381428Y-77140238D01*
X156876666Y-77140238D01*
G04 #@! TO.C,R5*
X156086666Y-79806904D02*
X155820000Y-79425952D01*
X155629523Y-79806904D02*
X155629523Y-79006904D01*
X155934285Y-79006904D01*
X156010476Y-79045000D01*
X156048571Y-79083095D01*
X156086666Y-79159285D01*
X156086666Y-79273571D01*
X156048571Y-79349761D01*
X156010476Y-79387857D01*
X155934285Y-79425952D01*
X155629523Y-79425952D01*
X156810476Y-79006904D02*
X156429523Y-79006904D01*
X156391428Y-79387857D01*
X156429523Y-79349761D01*
X156505714Y-79311666D01*
X156696190Y-79311666D01*
X156772380Y-79349761D01*
X156810476Y-79387857D01*
X156848571Y-79464047D01*
X156848571Y-79654523D01*
X156810476Y-79730714D01*
X156772380Y-79768809D01*
X156696190Y-79806904D01*
X156505714Y-79806904D01*
X156429523Y-79768809D01*
X156391428Y-79730714D01*
G04 #@! TO.C,U2*
X141410476Y-98306904D02*
X141410476Y-98954523D01*
X141448571Y-99030714D01*
X141486666Y-99068809D01*
X141562857Y-99106904D01*
X141715238Y-99106904D01*
X141791428Y-99068809D01*
X141829523Y-99030714D01*
X141867619Y-98954523D01*
X141867619Y-98306904D01*
X142210476Y-98383095D02*
X142248571Y-98345000D01*
X142324761Y-98306904D01*
X142515238Y-98306904D01*
X142591428Y-98345000D01*
X142629523Y-98383095D01*
X142667619Y-98459285D01*
X142667619Y-98535476D01*
X142629523Y-98649761D01*
X142172380Y-99106904D01*
X142667619Y-99106904D01*
G04 #@! TO.C,U3*
X147910476Y-92406904D02*
X147910476Y-93054523D01*
X147948571Y-93130714D01*
X147986666Y-93168809D01*
X148062857Y-93206904D01*
X148215238Y-93206904D01*
X148291428Y-93168809D01*
X148329523Y-93130714D01*
X148367619Y-93054523D01*
X148367619Y-92406904D01*
X148672380Y-92406904D02*
X149167619Y-92406904D01*
X148900952Y-92711666D01*
X149015238Y-92711666D01*
X149091428Y-92749761D01*
X149129523Y-92787857D01*
X149167619Y-92864047D01*
X149167619Y-93054523D01*
X149129523Y-93130714D01*
X149091428Y-93168809D01*
X149015238Y-93206904D01*
X148786666Y-93206904D01*
X148710476Y-93168809D01*
X148672380Y-93130714D01*
X149077142Y-80940238D02*
X149124761Y-80987857D01*
X149172380Y-81130714D01*
X149172380Y-81225952D01*
X149124761Y-81368809D01*
X149029523Y-81464047D01*
X148934285Y-81511666D01*
X148743809Y-81559285D01*
X148600952Y-81559285D01*
X148410476Y-81511666D01*
X148315238Y-81464047D01*
X148220000Y-81368809D01*
X148172380Y-81225952D01*
X148172380Y-81130714D01*
X148220000Y-80987857D01*
X148267619Y-80940238D01*
X149172380Y-80511666D02*
X148172380Y-80511666D01*
X148172380Y-80273571D01*
X148220000Y-80130714D01*
X148315238Y-80035476D01*
X148410476Y-79987857D01*
X148600952Y-79940238D01*
X148743809Y-79940238D01*
X148934285Y-79987857D01*
X149029523Y-80035476D01*
X149124761Y-80130714D01*
X149172380Y-80273571D01*
X149172380Y-80511666D01*
X148505714Y-79083095D02*
X149172380Y-79083095D01*
X148124761Y-79321190D02*
X148839047Y-79559285D01*
X148839047Y-78940238D01*
X148172380Y-78368809D02*
X148172380Y-78273571D01*
X148220000Y-78178333D01*
X148267619Y-78130714D01*
X148362857Y-78083095D01*
X148553333Y-78035476D01*
X148791428Y-78035476D01*
X148981904Y-78083095D01*
X149077142Y-78130714D01*
X149124761Y-78178333D01*
X149172380Y-78273571D01*
X149172380Y-78368809D01*
X149124761Y-78464047D01*
X149077142Y-78511666D01*
X148981904Y-78559285D01*
X148791428Y-78606904D01*
X148553333Y-78606904D01*
X148362857Y-78559285D01*
X148267619Y-78511666D01*
X148220000Y-78464047D01*
X148172380Y-78368809D01*
X148172380Y-77130714D02*
X148172380Y-77606904D01*
X148648571Y-77654523D01*
X148600952Y-77606904D01*
X148553333Y-77511666D01*
X148553333Y-77273571D01*
X148600952Y-77178333D01*
X148648571Y-77130714D01*
X148743809Y-77083095D01*
X148981904Y-77083095D01*
X149077142Y-77130714D01*
X149124761Y-77178333D01*
X149172380Y-77273571D01*
X149172380Y-77511666D01*
X149124761Y-77606904D01*
X149077142Y-77654523D01*
X149172380Y-76130714D02*
X149172380Y-76702142D01*
X149172380Y-76416428D02*
X148172380Y-76416428D01*
X148315238Y-76511666D01*
X148410476Y-76606904D01*
X148458095Y-76702142D01*
X148648571Y-75368809D02*
X148696190Y-75225952D01*
X148743809Y-75178333D01*
X148839047Y-75130714D01*
X148981904Y-75130714D01*
X149077142Y-75178333D01*
X149124761Y-75225952D01*
X149172380Y-75321190D01*
X149172380Y-75702142D01*
X148172380Y-75702142D01*
X148172380Y-75368809D01*
X148220000Y-75273571D01*
X148267619Y-75225952D01*
X148362857Y-75178333D01*
X148458095Y-75178333D01*
X148553333Y-75225952D01*
X148600952Y-75273571D01*
X148648571Y-75368809D01*
X148648571Y-75702142D01*
G04 #@! TO.C,R6*
X156086666Y-82406904D02*
X155820000Y-82025952D01*
X155629523Y-82406904D02*
X155629523Y-81606904D01*
X155934285Y-81606904D01*
X156010476Y-81645000D01*
X156048571Y-81683095D01*
X156086666Y-81759285D01*
X156086666Y-81873571D01*
X156048571Y-81949761D01*
X156010476Y-81987857D01*
X155934285Y-82025952D01*
X155629523Y-82025952D01*
X156772380Y-81606904D02*
X156620000Y-81606904D01*
X156543809Y-81645000D01*
X156505714Y-81683095D01*
X156429523Y-81797380D01*
X156391428Y-81949761D01*
X156391428Y-82254523D01*
X156429523Y-82330714D01*
X156467619Y-82368809D01*
X156543809Y-82406904D01*
X156696190Y-82406904D01*
X156772380Y-82368809D01*
X156810476Y-82330714D01*
X156848571Y-82254523D01*
X156848571Y-82064047D01*
X156810476Y-81987857D01*
X156772380Y-81949761D01*
X156696190Y-81911666D01*
X156543809Y-81911666D01*
X156467619Y-81949761D01*
X156429523Y-81987857D01*
X156391428Y-82064047D01*
G04 #@! TO.C,R7*
X140886666Y-72106904D02*
X140620000Y-71725952D01*
X140429523Y-72106904D02*
X140429523Y-71306904D01*
X140734285Y-71306904D01*
X140810476Y-71345000D01*
X140848571Y-71383095D01*
X140886666Y-71459285D01*
X140886666Y-71573571D01*
X140848571Y-71649761D01*
X140810476Y-71687857D01*
X140734285Y-71725952D01*
X140429523Y-71725952D01*
X141153333Y-71306904D02*
X141686666Y-71306904D01*
X141343809Y-72106904D01*
G04 #@! TO.C,R8*
X140886666Y-74706904D02*
X140620000Y-74325952D01*
X140429523Y-74706904D02*
X140429523Y-73906904D01*
X140734285Y-73906904D01*
X140810476Y-73945000D01*
X140848571Y-73983095D01*
X140886666Y-74059285D01*
X140886666Y-74173571D01*
X140848571Y-74249761D01*
X140810476Y-74287857D01*
X140734285Y-74325952D01*
X140429523Y-74325952D01*
X141343809Y-74249761D02*
X141267619Y-74211666D01*
X141229523Y-74173571D01*
X141191428Y-74097380D01*
X141191428Y-74059285D01*
X141229523Y-73983095D01*
X141267619Y-73945000D01*
X141343809Y-73906904D01*
X141496190Y-73906904D01*
X141572380Y-73945000D01*
X141610476Y-73983095D01*
X141648571Y-74059285D01*
X141648571Y-74097380D01*
X141610476Y-74173571D01*
X141572380Y-74211666D01*
X141496190Y-74249761D01*
X141343809Y-74249761D01*
X141267619Y-74287857D01*
X141229523Y-74325952D01*
X141191428Y-74402142D01*
X141191428Y-74554523D01*
X141229523Y-74630714D01*
X141267619Y-74668809D01*
X141343809Y-74706904D01*
X141496190Y-74706904D01*
X141572380Y-74668809D01*
X141610476Y-74630714D01*
X141648571Y-74554523D01*
X141648571Y-74402142D01*
X141610476Y-74325952D01*
X141572380Y-74287857D01*
X141496190Y-74249761D01*
G04 #@! TO.C,C5*
X153335714Y-104078333D02*
X153373809Y-104116428D01*
X153411904Y-104230714D01*
X153411904Y-104306904D01*
X153373809Y-104421190D01*
X153297619Y-104497380D01*
X153221428Y-104535476D01*
X153069047Y-104573571D01*
X152954761Y-104573571D01*
X152802380Y-104535476D01*
X152726190Y-104497380D01*
X152650000Y-104421190D01*
X152611904Y-104306904D01*
X152611904Y-104230714D01*
X152650000Y-104116428D01*
X152688095Y-104078333D01*
X152611904Y-103354523D02*
X152611904Y-103735476D01*
X152992857Y-103773571D01*
X152954761Y-103735476D01*
X152916666Y-103659285D01*
X152916666Y-103468809D01*
X152954761Y-103392619D01*
X152992857Y-103354523D01*
X153069047Y-103316428D01*
X153259523Y-103316428D01*
X153335714Y-103354523D01*
X153373809Y-103392619D01*
X153411904Y-103468809D01*
X153411904Y-103659285D01*
X153373809Y-103735476D01*
X153335714Y-103773571D01*
G04 #@! TO.C,C6*
X154705714Y-104078333D02*
X154743809Y-104116428D01*
X154781904Y-104230714D01*
X154781904Y-104306904D01*
X154743809Y-104421190D01*
X154667619Y-104497380D01*
X154591428Y-104535476D01*
X154439047Y-104573571D01*
X154324761Y-104573571D01*
X154172380Y-104535476D01*
X154096190Y-104497380D01*
X154020000Y-104421190D01*
X153981904Y-104306904D01*
X153981904Y-104230714D01*
X154020000Y-104116428D01*
X154058095Y-104078333D01*
X153981904Y-103392619D02*
X153981904Y-103545000D01*
X154020000Y-103621190D01*
X154058095Y-103659285D01*
X154172380Y-103735476D01*
X154324761Y-103773571D01*
X154629523Y-103773571D01*
X154705714Y-103735476D01*
X154743809Y-103697380D01*
X154781904Y-103621190D01*
X154781904Y-103468809D01*
X154743809Y-103392619D01*
X154705714Y-103354523D01*
X154629523Y-103316428D01*
X154439047Y-103316428D01*
X154362857Y-103354523D01*
X154324761Y-103392619D01*
X154286666Y-103468809D01*
X154286666Y-103621190D01*
X154324761Y-103697380D01*
X154362857Y-103735476D01*
X154439047Y-103773571D01*
G04 #@! TO.C,U4*
X153010476Y-97006904D02*
X153010476Y-97654523D01*
X153048571Y-97730714D01*
X153086666Y-97768809D01*
X153162857Y-97806904D01*
X153315238Y-97806904D01*
X153391428Y-97768809D01*
X153429523Y-97730714D01*
X153467619Y-97654523D01*
X153467619Y-97006904D01*
X154191428Y-97273571D02*
X154191428Y-97806904D01*
X154000952Y-96968809D02*
X153810476Y-97540238D01*
X154305714Y-97540238D01*
G04 #@! TD*
M02*
