G04 #@! TF.GenerationSoftware,KiCad,Pcbnew,5.0.2-bee76a0~70~ubuntu16.04.1*
G04 #@! TF.CreationDate,2020-01-22T11:55:58+00:00*
G04 #@! TF.ProjectId,transmitter,7472616e-736d-4697-9474-65722e6b6963,2.0.0*
G04 #@! TF.SameCoordinates,Original*
G04 #@! TF.FileFunction,Copper,L2,Bot*
G04 #@! TF.FilePolarity,Positive*
%FSLAX46Y46*%
G04 Gerber Fmt 4.6, Leading zero omitted, Abs format (unit mm)*
G04 Created by KiCad (PCBNEW 5.0.2-bee76a0~70~ubuntu16.04.1) date Wed 22 Jan 2020 11:55:58 GMT*
%MOMM*%
%LPD*%
G01*
G04 APERTURE LIST*
G04 #@! TA.AperFunction,ComponentPad*
%ADD10C,1.524000*%
G04 #@! TD*
G04 #@! TA.AperFunction,ComponentPad*
%ADD11C,1.397000*%
G04 #@! TD*
G04 #@! TA.AperFunction,ComponentPad*
%ADD12R,1.700000X1.700000*%
G04 #@! TD*
G04 #@! TA.AperFunction,ComponentPad*
%ADD13O,1.700000X1.700000*%
G04 #@! TD*
G04 #@! TA.AperFunction,Conductor*
%ADD14C,0.500000*%
G04 #@! TD*
G04 #@! TA.AperFunction,ComponentPad*
%ADD15C,1.700000*%
G04 #@! TD*
G04 #@! TA.AperFunction,ComponentPad*
%ADD16O,2.000000X1.700000*%
G04 #@! TD*
G04 #@! TA.AperFunction,BGAPad,CuDef*
%ADD17C,1.000000*%
G04 #@! TD*
G04 #@! TA.AperFunction,ViaPad*
%ADD18C,0.800000*%
G04 #@! TD*
G04 #@! TA.AperFunction,Conductor*
%ADD19C,0.250000*%
G04 #@! TD*
G04 #@! TA.AperFunction,Conductor*
%ADD20C,0.254000*%
G04 #@! TD*
G04 APERTURE END LIST*
D10*
G04 #@! TO.P,U1,1*
G04 #@! TO.N,A0*
X137200000Y-67945000D03*
G04 #@! TO.P,U1,2*
G04 #@! TO.N,N/C*
X137200000Y-70485000D03*
G04 #@! TO.P,U1,3*
X137200000Y-73025000D03*
G04 #@! TO.P,U1,4*
X137200000Y-75565000D03*
G04 #@! TO.P,U1,5*
X137200000Y-78105000D03*
G04 #@! TO.P,U1,6*
X137200000Y-80645000D03*
G04 #@! TO.P,U1,7*
X137200000Y-83185000D03*
G04 #@! TO.P,U1,8*
X137200000Y-85725000D03*
G04 #@! TO.P,U1,9*
X137200000Y-88265000D03*
G04 #@! TO.P,U1,10*
G04 #@! TO.N,GND*
X137200000Y-90805000D03*
G04 #@! TO.P,U1,11*
G04 #@! TO.N,3V3*
X137200000Y-93345000D03*
G04 #@! TO.P,U1,12*
G04 #@! TO.N,N/C*
X137200000Y-95885000D03*
G04 #@! TO.P,U1,13*
X137200000Y-98425000D03*
G04 #@! TO.P,U1,14*
G04 #@! TO.N,GND*
X137200000Y-100965000D03*
G04 #@! TO.P,U1,15*
G04 #@! TO.N,/VBAT*
X137200000Y-103505000D03*
G04 #@! TO.P,U1,16*
G04 #@! TO.N,3V3*
X160060000Y-103505000D03*
G04 #@! TO.P,U1,17*
G04 #@! TO.N,GND*
X160060000Y-100965000D03*
G04 #@! TO.P,U1,18*
G04 #@! TO.N,N/C*
X160060000Y-98425000D03*
G04 #@! TO.P,U1,19*
X160060000Y-95885000D03*
G04 #@! TO.P,U1,20*
X160060000Y-93345000D03*
G04 #@! TO.P,U1,21*
G04 #@! TO.N,Net-(U1-Pad21)*
X160060000Y-90805000D03*
G04 #@! TO.P,U1,22*
G04 #@! TO.N,Net-(U1-Pad22)*
X160060000Y-88265000D03*
G04 #@! TO.P,U1,23*
G04 #@! TO.N,Net-(U1-Pad23)*
X160060000Y-85725000D03*
G04 #@! TO.P,U1,24*
G04 #@! TO.N,GND*
X160060000Y-83185000D03*
G04 #@! TO.P,U1,25*
G04 #@! TO.N,3V3*
X160060000Y-80645000D03*
G04 #@! TO.P,U1,26*
G04 #@! TO.N,N/C*
X160060000Y-78105000D03*
G04 #@! TO.P,U1,27*
X160060000Y-75565000D03*
G04 #@! TO.P,U1,28*
G04 #@! TO.N,Net-(R16-Pad2)*
X160060000Y-73025000D03*
G04 #@! TO.P,U1,29*
G04 #@! TO.N,DONE*
X160060000Y-70485000D03*
G04 #@! TO.P,U1,30*
G04 #@! TO.N,N/C*
X160060000Y-67945000D03*
G04 #@! TD*
D11*
G04 #@! TO.P,SW1,1*
G04 #@! TO.N,/VBAT*
X117500000Y-108445000D03*
G04 #@! TO.P,SW1,2*
G04 #@! TO.N,Net-(JP1-Pad2)*
X117500000Y-103365000D03*
G04 #@! TO.P,SW1,1*
G04 #@! TO.N,/VBAT*
X125120000Y-108445000D03*
G04 #@! TO.P,SW1,2*
G04 #@! TO.N,Net-(JP1-Pad2)*
X125120000Y-103365000D03*
G04 #@! TD*
D12*
G04 #@! TO.P,SW2,1*
G04 #@! TO.N,Net-(Q3-Pad3)*
X128870000Y-108945000D03*
D13*
G04 #@! TO.P,SW2,2*
G04 #@! TO.N,/VBAT*
X131410000Y-108945000D03*
G04 #@! TD*
D12*
G04 #@! TO.P,J4,1*
G04 #@! TO.N,GND*
X119620000Y-89945000D03*
D13*
G04 #@! TO.P,J4,2*
G04 #@! TO.N,/OUT+*
X133620000Y-89945000D03*
G04 #@! TD*
D14*
G04 #@! TO.N,GND*
G04 #@! TO.C,J1*
G36*
X166954504Y-67096204D02*
X166978773Y-67099804D01*
X167002571Y-67105765D01*
X167025671Y-67114030D01*
X167047849Y-67124520D01*
X167068893Y-67137133D01*
X167088598Y-67151747D01*
X167106777Y-67168223D01*
X167123253Y-67186402D01*
X167137867Y-67206107D01*
X167150480Y-67227151D01*
X167160970Y-67249329D01*
X167169235Y-67272429D01*
X167175196Y-67296227D01*
X167178796Y-67320496D01*
X167180000Y-67345000D01*
X167180000Y-68545000D01*
X167178796Y-68569504D01*
X167175196Y-68593773D01*
X167169235Y-68617571D01*
X167160970Y-68640671D01*
X167150480Y-68662849D01*
X167137867Y-68683893D01*
X167123253Y-68703598D01*
X167106777Y-68721777D01*
X167088598Y-68738253D01*
X167068893Y-68752867D01*
X167047849Y-68765480D01*
X167025671Y-68775970D01*
X167002571Y-68784235D01*
X166978773Y-68790196D01*
X166954504Y-68793796D01*
X166930000Y-68795000D01*
X165430000Y-68795000D01*
X165405496Y-68793796D01*
X165381227Y-68790196D01*
X165357429Y-68784235D01*
X165334329Y-68775970D01*
X165312151Y-68765480D01*
X165291107Y-68752867D01*
X165271402Y-68738253D01*
X165253223Y-68721777D01*
X165236747Y-68703598D01*
X165222133Y-68683893D01*
X165209520Y-68662849D01*
X165199030Y-68640671D01*
X165190765Y-68617571D01*
X165184804Y-68593773D01*
X165181204Y-68569504D01*
X165180000Y-68545000D01*
X165180000Y-67345000D01*
X165181204Y-67320496D01*
X165184804Y-67296227D01*
X165190765Y-67272429D01*
X165199030Y-67249329D01*
X165209520Y-67227151D01*
X165222133Y-67206107D01*
X165236747Y-67186402D01*
X165253223Y-67168223D01*
X165271402Y-67151747D01*
X165291107Y-67137133D01*
X165312151Y-67124520D01*
X165334329Y-67114030D01*
X165357429Y-67105765D01*
X165381227Y-67099804D01*
X165405496Y-67096204D01*
X165430000Y-67095000D01*
X166930000Y-67095000D01*
X166954504Y-67096204D01*
X166954504Y-67096204D01*
G37*
D15*
G04 #@! TD*
G04 #@! TO.P,J1,1*
G04 #@! TO.N,GND*
X166180000Y-67945000D03*
D16*
G04 #@! TO.P,J1,2*
G04 #@! TO.N,SOIL_1*
X166180000Y-70445000D03*
G04 #@! TD*
G04 #@! TO.P,J2,2*
G04 #@! TO.N,SOIL_2*
X166180000Y-78065000D03*
D14*
G04 #@! TD*
G04 #@! TO.N,GND*
G04 #@! TO.C,J2*
G36*
X166954504Y-74716204D02*
X166978773Y-74719804D01*
X167002571Y-74725765D01*
X167025671Y-74734030D01*
X167047849Y-74744520D01*
X167068893Y-74757133D01*
X167088598Y-74771747D01*
X167106777Y-74788223D01*
X167123253Y-74806402D01*
X167137867Y-74826107D01*
X167150480Y-74847151D01*
X167160970Y-74869329D01*
X167169235Y-74892429D01*
X167175196Y-74916227D01*
X167178796Y-74940496D01*
X167180000Y-74965000D01*
X167180000Y-76165000D01*
X167178796Y-76189504D01*
X167175196Y-76213773D01*
X167169235Y-76237571D01*
X167160970Y-76260671D01*
X167150480Y-76282849D01*
X167137867Y-76303893D01*
X167123253Y-76323598D01*
X167106777Y-76341777D01*
X167088598Y-76358253D01*
X167068893Y-76372867D01*
X167047849Y-76385480D01*
X167025671Y-76395970D01*
X167002571Y-76404235D01*
X166978773Y-76410196D01*
X166954504Y-76413796D01*
X166930000Y-76415000D01*
X165430000Y-76415000D01*
X165405496Y-76413796D01*
X165381227Y-76410196D01*
X165357429Y-76404235D01*
X165334329Y-76395970D01*
X165312151Y-76385480D01*
X165291107Y-76372867D01*
X165271402Y-76358253D01*
X165253223Y-76341777D01*
X165236747Y-76323598D01*
X165222133Y-76303893D01*
X165209520Y-76282849D01*
X165199030Y-76260671D01*
X165190765Y-76237571D01*
X165184804Y-76213773D01*
X165181204Y-76189504D01*
X165180000Y-76165000D01*
X165180000Y-74965000D01*
X165181204Y-74940496D01*
X165184804Y-74916227D01*
X165190765Y-74892429D01*
X165199030Y-74869329D01*
X165209520Y-74847151D01*
X165222133Y-74826107D01*
X165236747Y-74806402D01*
X165253223Y-74788223D01*
X165271402Y-74771747D01*
X165291107Y-74757133D01*
X165312151Y-74744520D01*
X165334329Y-74734030D01*
X165357429Y-74725765D01*
X165381227Y-74719804D01*
X165405496Y-74716204D01*
X165430000Y-74715000D01*
X166930000Y-74715000D01*
X166954504Y-74716204D01*
X166954504Y-74716204D01*
G37*
D15*
G04 #@! TO.P,J2,1*
G04 #@! TO.N,GND*
X166180000Y-75565000D03*
G04 #@! TD*
D14*
G04 #@! TO.N,GND*
G04 #@! TO.C,J5*
G36*
X166954504Y-82336204D02*
X166978773Y-82339804D01*
X167002571Y-82345765D01*
X167025671Y-82354030D01*
X167047849Y-82364520D01*
X167068893Y-82377133D01*
X167088598Y-82391747D01*
X167106777Y-82408223D01*
X167123253Y-82426402D01*
X167137867Y-82446107D01*
X167150480Y-82467151D01*
X167160970Y-82489329D01*
X167169235Y-82512429D01*
X167175196Y-82536227D01*
X167178796Y-82560496D01*
X167180000Y-82585000D01*
X167180000Y-83785000D01*
X167178796Y-83809504D01*
X167175196Y-83833773D01*
X167169235Y-83857571D01*
X167160970Y-83880671D01*
X167150480Y-83902849D01*
X167137867Y-83923893D01*
X167123253Y-83943598D01*
X167106777Y-83961777D01*
X167088598Y-83978253D01*
X167068893Y-83992867D01*
X167047849Y-84005480D01*
X167025671Y-84015970D01*
X167002571Y-84024235D01*
X166978773Y-84030196D01*
X166954504Y-84033796D01*
X166930000Y-84035000D01*
X165430000Y-84035000D01*
X165405496Y-84033796D01*
X165381227Y-84030196D01*
X165357429Y-84024235D01*
X165334329Y-84015970D01*
X165312151Y-84005480D01*
X165291107Y-83992867D01*
X165271402Y-83978253D01*
X165253223Y-83961777D01*
X165236747Y-83943598D01*
X165222133Y-83923893D01*
X165209520Y-83902849D01*
X165199030Y-83880671D01*
X165190765Y-83857571D01*
X165184804Y-83833773D01*
X165181204Y-83809504D01*
X165180000Y-83785000D01*
X165180000Y-82585000D01*
X165181204Y-82560496D01*
X165184804Y-82536227D01*
X165190765Y-82512429D01*
X165199030Y-82489329D01*
X165209520Y-82467151D01*
X165222133Y-82446107D01*
X165236747Y-82426402D01*
X165253223Y-82408223D01*
X165271402Y-82391747D01*
X165291107Y-82377133D01*
X165312151Y-82364520D01*
X165334329Y-82354030D01*
X165357429Y-82345765D01*
X165381227Y-82339804D01*
X165405496Y-82336204D01*
X165430000Y-82335000D01*
X166930000Y-82335000D01*
X166954504Y-82336204D01*
X166954504Y-82336204D01*
G37*
D15*
G04 #@! TD*
G04 #@! TO.P,J5,1*
G04 #@! TO.N,GND*
X166180000Y-83185000D03*
D16*
G04 #@! TO.P,J5,2*
G04 #@! TO.N,SOIL_3*
X166180000Y-85685000D03*
G04 #@! TD*
G04 #@! TO.P,J6,2*
G04 #@! TO.N,SOIL_4*
X166180000Y-93305000D03*
D14*
G04 #@! TD*
G04 #@! TO.N,GND*
G04 #@! TO.C,J6*
G36*
X166954504Y-89956204D02*
X166978773Y-89959804D01*
X167002571Y-89965765D01*
X167025671Y-89974030D01*
X167047849Y-89984520D01*
X167068893Y-89997133D01*
X167088598Y-90011747D01*
X167106777Y-90028223D01*
X167123253Y-90046402D01*
X167137867Y-90066107D01*
X167150480Y-90087151D01*
X167160970Y-90109329D01*
X167169235Y-90132429D01*
X167175196Y-90156227D01*
X167178796Y-90180496D01*
X167180000Y-90205000D01*
X167180000Y-91405000D01*
X167178796Y-91429504D01*
X167175196Y-91453773D01*
X167169235Y-91477571D01*
X167160970Y-91500671D01*
X167150480Y-91522849D01*
X167137867Y-91543893D01*
X167123253Y-91563598D01*
X167106777Y-91581777D01*
X167088598Y-91598253D01*
X167068893Y-91612867D01*
X167047849Y-91625480D01*
X167025671Y-91635970D01*
X167002571Y-91644235D01*
X166978773Y-91650196D01*
X166954504Y-91653796D01*
X166930000Y-91655000D01*
X165430000Y-91655000D01*
X165405496Y-91653796D01*
X165381227Y-91650196D01*
X165357429Y-91644235D01*
X165334329Y-91635970D01*
X165312151Y-91625480D01*
X165291107Y-91612867D01*
X165271402Y-91598253D01*
X165253223Y-91581777D01*
X165236747Y-91563598D01*
X165222133Y-91543893D01*
X165209520Y-91522849D01*
X165199030Y-91500671D01*
X165190765Y-91477571D01*
X165184804Y-91453773D01*
X165181204Y-91429504D01*
X165180000Y-91405000D01*
X165180000Y-90205000D01*
X165181204Y-90180496D01*
X165184804Y-90156227D01*
X165190765Y-90132429D01*
X165199030Y-90109329D01*
X165209520Y-90087151D01*
X165222133Y-90066107D01*
X165236747Y-90046402D01*
X165253223Y-90028223D01*
X165271402Y-90011747D01*
X165291107Y-89997133D01*
X165312151Y-89984520D01*
X165334329Y-89974030D01*
X165357429Y-89965765D01*
X165381227Y-89959804D01*
X165405496Y-89956204D01*
X165430000Y-89955000D01*
X166930000Y-89955000D01*
X166954504Y-89956204D01*
X166954504Y-89956204D01*
G37*
D15*
G04 #@! TO.P,J6,1*
G04 #@! TO.N,GND*
X166180000Y-90805000D03*
G04 #@! TD*
D14*
G04 #@! TO.N,GND*
G04 #@! TO.C,J7*
G36*
X166954504Y-97576204D02*
X166978773Y-97579804D01*
X167002571Y-97585765D01*
X167025671Y-97594030D01*
X167047849Y-97604520D01*
X167068893Y-97617133D01*
X167088598Y-97631747D01*
X167106777Y-97648223D01*
X167123253Y-97666402D01*
X167137867Y-97686107D01*
X167150480Y-97707151D01*
X167160970Y-97729329D01*
X167169235Y-97752429D01*
X167175196Y-97776227D01*
X167178796Y-97800496D01*
X167180000Y-97825000D01*
X167180000Y-99025000D01*
X167178796Y-99049504D01*
X167175196Y-99073773D01*
X167169235Y-99097571D01*
X167160970Y-99120671D01*
X167150480Y-99142849D01*
X167137867Y-99163893D01*
X167123253Y-99183598D01*
X167106777Y-99201777D01*
X167088598Y-99218253D01*
X167068893Y-99232867D01*
X167047849Y-99245480D01*
X167025671Y-99255970D01*
X167002571Y-99264235D01*
X166978773Y-99270196D01*
X166954504Y-99273796D01*
X166930000Y-99275000D01*
X165430000Y-99275000D01*
X165405496Y-99273796D01*
X165381227Y-99270196D01*
X165357429Y-99264235D01*
X165334329Y-99255970D01*
X165312151Y-99245480D01*
X165291107Y-99232867D01*
X165271402Y-99218253D01*
X165253223Y-99201777D01*
X165236747Y-99183598D01*
X165222133Y-99163893D01*
X165209520Y-99142849D01*
X165199030Y-99120671D01*
X165190765Y-99097571D01*
X165184804Y-99073773D01*
X165181204Y-99049504D01*
X165180000Y-99025000D01*
X165180000Y-97825000D01*
X165181204Y-97800496D01*
X165184804Y-97776227D01*
X165190765Y-97752429D01*
X165199030Y-97729329D01*
X165209520Y-97707151D01*
X165222133Y-97686107D01*
X165236747Y-97666402D01*
X165253223Y-97648223D01*
X165271402Y-97631747D01*
X165291107Y-97617133D01*
X165312151Y-97604520D01*
X165334329Y-97594030D01*
X165357429Y-97585765D01*
X165381227Y-97579804D01*
X165405496Y-97576204D01*
X165430000Y-97575000D01*
X166930000Y-97575000D01*
X166954504Y-97576204D01*
X166954504Y-97576204D01*
G37*
D15*
G04 #@! TD*
G04 #@! TO.P,J7,1*
G04 #@! TO.N,GND*
X166180000Y-98425000D03*
D16*
G04 #@! TO.P,J7,2*
G04 #@! TO.N,SOIL_5*
X166180000Y-100925000D03*
G04 #@! TD*
D14*
G04 #@! TO.N,GND*
G04 #@! TO.C,J8*
G36*
X166954504Y-105196204D02*
X166978773Y-105199804D01*
X167002571Y-105205765D01*
X167025671Y-105214030D01*
X167047849Y-105224520D01*
X167068893Y-105237133D01*
X167088598Y-105251747D01*
X167106777Y-105268223D01*
X167123253Y-105286402D01*
X167137867Y-105306107D01*
X167150480Y-105327151D01*
X167160970Y-105349329D01*
X167169235Y-105372429D01*
X167175196Y-105396227D01*
X167178796Y-105420496D01*
X167180000Y-105445000D01*
X167180000Y-106645000D01*
X167178796Y-106669504D01*
X167175196Y-106693773D01*
X167169235Y-106717571D01*
X167160970Y-106740671D01*
X167150480Y-106762849D01*
X167137867Y-106783893D01*
X167123253Y-106803598D01*
X167106777Y-106821777D01*
X167088598Y-106838253D01*
X167068893Y-106852867D01*
X167047849Y-106865480D01*
X167025671Y-106875970D01*
X167002571Y-106884235D01*
X166978773Y-106890196D01*
X166954504Y-106893796D01*
X166930000Y-106895000D01*
X165430000Y-106895000D01*
X165405496Y-106893796D01*
X165381227Y-106890196D01*
X165357429Y-106884235D01*
X165334329Y-106875970D01*
X165312151Y-106865480D01*
X165291107Y-106852867D01*
X165271402Y-106838253D01*
X165253223Y-106821777D01*
X165236747Y-106803598D01*
X165222133Y-106783893D01*
X165209520Y-106762849D01*
X165199030Y-106740671D01*
X165190765Y-106717571D01*
X165184804Y-106693773D01*
X165181204Y-106669504D01*
X165180000Y-106645000D01*
X165180000Y-105445000D01*
X165181204Y-105420496D01*
X165184804Y-105396227D01*
X165190765Y-105372429D01*
X165199030Y-105349329D01*
X165209520Y-105327151D01*
X165222133Y-105306107D01*
X165236747Y-105286402D01*
X165253223Y-105268223D01*
X165271402Y-105251747D01*
X165291107Y-105237133D01*
X165312151Y-105224520D01*
X165334329Y-105214030D01*
X165357429Y-105205765D01*
X165381227Y-105199804D01*
X165405496Y-105196204D01*
X165430000Y-105195000D01*
X166930000Y-105195000D01*
X166954504Y-105196204D01*
X166954504Y-105196204D01*
G37*
D15*
G04 #@! TD*
G04 #@! TO.P,J8,1*
G04 #@! TO.N,GND*
X166180000Y-106045000D03*
D16*
G04 #@! TO.P,J8,2*
G04 #@! TO.N,SOIL_6*
X166180000Y-108545000D03*
G04 #@! TD*
D12*
G04 #@! TO.P,J3,1*
G04 #@! TO.N,GND*
X129540000Y-95885000D03*
D13*
G04 #@! TO.P,J3,2*
G04 #@! TO.N,3V3*
X132080000Y-95885000D03*
G04 #@! TD*
D17*
G04 #@! TO.P,TP2,1*
G04 #@! TO.N,BATT_SENSE*
X141450000Y-79575000D03*
G04 #@! TD*
D18*
G04 #@! TO.N,GND*
X146620000Y-98445000D03*
X144620000Y-98445000D03*
X148620000Y-82945000D03*
X145620000Y-100945000D03*
G04 #@! TO.N,BATT_SENSE*
X143295011Y-78205001D03*
G04 #@! TO.N,A0*
X144020000Y-74145000D03*
G04 #@! TO.N,SOIL_1*
X149429972Y-72795000D03*
G04 #@! TO.N,SOIL_2*
X149430012Y-74035000D03*
G04 #@! TO.N,SOIL_3*
X149399986Y-75335000D03*
G04 #@! TO.N,SOIL_4*
X149430012Y-76585000D03*
G04 #@! TO.N,SOIL_5*
X147820000Y-71545000D03*
G04 #@! TO.N,SOIL_6*
X147820000Y-78345000D03*
G04 #@! TO.N,/VBAT*
X149520000Y-95870000D03*
G04 #@! TO.N,Net-(JP1-Pad2)*
X150064838Y-105289842D03*
G04 #@! TO.N,Net-(R16-Pad2)*
X138870000Y-76695000D03*
G04 #@! TO.N,Net-(C8-Pad1)*
X135520000Y-109845000D03*
X148785869Y-107470503D03*
G04 #@! TD*
D19*
G04 #@! TO.N,GND*
X161320000Y-83185000D02*
X160637630Y-83185000D01*
X166180000Y-88045000D02*
X161320000Y-83185000D01*
X166180000Y-90805000D02*
X166180000Y-88045000D01*
D14*
G04 #@! TO.N,3V3*
X158270000Y-101715000D02*
X160060000Y-103505000D01*
X158270000Y-95195000D02*
X158270000Y-101715000D01*
X156420000Y-93345000D02*
X158270000Y-95195000D01*
X151920000Y-93345000D02*
X137200000Y-93345000D01*
X156420000Y-93345000D02*
X151920000Y-93345000D01*
D19*
G04 #@! TO.N,BATT_SENSE*
X142129999Y-78205001D02*
X143295011Y-78205001D01*
X141450000Y-78885000D02*
X142129999Y-78205001D01*
X141450000Y-79575000D02*
X141450000Y-78885000D01*
G04 #@! TO.N,A0*
X137820000Y-67945000D02*
X137200000Y-67945000D01*
X144020000Y-74145000D02*
X137820000Y-67945000D01*
G04 #@! TO.N,SOIL_1*
X161310000Y-74295000D02*
X165160000Y-70445000D01*
X150929972Y-74295000D02*
X161310000Y-74295000D01*
X165160000Y-70445000D02*
X166180000Y-70445000D01*
X149429972Y-72795000D02*
X150929972Y-74295000D01*
G04 #@! TO.N,SOIL_2*
X166030000Y-78065000D02*
X166180000Y-78065000D01*
X164800000Y-76835000D02*
X166030000Y-78065000D01*
X152230012Y-76835000D02*
X164800000Y-76835000D01*
X149430012Y-74035000D02*
X152230012Y-76835000D01*
G04 #@! TO.N,SOIL_3*
X162290000Y-81945000D02*
X166030000Y-85685000D01*
X156009986Y-81945000D02*
X162290000Y-81945000D01*
X166030000Y-85685000D02*
X166180000Y-85685000D01*
X149399986Y-75335000D02*
X156009986Y-81945000D01*
G04 #@! TO.N,SOIL_4*
X166030000Y-93305000D02*
X166180000Y-93305000D01*
X164520000Y-91795000D02*
X166030000Y-93305000D01*
X164520000Y-88145000D02*
X164520000Y-91795000D01*
X157320012Y-84475000D02*
X160850000Y-84475000D01*
X149430012Y-76585000D02*
X157320012Y-84475000D01*
X160850000Y-84475000D02*
X164520000Y-88145000D01*
G04 #@! TO.N,SOIL_5*
X163720000Y-89845000D02*
X163720000Y-98615000D01*
X147820000Y-71545000D02*
X147820000Y-76545000D01*
X163720000Y-98615000D02*
X166030000Y-100925000D01*
X158280000Y-87005000D02*
X160880000Y-87005000D01*
X160880000Y-87005000D02*
X163720000Y-89845000D01*
X166030000Y-100925000D02*
X166180000Y-100925000D01*
X147820000Y-76545000D02*
X158280000Y-87005000D01*
G04 #@! TO.N,SOIL_6*
X162840000Y-105355000D02*
X166030000Y-108545000D01*
X147820000Y-78345000D02*
X159040000Y-89565000D01*
X166030000Y-108545000D02*
X166180000Y-108545000D01*
X159040000Y-89565000D02*
X161150000Y-89565000D01*
X161150000Y-89565000D02*
X162840000Y-91255000D01*
X162840000Y-91255000D02*
X162840000Y-105355000D01*
D14*
G04 #@! TO.N,/VBAT*
X138600000Y-103505000D02*
X137200000Y-103505000D01*
X149520000Y-95870000D02*
X141425000Y-95870000D01*
X141425000Y-95870000D02*
X139830000Y-97465000D01*
X139830000Y-97465000D02*
X139830000Y-102275000D01*
X139830000Y-102275000D02*
X138600000Y-103505000D01*
X117500000Y-108445000D02*
X125120000Y-108445000D01*
X129410000Y-106945000D02*
X131410000Y-108945000D01*
X126620000Y-106945000D02*
X129410000Y-106945000D01*
X125120000Y-108445000D02*
X126620000Y-106945000D01*
D19*
G04 #@! TO.N,Net-(JP1-Pad2)*
X117500000Y-103365000D02*
X125120000Y-103365000D01*
X125120000Y-103365000D02*
X127044842Y-105289842D01*
X149499153Y-105289842D02*
X150064838Y-105289842D01*
X127044842Y-105289842D02*
X149499153Y-105289842D01*
G04 #@! TO.N,Net-(R16-Pad2)*
X151600000Y-73025000D02*
X160060000Y-73025000D01*
X145920000Y-71445000D02*
X147120000Y-70245000D01*
X148820000Y-70245000D02*
X151600000Y-73025000D01*
X138870000Y-76695000D02*
X139269999Y-77094999D01*
X147120000Y-70245000D02*
X148820000Y-70245000D01*
X139269999Y-77094999D02*
X143220001Y-77094999D01*
X143220001Y-77094999D02*
X145920000Y-74395000D01*
X145920000Y-74395000D02*
X145920000Y-71445000D01*
G04 #@! TO.N,Net-(C8-Pad1)*
X148385870Y-107870502D02*
X148785869Y-107470503D01*
X137420000Y-107945000D02*
X148311372Y-107945000D01*
X148311372Y-107945000D02*
X148385870Y-107870502D01*
X135520000Y-109845000D02*
X137420000Y-107945000D01*
G04 #@! TD*
D20*
G04 #@! TO.N,GND*
G36*
X138725655Y-65689926D02*
X138815225Y-65749774D01*
X138875074Y-65839345D01*
X138923642Y-66083513D01*
X138999762Y-66466196D01*
X139007827Y-66485666D01*
X139105776Y-66722138D01*
X139322549Y-67046561D01*
X139322550Y-67046562D01*
X139518438Y-67242451D01*
X139842862Y-67459223D01*
X139934747Y-67497283D01*
X140098804Y-67565238D01*
X140481486Y-67641358D01*
X140481491Y-67641358D01*
X140550074Y-67655000D01*
X156689926Y-67655000D01*
X156758509Y-67641358D01*
X156758513Y-67641358D01*
X157141196Y-67565238D01*
X157241895Y-67523527D01*
X157397138Y-67459224D01*
X157721561Y-67242451D01*
X157810349Y-67153663D01*
X157917451Y-67046562D01*
X158134223Y-66722138D01*
X158203030Y-66556024D01*
X158240238Y-66466196D01*
X158316358Y-66083514D01*
X158316358Y-66083513D01*
X158364926Y-65839345D01*
X158424774Y-65749775D01*
X158514345Y-65689926D01*
X158689930Y-65655000D01*
X164588382Y-65655000D01*
X165379192Y-65725578D01*
X166114389Y-65926705D01*
X166802351Y-66254846D01*
X167087854Y-66460000D01*
X166465750Y-66460000D01*
X166307000Y-66618750D01*
X166307000Y-67818000D01*
X167656250Y-67818000D01*
X167815000Y-67659250D01*
X167815000Y-67105862D01*
X167951761Y-67246988D01*
X168376884Y-67879639D01*
X168683251Y-68577561D01*
X168862499Y-69324183D01*
X168910000Y-69971030D01*
X168910001Y-106913370D01*
X168839422Y-107704193D01*
X168638295Y-108439389D01*
X168310152Y-109127355D01*
X167865374Y-109746328D01*
X167318012Y-110276761D01*
X166685362Y-110701883D01*
X165987439Y-111008251D01*
X165240819Y-111187499D01*
X164593970Y-111235000D01*
X159162032Y-111235000D01*
X159134223Y-111167862D01*
X158917451Y-110843438D01*
X158721562Y-110647550D01*
X158721561Y-110647549D01*
X158397138Y-110430776D01*
X158213368Y-110354657D01*
X158141196Y-110324762D01*
X157758513Y-110248642D01*
X157758509Y-110248642D01*
X157689926Y-110235000D01*
X139550074Y-110235000D01*
X139481491Y-110248642D01*
X139481486Y-110248642D01*
X139098804Y-110324762D01*
X139026632Y-110354657D01*
X138842862Y-110430777D01*
X138518438Y-110647549D01*
X138411376Y-110754612D01*
X138322549Y-110843439D01*
X138105776Y-111167862D01*
X138077967Y-111235000D01*
X120651618Y-111235000D01*
X119860807Y-111164422D01*
X119125611Y-110963295D01*
X118437645Y-110635152D01*
X117818672Y-110190374D01*
X117419537Y-109778500D01*
X117765250Y-109778500D01*
X118255367Y-109575487D01*
X118500854Y-109330000D01*
X124119146Y-109330000D01*
X124364633Y-109575487D01*
X124854750Y-109778500D01*
X125385250Y-109778500D01*
X125875367Y-109575487D01*
X126250487Y-109200367D01*
X126453500Y-108710250D01*
X126453500Y-108363078D01*
X126986579Y-107830000D01*
X127433359Y-107830000D01*
X127421843Y-107847235D01*
X127372560Y-108095000D01*
X127372560Y-109795000D01*
X127421843Y-110042765D01*
X127562191Y-110252809D01*
X127772235Y-110393157D01*
X128020000Y-110442440D01*
X129720000Y-110442440D01*
X129967765Y-110393157D01*
X130177809Y-110252809D01*
X130318157Y-110042765D01*
X130327184Y-109997381D01*
X130339375Y-110015625D01*
X130830582Y-110343839D01*
X131263744Y-110430000D01*
X131556256Y-110430000D01*
X131989418Y-110343839D01*
X132480625Y-110015625D01*
X132732193Y-109639126D01*
X134485000Y-109639126D01*
X134485000Y-110050874D01*
X134642569Y-110431280D01*
X134933720Y-110722431D01*
X135314126Y-110880000D01*
X135725874Y-110880000D01*
X136106280Y-110722431D01*
X136397431Y-110431280D01*
X136555000Y-110050874D01*
X136555000Y-109884801D01*
X137734802Y-108705000D01*
X148236525Y-108705000D01*
X148311372Y-108719888D01*
X148386219Y-108705000D01*
X148386224Y-108705000D01*
X148607909Y-108660904D01*
X148840483Y-108505503D01*
X148991743Y-108505503D01*
X149372149Y-108347934D01*
X149663300Y-108056783D01*
X149820869Y-107676377D01*
X149820869Y-107264629D01*
X149663300Y-106884223D01*
X149372149Y-106593072D01*
X148991743Y-106435503D01*
X148579995Y-106435503D01*
X148199589Y-106593072D01*
X147908438Y-106884223D01*
X147783852Y-107185000D01*
X137494848Y-107185000D01*
X137420000Y-107170112D01*
X137345152Y-107185000D01*
X137345148Y-107185000D01*
X137171605Y-107219520D01*
X137123462Y-107229096D01*
X136983565Y-107322573D01*
X136872071Y-107397071D01*
X136829671Y-107460527D01*
X135480199Y-108810000D01*
X135314126Y-108810000D01*
X134933720Y-108967569D01*
X134642569Y-109258720D01*
X134485000Y-109639126D01*
X132732193Y-109639126D01*
X132808839Y-109524418D01*
X132924092Y-108945000D01*
X132808839Y-108365582D01*
X132480625Y-107874375D01*
X131989418Y-107546161D01*
X131556256Y-107460000D01*
X131263744Y-107460000D01*
X131191040Y-107474462D01*
X130097425Y-106380847D01*
X130048049Y-106306951D01*
X129755310Y-106111348D01*
X129497165Y-106060000D01*
X129497161Y-106060000D01*
X129446092Y-106049842D01*
X149361127Y-106049842D01*
X149478558Y-106167273D01*
X149858964Y-106324842D01*
X150270712Y-106324842D01*
X150651118Y-106167273D01*
X150942269Y-105876122D01*
X151099838Y-105495716D01*
X151099838Y-105083968D01*
X150942269Y-104703562D01*
X150651118Y-104412411D01*
X150270712Y-104254842D01*
X149858964Y-104254842D01*
X149478558Y-104412411D01*
X149361127Y-104529842D01*
X138150815Y-104529842D01*
X138290657Y-104390000D01*
X138512839Y-104390000D01*
X138600000Y-104407337D01*
X138687161Y-104390000D01*
X138687165Y-104390000D01*
X138945310Y-104338652D01*
X139238049Y-104143049D01*
X139287425Y-104069153D01*
X140394156Y-102962423D01*
X140468049Y-102913049D01*
X140663652Y-102620310D01*
X140715000Y-102362165D01*
X140715000Y-102362161D01*
X140732337Y-102275000D01*
X140715000Y-102187839D01*
X140715000Y-97831578D01*
X141791579Y-96755000D01*
X148951993Y-96755000D01*
X149314126Y-96905000D01*
X149725874Y-96905000D01*
X150106280Y-96747431D01*
X150397431Y-96456280D01*
X150555000Y-96075874D01*
X150555000Y-95664126D01*
X150397431Y-95283720D01*
X150106280Y-94992569D01*
X149725874Y-94835000D01*
X149314126Y-94835000D01*
X148951993Y-94985000D01*
X141512161Y-94985000D01*
X141425000Y-94967663D01*
X141337839Y-94985000D01*
X141337835Y-94985000D01*
X141079690Y-95036348D01*
X140860845Y-95182576D01*
X140860844Y-95182577D01*
X140786951Y-95231951D01*
X140737577Y-95305844D01*
X139265847Y-96777575D01*
X139191951Y-96826951D01*
X138996348Y-97119691D01*
X138945000Y-97377836D01*
X138945000Y-97377839D01*
X138927663Y-97465000D01*
X138945000Y-97552161D01*
X138945001Y-101908420D01*
X138262039Y-102591382D01*
X137991337Y-102320680D01*
X137800353Y-102241572D01*
X137931143Y-102187397D01*
X138000608Y-101945213D01*
X137200000Y-101144605D01*
X136399392Y-101945213D01*
X136468857Y-102187397D01*
X136609393Y-102237535D01*
X136408663Y-102320680D01*
X136015680Y-102713663D01*
X135803000Y-103227119D01*
X135803000Y-103782881D01*
X136015680Y-104296337D01*
X136249185Y-104529842D01*
X127359644Y-104529842D01*
X126453500Y-103623699D01*
X126453500Y-103099750D01*
X126250487Y-102609633D01*
X125875367Y-102234513D01*
X125385250Y-102031500D01*
X124854750Y-102031500D01*
X124364633Y-102234513D01*
X123994146Y-102605000D01*
X118625854Y-102605000D01*
X118255367Y-102234513D01*
X117765250Y-102031500D01*
X117234750Y-102031500D01*
X116744633Y-102234513D01*
X116369513Y-102609633D01*
X116330000Y-102705026D01*
X116330000Y-100757302D01*
X135790856Y-100757302D01*
X135818638Y-101312368D01*
X135977603Y-101696143D01*
X136219787Y-101765608D01*
X137020395Y-100965000D01*
X137379605Y-100965000D01*
X138180213Y-101765608D01*
X138422397Y-101696143D01*
X138609144Y-101172698D01*
X138581362Y-100617632D01*
X138422397Y-100233857D01*
X138180213Y-100164392D01*
X137379605Y-100965000D01*
X137020395Y-100965000D01*
X136219787Y-100164392D01*
X135977603Y-100233857D01*
X135790856Y-100757302D01*
X116330000Y-100757302D01*
X116330000Y-96170750D01*
X128055000Y-96170750D01*
X128055000Y-96861309D01*
X128151673Y-97094698D01*
X128330301Y-97273327D01*
X128563690Y-97370000D01*
X129254250Y-97370000D01*
X129413000Y-97211250D01*
X129413000Y-96012000D01*
X128213750Y-96012000D01*
X128055000Y-96170750D01*
X116330000Y-96170750D01*
X116330000Y-94908691D01*
X128055000Y-94908691D01*
X128055000Y-95599250D01*
X128213750Y-95758000D01*
X129413000Y-95758000D01*
X129413000Y-94558750D01*
X129667000Y-94558750D01*
X129667000Y-95758000D01*
X129687000Y-95758000D01*
X129687000Y-96012000D01*
X129667000Y-96012000D01*
X129667000Y-97211250D01*
X129825750Y-97370000D01*
X130516310Y-97370000D01*
X130749699Y-97273327D01*
X130928327Y-97094698D01*
X130994904Y-96933967D01*
X131009375Y-96955625D01*
X131500582Y-97283839D01*
X131933744Y-97370000D01*
X132226256Y-97370000D01*
X132659418Y-97283839D01*
X133150625Y-96955625D01*
X133478839Y-96464418D01*
X133594092Y-95885000D01*
X133478839Y-95305582D01*
X133150625Y-94814375D01*
X132659418Y-94486161D01*
X132226256Y-94400000D01*
X131933744Y-94400000D01*
X131500582Y-94486161D01*
X131009375Y-94814375D01*
X130994904Y-94836033D01*
X130928327Y-94675302D01*
X130749699Y-94496673D01*
X130516310Y-94400000D01*
X129825750Y-94400000D01*
X129667000Y-94558750D01*
X129413000Y-94558750D01*
X129254250Y-94400000D01*
X128563690Y-94400000D01*
X128330301Y-94496673D01*
X128151673Y-94675302D01*
X128055000Y-94908691D01*
X116330000Y-94908691D01*
X116330000Y-90230750D01*
X118135000Y-90230750D01*
X118135000Y-90921309D01*
X118231673Y-91154698D01*
X118410301Y-91333327D01*
X118643690Y-91430000D01*
X119334250Y-91430000D01*
X119493000Y-91271250D01*
X119493000Y-90072000D01*
X119747000Y-90072000D01*
X119747000Y-91271250D01*
X119905750Y-91430000D01*
X120596310Y-91430000D01*
X120829699Y-91333327D01*
X121008327Y-91154698D01*
X121105000Y-90921309D01*
X121105000Y-90230750D01*
X120946250Y-90072000D01*
X119747000Y-90072000D01*
X119493000Y-90072000D01*
X118293750Y-90072000D01*
X118135000Y-90230750D01*
X116330000Y-90230750D01*
X116330000Y-89945000D01*
X132105908Y-89945000D01*
X132221161Y-90524418D01*
X132549375Y-91015625D01*
X133040582Y-91343839D01*
X133473744Y-91430000D01*
X133766256Y-91430000D01*
X134199418Y-91343839D01*
X134690625Y-91015625D01*
X134970139Y-90597302D01*
X135790856Y-90597302D01*
X135818638Y-91152368D01*
X135977603Y-91536143D01*
X136219787Y-91605608D01*
X137020395Y-90805000D01*
X137379605Y-90805000D01*
X138180213Y-91605608D01*
X138422397Y-91536143D01*
X138609144Y-91012698D01*
X138581362Y-90457632D01*
X138422397Y-90073857D01*
X138180213Y-90004392D01*
X137379605Y-90805000D01*
X137020395Y-90805000D01*
X136219787Y-90004392D01*
X135977603Y-90073857D01*
X135790856Y-90597302D01*
X134970139Y-90597302D01*
X135018839Y-90524418D01*
X135134092Y-89945000D01*
X135018839Y-89365582D01*
X134690625Y-88874375D01*
X134199418Y-88546161D01*
X133766256Y-88460000D01*
X133473744Y-88460000D01*
X133040582Y-88546161D01*
X132549375Y-88874375D01*
X132221161Y-89365582D01*
X132105908Y-89945000D01*
X116330000Y-89945000D01*
X116330000Y-88968691D01*
X118135000Y-88968691D01*
X118135000Y-89659250D01*
X118293750Y-89818000D01*
X119493000Y-89818000D01*
X119493000Y-88618750D01*
X119747000Y-88618750D01*
X119747000Y-89818000D01*
X120946250Y-89818000D01*
X121105000Y-89659250D01*
X121105000Y-88968691D01*
X121008327Y-88735302D01*
X120829699Y-88556673D01*
X120596310Y-88460000D01*
X119905750Y-88460000D01*
X119747000Y-88618750D01*
X119493000Y-88618750D01*
X119334250Y-88460000D01*
X118643690Y-88460000D01*
X118410301Y-88556673D01*
X118231673Y-88735302D01*
X118135000Y-88968691D01*
X116330000Y-88968691D01*
X116330000Y-69976618D01*
X116400578Y-69185808D01*
X116601705Y-68450611D01*
X116929846Y-67762649D01*
X116998491Y-67667119D01*
X135803000Y-67667119D01*
X135803000Y-68222881D01*
X136015680Y-68736337D01*
X136408663Y-69129320D01*
X136615513Y-69215000D01*
X136408663Y-69300680D01*
X136015680Y-69693663D01*
X135803000Y-70207119D01*
X135803000Y-70762881D01*
X136015680Y-71276337D01*
X136408663Y-71669320D01*
X136615513Y-71755000D01*
X136408663Y-71840680D01*
X136015680Y-72233663D01*
X135803000Y-72747119D01*
X135803000Y-73302881D01*
X136015680Y-73816337D01*
X136408663Y-74209320D01*
X136615513Y-74295000D01*
X136408663Y-74380680D01*
X136015680Y-74773663D01*
X135803000Y-75287119D01*
X135803000Y-75842881D01*
X136015680Y-76356337D01*
X136408663Y-76749320D01*
X136615513Y-76835000D01*
X136408663Y-76920680D01*
X136015680Y-77313663D01*
X135803000Y-77827119D01*
X135803000Y-78382881D01*
X136015680Y-78896337D01*
X136408663Y-79289320D01*
X136615513Y-79375000D01*
X136408663Y-79460680D01*
X136015680Y-79853663D01*
X135803000Y-80367119D01*
X135803000Y-80922881D01*
X136015680Y-81436337D01*
X136408663Y-81829320D01*
X136615513Y-81915000D01*
X136408663Y-82000680D01*
X136015680Y-82393663D01*
X135803000Y-82907119D01*
X135803000Y-83462881D01*
X136015680Y-83976337D01*
X136408663Y-84369320D01*
X136615513Y-84455000D01*
X136408663Y-84540680D01*
X136015680Y-84933663D01*
X135803000Y-85447119D01*
X135803000Y-86002881D01*
X136015680Y-86516337D01*
X136408663Y-86909320D01*
X136615513Y-86995000D01*
X136408663Y-87080680D01*
X136015680Y-87473663D01*
X135803000Y-87987119D01*
X135803000Y-88542881D01*
X136015680Y-89056337D01*
X136408663Y-89449320D01*
X136599647Y-89528428D01*
X136468857Y-89582603D01*
X136399392Y-89824787D01*
X137200000Y-90625395D01*
X138000608Y-89824787D01*
X137931143Y-89582603D01*
X137790607Y-89532465D01*
X137991337Y-89449320D01*
X138384320Y-89056337D01*
X138597000Y-88542881D01*
X138597000Y-87987119D01*
X138384320Y-87473663D01*
X137991337Y-87080680D01*
X137784487Y-86995000D01*
X137991337Y-86909320D01*
X138384320Y-86516337D01*
X138597000Y-86002881D01*
X138597000Y-85447119D01*
X138384320Y-84933663D01*
X137991337Y-84540680D01*
X137784487Y-84455000D01*
X137991337Y-84369320D01*
X138384320Y-83976337D01*
X138597000Y-83462881D01*
X138597000Y-82907119D01*
X138384320Y-82393663D01*
X137991337Y-82000680D01*
X137784487Y-81915000D01*
X137991337Y-81829320D01*
X138384320Y-81436337D01*
X138597000Y-80922881D01*
X138597000Y-80367119D01*
X138384320Y-79853663D01*
X137991337Y-79460680D01*
X137784487Y-79375000D01*
X137991337Y-79289320D01*
X138384320Y-78896337D01*
X138597000Y-78382881D01*
X138597000Y-77827119D01*
X138534538Y-77676323D01*
X138664126Y-77730000D01*
X138852382Y-77730000D01*
X138973462Y-77810903D01*
X139195147Y-77854999D01*
X139195151Y-77854999D01*
X139269998Y-77869887D01*
X139344845Y-77854999D01*
X141405199Y-77854999D01*
X140965528Y-78294671D01*
X140902072Y-78337071D01*
X140859672Y-78400527D01*
X140859671Y-78400528D01*
X140792178Y-78501539D01*
X140734097Y-78588463D01*
X140709935Y-78709932D01*
X140487793Y-78932074D01*
X140315000Y-79349234D01*
X140315000Y-79800766D01*
X140487793Y-80217926D01*
X140807074Y-80537207D01*
X141224234Y-80710000D01*
X141675766Y-80710000D01*
X142092926Y-80537207D01*
X142412207Y-80217926D01*
X142585000Y-79800766D01*
X142585000Y-79349234D01*
X142431398Y-78978404D01*
X142444801Y-78965001D01*
X142591300Y-78965001D01*
X142708731Y-79082432D01*
X143089137Y-79240001D01*
X143500885Y-79240001D01*
X143881291Y-79082432D01*
X144172442Y-78791281D01*
X144330011Y-78410875D01*
X144330011Y-77999127D01*
X144172442Y-77618721D01*
X143971761Y-77418040D01*
X146404473Y-74985329D01*
X146467929Y-74942929D01*
X146635904Y-74691537D01*
X146680000Y-74469852D01*
X146680000Y-74469848D01*
X146694888Y-74395001D01*
X146680000Y-74320154D01*
X146680000Y-71759801D01*
X146785000Y-71654801D01*
X146785000Y-71750874D01*
X146942569Y-72131280D01*
X147060000Y-72248711D01*
X147060001Y-76470148D01*
X147045112Y-76545000D01*
X147060001Y-76619852D01*
X147104097Y-76841537D01*
X147272072Y-77092929D01*
X147335528Y-77135329D01*
X147540638Y-77340439D01*
X147233720Y-77467569D01*
X146942569Y-77758720D01*
X146785000Y-78139126D01*
X146785000Y-78550874D01*
X146942569Y-78931280D01*
X147233720Y-79222431D01*
X147614126Y-79380000D01*
X147780199Y-79380000D01*
X158449670Y-90049472D01*
X158492071Y-90112929D01*
X158743463Y-90280904D01*
X158763347Y-90284859D01*
X158663000Y-90527119D01*
X158663000Y-91082881D01*
X158875680Y-91596337D01*
X159268663Y-91989320D01*
X159475513Y-92075000D01*
X159268663Y-92160680D01*
X158875680Y-92553663D01*
X158663000Y-93067119D01*
X158663000Y-93622881D01*
X158875680Y-94136337D01*
X159268663Y-94529320D01*
X159475513Y-94615000D01*
X159268663Y-94700680D01*
X159106307Y-94863036D01*
X159103652Y-94849690D01*
X158908049Y-94556951D01*
X158834156Y-94507577D01*
X157107425Y-92780847D01*
X157058049Y-92706951D01*
X156765310Y-92511348D01*
X156507165Y-92460000D01*
X156507161Y-92460000D01*
X156420000Y-92442663D01*
X156332839Y-92460000D01*
X138290657Y-92460000D01*
X137991337Y-92160680D01*
X137800353Y-92081572D01*
X137931143Y-92027397D01*
X138000608Y-91785213D01*
X137200000Y-90984605D01*
X136399392Y-91785213D01*
X136468857Y-92027397D01*
X136609393Y-92077535D01*
X136408663Y-92160680D01*
X136015680Y-92553663D01*
X135803000Y-93067119D01*
X135803000Y-93622881D01*
X136015680Y-94136337D01*
X136408663Y-94529320D01*
X136615513Y-94615000D01*
X136408663Y-94700680D01*
X136015680Y-95093663D01*
X135803000Y-95607119D01*
X135803000Y-96162881D01*
X136015680Y-96676337D01*
X136408663Y-97069320D01*
X136615513Y-97155000D01*
X136408663Y-97240680D01*
X136015680Y-97633663D01*
X135803000Y-98147119D01*
X135803000Y-98702881D01*
X136015680Y-99216337D01*
X136408663Y-99609320D01*
X136599647Y-99688428D01*
X136468857Y-99742603D01*
X136399392Y-99984787D01*
X137200000Y-100785395D01*
X138000608Y-99984787D01*
X137931143Y-99742603D01*
X137790607Y-99692465D01*
X137991337Y-99609320D01*
X138384320Y-99216337D01*
X138597000Y-98702881D01*
X138597000Y-98147119D01*
X138384320Y-97633663D01*
X137991337Y-97240680D01*
X137784487Y-97155000D01*
X137991337Y-97069320D01*
X138384320Y-96676337D01*
X138597000Y-96162881D01*
X138597000Y-95607119D01*
X138384320Y-95093663D01*
X137991337Y-94700680D01*
X137784487Y-94615000D01*
X137991337Y-94529320D01*
X138290657Y-94230000D01*
X156053422Y-94230000D01*
X157385000Y-95561579D01*
X157385001Y-101627835D01*
X157367663Y-101715000D01*
X157436348Y-102060309D01*
X157582576Y-102279154D01*
X157582578Y-102279156D01*
X157631952Y-102353049D01*
X157705845Y-102402423D01*
X158663000Y-103359579D01*
X158663000Y-103782881D01*
X158875680Y-104296337D01*
X159268663Y-104689320D01*
X159782119Y-104902000D01*
X160337881Y-104902000D01*
X160851337Y-104689320D01*
X161244320Y-104296337D01*
X161457000Y-103782881D01*
X161457000Y-103227119D01*
X161244320Y-102713663D01*
X160851337Y-102320680D01*
X160660353Y-102241572D01*
X160791143Y-102187397D01*
X160860608Y-101945213D01*
X160060000Y-101144605D01*
X160045858Y-101158748D01*
X159866253Y-100979143D01*
X159880395Y-100965000D01*
X160239605Y-100965000D01*
X161040213Y-101765608D01*
X161282397Y-101696143D01*
X161469144Y-101172698D01*
X161441362Y-100617632D01*
X161282397Y-100233857D01*
X161040213Y-100164392D01*
X160239605Y-100965000D01*
X159880395Y-100965000D01*
X159866253Y-100950858D01*
X160045858Y-100771253D01*
X160060000Y-100785395D01*
X160860608Y-99984787D01*
X160791143Y-99742603D01*
X160650607Y-99692465D01*
X160851337Y-99609320D01*
X161244320Y-99216337D01*
X161457000Y-98702881D01*
X161457000Y-98147119D01*
X161244320Y-97633663D01*
X160851337Y-97240680D01*
X160644487Y-97155000D01*
X160851337Y-97069320D01*
X161244320Y-96676337D01*
X161457000Y-96162881D01*
X161457000Y-95607119D01*
X161244320Y-95093663D01*
X160851337Y-94700680D01*
X160644487Y-94615000D01*
X160851337Y-94529320D01*
X161244320Y-94136337D01*
X161457000Y-93622881D01*
X161457000Y-93067119D01*
X161244320Y-92553663D01*
X160851337Y-92160680D01*
X160644487Y-92075000D01*
X160851337Y-91989320D01*
X161244320Y-91596337D01*
X161457000Y-91082881D01*
X161457000Y-90946801D01*
X162080000Y-91569802D01*
X162080001Y-105280148D01*
X162065112Y-105355000D01*
X162124097Y-105651537D01*
X162248535Y-105837771D01*
X162292072Y-105902929D01*
X162355528Y-105945329D01*
X164588791Y-108178592D01*
X164515908Y-108545000D01*
X164631161Y-109124418D01*
X164959375Y-109615625D01*
X165450582Y-109943839D01*
X165883744Y-110030000D01*
X166476256Y-110030000D01*
X166909418Y-109943839D01*
X167400625Y-109615625D01*
X167728839Y-109124418D01*
X167844092Y-108545000D01*
X167728839Y-107965582D01*
X167409291Y-107487344D01*
X167539699Y-107433327D01*
X167718327Y-107254698D01*
X167815000Y-107021309D01*
X167815000Y-106330750D01*
X167656250Y-106172000D01*
X166307000Y-106172000D01*
X166307000Y-106192000D01*
X166053000Y-106192000D01*
X166053000Y-106172000D01*
X166033000Y-106172000D01*
X166033000Y-105918000D01*
X166053000Y-105918000D01*
X166053000Y-104718750D01*
X166307000Y-104718750D01*
X166307000Y-105918000D01*
X167656250Y-105918000D01*
X167815000Y-105759250D01*
X167815000Y-105068691D01*
X167718327Y-104835302D01*
X167539699Y-104656673D01*
X167306310Y-104560000D01*
X166465750Y-104560000D01*
X166307000Y-104718750D01*
X166053000Y-104718750D01*
X165894250Y-104560000D01*
X165053690Y-104560000D01*
X164820301Y-104656673D01*
X164641673Y-104835302D01*
X164545000Y-105068691D01*
X164545000Y-105759250D01*
X164703748Y-105917998D01*
X164545000Y-105917998D01*
X164545000Y-105985199D01*
X163600000Y-105040199D01*
X163600000Y-99569801D01*
X164588791Y-100558593D01*
X164515908Y-100925000D01*
X164631161Y-101504418D01*
X164959375Y-101995625D01*
X165450582Y-102323839D01*
X165883744Y-102410000D01*
X166476256Y-102410000D01*
X166909418Y-102323839D01*
X167400625Y-101995625D01*
X167728839Y-101504418D01*
X167844092Y-100925000D01*
X167728839Y-100345582D01*
X167409291Y-99867344D01*
X167539699Y-99813327D01*
X167718327Y-99634698D01*
X167815000Y-99401309D01*
X167815000Y-98710750D01*
X167656250Y-98552000D01*
X166307000Y-98552000D01*
X166307000Y-98572000D01*
X166053000Y-98572000D01*
X166053000Y-98552000D01*
X166033000Y-98552000D01*
X166033000Y-98298000D01*
X166053000Y-98298000D01*
X166053000Y-97098750D01*
X166307000Y-97098750D01*
X166307000Y-98298000D01*
X167656250Y-98298000D01*
X167815000Y-98139250D01*
X167815000Y-97448691D01*
X167718327Y-97215302D01*
X167539699Y-97036673D01*
X167306310Y-96940000D01*
X166465750Y-96940000D01*
X166307000Y-97098750D01*
X166053000Y-97098750D01*
X165894250Y-96940000D01*
X165053690Y-96940000D01*
X164820301Y-97036673D01*
X164641673Y-97215302D01*
X164545000Y-97448691D01*
X164545000Y-98139250D01*
X164703748Y-98297998D01*
X164545000Y-98297998D01*
X164545000Y-98365199D01*
X164480000Y-98300199D01*
X164480000Y-92829802D01*
X164588791Y-92938593D01*
X164515908Y-93305000D01*
X164631161Y-93884418D01*
X164959375Y-94375625D01*
X165450582Y-94703839D01*
X165883744Y-94790000D01*
X166476256Y-94790000D01*
X166909418Y-94703839D01*
X167400625Y-94375625D01*
X167728839Y-93884418D01*
X167844092Y-93305000D01*
X167728839Y-92725582D01*
X167409291Y-92247344D01*
X167539699Y-92193327D01*
X167718327Y-92014698D01*
X167815000Y-91781309D01*
X167815000Y-91090750D01*
X167656250Y-90932000D01*
X166307000Y-90932000D01*
X166307000Y-90952000D01*
X166053000Y-90952000D01*
X166053000Y-90932000D01*
X166033000Y-90932000D01*
X166033000Y-90678000D01*
X166053000Y-90678000D01*
X166053000Y-89478750D01*
X166307000Y-89478750D01*
X166307000Y-90678000D01*
X167656250Y-90678000D01*
X167815000Y-90519250D01*
X167815000Y-89828691D01*
X167718327Y-89595302D01*
X167539699Y-89416673D01*
X167306310Y-89320000D01*
X166465750Y-89320000D01*
X166307000Y-89478750D01*
X166053000Y-89478750D01*
X165894250Y-89320000D01*
X165280000Y-89320000D01*
X165280000Y-88219848D01*
X165294888Y-88145000D01*
X165280000Y-88070152D01*
X165280000Y-88070148D01*
X165235904Y-87848463D01*
X165235904Y-87848462D01*
X165110329Y-87660527D01*
X165067929Y-87597071D01*
X165004473Y-87554671D01*
X161440331Y-83990530D01*
X161397929Y-83927071D01*
X161301488Y-83862631D01*
X161469144Y-83392698D01*
X161441362Y-82837632D01*
X161386424Y-82705000D01*
X161975199Y-82705000D01*
X164588791Y-85318592D01*
X164515908Y-85685000D01*
X164631161Y-86264418D01*
X164959375Y-86755625D01*
X165450582Y-87083839D01*
X165883744Y-87170000D01*
X166476256Y-87170000D01*
X166909418Y-87083839D01*
X167400625Y-86755625D01*
X167728839Y-86264418D01*
X167844092Y-85685000D01*
X167728839Y-85105582D01*
X167409291Y-84627344D01*
X167539699Y-84573327D01*
X167718327Y-84394698D01*
X167815000Y-84161309D01*
X167815000Y-83470750D01*
X167656250Y-83312000D01*
X166307000Y-83312000D01*
X166307000Y-83332000D01*
X166053000Y-83332000D01*
X166053000Y-83312000D01*
X166033000Y-83312000D01*
X166033000Y-83058000D01*
X166053000Y-83058000D01*
X166053000Y-81858750D01*
X166307000Y-81858750D01*
X166307000Y-83058000D01*
X167656250Y-83058000D01*
X167815000Y-82899250D01*
X167815000Y-82208691D01*
X167718327Y-81975302D01*
X167539699Y-81796673D01*
X167306310Y-81700000D01*
X166465750Y-81700000D01*
X166307000Y-81858750D01*
X166053000Y-81858750D01*
X165894250Y-81700000D01*
X165053690Y-81700000D01*
X164820301Y-81796673D01*
X164641673Y-81975302D01*
X164545000Y-82208691D01*
X164545000Y-82899250D01*
X164703748Y-83057998D01*
X164545000Y-83057998D01*
X164545000Y-83125198D01*
X162880331Y-81460530D01*
X162837929Y-81397071D01*
X162586537Y-81229096D01*
X162364852Y-81185000D01*
X162364847Y-81185000D01*
X162290000Y-81170112D01*
X162215153Y-81185000D01*
X161348427Y-81185000D01*
X161457000Y-80922881D01*
X161457000Y-80367119D01*
X161244320Y-79853663D01*
X160851337Y-79460680D01*
X160644487Y-79375000D01*
X160851337Y-79289320D01*
X161244320Y-78896337D01*
X161457000Y-78382881D01*
X161457000Y-77827119D01*
X161360853Y-77595000D01*
X164485199Y-77595000D01*
X164588791Y-77698592D01*
X164515908Y-78065000D01*
X164631161Y-78644418D01*
X164959375Y-79135625D01*
X165450582Y-79463839D01*
X165883744Y-79550000D01*
X166476256Y-79550000D01*
X166909418Y-79463839D01*
X167400625Y-79135625D01*
X167728839Y-78644418D01*
X167844092Y-78065000D01*
X167728839Y-77485582D01*
X167409291Y-77007344D01*
X167539699Y-76953327D01*
X167718327Y-76774698D01*
X167815000Y-76541309D01*
X167815000Y-75850750D01*
X167656250Y-75692000D01*
X166307000Y-75692000D01*
X166307000Y-75712000D01*
X166053000Y-75712000D01*
X166053000Y-75692000D01*
X164703750Y-75692000D01*
X164545000Y-75850750D01*
X164545000Y-76075000D01*
X161360853Y-76075000D01*
X161457000Y-75842881D01*
X161457000Y-75287119D01*
X161362680Y-75059409D01*
X161384847Y-75055000D01*
X161384852Y-75055000D01*
X161606537Y-75010904D01*
X161857929Y-74842929D01*
X161900331Y-74779470D01*
X162091110Y-74588691D01*
X164545000Y-74588691D01*
X164545000Y-75279250D01*
X164703750Y-75438000D01*
X166053000Y-75438000D01*
X166053000Y-74238750D01*
X166307000Y-74238750D01*
X166307000Y-75438000D01*
X167656250Y-75438000D01*
X167815000Y-75279250D01*
X167815000Y-74588691D01*
X167718327Y-74355302D01*
X167539699Y-74176673D01*
X167306310Y-74080000D01*
X166465750Y-74080000D01*
X166307000Y-74238750D01*
X166053000Y-74238750D01*
X165894250Y-74080000D01*
X165053690Y-74080000D01*
X164820301Y-74176673D01*
X164641673Y-74355302D01*
X164545000Y-74588691D01*
X162091110Y-74588691D01*
X165082145Y-71597657D01*
X165450582Y-71843839D01*
X165883744Y-71930000D01*
X166476256Y-71930000D01*
X166909418Y-71843839D01*
X167400625Y-71515625D01*
X167728839Y-71024418D01*
X167844092Y-70445000D01*
X167728839Y-69865582D01*
X167409291Y-69387344D01*
X167539699Y-69333327D01*
X167718327Y-69154698D01*
X167815000Y-68921309D01*
X167815000Y-68230750D01*
X167656250Y-68072000D01*
X166307000Y-68072000D01*
X166307000Y-68092000D01*
X166053000Y-68092000D01*
X166053000Y-68072000D01*
X164703750Y-68072000D01*
X164545000Y-68230750D01*
X164545000Y-68921309D01*
X164641673Y-69154698D01*
X164820301Y-69333327D01*
X164950709Y-69387344D01*
X164631161Y-69865582D01*
X164626864Y-69887187D01*
X164612071Y-69897071D01*
X164569671Y-69960527D01*
X161457000Y-73073199D01*
X161457000Y-72747119D01*
X161244320Y-72233663D01*
X160851337Y-71840680D01*
X160644487Y-71755000D01*
X160851337Y-71669320D01*
X161244320Y-71276337D01*
X161457000Y-70762881D01*
X161457000Y-70207119D01*
X161244320Y-69693663D01*
X160851337Y-69300680D01*
X160644487Y-69215000D01*
X160851337Y-69129320D01*
X161244320Y-68736337D01*
X161457000Y-68222881D01*
X161457000Y-67667119D01*
X161244320Y-67153663D01*
X161059348Y-66968691D01*
X164545000Y-66968691D01*
X164545000Y-67659250D01*
X164703750Y-67818000D01*
X166053000Y-67818000D01*
X166053000Y-66618750D01*
X165894250Y-66460000D01*
X165053690Y-66460000D01*
X164820301Y-66556673D01*
X164641673Y-66735302D01*
X164545000Y-66968691D01*
X161059348Y-66968691D01*
X160851337Y-66760680D01*
X160337881Y-66548000D01*
X159782119Y-66548000D01*
X159268663Y-66760680D01*
X158875680Y-67153663D01*
X158663000Y-67667119D01*
X158663000Y-68222881D01*
X158875680Y-68736337D01*
X159268663Y-69129320D01*
X159475513Y-69215000D01*
X159268663Y-69300680D01*
X158875680Y-69693663D01*
X158663000Y-70207119D01*
X158663000Y-70762881D01*
X158875680Y-71276337D01*
X159268663Y-71669320D01*
X159475513Y-71755000D01*
X159268663Y-71840680D01*
X158875680Y-72233663D01*
X158862700Y-72265000D01*
X151914802Y-72265000D01*
X149410331Y-69760530D01*
X149367929Y-69697071D01*
X149116537Y-69529096D01*
X148894852Y-69485000D01*
X148894847Y-69485000D01*
X148820000Y-69470112D01*
X148745153Y-69485000D01*
X147194846Y-69485000D01*
X147119999Y-69470112D01*
X147045152Y-69485000D01*
X147045148Y-69485000D01*
X146823463Y-69529096D01*
X146572071Y-69697071D01*
X146529671Y-69760527D01*
X145435528Y-70854671D01*
X145372072Y-70897071D01*
X145329672Y-70960527D01*
X145329671Y-70960528D01*
X145204097Y-71148463D01*
X145145112Y-71445000D01*
X145160001Y-71519852D01*
X145160000Y-74080198D01*
X145055000Y-74185198D01*
X145055000Y-73939126D01*
X144897431Y-73558720D01*
X144606280Y-73267569D01*
X144225874Y-73110000D01*
X144059802Y-73110000D01*
X138582914Y-67633113D01*
X138384320Y-67153663D01*
X137991337Y-66760680D01*
X137477881Y-66548000D01*
X136922119Y-66548000D01*
X136408663Y-66760680D01*
X136015680Y-67153663D01*
X135803000Y-67667119D01*
X116998491Y-67667119D01*
X117374628Y-67143669D01*
X117921988Y-66613239D01*
X118554639Y-66188116D01*
X119252561Y-65881749D01*
X119999183Y-65702501D01*
X120646030Y-65655000D01*
X138550070Y-65655000D01*
X138725655Y-65689926D01*
X138725655Y-65689926D01*
G37*
X138725655Y-65689926D02*
X138815225Y-65749774D01*
X138875074Y-65839345D01*
X138923642Y-66083513D01*
X138999762Y-66466196D01*
X139007827Y-66485666D01*
X139105776Y-66722138D01*
X139322549Y-67046561D01*
X139322550Y-67046562D01*
X139518438Y-67242451D01*
X139842862Y-67459223D01*
X139934747Y-67497283D01*
X140098804Y-67565238D01*
X140481486Y-67641358D01*
X140481491Y-67641358D01*
X140550074Y-67655000D01*
X156689926Y-67655000D01*
X156758509Y-67641358D01*
X156758513Y-67641358D01*
X157141196Y-67565238D01*
X157241895Y-67523527D01*
X157397138Y-67459224D01*
X157721561Y-67242451D01*
X157810349Y-67153663D01*
X157917451Y-67046562D01*
X158134223Y-66722138D01*
X158203030Y-66556024D01*
X158240238Y-66466196D01*
X158316358Y-66083514D01*
X158316358Y-66083513D01*
X158364926Y-65839345D01*
X158424774Y-65749775D01*
X158514345Y-65689926D01*
X158689930Y-65655000D01*
X164588382Y-65655000D01*
X165379192Y-65725578D01*
X166114389Y-65926705D01*
X166802351Y-66254846D01*
X167087854Y-66460000D01*
X166465750Y-66460000D01*
X166307000Y-66618750D01*
X166307000Y-67818000D01*
X167656250Y-67818000D01*
X167815000Y-67659250D01*
X167815000Y-67105862D01*
X167951761Y-67246988D01*
X168376884Y-67879639D01*
X168683251Y-68577561D01*
X168862499Y-69324183D01*
X168910000Y-69971030D01*
X168910001Y-106913370D01*
X168839422Y-107704193D01*
X168638295Y-108439389D01*
X168310152Y-109127355D01*
X167865374Y-109746328D01*
X167318012Y-110276761D01*
X166685362Y-110701883D01*
X165987439Y-111008251D01*
X165240819Y-111187499D01*
X164593970Y-111235000D01*
X159162032Y-111235000D01*
X159134223Y-111167862D01*
X158917451Y-110843438D01*
X158721562Y-110647550D01*
X158721561Y-110647549D01*
X158397138Y-110430776D01*
X158213368Y-110354657D01*
X158141196Y-110324762D01*
X157758513Y-110248642D01*
X157758509Y-110248642D01*
X157689926Y-110235000D01*
X139550074Y-110235000D01*
X139481491Y-110248642D01*
X139481486Y-110248642D01*
X139098804Y-110324762D01*
X139026632Y-110354657D01*
X138842862Y-110430777D01*
X138518438Y-110647549D01*
X138411376Y-110754612D01*
X138322549Y-110843439D01*
X138105776Y-111167862D01*
X138077967Y-111235000D01*
X120651618Y-111235000D01*
X119860807Y-111164422D01*
X119125611Y-110963295D01*
X118437645Y-110635152D01*
X117818672Y-110190374D01*
X117419537Y-109778500D01*
X117765250Y-109778500D01*
X118255367Y-109575487D01*
X118500854Y-109330000D01*
X124119146Y-109330000D01*
X124364633Y-109575487D01*
X124854750Y-109778500D01*
X125385250Y-109778500D01*
X125875367Y-109575487D01*
X126250487Y-109200367D01*
X126453500Y-108710250D01*
X126453500Y-108363078D01*
X126986579Y-107830000D01*
X127433359Y-107830000D01*
X127421843Y-107847235D01*
X127372560Y-108095000D01*
X127372560Y-109795000D01*
X127421843Y-110042765D01*
X127562191Y-110252809D01*
X127772235Y-110393157D01*
X128020000Y-110442440D01*
X129720000Y-110442440D01*
X129967765Y-110393157D01*
X130177809Y-110252809D01*
X130318157Y-110042765D01*
X130327184Y-109997381D01*
X130339375Y-110015625D01*
X130830582Y-110343839D01*
X131263744Y-110430000D01*
X131556256Y-110430000D01*
X131989418Y-110343839D01*
X132480625Y-110015625D01*
X132732193Y-109639126D01*
X134485000Y-109639126D01*
X134485000Y-110050874D01*
X134642569Y-110431280D01*
X134933720Y-110722431D01*
X135314126Y-110880000D01*
X135725874Y-110880000D01*
X136106280Y-110722431D01*
X136397431Y-110431280D01*
X136555000Y-110050874D01*
X136555000Y-109884801D01*
X137734802Y-108705000D01*
X148236525Y-108705000D01*
X148311372Y-108719888D01*
X148386219Y-108705000D01*
X148386224Y-108705000D01*
X148607909Y-108660904D01*
X148840483Y-108505503D01*
X148991743Y-108505503D01*
X149372149Y-108347934D01*
X149663300Y-108056783D01*
X149820869Y-107676377D01*
X149820869Y-107264629D01*
X149663300Y-106884223D01*
X149372149Y-106593072D01*
X148991743Y-106435503D01*
X148579995Y-106435503D01*
X148199589Y-106593072D01*
X147908438Y-106884223D01*
X147783852Y-107185000D01*
X137494848Y-107185000D01*
X137420000Y-107170112D01*
X137345152Y-107185000D01*
X137345148Y-107185000D01*
X137171605Y-107219520D01*
X137123462Y-107229096D01*
X136983565Y-107322573D01*
X136872071Y-107397071D01*
X136829671Y-107460527D01*
X135480199Y-108810000D01*
X135314126Y-108810000D01*
X134933720Y-108967569D01*
X134642569Y-109258720D01*
X134485000Y-109639126D01*
X132732193Y-109639126D01*
X132808839Y-109524418D01*
X132924092Y-108945000D01*
X132808839Y-108365582D01*
X132480625Y-107874375D01*
X131989418Y-107546161D01*
X131556256Y-107460000D01*
X131263744Y-107460000D01*
X131191040Y-107474462D01*
X130097425Y-106380847D01*
X130048049Y-106306951D01*
X129755310Y-106111348D01*
X129497165Y-106060000D01*
X129497161Y-106060000D01*
X129446092Y-106049842D01*
X149361127Y-106049842D01*
X149478558Y-106167273D01*
X149858964Y-106324842D01*
X150270712Y-106324842D01*
X150651118Y-106167273D01*
X150942269Y-105876122D01*
X151099838Y-105495716D01*
X151099838Y-105083968D01*
X150942269Y-104703562D01*
X150651118Y-104412411D01*
X150270712Y-104254842D01*
X149858964Y-104254842D01*
X149478558Y-104412411D01*
X149361127Y-104529842D01*
X138150815Y-104529842D01*
X138290657Y-104390000D01*
X138512839Y-104390000D01*
X138600000Y-104407337D01*
X138687161Y-104390000D01*
X138687165Y-104390000D01*
X138945310Y-104338652D01*
X139238049Y-104143049D01*
X139287425Y-104069153D01*
X140394156Y-102962423D01*
X140468049Y-102913049D01*
X140663652Y-102620310D01*
X140715000Y-102362165D01*
X140715000Y-102362161D01*
X140732337Y-102275000D01*
X140715000Y-102187839D01*
X140715000Y-97831578D01*
X141791579Y-96755000D01*
X148951993Y-96755000D01*
X149314126Y-96905000D01*
X149725874Y-96905000D01*
X150106280Y-96747431D01*
X150397431Y-96456280D01*
X150555000Y-96075874D01*
X150555000Y-95664126D01*
X150397431Y-95283720D01*
X150106280Y-94992569D01*
X149725874Y-94835000D01*
X149314126Y-94835000D01*
X148951993Y-94985000D01*
X141512161Y-94985000D01*
X141425000Y-94967663D01*
X141337839Y-94985000D01*
X141337835Y-94985000D01*
X141079690Y-95036348D01*
X140860845Y-95182576D01*
X140860844Y-95182577D01*
X140786951Y-95231951D01*
X140737577Y-95305844D01*
X139265847Y-96777575D01*
X139191951Y-96826951D01*
X138996348Y-97119691D01*
X138945000Y-97377836D01*
X138945000Y-97377839D01*
X138927663Y-97465000D01*
X138945000Y-97552161D01*
X138945001Y-101908420D01*
X138262039Y-102591382D01*
X137991337Y-102320680D01*
X137800353Y-102241572D01*
X137931143Y-102187397D01*
X138000608Y-101945213D01*
X137200000Y-101144605D01*
X136399392Y-101945213D01*
X136468857Y-102187397D01*
X136609393Y-102237535D01*
X136408663Y-102320680D01*
X136015680Y-102713663D01*
X135803000Y-103227119D01*
X135803000Y-103782881D01*
X136015680Y-104296337D01*
X136249185Y-104529842D01*
X127359644Y-104529842D01*
X126453500Y-103623699D01*
X126453500Y-103099750D01*
X126250487Y-102609633D01*
X125875367Y-102234513D01*
X125385250Y-102031500D01*
X124854750Y-102031500D01*
X124364633Y-102234513D01*
X123994146Y-102605000D01*
X118625854Y-102605000D01*
X118255367Y-102234513D01*
X117765250Y-102031500D01*
X117234750Y-102031500D01*
X116744633Y-102234513D01*
X116369513Y-102609633D01*
X116330000Y-102705026D01*
X116330000Y-100757302D01*
X135790856Y-100757302D01*
X135818638Y-101312368D01*
X135977603Y-101696143D01*
X136219787Y-101765608D01*
X137020395Y-100965000D01*
X137379605Y-100965000D01*
X138180213Y-101765608D01*
X138422397Y-101696143D01*
X138609144Y-101172698D01*
X138581362Y-100617632D01*
X138422397Y-100233857D01*
X138180213Y-100164392D01*
X137379605Y-100965000D01*
X137020395Y-100965000D01*
X136219787Y-100164392D01*
X135977603Y-100233857D01*
X135790856Y-100757302D01*
X116330000Y-100757302D01*
X116330000Y-96170750D01*
X128055000Y-96170750D01*
X128055000Y-96861309D01*
X128151673Y-97094698D01*
X128330301Y-97273327D01*
X128563690Y-97370000D01*
X129254250Y-97370000D01*
X129413000Y-97211250D01*
X129413000Y-96012000D01*
X128213750Y-96012000D01*
X128055000Y-96170750D01*
X116330000Y-96170750D01*
X116330000Y-94908691D01*
X128055000Y-94908691D01*
X128055000Y-95599250D01*
X128213750Y-95758000D01*
X129413000Y-95758000D01*
X129413000Y-94558750D01*
X129667000Y-94558750D01*
X129667000Y-95758000D01*
X129687000Y-95758000D01*
X129687000Y-96012000D01*
X129667000Y-96012000D01*
X129667000Y-97211250D01*
X129825750Y-97370000D01*
X130516310Y-97370000D01*
X130749699Y-97273327D01*
X130928327Y-97094698D01*
X130994904Y-96933967D01*
X131009375Y-96955625D01*
X131500582Y-97283839D01*
X131933744Y-97370000D01*
X132226256Y-97370000D01*
X132659418Y-97283839D01*
X133150625Y-96955625D01*
X133478839Y-96464418D01*
X133594092Y-95885000D01*
X133478839Y-95305582D01*
X133150625Y-94814375D01*
X132659418Y-94486161D01*
X132226256Y-94400000D01*
X131933744Y-94400000D01*
X131500582Y-94486161D01*
X131009375Y-94814375D01*
X130994904Y-94836033D01*
X130928327Y-94675302D01*
X130749699Y-94496673D01*
X130516310Y-94400000D01*
X129825750Y-94400000D01*
X129667000Y-94558750D01*
X129413000Y-94558750D01*
X129254250Y-94400000D01*
X128563690Y-94400000D01*
X128330301Y-94496673D01*
X128151673Y-94675302D01*
X128055000Y-94908691D01*
X116330000Y-94908691D01*
X116330000Y-90230750D01*
X118135000Y-90230750D01*
X118135000Y-90921309D01*
X118231673Y-91154698D01*
X118410301Y-91333327D01*
X118643690Y-91430000D01*
X119334250Y-91430000D01*
X119493000Y-91271250D01*
X119493000Y-90072000D01*
X119747000Y-90072000D01*
X119747000Y-91271250D01*
X119905750Y-91430000D01*
X120596310Y-91430000D01*
X120829699Y-91333327D01*
X121008327Y-91154698D01*
X121105000Y-90921309D01*
X121105000Y-90230750D01*
X120946250Y-90072000D01*
X119747000Y-90072000D01*
X119493000Y-90072000D01*
X118293750Y-90072000D01*
X118135000Y-90230750D01*
X116330000Y-90230750D01*
X116330000Y-89945000D01*
X132105908Y-89945000D01*
X132221161Y-90524418D01*
X132549375Y-91015625D01*
X133040582Y-91343839D01*
X133473744Y-91430000D01*
X133766256Y-91430000D01*
X134199418Y-91343839D01*
X134690625Y-91015625D01*
X134970139Y-90597302D01*
X135790856Y-90597302D01*
X135818638Y-91152368D01*
X135977603Y-91536143D01*
X136219787Y-91605608D01*
X137020395Y-90805000D01*
X137379605Y-90805000D01*
X138180213Y-91605608D01*
X138422397Y-91536143D01*
X138609144Y-91012698D01*
X138581362Y-90457632D01*
X138422397Y-90073857D01*
X138180213Y-90004392D01*
X137379605Y-90805000D01*
X137020395Y-90805000D01*
X136219787Y-90004392D01*
X135977603Y-90073857D01*
X135790856Y-90597302D01*
X134970139Y-90597302D01*
X135018839Y-90524418D01*
X135134092Y-89945000D01*
X135018839Y-89365582D01*
X134690625Y-88874375D01*
X134199418Y-88546161D01*
X133766256Y-88460000D01*
X133473744Y-88460000D01*
X133040582Y-88546161D01*
X132549375Y-88874375D01*
X132221161Y-89365582D01*
X132105908Y-89945000D01*
X116330000Y-89945000D01*
X116330000Y-88968691D01*
X118135000Y-88968691D01*
X118135000Y-89659250D01*
X118293750Y-89818000D01*
X119493000Y-89818000D01*
X119493000Y-88618750D01*
X119747000Y-88618750D01*
X119747000Y-89818000D01*
X120946250Y-89818000D01*
X121105000Y-89659250D01*
X121105000Y-88968691D01*
X121008327Y-88735302D01*
X120829699Y-88556673D01*
X120596310Y-88460000D01*
X119905750Y-88460000D01*
X119747000Y-88618750D01*
X119493000Y-88618750D01*
X119334250Y-88460000D01*
X118643690Y-88460000D01*
X118410301Y-88556673D01*
X118231673Y-88735302D01*
X118135000Y-88968691D01*
X116330000Y-88968691D01*
X116330000Y-69976618D01*
X116400578Y-69185808D01*
X116601705Y-68450611D01*
X116929846Y-67762649D01*
X116998491Y-67667119D01*
X135803000Y-67667119D01*
X135803000Y-68222881D01*
X136015680Y-68736337D01*
X136408663Y-69129320D01*
X136615513Y-69215000D01*
X136408663Y-69300680D01*
X136015680Y-69693663D01*
X135803000Y-70207119D01*
X135803000Y-70762881D01*
X136015680Y-71276337D01*
X136408663Y-71669320D01*
X136615513Y-71755000D01*
X136408663Y-71840680D01*
X136015680Y-72233663D01*
X135803000Y-72747119D01*
X135803000Y-73302881D01*
X136015680Y-73816337D01*
X136408663Y-74209320D01*
X136615513Y-74295000D01*
X136408663Y-74380680D01*
X136015680Y-74773663D01*
X135803000Y-75287119D01*
X135803000Y-75842881D01*
X136015680Y-76356337D01*
X136408663Y-76749320D01*
X136615513Y-76835000D01*
X136408663Y-76920680D01*
X136015680Y-77313663D01*
X135803000Y-77827119D01*
X135803000Y-78382881D01*
X136015680Y-78896337D01*
X136408663Y-79289320D01*
X136615513Y-79375000D01*
X136408663Y-79460680D01*
X136015680Y-79853663D01*
X135803000Y-80367119D01*
X135803000Y-80922881D01*
X136015680Y-81436337D01*
X136408663Y-81829320D01*
X136615513Y-81915000D01*
X136408663Y-82000680D01*
X136015680Y-82393663D01*
X135803000Y-82907119D01*
X135803000Y-83462881D01*
X136015680Y-83976337D01*
X136408663Y-84369320D01*
X136615513Y-84455000D01*
X136408663Y-84540680D01*
X136015680Y-84933663D01*
X135803000Y-85447119D01*
X135803000Y-86002881D01*
X136015680Y-86516337D01*
X136408663Y-86909320D01*
X136615513Y-86995000D01*
X136408663Y-87080680D01*
X136015680Y-87473663D01*
X135803000Y-87987119D01*
X135803000Y-88542881D01*
X136015680Y-89056337D01*
X136408663Y-89449320D01*
X136599647Y-89528428D01*
X136468857Y-89582603D01*
X136399392Y-89824787D01*
X137200000Y-90625395D01*
X138000608Y-89824787D01*
X137931143Y-89582603D01*
X137790607Y-89532465D01*
X137991337Y-89449320D01*
X138384320Y-89056337D01*
X138597000Y-88542881D01*
X138597000Y-87987119D01*
X138384320Y-87473663D01*
X137991337Y-87080680D01*
X137784487Y-86995000D01*
X137991337Y-86909320D01*
X138384320Y-86516337D01*
X138597000Y-86002881D01*
X138597000Y-85447119D01*
X138384320Y-84933663D01*
X137991337Y-84540680D01*
X137784487Y-84455000D01*
X137991337Y-84369320D01*
X138384320Y-83976337D01*
X138597000Y-83462881D01*
X138597000Y-82907119D01*
X138384320Y-82393663D01*
X137991337Y-82000680D01*
X137784487Y-81915000D01*
X137991337Y-81829320D01*
X138384320Y-81436337D01*
X138597000Y-80922881D01*
X138597000Y-80367119D01*
X138384320Y-79853663D01*
X137991337Y-79460680D01*
X137784487Y-79375000D01*
X137991337Y-79289320D01*
X138384320Y-78896337D01*
X138597000Y-78382881D01*
X138597000Y-77827119D01*
X138534538Y-77676323D01*
X138664126Y-77730000D01*
X138852382Y-77730000D01*
X138973462Y-77810903D01*
X139195147Y-77854999D01*
X139195151Y-77854999D01*
X139269998Y-77869887D01*
X139344845Y-77854999D01*
X141405199Y-77854999D01*
X140965528Y-78294671D01*
X140902072Y-78337071D01*
X140859672Y-78400527D01*
X140859671Y-78400528D01*
X140792178Y-78501539D01*
X140734097Y-78588463D01*
X140709935Y-78709932D01*
X140487793Y-78932074D01*
X140315000Y-79349234D01*
X140315000Y-79800766D01*
X140487793Y-80217926D01*
X140807074Y-80537207D01*
X141224234Y-80710000D01*
X141675766Y-80710000D01*
X142092926Y-80537207D01*
X142412207Y-80217926D01*
X142585000Y-79800766D01*
X142585000Y-79349234D01*
X142431398Y-78978404D01*
X142444801Y-78965001D01*
X142591300Y-78965001D01*
X142708731Y-79082432D01*
X143089137Y-79240001D01*
X143500885Y-79240001D01*
X143881291Y-79082432D01*
X144172442Y-78791281D01*
X144330011Y-78410875D01*
X144330011Y-77999127D01*
X144172442Y-77618721D01*
X143971761Y-77418040D01*
X146404473Y-74985329D01*
X146467929Y-74942929D01*
X146635904Y-74691537D01*
X146680000Y-74469852D01*
X146680000Y-74469848D01*
X146694888Y-74395001D01*
X146680000Y-74320154D01*
X146680000Y-71759801D01*
X146785000Y-71654801D01*
X146785000Y-71750874D01*
X146942569Y-72131280D01*
X147060000Y-72248711D01*
X147060001Y-76470148D01*
X147045112Y-76545000D01*
X147060001Y-76619852D01*
X147104097Y-76841537D01*
X147272072Y-77092929D01*
X147335528Y-77135329D01*
X147540638Y-77340439D01*
X147233720Y-77467569D01*
X146942569Y-77758720D01*
X146785000Y-78139126D01*
X146785000Y-78550874D01*
X146942569Y-78931280D01*
X147233720Y-79222431D01*
X147614126Y-79380000D01*
X147780199Y-79380000D01*
X158449670Y-90049472D01*
X158492071Y-90112929D01*
X158743463Y-90280904D01*
X158763347Y-90284859D01*
X158663000Y-90527119D01*
X158663000Y-91082881D01*
X158875680Y-91596337D01*
X159268663Y-91989320D01*
X159475513Y-92075000D01*
X159268663Y-92160680D01*
X158875680Y-92553663D01*
X158663000Y-93067119D01*
X158663000Y-93622881D01*
X158875680Y-94136337D01*
X159268663Y-94529320D01*
X159475513Y-94615000D01*
X159268663Y-94700680D01*
X159106307Y-94863036D01*
X159103652Y-94849690D01*
X158908049Y-94556951D01*
X158834156Y-94507577D01*
X157107425Y-92780847D01*
X157058049Y-92706951D01*
X156765310Y-92511348D01*
X156507165Y-92460000D01*
X156507161Y-92460000D01*
X156420000Y-92442663D01*
X156332839Y-92460000D01*
X138290657Y-92460000D01*
X137991337Y-92160680D01*
X137800353Y-92081572D01*
X137931143Y-92027397D01*
X138000608Y-91785213D01*
X137200000Y-90984605D01*
X136399392Y-91785213D01*
X136468857Y-92027397D01*
X136609393Y-92077535D01*
X136408663Y-92160680D01*
X136015680Y-92553663D01*
X135803000Y-93067119D01*
X135803000Y-93622881D01*
X136015680Y-94136337D01*
X136408663Y-94529320D01*
X136615513Y-94615000D01*
X136408663Y-94700680D01*
X136015680Y-95093663D01*
X135803000Y-95607119D01*
X135803000Y-96162881D01*
X136015680Y-96676337D01*
X136408663Y-97069320D01*
X136615513Y-97155000D01*
X136408663Y-97240680D01*
X136015680Y-97633663D01*
X135803000Y-98147119D01*
X135803000Y-98702881D01*
X136015680Y-99216337D01*
X136408663Y-99609320D01*
X136599647Y-99688428D01*
X136468857Y-99742603D01*
X136399392Y-99984787D01*
X137200000Y-100785395D01*
X138000608Y-99984787D01*
X137931143Y-99742603D01*
X137790607Y-99692465D01*
X137991337Y-99609320D01*
X138384320Y-99216337D01*
X138597000Y-98702881D01*
X138597000Y-98147119D01*
X138384320Y-97633663D01*
X137991337Y-97240680D01*
X137784487Y-97155000D01*
X137991337Y-97069320D01*
X138384320Y-96676337D01*
X138597000Y-96162881D01*
X138597000Y-95607119D01*
X138384320Y-95093663D01*
X137991337Y-94700680D01*
X137784487Y-94615000D01*
X137991337Y-94529320D01*
X138290657Y-94230000D01*
X156053422Y-94230000D01*
X157385000Y-95561579D01*
X157385001Y-101627835D01*
X157367663Y-101715000D01*
X157436348Y-102060309D01*
X157582576Y-102279154D01*
X157582578Y-102279156D01*
X157631952Y-102353049D01*
X157705845Y-102402423D01*
X158663000Y-103359579D01*
X158663000Y-103782881D01*
X158875680Y-104296337D01*
X159268663Y-104689320D01*
X159782119Y-104902000D01*
X160337881Y-104902000D01*
X160851337Y-104689320D01*
X161244320Y-104296337D01*
X161457000Y-103782881D01*
X161457000Y-103227119D01*
X161244320Y-102713663D01*
X160851337Y-102320680D01*
X160660353Y-102241572D01*
X160791143Y-102187397D01*
X160860608Y-101945213D01*
X160060000Y-101144605D01*
X160045858Y-101158748D01*
X159866253Y-100979143D01*
X159880395Y-100965000D01*
X160239605Y-100965000D01*
X161040213Y-101765608D01*
X161282397Y-101696143D01*
X161469144Y-101172698D01*
X161441362Y-100617632D01*
X161282397Y-100233857D01*
X161040213Y-100164392D01*
X160239605Y-100965000D01*
X159880395Y-100965000D01*
X159866253Y-100950858D01*
X160045858Y-100771253D01*
X160060000Y-100785395D01*
X160860608Y-99984787D01*
X160791143Y-99742603D01*
X160650607Y-99692465D01*
X160851337Y-99609320D01*
X161244320Y-99216337D01*
X161457000Y-98702881D01*
X161457000Y-98147119D01*
X161244320Y-97633663D01*
X160851337Y-97240680D01*
X160644487Y-97155000D01*
X160851337Y-97069320D01*
X161244320Y-96676337D01*
X161457000Y-96162881D01*
X161457000Y-95607119D01*
X161244320Y-95093663D01*
X160851337Y-94700680D01*
X160644487Y-94615000D01*
X160851337Y-94529320D01*
X161244320Y-94136337D01*
X161457000Y-93622881D01*
X161457000Y-93067119D01*
X161244320Y-92553663D01*
X160851337Y-92160680D01*
X160644487Y-92075000D01*
X160851337Y-91989320D01*
X161244320Y-91596337D01*
X161457000Y-91082881D01*
X161457000Y-90946801D01*
X162080000Y-91569802D01*
X162080001Y-105280148D01*
X162065112Y-105355000D01*
X162124097Y-105651537D01*
X162248535Y-105837771D01*
X162292072Y-105902929D01*
X162355528Y-105945329D01*
X164588791Y-108178592D01*
X164515908Y-108545000D01*
X164631161Y-109124418D01*
X164959375Y-109615625D01*
X165450582Y-109943839D01*
X165883744Y-110030000D01*
X166476256Y-110030000D01*
X166909418Y-109943839D01*
X167400625Y-109615625D01*
X167728839Y-109124418D01*
X167844092Y-108545000D01*
X167728839Y-107965582D01*
X167409291Y-107487344D01*
X167539699Y-107433327D01*
X167718327Y-107254698D01*
X167815000Y-107021309D01*
X167815000Y-106330750D01*
X167656250Y-106172000D01*
X166307000Y-106172000D01*
X166307000Y-106192000D01*
X166053000Y-106192000D01*
X166053000Y-106172000D01*
X166033000Y-106172000D01*
X166033000Y-105918000D01*
X166053000Y-105918000D01*
X166053000Y-104718750D01*
X166307000Y-104718750D01*
X166307000Y-105918000D01*
X167656250Y-105918000D01*
X167815000Y-105759250D01*
X167815000Y-105068691D01*
X167718327Y-104835302D01*
X167539699Y-104656673D01*
X167306310Y-104560000D01*
X166465750Y-104560000D01*
X166307000Y-104718750D01*
X166053000Y-104718750D01*
X165894250Y-104560000D01*
X165053690Y-104560000D01*
X164820301Y-104656673D01*
X164641673Y-104835302D01*
X164545000Y-105068691D01*
X164545000Y-105759250D01*
X164703748Y-105917998D01*
X164545000Y-105917998D01*
X164545000Y-105985199D01*
X163600000Y-105040199D01*
X163600000Y-99569801D01*
X164588791Y-100558593D01*
X164515908Y-100925000D01*
X164631161Y-101504418D01*
X164959375Y-101995625D01*
X165450582Y-102323839D01*
X165883744Y-102410000D01*
X166476256Y-102410000D01*
X166909418Y-102323839D01*
X167400625Y-101995625D01*
X167728839Y-101504418D01*
X167844092Y-100925000D01*
X167728839Y-100345582D01*
X167409291Y-99867344D01*
X167539699Y-99813327D01*
X167718327Y-99634698D01*
X167815000Y-99401309D01*
X167815000Y-98710750D01*
X167656250Y-98552000D01*
X166307000Y-98552000D01*
X166307000Y-98572000D01*
X166053000Y-98572000D01*
X166053000Y-98552000D01*
X166033000Y-98552000D01*
X166033000Y-98298000D01*
X166053000Y-98298000D01*
X166053000Y-97098750D01*
X166307000Y-97098750D01*
X166307000Y-98298000D01*
X167656250Y-98298000D01*
X167815000Y-98139250D01*
X167815000Y-97448691D01*
X167718327Y-97215302D01*
X167539699Y-97036673D01*
X167306310Y-96940000D01*
X166465750Y-96940000D01*
X166307000Y-97098750D01*
X166053000Y-97098750D01*
X165894250Y-96940000D01*
X165053690Y-96940000D01*
X164820301Y-97036673D01*
X164641673Y-97215302D01*
X164545000Y-97448691D01*
X164545000Y-98139250D01*
X164703748Y-98297998D01*
X164545000Y-98297998D01*
X164545000Y-98365199D01*
X164480000Y-98300199D01*
X164480000Y-92829802D01*
X164588791Y-92938593D01*
X164515908Y-93305000D01*
X164631161Y-93884418D01*
X164959375Y-94375625D01*
X165450582Y-94703839D01*
X165883744Y-94790000D01*
X166476256Y-94790000D01*
X166909418Y-94703839D01*
X167400625Y-94375625D01*
X167728839Y-93884418D01*
X167844092Y-93305000D01*
X167728839Y-92725582D01*
X167409291Y-92247344D01*
X167539699Y-92193327D01*
X167718327Y-92014698D01*
X167815000Y-91781309D01*
X167815000Y-91090750D01*
X167656250Y-90932000D01*
X166307000Y-90932000D01*
X166307000Y-90952000D01*
X166053000Y-90952000D01*
X166053000Y-90932000D01*
X166033000Y-90932000D01*
X166033000Y-90678000D01*
X166053000Y-90678000D01*
X166053000Y-89478750D01*
X166307000Y-89478750D01*
X166307000Y-90678000D01*
X167656250Y-90678000D01*
X167815000Y-90519250D01*
X167815000Y-89828691D01*
X167718327Y-89595302D01*
X167539699Y-89416673D01*
X167306310Y-89320000D01*
X166465750Y-89320000D01*
X166307000Y-89478750D01*
X166053000Y-89478750D01*
X165894250Y-89320000D01*
X165280000Y-89320000D01*
X165280000Y-88219848D01*
X165294888Y-88145000D01*
X165280000Y-88070152D01*
X165280000Y-88070148D01*
X165235904Y-87848463D01*
X165235904Y-87848462D01*
X165110329Y-87660527D01*
X165067929Y-87597071D01*
X165004473Y-87554671D01*
X161440331Y-83990530D01*
X161397929Y-83927071D01*
X161301488Y-83862631D01*
X161469144Y-83392698D01*
X161441362Y-82837632D01*
X161386424Y-82705000D01*
X161975199Y-82705000D01*
X164588791Y-85318592D01*
X164515908Y-85685000D01*
X164631161Y-86264418D01*
X164959375Y-86755625D01*
X165450582Y-87083839D01*
X165883744Y-87170000D01*
X166476256Y-87170000D01*
X166909418Y-87083839D01*
X167400625Y-86755625D01*
X167728839Y-86264418D01*
X167844092Y-85685000D01*
X167728839Y-85105582D01*
X167409291Y-84627344D01*
X167539699Y-84573327D01*
X167718327Y-84394698D01*
X167815000Y-84161309D01*
X167815000Y-83470750D01*
X167656250Y-83312000D01*
X166307000Y-83312000D01*
X166307000Y-83332000D01*
X166053000Y-83332000D01*
X166053000Y-83312000D01*
X166033000Y-83312000D01*
X166033000Y-83058000D01*
X166053000Y-83058000D01*
X166053000Y-81858750D01*
X166307000Y-81858750D01*
X166307000Y-83058000D01*
X167656250Y-83058000D01*
X167815000Y-82899250D01*
X167815000Y-82208691D01*
X167718327Y-81975302D01*
X167539699Y-81796673D01*
X167306310Y-81700000D01*
X166465750Y-81700000D01*
X166307000Y-81858750D01*
X166053000Y-81858750D01*
X165894250Y-81700000D01*
X165053690Y-81700000D01*
X164820301Y-81796673D01*
X164641673Y-81975302D01*
X164545000Y-82208691D01*
X164545000Y-82899250D01*
X164703748Y-83057998D01*
X164545000Y-83057998D01*
X164545000Y-83125198D01*
X162880331Y-81460530D01*
X162837929Y-81397071D01*
X162586537Y-81229096D01*
X162364852Y-81185000D01*
X162364847Y-81185000D01*
X162290000Y-81170112D01*
X162215153Y-81185000D01*
X161348427Y-81185000D01*
X161457000Y-80922881D01*
X161457000Y-80367119D01*
X161244320Y-79853663D01*
X160851337Y-79460680D01*
X160644487Y-79375000D01*
X160851337Y-79289320D01*
X161244320Y-78896337D01*
X161457000Y-78382881D01*
X161457000Y-77827119D01*
X161360853Y-77595000D01*
X164485199Y-77595000D01*
X164588791Y-77698592D01*
X164515908Y-78065000D01*
X164631161Y-78644418D01*
X164959375Y-79135625D01*
X165450582Y-79463839D01*
X165883744Y-79550000D01*
X166476256Y-79550000D01*
X166909418Y-79463839D01*
X167400625Y-79135625D01*
X167728839Y-78644418D01*
X167844092Y-78065000D01*
X167728839Y-77485582D01*
X167409291Y-77007344D01*
X167539699Y-76953327D01*
X167718327Y-76774698D01*
X167815000Y-76541309D01*
X167815000Y-75850750D01*
X167656250Y-75692000D01*
X166307000Y-75692000D01*
X166307000Y-75712000D01*
X166053000Y-75712000D01*
X166053000Y-75692000D01*
X164703750Y-75692000D01*
X164545000Y-75850750D01*
X164545000Y-76075000D01*
X161360853Y-76075000D01*
X161457000Y-75842881D01*
X161457000Y-75287119D01*
X161362680Y-75059409D01*
X161384847Y-75055000D01*
X161384852Y-75055000D01*
X161606537Y-75010904D01*
X161857929Y-74842929D01*
X161900331Y-74779470D01*
X162091110Y-74588691D01*
X164545000Y-74588691D01*
X164545000Y-75279250D01*
X164703750Y-75438000D01*
X166053000Y-75438000D01*
X166053000Y-74238750D01*
X166307000Y-74238750D01*
X166307000Y-75438000D01*
X167656250Y-75438000D01*
X167815000Y-75279250D01*
X167815000Y-74588691D01*
X167718327Y-74355302D01*
X167539699Y-74176673D01*
X167306310Y-74080000D01*
X166465750Y-74080000D01*
X166307000Y-74238750D01*
X166053000Y-74238750D01*
X165894250Y-74080000D01*
X165053690Y-74080000D01*
X164820301Y-74176673D01*
X164641673Y-74355302D01*
X164545000Y-74588691D01*
X162091110Y-74588691D01*
X165082145Y-71597657D01*
X165450582Y-71843839D01*
X165883744Y-71930000D01*
X166476256Y-71930000D01*
X166909418Y-71843839D01*
X167400625Y-71515625D01*
X167728839Y-71024418D01*
X167844092Y-70445000D01*
X167728839Y-69865582D01*
X167409291Y-69387344D01*
X167539699Y-69333327D01*
X167718327Y-69154698D01*
X167815000Y-68921309D01*
X167815000Y-68230750D01*
X167656250Y-68072000D01*
X166307000Y-68072000D01*
X166307000Y-68092000D01*
X166053000Y-68092000D01*
X166053000Y-68072000D01*
X164703750Y-68072000D01*
X164545000Y-68230750D01*
X164545000Y-68921309D01*
X164641673Y-69154698D01*
X164820301Y-69333327D01*
X164950709Y-69387344D01*
X164631161Y-69865582D01*
X164626864Y-69887187D01*
X164612071Y-69897071D01*
X164569671Y-69960527D01*
X161457000Y-73073199D01*
X161457000Y-72747119D01*
X161244320Y-72233663D01*
X160851337Y-71840680D01*
X160644487Y-71755000D01*
X160851337Y-71669320D01*
X161244320Y-71276337D01*
X161457000Y-70762881D01*
X161457000Y-70207119D01*
X161244320Y-69693663D01*
X160851337Y-69300680D01*
X160644487Y-69215000D01*
X160851337Y-69129320D01*
X161244320Y-68736337D01*
X161457000Y-68222881D01*
X161457000Y-67667119D01*
X161244320Y-67153663D01*
X161059348Y-66968691D01*
X164545000Y-66968691D01*
X164545000Y-67659250D01*
X164703750Y-67818000D01*
X166053000Y-67818000D01*
X166053000Y-66618750D01*
X165894250Y-66460000D01*
X165053690Y-66460000D01*
X164820301Y-66556673D01*
X164641673Y-66735302D01*
X164545000Y-66968691D01*
X161059348Y-66968691D01*
X160851337Y-66760680D01*
X160337881Y-66548000D01*
X159782119Y-66548000D01*
X159268663Y-66760680D01*
X158875680Y-67153663D01*
X158663000Y-67667119D01*
X158663000Y-68222881D01*
X158875680Y-68736337D01*
X159268663Y-69129320D01*
X159475513Y-69215000D01*
X159268663Y-69300680D01*
X158875680Y-69693663D01*
X158663000Y-70207119D01*
X158663000Y-70762881D01*
X158875680Y-71276337D01*
X159268663Y-71669320D01*
X159475513Y-71755000D01*
X159268663Y-71840680D01*
X158875680Y-72233663D01*
X158862700Y-72265000D01*
X151914802Y-72265000D01*
X149410331Y-69760530D01*
X149367929Y-69697071D01*
X149116537Y-69529096D01*
X148894852Y-69485000D01*
X148894847Y-69485000D01*
X148820000Y-69470112D01*
X148745153Y-69485000D01*
X147194846Y-69485000D01*
X147119999Y-69470112D01*
X147045152Y-69485000D01*
X147045148Y-69485000D01*
X146823463Y-69529096D01*
X146572071Y-69697071D01*
X146529671Y-69760527D01*
X145435528Y-70854671D01*
X145372072Y-70897071D01*
X145329672Y-70960527D01*
X145329671Y-70960528D01*
X145204097Y-71148463D01*
X145145112Y-71445000D01*
X145160001Y-71519852D01*
X145160000Y-74080198D01*
X145055000Y-74185198D01*
X145055000Y-73939126D01*
X144897431Y-73558720D01*
X144606280Y-73267569D01*
X144225874Y-73110000D01*
X144059802Y-73110000D01*
X138582914Y-67633113D01*
X138384320Y-67153663D01*
X137991337Y-66760680D01*
X137477881Y-66548000D01*
X136922119Y-66548000D01*
X136408663Y-66760680D01*
X136015680Y-67153663D01*
X135803000Y-67667119D01*
X116998491Y-67667119D01*
X117374628Y-67143669D01*
X117921988Y-66613239D01*
X118554639Y-66188116D01*
X119252561Y-65881749D01*
X119999183Y-65702501D01*
X120646030Y-65655000D01*
X138550070Y-65655000D01*
X138725655Y-65689926D01*
G36*
X160253748Y-83170858D02*
X160239605Y-83185000D01*
X160253748Y-83199143D01*
X160074143Y-83378748D01*
X160060000Y-83364605D01*
X160045858Y-83378748D01*
X159866253Y-83199143D01*
X159880395Y-83185000D01*
X159866253Y-83170858D01*
X160045858Y-82991253D01*
X160060000Y-83005395D01*
X160074143Y-82991253D01*
X160253748Y-83170858D01*
X160253748Y-83170858D01*
G37*
X160253748Y-83170858D02*
X160239605Y-83185000D01*
X160253748Y-83199143D01*
X160074143Y-83378748D01*
X160060000Y-83364605D01*
X160045858Y-83378748D01*
X159866253Y-83199143D01*
X159880395Y-83185000D01*
X159866253Y-83170858D01*
X160045858Y-82991253D01*
X160060000Y-83005395D01*
X160074143Y-82991253D01*
X160253748Y-83170858D01*
G04 #@! TD*
M02*
