G04 #@! TF.GenerationSoftware,KiCad,Pcbnew,5.0.2-bee76a0~70~ubuntu16.04.1*
G04 #@! TF.CreationDate,2020-01-22T11:55:58+00:00*
G04 #@! TF.ProjectId,transmitter,7472616e-736d-4697-9474-65722e6b6963,2.0.0*
G04 #@! TF.SameCoordinates,Original*
G04 #@! TF.FileFunction,Soldermask,Top*
G04 #@! TF.FilePolarity,Negative*
%FSLAX46Y46*%
G04 Gerber Fmt 4.6, Leading zero omitted, Abs format (unit mm)*
G04 Created by KiCad (PCBNEW 5.0.2-bee76a0~70~ubuntu16.04.1) date Wed 22 Jan 2020 11:55:58 GMT*
%MOMM*%
%LPD*%
G01*
G04 APERTURE LIST*
%ADD10C,0.150000*%
%ADD11C,0.127000*%
%ADD12C,0.076200*%
%ADD13C,0.101600*%
%ADD14R,1.000000X0.550000*%
%ADD15C,1.524000*%
%ADD16C,0.500000*%
%ADD17C,0.950000*%
%ADD18C,1.397000*%
%ADD19R,1.700000X1.700000*%
%ADD20O,1.700000X1.700000*%
%ADD21C,1.700000*%
%ADD22O,2.000000X1.700000*%
%ADD23R,0.800000X0.900000*%
%ADD24R,0.600000X2.200000*%
%ADD25R,3.450000X2.150000*%
%ADD26R,0.650000X1.560000*%
%ADD27R,1.500000X0.600000*%
%ADD28C,1.150000*%
%ADD29C,0.500000*%
%ADD30C,1.000000*%
G04 APERTURE END LIST*
D10*
G04 #@! TO.C,REF\002A\002A*
X126391623Y-109425000D02*
G75*
G03X126391623Y-109425000I-31623J0D01*
G01*
D11*
X126630000Y-109505000D02*
G75*
G03X126630000Y-109505000I-410000J0D01*
G01*
D10*
X126111623Y-109425000D02*
G75*
G03X126111623Y-109425000I-31623J0D01*
G01*
D12*
X126030000Y-109645000D02*
X126150000Y-109715000D01*
X126150000Y-109715000D02*
X126280000Y-109705000D01*
X126280000Y-109705000D02*
X126400000Y-109615000D01*
D13*
X126110000Y-109035000D02*
X125840000Y-108895000D01*
X125840000Y-108895000D02*
X125560000Y-108965000D01*
X125560000Y-108965000D02*
X125450000Y-109155000D01*
X125450000Y-109155000D02*
X125560000Y-109325000D01*
X125560000Y-109325000D02*
X125770000Y-109375000D01*
X125780000Y-109445000D02*
X125510000Y-109495000D01*
X125510000Y-109495000D02*
X125420000Y-109645000D01*
X125420000Y-109645000D02*
X125460000Y-109775000D01*
X125460000Y-109775000D02*
X125580000Y-109855000D01*
X125580000Y-109855000D02*
X125830000Y-109795000D01*
X125850000Y-109815000D02*
X125770000Y-110015000D01*
X125770000Y-110015000D02*
X125780000Y-110205000D01*
X125780000Y-110205000D02*
X125890000Y-110245000D01*
X125890000Y-110245000D02*
X126010000Y-110205000D01*
X126010000Y-110205000D02*
X126070000Y-110095000D01*
X126070000Y-110095000D02*
X126090000Y-109985000D01*
X126090000Y-109985000D02*
X126110000Y-109965000D01*
X126110000Y-109965000D02*
X126080000Y-109985000D01*
X126080000Y-109985000D02*
X126070000Y-109955000D01*
X126180000Y-109075000D02*
X126270000Y-108805000D01*
X126270000Y-108805000D02*
X126430000Y-108745000D01*
X126430000Y-108745000D02*
X126600000Y-108775000D01*
X126600000Y-108775000D02*
X126650000Y-108885000D01*
X126650000Y-108885000D02*
X126630000Y-108995000D01*
X126630000Y-108995000D02*
X126540000Y-109135000D01*
X126510000Y-109125000D02*
X126880000Y-109115000D01*
X126880000Y-109115000D02*
X126990000Y-109215000D01*
X126990000Y-109215000D02*
X127010000Y-109365000D01*
X127010000Y-109365000D02*
X126910000Y-109435000D01*
X126910000Y-109435000D02*
X126760000Y-109445000D01*
X126760000Y-109445000D02*
X126660000Y-109445000D01*
X126660000Y-109475000D02*
X126840000Y-109585000D01*
X126840000Y-109585000D02*
X126940000Y-109725000D01*
X126940000Y-109725000D02*
X126940000Y-109865000D01*
X126940000Y-109865000D02*
X126900000Y-109965000D01*
X126900000Y-109965000D02*
X126790000Y-110005000D01*
X126790000Y-110005000D02*
X126660000Y-109975000D01*
X126660000Y-109975000D02*
X126570000Y-109845000D01*
X126140000Y-109975000D02*
X126210000Y-110165000D01*
X126210000Y-110165000D02*
X126330000Y-110295000D01*
X126330000Y-110295000D02*
X126450000Y-110265000D01*
X126450000Y-110265000D02*
X126500000Y-110175000D01*
X126500000Y-110175000D02*
X126480000Y-110075000D01*
X126480000Y-110075000D02*
X126480000Y-109905000D01*
X126110000Y-110065000D02*
X126200000Y-110495000D01*
X126200000Y-110495000D02*
X126420000Y-110795000D01*
X126420000Y-110795000D02*
X126540000Y-111075000D01*
X126540000Y-111075000D02*
X126500000Y-111295000D01*
X126500000Y-111295000D02*
X126660000Y-110775000D01*
G04 #@! TD*
D14*
G04 #@! TO.C,U2*
X151130000Y-98055000D03*
X151130000Y-99005000D03*
X151130000Y-99955000D03*
X153730000Y-99955000D03*
X153730000Y-98055000D03*
X153730000Y-99005000D03*
G04 #@! TD*
D15*
G04 #@! TO.C,U1*
X137200000Y-67945000D03*
X137200000Y-70485000D03*
X137200000Y-73025000D03*
X137200000Y-75565000D03*
X137200000Y-78105000D03*
X137200000Y-80645000D03*
X137200000Y-83185000D03*
X137200000Y-85725000D03*
X137200000Y-88265000D03*
X137200000Y-90805000D03*
X137200000Y-93345000D03*
X137200000Y-95885000D03*
X137200000Y-98425000D03*
X137200000Y-100965000D03*
X137200000Y-103505000D03*
X160060000Y-103505000D03*
X160060000Y-100965000D03*
X160060000Y-98425000D03*
X160060000Y-95885000D03*
X160060000Y-93345000D03*
X160060000Y-90805000D03*
X160060000Y-88265000D03*
X160060000Y-85725000D03*
X160060000Y-83185000D03*
X160060000Y-80645000D03*
X160060000Y-78105000D03*
X160060000Y-75565000D03*
X160060000Y-73025000D03*
X160060000Y-70485000D03*
X160060000Y-67945000D03*
G04 #@! TD*
D16*
G04 #@! TO.C,C6*
G36*
X125865779Y-94541144D02*
X125888834Y-94544563D01*
X125911443Y-94550227D01*
X125933387Y-94558079D01*
X125954457Y-94568044D01*
X125974448Y-94580026D01*
X125993168Y-94593910D01*
X126010438Y-94609562D01*
X126026090Y-94626832D01*
X126039974Y-94645552D01*
X126051956Y-94665543D01*
X126061921Y-94686613D01*
X126069773Y-94708557D01*
X126075437Y-94731166D01*
X126078856Y-94754221D01*
X126080000Y-94777500D01*
X126080000Y-95252500D01*
X126078856Y-95275779D01*
X126075437Y-95298834D01*
X126069773Y-95321443D01*
X126061921Y-95343387D01*
X126051956Y-95364457D01*
X126039974Y-95384448D01*
X126026090Y-95403168D01*
X126010438Y-95420438D01*
X125993168Y-95436090D01*
X125974448Y-95449974D01*
X125954457Y-95461956D01*
X125933387Y-95471921D01*
X125911443Y-95479773D01*
X125888834Y-95485437D01*
X125865779Y-95488856D01*
X125842500Y-95490000D01*
X125267500Y-95490000D01*
X125244221Y-95488856D01*
X125221166Y-95485437D01*
X125198557Y-95479773D01*
X125176613Y-95471921D01*
X125155543Y-95461956D01*
X125135552Y-95449974D01*
X125116832Y-95436090D01*
X125099562Y-95420438D01*
X125083910Y-95403168D01*
X125070026Y-95384448D01*
X125058044Y-95364457D01*
X125048079Y-95343387D01*
X125040227Y-95321443D01*
X125034563Y-95298834D01*
X125031144Y-95275779D01*
X125030000Y-95252500D01*
X125030000Y-94777500D01*
X125031144Y-94754221D01*
X125034563Y-94731166D01*
X125040227Y-94708557D01*
X125048079Y-94686613D01*
X125058044Y-94665543D01*
X125070026Y-94645552D01*
X125083910Y-94626832D01*
X125099562Y-94609562D01*
X125116832Y-94593910D01*
X125135552Y-94580026D01*
X125155543Y-94568044D01*
X125176613Y-94558079D01*
X125198557Y-94550227D01*
X125221166Y-94544563D01*
X125244221Y-94541144D01*
X125267500Y-94540000D01*
X125842500Y-94540000D01*
X125865779Y-94541144D01*
X125865779Y-94541144D01*
G37*
D17*
X125555000Y-95015000D03*
D16*
G36*
X124115779Y-94541144D02*
X124138834Y-94544563D01*
X124161443Y-94550227D01*
X124183387Y-94558079D01*
X124204457Y-94568044D01*
X124224448Y-94580026D01*
X124243168Y-94593910D01*
X124260438Y-94609562D01*
X124276090Y-94626832D01*
X124289974Y-94645552D01*
X124301956Y-94665543D01*
X124311921Y-94686613D01*
X124319773Y-94708557D01*
X124325437Y-94731166D01*
X124328856Y-94754221D01*
X124330000Y-94777500D01*
X124330000Y-95252500D01*
X124328856Y-95275779D01*
X124325437Y-95298834D01*
X124319773Y-95321443D01*
X124311921Y-95343387D01*
X124301956Y-95364457D01*
X124289974Y-95384448D01*
X124276090Y-95403168D01*
X124260438Y-95420438D01*
X124243168Y-95436090D01*
X124224448Y-95449974D01*
X124204457Y-95461956D01*
X124183387Y-95471921D01*
X124161443Y-95479773D01*
X124138834Y-95485437D01*
X124115779Y-95488856D01*
X124092500Y-95490000D01*
X123517500Y-95490000D01*
X123494221Y-95488856D01*
X123471166Y-95485437D01*
X123448557Y-95479773D01*
X123426613Y-95471921D01*
X123405543Y-95461956D01*
X123385552Y-95449974D01*
X123366832Y-95436090D01*
X123349562Y-95420438D01*
X123333910Y-95403168D01*
X123320026Y-95384448D01*
X123308044Y-95364457D01*
X123298079Y-95343387D01*
X123290227Y-95321443D01*
X123284563Y-95298834D01*
X123281144Y-95275779D01*
X123280000Y-95252500D01*
X123280000Y-94777500D01*
X123281144Y-94754221D01*
X123284563Y-94731166D01*
X123290227Y-94708557D01*
X123298079Y-94686613D01*
X123308044Y-94665543D01*
X123320026Y-94645552D01*
X123333910Y-94626832D01*
X123349562Y-94609562D01*
X123366832Y-94593910D01*
X123385552Y-94580026D01*
X123405543Y-94568044D01*
X123426613Y-94558079D01*
X123448557Y-94550227D01*
X123471166Y-94544563D01*
X123494221Y-94541144D01*
X123517500Y-94540000D01*
X124092500Y-94540000D01*
X124115779Y-94541144D01*
X124115779Y-94541144D01*
G37*
D17*
X123805000Y-95015000D03*
G04 #@! TD*
D18*
G04 #@! TO.C,SW1*
X117500000Y-108445000D03*
X117500000Y-103365000D03*
X125120000Y-108445000D03*
X125120000Y-103365000D03*
G04 #@! TD*
D16*
G04 #@! TO.C,C5*
G36*
X146330779Y-106921144D02*
X146353834Y-106924563D01*
X146376443Y-106930227D01*
X146398387Y-106938079D01*
X146419457Y-106948044D01*
X146439448Y-106960026D01*
X146458168Y-106973910D01*
X146475438Y-106989562D01*
X146491090Y-107006832D01*
X146504974Y-107025552D01*
X146516956Y-107045543D01*
X146526921Y-107066613D01*
X146534773Y-107088557D01*
X146540437Y-107111166D01*
X146543856Y-107134221D01*
X146545000Y-107157500D01*
X146545000Y-107632500D01*
X146543856Y-107655779D01*
X146540437Y-107678834D01*
X146534773Y-107701443D01*
X146526921Y-107723387D01*
X146516956Y-107744457D01*
X146504974Y-107764448D01*
X146491090Y-107783168D01*
X146475438Y-107800438D01*
X146458168Y-107816090D01*
X146439448Y-107829974D01*
X146419457Y-107841956D01*
X146398387Y-107851921D01*
X146376443Y-107859773D01*
X146353834Y-107865437D01*
X146330779Y-107868856D01*
X146307500Y-107870000D01*
X145732500Y-107870000D01*
X145709221Y-107868856D01*
X145686166Y-107865437D01*
X145663557Y-107859773D01*
X145641613Y-107851921D01*
X145620543Y-107841956D01*
X145600552Y-107829974D01*
X145581832Y-107816090D01*
X145564562Y-107800438D01*
X145548910Y-107783168D01*
X145535026Y-107764448D01*
X145523044Y-107744457D01*
X145513079Y-107723387D01*
X145505227Y-107701443D01*
X145499563Y-107678834D01*
X145496144Y-107655779D01*
X145495000Y-107632500D01*
X145495000Y-107157500D01*
X145496144Y-107134221D01*
X145499563Y-107111166D01*
X145505227Y-107088557D01*
X145513079Y-107066613D01*
X145523044Y-107045543D01*
X145535026Y-107025552D01*
X145548910Y-107006832D01*
X145564562Y-106989562D01*
X145581832Y-106973910D01*
X145600552Y-106960026D01*
X145620543Y-106948044D01*
X145641613Y-106938079D01*
X145663557Y-106930227D01*
X145686166Y-106924563D01*
X145709221Y-106921144D01*
X145732500Y-106920000D01*
X146307500Y-106920000D01*
X146330779Y-106921144D01*
X146330779Y-106921144D01*
G37*
D17*
X146020000Y-107395000D03*
D16*
G36*
X144580779Y-106921144D02*
X144603834Y-106924563D01*
X144626443Y-106930227D01*
X144648387Y-106938079D01*
X144669457Y-106948044D01*
X144689448Y-106960026D01*
X144708168Y-106973910D01*
X144725438Y-106989562D01*
X144741090Y-107006832D01*
X144754974Y-107025552D01*
X144766956Y-107045543D01*
X144776921Y-107066613D01*
X144784773Y-107088557D01*
X144790437Y-107111166D01*
X144793856Y-107134221D01*
X144795000Y-107157500D01*
X144795000Y-107632500D01*
X144793856Y-107655779D01*
X144790437Y-107678834D01*
X144784773Y-107701443D01*
X144776921Y-107723387D01*
X144766956Y-107744457D01*
X144754974Y-107764448D01*
X144741090Y-107783168D01*
X144725438Y-107800438D01*
X144708168Y-107816090D01*
X144689448Y-107829974D01*
X144669457Y-107841956D01*
X144648387Y-107851921D01*
X144626443Y-107859773D01*
X144603834Y-107865437D01*
X144580779Y-107868856D01*
X144557500Y-107870000D01*
X143982500Y-107870000D01*
X143959221Y-107868856D01*
X143936166Y-107865437D01*
X143913557Y-107859773D01*
X143891613Y-107851921D01*
X143870543Y-107841956D01*
X143850552Y-107829974D01*
X143831832Y-107816090D01*
X143814562Y-107800438D01*
X143798910Y-107783168D01*
X143785026Y-107764448D01*
X143773044Y-107744457D01*
X143763079Y-107723387D01*
X143755227Y-107701443D01*
X143749563Y-107678834D01*
X143746144Y-107655779D01*
X143745000Y-107632500D01*
X143745000Y-107157500D01*
X143746144Y-107134221D01*
X143749563Y-107111166D01*
X143755227Y-107088557D01*
X143763079Y-107066613D01*
X143773044Y-107045543D01*
X143785026Y-107025552D01*
X143798910Y-107006832D01*
X143814562Y-106989562D01*
X143831832Y-106973910D01*
X143850552Y-106960026D01*
X143870543Y-106948044D01*
X143891613Y-106938079D01*
X143913557Y-106930227D01*
X143936166Y-106924563D01*
X143959221Y-106921144D01*
X143982500Y-106920000D01*
X144557500Y-106920000D01*
X144580779Y-106921144D01*
X144580779Y-106921144D01*
G37*
D17*
X144270000Y-107395000D03*
G04 #@! TD*
D19*
G04 #@! TO.C,SW2*
X128870000Y-108945000D03*
D20*
X131410000Y-108945000D03*
G04 #@! TD*
D19*
G04 #@! TO.C,J4*
X119620000Y-89945000D03*
D20*
X133620000Y-89945000D03*
G04 #@! TD*
D16*
G04 #@! TO.C,C2*
G36*
X156480779Y-69146144D02*
X156503834Y-69149563D01*
X156526443Y-69155227D01*
X156548387Y-69163079D01*
X156569457Y-69173044D01*
X156589448Y-69185026D01*
X156608168Y-69198910D01*
X156625438Y-69214562D01*
X156641090Y-69231832D01*
X156654974Y-69250552D01*
X156666956Y-69270543D01*
X156676921Y-69291613D01*
X156684773Y-69313557D01*
X156690437Y-69336166D01*
X156693856Y-69359221D01*
X156695000Y-69382500D01*
X156695000Y-69957500D01*
X156693856Y-69980779D01*
X156690437Y-70003834D01*
X156684773Y-70026443D01*
X156676921Y-70048387D01*
X156666956Y-70069457D01*
X156654974Y-70089448D01*
X156641090Y-70108168D01*
X156625438Y-70125438D01*
X156608168Y-70141090D01*
X156589448Y-70154974D01*
X156569457Y-70166956D01*
X156548387Y-70176921D01*
X156526443Y-70184773D01*
X156503834Y-70190437D01*
X156480779Y-70193856D01*
X156457500Y-70195000D01*
X155982500Y-70195000D01*
X155959221Y-70193856D01*
X155936166Y-70190437D01*
X155913557Y-70184773D01*
X155891613Y-70176921D01*
X155870543Y-70166956D01*
X155850552Y-70154974D01*
X155831832Y-70141090D01*
X155814562Y-70125438D01*
X155798910Y-70108168D01*
X155785026Y-70089448D01*
X155773044Y-70069457D01*
X155763079Y-70048387D01*
X155755227Y-70026443D01*
X155749563Y-70003834D01*
X155746144Y-69980779D01*
X155745000Y-69957500D01*
X155745000Y-69382500D01*
X155746144Y-69359221D01*
X155749563Y-69336166D01*
X155755227Y-69313557D01*
X155763079Y-69291613D01*
X155773044Y-69270543D01*
X155785026Y-69250552D01*
X155798910Y-69231832D01*
X155814562Y-69214562D01*
X155831832Y-69198910D01*
X155850552Y-69185026D01*
X155870543Y-69173044D01*
X155891613Y-69163079D01*
X155913557Y-69155227D01*
X155936166Y-69149563D01*
X155959221Y-69146144D01*
X155982500Y-69145000D01*
X156457500Y-69145000D01*
X156480779Y-69146144D01*
X156480779Y-69146144D01*
G37*
D17*
X156220000Y-69670000D03*
D16*
G36*
X156480779Y-70896144D02*
X156503834Y-70899563D01*
X156526443Y-70905227D01*
X156548387Y-70913079D01*
X156569457Y-70923044D01*
X156589448Y-70935026D01*
X156608168Y-70948910D01*
X156625438Y-70964562D01*
X156641090Y-70981832D01*
X156654974Y-71000552D01*
X156666956Y-71020543D01*
X156676921Y-71041613D01*
X156684773Y-71063557D01*
X156690437Y-71086166D01*
X156693856Y-71109221D01*
X156695000Y-71132500D01*
X156695000Y-71707500D01*
X156693856Y-71730779D01*
X156690437Y-71753834D01*
X156684773Y-71776443D01*
X156676921Y-71798387D01*
X156666956Y-71819457D01*
X156654974Y-71839448D01*
X156641090Y-71858168D01*
X156625438Y-71875438D01*
X156608168Y-71891090D01*
X156589448Y-71904974D01*
X156569457Y-71916956D01*
X156548387Y-71926921D01*
X156526443Y-71934773D01*
X156503834Y-71940437D01*
X156480779Y-71943856D01*
X156457500Y-71945000D01*
X155982500Y-71945000D01*
X155959221Y-71943856D01*
X155936166Y-71940437D01*
X155913557Y-71934773D01*
X155891613Y-71926921D01*
X155870543Y-71916956D01*
X155850552Y-71904974D01*
X155831832Y-71891090D01*
X155814562Y-71875438D01*
X155798910Y-71858168D01*
X155785026Y-71839448D01*
X155773044Y-71819457D01*
X155763079Y-71798387D01*
X155755227Y-71776443D01*
X155749563Y-71753834D01*
X155746144Y-71730779D01*
X155745000Y-71707500D01*
X155745000Y-71132500D01*
X155746144Y-71109221D01*
X155749563Y-71086166D01*
X155755227Y-71063557D01*
X155763079Y-71041613D01*
X155773044Y-71020543D01*
X155785026Y-71000552D01*
X155798910Y-70981832D01*
X155814562Y-70964562D01*
X155831832Y-70948910D01*
X155850552Y-70935026D01*
X155870543Y-70923044D01*
X155891613Y-70913079D01*
X155913557Y-70905227D01*
X155936166Y-70899563D01*
X155959221Y-70896144D01*
X155982500Y-70895000D01*
X156457500Y-70895000D01*
X156480779Y-70896144D01*
X156480779Y-70896144D01*
G37*
D17*
X156220000Y-71420000D03*
G04 #@! TD*
D16*
G04 #@! TO.C,C1*
G36*
X154280779Y-70896144D02*
X154303834Y-70899563D01*
X154326443Y-70905227D01*
X154348387Y-70913079D01*
X154369457Y-70923044D01*
X154389448Y-70935026D01*
X154408168Y-70948910D01*
X154425438Y-70964562D01*
X154441090Y-70981832D01*
X154454974Y-71000552D01*
X154466956Y-71020543D01*
X154476921Y-71041613D01*
X154484773Y-71063557D01*
X154490437Y-71086166D01*
X154493856Y-71109221D01*
X154495000Y-71132500D01*
X154495000Y-71707500D01*
X154493856Y-71730779D01*
X154490437Y-71753834D01*
X154484773Y-71776443D01*
X154476921Y-71798387D01*
X154466956Y-71819457D01*
X154454974Y-71839448D01*
X154441090Y-71858168D01*
X154425438Y-71875438D01*
X154408168Y-71891090D01*
X154389448Y-71904974D01*
X154369457Y-71916956D01*
X154348387Y-71926921D01*
X154326443Y-71934773D01*
X154303834Y-71940437D01*
X154280779Y-71943856D01*
X154257500Y-71945000D01*
X153782500Y-71945000D01*
X153759221Y-71943856D01*
X153736166Y-71940437D01*
X153713557Y-71934773D01*
X153691613Y-71926921D01*
X153670543Y-71916956D01*
X153650552Y-71904974D01*
X153631832Y-71891090D01*
X153614562Y-71875438D01*
X153598910Y-71858168D01*
X153585026Y-71839448D01*
X153573044Y-71819457D01*
X153563079Y-71798387D01*
X153555227Y-71776443D01*
X153549563Y-71753834D01*
X153546144Y-71730779D01*
X153545000Y-71707500D01*
X153545000Y-71132500D01*
X153546144Y-71109221D01*
X153549563Y-71086166D01*
X153555227Y-71063557D01*
X153563079Y-71041613D01*
X153573044Y-71020543D01*
X153585026Y-71000552D01*
X153598910Y-70981832D01*
X153614562Y-70964562D01*
X153631832Y-70948910D01*
X153650552Y-70935026D01*
X153670543Y-70923044D01*
X153691613Y-70913079D01*
X153713557Y-70905227D01*
X153736166Y-70899563D01*
X153759221Y-70896144D01*
X153782500Y-70895000D01*
X154257500Y-70895000D01*
X154280779Y-70896144D01*
X154280779Y-70896144D01*
G37*
D17*
X154020000Y-71420000D03*
D16*
G36*
X154280779Y-69146144D02*
X154303834Y-69149563D01*
X154326443Y-69155227D01*
X154348387Y-69163079D01*
X154369457Y-69173044D01*
X154389448Y-69185026D01*
X154408168Y-69198910D01*
X154425438Y-69214562D01*
X154441090Y-69231832D01*
X154454974Y-69250552D01*
X154466956Y-69270543D01*
X154476921Y-69291613D01*
X154484773Y-69313557D01*
X154490437Y-69336166D01*
X154493856Y-69359221D01*
X154495000Y-69382500D01*
X154495000Y-69957500D01*
X154493856Y-69980779D01*
X154490437Y-70003834D01*
X154484773Y-70026443D01*
X154476921Y-70048387D01*
X154466956Y-70069457D01*
X154454974Y-70089448D01*
X154441090Y-70108168D01*
X154425438Y-70125438D01*
X154408168Y-70141090D01*
X154389448Y-70154974D01*
X154369457Y-70166956D01*
X154348387Y-70176921D01*
X154326443Y-70184773D01*
X154303834Y-70190437D01*
X154280779Y-70193856D01*
X154257500Y-70195000D01*
X153782500Y-70195000D01*
X153759221Y-70193856D01*
X153736166Y-70190437D01*
X153713557Y-70184773D01*
X153691613Y-70176921D01*
X153670543Y-70166956D01*
X153650552Y-70154974D01*
X153631832Y-70141090D01*
X153614562Y-70125438D01*
X153598910Y-70108168D01*
X153585026Y-70089448D01*
X153573044Y-70069457D01*
X153563079Y-70048387D01*
X153555227Y-70026443D01*
X153549563Y-70003834D01*
X153546144Y-69980779D01*
X153545000Y-69957500D01*
X153545000Y-69382500D01*
X153546144Y-69359221D01*
X153549563Y-69336166D01*
X153555227Y-69313557D01*
X153563079Y-69291613D01*
X153573044Y-69270543D01*
X153585026Y-69250552D01*
X153598910Y-69231832D01*
X153614562Y-69214562D01*
X153631832Y-69198910D01*
X153650552Y-69185026D01*
X153670543Y-69173044D01*
X153691613Y-69163079D01*
X153713557Y-69155227D01*
X153736166Y-69149563D01*
X153759221Y-69146144D01*
X153782500Y-69145000D01*
X154257500Y-69145000D01*
X154280779Y-69146144D01*
X154280779Y-69146144D01*
G37*
D17*
X154020000Y-69670000D03*
G04 #@! TD*
D16*
G04 #@! TO.C,C3*
G36*
X141380779Y-106046144D02*
X141403834Y-106049563D01*
X141426443Y-106055227D01*
X141448387Y-106063079D01*
X141469457Y-106073044D01*
X141489448Y-106085026D01*
X141508168Y-106098910D01*
X141525438Y-106114562D01*
X141541090Y-106131832D01*
X141554974Y-106150552D01*
X141566956Y-106170543D01*
X141576921Y-106191613D01*
X141584773Y-106213557D01*
X141590437Y-106236166D01*
X141593856Y-106259221D01*
X141595000Y-106282500D01*
X141595000Y-106857500D01*
X141593856Y-106880779D01*
X141590437Y-106903834D01*
X141584773Y-106926443D01*
X141576921Y-106948387D01*
X141566956Y-106969457D01*
X141554974Y-106989448D01*
X141541090Y-107008168D01*
X141525438Y-107025438D01*
X141508168Y-107041090D01*
X141489448Y-107054974D01*
X141469457Y-107066956D01*
X141448387Y-107076921D01*
X141426443Y-107084773D01*
X141403834Y-107090437D01*
X141380779Y-107093856D01*
X141357500Y-107095000D01*
X140882500Y-107095000D01*
X140859221Y-107093856D01*
X140836166Y-107090437D01*
X140813557Y-107084773D01*
X140791613Y-107076921D01*
X140770543Y-107066956D01*
X140750552Y-107054974D01*
X140731832Y-107041090D01*
X140714562Y-107025438D01*
X140698910Y-107008168D01*
X140685026Y-106989448D01*
X140673044Y-106969457D01*
X140663079Y-106948387D01*
X140655227Y-106926443D01*
X140649563Y-106903834D01*
X140646144Y-106880779D01*
X140645000Y-106857500D01*
X140645000Y-106282500D01*
X140646144Y-106259221D01*
X140649563Y-106236166D01*
X140655227Y-106213557D01*
X140663079Y-106191613D01*
X140673044Y-106170543D01*
X140685026Y-106150552D01*
X140698910Y-106131832D01*
X140714562Y-106114562D01*
X140731832Y-106098910D01*
X140750552Y-106085026D01*
X140770543Y-106073044D01*
X140791613Y-106063079D01*
X140813557Y-106055227D01*
X140836166Y-106049563D01*
X140859221Y-106046144D01*
X140882500Y-106045000D01*
X141357500Y-106045000D01*
X141380779Y-106046144D01*
X141380779Y-106046144D01*
G37*
D17*
X141120000Y-106570000D03*
D16*
G36*
X141380779Y-104296144D02*
X141403834Y-104299563D01*
X141426443Y-104305227D01*
X141448387Y-104313079D01*
X141469457Y-104323044D01*
X141489448Y-104335026D01*
X141508168Y-104348910D01*
X141525438Y-104364562D01*
X141541090Y-104381832D01*
X141554974Y-104400552D01*
X141566956Y-104420543D01*
X141576921Y-104441613D01*
X141584773Y-104463557D01*
X141590437Y-104486166D01*
X141593856Y-104509221D01*
X141595000Y-104532500D01*
X141595000Y-105107500D01*
X141593856Y-105130779D01*
X141590437Y-105153834D01*
X141584773Y-105176443D01*
X141576921Y-105198387D01*
X141566956Y-105219457D01*
X141554974Y-105239448D01*
X141541090Y-105258168D01*
X141525438Y-105275438D01*
X141508168Y-105291090D01*
X141489448Y-105304974D01*
X141469457Y-105316956D01*
X141448387Y-105326921D01*
X141426443Y-105334773D01*
X141403834Y-105340437D01*
X141380779Y-105343856D01*
X141357500Y-105345000D01*
X140882500Y-105345000D01*
X140859221Y-105343856D01*
X140836166Y-105340437D01*
X140813557Y-105334773D01*
X140791613Y-105326921D01*
X140770543Y-105316956D01*
X140750552Y-105304974D01*
X140731832Y-105291090D01*
X140714562Y-105275438D01*
X140698910Y-105258168D01*
X140685026Y-105239448D01*
X140673044Y-105219457D01*
X140663079Y-105198387D01*
X140655227Y-105176443D01*
X140649563Y-105153834D01*
X140646144Y-105130779D01*
X140645000Y-105107500D01*
X140645000Y-104532500D01*
X140646144Y-104509221D01*
X140649563Y-104486166D01*
X140655227Y-104463557D01*
X140663079Y-104441613D01*
X140673044Y-104420543D01*
X140685026Y-104400552D01*
X140698910Y-104381832D01*
X140714562Y-104364562D01*
X140731832Y-104348910D01*
X140750552Y-104335026D01*
X140770543Y-104323044D01*
X140791613Y-104313079D01*
X140813557Y-104305227D01*
X140836166Y-104299563D01*
X140859221Y-104296144D01*
X140882500Y-104295000D01*
X141357500Y-104295000D01*
X141380779Y-104296144D01*
X141380779Y-104296144D01*
G37*
D17*
X141120000Y-104820000D03*
G04 #@! TD*
D16*
G04 #@! TO.C,C4*
G36*
X151465779Y-95381144D02*
X151488834Y-95384563D01*
X151511443Y-95390227D01*
X151533387Y-95398079D01*
X151554457Y-95408044D01*
X151574448Y-95420026D01*
X151593168Y-95433910D01*
X151610438Y-95449562D01*
X151626090Y-95466832D01*
X151639974Y-95485552D01*
X151651956Y-95505543D01*
X151661921Y-95526613D01*
X151669773Y-95548557D01*
X151675437Y-95571166D01*
X151678856Y-95594221D01*
X151680000Y-95617500D01*
X151680000Y-96092500D01*
X151678856Y-96115779D01*
X151675437Y-96138834D01*
X151669773Y-96161443D01*
X151661921Y-96183387D01*
X151651956Y-96204457D01*
X151639974Y-96224448D01*
X151626090Y-96243168D01*
X151610438Y-96260438D01*
X151593168Y-96276090D01*
X151574448Y-96289974D01*
X151554457Y-96301956D01*
X151533387Y-96311921D01*
X151511443Y-96319773D01*
X151488834Y-96325437D01*
X151465779Y-96328856D01*
X151442500Y-96330000D01*
X150867500Y-96330000D01*
X150844221Y-96328856D01*
X150821166Y-96325437D01*
X150798557Y-96319773D01*
X150776613Y-96311921D01*
X150755543Y-96301956D01*
X150735552Y-96289974D01*
X150716832Y-96276090D01*
X150699562Y-96260438D01*
X150683910Y-96243168D01*
X150670026Y-96224448D01*
X150658044Y-96204457D01*
X150648079Y-96183387D01*
X150640227Y-96161443D01*
X150634563Y-96138834D01*
X150631144Y-96115779D01*
X150630000Y-96092500D01*
X150630000Y-95617500D01*
X150631144Y-95594221D01*
X150634563Y-95571166D01*
X150640227Y-95548557D01*
X150648079Y-95526613D01*
X150658044Y-95505543D01*
X150670026Y-95485552D01*
X150683910Y-95466832D01*
X150699562Y-95449562D01*
X150716832Y-95433910D01*
X150735552Y-95420026D01*
X150755543Y-95408044D01*
X150776613Y-95398079D01*
X150798557Y-95390227D01*
X150821166Y-95384563D01*
X150844221Y-95381144D01*
X150867500Y-95380000D01*
X151442500Y-95380000D01*
X151465779Y-95381144D01*
X151465779Y-95381144D01*
G37*
D17*
X151155000Y-95855000D03*
D16*
G36*
X153215779Y-95381144D02*
X153238834Y-95384563D01*
X153261443Y-95390227D01*
X153283387Y-95398079D01*
X153304457Y-95408044D01*
X153324448Y-95420026D01*
X153343168Y-95433910D01*
X153360438Y-95449562D01*
X153376090Y-95466832D01*
X153389974Y-95485552D01*
X153401956Y-95505543D01*
X153411921Y-95526613D01*
X153419773Y-95548557D01*
X153425437Y-95571166D01*
X153428856Y-95594221D01*
X153430000Y-95617500D01*
X153430000Y-96092500D01*
X153428856Y-96115779D01*
X153425437Y-96138834D01*
X153419773Y-96161443D01*
X153411921Y-96183387D01*
X153401956Y-96204457D01*
X153389974Y-96224448D01*
X153376090Y-96243168D01*
X153360438Y-96260438D01*
X153343168Y-96276090D01*
X153324448Y-96289974D01*
X153304457Y-96301956D01*
X153283387Y-96311921D01*
X153261443Y-96319773D01*
X153238834Y-96325437D01*
X153215779Y-96328856D01*
X153192500Y-96330000D01*
X152617500Y-96330000D01*
X152594221Y-96328856D01*
X152571166Y-96325437D01*
X152548557Y-96319773D01*
X152526613Y-96311921D01*
X152505543Y-96301956D01*
X152485552Y-96289974D01*
X152466832Y-96276090D01*
X152449562Y-96260438D01*
X152433910Y-96243168D01*
X152420026Y-96224448D01*
X152408044Y-96204457D01*
X152398079Y-96183387D01*
X152390227Y-96161443D01*
X152384563Y-96138834D01*
X152381144Y-96115779D01*
X152380000Y-96092500D01*
X152380000Y-95617500D01*
X152381144Y-95594221D01*
X152384563Y-95571166D01*
X152390227Y-95548557D01*
X152398079Y-95526613D01*
X152408044Y-95505543D01*
X152420026Y-95485552D01*
X152433910Y-95466832D01*
X152449562Y-95449562D01*
X152466832Y-95433910D01*
X152485552Y-95420026D01*
X152505543Y-95408044D01*
X152526613Y-95398079D01*
X152548557Y-95390227D01*
X152571166Y-95384563D01*
X152594221Y-95381144D01*
X152617500Y-95380000D01*
X153192500Y-95380000D01*
X153215779Y-95381144D01*
X153215779Y-95381144D01*
G37*
D17*
X152905000Y-95855000D03*
G04 #@! TD*
D16*
G04 #@! TO.C,R1*
G36*
X149805779Y-86221144D02*
X149828834Y-86224563D01*
X149851443Y-86230227D01*
X149873387Y-86238079D01*
X149894457Y-86248044D01*
X149914448Y-86260026D01*
X149933168Y-86273910D01*
X149950438Y-86289562D01*
X149966090Y-86306832D01*
X149979974Y-86325552D01*
X149991956Y-86345543D01*
X150001921Y-86366613D01*
X150009773Y-86388557D01*
X150015437Y-86411166D01*
X150018856Y-86434221D01*
X150020000Y-86457500D01*
X150020000Y-86932500D01*
X150018856Y-86955779D01*
X150015437Y-86978834D01*
X150009773Y-87001443D01*
X150001921Y-87023387D01*
X149991956Y-87044457D01*
X149979974Y-87064448D01*
X149966090Y-87083168D01*
X149950438Y-87100438D01*
X149933168Y-87116090D01*
X149914448Y-87129974D01*
X149894457Y-87141956D01*
X149873387Y-87151921D01*
X149851443Y-87159773D01*
X149828834Y-87165437D01*
X149805779Y-87168856D01*
X149782500Y-87170000D01*
X149207500Y-87170000D01*
X149184221Y-87168856D01*
X149161166Y-87165437D01*
X149138557Y-87159773D01*
X149116613Y-87151921D01*
X149095543Y-87141956D01*
X149075552Y-87129974D01*
X149056832Y-87116090D01*
X149039562Y-87100438D01*
X149023910Y-87083168D01*
X149010026Y-87064448D01*
X148998044Y-87044457D01*
X148988079Y-87023387D01*
X148980227Y-87001443D01*
X148974563Y-86978834D01*
X148971144Y-86955779D01*
X148970000Y-86932500D01*
X148970000Y-86457500D01*
X148971144Y-86434221D01*
X148974563Y-86411166D01*
X148980227Y-86388557D01*
X148988079Y-86366613D01*
X148998044Y-86345543D01*
X149010026Y-86325552D01*
X149023910Y-86306832D01*
X149039562Y-86289562D01*
X149056832Y-86273910D01*
X149075552Y-86260026D01*
X149095543Y-86248044D01*
X149116613Y-86238079D01*
X149138557Y-86230227D01*
X149161166Y-86224563D01*
X149184221Y-86221144D01*
X149207500Y-86220000D01*
X149782500Y-86220000D01*
X149805779Y-86221144D01*
X149805779Y-86221144D01*
G37*
D17*
X149495000Y-86695000D03*
D16*
G36*
X148055779Y-86221144D02*
X148078834Y-86224563D01*
X148101443Y-86230227D01*
X148123387Y-86238079D01*
X148144457Y-86248044D01*
X148164448Y-86260026D01*
X148183168Y-86273910D01*
X148200438Y-86289562D01*
X148216090Y-86306832D01*
X148229974Y-86325552D01*
X148241956Y-86345543D01*
X148251921Y-86366613D01*
X148259773Y-86388557D01*
X148265437Y-86411166D01*
X148268856Y-86434221D01*
X148270000Y-86457500D01*
X148270000Y-86932500D01*
X148268856Y-86955779D01*
X148265437Y-86978834D01*
X148259773Y-87001443D01*
X148251921Y-87023387D01*
X148241956Y-87044457D01*
X148229974Y-87064448D01*
X148216090Y-87083168D01*
X148200438Y-87100438D01*
X148183168Y-87116090D01*
X148164448Y-87129974D01*
X148144457Y-87141956D01*
X148123387Y-87151921D01*
X148101443Y-87159773D01*
X148078834Y-87165437D01*
X148055779Y-87168856D01*
X148032500Y-87170000D01*
X147457500Y-87170000D01*
X147434221Y-87168856D01*
X147411166Y-87165437D01*
X147388557Y-87159773D01*
X147366613Y-87151921D01*
X147345543Y-87141956D01*
X147325552Y-87129974D01*
X147306832Y-87116090D01*
X147289562Y-87100438D01*
X147273910Y-87083168D01*
X147260026Y-87064448D01*
X147248044Y-87044457D01*
X147238079Y-87023387D01*
X147230227Y-87001443D01*
X147224563Y-86978834D01*
X147221144Y-86955779D01*
X147220000Y-86932500D01*
X147220000Y-86457500D01*
X147221144Y-86434221D01*
X147224563Y-86411166D01*
X147230227Y-86388557D01*
X147238079Y-86366613D01*
X147248044Y-86345543D01*
X147260026Y-86325552D01*
X147273910Y-86306832D01*
X147289562Y-86289562D01*
X147306832Y-86273910D01*
X147325552Y-86260026D01*
X147345543Y-86248044D01*
X147366613Y-86238079D01*
X147388557Y-86230227D01*
X147411166Y-86224563D01*
X147434221Y-86221144D01*
X147457500Y-86220000D01*
X148032500Y-86220000D01*
X148055779Y-86221144D01*
X148055779Y-86221144D01*
G37*
D17*
X147745000Y-86695000D03*
G04 #@! TD*
D16*
G04 #@! TO.C,R2*
G36*
X143305779Y-86221144D02*
X143328834Y-86224563D01*
X143351443Y-86230227D01*
X143373387Y-86238079D01*
X143394457Y-86248044D01*
X143414448Y-86260026D01*
X143433168Y-86273910D01*
X143450438Y-86289562D01*
X143466090Y-86306832D01*
X143479974Y-86325552D01*
X143491956Y-86345543D01*
X143501921Y-86366613D01*
X143509773Y-86388557D01*
X143515437Y-86411166D01*
X143518856Y-86434221D01*
X143520000Y-86457500D01*
X143520000Y-86932500D01*
X143518856Y-86955779D01*
X143515437Y-86978834D01*
X143509773Y-87001443D01*
X143501921Y-87023387D01*
X143491956Y-87044457D01*
X143479974Y-87064448D01*
X143466090Y-87083168D01*
X143450438Y-87100438D01*
X143433168Y-87116090D01*
X143414448Y-87129974D01*
X143394457Y-87141956D01*
X143373387Y-87151921D01*
X143351443Y-87159773D01*
X143328834Y-87165437D01*
X143305779Y-87168856D01*
X143282500Y-87170000D01*
X142707500Y-87170000D01*
X142684221Y-87168856D01*
X142661166Y-87165437D01*
X142638557Y-87159773D01*
X142616613Y-87151921D01*
X142595543Y-87141956D01*
X142575552Y-87129974D01*
X142556832Y-87116090D01*
X142539562Y-87100438D01*
X142523910Y-87083168D01*
X142510026Y-87064448D01*
X142498044Y-87044457D01*
X142488079Y-87023387D01*
X142480227Y-87001443D01*
X142474563Y-86978834D01*
X142471144Y-86955779D01*
X142470000Y-86932500D01*
X142470000Y-86457500D01*
X142471144Y-86434221D01*
X142474563Y-86411166D01*
X142480227Y-86388557D01*
X142488079Y-86366613D01*
X142498044Y-86345543D01*
X142510026Y-86325552D01*
X142523910Y-86306832D01*
X142539562Y-86289562D01*
X142556832Y-86273910D01*
X142575552Y-86260026D01*
X142595543Y-86248044D01*
X142616613Y-86238079D01*
X142638557Y-86230227D01*
X142661166Y-86224563D01*
X142684221Y-86221144D01*
X142707500Y-86220000D01*
X143282500Y-86220000D01*
X143305779Y-86221144D01*
X143305779Y-86221144D01*
G37*
D17*
X142995000Y-86695000D03*
D16*
G36*
X145055779Y-86221144D02*
X145078834Y-86224563D01*
X145101443Y-86230227D01*
X145123387Y-86238079D01*
X145144457Y-86248044D01*
X145164448Y-86260026D01*
X145183168Y-86273910D01*
X145200438Y-86289562D01*
X145216090Y-86306832D01*
X145229974Y-86325552D01*
X145241956Y-86345543D01*
X145251921Y-86366613D01*
X145259773Y-86388557D01*
X145265437Y-86411166D01*
X145268856Y-86434221D01*
X145270000Y-86457500D01*
X145270000Y-86932500D01*
X145268856Y-86955779D01*
X145265437Y-86978834D01*
X145259773Y-87001443D01*
X145251921Y-87023387D01*
X145241956Y-87044457D01*
X145229974Y-87064448D01*
X145216090Y-87083168D01*
X145200438Y-87100438D01*
X145183168Y-87116090D01*
X145164448Y-87129974D01*
X145144457Y-87141956D01*
X145123387Y-87151921D01*
X145101443Y-87159773D01*
X145078834Y-87165437D01*
X145055779Y-87168856D01*
X145032500Y-87170000D01*
X144457500Y-87170000D01*
X144434221Y-87168856D01*
X144411166Y-87165437D01*
X144388557Y-87159773D01*
X144366613Y-87151921D01*
X144345543Y-87141956D01*
X144325552Y-87129974D01*
X144306832Y-87116090D01*
X144289562Y-87100438D01*
X144273910Y-87083168D01*
X144260026Y-87064448D01*
X144248044Y-87044457D01*
X144238079Y-87023387D01*
X144230227Y-87001443D01*
X144224563Y-86978834D01*
X144221144Y-86955779D01*
X144220000Y-86932500D01*
X144220000Y-86457500D01*
X144221144Y-86434221D01*
X144224563Y-86411166D01*
X144230227Y-86388557D01*
X144238079Y-86366613D01*
X144248044Y-86345543D01*
X144260026Y-86325552D01*
X144273910Y-86306832D01*
X144289562Y-86289562D01*
X144306832Y-86273910D01*
X144325552Y-86260026D01*
X144345543Y-86248044D01*
X144366613Y-86238079D01*
X144388557Y-86230227D01*
X144411166Y-86224563D01*
X144434221Y-86221144D01*
X144457500Y-86220000D01*
X145032500Y-86220000D01*
X145055779Y-86221144D01*
X145055779Y-86221144D01*
G37*
D17*
X144745000Y-86695000D03*
G04 #@! TD*
D16*
G04 #@! TO.C,R3*
G36*
X156845779Y-73741144D02*
X156868834Y-73744563D01*
X156891443Y-73750227D01*
X156913387Y-73758079D01*
X156934457Y-73768044D01*
X156954448Y-73780026D01*
X156973168Y-73793910D01*
X156990438Y-73809562D01*
X157006090Y-73826832D01*
X157019974Y-73845552D01*
X157031956Y-73865543D01*
X157041921Y-73886613D01*
X157049773Y-73908557D01*
X157055437Y-73931166D01*
X157058856Y-73954221D01*
X157060000Y-73977500D01*
X157060000Y-74452500D01*
X157058856Y-74475779D01*
X157055437Y-74498834D01*
X157049773Y-74521443D01*
X157041921Y-74543387D01*
X157031956Y-74564457D01*
X157019974Y-74584448D01*
X157006090Y-74603168D01*
X156990438Y-74620438D01*
X156973168Y-74636090D01*
X156954448Y-74649974D01*
X156934457Y-74661956D01*
X156913387Y-74671921D01*
X156891443Y-74679773D01*
X156868834Y-74685437D01*
X156845779Y-74688856D01*
X156822500Y-74690000D01*
X156247500Y-74690000D01*
X156224221Y-74688856D01*
X156201166Y-74685437D01*
X156178557Y-74679773D01*
X156156613Y-74671921D01*
X156135543Y-74661956D01*
X156115552Y-74649974D01*
X156096832Y-74636090D01*
X156079562Y-74620438D01*
X156063910Y-74603168D01*
X156050026Y-74584448D01*
X156038044Y-74564457D01*
X156028079Y-74543387D01*
X156020227Y-74521443D01*
X156014563Y-74498834D01*
X156011144Y-74475779D01*
X156010000Y-74452500D01*
X156010000Y-73977500D01*
X156011144Y-73954221D01*
X156014563Y-73931166D01*
X156020227Y-73908557D01*
X156028079Y-73886613D01*
X156038044Y-73865543D01*
X156050026Y-73845552D01*
X156063910Y-73826832D01*
X156079562Y-73809562D01*
X156096832Y-73793910D01*
X156115552Y-73780026D01*
X156135543Y-73768044D01*
X156156613Y-73758079D01*
X156178557Y-73750227D01*
X156201166Y-73744563D01*
X156224221Y-73741144D01*
X156247500Y-73740000D01*
X156822500Y-73740000D01*
X156845779Y-73741144D01*
X156845779Y-73741144D01*
G37*
D17*
X156535000Y-74215000D03*
D16*
G36*
X155095779Y-73741144D02*
X155118834Y-73744563D01*
X155141443Y-73750227D01*
X155163387Y-73758079D01*
X155184457Y-73768044D01*
X155204448Y-73780026D01*
X155223168Y-73793910D01*
X155240438Y-73809562D01*
X155256090Y-73826832D01*
X155269974Y-73845552D01*
X155281956Y-73865543D01*
X155291921Y-73886613D01*
X155299773Y-73908557D01*
X155305437Y-73931166D01*
X155308856Y-73954221D01*
X155310000Y-73977500D01*
X155310000Y-74452500D01*
X155308856Y-74475779D01*
X155305437Y-74498834D01*
X155299773Y-74521443D01*
X155291921Y-74543387D01*
X155281956Y-74564457D01*
X155269974Y-74584448D01*
X155256090Y-74603168D01*
X155240438Y-74620438D01*
X155223168Y-74636090D01*
X155204448Y-74649974D01*
X155184457Y-74661956D01*
X155163387Y-74671921D01*
X155141443Y-74679773D01*
X155118834Y-74685437D01*
X155095779Y-74688856D01*
X155072500Y-74690000D01*
X154497500Y-74690000D01*
X154474221Y-74688856D01*
X154451166Y-74685437D01*
X154428557Y-74679773D01*
X154406613Y-74671921D01*
X154385543Y-74661956D01*
X154365552Y-74649974D01*
X154346832Y-74636090D01*
X154329562Y-74620438D01*
X154313910Y-74603168D01*
X154300026Y-74584448D01*
X154288044Y-74564457D01*
X154278079Y-74543387D01*
X154270227Y-74521443D01*
X154264563Y-74498834D01*
X154261144Y-74475779D01*
X154260000Y-74452500D01*
X154260000Y-73977500D01*
X154261144Y-73954221D01*
X154264563Y-73931166D01*
X154270227Y-73908557D01*
X154278079Y-73886613D01*
X154288044Y-73865543D01*
X154300026Y-73845552D01*
X154313910Y-73826832D01*
X154329562Y-73809562D01*
X154346832Y-73793910D01*
X154365552Y-73780026D01*
X154385543Y-73768044D01*
X154406613Y-73758079D01*
X154428557Y-73750227D01*
X154451166Y-73744563D01*
X154474221Y-73741144D01*
X154497500Y-73740000D01*
X155072500Y-73740000D01*
X155095779Y-73741144D01*
X155095779Y-73741144D01*
G37*
D17*
X154785000Y-74215000D03*
G04 #@! TD*
D16*
G04 #@! TO.C,R4*
G36*
X155095779Y-76281144D02*
X155118834Y-76284563D01*
X155141443Y-76290227D01*
X155163387Y-76298079D01*
X155184457Y-76308044D01*
X155204448Y-76320026D01*
X155223168Y-76333910D01*
X155240438Y-76349562D01*
X155256090Y-76366832D01*
X155269974Y-76385552D01*
X155281956Y-76405543D01*
X155291921Y-76426613D01*
X155299773Y-76448557D01*
X155305437Y-76471166D01*
X155308856Y-76494221D01*
X155310000Y-76517500D01*
X155310000Y-76992500D01*
X155308856Y-77015779D01*
X155305437Y-77038834D01*
X155299773Y-77061443D01*
X155291921Y-77083387D01*
X155281956Y-77104457D01*
X155269974Y-77124448D01*
X155256090Y-77143168D01*
X155240438Y-77160438D01*
X155223168Y-77176090D01*
X155204448Y-77189974D01*
X155184457Y-77201956D01*
X155163387Y-77211921D01*
X155141443Y-77219773D01*
X155118834Y-77225437D01*
X155095779Y-77228856D01*
X155072500Y-77230000D01*
X154497500Y-77230000D01*
X154474221Y-77228856D01*
X154451166Y-77225437D01*
X154428557Y-77219773D01*
X154406613Y-77211921D01*
X154385543Y-77201956D01*
X154365552Y-77189974D01*
X154346832Y-77176090D01*
X154329562Y-77160438D01*
X154313910Y-77143168D01*
X154300026Y-77124448D01*
X154288044Y-77104457D01*
X154278079Y-77083387D01*
X154270227Y-77061443D01*
X154264563Y-77038834D01*
X154261144Y-77015779D01*
X154260000Y-76992500D01*
X154260000Y-76517500D01*
X154261144Y-76494221D01*
X154264563Y-76471166D01*
X154270227Y-76448557D01*
X154278079Y-76426613D01*
X154288044Y-76405543D01*
X154300026Y-76385552D01*
X154313910Y-76366832D01*
X154329562Y-76349562D01*
X154346832Y-76333910D01*
X154365552Y-76320026D01*
X154385543Y-76308044D01*
X154406613Y-76298079D01*
X154428557Y-76290227D01*
X154451166Y-76284563D01*
X154474221Y-76281144D01*
X154497500Y-76280000D01*
X155072500Y-76280000D01*
X155095779Y-76281144D01*
X155095779Y-76281144D01*
G37*
D17*
X154785000Y-76755000D03*
D16*
G36*
X156845779Y-76281144D02*
X156868834Y-76284563D01*
X156891443Y-76290227D01*
X156913387Y-76298079D01*
X156934457Y-76308044D01*
X156954448Y-76320026D01*
X156973168Y-76333910D01*
X156990438Y-76349562D01*
X157006090Y-76366832D01*
X157019974Y-76385552D01*
X157031956Y-76405543D01*
X157041921Y-76426613D01*
X157049773Y-76448557D01*
X157055437Y-76471166D01*
X157058856Y-76494221D01*
X157060000Y-76517500D01*
X157060000Y-76992500D01*
X157058856Y-77015779D01*
X157055437Y-77038834D01*
X157049773Y-77061443D01*
X157041921Y-77083387D01*
X157031956Y-77104457D01*
X157019974Y-77124448D01*
X157006090Y-77143168D01*
X156990438Y-77160438D01*
X156973168Y-77176090D01*
X156954448Y-77189974D01*
X156934457Y-77201956D01*
X156913387Y-77211921D01*
X156891443Y-77219773D01*
X156868834Y-77225437D01*
X156845779Y-77228856D01*
X156822500Y-77230000D01*
X156247500Y-77230000D01*
X156224221Y-77228856D01*
X156201166Y-77225437D01*
X156178557Y-77219773D01*
X156156613Y-77211921D01*
X156135543Y-77201956D01*
X156115552Y-77189974D01*
X156096832Y-77176090D01*
X156079562Y-77160438D01*
X156063910Y-77143168D01*
X156050026Y-77124448D01*
X156038044Y-77104457D01*
X156028079Y-77083387D01*
X156020227Y-77061443D01*
X156014563Y-77038834D01*
X156011144Y-77015779D01*
X156010000Y-76992500D01*
X156010000Y-76517500D01*
X156011144Y-76494221D01*
X156014563Y-76471166D01*
X156020227Y-76448557D01*
X156028079Y-76426613D01*
X156038044Y-76405543D01*
X156050026Y-76385552D01*
X156063910Y-76366832D01*
X156079562Y-76349562D01*
X156096832Y-76333910D01*
X156115552Y-76320026D01*
X156135543Y-76308044D01*
X156156613Y-76298079D01*
X156178557Y-76290227D01*
X156201166Y-76284563D01*
X156224221Y-76281144D01*
X156247500Y-76280000D01*
X156822500Y-76280000D01*
X156845779Y-76281144D01*
X156845779Y-76281144D01*
G37*
D17*
X156535000Y-76755000D03*
G04 #@! TD*
D16*
G04 #@! TO.C,R5*
G36*
X156845779Y-78821144D02*
X156868834Y-78824563D01*
X156891443Y-78830227D01*
X156913387Y-78838079D01*
X156934457Y-78848044D01*
X156954448Y-78860026D01*
X156973168Y-78873910D01*
X156990438Y-78889562D01*
X157006090Y-78906832D01*
X157019974Y-78925552D01*
X157031956Y-78945543D01*
X157041921Y-78966613D01*
X157049773Y-78988557D01*
X157055437Y-79011166D01*
X157058856Y-79034221D01*
X157060000Y-79057500D01*
X157060000Y-79532500D01*
X157058856Y-79555779D01*
X157055437Y-79578834D01*
X157049773Y-79601443D01*
X157041921Y-79623387D01*
X157031956Y-79644457D01*
X157019974Y-79664448D01*
X157006090Y-79683168D01*
X156990438Y-79700438D01*
X156973168Y-79716090D01*
X156954448Y-79729974D01*
X156934457Y-79741956D01*
X156913387Y-79751921D01*
X156891443Y-79759773D01*
X156868834Y-79765437D01*
X156845779Y-79768856D01*
X156822500Y-79770000D01*
X156247500Y-79770000D01*
X156224221Y-79768856D01*
X156201166Y-79765437D01*
X156178557Y-79759773D01*
X156156613Y-79751921D01*
X156135543Y-79741956D01*
X156115552Y-79729974D01*
X156096832Y-79716090D01*
X156079562Y-79700438D01*
X156063910Y-79683168D01*
X156050026Y-79664448D01*
X156038044Y-79644457D01*
X156028079Y-79623387D01*
X156020227Y-79601443D01*
X156014563Y-79578834D01*
X156011144Y-79555779D01*
X156010000Y-79532500D01*
X156010000Y-79057500D01*
X156011144Y-79034221D01*
X156014563Y-79011166D01*
X156020227Y-78988557D01*
X156028079Y-78966613D01*
X156038044Y-78945543D01*
X156050026Y-78925552D01*
X156063910Y-78906832D01*
X156079562Y-78889562D01*
X156096832Y-78873910D01*
X156115552Y-78860026D01*
X156135543Y-78848044D01*
X156156613Y-78838079D01*
X156178557Y-78830227D01*
X156201166Y-78824563D01*
X156224221Y-78821144D01*
X156247500Y-78820000D01*
X156822500Y-78820000D01*
X156845779Y-78821144D01*
X156845779Y-78821144D01*
G37*
D17*
X156535000Y-79295000D03*
D16*
G36*
X155095779Y-78821144D02*
X155118834Y-78824563D01*
X155141443Y-78830227D01*
X155163387Y-78838079D01*
X155184457Y-78848044D01*
X155204448Y-78860026D01*
X155223168Y-78873910D01*
X155240438Y-78889562D01*
X155256090Y-78906832D01*
X155269974Y-78925552D01*
X155281956Y-78945543D01*
X155291921Y-78966613D01*
X155299773Y-78988557D01*
X155305437Y-79011166D01*
X155308856Y-79034221D01*
X155310000Y-79057500D01*
X155310000Y-79532500D01*
X155308856Y-79555779D01*
X155305437Y-79578834D01*
X155299773Y-79601443D01*
X155291921Y-79623387D01*
X155281956Y-79644457D01*
X155269974Y-79664448D01*
X155256090Y-79683168D01*
X155240438Y-79700438D01*
X155223168Y-79716090D01*
X155204448Y-79729974D01*
X155184457Y-79741956D01*
X155163387Y-79751921D01*
X155141443Y-79759773D01*
X155118834Y-79765437D01*
X155095779Y-79768856D01*
X155072500Y-79770000D01*
X154497500Y-79770000D01*
X154474221Y-79768856D01*
X154451166Y-79765437D01*
X154428557Y-79759773D01*
X154406613Y-79751921D01*
X154385543Y-79741956D01*
X154365552Y-79729974D01*
X154346832Y-79716090D01*
X154329562Y-79700438D01*
X154313910Y-79683168D01*
X154300026Y-79664448D01*
X154288044Y-79644457D01*
X154278079Y-79623387D01*
X154270227Y-79601443D01*
X154264563Y-79578834D01*
X154261144Y-79555779D01*
X154260000Y-79532500D01*
X154260000Y-79057500D01*
X154261144Y-79034221D01*
X154264563Y-79011166D01*
X154270227Y-78988557D01*
X154278079Y-78966613D01*
X154288044Y-78945543D01*
X154300026Y-78925552D01*
X154313910Y-78906832D01*
X154329562Y-78889562D01*
X154346832Y-78873910D01*
X154365552Y-78860026D01*
X154385543Y-78848044D01*
X154406613Y-78838079D01*
X154428557Y-78830227D01*
X154451166Y-78824563D01*
X154474221Y-78821144D01*
X154497500Y-78820000D01*
X155072500Y-78820000D01*
X155095779Y-78821144D01*
X155095779Y-78821144D01*
G37*
D17*
X154785000Y-79295000D03*
G04 #@! TD*
D16*
G04 #@! TO.C,R6*
G36*
X155095779Y-81361144D02*
X155118834Y-81364563D01*
X155141443Y-81370227D01*
X155163387Y-81378079D01*
X155184457Y-81388044D01*
X155204448Y-81400026D01*
X155223168Y-81413910D01*
X155240438Y-81429562D01*
X155256090Y-81446832D01*
X155269974Y-81465552D01*
X155281956Y-81485543D01*
X155291921Y-81506613D01*
X155299773Y-81528557D01*
X155305437Y-81551166D01*
X155308856Y-81574221D01*
X155310000Y-81597500D01*
X155310000Y-82072500D01*
X155308856Y-82095779D01*
X155305437Y-82118834D01*
X155299773Y-82141443D01*
X155291921Y-82163387D01*
X155281956Y-82184457D01*
X155269974Y-82204448D01*
X155256090Y-82223168D01*
X155240438Y-82240438D01*
X155223168Y-82256090D01*
X155204448Y-82269974D01*
X155184457Y-82281956D01*
X155163387Y-82291921D01*
X155141443Y-82299773D01*
X155118834Y-82305437D01*
X155095779Y-82308856D01*
X155072500Y-82310000D01*
X154497500Y-82310000D01*
X154474221Y-82308856D01*
X154451166Y-82305437D01*
X154428557Y-82299773D01*
X154406613Y-82291921D01*
X154385543Y-82281956D01*
X154365552Y-82269974D01*
X154346832Y-82256090D01*
X154329562Y-82240438D01*
X154313910Y-82223168D01*
X154300026Y-82204448D01*
X154288044Y-82184457D01*
X154278079Y-82163387D01*
X154270227Y-82141443D01*
X154264563Y-82118834D01*
X154261144Y-82095779D01*
X154260000Y-82072500D01*
X154260000Y-81597500D01*
X154261144Y-81574221D01*
X154264563Y-81551166D01*
X154270227Y-81528557D01*
X154278079Y-81506613D01*
X154288044Y-81485543D01*
X154300026Y-81465552D01*
X154313910Y-81446832D01*
X154329562Y-81429562D01*
X154346832Y-81413910D01*
X154365552Y-81400026D01*
X154385543Y-81388044D01*
X154406613Y-81378079D01*
X154428557Y-81370227D01*
X154451166Y-81364563D01*
X154474221Y-81361144D01*
X154497500Y-81360000D01*
X155072500Y-81360000D01*
X155095779Y-81361144D01*
X155095779Y-81361144D01*
G37*
D17*
X154785000Y-81835000D03*
D16*
G36*
X156845779Y-81361144D02*
X156868834Y-81364563D01*
X156891443Y-81370227D01*
X156913387Y-81378079D01*
X156934457Y-81388044D01*
X156954448Y-81400026D01*
X156973168Y-81413910D01*
X156990438Y-81429562D01*
X157006090Y-81446832D01*
X157019974Y-81465552D01*
X157031956Y-81485543D01*
X157041921Y-81506613D01*
X157049773Y-81528557D01*
X157055437Y-81551166D01*
X157058856Y-81574221D01*
X157060000Y-81597500D01*
X157060000Y-82072500D01*
X157058856Y-82095779D01*
X157055437Y-82118834D01*
X157049773Y-82141443D01*
X157041921Y-82163387D01*
X157031956Y-82184457D01*
X157019974Y-82204448D01*
X157006090Y-82223168D01*
X156990438Y-82240438D01*
X156973168Y-82256090D01*
X156954448Y-82269974D01*
X156934457Y-82281956D01*
X156913387Y-82291921D01*
X156891443Y-82299773D01*
X156868834Y-82305437D01*
X156845779Y-82308856D01*
X156822500Y-82310000D01*
X156247500Y-82310000D01*
X156224221Y-82308856D01*
X156201166Y-82305437D01*
X156178557Y-82299773D01*
X156156613Y-82291921D01*
X156135543Y-82281956D01*
X156115552Y-82269974D01*
X156096832Y-82256090D01*
X156079562Y-82240438D01*
X156063910Y-82223168D01*
X156050026Y-82204448D01*
X156038044Y-82184457D01*
X156028079Y-82163387D01*
X156020227Y-82141443D01*
X156014563Y-82118834D01*
X156011144Y-82095779D01*
X156010000Y-82072500D01*
X156010000Y-81597500D01*
X156011144Y-81574221D01*
X156014563Y-81551166D01*
X156020227Y-81528557D01*
X156028079Y-81506613D01*
X156038044Y-81485543D01*
X156050026Y-81465552D01*
X156063910Y-81446832D01*
X156079562Y-81429562D01*
X156096832Y-81413910D01*
X156115552Y-81400026D01*
X156135543Y-81388044D01*
X156156613Y-81378079D01*
X156178557Y-81370227D01*
X156201166Y-81364563D01*
X156224221Y-81361144D01*
X156247500Y-81360000D01*
X156822500Y-81360000D01*
X156845779Y-81361144D01*
X156845779Y-81361144D01*
G37*
D17*
X156535000Y-81835000D03*
G04 #@! TD*
D16*
G04 #@! TO.C,R7*
G36*
X140855779Y-71021144D02*
X140878834Y-71024563D01*
X140901443Y-71030227D01*
X140923387Y-71038079D01*
X140944457Y-71048044D01*
X140964448Y-71060026D01*
X140983168Y-71073910D01*
X141000438Y-71089562D01*
X141016090Y-71106832D01*
X141029974Y-71125552D01*
X141041956Y-71145543D01*
X141051921Y-71166613D01*
X141059773Y-71188557D01*
X141065437Y-71211166D01*
X141068856Y-71234221D01*
X141070000Y-71257500D01*
X141070000Y-71732500D01*
X141068856Y-71755779D01*
X141065437Y-71778834D01*
X141059773Y-71801443D01*
X141051921Y-71823387D01*
X141041956Y-71844457D01*
X141029974Y-71864448D01*
X141016090Y-71883168D01*
X141000438Y-71900438D01*
X140983168Y-71916090D01*
X140964448Y-71929974D01*
X140944457Y-71941956D01*
X140923387Y-71951921D01*
X140901443Y-71959773D01*
X140878834Y-71965437D01*
X140855779Y-71968856D01*
X140832500Y-71970000D01*
X140257500Y-71970000D01*
X140234221Y-71968856D01*
X140211166Y-71965437D01*
X140188557Y-71959773D01*
X140166613Y-71951921D01*
X140145543Y-71941956D01*
X140125552Y-71929974D01*
X140106832Y-71916090D01*
X140089562Y-71900438D01*
X140073910Y-71883168D01*
X140060026Y-71864448D01*
X140048044Y-71844457D01*
X140038079Y-71823387D01*
X140030227Y-71801443D01*
X140024563Y-71778834D01*
X140021144Y-71755779D01*
X140020000Y-71732500D01*
X140020000Y-71257500D01*
X140021144Y-71234221D01*
X140024563Y-71211166D01*
X140030227Y-71188557D01*
X140038079Y-71166613D01*
X140048044Y-71145543D01*
X140060026Y-71125552D01*
X140073910Y-71106832D01*
X140089562Y-71089562D01*
X140106832Y-71073910D01*
X140125552Y-71060026D01*
X140145543Y-71048044D01*
X140166613Y-71038079D01*
X140188557Y-71030227D01*
X140211166Y-71024563D01*
X140234221Y-71021144D01*
X140257500Y-71020000D01*
X140832500Y-71020000D01*
X140855779Y-71021144D01*
X140855779Y-71021144D01*
G37*
D17*
X140545000Y-71495000D03*
D16*
G36*
X142605779Y-71021144D02*
X142628834Y-71024563D01*
X142651443Y-71030227D01*
X142673387Y-71038079D01*
X142694457Y-71048044D01*
X142714448Y-71060026D01*
X142733168Y-71073910D01*
X142750438Y-71089562D01*
X142766090Y-71106832D01*
X142779974Y-71125552D01*
X142791956Y-71145543D01*
X142801921Y-71166613D01*
X142809773Y-71188557D01*
X142815437Y-71211166D01*
X142818856Y-71234221D01*
X142820000Y-71257500D01*
X142820000Y-71732500D01*
X142818856Y-71755779D01*
X142815437Y-71778834D01*
X142809773Y-71801443D01*
X142801921Y-71823387D01*
X142791956Y-71844457D01*
X142779974Y-71864448D01*
X142766090Y-71883168D01*
X142750438Y-71900438D01*
X142733168Y-71916090D01*
X142714448Y-71929974D01*
X142694457Y-71941956D01*
X142673387Y-71951921D01*
X142651443Y-71959773D01*
X142628834Y-71965437D01*
X142605779Y-71968856D01*
X142582500Y-71970000D01*
X142007500Y-71970000D01*
X141984221Y-71968856D01*
X141961166Y-71965437D01*
X141938557Y-71959773D01*
X141916613Y-71951921D01*
X141895543Y-71941956D01*
X141875552Y-71929974D01*
X141856832Y-71916090D01*
X141839562Y-71900438D01*
X141823910Y-71883168D01*
X141810026Y-71864448D01*
X141798044Y-71844457D01*
X141788079Y-71823387D01*
X141780227Y-71801443D01*
X141774563Y-71778834D01*
X141771144Y-71755779D01*
X141770000Y-71732500D01*
X141770000Y-71257500D01*
X141771144Y-71234221D01*
X141774563Y-71211166D01*
X141780227Y-71188557D01*
X141788079Y-71166613D01*
X141798044Y-71145543D01*
X141810026Y-71125552D01*
X141823910Y-71106832D01*
X141839562Y-71089562D01*
X141856832Y-71073910D01*
X141875552Y-71060026D01*
X141895543Y-71048044D01*
X141916613Y-71038079D01*
X141938557Y-71030227D01*
X141961166Y-71024563D01*
X141984221Y-71021144D01*
X142007500Y-71020000D01*
X142582500Y-71020000D01*
X142605779Y-71021144D01*
X142605779Y-71021144D01*
G37*
D17*
X142295000Y-71495000D03*
G04 #@! TD*
D16*
G04 #@! TO.C,R8*
G36*
X142605779Y-73671144D02*
X142628834Y-73674563D01*
X142651443Y-73680227D01*
X142673387Y-73688079D01*
X142694457Y-73698044D01*
X142714448Y-73710026D01*
X142733168Y-73723910D01*
X142750438Y-73739562D01*
X142766090Y-73756832D01*
X142779974Y-73775552D01*
X142791956Y-73795543D01*
X142801921Y-73816613D01*
X142809773Y-73838557D01*
X142815437Y-73861166D01*
X142818856Y-73884221D01*
X142820000Y-73907500D01*
X142820000Y-74382500D01*
X142818856Y-74405779D01*
X142815437Y-74428834D01*
X142809773Y-74451443D01*
X142801921Y-74473387D01*
X142791956Y-74494457D01*
X142779974Y-74514448D01*
X142766090Y-74533168D01*
X142750438Y-74550438D01*
X142733168Y-74566090D01*
X142714448Y-74579974D01*
X142694457Y-74591956D01*
X142673387Y-74601921D01*
X142651443Y-74609773D01*
X142628834Y-74615437D01*
X142605779Y-74618856D01*
X142582500Y-74620000D01*
X142007500Y-74620000D01*
X141984221Y-74618856D01*
X141961166Y-74615437D01*
X141938557Y-74609773D01*
X141916613Y-74601921D01*
X141895543Y-74591956D01*
X141875552Y-74579974D01*
X141856832Y-74566090D01*
X141839562Y-74550438D01*
X141823910Y-74533168D01*
X141810026Y-74514448D01*
X141798044Y-74494457D01*
X141788079Y-74473387D01*
X141780227Y-74451443D01*
X141774563Y-74428834D01*
X141771144Y-74405779D01*
X141770000Y-74382500D01*
X141770000Y-73907500D01*
X141771144Y-73884221D01*
X141774563Y-73861166D01*
X141780227Y-73838557D01*
X141788079Y-73816613D01*
X141798044Y-73795543D01*
X141810026Y-73775552D01*
X141823910Y-73756832D01*
X141839562Y-73739562D01*
X141856832Y-73723910D01*
X141875552Y-73710026D01*
X141895543Y-73698044D01*
X141916613Y-73688079D01*
X141938557Y-73680227D01*
X141961166Y-73674563D01*
X141984221Y-73671144D01*
X142007500Y-73670000D01*
X142582500Y-73670000D01*
X142605779Y-73671144D01*
X142605779Y-73671144D01*
G37*
D17*
X142295000Y-74145000D03*
D16*
G36*
X140855779Y-73671144D02*
X140878834Y-73674563D01*
X140901443Y-73680227D01*
X140923387Y-73688079D01*
X140944457Y-73698044D01*
X140964448Y-73710026D01*
X140983168Y-73723910D01*
X141000438Y-73739562D01*
X141016090Y-73756832D01*
X141029974Y-73775552D01*
X141041956Y-73795543D01*
X141051921Y-73816613D01*
X141059773Y-73838557D01*
X141065437Y-73861166D01*
X141068856Y-73884221D01*
X141070000Y-73907500D01*
X141070000Y-74382500D01*
X141068856Y-74405779D01*
X141065437Y-74428834D01*
X141059773Y-74451443D01*
X141051921Y-74473387D01*
X141041956Y-74494457D01*
X141029974Y-74514448D01*
X141016090Y-74533168D01*
X141000438Y-74550438D01*
X140983168Y-74566090D01*
X140964448Y-74579974D01*
X140944457Y-74591956D01*
X140923387Y-74601921D01*
X140901443Y-74609773D01*
X140878834Y-74615437D01*
X140855779Y-74618856D01*
X140832500Y-74620000D01*
X140257500Y-74620000D01*
X140234221Y-74618856D01*
X140211166Y-74615437D01*
X140188557Y-74609773D01*
X140166613Y-74601921D01*
X140145543Y-74591956D01*
X140125552Y-74579974D01*
X140106832Y-74566090D01*
X140089562Y-74550438D01*
X140073910Y-74533168D01*
X140060026Y-74514448D01*
X140048044Y-74494457D01*
X140038079Y-74473387D01*
X140030227Y-74451443D01*
X140024563Y-74428834D01*
X140021144Y-74405779D01*
X140020000Y-74382500D01*
X140020000Y-73907500D01*
X140021144Y-73884221D01*
X140024563Y-73861166D01*
X140030227Y-73838557D01*
X140038079Y-73816613D01*
X140048044Y-73795543D01*
X140060026Y-73775552D01*
X140073910Y-73756832D01*
X140089562Y-73739562D01*
X140106832Y-73723910D01*
X140125552Y-73710026D01*
X140145543Y-73698044D01*
X140166613Y-73688079D01*
X140188557Y-73680227D01*
X140211166Y-73674563D01*
X140234221Y-73671144D01*
X140257500Y-73670000D01*
X140832500Y-73670000D01*
X140855779Y-73671144D01*
X140855779Y-73671144D01*
G37*
D17*
X140545000Y-74145000D03*
G04 #@! TD*
D16*
G04 #@! TO.C,J1*
G36*
X166954504Y-67096204D02*
X166978773Y-67099804D01*
X167002571Y-67105765D01*
X167025671Y-67114030D01*
X167047849Y-67124520D01*
X167068893Y-67137133D01*
X167088598Y-67151747D01*
X167106777Y-67168223D01*
X167123253Y-67186402D01*
X167137867Y-67206107D01*
X167150480Y-67227151D01*
X167160970Y-67249329D01*
X167169235Y-67272429D01*
X167175196Y-67296227D01*
X167178796Y-67320496D01*
X167180000Y-67345000D01*
X167180000Y-68545000D01*
X167178796Y-68569504D01*
X167175196Y-68593773D01*
X167169235Y-68617571D01*
X167160970Y-68640671D01*
X167150480Y-68662849D01*
X167137867Y-68683893D01*
X167123253Y-68703598D01*
X167106777Y-68721777D01*
X167088598Y-68738253D01*
X167068893Y-68752867D01*
X167047849Y-68765480D01*
X167025671Y-68775970D01*
X167002571Y-68784235D01*
X166978773Y-68790196D01*
X166954504Y-68793796D01*
X166930000Y-68795000D01*
X165430000Y-68795000D01*
X165405496Y-68793796D01*
X165381227Y-68790196D01*
X165357429Y-68784235D01*
X165334329Y-68775970D01*
X165312151Y-68765480D01*
X165291107Y-68752867D01*
X165271402Y-68738253D01*
X165253223Y-68721777D01*
X165236747Y-68703598D01*
X165222133Y-68683893D01*
X165209520Y-68662849D01*
X165199030Y-68640671D01*
X165190765Y-68617571D01*
X165184804Y-68593773D01*
X165181204Y-68569504D01*
X165180000Y-68545000D01*
X165180000Y-67345000D01*
X165181204Y-67320496D01*
X165184804Y-67296227D01*
X165190765Y-67272429D01*
X165199030Y-67249329D01*
X165209520Y-67227151D01*
X165222133Y-67206107D01*
X165236747Y-67186402D01*
X165253223Y-67168223D01*
X165271402Y-67151747D01*
X165291107Y-67137133D01*
X165312151Y-67124520D01*
X165334329Y-67114030D01*
X165357429Y-67105765D01*
X165381227Y-67099804D01*
X165405496Y-67096204D01*
X165430000Y-67095000D01*
X166930000Y-67095000D01*
X166954504Y-67096204D01*
X166954504Y-67096204D01*
G37*
D21*
X166180000Y-67945000D03*
D22*
X166180000Y-70445000D03*
G04 #@! TD*
G04 #@! TO.C,J2*
X166180000Y-78065000D03*
D16*
G36*
X166954504Y-74716204D02*
X166978773Y-74719804D01*
X167002571Y-74725765D01*
X167025671Y-74734030D01*
X167047849Y-74744520D01*
X167068893Y-74757133D01*
X167088598Y-74771747D01*
X167106777Y-74788223D01*
X167123253Y-74806402D01*
X167137867Y-74826107D01*
X167150480Y-74847151D01*
X167160970Y-74869329D01*
X167169235Y-74892429D01*
X167175196Y-74916227D01*
X167178796Y-74940496D01*
X167180000Y-74965000D01*
X167180000Y-76165000D01*
X167178796Y-76189504D01*
X167175196Y-76213773D01*
X167169235Y-76237571D01*
X167160970Y-76260671D01*
X167150480Y-76282849D01*
X167137867Y-76303893D01*
X167123253Y-76323598D01*
X167106777Y-76341777D01*
X167088598Y-76358253D01*
X167068893Y-76372867D01*
X167047849Y-76385480D01*
X167025671Y-76395970D01*
X167002571Y-76404235D01*
X166978773Y-76410196D01*
X166954504Y-76413796D01*
X166930000Y-76415000D01*
X165430000Y-76415000D01*
X165405496Y-76413796D01*
X165381227Y-76410196D01*
X165357429Y-76404235D01*
X165334329Y-76395970D01*
X165312151Y-76385480D01*
X165291107Y-76372867D01*
X165271402Y-76358253D01*
X165253223Y-76341777D01*
X165236747Y-76323598D01*
X165222133Y-76303893D01*
X165209520Y-76282849D01*
X165199030Y-76260671D01*
X165190765Y-76237571D01*
X165184804Y-76213773D01*
X165181204Y-76189504D01*
X165180000Y-76165000D01*
X165180000Y-74965000D01*
X165181204Y-74940496D01*
X165184804Y-74916227D01*
X165190765Y-74892429D01*
X165199030Y-74869329D01*
X165209520Y-74847151D01*
X165222133Y-74826107D01*
X165236747Y-74806402D01*
X165253223Y-74788223D01*
X165271402Y-74771747D01*
X165291107Y-74757133D01*
X165312151Y-74744520D01*
X165334329Y-74734030D01*
X165357429Y-74725765D01*
X165381227Y-74719804D01*
X165405496Y-74716204D01*
X165430000Y-74715000D01*
X166930000Y-74715000D01*
X166954504Y-74716204D01*
X166954504Y-74716204D01*
G37*
D21*
X166180000Y-75565000D03*
G04 #@! TD*
D16*
G04 #@! TO.C,J5*
G36*
X166954504Y-82336204D02*
X166978773Y-82339804D01*
X167002571Y-82345765D01*
X167025671Y-82354030D01*
X167047849Y-82364520D01*
X167068893Y-82377133D01*
X167088598Y-82391747D01*
X167106777Y-82408223D01*
X167123253Y-82426402D01*
X167137867Y-82446107D01*
X167150480Y-82467151D01*
X167160970Y-82489329D01*
X167169235Y-82512429D01*
X167175196Y-82536227D01*
X167178796Y-82560496D01*
X167180000Y-82585000D01*
X167180000Y-83785000D01*
X167178796Y-83809504D01*
X167175196Y-83833773D01*
X167169235Y-83857571D01*
X167160970Y-83880671D01*
X167150480Y-83902849D01*
X167137867Y-83923893D01*
X167123253Y-83943598D01*
X167106777Y-83961777D01*
X167088598Y-83978253D01*
X167068893Y-83992867D01*
X167047849Y-84005480D01*
X167025671Y-84015970D01*
X167002571Y-84024235D01*
X166978773Y-84030196D01*
X166954504Y-84033796D01*
X166930000Y-84035000D01*
X165430000Y-84035000D01*
X165405496Y-84033796D01*
X165381227Y-84030196D01*
X165357429Y-84024235D01*
X165334329Y-84015970D01*
X165312151Y-84005480D01*
X165291107Y-83992867D01*
X165271402Y-83978253D01*
X165253223Y-83961777D01*
X165236747Y-83943598D01*
X165222133Y-83923893D01*
X165209520Y-83902849D01*
X165199030Y-83880671D01*
X165190765Y-83857571D01*
X165184804Y-83833773D01*
X165181204Y-83809504D01*
X165180000Y-83785000D01*
X165180000Y-82585000D01*
X165181204Y-82560496D01*
X165184804Y-82536227D01*
X165190765Y-82512429D01*
X165199030Y-82489329D01*
X165209520Y-82467151D01*
X165222133Y-82446107D01*
X165236747Y-82426402D01*
X165253223Y-82408223D01*
X165271402Y-82391747D01*
X165291107Y-82377133D01*
X165312151Y-82364520D01*
X165334329Y-82354030D01*
X165357429Y-82345765D01*
X165381227Y-82339804D01*
X165405496Y-82336204D01*
X165430000Y-82335000D01*
X166930000Y-82335000D01*
X166954504Y-82336204D01*
X166954504Y-82336204D01*
G37*
D21*
X166180000Y-83185000D03*
D22*
X166180000Y-85685000D03*
G04 #@! TD*
G04 #@! TO.C,J6*
X166180000Y-93305000D03*
D16*
G36*
X166954504Y-89956204D02*
X166978773Y-89959804D01*
X167002571Y-89965765D01*
X167025671Y-89974030D01*
X167047849Y-89984520D01*
X167068893Y-89997133D01*
X167088598Y-90011747D01*
X167106777Y-90028223D01*
X167123253Y-90046402D01*
X167137867Y-90066107D01*
X167150480Y-90087151D01*
X167160970Y-90109329D01*
X167169235Y-90132429D01*
X167175196Y-90156227D01*
X167178796Y-90180496D01*
X167180000Y-90205000D01*
X167180000Y-91405000D01*
X167178796Y-91429504D01*
X167175196Y-91453773D01*
X167169235Y-91477571D01*
X167160970Y-91500671D01*
X167150480Y-91522849D01*
X167137867Y-91543893D01*
X167123253Y-91563598D01*
X167106777Y-91581777D01*
X167088598Y-91598253D01*
X167068893Y-91612867D01*
X167047849Y-91625480D01*
X167025671Y-91635970D01*
X167002571Y-91644235D01*
X166978773Y-91650196D01*
X166954504Y-91653796D01*
X166930000Y-91655000D01*
X165430000Y-91655000D01*
X165405496Y-91653796D01*
X165381227Y-91650196D01*
X165357429Y-91644235D01*
X165334329Y-91635970D01*
X165312151Y-91625480D01*
X165291107Y-91612867D01*
X165271402Y-91598253D01*
X165253223Y-91581777D01*
X165236747Y-91563598D01*
X165222133Y-91543893D01*
X165209520Y-91522849D01*
X165199030Y-91500671D01*
X165190765Y-91477571D01*
X165184804Y-91453773D01*
X165181204Y-91429504D01*
X165180000Y-91405000D01*
X165180000Y-90205000D01*
X165181204Y-90180496D01*
X165184804Y-90156227D01*
X165190765Y-90132429D01*
X165199030Y-90109329D01*
X165209520Y-90087151D01*
X165222133Y-90066107D01*
X165236747Y-90046402D01*
X165253223Y-90028223D01*
X165271402Y-90011747D01*
X165291107Y-89997133D01*
X165312151Y-89984520D01*
X165334329Y-89974030D01*
X165357429Y-89965765D01*
X165381227Y-89959804D01*
X165405496Y-89956204D01*
X165430000Y-89955000D01*
X166930000Y-89955000D01*
X166954504Y-89956204D01*
X166954504Y-89956204D01*
G37*
D21*
X166180000Y-90805000D03*
G04 #@! TD*
D16*
G04 #@! TO.C,J7*
G36*
X166954504Y-97576204D02*
X166978773Y-97579804D01*
X167002571Y-97585765D01*
X167025671Y-97594030D01*
X167047849Y-97604520D01*
X167068893Y-97617133D01*
X167088598Y-97631747D01*
X167106777Y-97648223D01*
X167123253Y-97666402D01*
X167137867Y-97686107D01*
X167150480Y-97707151D01*
X167160970Y-97729329D01*
X167169235Y-97752429D01*
X167175196Y-97776227D01*
X167178796Y-97800496D01*
X167180000Y-97825000D01*
X167180000Y-99025000D01*
X167178796Y-99049504D01*
X167175196Y-99073773D01*
X167169235Y-99097571D01*
X167160970Y-99120671D01*
X167150480Y-99142849D01*
X167137867Y-99163893D01*
X167123253Y-99183598D01*
X167106777Y-99201777D01*
X167088598Y-99218253D01*
X167068893Y-99232867D01*
X167047849Y-99245480D01*
X167025671Y-99255970D01*
X167002571Y-99264235D01*
X166978773Y-99270196D01*
X166954504Y-99273796D01*
X166930000Y-99275000D01*
X165430000Y-99275000D01*
X165405496Y-99273796D01*
X165381227Y-99270196D01*
X165357429Y-99264235D01*
X165334329Y-99255970D01*
X165312151Y-99245480D01*
X165291107Y-99232867D01*
X165271402Y-99218253D01*
X165253223Y-99201777D01*
X165236747Y-99183598D01*
X165222133Y-99163893D01*
X165209520Y-99142849D01*
X165199030Y-99120671D01*
X165190765Y-99097571D01*
X165184804Y-99073773D01*
X165181204Y-99049504D01*
X165180000Y-99025000D01*
X165180000Y-97825000D01*
X165181204Y-97800496D01*
X165184804Y-97776227D01*
X165190765Y-97752429D01*
X165199030Y-97729329D01*
X165209520Y-97707151D01*
X165222133Y-97686107D01*
X165236747Y-97666402D01*
X165253223Y-97648223D01*
X165271402Y-97631747D01*
X165291107Y-97617133D01*
X165312151Y-97604520D01*
X165334329Y-97594030D01*
X165357429Y-97585765D01*
X165381227Y-97579804D01*
X165405496Y-97576204D01*
X165430000Y-97575000D01*
X166930000Y-97575000D01*
X166954504Y-97576204D01*
X166954504Y-97576204D01*
G37*
D21*
X166180000Y-98425000D03*
D22*
X166180000Y-100925000D03*
G04 #@! TD*
D16*
G04 #@! TO.C,J8*
G36*
X166954504Y-105196204D02*
X166978773Y-105199804D01*
X167002571Y-105205765D01*
X167025671Y-105214030D01*
X167047849Y-105224520D01*
X167068893Y-105237133D01*
X167088598Y-105251747D01*
X167106777Y-105268223D01*
X167123253Y-105286402D01*
X167137867Y-105306107D01*
X167150480Y-105327151D01*
X167160970Y-105349329D01*
X167169235Y-105372429D01*
X167175196Y-105396227D01*
X167178796Y-105420496D01*
X167180000Y-105445000D01*
X167180000Y-106645000D01*
X167178796Y-106669504D01*
X167175196Y-106693773D01*
X167169235Y-106717571D01*
X167160970Y-106740671D01*
X167150480Y-106762849D01*
X167137867Y-106783893D01*
X167123253Y-106803598D01*
X167106777Y-106821777D01*
X167088598Y-106838253D01*
X167068893Y-106852867D01*
X167047849Y-106865480D01*
X167025671Y-106875970D01*
X167002571Y-106884235D01*
X166978773Y-106890196D01*
X166954504Y-106893796D01*
X166930000Y-106895000D01*
X165430000Y-106895000D01*
X165405496Y-106893796D01*
X165381227Y-106890196D01*
X165357429Y-106884235D01*
X165334329Y-106875970D01*
X165312151Y-106865480D01*
X165291107Y-106852867D01*
X165271402Y-106838253D01*
X165253223Y-106821777D01*
X165236747Y-106803598D01*
X165222133Y-106783893D01*
X165209520Y-106762849D01*
X165199030Y-106740671D01*
X165190765Y-106717571D01*
X165184804Y-106693773D01*
X165181204Y-106669504D01*
X165180000Y-106645000D01*
X165180000Y-105445000D01*
X165181204Y-105420496D01*
X165184804Y-105396227D01*
X165190765Y-105372429D01*
X165199030Y-105349329D01*
X165209520Y-105327151D01*
X165222133Y-105306107D01*
X165236747Y-105286402D01*
X165253223Y-105268223D01*
X165271402Y-105251747D01*
X165291107Y-105237133D01*
X165312151Y-105224520D01*
X165334329Y-105214030D01*
X165357429Y-105205765D01*
X165381227Y-105199804D01*
X165405496Y-105196204D01*
X165430000Y-105195000D01*
X166930000Y-105195000D01*
X166954504Y-105196204D01*
X166954504Y-105196204D01*
G37*
D21*
X166180000Y-106045000D03*
D22*
X166180000Y-108545000D03*
G04 #@! TD*
D19*
G04 #@! TO.C,J3*
X129540000Y-95885000D03*
D20*
X132080000Y-95885000D03*
G04 #@! TD*
D16*
G04 #@! TO.C,C7*
G36*
X127380779Y-101546144D02*
X127403834Y-101549563D01*
X127426443Y-101555227D01*
X127448387Y-101563079D01*
X127469457Y-101573044D01*
X127489448Y-101585026D01*
X127508168Y-101598910D01*
X127525438Y-101614562D01*
X127541090Y-101631832D01*
X127554974Y-101650552D01*
X127566956Y-101670543D01*
X127576921Y-101691613D01*
X127584773Y-101713557D01*
X127590437Y-101736166D01*
X127593856Y-101759221D01*
X127595000Y-101782500D01*
X127595000Y-102357500D01*
X127593856Y-102380779D01*
X127590437Y-102403834D01*
X127584773Y-102426443D01*
X127576921Y-102448387D01*
X127566956Y-102469457D01*
X127554974Y-102489448D01*
X127541090Y-102508168D01*
X127525438Y-102525438D01*
X127508168Y-102541090D01*
X127489448Y-102554974D01*
X127469457Y-102566956D01*
X127448387Y-102576921D01*
X127426443Y-102584773D01*
X127403834Y-102590437D01*
X127380779Y-102593856D01*
X127357500Y-102595000D01*
X126882500Y-102595000D01*
X126859221Y-102593856D01*
X126836166Y-102590437D01*
X126813557Y-102584773D01*
X126791613Y-102576921D01*
X126770543Y-102566956D01*
X126750552Y-102554974D01*
X126731832Y-102541090D01*
X126714562Y-102525438D01*
X126698910Y-102508168D01*
X126685026Y-102489448D01*
X126673044Y-102469457D01*
X126663079Y-102448387D01*
X126655227Y-102426443D01*
X126649563Y-102403834D01*
X126646144Y-102380779D01*
X126645000Y-102357500D01*
X126645000Y-101782500D01*
X126646144Y-101759221D01*
X126649563Y-101736166D01*
X126655227Y-101713557D01*
X126663079Y-101691613D01*
X126673044Y-101670543D01*
X126685026Y-101650552D01*
X126698910Y-101631832D01*
X126714562Y-101614562D01*
X126731832Y-101598910D01*
X126750552Y-101585026D01*
X126770543Y-101573044D01*
X126791613Y-101563079D01*
X126813557Y-101555227D01*
X126836166Y-101549563D01*
X126859221Y-101546144D01*
X126882500Y-101545000D01*
X127357500Y-101545000D01*
X127380779Y-101546144D01*
X127380779Y-101546144D01*
G37*
D17*
X127120000Y-102070000D03*
D16*
G36*
X127380779Y-103296144D02*
X127403834Y-103299563D01*
X127426443Y-103305227D01*
X127448387Y-103313079D01*
X127469457Y-103323044D01*
X127489448Y-103335026D01*
X127508168Y-103348910D01*
X127525438Y-103364562D01*
X127541090Y-103381832D01*
X127554974Y-103400552D01*
X127566956Y-103420543D01*
X127576921Y-103441613D01*
X127584773Y-103463557D01*
X127590437Y-103486166D01*
X127593856Y-103509221D01*
X127595000Y-103532500D01*
X127595000Y-104107500D01*
X127593856Y-104130779D01*
X127590437Y-104153834D01*
X127584773Y-104176443D01*
X127576921Y-104198387D01*
X127566956Y-104219457D01*
X127554974Y-104239448D01*
X127541090Y-104258168D01*
X127525438Y-104275438D01*
X127508168Y-104291090D01*
X127489448Y-104304974D01*
X127469457Y-104316956D01*
X127448387Y-104326921D01*
X127426443Y-104334773D01*
X127403834Y-104340437D01*
X127380779Y-104343856D01*
X127357500Y-104345000D01*
X126882500Y-104345000D01*
X126859221Y-104343856D01*
X126836166Y-104340437D01*
X126813557Y-104334773D01*
X126791613Y-104326921D01*
X126770543Y-104316956D01*
X126750552Y-104304974D01*
X126731832Y-104291090D01*
X126714562Y-104275438D01*
X126698910Y-104258168D01*
X126685026Y-104239448D01*
X126673044Y-104219457D01*
X126663079Y-104198387D01*
X126655227Y-104176443D01*
X126649563Y-104153834D01*
X126646144Y-104130779D01*
X126645000Y-104107500D01*
X126645000Y-103532500D01*
X126646144Y-103509221D01*
X126649563Y-103486166D01*
X126655227Y-103463557D01*
X126663079Y-103441613D01*
X126673044Y-103420543D01*
X126685026Y-103400552D01*
X126698910Y-103381832D01*
X126714562Y-103364562D01*
X126731832Y-103348910D01*
X126750552Y-103335026D01*
X126770543Y-103323044D01*
X126791613Y-103313079D01*
X126813557Y-103305227D01*
X126836166Y-103299563D01*
X126859221Y-103296144D01*
X126882500Y-103295000D01*
X127357500Y-103295000D01*
X127380779Y-103296144D01*
X127380779Y-103296144D01*
G37*
D17*
X127120000Y-103820000D03*
G04 #@! TD*
D23*
G04 #@! TO.C,Q1*
X147670000Y-91945000D03*
X149570000Y-91945000D03*
X148620000Y-89945000D03*
G04 #@! TD*
G04 #@! TO.C,Q2*
X143870000Y-89945000D03*
X144820000Y-91945000D03*
X142920000Y-91945000D03*
G04 #@! TD*
G04 #@! TO.C,Q3*
X134570000Y-103945000D03*
X132670000Y-103945000D03*
X133620000Y-105945000D03*
G04 #@! TD*
G04 #@! TO.C,Q4*
X129620000Y-105945000D03*
X128670000Y-103945000D03*
X130570000Y-103945000D03*
G04 #@! TD*
D16*
G04 #@! TO.C,R9*
G36*
X148055779Y-93471144D02*
X148078834Y-93474563D01*
X148101443Y-93480227D01*
X148123387Y-93488079D01*
X148144457Y-93498044D01*
X148164448Y-93510026D01*
X148183168Y-93523910D01*
X148200438Y-93539562D01*
X148216090Y-93556832D01*
X148229974Y-93575552D01*
X148241956Y-93595543D01*
X148251921Y-93616613D01*
X148259773Y-93638557D01*
X148265437Y-93661166D01*
X148268856Y-93684221D01*
X148270000Y-93707500D01*
X148270000Y-94182500D01*
X148268856Y-94205779D01*
X148265437Y-94228834D01*
X148259773Y-94251443D01*
X148251921Y-94273387D01*
X148241956Y-94294457D01*
X148229974Y-94314448D01*
X148216090Y-94333168D01*
X148200438Y-94350438D01*
X148183168Y-94366090D01*
X148164448Y-94379974D01*
X148144457Y-94391956D01*
X148123387Y-94401921D01*
X148101443Y-94409773D01*
X148078834Y-94415437D01*
X148055779Y-94418856D01*
X148032500Y-94420000D01*
X147457500Y-94420000D01*
X147434221Y-94418856D01*
X147411166Y-94415437D01*
X147388557Y-94409773D01*
X147366613Y-94401921D01*
X147345543Y-94391956D01*
X147325552Y-94379974D01*
X147306832Y-94366090D01*
X147289562Y-94350438D01*
X147273910Y-94333168D01*
X147260026Y-94314448D01*
X147248044Y-94294457D01*
X147238079Y-94273387D01*
X147230227Y-94251443D01*
X147224563Y-94228834D01*
X147221144Y-94205779D01*
X147220000Y-94182500D01*
X147220000Y-93707500D01*
X147221144Y-93684221D01*
X147224563Y-93661166D01*
X147230227Y-93638557D01*
X147238079Y-93616613D01*
X147248044Y-93595543D01*
X147260026Y-93575552D01*
X147273910Y-93556832D01*
X147289562Y-93539562D01*
X147306832Y-93523910D01*
X147325552Y-93510026D01*
X147345543Y-93498044D01*
X147366613Y-93488079D01*
X147388557Y-93480227D01*
X147411166Y-93474563D01*
X147434221Y-93471144D01*
X147457500Y-93470000D01*
X148032500Y-93470000D01*
X148055779Y-93471144D01*
X148055779Y-93471144D01*
G37*
D17*
X147745000Y-93945000D03*
D16*
G36*
X149805779Y-93471144D02*
X149828834Y-93474563D01*
X149851443Y-93480227D01*
X149873387Y-93488079D01*
X149894457Y-93498044D01*
X149914448Y-93510026D01*
X149933168Y-93523910D01*
X149950438Y-93539562D01*
X149966090Y-93556832D01*
X149979974Y-93575552D01*
X149991956Y-93595543D01*
X150001921Y-93616613D01*
X150009773Y-93638557D01*
X150015437Y-93661166D01*
X150018856Y-93684221D01*
X150020000Y-93707500D01*
X150020000Y-94182500D01*
X150018856Y-94205779D01*
X150015437Y-94228834D01*
X150009773Y-94251443D01*
X150001921Y-94273387D01*
X149991956Y-94294457D01*
X149979974Y-94314448D01*
X149966090Y-94333168D01*
X149950438Y-94350438D01*
X149933168Y-94366090D01*
X149914448Y-94379974D01*
X149894457Y-94391956D01*
X149873387Y-94401921D01*
X149851443Y-94409773D01*
X149828834Y-94415437D01*
X149805779Y-94418856D01*
X149782500Y-94420000D01*
X149207500Y-94420000D01*
X149184221Y-94418856D01*
X149161166Y-94415437D01*
X149138557Y-94409773D01*
X149116613Y-94401921D01*
X149095543Y-94391956D01*
X149075552Y-94379974D01*
X149056832Y-94366090D01*
X149039562Y-94350438D01*
X149023910Y-94333168D01*
X149010026Y-94314448D01*
X148998044Y-94294457D01*
X148988079Y-94273387D01*
X148980227Y-94251443D01*
X148974563Y-94228834D01*
X148971144Y-94205779D01*
X148970000Y-94182500D01*
X148970000Y-93707500D01*
X148971144Y-93684221D01*
X148974563Y-93661166D01*
X148980227Y-93638557D01*
X148988079Y-93616613D01*
X148998044Y-93595543D01*
X149010026Y-93575552D01*
X149023910Y-93556832D01*
X149039562Y-93539562D01*
X149056832Y-93523910D01*
X149075552Y-93510026D01*
X149095543Y-93498044D01*
X149116613Y-93488079D01*
X149138557Y-93480227D01*
X149161166Y-93474563D01*
X149184221Y-93471144D01*
X149207500Y-93470000D01*
X149782500Y-93470000D01*
X149805779Y-93471144D01*
X149805779Y-93471144D01*
G37*
D17*
X149495000Y-93945000D03*
G04 #@! TD*
D16*
G04 #@! TO.C,R10*
G36*
X143305779Y-93471144D02*
X143328834Y-93474563D01*
X143351443Y-93480227D01*
X143373387Y-93488079D01*
X143394457Y-93498044D01*
X143414448Y-93510026D01*
X143433168Y-93523910D01*
X143450438Y-93539562D01*
X143466090Y-93556832D01*
X143479974Y-93575552D01*
X143491956Y-93595543D01*
X143501921Y-93616613D01*
X143509773Y-93638557D01*
X143515437Y-93661166D01*
X143518856Y-93684221D01*
X143520000Y-93707500D01*
X143520000Y-94182500D01*
X143518856Y-94205779D01*
X143515437Y-94228834D01*
X143509773Y-94251443D01*
X143501921Y-94273387D01*
X143491956Y-94294457D01*
X143479974Y-94314448D01*
X143466090Y-94333168D01*
X143450438Y-94350438D01*
X143433168Y-94366090D01*
X143414448Y-94379974D01*
X143394457Y-94391956D01*
X143373387Y-94401921D01*
X143351443Y-94409773D01*
X143328834Y-94415437D01*
X143305779Y-94418856D01*
X143282500Y-94420000D01*
X142707500Y-94420000D01*
X142684221Y-94418856D01*
X142661166Y-94415437D01*
X142638557Y-94409773D01*
X142616613Y-94401921D01*
X142595543Y-94391956D01*
X142575552Y-94379974D01*
X142556832Y-94366090D01*
X142539562Y-94350438D01*
X142523910Y-94333168D01*
X142510026Y-94314448D01*
X142498044Y-94294457D01*
X142488079Y-94273387D01*
X142480227Y-94251443D01*
X142474563Y-94228834D01*
X142471144Y-94205779D01*
X142470000Y-94182500D01*
X142470000Y-93707500D01*
X142471144Y-93684221D01*
X142474563Y-93661166D01*
X142480227Y-93638557D01*
X142488079Y-93616613D01*
X142498044Y-93595543D01*
X142510026Y-93575552D01*
X142523910Y-93556832D01*
X142539562Y-93539562D01*
X142556832Y-93523910D01*
X142575552Y-93510026D01*
X142595543Y-93498044D01*
X142616613Y-93488079D01*
X142638557Y-93480227D01*
X142661166Y-93474563D01*
X142684221Y-93471144D01*
X142707500Y-93470000D01*
X143282500Y-93470000D01*
X143305779Y-93471144D01*
X143305779Y-93471144D01*
G37*
D17*
X142995000Y-93945000D03*
D16*
G36*
X145055779Y-93471144D02*
X145078834Y-93474563D01*
X145101443Y-93480227D01*
X145123387Y-93488079D01*
X145144457Y-93498044D01*
X145164448Y-93510026D01*
X145183168Y-93523910D01*
X145200438Y-93539562D01*
X145216090Y-93556832D01*
X145229974Y-93575552D01*
X145241956Y-93595543D01*
X145251921Y-93616613D01*
X145259773Y-93638557D01*
X145265437Y-93661166D01*
X145268856Y-93684221D01*
X145270000Y-93707500D01*
X145270000Y-94182500D01*
X145268856Y-94205779D01*
X145265437Y-94228834D01*
X145259773Y-94251443D01*
X145251921Y-94273387D01*
X145241956Y-94294457D01*
X145229974Y-94314448D01*
X145216090Y-94333168D01*
X145200438Y-94350438D01*
X145183168Y-94366090D01*
X145164448Y-94379974D01*
X145144457Y-94391956D01*
X145123387Y-94401921D01*
X145101443Y-94409773D01*
X145078834Y-94415437D01*
X145055779Y-94418856D01*
X145032500Y-94420000D01*
X144457500Y-94420000D01*
X144434221Y-94418856D01*
X144411166Y-94415437D01*
X144388557Y-94409773D01*
X144366613Y-94401921D01*
X144345543Y-94391956D01*
X144325552Y-94379974D01*
X144306832Y-94366090D01*
X144289562Y-94350438D01*
X144273910Y-94333168D01*
X144260026Y-94314448D01*
X144248044Y-94294457D01*
X144238079Y-94273387D01*
X144230227Y-94251443D01*
X144224563Y-94228834D01*
X144221144Y-94205779D01*
X144220000Y-94182500D01*
X144220000Y-93707500D01*
X144221144Y-93684221D01*
X144224563Y-93661166D01*
X144230227Y-93638557D01*
X144238079Y-93616613D01*
X144248044Y-93595543D01*
X144260026Y-93575552D01*
X144273910Y-93556832D01*
X144289562Y-93539562D01*
X144306832Y-93523910D01*
X144325552Y-93510026D01*
X144345543Y-93498044D01*
X144366613Y-93488079D01*
X144388557Y-93480227D01*
X144411166Y-93474563D01*
X144434221Y-93471144D01*
X144457500Y-93470000D01*
X145032500Y-93470000D01*
X145055779Y-93471144D01*
X145055779Y-93471144D01*
G37*
D17*
X144745000Y-93945000D03*
G04 #@! TD*
D16*
G04 #@! TO.C,R11*
G36*
X130805779Y-101471144D02*
X130828834Y-101474563D01*
X130851443Y-101480227D01*
X130873387Y-101488079D01*
X130894457Y-101498044D01*
X130914448Y-101510026D01*
X130933168Y-101523910D01*
X130950438Y-101539562D01*
X130966090Y-101556832D01*
X130979974Y-101575552D01*
X130991956Y-101595543D01*
X131001921Y-101616613D01*
X131009773Y-101638557D01*
X131015437Y-101661166D01*
X131018856Y-101684221D01*
X131020000Y-101707500D01*
X131020000Y-102182500D01*
X131018856Y-102205779D01*
X131015437Y-102228834D01*
X131009773Y-102251443D01*
X131001921Y-102273387D01*
X130991956Y-102294457D01*
X130979974Y-102314448D01*
X130966090Y-102333168D01*
X130950438Y-102350438D01*
X130933168Y-102366090D01*
X130914448Y-102379974D01*
X130894457Y-102391956D01*
X130873387Y-102401921D01*
X130851443Y-102409773D01*
X130828834Y-102415437D01*
X130805779Y-102418856D01*
X130782500Y-102420000D01*
X130207500Y-102420000D01*
X130184221Y-102418856D01*
X130161166Y-102415437D01*
X130138557Y-102409773D01*
X130116613Y-102401921D01*
X130095543Y-102391956D01*
X130075552Y-102379974D01*
X130056832Y-102366090D01*
X130039562Y-102350438D01*
X130023910Y-102333168D01*
X130010026Y-102314448D01*
X129998044Y-102294457D01*
X129988079Y-102273387D01*
X129980227Y-102251443D01*
X129974563Y-102228834D01*
X129971144Y-102205779D01*
X129970000Y-102182500D01*
X129970000Y-101707500D01*
X129971144Y-101684221D01*
X129974563Y-101661166D01*
X129980227Y-101638557D01*
X129988079Y-101616613D01*
X129998044Y-101595543D01*
X130010026Y-101575552D01*
X130023910Y-101556832D01*
X130039562Y-101539562D01*
X130056832Y-101523910D01*
X130075552Y-101510026D01*
X130095543Y-101498044D01*
X130116613Y-101488079D01*
X130138557Y-101480227D01*
X130161166Y-101474563D01*
X130184221Y-101471144D01*
X130207500Y-101470000D01*
X130782500Y-101470000D01*
X130805779Y-101471144D01*
X130805779Y-101471144D01*
G37*
D17*
X130495000Y-101945000D03*
D16*
G36*
X129055779Y-101471144D02*
X129078834Y-101474563D01*
X129101443Y-101480227D01*
X129123387Y-101488079D01*
X129144457Y-101498044D01*
X129164448Y-101510026D01*
X129183168Y-101523910D01*
X129200438Y-101539562D01*
X129216090Y-101556832D01*
X129229974Y-101575552D01*
X129241956Y-101595543D01*
X129251921Y-101616613D01*
X129259773Y-101638557D01*
X129265437Y-101661166D01*
X129268856Y-101684221D01*
X129270000Y-101707500D01*
X129270000Y-102182500D01*
X129268856Y-102205779D01*
X129265437Y-102228834D01*
X129259773Y-102251443D01*
X129251921Y-102273387D01*
X129241956Y-102294457D01*
X129229974Y-102314448D01*
X129216090Y-102333168D01*
X129200438Y-102350438D01*
X129183168Y-102366090D01*
X129164448Y-102379974D01*
X129144457Y-102391956D01*
X129123387Y-102401921D01*
X129101443Y-102409773D01*
X129078834Y-102415437D01*
X129055779Y-102418856D01*
X129032500Y-102420000D01*
X128457500Y-102420000D01*
X128434221Y-102418856D01*
X128411166Y-102415437D01*
X128388557Y-102409773D01*
X128366613Y-102401921D01*
X128345543Y-102391956D01*
X128325552Y-102379974D01*
X128306832Y-102366090D01*
X128289562Y-102350438D01*
X128273910Y-102333168D01*
X128260026Y-102314448D01*
X128248044Y-102294457D01*
X128238079Y-102273387D01*
X128230227Y-102251443D01*
X128224563Y-102228834D01*
X128221144Y-102205779D01*
X128220000Y-102182500D01*
X128220000Y-101707500D01*
X128221144Y-101684221D01*
X128224563Y-101661166D01*
X128230227Y-101638557D01*
X128238079Y-101616613D01*
X128248044Y-101595543D01*
X128260026Y-101575552D01*
X128273910Y-101556832D01*
X128289562Y-101539562D01*
X128306832Y-101523910D01*
X128325552Y-101510026D01*
X128345543Y-101498044D01*
X128366613Y-101488079D01*
X128388557Y-101480227D01*
X128411166Y-101474563D01*
X128434221Y-101471144D01*
X128457500Y-101470000D01*
X129032500Y-101470000D01*
X129055779Y-101471144D01*
X129055779Y-101471144D01*
G37*
D17*
X128745000Y-101945000D03*
G04 #@! TD*
D16*
G04 #@! TO.C,R12*
G36*
X134805779Y-101471144D02*
X134828834Y-101474563D01*
X134851443Y-101480227D01*
X134873387Y-101488079D01*
X134894457Y-101498044D01*
X134914448Y-101510026D01*
X134933168Y-101523910D01*
X134950438Y-101539562D01*
X134966090Y-101556832D01*
X134979974Y-101575552D01*
X134991956Y-101595543D01*
X135001921Y-101616613D01*
X135009773Y-101638557D01*
X135015437Y-101661166D01*
X135018856Y-101684221D01*
X135020000Y-101707500D01*
X135020000Y-102182500D01*
X135018856Y-102205779D01*
X135015437Y-102228834D01*
X135009773Y-102251443D01*
X135001921Y-102273387D01*
X134991956Y-102294457D01*
X134979974Y-102314448D01*
X134966090Y-102333168D01*
X134950438Y-102350438D01*
X134933168Y-102366090D01*
X134914448Y-102379974D01*
X134894457Y-102391956D01*
X134873387Y-102401921D01*
X134851443Y-102409773D01*
X134828834Y-102415437D01*
X134805779Y-102418856D01*
X134782500Y-102420000D01*
X134207500Y-102420000D01*
X134184221Y-102418856D01*
X134161166Y-102415437D01*
X134138557Y-102409773D01*
X134116613Y-102401921D01*
X134095543Y-102391956D01*
X134075552Y-102379974D01*
X134056832Y-102366090D01*
X134039562Y-102350438D01*
X134023910Y-102333168D01*
X134010026Y-102314448D01*
X133998044Y-102294457D01*
X133988079Y-102273387D01*
X133980227Y-102251443D01*
X133974563Y-102228834D01*
X133971144Y-102205779D01*
X133970000Y-102182500D01*
X133970000Y-101707500D01*
X133971144Y-101684221D01*
X133974563Y-101661166D01*
X133980227Y-101638557D01*
X133988079Y-101616613D01*
X133998044Y-101595543D01*
X134010026Y-101575552D01*
X134023910Y-101556832D01*
X134039562Y-101539562D01*
X134056832Y-101523910D01*
X134075552Y-101510026D01*
X134095543Y-101498044D01*
X134116613Y-101488079D01*
X134138557Y-101480227D01*
X134161166Y-101474563D01*
X134184221Y-101471144D01*
X134207500Y-101470000D01*
X134782500Y-101470000D01*
X134805779Y-101471144D01*
X134805779Y-101471144D01*
G37*
D17*
X134495000Y-101945000D03*
D16*
G36*
X133055779Y-101471144D02*
X133078834Y-101474563D01*
X133101443Y-101480227D01*
X133123387Y-101488079D01*
X133144457Y-101498044D01*
X133164448Y-101510026D01*
X133183168Y-101523910D01*
X133200438Y-101539562D01*
X133216090Y-101556832D01*
X133229974Y-101575552D01*
X133241956Y-101595543D01*
X133251921Y-101616613D01*
X133259773Y-101638557D01*
X133265437Y-101661166D01*
X133268856Y-101684221D01*
X133270000Y-101707500D01*
X133270000Y-102182500D01*
X133268856Y-102205779D01*
X133265437Y-102228834D01*
X133259773Y-102251443D01*
X133251921Y-102273387D01*
X133241956Y-102294457D01*
X133229974Y-102314448D01*
X133216090Y-102333168D01*
X133200438Y-102350438D01*
X133183168Y-102366090D01*
X133164448Y-102379974D01*
X133144457Y-102391956D01*
X133123387Y-102401921D01*
X133101443Y-102409773D01*
X133078834Y-102415437D01*
X133055779Y-102418856D01*
X133032500Y-102420000D01*
X132457500Y-102420000D01*
X132434221Y-102418856D01*
X132411166Y-102415437D01*
X132388557Y-102409773D01*
X132366613Y-102401921D01*
X132345543Y-102391956D01*
X132325552Y-102379974D01*
X132306832Y-102366090D01*
X132289562Y-102350438D01*
X132273910Y-102333168D01*
X132260026Y-102314448D01*
X132248044Y-102294457D01*
X132238079Y-102273387D01*
X132230227Y-102251443D01*
X132224563Y-102228834D01*
X132221144Y-102205779D01*
X132220000Y-102182500D01*
X132220000Y-101707500D01*
X132221144Y-101684221D01*
X132224563Y-101661166D01*
X132230227Y-101638557D01*
X132238079Y-101616613D01*
X132248044Y-101595543D01*
X132260026Y-101575552D01*
X132273910Y-101556832D01*
X132289562Y-101539562D01*
X132306832Y-101523910D01*
X132325552Y-101510026D01*
X132345543Y-101498044D01*
X132366613Y-101488079D01*
X132388557Y-101480227D01*
X132411166Y-101474563D01*
X132434221Y-101471144D01*
X132457500Y-101470000D01*
X133032500Y-101470000D01*
X133055779Y-101471144D01*
X133055779Y-101471144D01*
G37*
D17*
X132745000Y-101945000D03*
G04 #@! TD*
D16*
G04 #@! TO.C,R13*
G36*
X118255779Y-98471144D02*
X118278834Y-98474563D01*
X118301443Y-98480227D01*
X118323387Y-98488079D01*
X118344457Y-98498044D01*
X118364448Y-98510026D01*
X118383168Y-98523910D01*
X118400438Y-98539562D01*
X118416090Y-98556832D01*
X118429974Y-98575552D01*
X118441956Y-98595543D01*
X118451921Y-98616613D01*
X118459773Y-98638557D01*
X118465437Y-98661166D01*
X118468856Y-98684221D01*
X118470000Y-98707500D01*
X118470000Y-99182500D01*
X118468856Y-99205779D01*
X118465437Y-99228834D01*
X118459773Y-99251443D01*
X118451921Y-99273387D01*
X118441956Y-99294457D01*
X118429974Y-99314448D01*
X118416090Y-99333168D01*
X118400438Y-99350438D01*
X118383168Y-99366090D01*
X118364448Y-99379974D01*
X118344457Y-99391956D01*
X118323387Y-99401921D01*
X118301443Y-99409773D01*
X118278834Y-99415437D01*
X118255779Y-99418856D01*
X118232500Y-99420000D01*
X117657500Y-99420000D01*
X117634221Y-99418856D01*
X117611166Y-99415437D01*
X117588557Y-99409773D01*
X117566613Y-99401921D01*
X117545543Y-99391956D01*
X117525552Y-99379974D01*
X117506832Y-99366090D01*
X117489562Y-99350438D01*
X117473910Y-99333168D01*
X117460026Y-99314448D01*
X117448044Y-99294457D01*
X117438079Y-99273387D01*
X117430227Y-99251443D01*
X117424563Y-99228834D01*
X117421144Y-99205779D01*
X117420000Y-99182500D01*
X117420000Y-98707500D01*
X117421144Y-98684221D01*
X117424563Y-98661166D01*
X117430227Y-98638557D01*
X117438079Y-98616613D01*
X117448044Y-98595543D01*
X117460026Y-98575552D01*
X117473910Y-98556832D01*
X117489562Y-98539562D01*
X117506832Y-98523910D01*
X117525552Y-98510026D01*
X117545543Y-98498044D01*
X117566613Y-98488079D01*
X117588557Y-98480227D01*
X117611166Y-98474563D01*
X117634221Y-98471144D01*
X117657500Y-98470000D01*
X118232500Y-98470000D01*
X118255779Y-98471144D01*
X118255779Y-98471144D01*
G37*
D17*
X117945000Y-98945000D03*
D16*
G36*
X120005779Y-98471144D02*
X120028834Y-98474563D01*
X120051443Y-98480227D01*
X120073387Y-98488079D01*
X120094457Y-98498044D01*
X120114448Y-98510026D01*
X120133168Y-98523910D01*
X120150438Y-98539562D01*
X120166090Y-98556832D01*
X120179974Y-98575552D01*
X120191956Y-98595543D01*
X120201921Y-98616613D01*
X120209773Y-98638557D01*
X120215437Y-98661166D01*
X120218856Y-98684221D01*
X120220000Y-98707500D01*
X120220000Y-99182500D01*
X120218856Y-99205779D01*
X120215437Y-99228834D01*
X120209773Y-99251443D01*
X120201921Y-99273387D01*
X120191956Y-99294457D01*
X120179974Y-99314448D01*
X120166090Y-99333168D01*
X120150438Y-99350438D01*
X120133168Y-99366090D01*
X120114448Y-99379974D01*
X120094457Y-99391956D01*
X120073387Y-99401921D01*
X120051443Y-99409773D01*
X120028834Y-99415437D01*
X120005779Y-99418856D01*
X119982500Y-99420000D01*
X119407500Y-99420000D01*
X119384221Y-99418856D01*
X119361166Y-99415437D01*
X119338557Y-99409773D01*
X119316613Y-99401921D01*
X119295543Y-99391956D01*
X119275552Y-99379974D01*
X119256832Y-99366090D01*
X119239562Y-99350438D01*
X119223910Y-99333168D01*
X119210026Y-99314448D01*
X119198044Y-99294457D01*
X119188079Y-99273387D01*
X119180227Y-99251443D01*
X119174563Y-99228834D01*
X119171144Y-99205779D01*
X119170000Y-99182500D01*
X119170000Y-98707500D01*
X119171144Y-98684221D01*
X119174563Y-98661166D01*
X119180227Y-98638557D01*
X119188079Y-98616613D01*
X119198044Y-98595543D01*
X119210026Y-98575552D01*
X119223910Y-98556832D01*
X119239562Y-98539562D01*
X119256832Y-98523910D01*
X119275552Y-98510026D01*
X119295543Y-98498044D01*
X119316613Y-98488079D01*
X119338557Y-98480227D01*
X119361166Y-98474563D01*
X119384221Y-98471144D01*
X119407500Y-98470000D01*
X119982500Y-98470000D01*
X120005779Y-98471144D01*
X120005779Y-98471144D01*
G37*
D17*
X119695000Y-98945000D03*
G04 #@! TD*
D16*
G04 #@! TO.C,R14*
G36*
X118255779Y-96771144D02*
X118278834Y-96774563D01*
X118301443Y-96780227D01*
X118323387Y-96788079D01*
X118344457Y-96798044D01*
X118364448Y-96810026D01*
X118383168Y-96823910D01*
X118400438Y-96839562D01*
X118416090Y-96856832D01*
X118429974Y-96875552D01*
X118441956Y-96895543D01*
X118451921Y-96916613D01*
X118459773Y-96938557D01*
X118465437Y-96961166D01*
X118468856Y-96984221D01*
X118470000Y-97007500D01*
X118470000Y-97482500D01*
X118468856Y-97505779D01*
X118465437Y-97528834D01*
X118459773Y-97551443D01*
X118451921Y-97573387D01*
X118441956Y-97594457D01*
X118429974Y-97614448D01*
X118416090Y-97633168D01*
X118400438Y-97650438D01*
X118383168Y-97666090D01*
X118364448Y-97679974D01*
X118344457Y-97691956D01*
X118323387Y-97701921D01*
X118301443Y-97709773D01*
X118278834Y-97715437D01*
X118255779Y-97718856D01*
X118232500Y-97720000D01*
X117657500Y-97720000D01*
X117634221Y-97718856D01*
X117611166Y-97715437D01*
X117588557Y-97709773D01*
X117566613Y-97701921D01*
X117545543Y-97691956D01*
X117525552Y-97679974D01*
X117506832Y-97666090D01*
X117489562Y-97650438D01*
X117473910Y-97633168D01*
X117460026Y-97614448D01*
X117448044Y-97594457D01*
X117438079Y-97573387D01*
X117430227Y-97551443D01*
X117424563Y-97528834D01*
X117421144Y-97505779D01*
X117420000Y-97482500D01*
X117420000Y-97007500D01*
X117421144Y-96984221D01*
X117424563Y-96961166D01*
X117430227Y-96938557D01*
X117438079Y-96916613D01*
X117448044Y-96895543D01*
X117460026Y-96875552D01*
X117473910Y-96856832D01*
X117489562Y-96839562D01*
X117506832Y-96823910D01*
X117525552Y-96810026D01*
X117545543Y-96798044D01*
X117566613Y-96788079D01*
X117588557Y-96780227D01*
X117611166Y-96774563D01*
X117634221Y-96771144D01*
X117657500Y-96770000D01*
X118232500Y-96770000D01*
X118255779Y-96771144D01*
X118255779Y-96771144D01*
G37*
D17*
X117945000Y-97245000D03*
D16*
G36*
X120005779Y-96771144D02*
X120028834Y-96774563D01*
X120051443Y-96780227D01*
X120073387Y-96788079D01*
X120094457Y-96798044D01*
X120114448Y-96810026D01*
X120133168Y-96823910D01*
X120150438Y-96839562D01*
X120166090Y-96856832D01*
X120179974Y-96875552D01*
X120191956Y-96895543D01*
X120201921Y-96916613D01*
X120209773Y-96938557D01*
X120215437Y-96961166D01*
X120218856Y-96984221D01*
X120220000Y-97007500D01*
X120220000Y-97482500D01*
X120218856Y-97505779D01*
X120215437Y-97528834D01*
X120209773Y-97551443D01*
X120201921Y-97573387D01*
X120191956Y-97594457D01*
X120179974Y-97614448D01*
X120166090Y-97633168D01*
X120150438Y-97650438D01*
X120133168Y-97666090D01*
X120114448Y-97679974D01*
X120094457Y-97691956D01*
X120073387Y-97701921D01*
X120051443Y-97709773D01*
X120028834Y-97715437D01*
X120005779Y-97718856D01*
X119982500Y-97720000D01*
X119407500Y-97720000D01*
X119384221Y-97718856D01*
X119361166Y-97715437D01*
X119338557Y-97709773D01*
X119316613Y-97701921D01*
X119295543Y-97691956D01*
X119275552Y-97679974D01*
X119256832Y-97666090D01*
X119239562Y-97650438D01*
X119223910Y-97633168D01*
X119210026Y-97614448D01*
X119198044Y-97594457D01*
X119188079Y-97573387D01*
X119180227Y-97551443D01*
X119174563Y-97528834D01*
X119171144Y-97505779D01*
X119170000Y-97482500D01*
X119170000Y-97007500D01*
X119171144Y-96984221D01*
X119174563Y-96961166D01*
X119180227Y-96938557D01*
X119188079Y-96916613D01*
X119198044Y-96895543D01*
X119210026Y-96875552D01*
X119223910Y-96856832D01*
X119239562Y-96839562D01*
X119256832Y-96823910D01*
X119275552Y-96810026D01*
X119295543Y-96798044D01*
X119316613Y-96788079D01*
X119338557Y-96780227D01*
X119361166Y-96774563D01*
X119384221Y-96771144D01*
X119407500Y-96770000D01*
X119982500Y-96770000D01*
X120005779Y-96771144D01*
X120005779Y-96771144D01*
G37*
D17*
X119695000Y-97245000D03*
G04 #@! TD*
D24*
G04 #@! TO.C,U4*
X146815000Y-104782500D03*
X144275000Y-104782500D03*
D25*
X145545000Y-98482500D03*
D24*
X145545000Y-104782500D03*
X148085000Y-104782500D03*
X143005000Y-104782500D03*
G04 #@! TD*
D26*
G04 #@! TO.C,U5*
X125570000Y-97595000D03*
X124620000Y-97595000D03*
X123670000Y-97595000D03*
X123670000Y-100295000D03*
X125570000Y-100295000D03*
G04 #@! TD*
D27*
G04 #@! TO.C,U3*
X145920000Y-71500000D03*
X145920000Y-72770000D03*
X145920000Y-74040000D03*
X145920000Y-75310000D03*
X145920000Y-76580000D03*
X145920000Y-77850000D03*
X145920000Y-79120000D03*
X145920000Y-80390000D03*
X151320000Y-80390000D03*
X151320000Y-79120000D03*
X151320000Y-77850000D03*
X151320000Y-76580000D03*
X151320000Y-75310000D03*
X151320000Y-74040000D03*
X151320000Y-72770000D03*
X151320000Y-71500000D03*
G04 #@! TD*
D16*
G04 #@! TO.C,D1*
G36*
X130444505Y-98496204D02*
X130468773Y-98499804D01*
X130492572Y-98505765D01*
X130515671Y-98514030D01*
X130537850Y-98524520D01*
X130558893Y-98537132D01*
X130578599Y-98551747D01*
X130596777Y-98568223D01*
X130613253Y-98586401D01*
X130627868Y-98606107D01*
X130640480Y-98627150D01*
X130650970Y-98649329D01*
X130659235Y-98672428D01*
X130665196Y-98696227D01*
X130668796Y-98720495D01*
X130670000Y-98744999D01*
X130670000Y-99645001D01*
X130668796Y-99669505D01*
X130665196Y-99693773D01*
X130659235Y-99717572D01*
X130650970Y-99740671D01*
X130640480Y-99762850D01*
X130627868Y-99783893D01*
X130613253Y-99803599D01*
X130596777Y-99821777D01*
X130578599Y-99838253D01*
X130558893Y-99852868D01*
X130537850Y-99865480D01*
X130515671Y-99875970D01*
X130492572Y-99884235D01*
X130468773Y-99890196D01*
X130444505Y-99893796D01*
X130420001Y-99895000D01*
X129769999Y-99895000D01*
X129745495Y-99893796D01*
X129721227Y-99890196D01*
X129697428Y-99884235D01*
X129674329Y-99875970D01*
X129652150Y-99865480D01*
X129631107Y-99852868D01*
X129611401Y-99838253D01*
X129593223Y-99821777D01*
X129576747Y-99803599D01*
X129562132Y-99783893D01*
X129549520Y-99762850D01*
X129539030Y-99740671D01*
X129530765Y-99717572D01*
X129524804Y-99693773D01*
X129521204Y-99669505D01*
X129520000Y-99645001D01*
X129520000Y-98744999D01*
X129521204Y-98720495D01*
X129524804Y-98696227D01*
X129530765Y-98672428D01*
X129539030Y-98649329D01*
X129549520Y-98627150D01*
X129562132Y-98606107D01*
X129576747Y-98586401D01*
X129593223Y-98568223D01*
X129611401Y-98551747D01*
X129631107Y-98537132D01*
X129652150Y-98524520D01*
X129674329Y-98514030D01*
X129697428Y-98505765D01*
X129721227Y-98499804D01*
X129745495Y-98496204D01*
X129769999Y-98495000D01*
X130420001Y-98495000D01*
X130444505Y-98496204D01*
X130444505Y-98496204D01*
G37*
D28*
X130095000Y-99195000D03*
D16*
G36*
X132494505Y-98496204D02*
X132518773Y-98499804D01*
X132542572Y-98505765D01*
X132565671Y-98514030D01*
X132587850Y-98524520D01*
X132608893Y-98537132D01*
X132628599Y-98551747D01*
X132646777Y-98568223D01*
X132663253Y-98586401D01*
X132677868Y-98606107D01*
X132690480Y-98627150D01*
X132700970Y-98649329D01*
X132709235Y-98672428D01*
X132715196Y-98696227D01*
X132718796Y-98720495D01*
X132720000Y-98744999D01*
X132720000Y-99645001D01*
X132718796Y-99669505D01*
X132715196Y-99693773D01*
X132709235Y-99717572D01*
X132700970Y-99740671D01*
X132690480Y-99762850D01*
X132677868Y-99783893D01*
X132663253Y-99803599D01*
X132646777Y-99821777D01*
X132628599Y-99838253D01*
X132608893Y-99852868D01*
X132587850Y-99865480D01*
X132565671Y-99875970D01*
X132542572Y-99884235D01*
X132518773Y-99890196D01*
X132494505Y-99893796D01*
X132470001Y-99895000D01*
X131819999Y-99895000D01*
X131795495Y-99893796D01*
X131771227Y-99890196D01*
X131747428Y-99884235D01*
X131724329Y-99875970D01*
X131702150Y-99865480D01*
X131681107Y-99852868D01*
X131661401Y-99838253D01*
X131643223Y-99821777D01*
X131626747Y-99803599D01*
X131612132Y-99783893D01*
X131599520Y-99762850D01*
X131589030Y-99740671D01*
X131580765Y-99717572D01*
X131574804Y-99693773D01*
X131571204Y-99669505D01*
X131570000Y-99645001D01*
X131570000Y-98744999D01*
X131571204Y-98720495D01*
X131574804Y-98696227D01*
X131580765Y-98672428D01*
X131589030Y-98649329D01*
X131599520Y-98627150D01*
X131612132Y-98606107D01*
X131626747Y-98586401D01*
X131643223Y-98568223D01*
X131661401Y-98551747D01*
X131681107Y-98537132D01*
X131702150Y-98524520D01*
X131724329Y-98514030D01*
X131747428Y-98505765D01*
X131771227Y-98499804D01*
X131795495Y-98496204D01*
X131819999Y-98495000D01*
X132470001Y-98495000D01*
X132494505Y-98496204D01*
X132494505Y-98496204D01*
G37*
D28*
X132145000Y-99195000D03*
G04 #@! TD*
D16*
G04 #@! TO.C,R15*
G36*
X134880779Y-98796144D02*
X134903834Y-98799563D01*
X134926443Y-98805227D01*
X134948387Y-98813079D01*
X134969457Y-98823044D01*
X134989448Y-98835026D01*
X135008168Y-98848910D01*
X135025438Y-98864562D01*
X135041090Y-98881832D01*
X135054974Y-98900552D01*
X135066956Y-98920543D01*
X135076921Y-98941613D01*
X135084773Y-98963557D01*
X135090437Y-98986166D01*
X135093856Y-99009221D01*
X135095000Y-99032500D01*
X135095000Y-99607500D01*
X135093856Y-99630779D01*
X135090437Y-99653834D01*
X135084773Y-99676443D01*
X135076921Y-99698387D01*
X135066956Y-99719457D01*
X135054974Y-99739448D01*
X135041090Y-99758168D01*
X135025438Y-99775438D01*
X135008168Y-99791090D01*
X134989448Y-99804974D01*
X134969457Y-99816956D01*
X134948387Y-99826921D01*
X134926443Y-99834773D01*
X134903834Y-99840437D01*
X134880779Y-99843856D01*
X134857500Y-99845000D01*
X134382500Y-99845000D01*
X134359221Y-99843856D01*
X134336166Y-99840437D01*
X134313557Y-99834773D01*
X134291613Y-99826921D01*
X134270543Y-99816956D01*
X134250552Y-99804974D01*
X134231832Y-99791090D01*
X134214562Y-99775438D01*
X134198910Y-99758168D01*
X134185026Y-99739448D01*
X134173044Y-99719457D01*
X134163079Y-99698387D01*
X134155227Y-99676443D01*
X134149563Y-99653834D01*
X134146144Y-99630779D01*
X134145000Y-99607500D01*
X134145000Y-99032500D01*
X134146144Y-99009221D01*
X134149563Y-98986166D01*
X134155227Y-98963557D01*
X134163079Y-98941613D01*
X134173044Y-98920543D01*
X134185026Y-98900552D01*
X134198910Y-98881832D01*
X134214562Y-98864562D01*
X134231832Y-98848910D01*
X134250552Y-98835026D01*
X134270543Y-98823044D01*
X134291613Y-98813079D01*
X134313557Y-98805227D01*
X134336166Y-98799563D01*
X134359221Y-98796144D01*
X134382500Y-98795000D01*
X134857500Y-98795000D01*
X134880779Y-98796144D01*
X134880779Y-98796144D01*
G37*
D17*
X134620000Y-99320000D03*
D16*
G36*
X134880779Y-97046144D02*
X134903834Y-97049563D01*
X134926443Y-97055227D01*
X134948387Y-97063079D01*
X134969457Y-97073044D01*
X134989448Y-97085026D01*
X135008168Y-97098910D01*
X135025438Y-97114562D01*
X135041090Y-97131832D01*
X135054974Y-97150552D01*
X135066956Y-97170543D01*
X135076921Y-97191613D01*
X135084773Y-97213557D01*
X135090437Y-97236166D01*
X135093856Y-97259221D01*
X135095000Y-97282500D01*
X135095000Y-97857500D01*
X135093856Y-97880779D01*
X135090437Y-97903834D01*
X135084773Y-97926443D01*
X135076921Y-97948387D01*
X135066956Y-97969457D01*
X135054974Y-97989448D01*
X135041090Y-98008168D01*
X135025438Y-98025438D01*
X135008168Y-98041090D01*
X134989448Y-98054974D01*
X134969457Y-98066956D01*
X134948387Y-98076921D01*
X134926443Y-98084773D01*
X134903834Y-98090437D01*
X134880779Y-98093856D01*
X134857500Y-98095000D01*
X134382500Y-98095000D01*
X134359221Y-98093856D01*
X134336166Y-98090437D01*
X134313557Y-98084773D01*
X134291613Y-98076921D01*
X134270543Y-98066956D01*
X134250552Y-98054974D01*
X134231832Y-98041090D01*
X134214562Y-98025438D01*
X134198910Y-98008168D01*
X134185026Y-97989448D01*
X134173044Y-97969457D01*
X134163079Y-97948387D01*
X134155227Y-97926443D01*
X134149563Y-97903834D01*
X134146144Y-97880779D01*
X134145000Y-97857500D01*
X134145000Y-97282500D01*
X134146144Y-97259221D01*
X134149563Y-97236166D01*
X134155227Y-97213557D01*
X134163079Y-97191613D01*
X134173044Y-97170543D01*
X134185026Y-97150552D01*
X134198910Y-97131832D01*
X134214562Y-97114562D01*
X134231832Y-97098910D01*
X134250552Y-97085026D01*
X134270543Y-97073044D01*
X134291613Y-97063079D01*
X134313557Y-97055227D01*
X134336166Y-97049563D01*
X134359221Y-97046144D01*
X134382500Y-97045000D01*
X134857500Y-97045000D01*
X134880779Y-97046144D01*
X134880779Y-97046144D01*
G37*
D17*
X134620000Y-97570000D03*
G04 #@! TD*
D29*
G04 #@! TO.C,JP1*
X121620000Y-98295000D03*
D16*
G36*
X120870000Y-98795000D02*
X120870000Y-98295000D01*
X120870602Y-98295000D01*
X120870602Y-98270466D01*
X120875412Y-98221635D01*
X120884984Y-98173510D01*
X120899228Y-98126555D01*
X120918005Y-98081222D01*
X120941136Y-98037949D01*
X120968396Y-97997150D01*
X120999524Y-97959221D01*
X121034221Y-97924524D01*
X121072150Y-97893396D01*
X121112949Y-97866136D01*
X121156222Y-97843005D01*
X121201555Y-97824228D01*
X121248510Y-97809984D01*
X121296635Y-97800412D01*
X121345466Y-97795602D01*
X121370000Y-97795602D01*
X121370000Y-97795000D01*
X121870000Y-97795000D01*
X121870000Y-97795602D01*
X121894534Y-97795602D01*
X121943365Y-97800412D01*
X121991490Y-97809984D01*
X122038445Y-97824228D01*
X122083778Y-97843005D01*
X122127051Y-97866136D01*
X122167850Y-97893396D01*
X122205779Y-97924524D01*
X122240476Y-97959221D01*
X122271604Y-97997150D01*
X122298864Y-98037949D01*
X122321995Y-98081222D01*
X122340772Y-98126555D01*
X122355016Y-98173510D01*
X122364588Y-98221635D01*
X122369398Y-98270466D01*
X122369398Y-98295000D01*
X122370000Y-98295000D01*
X122370000Y-98795000D01*
X120870000Y-98795000D01*
X120870000Y-98795000D01*
G37*
D29*
X121620000Y-99595000D03*
D16*
G36*
X122369398Y-99595000D02*
X122369398Y-99619534D01*
X122364588Y-99668365D01*
X122355016Y-99716490D01*
X122340772Y-99763445D01*
X122321995Y-99808778D01*
X122298864Y-99852051D01*
X122271604Y-99892850D01*
X122240476Y-99930779D01*
X122205779Y-99965476D01*
X122167850Y-99996604D01*
X122127051Y-100023864D01*
X122083778Y-100046995D01*
X122038445Y-100065772D01*
X121991490Y-100080016D01*
X121943365Y-100089588D01*
X121894534Y-100094398D01*
X121870000Y-100094398D01*
X121870000Y-100095000D01*
X121370000Y-100095000D01*
X121370000Y-100094398D01*
X121345466Y-100094398D01*
X121296635Y-100089588D01*
X121248510Y-100080016D01*
X121201555Y-100065772D01*
X121156222Y-100046995D01*
X121112949Y-100023864D01*
X121072150Y-99996604D01*
X121034221Y-99965476D01*
X120999524Y-99930779D01*
X120968396Y-99892850D01*
X120941136Y-99852051D01*
X120918005Y-99808778D01*
X120899228Y-99763445D01*
X120884984Y-99716490D01*
X120875412Y-99668365D01*
X120870602Y-99619534D01*
X120870602Y-99595000D01*
X120870000Y-99595000D01*
X120870000Y-99095000D01*
X122370000Y-99095000D01*
X122370000Y-99595000D01*
X122369398Y-99595000D01*
X122369398Y-99595000D01*
G37*
G04 #@! TD*
G04 #@! TO.C,R16*
G36*
X142555779Y-76221144D02*
X142578834Y-76224563D01*
X142601443Y-76230227D01*
X142623387Y-76238079D01*
X142644457Y-76248044D01*
X142664448Y-76260026D01*
X142683168Y-76273910D01*
X142700438Y-76289562D01*
X142716090Y-76306832D01*
X142729974Y-76325552D01*
X142741956Y-76345543D01*
X142751921Y-76366613D01*
X142759773Y-76388557D01*
X142765437Y-76411166D01*
X142768856Y-76434221D01*
X142770000Y-76457500D01*
X142770000Y-76932500D01*
X142768856Y-76955779D01*
X142765437Y-76978834D01*
X142759773Y-77001443D01*
X142751921Y-77023387D01*
X142741956Y-77044457D01*
X142729974Y-77064448D01*
X142716090Y-77083168D01*
X142700438Y-77100438D01*
X142683168Y-77116090D01*
X142664448Y-77129974D01*
X142644457Y-77141956D01*
X142623387Y-77151921D01*
X142601443Y-77159773D01*
X142578834Y-77165437D01*
X142555779Y-77168856D01*
X142532500Y-77170000D01*
X141957500Y-77170000D01*
X141934221Y-77168856D01*
X141911166Y-77165437D01*
X141888557Y-77159773D01*
X141866613Y-77151921D01*
X141845543Y-77141956D01*
X141825552Y-77129974D01*
X141806832Y-77116090D01*
X141789562Y-77100438D01*
X141773910Y-77083168D01*
X141760026Y-77064448D01*
X141748044Y-77044457D01*
X141738079Y-77023387D01*
X141730227Y-77001443D01*
X141724563Y-76978834D01*
X141721144Y-76955779D01*
X141720000Y-76932500D01*
X141720000Y-76457500D01*
X141721144Y-76434221D01*
X141724563Y-76411166D01*
X141730227Y-76388557D01*
X141738079Y-76366613D01*
X141748044Y-76345543D01*
X141760026Y-76325552D01*
X141773910Y-76306832D01*
X141789562Y-76289562D01*
X141806832Y-76273910D01*
X141825552Y-76260026D01*
X141845543Y-76248044D01*
X141866613Y-76238079D01*
X141888557Y-76230227D01*
X141911166Y-76224563D01*
X141934221Y-76221144D01*
X141957500Y-76220000D01*
X142532500Y-76220000D01*
X142555779Y-76221144D01*
X142555779Y-76221144D01*
G37*
D17*
X142245000Y-76695000D03*
D16*
G36*
X140805779Y-76221144D02*
X140828834Y-76224563D01*
X140851443Y-76230227D01*
X140873387Y-76238079D01*
X140894457Y-76248044D01*
X140914448Y-76260026D01*
X140933168Y-76273910D01*
X140950438Y-76289562D01*
X140966090Y-76306832D01*
X140979974Y-76325552D01*
X140991956Y-76345543D01*
X141001921Y-76366613D01*
X141009773Y-76388557D01*
X141015437Y-76411166D01*
X141018856Y-76434221D01*
X141020000Y-76457500D01*
X141020000Y-76932500D01*
X141018856Y-76955779D01*
X141015437Y-76978834D01*
X141009773Y-77001443D01*
X141001921Y-77023387D01*
X140991956Y-77044457D01*
X140979974Y-77064448D01*
X140966090Y-77083168D01*
X140950438Y-77100438D01*
X140933168Y-77116090D01*
X140914448Y-77129974D01*
X140894457Y-77141956D01*
X140873387Y-77151921D01*
X140851443Y-77159773D01*
X140828834Y-77165437D01*
X140805779Y-77168856D01*
X140782500Y-77170000D01*
X140207500Y-77170000D01*
X140184221Y-77168856D01*
X140161166Y-77165437D01*
X140138557Y-77159773D01*
X140116613Y-77151921D01*
X140095543Y-77141956D01*
X140075552Y-77129974D01*
X140056832Y-77116090D01*
X140039562Y-77100438D01*
X140023910Y-77083168D01*
X140010026Y-77064448D01*
X139998044Y-77044457D01*
X139988079Y-77023387D01*
X139980227Y-77001443D01*
X139974563Y-76978834D01*
X139971144Y-76955779D01*
X139970000Y-76932500D01*
X139970000Y-76457500D01*
X139971144Y-76434221D01*
X139974563Y-76411166D01*
X139980227Y-76388557D01*
X139988079Y-76366613D01*
X139998044Y-76345543D01*
X140010026Y-76325552D01*
X140023910Y-76306832D01*
X140039562Y-76289562D01*
X140056832Y-76273910D01*
X140075552Y-76260026D01*
X140095543Y-76248044D01*
X140116613Y-76238079D01*
X140138557Y-76230227D01*
X140161166Y-76224563D01*
X140184221Y-76221144D01*
X140207500Y-76220000D01*
X140782500Y-76220000D01*
X140805779Y-76221144D01*
X140805779Y-76221144D01*
G37*
D17*
X140495000Y-76695000D03*
G04 #@! TD*
D30*
G04 #@! TO.C,TP1*
X134020000Y-109845000D03*
G04 #@! TD*
D16*
G04 #@! TO.C,R17*
G36*
X157515779Y-100531144D02*
X157538834Y-100534563D01*
X157561443Y-100540227D01*
X157583387Y-100548079D01*
X157604457Y-100558044D01*
X157624448Y-100570026D01*
X157643168Y-100583910D01*
X157660438Y-100599562D01*
X157676090Y-100616832D01*
X157689974Y-100635552D01*
X157701956Y-100655543D01*
X157711921Y-100676613D01*
X157719773Y-100698557D01*
X157725437Y-100721166D01*
X157728856Y-100744221D01*
X157730000Y-100767500D01*
X157730000Y-101242500D01*
X157728856Y-101265779D01*
X157725437Y-101288834D01*
X157719773Y-101311443D01*
X157711921Y-101333387D01*
X157701956Y-101354457D01*
X157689974Y-101374448D01*
X157676090Y-101393168D01*
X157660438Y-101410438D01*
X157643168Y-101426090D01*
X157624448Y-101439974D01*
X157604457Y-101451956D01*
X157583387Y-101461921D01*
X157561443Y-101469773D01*
X157538834Y-101475437D01*
X157515779Y-101478856D01*
X157492500Y-101480000D01*
X156917500Y-101480000D01*
X156894221Y-101478856D01*
X156871166Y-101475437D01*
X156848557Y-101469773D01*
X156826613Y-101461921D01*
X156805543Y-101451956D01*
X156785552Y-101439974D01*
X156766832Y-101426090D01*
X156749562Y-101410438D01*
X156733910Y-101393168D01*
X156720026Y-101374448D01*
X156708044Y-101354457D01*
X156698079Y-101333387D01*
X156690227Y-101311443D01*
X156684563Y-101288834D01*
X156681144Y-101265779D01*
X156680000Y-101242500D01*
X156680000Y-100767500D01*
X156681144Y-100744221D01*
X156684563Y-100721166D01*
X156690227Y-100698557D01*
X156698079Y-100676613D01*
X156708044Y-100655543D01*
X156720026Y-100635552D01*
X156733910Y-100616832D01*
X156749562Y-100599562D01*
X156766832Y-100583910D01*
X156785552Y-100570026D01*
X156805543Y-100558044D01*
X156826613Y-100548079D01*
X156848557Y-100540227D01*
X156871166Y-100534563D01*
X156894221Y-100531144D01*
X156917500Y-100530000D01*
X157492500Y-100530000D01*
X157515779Y-100531144D01*
X157515779Y-100531144D01*
G37*
D17*
X157205000Y-101005000D03*
D16*
G36*
X155765779Y-100531144D02*
X155788834Y-100534563D01*
X155811443Y-100540227D01*
X155833387Y-100548079D01*
X155854457Y-100558044D01*
X155874448Y-100570026D01*
X155893168Y-100583910D01*
X155910438Y-100599562D01*
X155926090Y-100616832D01*
X155939974Y-100635552D01*
X155951956Y-100655543D01*
X155961921Y-100676613D01*
X155969773Y-100698557D01*
X155975437Y-100721166D01*
X155978856Y-100744221D01*
X155980000Y-100767500D01*
X155980000Y-101242500D01*
X155978856Y-101265779D01*
X155975437Y-101288834D01*
X155969773Y-101311443D01*
X155961921Y-101333387D01*
X155951956Y-101354457D01*
X155939974Y-101374448D01*
X155926090Y-101393168D01*
X155910438Y-101410438D01*
X155893168Y-101426090D01*
X155874448Y-101439974D01*
X155854457Y-101451956D01*
X155833387Y-101461921D01*
X155811443Y-101469773D01*
X155788834Y-101475437D01*
X155765779Y-101478856D01*
X155742500Y-101480000D01*
X155167500Y-101480000D01*
X155144221Y-101478856D01*
X155121166Y-101475437D01*
X155098557Y-101469773D01*
X155076613Y-101461921D01*
X155055543Y-101451956D01*
X155035552Y-101439974D01*
X155016832Y-101426090D01*
X154999562Y-101410438D01*
X154983910Y-101393168D01*
X154970026Y-101374448D01*
X154958044Y-101354457D01*
X154948079Y-101333387D01*
X154940227Y-101311443D01*
X154934563Y-101288834D01*
X154931144Y-101265779D01*
X154930000Y-101242500D01*
X154930000Y-100767500D01*
X154931144Y-100744221D01*
X154934563Y-100721166D01*
X154940227Y-100698557D01*
X154948079Y-100676613D01*
X154958044Y-100655543D01*
X154970026Y-100635552D01*
X154983910Y-100616832D01*
X154999562Y-100599562D01*
X155016832Y-100583910D01*
X155035552Y-100570026D01*
X155055543Y-100558044D01*
X155076613Y-100548079D01*
X155098557Y-100540227D01*
X155121166Y-100534563D01*
X155144221Y-100531144D01*
X155167500Y-100530000D01*
X155742500Y-100530000D01*
X155765779Y-100531144D01*
X155765779Y-100531144D01*
G37*
D17*
X155455000Y-101005000D03*
G04 #@! TD*
D16*
G04 #@! TO.C,C8*
G36*
X152145779Y-104071144D02*
X152168834Y-104074563D01*
X152191443Y-104080227D01*
X152213387Y-104088079D01*
X152234457Y-104098044D01*
X152254448Y-104110026D01*
X152273168Y-104123910D01*
X152290438Y-104139562D01*
X152306090Y-104156832D01*
X152319974Y-104175552D01*
X152331956Y-104195543D01*
X152341921Y-104216613D01*
X152349773Y-104238557D01*
X152355437Y-104261166D01*
X152358856Y-104284221D01*
X152360000Y-104307500D01*
X152360000Y-104782500D01*
X152358856Y-104805779D01*
X152355437Y-104828834D01*
X152349773Y-104851443D01*
X152341921Y-104873387D01*
X152331956Y-104894457D01*
X152319974Y-104914448D01*
X152306090Y-104933168D01*
X152290438Y-104950438D01*
X152273168Y-104966090D01*
X152254448Y-104979974D01*
X152234457Y-104991956D01*
X152213387Y-105001921D01*
X152191443Y-105009773D01*
X152168834Y-105015437D01*
X152145779Y-105018856D01*
X152122500Y-105020000D01*
X151547500Y-105020000D01*
X151524221Y-105018856D01*
X151501166Y-105015437D01*
X151478557Y-105009773D01*
X151456613Y-105001921D01*
X151435543Y-104991956D01*
X151415552Y-104979974D01*
X151396832Y-104966090D01*
X151379562Y-104950438D01*
X151363910Y-104933168D01*
X151350026Y-104914448D01*
X151338044Y-104894457D01*
X151328079Y-104873387D01*
X151320227Y-104851443D01*
X151314563Y-104828834D01*
X151311144Y-104805779D01*
X151310000Y-104782500D01*
X151310000Y-104307500D01*
X151311144Y-104284221D01*
X151314563Y-104261166D01*
X151320227Y-104238557D01*
X151328079Y-104216613D01*
X151338044Y-104195543D01*
X151350026Y-104175552D01*
X151363910Y-104156832D01*
X151379562Y-104139562D01*
X151396832Y-104123910D01*
X151415552Y-104110026D01*
X151435543Y-104098044D01*
X151456613Y-104088079D01*
X151478557Y-104080227D01*
X151501166Y-104074563D01*
X151524221Y-104071144D01*
X151547500Y-104070000D01*
X152122500Y-104070000D01*
X152145779Y-104071144D01*
X152145779Y-104071144D01*
G37*
D17*
X151835000Y-104545000D03*
D16*
G36*
X153895779Y-104071144D02*
X153918834Y-104074563D01*
X153941443Y-104080227D01*
X153963387Y-104088079D01*
X153984457Y-104098044D01*
X154004448Y-104110026D01*
X154023168Y-104123910D01*
X154040438Y-104139562D01*
X154056090Y-104156832D01*
X154069974Y-104175552D01*
X154081956Y-104195543D01*
X154091921Y-104216613D01*
X154099773Y-104238557D01*
X154105437Y-104261166D01*
X154108856Y-104284221D01*
X154110000Y-104307500D01*
X154110000Y-104782500D01*
X154108856Y-104805779D01*
X154105437Y-104828834D01*
X154099773Y-104851443D01*
X154091921Y-104873387D01*
X154081956Y-104894457D01*
X154069974Y-104914448D01*
X154056090Y-104933168D01*
X154040438Y-104950438D01*
X154023168Y-104966090D01*
X154004448Y-104979974D01*
X153984457Y-104991956D01*
X153963387Y-105001921D01*
X153941443Y-105009773D01*
X153918834Y-105015437D01*
X153895779Y-105018856D01*
X153872500Y-105020000D01*
X153297500Y-105020000D01*
X153274221Y-105018856D01*
X153251166Y-105015437D01*
X153228557Y-105009773D01*
X153206613Y-105001921D01*
X153185543Y-104991956D01*
X153165552Y-104979974D01*
X153146832Y-104966090D01*
X153129562Y-104950438D01*
X153113910Y-104933168D01*
X153100026Y-104914448D01*
X153088044Y-104894457D01*
X153078079Y-104873387D01*
X153070227Y-104851443D01*
X153064563Y-104828834D01*
X153061144Y-104805779D01*
X153060000Y-104782500D01*
X153060000Y-104307500D01*
X153061144Y-104284221D01*
X153064563Y-104261166D01*
X153070227Y-104238557D01*
X153078079Y-104216613D01*
X153088044Y-104195543D01*
X153100026Y-104175552D01*
X153113910Y-104156832D01*
X153129562Y-104139562D01*
X153146832Y-104123910D01*
X153165552Y-104110026D01*
X153185543Y-104098044D01*
X153206613Y-104088079D01*
X153228557Y-104080227D01*
X153251166Y-104074563D01*
X153274221Y-104071144D01*
X153297500Y-104070000D01*
X153872500Y-104070000D01*
X153895779Y-104071144D01*
X153895779Y-104071144D01*
G37*
D17*
X153585000Y-104545000D03*
G04 #@! TD*
D16*
G04 #@! TO.C,C9*
G36*
X155765779Y-103031144D02*
X155788834Y-103034563D01*
X155811443Y-103040227D01*
X155833387Y-103048079D01*
X155854457Y-103058044D01*
X155874448Y-103070026D01*
X155893168Y-103083910D01*
X155910438Y-103099562D01*
X155926090Y-103116832D01*
X155939974Y-103135552D01*
X155951956Y-103155543D01*
X155961921Y-103176613D01*
X155969773Y-103198557D01*
X155975437Y-103221166D01*
X155978856Y-103244221D01*
X155980000Y-103267500D01*
X155980000Y-103742500D01*
X155978856Y-103765779D01*
X155975437Y-103788834D01*
X155969773Y-103811443D01*
X155961921Y-103833387D01*
X155951956Y-103854457D01*
X155939974Y-103874448D01*
X155926090Y-103893168D01*
X155910438Y-103910438D01*
X155893168Y-103926090D01*
X155874448Y-103939974D01*
X155854457Y-103951956D01*
X155833387Y-103961921D01*
X155811443Y-103969773D01*
X155788834Y-103975437D01*
X155765779Y-103978856D01*
X155742500Y-103980000D01*
X155167500Y-103980000D01*
X155144221Y-103978856D01*
X155121166Y-103975437D01*
X155098557Y-103969773D01*
X155076613Y-103961921D01*
X155055543Y-103951956D01*
X155035552Y-103939974D01*
X155016832Y-103926090D01*
X154999562Y-103910438D01*
X154983910Y-103893168D01*
X154970026Y-103874448D01*
X154958044Y-103854457D01*
X154948079Y-103833387D01*
X154940227Y-103811443D01*
X154934563Y-103788834D01*
X154931144Y-103765779D01*
X154930000Y-103742500D01*
X154930000Y-103267500D01*
X154931144Y-103244221D01*
X154934563Y-103221166D01*
X154940227Y-103198557D01*
X154948079Y-103176613D01*
X154958044Y-103155543D01*
X154970026Y-103135552D01*
X154983910Y-103116832D01*
X154999562Y-103099562D01*
X155016832Y-103083910D01*
X155035552Y-103070026D01*
X155055543Y-103058044D01*
X155076613Y-103048079D01*
X155098557Y-103040227D01*
X155121166Y-103034563D01*
X155144221Y-103031144D01*
X155167500Y-103030000D01*
X155742500Y-103030000D01*
X155765779Y-103031144D01*
X155765779Y-103031144D01*
G37*
D17*
X155455000Y-103505000D03*
D16*
G36*
X157515779Y-103031144D02*
X157538834Y-103034563D01*
X157561443Y-103040227D01*
X157583387Y-103048079D01*
X157604457Y-103058044D01*
X157624448Y-103070026D01*
X157643168Y-103083910D01*
X157660438Y-103099562D01*
X157676090Y-103116832D01*
X157689974Y-103135552D01*
X157701956Y-103155543D01*
X157711921Y-103176613D01*
X157719773Y-103198557D01*
X157725437Y-103221166D01*
X157728856Y-103244221D01*
X157730000Y-103267500D01*
X157730000Y-103742500D01*
X157728856Y-103765779D01*
X157725437Y-103788834D01*
X157719773Y-103811443D01*
X157711921Y-103833387D01*
X157701956Y-103854457D01*
X157689974Y-103874448D01*
X157676090Y-103893168D01*
X157660438Y-103910438D01*
X157643168Y-103926090D01*
X157624448Y-103939974D01*
X157604457Y-103951956D01*
X157583387Y-103961921D01*
X157561443Y-103969773D01*
X157538834Y-103975437D01*
X157515779Y-103978856D01*
X157492500Y-103980000D01*
X156917500Y-103980000D01*
X156894221Y-103978856D01*
X156871166Y-103975437D01*
X156848557Y-103969773D01*
X156826613Y-103961921D01*
X156805543Y-103951956D01*
X156785552Y-103939974D01*
X156766832Y-103926090D01*
X156749562Y-103910438D01*
X156733910Y-103893168D01*
X156720026Y-103874448D01*
X156708044Y-103854457D01*
X156698079Y-103833387D01*
X156690227Y-103811443D01*
X156684563Y-103788834D01*
X156681144Y-103765779D01*
X156680000Y-103742500D01*
X156680000Y-103267500D01*
X156681144Y-103244221D01*
X156684563Y-103221166D01*
X156690227Y-103198557D01*
X156698079Y-103176613D01*
X156708044Y-103155543D01*
X156720026Y-103135552D01*
X156733910Y-103116832D01*
X156749562Y-103099562D01*
X156766832Y-103083910D01*
X156785552Y-103070026D01*
X156805543Y-103058044D01*
X156826613Y-103048079D01*
X156848557Y-103040227D01*
X156871166Y-103034563D01*
X156894221Y-103031144D01*
X156917500Y-103030000D01*
X157492500Y-103030000D01*
X157515779Y-103031144D01*
X157515779Y-103031144D01*
G37*
D17*
X157205000Y-103505000D03*
G04 #@! TD*
D16*
G04 #@! TO.C,R18*
G36*
X152175779Y-102241144D02*
X152198834Y-102244563D01*
X152221443Y-102250227D01*
X152243387Y-102258079D01*
X152264457Y-102268044D01*
X152284448Y-102280026D01*
X152303168Y-102293910D01*
X152320438Y-102309562D01*
X152336090Y-102326832D01*
X152349974Y-102345552D01*
X152361956Y-102365543D01*
X152371921Y-102386613D01*
X152379773Y-102408557D01*
X152385437Y-102431166D01*
X152388856Y-102454221D01*
X152390000Y-102477500D01*
X152390000Y-102952500D01*
X152388856Y-102975779D01*
X152385437Y-102998834D01*
X152379773Y-103021443D01*
X152371921Y-103043387D01*
X152361956Y-103064457D01*
X152349974Y-103084448D01*
X152336090Y-103103168D01*
X152320438Y-103120438D01*
X152303168Y-103136090D01*
X152284448Y-103149974D01*
X152264457Y-103161956D01*
X152243387Y-103171921D01*
X152221443Y-103179773D01*
X152198834Y-103185437D01*
X152175779Y-103188856D01*
X152152500Y-103190000D01*
X151577500Y-103190000D01*
X151554221Y-103188856D01*
X151531166Y-103185437D01*
X151508557Y-103179773D01*
X151486613Y-103171921D01*
X151465543Y-103161956D01*
X151445552Y-103149974D01*
X151426832Y-103136090D01*
X151409562Y-103120438D01*
X151393910Y-103103168D01*
X151380026Y-103084448D01*
X151368044Y-103064457D01*
X151358079Y-103043387D01*
X151350227Y-103021443D01*
X151344563Y-102998834D01*
X151341144Y-102975779D01*
X151340000Y-102952500D01*
X151340000Y-102477500D01*
X151341144Y-102454221D01*
X151344563Y-102431166D01*
X151350227Y-102408557D01*
X151358079Y-102386613D01*
X151368044Y-102365543D01*
X151380026Y-102345552D01*
X151393910Y-102326832D01*
X151409562Y-102309562D01*
X151426832Y-102293910D01*
X151445552Y-102280026D01*
X151465543Y-102268044D01*
X151486613Y-102258079D01*
X151508557Y-102250227D01*
X151531166Y-102244563D01*
X151554221Y-102241144D01*
X151577500Y-102240000D01*
X152152500Y-102240000D01*
X152175779Y-102241144D01*
X152175779Y-102241144D01*
G37*
D17*
X151865000Y-102715000D03*
D16*
G36*
X153925779Y-102241144D02*
X153948834Y-102244563D01*
X153971443Y-102250227D01*
X153993387Y-102258079D01*
X154014457Y-102268044D01*
X154034448Y-102280026D01*
X154053168Y-102293910D01*
X154070438Y-102309562D01*
X154086090Y-102326832D01*
X154099974Y-102345552D01*
X154111956Y-102365543D01*
X154121921Y-102386613D01*
X154129773Y-102408557D01*
X154135437Y-102431166D01*
X154138856Y-102454221D01*
X154140000Y-102477500D01*
X154140000Y-102952500D01*
X154138856Y-102975779D01*
X154135437Y-102998834D01*
X154129773Y-103021443D01*
X154121921Y-103043387D01*
X154111956Y-103064457D01*
X154099974Y-103084448D01*
X154086090Y-103103168D01*
X154070438Y-103120438D01*
X154053168Y-103136090D01*
X154034448Y-103149974D01*
X154014457Y-103161956D01*
X153993387Y-103171921D01*
X153971443Y-103179773D01*
X153948834Y-103185437D01*
X153925779Y-103188856D01*
X153902500Y-103190000D01*
X153327500Y-103190000D01*
X153304221Y-103188856D01*
X153281166Y-103185437D01*
X153258557Y-103179773D01*
X153236613Y-103171921D01*
X153215543Y-103161956D01*
X153195552Y-103149974D01*
X153176832Y-103136090D01*
X153159562Y-103120438D01*
X153143910Y-103103168D01*
X153130026Y-103084448D01*
X153118044Y-103064457D01*
X153108079Y-103043387D01*
X153100227Y-103021443D01*
X153094563Y-102998834D01*
X153091144Y-102975779D01*
X153090000Y-102952500D01*
X153090000Y-102477500D01*
X153091144Y-102454221D01*
X153094563Y-102431166D01*
X153100227Y-102408557D01*
X153108079Y-102386613D01*
X153118044Y-102365543D01*
X153130026Y-102345552D01*
X153143910Y-102326832D01*
X153159562Y-102309562D01*
X153176832Y-102293910D01*
X153195552Y-102280026D01*
X153215543Y-102268044D01*
X153236613Y-102258079D01*
X153258557Y-102250227D01*
X153281166Y-102244563D01*
X153304221Y-102241144D01*
X153327500Y-102240000D01*
X153902500Y-102240000D01*
X153925779Y-102241144D01*
X153925779Y-102241144D01*
G37*
D17*
X153615000Y-102715000D03*
G04 #@! TD*
D16*
G04 #@! TO.C,R19*
G36*
X155765779Y-98031144D02*
X155788834Y-98034563D01*
X155811443Y-98040227D01*
X155833387Y-98048079D01*
X155854457Y-98058044D01*
X155874448Y-98070026D01*
X155893168Y-98083910D01*
X155910438Y-98099562D01*
X155926090Y-98116832D01*
X155939974Y-98135552D01*
X155951956Y-98155543D01*
X155961921Y-98176613D01*
X155969773Y-98198557D01*
X155975437Y-98221166D01*
X155978856Y-98244221D01*
X155980000Y-98267500D01*
X155980000Y-98742500D01*
X155978856Y-98765779D01*
X155975437Y-98788834D01*
X155969773Y-98811443D01*
X155961921Y-98833387D01*
X155951956Y-98854457D01*
X155939974Y-98874448D01*
X155926090Y-98893168D01*
X155910438Y-98910438D01*
X155893168Y-98926090D01*
X155874448Y-98939974D01*
X155854457Y-98951956D01*
X155833387Y-98961921D01*
X155811443Y-98969773D01*
X155788834Y-98975437D01*
X155765779Y-98978856D01*
X155742500Y-98980000D01*
X155167500Y-98980000D01*
X155144221Y-98978856D01*
X155121166Y-98975437D01*
X155098557Y-98969773D01*
X155076613Y-98961921D01*
X155055543Y-98951956D01*
X155035552Y-98939974D01*
X155016832Y-98926090D01*
X154999562Y-98910438D01*
X154983910Y-98893168D01*
X154970026Y-98874448D01*
X154958044Y-98854457D01*
X154948079Y-98833387D01*
X154940227Y-98811443D01*
X154934563Y-98788834D01*
X154931144Y-98765779D01*
X154930000Y-98742500D01*
X154930000Y-98267500D01*
X154931144Y-98244221D01*
X154934563Y-98221166D01*
X154940227Y-98198557D01*
X154948079Y-98176613D01*
X154958044Y-98155543D01*
X154970026Y-98135552D01*
X154983910Y-98116832D01*
X154999562Y-98099562D01*
X155016832Y-98083910D01*
X155035552Y-98070026D01*
X155055543Y-98058044D01*
X155076613Y-98048079D01*
X155098557Y-98040227D01*
X155121166Y-98034563D01*
X155144221Y-98031144D01*
X155167500Y-98030000D01*
X155742500Y-98030000D01*
X155765779Y-98031144D01*
X155765779Y-98031144D01*
G37*
D17*
X155455000Y-98505000D03*
D16*
G36*
X157515779Y-98031144D02*
X157538834Y-98034563D01*
X157561443Y-98040227D01*
X157583387Y-98048079D01*
X157604457Y-98058044D01*
X157624448Y-98070026D01*
X157643168Y-98083910D01*
X157660438Y-98099562D01*
X157676090Y-98116832D01*
X157689974Y-98135552D01*
X157701956Y-98155543D01*
X157711921Y-98176613D01*
X157719773Y-98198557D01*
X157725437Y-98221166D01*
X157728856Y-98244221D01*
X157730000Y-98267500D01*
X157730000Y-98742500D01*
X157728856Y-98765779D01*
X157725437Y-98788834D01*
X157719773Y-98811443D01*
X157711921Y-98833387D01*
X157701956Y-98854457D01*
X157689974Y-98874448D01*
X157676090Y-98893168D01*
X157660438Y-98910438D01*
X157643168Y-98926090D01*
X157624448Y-98939974D01*
X157604457Y-98951956D01*
X157583387Y-98961921D01*
X157561443Y-98969773D01*
X157538834Y-98975437D01*
X157515779Y-98978856D01*
X157492500Y-98980000D01*
X156917500Y-98980000D01*
X156894221Y-98978856D01*
X156871166Y-98975437D01*
X156848557Y-98969773D01*
X156826613Y-98961921D01*
X156805543Y-98951956D01*
X156785552Y-98939974D01*
X156766832Y-98926090D01*
X156749562Y-98910438D01*
X156733910Y-98893168D01*
X156720026Y-98874448D01*
X156708044Y-98854457D01*
X156698079Y-98833387D01*
X156690227Y-98811443D01*
X156684563Y-98788834D01*
X156681144Y-98765779D01*
X156680000Y-98742500D01*
X156680000Y-98267500D01*
X156681144Y-98244221D01*
X156684563Y-98221166D01*
X156690227Y-98198557D01*
X156698079Y-98176613D01*
X156708044Y-98155543D01*
X156720026Y-98135552D01*
X156733910Y-98116832D01*
X156749562Y-98099562D01*
X156766832Y-98083910D01*
X156785552Y-98070026D01*
X156805543Y-98058044D01*
X156826613Y-98048079D01*
X156848557Y-98040227D01*
X156871166Y-98034563D01*
X156894221Y-98031144D01*
X156917500Y-98030000D01*
X157492500Y-98030000D01*
X157515779Y-98031144D01*
X157515779Y-98031144D01*
G37*
D17*
X157205000Y-98505000D03*
G04 #@! TD*
M02*
