G04 #@! TF.GenerationSoftware,KiCad,Pcbnew,5.0.2-bee76a0~70~ubuntu16.04.1*
G04 #@! TF.CreationDate,2020-01-17T22:29:31+00:00*
G04 #@! TF.ProjectId,transmitter,7472616e-736d-4697-9474-65722e6b6963,2.0.0*
G04 #@! TF.SameCoordinates,Original*
G04 #@! TF.FileFunction,Soldermask,Bot*
G04 #@! TF.FilePolarity,Negative*
%FSLAX46Y46*%
G04 Gerber Fmt 4.6, Leading zero omitted, Abs format (unit mm)*
G04 Created by KiCad (PCBNEW 5.0.2-bee76a0~70~ubuntu16.04.1) date Fri 17 Jan 2020 22:29:31 GMT*
%MOMM*%
%LPD*%
G01*
G04 APERTURE LIST*
%ADD10C,1.524000*%
%ADD11C,1.397000*%
%ADD12R,1.700000X1.700000*%
%ADD13O,1.700000X1.700000*%
%ADD14C,0.500000*%
%ADD15C,1.700000*%
%ADD16O,2.000000X1.700000*%
%ADD17C,0.950000*%
%ADD18C,0.500000*%
G04 APERTURE END LIST*
D10*
G04 #@! TO.C,U1*
X137200000Y-67945000D03*
X137200000Y-70485000D03*
X137200000Y-73025000D03*
X137200000Y-75565000D03*
X137200000Y-78105000D03*
X137200000Y-80645000D03*
X137200000Y-83185000D03*
X137200000Y-85725000D03*
X137200000Y-88265000D03*
X137200000Y-90805000D03*
X137200000Y-93345000D03*
X137200000Y-95885000D03*
X137200000Y-98425000D03*
X137200000Y-100965000D03*
X137200000Y-103505000D03*
X160060000Y-103505000D03*
X160060000Y-100965000D03*
X160060000Y-98425000D03*
X160060000Y-95885000D03*
X160060000Y-93345000D03*
X160060000Y-90805000D03*
X160060000Y-88265000D03*
X160060000Y-85725000D03*
X160060000Y-83185000D03*
X160060000Y-80645000D03*
X160060000Y-78105000D03*
X160060000Y-75565000D03*
X160060000Y-73025000D03*
X160060000Y-70485000D03*
X160060000Y-67945000D03*
G04 #@! TD*
D11*
G04 #@! TO.C,SW1*
X116500000Y-108945000D03*
X116500000Y-103865000D03*
X124120000Y-108945000D03*
X124120000Y-103865000D03*
G04 #@! TD*
D12*
G04 #@! TO.C,SW2*
X128870000Y-108945000D03*
D13*
X131410000Y-108945000D03*
G04 #@! TD*
D12*
G04 #@! TO.C,J4*
X118620000Y-89945000D03*
D13*
X132620000Y-89945000D03*
G04 #@! TD*
D14*
G04 #@! TO.C,J1*
G36*
X167954504Y-67096204D02*
X167978773Y-67099804D01*
X168002571Y-67105765D01*
X168025671Y-67114030D01*
X168047849Y-67124520D01*
X168068893Y-67137133D01*
X168088598Y-67151747D01*
X168106777Y-67168223D01*
X168123253Y-67186402D01*
X168137867Y-67206107D01*
X168150480Y-67227151D01*
X168160970Y-67249329D01*
X168169235Y-67272429D01*
X168175196Y-67296227D01*
X168178796Y-67320496D01*
X168180000Y-67345000D01*
X168180000Y-68545000D01*
X168178796Y-68569504D01*
X168175196Y-68593773D01*
X168169235Y-68617571D01*
X168160970Y-68640671D01*
X168150480Y-68662849D01*
X168137867Y-68683893D01*
X168123253Y-68703598D01*
X168106777Y-68721777D01*
X168088598Y-68738253D01*
X168068893Y-68752867D01*
X168047849Y-68765480D01*
X168025671Y-68775970D01*
X168002571Y-68784235D01*
X167978773Y-68790196D01*
X167954504Y-68793796D01*
X167930000Y-68795000D01*
X166430000Y-68795000D01*
X166405496Y-68793796D01*
X166381227Y-68790196D01*
X166357429Y-68784235D01*
X166334329Y-68775970D01*
X166312151Y-68765480D01*
X166291107Y-68752867D01*
X166271402Y-68738253D01*
X166253223Y-68721777D01*
X166236747Y-68703598D01*
X166222133Y-68683893D01*
X166209520Y-68662849D01*
X166199030Y-68640671D01*
X166190765Y-68617571D01*
X166184804Y-68593773D01*
X166181204Y-68569504D01*
X166180000Y-68545000D01*
X166180000Y-67345000D01*
X166181204Y-67320496D01*
X166184804Y-67296227D01*
X166190765Y-67272429D01*
X166199030Y-67249329D01*
X166209520Y-67227151D01*
X166222133Y-67206107D01*
X166236747Y-67186402D01*
X166253223Y-67168223D01*
X166271402Y-67151747D01*
X166291107Y-67137133D01*
X166312151Y-67124520D01*
X166334329Y-67114030D01*
X166357429Y-67105765D01*
X166381227Y-67099804D01*
X166405496Y-67096204D01*
X166430000Y-67095000D01*
X167930000Y-67095000D01*
X167954504Y-67096204D01*
X167954504Y-67096204D01*
G37*
D15*
X167180000Y-67945000D03*
D16*
X167180000Y-70445000D03*
G04 #@! TD*
G04 #@! TO.C,J2*
X167180000Y-78065000D03*
D14*
G36*
X167954504Y-74716204D02*
X167978773Y-74719804D01*
X168002571Y-74725765D01*
X168025671Y-74734030D01*
X168047849Y-74744520D01*
X168068893Y-74757133D01*
X168088598Y-74771747D01*
X168106777Y-74788223D01*
X168123253Y-74806402D01*
X168137867Y-74826107D01*
X168150480Y-74847151D01*
X168160970Y-74869329D01*
X168169235Y-74892429D01*
X168175196Y-74916227D01*
X168178796Y-74940496D01*
X168180000Y-74965000D01*
X168180000Y-76165000D01*
X168178796Y-76189504D01*
X168175196Y-76213773D01*
X168169235Y-76237571D01*
X168160970Y-76260671D01*
X168150480Y-76282849D01*
X168137867Y-76303893D01*
X168123253Y-76323598D01*
X168106777Y-76341777D01*
X168088598Y-76358253D01*
X168068893Y-76372867D01*
X168047849Y-76385480D01*
X168025671Y-76395970D01*
X168002571Y-76404235D01*
X167978773Y-76410196D01*
X167954504Y-76413796D01*
X167930000Y-76415000D01*
X166430000Y-76415000D01*
X166405496Y-76413796D01*
X166381227Y-76410196D01*
X166357429Y-76404235D01*
X166334329Y-76395970D01*
X166312151Y-76385480D01*
X166291107Y-76372867D01*
X166271402Y-76358253D01*
X166253223Y-76341777D01*
X166236747Y-76323598D01*
X166222133Y-76303893D01*
X166209520Y-76282849D01*
X166199030Y-76260671D01*
X166190765Y-76237571D01*
X166184804Y-76213773D01*
X166181204Y-76189504D01*
X166180000Y-76165000D01*
X166180000Y-74965000D01*
X166181204Y-74940496D01*
X166184804Y-74916227D01*
X166190765Y-74892429D01*
X166199030Y-74869329D01*
X166209520Y-74847151D01*
X166222133Y-74826107D01*
X166236747Y-74806402D01*
X166253223Y-74788223D01*
X166271402Y-74771747D01*
X166291107Y-74757133D01*
X166312151Y-74744520D01*
X166334329Y-74734030D01*
X166357429Y-74725765D01*
X166381227Y-74719804D01*
X166405496Y-74716204D01*
X166430000Y-74715000D01*
X167930000Y-74715000D01*
X167954504Y-74716204D01*
X167954504Y-74716204D01*
G37*
D15*
X167180000Y-75565000D03*
G04 #@! TD*
D14*
G04 #@! TO.C,J5*
G36*
X167954504Y-82336204D02*
X167978773Y-82339804D01*
X168002571Y-82345765D01*
X168025671Y-82354030D01*
X168047849Y-82364520D01*
X168068893Y-82377133D01*
X168088598Y-82391747D01*
X168106777Y-82408223D01*
X168123253Y-82426402D01*
X168137867Y-82446107D01*
X168150480Y-82467151D01*
X168160970Y-82489329D01*
X168169235Y-82512429D01*
X168175196Y-82536227D01*
X168178796Y-82560496D01*
X168180000Y-82585000D01*
X168180000Y-83785000D01*
X168178796Y-83809504D01*
X168175196Y-83833773D01*
X168169235Y-83857571D01*
X168160970Y-83880671D01*
X168150480Y-83902849D01*
X168137867Y-83923893D01*
X168123253Y-83943598D01*
X168106777Y-83961777D01*
X168088598Y-83978253D01*
X168068893Y-83992867D01*
X168047849Y-84005480D01*
X168025671Y-84015970D01*
X168002571Y-84024235D01*
X167978773Y-84030196D01*
X167954504Y-84033796D01*
X167930000Y-84035000D01*
X166430000Y-84035000D01*
X166405496Y-84033796D01*
X166381227Y-84030196D01*
X166357429Y-84024235D01*
X166334329Y-84015970D01*
X166312151Y-84005480D01*
X166291107Y-83992867D01*
X166271402Y-83978253D01*
X166253223Y-83961777D01*
X166236747Y-83943598D01*
X166222133Y-83923893D01*
X166209520Y-83902849D01*
X166199030Y-83880671D01*
X166190765Y-83857571D01*
X166184804Y-83833773D01*
X166181204Y-83809504D01*
X166180000Y-83785000D01*
X166180000Y-82585000D01*
X166181204Y-82560496D01*
X166184804Y-82536227D01*
X166190765Y-82512429D01*
X166199030Y-82489329D01*
X166209520Y-82467151D01*
X166222133Y-82446107D01*
X166236747Y-82426402D01*
X166253223Y-82408223D01*
X166271402Y-82391747D01*
X166291107Y-82377133D01*
X166312151Y-82364520D01*
X166334329Y-82354030D01*
X166357429Y-82345765D01*
X166381227Y-82339804D01*
X166405496Y-82336204D01*
X166430000Y-82335000D01*
X167930000Y-82335000D01*
X167954504Y-82336204D01*
X167954504Y-82336204D01*
G37*
D15*
X167180000Y-83185000D03*
D16*
X167180000Y-85685000D03*
G04 #@! TD*
G04 #@! TO.C,J6*
X167180000Y-93305000D03*
D14*
G36*
X167954504Y-89956204D02*
X167978773Y-89959804D01*
X168002571Y-89965765D01*
X168025671Y-89974030D01*
X168047849Y-89984520D01*
X168068893Y-89997133D01*
X168088598Y-90011747D01*
X168106777Y-90028223D01*
X168123253Y-90046402D01*
X168137867Y-90066107D01*
X168150480Y-90087151D01*
X168160970Y-90109329D01*
X168169235Y-90132429D01*
X168175196Y-90156227D01*
X168178796Y-90180496D01*
X168180000Y-90205000D01*
X168180000Y-91405000D01*
X168178796Y-91429504D01*
X168175196Y-91453773D01*
X168169235Y-91477571D01*
X168160970Y-91500671D01*
X168150480Y-91522849D01*
X168137867Y-91543893D01*
X168123253Y-91563598D01*
X168106777Y-91581777D01*
X168088598Y-91598253D01*
X168068893Y-91612867D01*
X168047849Y-91625480D01*
X168025671Y-91635970D01*
X168002571Y-91644235D01*
X167978773Y-91650196D01*
X167954504Y-91653796D01*
X167930000Y-91655000D01*
X166430000Y-91655000D01*
X166405496Y-91653796D01*
X166381227Y-91650196D01*
X166357429Y-91644235D01*
X166334329Y-91635970D01*
X166312151Y-91625480D01*
X166291107Y-91612867D01*
X166271402Y-91598253D01*
X166253223Y-91581777D01*
X166236747Y-91563598D01*
X166222133Y-91543893D01*
X166209520Y-91522849D01*
X166199030Y-91500671D01*
X166190765Y-91477571D01*
X166184804Y-91453773D01*
X166181204Y-91429504D01*
X166180000Y-91405000D01*
X166180000Y-90205000D01*
X166181204Y-90180496D01*
X166184804Y-90156227D01*
X166190765Y-90132429D01*
X166199030Y-90109329D01*
X166209520Y-90087151D01*
X166222133Y-90066107D01*
X166236747Y-90046402D01*
X166253223Y-90028223D01*
X166271402Y-90011747D01*
X166291107Y-89997133D01*
X166312151Y-89984520D01*
X166334329Y-89974030D01*
X166357429Y-89965765D01*
X166381227Y-89959804D01*
X166405496Y-89956204D01*
X166430000Y-89955000D01*
X167930000Y-89955000D01*
X167954504Y-89956204D01*
X167954504Y-89956204D01*
G37*
D15*
X167180000Y-90805000D03*
G04 #@! TD*
D14*
G04 #@! TO.C,J7*
G36*
X167954504Y-97576204D02*
X167978773Y-97579804D01*
X168002571Y-97585765D01*
X168025671Y-97594030D01*
X168047849Y-97604520D01*
X168068893Y-97617133D01*
X168088598Y-97631747D01*
X168106777Y-97648223D01*
X168123253Y-97666402D01*
X168137867Y-97686107D01*
X168150480Y-97707151D01*
X168160970Y-97729329D01*
X168169235Y-97752429D01*
X168175196Y-97776227D01*
X168178796Y-97800496D01*
X168180000Y-97825000D01*
X168180000Y-99025000D01*
X168178796Y-99049504D01*
X168175196Y-99073773D01*
X168169235Y-99097571D01*
X168160970Y-99120671D01*
X168150480Y-99142849D01*
X168137867Y-99163893D01*
X168123253Y-99183598D01*
X168106777Y-99201777D01*
X168088598Y-99218253D01*
X168068893Y-99232867D01*
X168047849Y-99245480D01*
X168025671Y-99255970D01*
X168002571Y-99264235D01*
X167978773Y-99270196D01*
X167954504Y-99273796D01*
X167930000Y-99275000D01*
X166430000Y-99275000D01*
X166405496Y-99273796D01*
X166381227Y-99270196D01*
X166357429Y-99264235D01*
X166334329Y-99255970D01*
X166312151Y-99245480D01*
X166291107Y-99232867D01*
X166271402Y-99218253D01*
X166253223Y-99201777D01*
X166236747Y-99183598D01*
X166222133Y-99163893D01*
X166209520Y-99142849D01*
X166199030Y-99120671D01*
X166190765Y-99097571D01*
X166184804Y-99073773D01*
X166181204Y-99049504D01*
X166180000Y-99025000D01*
X166180000Y-97825000D01*
X166181204Y-97800496D01*
X166184804Y-97776227D01*
X166190765Y-97752429D01*
X166199030Y-97729329D01*
X166209520Y-97707151D01*
X166222133Y-97686107D01*
X166236747Y-97666402D01*
X166253223Y-97648223D01*
X166271402Y-97631747D01*
X166291107Y-97617133D01*
X166312151Y-97604520D01*
X166334329Y-97594030D01*
X166357429Y-97585765D01*
X166381227Y-97579804D01*
X166405496Y-97576204D01*
X166430000Y-97575000D01*
X167930000Y-97575000D01*
X167954504Y-97576204D01*
X167954504Y-97576204D01*
G37*
D15*
X167180000Y-98425000D03*
D16*
X167180000Y-100925000D03*
G04 #@! TD*
D14*
G04 #@! TO.C,J8*
G36*
X167954504Y-105196204D02*
X167978773Y-105199804D01*
X168002571Y-105205765D01*
X168025671Y-105214030D01*
X168047849Y-105224520D01*
X168068893Y-105237133D01*
X168088598Y-105251747D01*
X168106777Y-105268223D01*
X168123253Y-105286402D01*
X168137867Y-105306107D01*
X168150480Y-105327151D01*
X168160970Y-105349329D01*
X168169235Y-105372429D01*
X168175196Y-105396227D01*
X168178796Y-105420496D01*
X168180000Y-105445000D01*
X168180000Y-106645000D01*
X168178796Y-106669504D01*
X168175196Y-106693773D01*
X168169235Y-106717571D01*
X168160970Y-106740671D01*
X168150480Y-106762849D01*
X168137867Y-106783893D01*
X168123253Y-106803598D01*
X168106777Y-106821777D01*
X168088598Y-106838253D01*
X168068893Y-106852867D01*
X168047849Y-106865480D01*
X168025671Y-106875970D01*
X168002571Y-106884235D01*
X167978773Y-106890196D01*
X167954504Y-106893796D01*
X167930000Y-106895000D01*
X166430000Y-106895000D01*
X166405496Y-106893796D01*
X166381227Y-106890196D01*
X166357429Y-106884235D01*
X166334329Y-106875970D01*
X166312151Y-106865480D01*
X166291107Y-106852867D01*
X166271402Y-106838253D01*
X166253223Y-106821777D01*
X166236747Y-106803598D01*
X166222133Y-106783893D01*
X166209520Y-106762849D01*
X166199030Y-106740671D01*
X166190765Y-106717571D01*
X166184804Y-106693773D01*
X166181204Y-106669504D01*
X166180000Y-106645000D01*
X166180000Y-105445000D01*
X166181204Y-105420496D01*
X166184804Y-105396227D01*
X166190765Y-105372429D01*
X166199030Y-105349329D01*
X166209520Y-105327151D01*
X166222133Y-105306107D01*
X166236747Y-105286402D01*
X166253223Y-105268223D01*
X166271402Y-105251747D01*
X166291107Y-105237133D01*
X166312151Y-105224520D01*
X166334329Y-105214030D01*
X166357429Y-105205765D01*
X166381227Y-105199804D01*
X166405496Y-105196204D01*
X166430000Y-105195000D01*
X167930000Y-105195000D01*
X167954504Y-105196204D01*
X167954504Y-105196204D01*
G37*
D15*
X167180000Y-106045000D03*
D16*
X167180000Y-108545000D03*
G04 #@! TD*
D12*
G04 #@! TO.C,J3*
X129540000Y-95885000D03*
D13*
X132080000Y-95885000D03*
G04 #@! TD*
D14*
G04 #@! TO.C,R13*
G36*
X151805779Y-100871144D02*
X151828834Y-100874563D01*
X151851443Y-100880227D01*
X151873387Y-100888079D01*
X151894457Y-100898044D01*
X151914448Y-100910026D01*
X151933168Y-100923910D01*
X151950438Y-100939562D01*
X151966090Y-100956832D01*
X151979974Y-100975552D01*
X151991956Y-100995543D01*
X152001921Y-101016613D01*
X152009773Y-101038557D01*
X152015437Y-101061166D01*
X152018856Y-101084221D01*
X152020000Y-101107500D01*
X152020000Y-101582500D01*
X152018856Y-101605779D01*
X152015437Y-101628834D01*
X152009773Y-101651443D01*
X152001921Y-101673387D01*
X151991956Y-101694457D01*
X151979974Y-101714448D01*
X151966090Y-101733168D01*
X151950438Y-101750438D01*
X151933168Y-101766090D01*
X151914448Y-101779974D01*
X151894457Y-101791956D01*
X151873387Y-101801921D01*
X151851443Y-101809773D01*
X151828834Y-101815437D01*
X151805779Y-101818856D01*
X151782500Y-101820000D01*
X151207500Y-101820000D01*
X151184221Y-101818856D01*
X151161166Y-101815437D01*
X151138557Y-101809773D01*
X151116613Y-101801921D01*
X151095543Y-101791956D01*
X151075552Y-101779974D01*
X151056832Y-101766090D01*
X151039562Y-101750438D01*
X151023910Y-101733168D01*
X151010026Y-101714448D01*
X150998044Y-101694457D01*
X150988079Y-101673387D01*
X150980227Y-101651443D01*
X150974563Y-101628834D01*
X150971144Y-101605779D01*
X150970000Y-101582500D01*
X150970000Y-101107500D01*
X150971144Y-101084221D01*
X150974563Y-101061166D01*
X150980227Y-101038557D01*
X150988079Y-101016613D01*
X150998044Y-100995543D01*
X151010026Y-100975552D01*
X151023910Y-100956832D01*
X151039562Y-100939562D01*
X151056832Y-100923910D01*
X151075552Y-100910026D01*
X151095543Y-100898044D01*
X151116613Y-100888079D01*
X151138557Y-100880227D01*
X151161166Y-100874563D01*
X151184221Y-100871144D01*
X151207500Y-100870000D01*
X151782500Y-100870000D01*
X151805779Y-100871144D01*
X151805779Y-100871144D01*
G37*
D17*
X151495000Y-101345000D03*
D14*
G36*
X153555779Y-100871144D02*
X153578834Y-100874563D01*
X153601443Y-100880227D01*
X153623387Y-100888079D01*
X153644457Y-100898044D01*
X153664448Y-100910026D01*
X153683168Y-100923910D01*
X153700438Y-100939562D01*
X153716090Y-100956832D01*
X153729974Y-100975552D01*
X153741956Y-100995543D01*
X153751921Y-101016613D01*
X153759773Y-101038557D01*
X153765437Y-101061166D01*
X153768856Y-101084221D01*
X153770000Y-101107500D01*
X153770000Y-101582500D01*
X153768856Y-101605779D01*
X153765437Y-101628834D01*
X153759773Y-101651443D01*
X153751921Y-101673387D01*
X153741956Y-101694457D01*
X153729974Y-101714448D01*
X153716090Y-101733168D01*
X153700438Y-101750438D01*
X153683168Y-101766090D01*
X153664448Y-101779974D01*
X153644457Y-101791956D01*
X153623387Y-101801921D01*
X153601443Y-101809773D01*
X153578834Y-101815437D01*
X153555779Y-101818856D01*
X153532500Y-101820000D01*
X152957500Y-101820000D01*
X152934221Y-101818856D01*
X152911166Y-101815437D01*
X152888557Y-101809773D01*
X152866613Y-101801921D01*
X152845543Y-101791956D01*
X152825552Y-101779974D01*
X152806832Y-101766090D01*
X152789562Y-101750438D01*
X152773910Y-101733168D01*
X152760026Y-101714448D01*
X152748044Y-101694457D01*
X152738079Y-101673387D01*
X152730227Y-101651443D01*
X152724563Y-101628834D01*
X152721144Y-101605779D01*
X152720000Y-101582500D01*
X152720000Y-101107500D01*
X152721144Y-101084221D01*
X152724563Y-101061166D01*
X152730227Y-101038557D01*
X152738079Y-101016613D01*
X152748044Y-100995543D01*
X152760026Y-100975552D01*
X152773910Y-100956832D01*
X152789562Y-100939562D01*
X152806832Y-100923910D01*
X152825552Y-100910026D01*
X152845543Y-100898044D01*
X152866613Y-100888079D01*
X152888557Y-100880227D01*
X152911166Y-100874563D01*
X152934221Y-100871144D01*
X152957500Y-100870000D01*
X153532500Y-100870000D01*
X153555779Y-100871144D01*
X153555779Y-100871144D01*
G37*
D17*
X153245000Y-101345000D03*
G04 #@! TD*
D14*
G04 #@! TO.C,R14*
G36*
X149805779Y-100871144D02*
X149828834Y-100874563D01*
X149851443Y-100880227D01*
X149873387Y-100888079D01*
X149894457Y-100898044D01*
X149914448Y-100910026D01*
X149933168Y-100923910D01*
X149950438Y-100939562D01*
X149966090Y-100956832D01*
X149979974Y-100975552D01*
X149991956Y-100995543D01*
X150001921Y-101016613D01*
X150009773Y-101038557D01*
X150015437Y-101061166D01*
X150018856Y-101084221D01*
X150020000Y-101107500D01*
X150020000Y-101582500D01*
X150018856Y-101605779D01*
X150015437Y-101628834D01*
X150009773Y-101651443D01*
X150001921Y-101673387D01*
X149991956Y-101694457D01*
X149979974Y-101714448D01*
X149966090Y-101733168D01*
X149950438Y-101750438D01*
X149933168Y-101766090D01*
X149914448Y-101779974D01*
X149894457Y-101791956D01*
X149873387Y-101801921D01*
X149851443Y-101809773D01*
X149828834Y-101815437D01*
X149805779Y-101818856D01*
X149782500Y-101820000D01*
X149207500Y-101820000D01*
X149184221Y-101818856D01*
X149161166Y-101815437D01*
X149138557Y-101809773D01*
X149116613Y-101801921D01*
X149095543Y-101791956D01*
X149075552Y-101779974D01*
X149056832Y-101766090D01*
X149039562Y-101750438D01*
X149023910Y-101733168D01*
X149010026Y-101714448D01*
X148998044Y-101694457D01*
X148988079Y-101673387D01*
X148980227Y-101651443D01*
X148974563Y-101628834D01*
X148971144Y-101605779D01*
X148970000Y-101582500D01*
X148970000Y-101107500D01*
X148971144Y-101084221D01*
X148974563Y-101061166D01*
X148980227Y-101038557D01*
X148988079Y-101016613D01*
X148998044Y-100995543D01*
X149010026Y-100975552D01*
X149023910Y-100956832D01*
X149039562Y-100939562D01*
X149056832Y-100923910D01*
X149075552Y-100910026D01*
X149095543Y-100898044D01*
X149116613Y-100888079D01*
X149138557Y-100880227D01*
X149161166Y-100874563D01*
X149184221Y-100871144D01*
X149207500Y-100870000D01*
X149782500Y-100870000D01*
X149805779Y-100871144D01*
X149805779Y-100871144D01*
G37*
D17*
X149495000Y-101345000D03*
D14*
G36*
X148055779Y-100871144D02*
X148078834Y-100874563D01*
X148101443Y-100880227D01*
X148123387Y-100888079D01*
X148144457Y-100898044D01*
X148164448Y-100910026D01*
X148183168Y-100923910D01*
X148200438Y-100939562D01*
X148216090Y-100956832D01*
X148229974Y-100975552D01*
X148241956Y-100995543D01*
X148251921Y-101016613D01*
X148259773Y-101038557D01*
X148265437Y-101061166D01*
X148268856Y-101084221D01*
X148270000Y-101107500D01*
X148270000Y-101582500D01*
X148268856Y-101605779D01*
X148265437Y-101628834D01*
X148259773Y-101651443D01*
X148251921Y-101673387D01*
X148241956Y-101694457D01*
X148229974Y-101714448D01*
X148216090Y-101733168D01*
X148200438Y-101750438D01*
X148183168Y-101766090D01*
X148164448Y-101779974D01*
X148144457Y-101791956D01*
X148123387Y-101801921D01*
X148101443Y-101809773D01*
X148078834Y-101815437D01*
X148055779Y-101818856D01*
X148032500Y-101820000D01*
X147457500Y-101820000D01*
X147434221Y-101818856D01*
X147411166Y-101815437D01*
X147388557Y-101809773D01*
X147366613Y-101801921D01*
X147345543Y-101791956D01*
X147325552Y-101779974D01*
X147306832Y-101766090D01*
X147289562Y-101750438D01*
X147273910Y-101733168D01*
X147260026Y-101714448D01*
X147248044Y-101694457D01*
X147238079Y-101673387D01*
X147230227Y-101651443D01*
X147224563Y-101628834D01*
X147221144Y-101605779D01*
X147220000Y-101582500D01*
X147220000Y-101107500D01*
X147221144Y-101084221D01*
X147224563Y-101061166D01*
X147230227Y-101038557D01*
X147238079Y-101016613D01*
X147248044Y-100995543D01*
X147260026Y-100975552D01*
X147273910Y-100956832D01*
X147289562Y-100939562D01*
X147306832Y-100923910D01*
X147325552Y-100910026D01*
X147345543Y-100898044D01*
X147366613Y-100888079D01*
X147388557Y-100880227D01*
X147411166Y-100874563D01*
X147434221Y-100871144D01*
X147457500Y-100870000D01*
X148032500Y-100870000D01*
X148055779Y-100871144D01*
X148055779Y-100871144D01*
G37*
D17*
X147745000Y-101345000D03*
G04 #@! TD*
D18*
G04 #@! TO.C,JP1*
X155620000Y-99395000D03*
D14*
G36*
X154870000Y-99895000D02*
X154870000Y-99395000D01*
X154870602Y-99395000D01*
X154870602Y-99370466D01*
X154875412Y-99321635D01*
X154884984Y-99273510D01*
X154899228Y-99226555D01*
X154918005Y-99181222D01*
X154941136Y-99137949D01*
X154968396Y-99097150D01*
X154999524Y-99059221D01*
X155034221Y-99024524D01*
X155072150Y-98993396D01*
X155112949Y-98966136D01*
X155156222Y-98943005D01*
X155201555Y-98924228D01*
X155248510Y-98909984D01*
X155296635Y-98900412D01*
X155345466Y-98895602D01*
X155370000Y-98895602D01*
X155370000Y-98895000D01*
X155870000Y-98895000D01*
X155870000Y-98895602D01*
X155894534Y-98895602D01*
X155943365Y-98900412D01*
X155991490Y-98909984D01*
X156038445Y-98924228D01*
X156083778Y-98943005D01*
X156127051Y-98966136D01*
X156167850Y-98993396D01*
X156205779Y-99024524D01*
X156240476Y-99059221D01*
X156271604Y-99097150D01*
X156298864Y-99137949D01*
X156321995Y-99181222D01*
X156340772Y-99226555D01*
X156355016Y-99273510D01*
X156364588Y-99321635D01*
X156369398Y-99370466D01*
X156369398Y-99395000D01*
X156370000Y-99395000D01*
X156370000Y-99895000D01*
X154870000Y-99895000D01*
X154870000Y-99895000D01*
G37*
D18*
X155620000Y-100695000D03*
D14*
G36*
X156369398Y-100695000D02*
X156369398Y-100719534D01*
X156364588Y-100768365D01*
X156355016Y-100816490D01*
X156340772Y-100863445D01*
X156321995Y-100908778D01*
X156298864Y-100952051D01*
X156271604Y-100992850D01*
X156240476Y-101030779D01*
X156205779Y-101065476D01*
X156167850Y-101096604D01*
X156127051Y-101123864D01*
X156083778Y-101146995D01*
X156038445Y-101165772D01*
X155991490Y-101180016D01*
X155943365Y-101189588D01*
X155894534Y-101194398D01*
X155870000Y-101194398D01*
X155870000Y-101195000D01*
X155370000Y-101195000D01*
X155370000Y-101194398D01*
X155345466Y-101194398D01*
X155296635Y-101189588D01*
X155248510Y-101180016D01*
X155201555Y-101165772D01*
X155156222Y-101146995D01*
X155112949Y-101123864D01*
X155072150Y-101096604D01*
X155034221Y-101065476D01*
X154999524Y-101030779D01*
X154968396Y-100992850D01*
X154941136Y-100952051D01*
X154918005Y-100908778D01*
X154899228Y-100863445D01*
X154884984Y-100816490D01*
X154875412Y-100768365D01*
X154870602Y-100719534D01*
X154870602Y-100695000D01*
X154870000Y-100695000D01*
X154870000Y-100195000D01*
X156370000Y-100195000D01*
X156370000Y-100695000D01*
X156369398Y-100695000D01*
X156369398Y-100695000D01*
G37*
G04 #@! TD*
G04 #@! TO.C,R16*
G36*
X144380779Y-75046144D02*
X144403834Y-75049563D01*
X144426443Y-75055227D01*
X144448387Y-75063079D01*
X144469457Y-75073044D01*
X144489448Y-75085026D01*
X144508168Y-75098910D01*
X144525438Y-75114562D01*
X144541090Y-75131832D01*
X144554974Y-75150552D01*
X144566956Y-75170543D01*
X144576921Y-75191613D01*
X144584773Y-75213557D01*
X144590437Y-75236166D01*
X144593856Y-75259221D01*
X144595000Y-75282500D01*
X144595000Y-75857500D01*
X144593856Y-75880779D01*
X144590437Y-75903834D01*
X144584773Y-75926443D01*
X144576921Y-75948387D01*
X144566956Y-75969457D01*
X144554974Y-75989448D01*
X144541090Y-76008168D01*
X144525438Y-76025438D01*
X144508168Y-76041090D01*
X144489448Y-76054974D01*
X144469457Y-76066956D01*
X144448387Y-76076921D01*
X144426443Y-76084773D01*
X144403834Y-76090437D01*
X144380779Y-76093856D01*
X144357500Y-76095000D01*
X143882500Y-76095000D01*
X143859221Y-76093856D01*
X143836166Y-76090437D01*
X143813557Y-76084773D01*
X143791613Y-76076921D01*
X143770543Y-76066956D01*
X143750552Y-76054974D01*
X143731832Y-76041090D01*
X143714562Y-76025438D01*
X143698910Y-76008168D01*
X143685026Y-75989448D01*
X143673044Y-75969457D01*
X143663079Y-75948387D01*
X143655227Y-75926443D01*
X143649563Y-75903834D01*
X143646144Y-75880779D01*
X143645000Y-75857500D01*
X143645000Y-75282500D01*
X143646144Y-75259221D01*
X143649563Y-75236166D01*
X143655227Y-75213557D01*
X143663079Y-75191613D01*
X143673044Y-75170543D01*
X143685026Y-75150552D01*
X143698910Y-75131832D01*
X143714562Y-75114562D01*
X143731832Y-75098910D01*
X143750552Y-75085026D01*
X143770543Y-75073044D01*
X143791613Y-75063079D01*
X143813557Y-75055227D01*
X143836166Y-75049563D01*
X143859221Y-75046144D01*
X143882500Y-75045000D01*
X144357500Y-75045000D01*
X144380779Y-75046144D01*
X144380779Y-75046144D01*
G37*
D17*
X144120000Y-75570000D03*
D14*
G36*
X144380779Y-76796144D02*
X144403834Y-76799563D01*
X144426443Y-76805227D01*
X144448387Y-76813079D01*
X144469457Y-76823044D01*
X144489448Y-76835026D01*
X144508168Y-76848910D01*
X144525438Y-76864562D01*
X144541090Y-76881832D01*
X144554974Y-76900552D01*
X144566956Y-76920543D01*
X144576921Y-76941613D01*
X144584773Y-76963557D01*
X144590437Y-76986166D01*
X144593856Y-77009221D01*
X144595000Y-77032500D01*
X144595000Y-77607500D01*
X144593856Y-77630779D01*
X144590437Y-77653834D01*
X144584773Y-77676443D01*
X144576921Y-77698387D01*
X144566956Y-77719457D01*
X144554974Y-77739448D01*
X144541090Y-77758168D01*
X144525438Y-77775438D01*
X144508168Y-77791090D01*
X144489448Y-77804974D01*
X144469457Y-77816956D01*
X144448387Y-77826921D01*
X144426443Y-77834773D01*
X144403834Y-77840437D01*
X144380779Y-77843856D01*
X144357500Y-77845000D01*
X143882500Y-77845000D01*
X143859221Y-77843856D01*
X143836166Y-77840437D01*
X143813557Y-77834773D01*
X143791613Y-77826921D01*
X143770543Y-77816956D01*
X143750552Y-77804974D01*
X143731832Y-77791090D01*
X143714562Y-77775438D01*
X143698910Y-77758168D01*
X143685026Y-77739448D01*
X143673044Y-77719457D01*
X143663079Y-77698387D01*
X143655227Y-77676443D01*
X143649563Y-77653834D01*
X143646144Y-77630779D01*
X143645000Y-77607500D01*
X143645000Y-77032500D01*
X143646144Y-77009221D01*
X143649563Y-76986166D01*
X143655227Y-76963557D01*
X143663079Y-76941613D01*
X143673044Y-76920543D01*
X143685026Y-76900552D01*
X143698910Y-76881832D01*
X143714562Y-76864562D01*
X143731832Y-76848910D01*
X143750552Y-76835026D01*
X143770543Y-76823044D01*
X143791613Y-76813079D01*
X143813557Y-76805227D01*
X143836166Y-76799563D01*
X143859221Y-76796144D01*
X143882500Y-76795000D01*
X144357500Y-76795000D01*
X144380779Y-76796144D01*
X144380779Y-76796144D01*
G37*
D17*
X144120000Y-77320000D03*
G04 #@! TD*
D14*
G04 #@! TO.C,R18*
G36*
X151755779Y-98471144D02*
X151778834Y-98474563D01*
X151801443Y-98480227D01*
X151823387Y-98488079D01*
X151844457Y-98498044D01*
X151864448Y-98510026D01*
X151883168Y-98523910D01*
X151900438Y-98539562D01*
X151916090Y-98556832D01*
X151929974Y-98575552D01*
X151941956Y-98595543D01*
X151951921Y-98616613D01*
X151959773Y-98638557D01*
X151965437Y-98661166D01*
X151968856Y-98684221D01*
X151970000Y-98707500D01*
X151970000Y-99182500D01*
X151968856Y-99205779D01*
X151965437Y-99228834D01*
X151959773Y-99251443D01*
X151951921Y-99273387D01*
X151941956Y-99294457D01*
X151929974Y-99314448D01*
X151916090Y-99333168D01*
X151900438Y-99350438D01*
X151883168Y-99366090D01*
X151864448Y-99379974D01*
X151844457Y-99391956D01*
X151823387Y-99401921D01*
X151801443Y-99409773D01*
X151778834Y-99415437D01*
X151755779Y-99418856D01*
X151732500Y-99420000D01*
X151157500Y-99420000D01*
X151134221Y-99418856D01*
X151111166Y-99415437D01*
X151088557Y-99409773D01*
X151066613Y-99401921D01*
X151045543Y-99391956D01*
X151025552Y-99379974D01*
X151006832Y-99366090D01*
X150989562Y-99350438D01*
X150973910Y-99333168D01*
X150960026Y-99314448D01*
X150948044Y-99294457D01*
X150938079Y-99273387D01*
X150930227Y-99251443D01*
X150924563Y-99228834D01*
X150921144Y-99205779D01*
X150920000Y-99182500D01*
X150920000Y-98707500D01*
X150921144Y-98684221D01*
X150924563Y-98661166D01*
X150930227Y-98638557D01*
X150938079Y-98616613D01*
X150948044Y-98595543D01*
X150960026Y-98575552D01*
X150973910Y-98556832D01*
X150989562Y-98539562D01*
X151006832Y-98523910D01*
X151025552Y-98510026D01*
X151045543Y-98498044D01*
X151066613Y-98488079D01*
X151088557Y-98480227D01*
X151111166Y-98474563D01*
X151134221Y-98471144D01*
X151157500Y-98470000D01*
X151732500Y-98470000D01*
X151755779Y-98471144D01*
X151755779Y-98471144D01*
G37*
D17*
X151445000Y-98945000D03*
D14*
G36*
X153505779Y-98471144D02*
X153528834Y-98474563D01*
X153551443Y-98480227D01*
X153573387Y-98488079D01*
X153594457Y-98498044D01*
X153614448Y-98510026D01*
X153633168Y-98523910D01*
X153650438Y-98539562D01*
X153666090Y-98556832D01*
X153679974Y-98575552D01*
X153691956Y-98595543D01*
X153701921Y-98616613D01*
X153709773Y-98638557D01*
X153715437Y-98661166D01*
X153718856Y-98684221D01*
X153720000Y-98707500D01*
X153720000Y-99182500D01*
X153718856Y-99205779D01*
X153715437Y-99228834D01*
X153709773Y-99251443D01*
X153701921Y-99273387D01*
X153691956Y-99294457D01*
X153679974Y-99314448D01*
X153666090Y-99333168D01*
X153650438Y-99350438D01*
X153633168Y-99366090D01*
X153614448Y-99379974D01*
X153594457Y-99391956D01*
X153573387Y-99401921D01*
X153551443Y-99409773D01*
X153528834Y-99415437D01*
X153505779Y-99418856D01*
X153482500Y-99420000D01*
X152907500Y-99420000D01*
X152884221Y-99418856D01*
X152861166Y-99415437D01*
X152838557Y-99409773D01*
X152816613Y-99401921D01*
X152795543Y-99391956D01*
X152775552Y-99379974D01*
X152756832Y-99366090D01*
X152739562Y-99350438D01*
X152723910Y-99333168D01*
X152710026Y-99314448D01*
X152698044Y-99294457D01*
X152688079Y-99273387D01*
X152680227Y-99251443D01*
X152674563Y-99228834D01*
X152671144Y-99205779D01*
X152670000Y-99182500D01*
X152670000Y-98707500D01*
X152671144Y-98684221D01*
X152674563Y-98661166D01*
X152680227Y-98638557D01*
X152688079Y-98616613D01*
X152698044Y-98595543D01*
X152710026Y-98575552D01*
X152723910Y-98556832D01*
X152739562Y-98539562D01*
X152756832Y-98523910D01*
X152775552Y-98510026D01*
X152795543Y-98498044D01*
X152816613Y-98488079D01*
X152838557Y-98480227D01*
X152861166Y-98474563D01*
X152884221Y-98471144D01*
X152907500Y-98470000D01*
X153482500Y-98470000D01*
X153505779Y-98471144D01*
X153505779Y-98471144D01*
G37*
D17*
X153195000Y-98945000D03*
G04 #@! TD*
D14*
G04 #@! TO.C,R19*
G36*
X149705779Y-98471144D02*
X149728834Y-98474563D01*
X149751443Y-98480227D01*
X149773387Y-98488079D01*
X149794457Y-98498044D01*
X149814448Y-98510026D01*
X149833168Y-98523910D01*
X149850438Y-98539562D01*
X149866090Y-98556832D01*
X149879974Y-98575552D01*
X149891956Y-98595543D01*
X149901921Y-98616613D01*
X149909773Y-98638557D01*
X149915437Y-98661166D01*
X149918856Y-98684221D01*
X149920000Y-98707500D01*
X149920000Y-99182500D01*
X149918856Y-99205779D01*
X149915437Y-99228834D01*
X149909773Y-99251443D01*
X149901921Y-99273387D01*
X149891956Y-99294457D01*
X149879974Y-99314448D01*
X149866090Y-99333168D01*
X149850438Y-99350438D01*
X149833168Y-99366090D01*
X149814448Y-99379974D01*
X149794457Y-99391956D01*
X149773387Y-99401921D01*
X149751443Y-99409773D01*
X149728834Y-99415437D01*
X149705779Y-99418856D01*
X149682500Y-99420000D01*
X149107500Y-99420000D01*
X149084221Y-99418856D01*
X149061166Y-99415437D01*
X149038557Y-99409773D01*
X149016613Y-99401921D01*
X148995543Y-99391956D01*
X148975552Y-99379974D01*
X148956832Y-99366090D01*
X148939562Y-99350438D01*
X148923910Y-99333168D01*
X148910026Y-99314448D01*
X148898044Y-99294457D01*
X148888079Y-99273387D01*
X148880227Y-99251443D01*
X148874563Y-99228834D01*
X148871144Y-99205779D01*
X148870000Y-99182500D01*
X148870000Y-98707500D01*
X148871144Y-98684221D01*
X148874563Y-98661166D01*
X148880227Y-98638557D01*
X148888079Y-98616613D01*
X148898044Y-98595543D01*
X148910026Y-98575552D01*
X148923910Y-98556832D01*
X148939562Y-98539562D01*
X148956832Y-98523910D01*
X148975552Y-98510026D01*
X148995543Y-98498044D01*
X149016613Y-98488079D01*
X149038557Y-98480227D01*
X149061166Y-98474563D01*
X149084221Y-98471144D01*
X149107500Y-98470000D01*
X149682500Y-98470000D01*
X149705779Y-98471144D01*
X149705779Y-98471144D01*
G37*
D17*
X149395000Y-98945000D03*
D14*
G36*
X147955779Y-98471144D02*
X147978834Y-98474563D01*
X148001443Y-98480227D01*
X148023387Y-98488079D01*
X148044457Y-98498044D01*
X148064448Y-98510026D01*
X148083168Y-98523910D01*
X148100438Y-98539562D01*
X148116090Y-98556832D01*
X148129974Y-98575552D01*
X148141956Y-98595543D01*
X148151921Y-98616613D01*
X148159773Y-98638557D01*
X148165437Y-98661166D01*
X148168856Y-98684221D01*
X148170000Y-98707500D01*
X148170000Y-99182500D01*
X148168856Y-99205779D01*
X148165437Y-99228834D01*
X148159773Y-99251443D01*
X148151921Y-99273387D01*
X148141956Y-99294457D01*
X148129974Y-99314448D01*
X148116090Y-99333168D01*
X148100438Y-99350438D01*
X148083168Y-99366090D01*
X148064448Y-99379974D01*
X148044457Y-99391956D01*
X148023387Y-99401921D01*
X148001443Y-99409773D01*
X147978834Y-99415437D01*
X147955779Y-99418856D01*
X147932500Y-99420000D01*
X147357500Y-99420000D01*
X147334221Y-99418856D01*
X147311166Y-99415437D01*
X147288557Y-99409773D01*
X147266613Y-99401921D01*
X147245543Y-99391956D01*
X147225552Y-99379974D01*
X147206832Y-99366090D01*
X147189562Y-99350438D01*
X147173910Y-99333168D01*
X147160026Y-99314448D01*
X147148044Y-99294457D01*
X147138079Y-99273387D01*
X147130227Y-99251443D01*
X147124563Y-99228834D01*
X147121144Y-99205779D01*
X147120000Y-99182500D01*
X147120000Y-98707500D01*
X147121144Y-98684221D01*
X147124563Y-98661166D01*
X147130227Y-98638557D01*
X147138079Y-98616613D01*
X147148044Y-98595543D01*
X147160026Y-98575552D01*
X147173910Y-98556832D01*
X147189562Y-98539562D01*
X147206832Y-98523910D01*
X147225552Y-98510026D01*
X147245543Y-98498044D01*
X147266613Y-98488079D01*
X147288557Y-98480227D01*
X147311166Y-98474563D01*
X147334221Y-98471144D01*
X147357500Y-98470000D01*
X147932500Y-98470000D01*
X147955779Y-98471144D01*
X147955779Y-98471144D01*
G37*
D17*
X147645000Y-98945000D03*
G04 #@! TD*
M02*
