G04 #@! TF.GenerationSoftware,KiCad,Pcbnew,5.0.2-bee76a0~70~ubuntu16.04.1*
G04 #@! TF.CreationDate,2020-01-18T11:10:10+00:00*
G04 #@! TF.ProjectId,transmitter,7472616e-736d-4697-9474-65722e6b6963,2.0.0*
G04 #@! TF.SameCoordinates,Original*
G04 #@! TF.FileFunction,Soldermask,Top*
G04 #@! TF.FilePolarity,Negative*
%FSLAX46Y46*%
G04 Gerber Fmt 4.6, Leading zero omitted, Abs format (unit mm)*
G04 Created by KiCad (PCBNEW 5.0.2-bee76a0~70~ubuntu16.04.1) date Sat 18 Jan 2020 11:10:10 GMT*
%MOMM*%
%LPD*%
G01*
G04 APERTURE LIST*
%ADD10C,0.150000*%
%ADD11C,0.127000*%
%ADD12C,0.076200*%
%ADD13C,0.101600*%
%ADD14C,1.524000*%
%ADD15C,0.500000*%
%ADD16C,0.950000*%
%ADD17C,1.397000*%
%ADD18R,1.700000X1.700000*%
%ADD19O,1.700000X1.700000*%
%ADD20C,1.700000*%
%ADD21O,2.000000X1.700000*%
%ADD22R,0.800000X0.900000*%
%ADD23R,0.600000X2.200000*%
%ADD24R,3.450000X2.150000*%
%ADD25R,1.560000X0.650000*%
%ADD26R,1.500000X0.600000*%
%ADD27C,1.150000*%
%ADD28R,1.000000X0.700000*%
%ADD29C,0.500000*%
%ADD30C,1.000000*%
G04 APERTURE END LIST*
D10*
G04 #@! TO.C,REF\002A\002A*
X126391623Y-109425000D02*
G75*
G03X126391623Y-109425000I-31623J0D01*
G01*
D11*
X126630000Y-109505000D02*
G75*
G03X126630000Y-109505000I-410000J0D01*
G01*
D10*
X126111623Y-109425000D02*
G75*
G03X126111623Y-109425000I-31623J0D01*
G01*
D12*
X126030000Y-109645000D02*
X126150000Y-109715000D01*
X126150000Y-109715000D02*
X126280000Y-109705000D01*
X126280000Y-109705000D02*
X126400000Y-109615000D01*
D13*
X126110000Y-109035000D02*
X125840000Y-108895000D01*
X125840000Y-108895000D02*
X125560000Y-108965000D01*
X125560000Y-108965000D02*
X125450000Y-109155000D01*
X125450000Y-109155000D02*
X125560000Y-109325000D01*
X125560000Y-109325000D02*
X125770000Y-109375000D01*
X125780000Y-109445000D02*
X125510000Y-109495000D01*
X125510000Y-109495000D02*
X125420000Y-109645000D01*
X125420000Y-109645000D02*
X125460000Y-109775000D01*
X125460000Y-109775000D02*
X125580000Y-109855000D01*
X125580000Y-109855000D02*
X125830000Y-109795000D01*
X125850000Y-109815000D02*
X125770000Y-110015000D01*
X125770000Y-110015000D02*
X125780000Y-110205000D01*
X125780000Y-110205000D02*
X125890000Y-110245000D01*
X125890000Y-110245000D02*
X126010000Y-110205000D01*
X126010000Y-110205000D02*
X126070000Y-110095000D01*
X126070000Y-110095000D02*
X126090000Y-109985000D01*
X126090000Y-109985000D02*
X126110000Y-109965000D01*
X126110000Y-109965000D02*
X126080000Y-109985000D01*
X126080000Y-109985000D02*
X126070000Y-109955000D01*
X126180000Y-109075000D02*
X126270000Y-108805000D01*
X126270000Y-108805000D02*
X126430000Y-108745000D01*
X126430000Y-108745000D02*
X126600000Y-108775000D01*
X126600000Y-108775000D02*
X126650000Y-108885000D01*
X126650000Y-108885000D02*
X126630000Y-108995000D01*
X126630000Y-108995000D02*
X126540000Y-109135000D01*
X126510000Y-109125000D02*
X126880000Y-109115000D01*
X126880000Y-109115000D02*
X126990000Y-109215000D01*
X126990000Y-109215000D02*
X127010000Y-109365000D01*
X127010000Y-109365000D02*
X126910000Y-109435000D01*
X126910000Y-109435000D02*
X126760000Y-109445000D01*
X126760000Y-109445000D02*
X126660000Y-109445000D01*
X126660000Y-109475000D02*
X126840000Y-109585000D01*
X126840000Y-109585000D02*
X126940000Y-109725000D01*
X126940000Y-109725000D02*
X126940000Y-109865000D01*
X126940000Y-109865000D02*
X126900000Y-109965000D01*
X126900000Y-109965000D02*
X126790000Y-110005000D01*
X126790000Y-110005000D02*
X126660000Y-109975000D01*
X126660000Y-109975000D02*
X126570000Y-109845000D01*
X126140000Y-109975000D02*
X126210000Y-110165000D01*
X126210000Y-110165000D02*
X126330000Y-110295000D01*
X126330000Y-110295000D02*
X126450000Y-110265000D01*
X126450000Y-110265000D02*
X126500000Y-110175000D01*
X126500000Y-110175000D02*
X126480000Y-110075000D01*
X126480000Y-110075000D02*
X126480000Y-109905000D01*
X126110000Y-110065000D02*
X126200000Y-110495000D01*
X126200000Y-110495000D02*
X126420000Y-110795000D01*
X126420000Y-110795000D02*
X126540000Y-111075000D01*
X126540000Y-111075000D02*
X126500000Y-111295000D01*
X126500000Y-111295000D02*
X126660000Y-110775000D01*
G04 #@! TD*
D14*
G04 #@! TO.C,U1*
X137200000Y-67945000D03*
X137200000Y-70485000D03*
X137200000Y-73025000D03*
X137200000Y-75565000D03*
X137200000Y-78105000D03*
X137200000Y-80645000D03*
X137200000Y-83185000D03*
X137200000Y-85725000D03*
X137200000Y-88265000D03*
X137200000Y-90805000D03*
X137200000Y-93345000D03*
X137200000Y-95885000D03*
X137200000Y-98425000D03*
X137200000Y-100965000D03*
X137200000Y-103505000D03*
X160060000Y-103505000D03*
X160060000Y-100965000D03*
X160060000Y-98425000D03*
X160060000Y-95885000D03*
X160060000Y-93345000D03*
X160060000Y-90805000D03*
X160060000Y-88265000D03*
X160060000Y-85725000D03*
X160060000Y-83185000D03*
X160060000Y-80645000D03*
X160060000Y-78105000D03*
X160060000Y-75565000D03*
X160060000Y-73025000D03*
X160060000Y-70485000D03*
X160060000Y-67945000D03*
G04 #@! TD*
D15*
G04 #@! TO.C,C6*
G36*
X127305779Y-95471144D02*
X127328834Y-95474563D01*
X127351443Y-95480227D01*
X127373387Y-95488079D01*
X127394457Y-95498044D01*
X127414448Y-95510026D01*
X127433168Y-95523910D01*
X127450438Y-95539562D01*
X127466090Y-95556832D01*
X127479974Y-95575552D01*
X127491956Y-95595543D01*
X127501921Y-95616613D01*
X127509773Y-95638557D01*
X127515437Y-95661166D01*
X127518856Y-95684221D01*
X127520000Y-95707500D01*
X127520000Y-96182500D01*
X127518856Y-96205779D01*
X127515437Y-96228834D01*
X127509773Y-96251443D01*
X127501921Y-96273387D01*
X127491956Y-96294457D01*
X127479974Y-96314448D01*
X127466090Y-96333168D01*
X127450438Y-96350438D01*
X127433168Y-96366090D01*
X127414448Y-96379974D01*
X127394457Y-96391956D01*
X127373387Y-96401921D01*
X127351443Y-96409773D01*
X127328834Y-96415437D01*
X127305779Y-96418856D01*
X127282500Y-96420000D01*
X126707500Y-96420000D01*
X126684221Y-96418856D01*
X126661166Y-96415437D01*
X126638557Y-96409773D01*
X126616613Y-96401921D01*
X126595543Y-96391956D01*
X126575552Y-96379974D01*
X126556832Y-96366090D01*
X126539562Y-96350438D01*
X126523910Y-96333168D01*
X126510026Y-96314448D01*
X126498044Y-96294457D01*
X126488079Y-96273387D01*
X126480227Y-96251443D01*
X126474563Y-96228834D01*
X126471144Y-96205779D01*
X126470000Y-96182500D01*
X126470000Y-95707500D01*
X126471144Y-95684221D01*
X126474563Y-95661166D01*
X126480227Y-95638557D01*
X126488079Y-95616613D01*
X126498044Y-95595543D01*
X126510026Y-95575552D01*
X126523910Y-95556832D01*
X126539562Y-95539562D01*
X126556832Y-95523910D01*
X126575552Y-95510026D01*
X126595543Y-95498044D01*
X126616613Y-95488079D01*
X126638557Y-95480227D01*
X126661166Y-95474563D01*
X126684221Y-95471144D01*
X126707500Y-95470000D01*
X127282500Y-95470000D01*
X127305779Y-95471144D01*
X127305779Y-95471144D01*
G37*
D16*
X126995000Y-95945000D03*
D15*
G36*
X125555779Y-95471144D02*
X125578834Y-95474563D01*
X125601443Y-95480227D01*
X125623387Y-95488079D01*
X125644457Y-95498044D01*
X125664448Y-95510026D01*
X125683168Y-95523910D01*
X125700438Y-95539562D01*
X125716090Y-95556832D01*
X125729974Y-95575552D01*
X125741956Y-95595543D01*
X125751921Y-95616613D01*
X125759773Y-95638557D01*
X125765437Y-95661166D01*
X125768856Y-95684221D01*
X125770000Y-95707500D01*
X125770000Y-96182500D01*
X125768856Y-96205779D01*
X125765437Y-96228834D01*
X125759773Y-96251443D01*
X125751921Y-96273387D01*
X125741956Y-96294457D01*
X125729974Y-96314448D01*
X125716090Y-96333168D01*
X125700438Y-96350438D01*
X125683168Y-96366090D01*
X125664448Y-96379974D01*
X125644457Y-96391956D01*
X125623387Y-96401921D01*
X125601443Y-96409773D01*
X125578834Y-96415437D01*
X125555779Y-96418856D01*
X125532500Y-96420000D01*
X124957500Y-96420000D01*
X124934221Y-96418856D01*
X124911166Y-96415437D01*
X124888557Y-96409773D01*
X124866613Y-96401921D01*
X124845543Y-96391956D01*
X124825552Y-96379974D01*
X124806832Y-96366090D01*
X124789562Y-96350438D01*
X124773910Y-96333168D01*
X124760026Y-96314448D01*
X124748044Y-96294457D01*
X124738079Y-96273387D01*
X124730227Y-96251443D01*
X124724563Y-96228834D01*
X124721144Y-96205779D01*
X124720000Y-96182500D01*
X124720000Y-95707500D01*
X124721144Y-95684221D01*
X124724563Y-95661166D01*
X124730227Y-95638557D01*
X124738079Y-95616613D01*
X124748044Y-95595543D01*
X124760026Y-95575552D01*
X124773910Y-95556832D01*
X124789562Y-95539562D01*
X124806832Y-95523910D01*
X124825552Y-95510026D01*
X124845543Y-95498044D01*
X124866613Y-95488079D01*
X124888557Y-95480227D01*
X124911166Y-95474563D01*
X124934221Y-95471144D01*
X124957500Y-95470000D01*
X125532500Y-95470000D01*
X125555779Y-95471144D01*
X125555779Y-95471144D01*
G37*
D16*
X125245000Y-95945000D03*
G04 #@! TD*
D17*
G04 #@! TO.C,SW1*
X116500000Y-108945000D03*
X116500000Y-103865000D03*
X124120000Y-108945000D03*
X124120000Y-103865000D03*
G04 #@! TD*
D15*
G04 #@! TO.C,C5*
G36*
X146330779Y-106921144D02*
X146353834Y-106924563D01*
X146376443Y-106930227D01*
X146398387Y-106938079D01*
X146419457Y-106948044D01*
X146439448Y-106960026D01*
X146458168Y-106973910D01*
X146475438Y-106989562D01*
X146491090Y-107006832D01*
X146504974Y-107025552D01*
X146516956Y-107045543D01*
X146526921Y-107066613D01*
X146534773Y-107088557D01*
X146540437Y-107111166D01*
X146543856Y-107134221D01*
X146545000Y-107157500D01*
X146545000Y-107632500D01*
X146543856Y-107655779D01*
X146540437Y-107678834D01*
X146534773Y-107701443D01*
X146526921Y-107723387D01*
X146516956Y-107744457D01*
X146504974Y-107764448D01*
X146491090Y-107783168D01*
X146475438Y-107800438D01*
X146458168Y-107816090D01*
X146439448Y-107829974D01*
X146419457Y-107841956D01*
X146398387Y-107851921D01*
X146376443Y-107859773D01*
X146353834Y-107865437D01*
X146330779Y-107868856D01*
X146307500Y-107870000D01*
X145732500Y-107870000D01*
X145709221Y-107868856D01*
X145686166Y-107865437D01*
X145663557Y-107859773D01*
X145641613Y-107851921D01*
X145620543Y-107841956D01*
X145600552Y-107829974D01*
X145581832Y-107816090D01*
X145564562Y-107800438D01*
X145548910Y-107783168D01*
X145535026Y-107764448D01*
X145523044Y-107744457D01*
X145513079Y-107723387D01*
X145505227Y-107701443D01*
X145499563Y-107678834D01*
X145496144Y-107655779D01*
X145495000Y-107632500D01*
X145495000Y-107157500D01*
X145496144Y-107134221D01*
X145499563Y-107111166D01*
X145505227Y-107088557D01*
X145513079Y-107066613D01*
X145523044Y-107045543D01*
X145535026Y-107025552D01*
X145548910Y-107006832D01*
X145564562Y-106989562D01*
X145581832Y-106973910D01*
X145600552Y-106960026D01*
X145620543Y-106948044D01*
X145641613Y-106938079D01*
X145663557Y-106930227D01*
X145686166Y-106924563D01*
X145709221Y-106921144D01*
X145732500Y-106920000D01*
X146307500Y-106920000D01*
X146330779Y-106921144D01*
X146330779Y-106921144D01*
G37*
D16*
X146020000Y-107395000D03*
D15*
G36*
X144580779Y-106921144D02*
X144603834Y-106924563D01*
X144626443Y-106930227D01*
X144648387Y-106938079D01*
X144669457Y-106948044D01*
X144689448Y-106960026D01*
X144708168Y-106973910D01*
X144725438Y-106989562D01*
X144741090Y-107006832D01*
X144754974Y-107025552D01*
X144766956Y-107045543D01*
X144776921Y-107066613D01*
X144784773Y-107088557D01*
X144790437Y-107111166D01*
X144793856Y-107134221D01*
X144795000Y-107157500D01*
X144795000Y-107632500D01*
X144793856Y-107655779D01*
X144790437Y-107678834D01*
X144784773Y-107701443D01*
X144776921Y-107723387D01*
X144766956Y-107744457D01*
X144754974Y-107764448D01*
X144741090Y-107783168D01*
X144725438Y-107800438D01*
X144708168Y-107816090D01*
X144689448Y-107829974D01*
X144669457Y-107841956D01*
X144648387Y-107851921D01*
X144626443Y-107859773D01*
X144603834Y-107865437D01*
X144580779Y-107868856D01*
X144557500Y-107870000D01*
X143982500Y-107870000D01*
X143959221Y-107868856D01*
X143936166Y-107865437D01*
X143913557Y-107859773D01*
X143891613Y-107851921D01*
X143870543Y-107841956D01*
X143850552Y-107829974D01*
X143831832Y-107816090D01*
X143814562Y-107800438D01*
X143798910Y-107783168D01*
X143785026Y-107764448D01*
X143773044Y-107744457D01*
X143763079Y-107723387D01*
X143755227Y-107701443D01*
X143749563Y-107678834D01*
X143746144Y-107655779D01*
X143745000Y-107632500D01*
X143745000Y-107157500D01*
X143746144Y-107134221D01*
X143749563Y-107111166D01*
X143755227Y-107088557D01*
X143763079Y-107066613D01*
X143773044Y-107045543D01*
X143785026Y-107025552D01*
X143798910Y-107006832D01*
X143814562Y-106989562D01*
X143831832Y-106973910D01*
X143850552Y-106960026D01*
X143870543Y-106948044D01*
X143891613Y-106938079D01*
X143913557Y-106930227D01*
X143936166Y-106924563D01*
X143959221Y-106921144D01*
X143982500Y-106920000D01*
X144557500Y-106920000D01*
X144580779Y-106921144D01*
X144580779Y-106921144D01*
G37*
D16*
X144270000Y-107395000D03*
G04 #@! TD*
D18*
G04 #@! TO.C,SW2*
X128870000Y-108945000D03*
D19*
X131410000Y-108945000D03*
G04 #@! TD*
D18*
G04 #@! TO.C,J4*
X118620000Y-89945000D03*
D19*
X132620000Y-89945000D03*
G04 #@! TD*
D15*
G04 #@! TO.C,C2*
G36*
X156480779Y-69146144D02*
X156503834Y-69149563D01*
X156526443Y-69155227D01*
X156548387Y-69163079D01*
X156569457Y-69173044D01*
X156589448Y-69185026D01*
X156608168Y-69198910D01*
X156625438Y-69214562D01*
X156641090Y-69231832D01*
X156654974Y-69250552D01*
X156666956Y-69270543D01*
X156676921Y-69291613D01*
X156684773Y-69313557D01*
X156690437Y-69336166D01*
X156693856Y-69359221D01*
X156695000Y-69382500D01*
X156695000Y-69957500D01*
X156693856Y-69980779D01*
X156690437Y-70003834D01*
X156684773Y-70026443D01*
X156676921Y-70048387D01*
X156666956Y-70069457D01*
X156654974Y-70089448D01*
X156641090Y-70108168D01*
X156625438Y-70125438D01*
X156608168Y-70141090D01*
X156589448Y-70154974D01*
X156569457Y-70166956D01*
X156548387Y-70176921D01*
X156526443Y-70184773D01*
X156503834Y-70190437D01*
X156480779Y-70193856D01*
X156457500Y-70195000D01*
X155982500Y-70195000D01*
X155959221Y-70193856D01*
X155936166Y-70190437D01*
X155913557Y-70184773D01*
X155891613Y-70176921D01*
X155870543Y-70166956D01*
X155850552Y-70154974D01*
X155831832Y-70141090D01*
X155814562Y-70125438D01*
X155798910Y-70108168D01*
X155785026Y-70089448D01*
X155773044Y-70069457D01*
X155763079Y-70048387D01*
X155755227Y-70026443D01*
X155749563Y-70003834D01*
X155746144Y-69980779D01*
X155745000Y-69957500D01*
X155745000Y-69382500D01*
X155746144Y-69359221D01*
X155749563Y-69336166D01*
X155755227Y-69313557D01*
X155763079Y-69291613D01*
X155773044Y-69270543D01*
X155785026Y-69250552D01*
X155798910Y-69231832D01*
X155814562Y-69214562D01*
X155831832Y-69198910D01*
X155850552Y-69185026D01*
X155870543Y-69173044D01*
X155891613Y-69163079D01*
X155913557Y-69155227D01*
X155936166Y-69149563D01*
X155959221Y-69146144D01*
X155982500Y-69145000D01*
X156457500Y-69145000D01*
X156480779Y-69146144D01*
X156480779Y-69146144D01*
G37*
D16*
X156220000Y-69670000D03*
D15*
G36*
X156480779Y-70896144D02*
X156503834Y-70899563D01*
X156526443Y-70905227D01*
X156548387Y-70913079D01*
X156569457Y-70923044D01*
X156589448Y-70935026D01*
X156608168Y-70948910D01*
X156625438Y-70964562D01*
X156641090Y-70981832D01*
X156654974Y-71000552D01*
X156666956Y-71020543D01*
X156676921Y-71041613D01*
X156684773Y-71063557D01*
X156690437Y-71086166D01*
X156693856Y-71109221D01*
X156695000Y-71132500D01*
X156695000Y-71707500D01*
X156693856Y-71730779D01*
X156690437Y-71753834D01*
X156684773Y-71776443D01*
X156676921Y-71798387D01*
X156666956Y-71819457D01*
X156654974Y-71839448D01*
X156641090Y-71858168D01*
X156625438Y-71875438D01*
X156608168Y-71891090D01*
X156589448Y-71904974D01*
X156569457Y-71916956D01*
X156548387Y-71926921D01*
X156526443Y-71934773D01*
X156503834Y-71940437D01*
X156480779Y-71943856D01*
X156457500Y-71945000D01*
X155982500Y-71945000D01*
X155959221Y-71943856D01*
X155936166Y-71940437D01*
X155913557Y-71934773D01*
X155891613Y-71926921D01*
X155870543Y-71916956D01*
X155850552Y-71904974D01*
X155831832Y-71891090D01*
X155814562Y-71875438D01*
X155798910Y-71858168D01*
X155785026Y-71839448D01*
X155773044Y-71819457D01*
X155763079Y-71798387D01*
X155755227Y-71776443D01*
X155749563Y-71753834D01*
X155746144Y-71730779D01*
X155745000Y-71707500D01*
X155745000Y-71132500D01*
X155746144Y-71109221D01*
X155749563Y-71086166D01*
X155755227Y-71063557D01*
X155763079Y-71041613D01*
X155773044Y-71020543D01*
X155785026Y-71000552D01*
X155798910Y-70981832D01*
X155814562Y-70964562D01*
X155831832Y-70948910D01*
X155850552Y-70935026D01*
X155870543Y-70923044D01*
X155891613Y-70913079D01*
X155913557Y-70905227D01*
X155936166Y-70899563D01*
X155959221Y-70896144D01*
X155982500Y-70895000D01*
X156457500Y-70895000D01*
X156480779Y-70896144D01*
X156480779Y-70896144D01*
G37*
D16*
X156220000Y-71420000D03*
G04 #@! TD*
D15*
G04 #@! TO.C,C1*
G36*
X154280779Y-70896144D02*
X154303834Y-70899563D01*
X154326443Y-70905227D01*
X154348387Y-70913079D01*
X154369457Y-70923044D01*
X154389448Y-70935026D01*
X154408168Y-70948910D01*
X154425438Y-70964562D01*
X154441090Y-70981832D01*
X154454974Y-71000552D01*
X154466956Y-71020543D01*
X154476921Y-71041613D01*
X154484773Y-71063557D01*
X154490437Y-71086166D01*
X154493856Y-71109221D01*
X154495000Y-71132500D01*
X154495000Y-71707500D01*
X154493856Y-71730779D01*
X154490437Y-71753834D01*
X154484773Y-71776443D01*
X154476921Y-71798387D01*
X154466956Y-71819457D01*
X154454974Y-71839448D01*
X154441090Y-71858168D01*
X154425438Y-71875438D01*
X154408168Y-71891090D01*
X154389448Y-71904974D01*
X154369457Y-71916956D01*
X154348387Y-71926921D01*
X154326443Y-71934773D01*
X154303834Y-71940437D01*
X154280779Y-71943856D01*
X154257500Y-71945000D01*
X153782500Y-71945000D01*
X153759221Y-71943856D01*
X153736166Y-71940437D01*
X153713557Y-71934773D01*
X153691613Y-71926921D01*
X153670543Y-71916956D01*
X153650552Y-71904974D01*
X153631832Y-71891090D01*
X153614562Y-71875438D01*
X153598910Y-71858168D01*
X153585026Y-71839448D01*
X153573044Y-71819457D01*
X153563079Y-71798387D01*
X153555227Y-71776443D01*
X153549563Y-71753834D01*
X153546144Y-71730779D01*
X153545000Y-71707500D01*
X153545000Y-71132500D01*
X153546144Y-71109221D01*
X153549563Y-71086166D01*
X153555227Y-71063557D01*
X153563079Y-71041613D01*
X153573044Y-71020543D01*
X153585026Y-71000552D01*
X153598910Y-70981832D01*
X153614562Y-70964562D01*
X153631832Y-70948910D01*
X153650552Y-70935026D01*
X153670543Y-70923044D01*
X153691613Y-70913079D01*
X153713557Y-70905227D01*
X153736166Y-70899563D01*
X153759221Y-70896144D01*
X153782500Y-70895000D01*
X154257500Y-70895000D01*
X154280779Y-70896144D01*
X154280779Y-70896144D01*
G37*
D16*
X154020000Y-71420000D03*
D15*
G36*
X154280779Y-69146144D02*
X154303834Y-69149563D01*
X154326443Y-69155227D01*
X154348387Y-69163079D01*
X154369457Y-69173044D01*
X154389448Y-69185026D01*
X154408168Y-69198910D01*
X154425438Y-69214562D01*
X154441090Y-69231832D01*
X154454974Y-69250552D01*
X154466956Y-69270543D01*
X154476921Y-69291613D01*
X154484773Y-69313557D01*
X154490437Y-69336166D01*
X154493856Y-69359221D01*
X154495000Y-69382500D01*
X154495000Y-69957500D01*
X154493856Y-69980779D01*
X154490437Y-70003834D01*
X154484773Y-70026443D01*
X154476921Y-70048387D01*
X154466956Y-70069457D01*
X154454974Y-70089448D01*
X154441090Y-70108168D01*
X154425438Y-70125438D01*
X154408168Y-70141090D01*
X154389448Y-70154974D01*
X154369457Y-70166956D01*
X154348387Y-70176921D01*
X154326443Y-70184773D01*
X154303834Y-70190437D01*
X154280779Y-70193856D01*
X154257500Y-70195000D01*
X153782500Y-70195000D01*
X153759221Y-70193856D01*
X153736166Y-70190437D01*
X153713557Y-70184773D01*
X153691613Y-70176921D01*
X153670543Y-70166956D01*
X153650552Y-70154974D01*
X153631832Y-70141090D01*
X153614562Y-70125438D01*
X153598910Y-70108168D01*
X153585026Y-70089448D01*
X153573044Y-70069457D01*
X153563079Y-70048387D01*
X153555227Y-70026443D01*
X153549563Y-70003834D01*
X153546144Y-69980779D01*
X153545000Y-69957500D01*
X153545000Y-69382500D01*
X153546144Y-69359221D01*
X153549563Y-69336166D01*
X153555227Y-69313557D01*
X153563079Y-69291613D01*
X153573044Y-69270543D01*
X153585026Y-69250552D01*
X153598910Y-69231832D01*
X153614562Y-69214562D01*
X153631832Y-69198910D01*
X153650552Y-69185026D01*
X153670543Y-69173044D01*
X153691613Y-69163079D01*
X153713557Y-69155227D01*
X153736166Y-69149563D01*
X153759221Y-69146144D01*
X153782500Y-69145000D01*
X154257500Y-69145000D01*
X154280779Y-69146144D01*
X154280779Y-69146144D01*
G37*
D16*
X154020000Y-69670000D03*
G04 #@! TD*
D15*
G04 #@! TO.C,C3*
G36*
X141380779Y-106046144D02*
X141403834Y-106049563D01*
X141426443Y-106055227D01*
X141448387Y-106063079D01*
X141469457Y-106073044D01*
X141489448Y-106085026D01*
X141508168Y-106098910D01*
X141525438Y-106114562D01*
X141541090Y-106131832D01*
X141554974Y-106150552D01*
X141566956Y-106170543D01*
X141576921Y-106191613D01*
X141584773Y-106213557D01*
X141590437Y-106236166D01*
X141593856Y-106259221D01*
X141595000Y-106282500D01*
X141595000Y-106857500D01*
X141593856Y-106880779D01*
X141590437Y-106903834D01*
X141584773Y-106926443D01*
X141576921Y-106948387D01*
X141566956Y-106969457D01*
X141554974Y-106989448D01*
X141541090Y-107008168D01*
X141525438Y-107025438D01*
X141508168Y-107041090D01*
X141489448Y-107054974D01*
X141469457Y-107066956D01*
X141448387Y-107076921D01*
X141426443Y-107084773D01*
X141403834Y-107090437D01*
X141380779Y-107093856D01*
X141357500Y-107095000D01*
X140882500Y-107095000D01*
X140859221Y-107093856D01*
X140836166Y-107090437D01*
X140813557Y-107084773D01*
X140791613Y-107076921D01*
X140770543Y-107066956D01*
X140750552Y-107054974D01*
X140731832Y-107041090D01*
X140714562Y-107025438D01*
X140698910Y-107008168D01*
X140685026Y-106989448D01*
X140673044Y-106969457D01*
X140663079Y-106948387D01*
X140655227Y-106926443D01*
X140649563Y-106903834D01*
X140646144Y-106880779D01*
X140645000Y-106857500D01*
X140645000Y-106282500D01*
X140646144Y-106259221D01*
X140649563Y-106236166D01*
X140655227Y-106213557D01*
X140663079Y-106191613D01*
X140673044Y-106170543D01*
X140685026Y-106150552D01*
X140698910Y-106131832D01*
X140714562Y-106114562D01*
X140731832Y-106098910D01*
X140750552Y-106085026D01*
X140770543Y-106073044D01*
X140791613Y-106063079D01*
X140813557Y-106055227D01*
X140836166Y-106049563D01*
X140859221Y-106046144D01*
X140882500Y-106045000D01*
X141357500Y-106045000D01*
X141380779Y-106046144D01*
X141380779Y-106046144D01*
G37*
D16*
X141120000Y-106570000D03*
D15*
G36*
X141380779Y-104296144D02*
X141403834Y-104299563D01*
X141426443Y-104305227D01*
X141448387Y-104313079D01*
X141469457Y-104323044D01*
X141489448Y-104335026D01*
X141508168Y-104348910D01*
X141525438Y-104364562D01*
X141541090Y-104381832D01*
X141554974Y-104400552D01*
X141566956Y-104420543D01*
X141576921Y-104441613D01*
X141584773Y-104463557D01*
X141590437Y-104486166D01*
X141593856Y-104509221D01*
X141595000Y-104532500D01*
X141595000Y-105107500D01*
X141593856Y-105130779D01*
X141590437Y-105153834D01*
X141584773Y-105176443D01*
X141576921Y-105198387D01*
X141566956Y-105219457D01*
X141554974Y-105239448D01*
X141541090Y-105258168D01*
X141525438Y-105275438D01*
X141508168Y-105291090D01*
X141489448Y-105304974D01*
X141469457Y-105316956D01*
X141448387Y-105326921D01*
X141426443Y-105334773D01*
X141403834Y-105340437D01*
X141380779Y-105343856D01*
X141357500Y-105345000D01*
X140882500Y-105345000D01*
X140859221Y-105343856D01*
X140836166Y-105340437D01*
X140813557Y-105334773D01*
X140791613Y-105326921D01*
X140770543Y-105316956D01*
X140750552Y-105304974D01*
X140731832Y-105291090D01*
X140714562Y-105275438D01*
X140698910Y-105258168D01*
X140685026Y-105239448D01*
X140673044Y-105219457D01*
X140663079Y-105198387D01*
X140655227Y-105176443D01*
X140649563Y-105153834D01*
X140646144Y-105130779D01*
X140645000Y-105107500D01*
X140645000Y-104532500D01*
X140646144Y-104509221D01*
X140649563Y-104486166D01*
X140655227Y-104463557D01*
X140663079Y-104441613D01*
X140673044Y-104420543D01*
X140685026Y-104400552D01*
X140698910Y-104381832D01*
X140714562Y-104364562D01*
X140731832Y-104348910D01*
X140750552Y-104335026D01*
X140770543Y-104323044D01*
X140791613Y-104313079D01*
X140813557Y-104305227D01*
X140836166Y-104299563D01*
X140859221Y-104296144D01*
X140882500Y-104295000D01*
X141357500Y-104295000D01*
X141380779Y-104296144D01*
X141380779Y-104296144D01*
G37*
D16*
X141120000Y-104820000D03*
G04 #@! TD*
D15*
G04 #@! TO.C,C4*
G36*
X156255779Y-106871144D02*
X156278834Y-106874563D01*
X156301443Y-106880227D01*
X156323387Y-106888079D01*
X156344457Y-106898044D01*
X156364448Y-106910026D01*
X156383168Y-106923910D01*
X156400438Y-106939562D01*
X156416090Y-106956832D01*
X156429974Y-106975552D01*
X156441956Y-106995543D01*
X156451921Y-107016613D01*
X156459773Y-107038557D01*
X156465437Y-107061166D01*
X156468856Y-107084221D01*
X156470000Y-107107500D01*
X156470000Y-107582500D01*
X156468856Y-107605779D01*
X156465437Y-107628834D01*
X156459773Y-107651443D01*
X156451921Y-107673387D01*
X156441956Y-107694457D01*
X156429974Y-107714448D01*
X156416090Y-107733168D01*
X156400438Y-107750438D01*
X156383168Y-107766090D01*
X156364448Y-107779974D01*
X156344457Y-107791956D01*
X156323387Y-107801921D01*
X156301443Y-107809773D01*
X156278834Y-107815437D01*
X156255779Y-107818856D01*
X156232500Y-107820000D01*
X155657500Y-107820000D01*
X155634221Y-107818856D01*
X155611166Y-107815437D01*
X155588557Y-107809773D01*
X155566613Y-107801921D01*
X155545543Y-107791956D01*
X155525552Y-107779974D01*
X155506832Y-107766090D01*
X155489562Y-107750438D01*
X155473910Y-107733168D01*
X155460026Y-107714448D01*
X155448044Y-107694457D01*
X155438079Y-107673387D01*
X155430227Y-107651443D01*
X155424563Y-107628834D01*
X155421144Y-107605779D01*
X155420000Y-107582500D01*
X155420000Y-107107500D01*
X155421144Y-107084221D01*
X155424563Y-107061166D01*
X155430227Y-107038557D01*
X155438079Y-107016613D01*
X155448044Y-106995543D01*
X155460026Y-106975552D01*
X155473910Y-106956832D01*
X155489562Y-106939562D01*
X155506832Y-106923910D01*
X155525552Y-106910026D01*
X155545543Y-106898044D01*
X155566613Y-106888079D01*
X155588557Y-106880227D01*
X155611166Y-106874563D01*
X155634221Y-106871144D01*
X155657500Y-106870000D01*
X156232500Y-106870000D01*
X156255779Y-106871144D01*
X156255779Y-106871144D01*
G37*
D16*
X155945000Y-107345000D03*
D15*
G36*
X158005779Y-106871144D02*
X158028834Y-106874563D01*
X158051443Y-106880227D01*
X158073387Y-106888079D01*
X158094457Y-106898044D01*
X158114448Y-106910026D01*
X158133168Y-106923910D01*
X158150438Y-106939562D01*
X158166090Y-106956832D01*
X158179974Y-106975552D01*
X158191956Y-106995543D01*
X158201921Y-107016613D01*
X158209773Y-107038557D01*
X158215437Y-107061166D01*
X158218856Y-107084221D01*
X158220000Y-107107500D01*
X158220000Y-107582500D01*
X158218856Y-107605779D01*
X158215437Y-107628834D01*
X158209773Y-107651443D01*
X158201921Y-107673387D01*
X158191956Y-107694457D01*
X158179974Y-107714448D01*
X158166090Y-107733168D01*
X158150438Y-107750438D01*
X158133168Y-107766090D01*
X158114448Y-107779974D01*
X158094457Y-107791956D01*
X158073387Y-107801921D01*
X158051443Y-107809773D01*
X158028834Y-107815437D01*
X158005779Y-107818856D01*
X157982500Y-107820000D01*
X157407500Y-107820000D01*
X157384221Y-107818856D01*
X157361166Y-107815437D01*
X157338557Y-107809773D01*
X157316613Y-107801921D01*
X157295543Y-107791956D01*
X157275552Y-107779974D01*
X157256832Y-107766090D01*
X157239562Y-107750438D01*
X157223910Y-107733168D01*
X157210026Y-107714448D01*
X157198044Y-107694457D01*
X157188079Y-107673387D01*
X157180227Y-107651443D01*
X157174563Y-107628834D01*
X157171144Y-107605779D01*
X157170000Y-107582500D01*
X157170000Y-107107500D01*
X157171144Y-107084221D01*
X157174563Y-107061166D01*
X157180227Y-107038557D01*
X157188079Y-107016613D01*
X157198044Y-106995543D01*
X157210026Y-106975552D01*
X157223910Y-106956832D01*
X157239562Y-106939562D01*
X157256832Y-106923910D01*
X157275552Y-106910026D01*
X157295543Y-106898044D01*
X157316613Y-106888079D01*
X157338557Y-106880227D01*
X157361166Y-106874563D01*
X157384221Y-106871144D01*
X157407500Y-106870000D01*
X157982500Y-106870000D01*
X158005779Y-106871144D01*
X158005779Y-106871144D01*
G37*
D16*
X157695000Y-107345000D03*
G04 #@! TD*
D15*
G04 #@! TO.C,R1*
G36*
X149805779Y-86221144D02*
X149828834Y-86224563D01*
X149851443Y-86230227D01*
X149873387Y-86238079D01*
X149894457Y-86248044D01*
X149914448Y-86260026D01*
X149933168Y-86273910D01*
X149950438Y-86289562D01*
X149966090Y-86306832D01*
X149979974Y-86325552D01*
X149991956Y-86345543D01*
X150001921Y-86366613D01*
X150009773Y-86388557D01*
X150015437Y-86411166D01*
X150018856Y-86434221D01*
X150020000Y-86457500D01*
X150020000Y-86932500D01*
X150018856Y-86955779D01*
X150015437Y-86978834D01*
X150009773Y-87001443D01*
X150001921Y-87023387D01*
X149991956Y-87044457D01*
X149979974Y-87064448D01*
X149966090Y-87083168D01*
X149950438Y-87100438D01*
X149933168Y-87116090D01*
X149914448Y-87129974D01*
X149894457Y-87141956D01*
X149873387Y-87151921D01*
X149851443Y-87159773D01*
X149828834Y-87165437D01*
X149805779Y-87168856D01*
X149782500Y-87170000D01*
X149207500Y-87170000D01*
X149184221Y-87168856D01*
X149161166Y-87165437D01*
X149138557Y-87159773D01*
X149116613Y-87151921D01*
X149095543Y-87141956D01*
X149075552Y-87129974D01*
X149056832Y-87116090D01*
X149039562Y-87100438D01*
X149023910Y-87083168D01*
X149010026Y-87064448D01*
X148998044Y-87044457D01*
X148988079Y-87023387D01*
X148980227Y-87001443D01*
X148974563Y-86978834D01*
X148971144Y-86955779D01*
X148970000Y-86932500D01*
X148970000Y-86457500D01*
X148971144Y-86434221D01*
X148974563Y-86411166D01*
X148980227Y-86388557D01*
X148988079Y-86366613D01*
X148998044Y-86345543D01*
X149010026Y-86325552D01*
X149023910Y-86306832D01*
X149039562Y-86289562D01*
X149056832Y-86273910D01*
X149075552Y-86260026D01*
X149095543Y-86248044D01*
X149116613Y-86238079D01*
X149138557Y-86230227D01*
X149161166Y-86224563D01*
X149184221Y-86221144D01*
X149207500Y-86220000D01*
X149782500Y-86220000D01*
X149805779Y-86221144D01*
X149805779Y-86221144D01*
G37*
D16*
X149495000Y-86695000D03*
D15*
G36*
X148055779Y-86221144D02*
X148078834Y-86224563D01*
X148101443Y-86230227D01*
X148123387Y-86238079D01*
X148144457Y-86248044D01*
X148164448Y-86260026D01*
X148183168Y-86273910D01*
X148200438Y-86289562D01*
X148216090Y-86306832D01*
X148229974Y-86325552D01*
X148241956Y-86345543D01*
X148251921Y-86366613D01*
X148259773Y-86388557D01*
X148265437Y-86411166D01*
X148268856Y-86434221D01*
X148270000Y-86457500D01*
X148270000Y-86932500D01*
X148268856Y-86955779D01*
X148265437Y-86978834D01*
X148259773Y-87001443D01*
X148251921Y-87023387D01*
X148241956Y-87044457D01*
X148229974Y-87064448D01*
X148216090Y-87083168D01*
X148200438Y-87100438D01*
X148183168Y-87116090D01*
X148164448Y-87129974D01*
X148144457Y-87141956D01*
X148123387Y-87151921D01*
X148101443Y-87159773D01*
X148078834Y-87165437D01*
X148055779Y-87168856D01*
X148032500Y-87170000D01*
X147457500Y-87170000D01*
X147434221Y-87168856D01*
X147411166Y-87165437D01*
X147388557Y-87159773D01*
X147366613Y-87151921D01*
X147345543Y-87141956D01*
X147325552Y-87129974D01*
X147306832Y-87116090D01*
X147289562Y-87100438D01*
X147273910Y-87083168D01*
X147260026Y-87064448D01*
X147248044Y-87044457D01*
X147238079Y-87023387D01*
X147230227Y-87001443D01*
X147224563Y-86978834D01*
X147221144Y-86955779D01*
X147220000Y-86932500D01*
X147220000Y-86457500D01*
X147221144Y-86434221D01*
X147224563Y-86411166D01*
X147230227Y-86388557D01*
X147238079Y-86366613D01*
X147248044Y-86345543D01*
X147260026Y-86325552D01*
X147273910Y-86306832D01*
X147289562Y-86289562D01*
X147306832Y-86273910D01*
X147325552Y-86260026D01*
X147345543Y-86248044D01*
X147366613Y-86238079D01*
X147388557Y-86230227D01*
X147411166Y-86224563D01*
X147434221Y-86221144D01*
X147457500Y-86220000D01*
X148032500Y-86220000D01*
X148055779Y-86221144D01*
X148055779Y-86221144D01*
G37*
D16*
X147745000Y-86695000D03*
G04 #@! TD*
D15*
G04 #@! TO.C,R2*
G36*
X143305779Y-86221144D02*
X143328834Y-86224563D01*
X143351443Y-86230227D01*
X143373387Y-86238079D01*
X143394457Y-86248044D01*
X143414448Y-86260026D01*
X143433168Y-86273910D01*
X143450438Y-86289562D01*
X143466090Y-86306832D01*
X143479974Y-86325552D01*
X143491956Y-86345543D01*
X143501921Y-86366613D01*
X143509773Y-86388557D01*
X143515437Y-86411166D01*
X143518856Y-86434221D01*
X143520000Y-86457500D01*
X143520000Y-86932500D01*
X143518856Y-86955779D01*
X143515437Y-86978834D01*
X143509773Y-87001443D01*
X143501921Y-87023387D01*
X143491956Y-87044457D01*
X143479974Y-87064448D01*
X143466090Y-87083168D01*
X143450438Y-87100438D01*
X143433168Y-87116090D01*
X143414448Y-87129974D01*
X143394457Y-87141956D01*
X143373387Y-87151921D01*
X143351443Y-87159773D01*
X143328834Y-87165437D01*
X143305779Y-87168856D01*
X143282500Y-87170000D01*
X142707500Y-87170000D01*
X142684221Y-87168856D01*
X142661166Y-87165437D01*
X142638557Y-87159773D01*
X142616613Y-87151921D01*
X142595543Y-87141956D01*
X142575552Y-87129974D01*
X142556832Y-87116090D01*
X142539562Y-87100438D01*
X142523910Y-87083168D01*
X142510026Y-87064448D01*
X142498044Y-87044457D01*
X142488079Y-87023387D01*
X142480227Y-87001443D01*
X142474563Y-86978834D01*
X142471144Y-86955779D01*
X142470000Y-86932500D01*
X142470000Y-86457500D01*
X142471144Y-86434221D01*
X142474563Y-86411166D01*
X142480227Y-86388557D01*
X142488079Y-86366613D01*
X142498044Y-86345543D01*
X142510026Y-86325552D01*
X142523910Y-86306832D01*
X142539562Y-86289562D01*
X142556832Y-86273910D01*
X142575552Y-86260026D01*
X142595543Y-86248044D01*
X142616613Y-86238079D01*
X142638557Y-86230227D01*
X142661166Y-86224563D01*
X142684221Y-86221144D01*
X142707500Y-86220000D01*
X143282500Y-86220000D01*
X143305779Y-86221144D01*
X143305779Y-86221144D01*
G37*
D16*
X142995000Y-86695000D03*
D15*
G36*
X145055779Y-86221144D02*
X145078834Y-86224563D01*
X145101443Y-86230227D01*
X145123387Y-86238079D01*
X145144457Y-86248044D01*
X145164448Y-86260026D01*
X145183168Y-86273910D01*
X145200438Y-86289562D01*
X145216090Y-86306832D01*
X145229974Y-86325552D01*
X145241956Y-86345543D01*
X145251921Y-86366613D01*
X145259773Y-86388557D01*
X145265437Y-86411166D01*
X145268856Y-86434221D01*
X145270000Y-86457500D01*
X145270000Y-86932500D01*
X145268856Y-86955779D01*
X145265437Y-86978834D01*
X145259773Y-87001443D01*
X145251921Y-87023387D01*
X145241956Y-87044457D01*
X145229974Y-87064448D01*
X145216090Y-87083168D01*
X145200438Y-87100438D01*
X145183168Y-87116090D01*
X145164448Y-87129974D01*
X145144457Y-87141956D01*
X145123387Y-87151921D01*
X145101443Y-87159773D01*
X145078834Y-87165437D01*
X145055779Y-87168856D01*
X145032500Y-87170000D01*
X144457500Y-87170000D01*
X144434221Y-87168856D01*
X144411166Y-87165437D01*
X144388557Y-87159773D01*
X144366613Y-87151921D01*
X144345543Y-87141956D01*
X144325552Y-87129974D01*
X144306832Y-87116090D01*
X144289562Y-87100438D01*
X144273910Y-87083168D01*
X144260026Y-87064448D01*
X144248044Y-87044457D01*
X144238079Y-87023387D01*
X144230227Y-87001443D01*
X144224563Y-86978834D01*
X144221144Y-86955779D01*
X144220000Y-86932500D01*
X144220000Y-86457500D01*
X144221144Y-86434221D01*
X144224563Y-86411166D01*
X144230227Y-86388557D01*
X144238079Y-86366613D01*
X144248044Y-86345543D01*
X144260026Y-86325552D01*
X144273910Y-86306832D01*
X144289562Y-86289562D01*
X144306832Y-86273910D01*
X144325552Y-86260026D01*
X144345543Y-86248044D01*
X144366613Y-86238079D01*
X144388557Y-86230227D01*
X144411166Y-86224563D01*
X144434221Y-86221144D01*
X144457500Y-86220000D01*
X145032500Y-86220000D01*
X145055779Y-86221144D01*
X145055779Y-86221144D01*
G37*
D16*
X144745000Y-86695000D03*
G04 #@! TD*
D15*
G04 #@! TO.C,R3*
G36*
X156845779Y-73741144D02*
X156868834Y-73744563D01*
X156891443Y-73750227D01*
X156913387Y-73758079D01*
X156934457Y-73768044D01*
X156954448Y-73780026D01*
X156973168Y-73793910D01*
X156990438Y-73809562D01*
X157006090Y-73826832D01*
X157019974Y-73845552D01*
X157031956Y-73865543D01*
X157041921Y-73886613D01*
X157049773Y-73908557D01*
X157055437Y-73931166D01*
X157058856Y-73954221D01*
X157060000Y-73977500D01*
X157060000Y-74452500D01*
X157058856Y-74475779D01*
X157055437Y-74498834D01*
X157049773Y-74521443D01*
X157041921Y-74543387D01*
X157031956Y-74564457D01*
X157019974Y-74584448D01*
X157006090Y-74603168D01*
X156990438Y-74620438D01*
X156973168Y-74636090D01*
X156954448Y-74649974D01*
X156934457Y-74661956D01*
X156913387Y-74671921D01*
X156891443Y-74679773D01*
X156868834Y-74685437D01*
X156845779Y-74688856D01*
X156822500Y-74690000D01*
X156247500Y-74690000D01*
X156224221Y-74688856D01*
X156201166Y-74685437D01*
X156178557Y-74679773D01*
X156156613Y-74671921D01*
X156135543Y-74661956D01*
X156115552Y-74649974D01*
X156096832Y-74636090D01*
X156079562Y-74620438D01*
X156063910Y-74603168D01*
X156050026Y-74584448D01*
X156038044Y-74564457D01*
X156028079Y-74543387D01*
X156020227Y-74521443D01*
X156014563Y-74498834D01*
X156011144Y-74475779D01*
X156010000Y-74452500D01*
X156010000Y-73977500D01*
X156011144Y-73954221D01*
X156014563Y-73931166D01*
X156020227Y-73908557D01*
X156028079Y-73886613D01*
X156038044Y-73865543D01*
X156050026Y-73845552D01*
X156063910Y-73826832D01*
X156079562Y-73809562D01*
X156096832Y-73793910D01*
X156115552Y-73780026D01*
X156135543Y-73768044D01*
X156156613Y-73758079D01*
X156178557Y-73750227D01*
X156201166Y-73744563D01*
X156224221Y-73741144D01*
X156247500Y-73740000D01*
X156822500Y-73740000D01*
X156845779Y-73741144D01*
X156845779Y-73741144D01*
G37*
D16*
X156535000Y-74215000D03*
D15*
G36*
X155095779Y-73741144D02*
X155118834Y-73744563D01*
X155141443Y-73750227D01*
X155163387Y-73758079D01*
X155184457Y-73768044D01*
X155204448Y-73780026D01*
X155223168Y-73793910D01*
X155240438Y-73809562D01*
X155256090Y-73826832D01*
X155269974Y-73845552D01*
X155281956Y-73865543D01*
X155291921Y-73886613D01*
X155299773Y-73908557D01*
X155305437Y-73931166D01*
X155308856Y-73954221D01*
X155310000Y-73977500D01*
X155310000Y-74452500D01*
X155308856Y-74475779D01*
X155305437Y-74498834D01*
X155299773Y-74521443D01*
X155291921Y-74543387D01*
X155281956Y-74564457D01*
X155269974Y-74584448D01*
X155256090Y-74603168D01*
X155240438Y-74620438D01*
X155223168Y-74636090D01*
X155204448Y-74649974D01*
X155184457Y-74661956D01*
X155163387Y-74671921D01*
X155141443Y-74679773D01*
X155118834Y-74685437D01*
X155095779Y-74688856D01*
X155072500Y-74690000D01*
X154497500Y-74690000D01*
X154474221Y-74688856D01*
X154451166Y-74685437D01*
X154428557Y-74679773D01*
X154406613Y-74671921D01*
X154385543Y-74661956D01*
X154365552Y-74649974D01*
X154346832Y-74636090D01*
X154329562Y-74620438D01*
X154313910Y-74603168D01*
X154300026Y-74584448D01*
X154288044Y-74564457D01*
X154278079Y-74543387D01*
X154270227Y-74521443D01*
X154264563Y-74498834D01*
X154261144Y-74475779D01*
X154260000Y-74452500D01*
X154260000Y-73977500D01*
X154261144Y-73954221D01*
X154264563Y-73931166D01*
X154270227Y-73908557D01*
X154278079Y-73886613D01*
X154288044Y-73865543D01*
X154300026Y-73845552D01*
X154313910Y-73826832D01*
X154329562Y-73809562D01*
X154346832Y-73793910D01*
X154365552Y-73780026D01*
X154385543Y-73768044D01*
X154406613Y-73758079D01*
X154428557Y-73750227D01*
X154451166Y-73744563D01*
X154474221Y-73741144D01*
X154497500Y-73740000D01*
X155072500Y-73740000D01*
X155095779Y-73741144D01*
X155095779Y-73741144D01*
G37*
D16*
X154785000Y-74215000D03*
G04 #@! TD*
D15*
G04 #@! TO.C,R4*
G36*
X155095779Y-76281144D02*
X155118834Y-76284563D01*
X155141443Y-76290227D01*
X155163387Y-76298079D01*
X155184457Y-76308044D01*
X155204448Y-76320026D01*
X155223168Y-76333910D01*
X155240438Y-76349562D01*
X155256090Y-76366832D01*
X155269974Y-76385552D01*
X155281956Y-76405543D01*
X155291921Y-76426613D01*
X155299773Y-76448557D01*
X155305437Y-76471166D01*
X155308856Y-76494221D01*
X155310000Y-76517500D01*
X155310000Y-76992500D01*
X155308856Y-77015779D01*
X155305437Y-77038834D01*
X155299773Y-77061443D01*
X155291921Y-77083387D01*
X155281956Y-77104457D01*
X155269974Y-77124448D01*
X155256090Y-77143168D01*
X155240438Y-77160438D01*
X155223168Y-77176090D01*
X155204448Y-77189974D01*
X155184457Y-77201956D01*
X155163387Y-77211921D01*
X155141443Y-77219773D01*
X155118834Y-77225437D01*
X155095779Y-77228856D01*
X155072500Y-77230000D01*
X154497500Y-77230000D01*
X154474221Y-77228856D01*
X154451166Y-77225437D01*
X154428557Y-77219773D01*
X154406613Y-77211921D01*
X154385543Y-77201956D01*
X154365552Y-77189974D01*
X154346832Y-77176090D01*
X154329562Y-77160438D01*
X154313910Y-77143168D01*
X154300026Y-77124448D01*
X154288044Y-77104457D01*
X154278079Y-77083387D01*
X154270227Y-77061443D01*
X154264563Y-77038834D01*
X154261144Y-77015779D01*
X154260000Y-76992500D01*
X154260000Y-76517500D01*
X154261144Y-76494221D01*
X154264563Y-76471166D01*
X154270227Y-76448557D01*
X154278079Y-76426613D01*
X154288044Y-76405543D01*
X154300026Y-76385552D01*
X154313910Y-76366832D01*
X154329562Y-76349562D01*
X154346832Y-76333910D01*
X154365552Y-76320026D01*
X154385543Y-76308044D01*
X154406613Y-76298079D01*
X154428557Y-76290227D01*
X154451166Y-76284563D01*
X154474221Y-76281144D01*
X154497500Y-76280000D01*
X155072500Y-76280000D01*
X155095779Y-76281144D01*
X155095779Y-76281144D01*
G37*
D16*
X154785000Y-76755000D03*
D15*
G36*
X156845779Y-76281144D02*
X156868834Y-76284563D01*
X156891443Y-76290227D01*
X156913387Y-76298079D01*
X156934457Y-76308044D01*
X156954448Y-76320026D01*
X156973168Y-76333910D01*
X156990438Y-76349562D01*
X157006090Y-76366832D01*
X157019974Y-76385552D01*
X157031956Y-76405543D01*
X157041921Y-76426613D01*
X157049773Y-76448557D01*
X157055437Y-76471166D01*
X157058856Y-76494221D01*
X157060000Y-76517500D01*
X157060000Y-76992500D01*
X157058856Y-77015779D01*
X157055437Y-77038834D01*
X157049773Y-77061443D01*
X157041921Y-77083387D01*
X157031956Y-77104457D01*
X157019974Y-77124448D01*
X157006090Y-77143168D01*
X156990438Y-77160438D01*
X156973168Y-77176090D01*
X156954448Y-77189974D01*
X156934457Y-77201956D01*
X156913387Y-77211921D01*
X156891443Y-77219773D01*
X156868834Y-77225437D01*
X156845779Y-77228856D01*
X156822500Y-77230000D01*
X156247500Y-77230000D01*
X156224221Y-77228856D01*
X156201166Y-77225437D01*
X156178557Y-77219773D01*
X156156613Y-77211921D01*
X156135543Y-77201956D01*
X156115552Y-77189974D01*
X156096832Y-77176090D01*
X156079562Y-77160438D01*
X156063910Y-77143168D01*
X156050026Y-77124448D01*
X156038044Y-77104457D01*
X156028079Y-77083387D01*
X156020227Y-77061443D01*
X156014563Y-77038834D01*
X156011144Y-77015779D01*
X156010000Y-76992500D01*
X156010000Y-76517500D01*
X156011144Y-76494221D01*
X156014563Y-76471166D01*
X156020227Y-76448557D01*
X156028079Y-76426613D01*
X156038044Y-76405543D01*
X156050026Y-76385552D01*
X156063910Y-76366832D01*
X156079562Y-76349562D01*
X156096832Y-76333910D01*
X156115552Y-76320026D01*
X156135543Y-76308044D01*
X156156613Y-76298079D01*
X156178557Y-76290227D01*
X156201166Y-76284563D01*
X156224221Y-76281144D01*
X156247500Y-76280000D01*
X156822500Y-76280000D01*
X156845779Y-76281144D01*
X156845779Y-76281144D01*
G37*
D16*
X156535000Y-76755000D03*
G04 #@! TD*
D15*
G04 #@! TO.C,R5*
G36*
X156845779Y-78821144D02*
X156868834Y-78824563D01*
X156891443Y-78830227D01*
X156913387Y-78838079D01*
X156934457Y-78848044D01*
X156954448Y-78860026D01*
X156973168Y-78873910D01*
X156990438Y-78889562D01*
X157006090Y-78906832D01*
X157019974Y-78925552D01*
X157031956Y-78945543D01*
X157041921Y-78966613D01*
X157049773Y-78988557D01*
X157055437Y-79011166D01*
X157058856Y-79034221D01*
X157060000Y-79057500D01*
X157060000Y-79532500D01*
X157058856Y-79555779D01*
X157055437Y-79578834D01*
X157049773Y-79601443D01*
X157041921Y-79623387D01*
X157031956Y-79644457D01*
X157019974Y-79664448D01*
X157006090Y-79683168D01*
X156990438Y-79700438D01*
X156973168Y-79716090D01*
X156954448Y-79729974D01*
X156934457Y-79741956D01*
X156913387Y-79751921D01*
X156891443Y-79759773D01*
X156868834Y-79765437D01*
X156845779Y-79768856D01*
X156822500Y-79770000D01*
X156247500Y-79770000D01*
X156224221Y-79768856D01*
X156201166Y-79765437D01*
X156178557Y-79759773D01*
X156156613Y-79751921D01*
X156135543Y-79741956D01*
X156115552Y-79729974D01*
X156096832Y-79716090D01*
X156079562Y-79700438D01*
X156063910Y-79683168D01*
X156050026Y-79664448D01*
X156038044Y-79644457D01*
X156028079Y-79623387D01*
X156020227Y-79601443D01*
X156014563Y-79578834D01*
X156011144Y-79555779D01*
X156010000Y-79532500D01*
X156010000Y-79057500D01*
X156011144Y-79034221D01*
X156014563Y-79011166D01*
X156020227Y-78988557D01*
X156028079Y-78966613D01*
X156038044Y-78945543D01*
X156050026Y-78925552D01*
X156063910Y-78906832D01*
X156079562Y-78889562D01*
X156096832Y-78873910D01*
X156115552Y-78860026D01*
X156135543Y-78848044D01*
X156156613Y-78838079D01*
X156178557Y-78830227D01*
X156201166Y-78824563D01*
X156224221Y-78821144D01*
X156247500Y-78820000D01*
X156822500Y-78820000D01*
X156845779Y-78821144D01*
X156845779Y-78821144D01*
G37*
D16*
X156535000Y-79295000D03*
D15*
G36*
X155095779Y-78821144D02*
X155118834Y-78824563D01*
X155141443Y-78830227D01*
X155163387Y-78838079D01*
X155184457Y-78848044D01*
X155204448Y-78860026D01*
X155223168Y-78873910D01*
X155240438Y-78889562D01*
X155256090Y-78906832D01*
X155269974Y-78925552D01*
X155281956Y-78945543D01*
X155291921Y-78966613D01*
X155299773Y-78988557D01*
X155305437Y-79011166D01*
X155308856Y-79034221D01*
X155310000Y-79057500D01*
X155310000Y-79532500D01*
X155308856Y-79555779D01*
X155305437Y-79578834D01*
X155299773Y-79601443D01*
X155291921Y-79623387D01*
X155281956Y-79644457D01*
X155269974Y-79664448D01*
X155256090Y-79683168D01*
X155240438Y-79700438D01*
X155223168Y-79716090D01*
X155204448Y-79729974D01*
X155184457Y-79741956D01*
X155163387Y-79751921D01*
X155141443Y-79759773D01*
X155118834Y-79765437D01*
X155095779Y-79768856D01*
X155072500Y-79770000D01*
X154497500Y-79770000D01*
X154474221Y-79768856D01*
X154451166Y-79765437D01*
X154428557Y-79759773D01*
X154406613Y-79751921D01*
X154385543Y-79741956D01*
X154365552Y-79729974D01*
X154346832Y-79716090D01*
X154329562Y-79700438D01*
X154313910Y-79683168D01*
X154300026Y-79664448D01*
X154288044Y-79644457D01*
X154278079Y-79623387D01*
X154270227Y-79601443D01*
X154264563Y-79578834D01*
X154261144Y-79555779D01*
X154260000Y-79532500D01*
X154260000Y-79057500D01*
X154261144Y-79034221D01*
X154264563Y-79011166D01*
X154270227Y-78988557D01*
X154278079Y-78966613D01*
X154288044Y-78945543D01*
X154300026Y-78925552D01*
X154313910Y-78906832D01*
X154329562Y-78889562D01*
X154346832Y-78873910D01*
X154365552Y-78860026D01*
X154385543Y-78848044D01*
X154406613Y-78838079D01*
X154428557Y-78830227D01*
X154451166Y-78824563D01*
X154474221Y-78821144D01*
X154497500Y-78820000D01*
X155072500Y-78820000D01*
X155095779Y-78821144D01*
X155095779Y-78821144D01*
G37*
D16*
X154785000Y-79295000D03*
G04 #@! TD*
D15*
G04 #@! TO.C,R6*
G36*
X155095779Y-81361144D02*
X155118834Y-81364563D01*
X155141443Y-81370227D01*
X155163387Y-81378079D01*
X155184457Y-81388044D01*
X155204448Y-81400026D01*
X155223168Y-81413910D01*
X155240438Y-81429562D01*
X155256090Y-81446832D01*
X155269974Y-81465552D01*
X155281956Y-81485543D01*
X155291921Y-81506613D01*
X155299773Y-81528557D01*
X155305437Y-81551166D01*
X155308856Y-81574221D01*
X155310000Y-81597500D01*
X155310000Y-82072500D01*
X155308856Y-82095779D01*
X155305437Y-82118834D01*
X155299773Y-82141443D01*
X155291921Y-82163387D01*
X155281956Y-82184457D01*
X155269974Y-82204448D01*
X155256090Y-82223168D01*
X155240438Y-82240438D01*
X155223168Y-82256090D01*
X155204448Y-82269974D01*
X155184457Y-82281956D01*
X155163387Y-82291921D01*
X155141443Y-82299773D01*
X155118834Y-82305437D01*
X155095779Y-82308856D01*
X155072500Y-82310000D01*
X154497500Y-82310000D01*
X154474221Y-82308856D01*
X154451166Y-82305437D01*
X154428557Y-82299773D01*
X154406613Y-82291921D01*
X154385543Y-82281956D01*
X154365552Y-82269974D01*
X154346832Y-82256090D01*
X154329562Y-82240438D01*
X154313910Y-82223168D01*
X154300026Y-82204448D01*
X154288044Y-82184457D01*
X154278079Y-82163387D01*
X154270227Y-82141443D01*
X154264563Y-82118834D01*
X154261144Y-82095779D01*
X154260000Y-82072500D01*
X154260000Y-81597500D01*
X154261144Y-81574221D01*
X154264563Y-81551166D01*
X154270227Y-81528557D01*
X154278079Y-81506613D01*
X154288044Y-81485543D01*
X154300026Y-81465552D01*
X154313910Y-81446832D01*
X154329562Y-81429562D01*
X154346832Y-81413910D01*
X154365552Y-81400026D01*
X154385543Y-81388044D01*
X154406613Y-81378079D01*
X154428557Y-81370227D01*
X154451166Y-81364563D01*
X154474221Y-81361144D01*
X154497500Y-81360000D01*
X155072500Y-81360000D01*
X155095779Y-81361144D01*
X155095779Y-81361144D01*
G37*
D16*
X154785000Y-81835000D03*
D15*
G36*
X156845779Y-81361144D02*
X156868834Y-81364563D01*
X156891443Y-81370227D01*
X156913387Y-81378079D01*
X156934457Y-81388044D01*
X156954448Y-81400026D01*
X156973168Y-81413910D01*
X156990438Y-81429562D01*
X157006090Y-81446832D01*
X157019974Y-81465552D01*
X157031956Y-81485543D01*
X157041921Y-81506613D01*
X157049773Y-81528557D01*
X157055437Y-81551166D01*
X157058856Y-81574221D01*
X157060000Y-81597500D01*
X157060000Y-82072500D01*
X157058856Y-82095779D01*
X157055437Y-82118834D01*
X157049773Y-82141443D01*
X157041921Y-82163387D01*
X157031956Y-82184457D01*
X157019974Y-82204448D01*
X157006090Y-82223168D01*
X156990438Y-82240438D01*
X156973168Y-82256090D01*
X156954448Y-82269974D01*
X156934457Y-82281956D01*
X156913387Y-82291921D01*
X156891443Y-82299773D01*
X156868834Y-82305437D01*
X156845779Y-82308856D01*
X156822500Y-82310000D01*
X156247500Y-82310000D01*
X156224221Y-82308856D01*
X156201166Y-82305437D01*
X156178557Y-82299773D01*
X156156613Y-82291921D01*
X156135543Y-82281956D01*
X156115552Y-82269974D01*
X156096832Y-82256090D01*
X156079562Y-82240438D01*
X156063910Y-82223168D01*
X156050026Y-82204448D01*
X156038044Y-82184457D01*
X156028079Y-82163387D01*
X156020227Y-82141443D01*
X156014563Y-82118834D01*
X156011144Y-82095779D01*
X156010000Y-82072500D01*
X156010000Y-81597500D01*
X156011144Y-81574221D01*
X156014563Y-81551166D01*
X156020227Y-81528557D01*
X156028079Y-81506613D01*
X156038044Y-81485543D01*
X156050026Y-81465552D01*
X156063910Y-81446832D01*
X156079562Y-81429562D01*
X156096832Y-81413910D01*
X156115552Y-81400026D01*
X156135543Y-81388044D01*
X156156613Y-81378079D01*
X156178557Y-81370227D01*
X156201166Y-81364563D01*
X156224221Y-81361144D01*
X156247500Y-81360000D01*
X156822500Y-81360000D01*
X156845779Y-81361144D01*
X156845779Y-81361144D01*
G37*
D16*
X156535000Y-81835000D03*
G04 #@! TD*
D15*
G04 #@! TO.C,R7*
G36*
X140855779Y-71021144D02*
X140878834Y-71024563D01*
X140901443Y-71030227D01*
X140923387Y-71038079D01*
X140944457Y-71048044D01*
X140964448Y-71060026D01*
X140983168Y-71073910D01*
X141000438Y-71089562D01*
X141016090Y-71106832D01*
X141029974Y-71125552D01*
X141041956Y-71145543D01*
X141051921Y-71166613D01*
X141059773Y-71188557D01*
X141065437Y-71211166D01*
X141068856Y-71234221D01*
X141070000Y-71257500D01*
X141070000Y-71732500D01*
X141068856Y-71755779D01*
X141065437Y-71778834D01*
X141059773Y-71801443D01*
X141051921Y-71823387D01*
X141041956Y-71844457D01*
X141029974Y-71864448D01*
X141016090Y-71883168D01*
X141000438Y-71900438D01*
X140983168Y-71916090D01*
X140964448Y-71929974D01*
X140944457Y-71941956D01*
X140923387Y-71951921D01*
X140901443Y-71959773D01*
X140878834Y-71965437D01*
X140855779Y-71968856D01*
X140832500Y-71970000D01*
X140257500Y-71970000D01*
X140234221Y-71968856D01*
X140211166Y-71965437D01*
X140188557Y-71959773D01*
X140166613Y-71951921D01*
X140145543Y-71941956D01*
X140125552Y-71929974D01*
X140106832Y-71916090D01*
X140089562Y-71900438D01*
X140073910Y-71883168D01*
X140060026Y-71864448D01*
X140048044Y-71844457D01*
X140038079Y-71823387D01*
X140030227Y-71801443D01*
X140024563Y-71778834D01*
X140021144Y-71755779D01*
X140020000Y-71732500D01*
X140020000Y-71257500D01*
X140021144Y-71234221D01*
X140024563Y-71211166D01*
X140030227Y-71188557D01*
X140038079Y-71166613D01*
X140048044Y-71145543D01*
X140060026Y-71125552D01*
X140073910Y-71106832D01*
X140089562Y-71089562D01*
X140106832Y-71073910D01*
X140125552Y-71060026D01*
X140145543Y-71048044D01*
X140166613Y-71038079D01*
X140188557Y-71030227D01*
X140211166Y-71024563D01*
X140234221Y-71021144D01*
X140257500Y-71020000D01*
X140832500Y-71020000D01*
X140855779Y-71021144D01*
X140855779Y-71021144D01*
G37*
D16*
X140545000Y-71495000D03*
D15*
G36*
X142605779Y-71021144D02*
X142628834Y-71024563D01*
X142651443Y-71030227D01*
X142673387Y-71038079D01*
X142694457Y-71048044D01*
X142714448Y-71060026D01*
X142733168Y-71073910D01*
X142750438Y-71089562D01*
X142766090Y-71106832D01*
X142779974Y-71125552D01*
X142791956Y-71145543D01*
X142801921Y-71166613D01*
X142809773Y-71188557D01*
X142815437Y-71211166D01*
X142818856Y-71234221D01*
X142820000Y-71257500D01*
X142820000Y-71732500D01*
X142818856Y-71755779D01*
X142815437Y-71778834D01*
X142809773Y-71801443D01*
X142801921Y-71823387D01*
X142791956Y-71844457D01*
X142779974Y-71864448D01*
X142766090Y-71883168D01*
X142750438Y-71900438D01*
X142733168Y-71916090D01*
X142714448Y-71929974D01*
X142694457Y-71941956D01*
X142673387Y-71951921D01*
X142651443Y-71959773D01*
X142628834Y-71965437D01*
X142605779Y-71968856D01*
X142582500Y-71970000D01*
X142007500Y-71970000D01*
X141984221Y-71968856D01*
X141961166Y-71965437D01*
X141938557Y-71959773D01*
X141916613Y-71951921D01*
X141895543Y-71941956D01*
X141875552Y-71929974D01*
X141856832Y-71916090D01*
X141839562Y-71900438D01*
X141823910Y-71883168D01*
X141810026Y-71864448D01*
X141798044Y-71844457D01*
X141788079Y-71823387D01*
X141780227Y-71801443D01*
X141774563Y-71778834D01*
X141771144Y-71755779D01*
X141770000Y-71732500D01*
X141770000Y-71257500D01*
X141771144Y-71234221D01*
X141774563Y-71211166D01*
X141780227Y-71188557D01*
X141788079Y-71166613D01*
X141798044Y-71145543D01*
X141810026Y-71125552D01*
X141823910Y-71106832D01*
X141839562Y-71089562D01*
X141856832Y-71073910D01*
X141875552Y-71060026D01*
X141895543Y-71048044D01*
X141916613Y-71038079D01*
X141938557Y-71030227D01*
X141961166Y-71024563D01*
X141984221Y-71021144D01*
X142007500Y-71020000D01*
X142582500Y-71020000D01*
X142605779Y-71021144D01*
X142605779Y-71021144D01*
G37*
D16*
X142295000Y-71495000D03*
G04 #@! TD*
D15*
G04 #@! TO.C,R8*
G36*
X142605779Y-73671144D02*
X142628834Y-73674563D01*
X142651443Y-73680227D01*
X142673387Y-73688079D01*
X142694457Y-73698044D01*
X142714448Y-73710026D01*
X142733168Y-73723910D01*
X142750438Y-73739562D01*
X142766090Y-73756832D01*
X142779974Y-73775552D01*
X142791956Y-73795543D01*
X142801921Y-73816613D01*
X142809773Y-73838557D01*
X142815437Y-73861166D01*
X142818856Y-73884221D01*
X142820000Y-73907500D01*
X142820000Y-74382500D01*
X142818856Y-74405779D01*
X142815437Y-74428834D01*
X142809773Y-74451443D01*
X142801921Y-74473387D01*
X142791956Y-74494457D01*
X142779974Y-74514448D01*
X142766090Y-74533168D01*
X142750438Y-74550438D01*
X142733168Y-74566090D01*
X142714448Y-74579974D01*
X142694457Y-74591956D01*
X142673387Y-74601921D01*
X142651443Y-74609773D01*
X142628834Y-74615437D01*
X142605779Y-74618856D01*
X142582500Y-74620000D01*
X142007500Y-74620000D01*
X141984221Y-74618856D01*
X141961166Y-74615437D01*
X141938557Y-74609773D01*
X141916613Y-74601921D01*
X141895543Y-74591956D01*
X141875552Y-74579974D01*
X141856832Y-74566090D01*
X141839562Y-74550438D01*
X141823910Y-74533168D01*
X141810026Y-74514448D01*
X141798044Y-74494457D01*
X141788079Y-74473387D01*
X141780227Y-74451443D01*
X141774563Y-74428834D01*
X141771144Y-74405779D01*
X141770000Y-74382500D01*
X141770000Y-73907500D01*
X141771144Y-73884221D01*
X141774563Y-73861166D01*
X141780227Y-73838557D01*
X141788079Y-73816613D01*
X141798044Y-73795543D01*
X141810026Y-73775552D01*
X141823910Y-73756832D01*
X141839562Y-73739562D01*
X141856832Y-73723910D01*
X141875552Y-73710026D01*
X141895543Y-73698044D01*
X141916613Y-73688079D01*
X141938557Y-73680227D01*
X141961166Y-73674563D01*
X141984221Y-73671144D01*
X142007500Y-73670000D01*
X142582500Y-73670000D01*
X142605779Y-73671144D01*
X142605779Y-73671144D01*
G37*
D16*
X142295000Y-74145000D03*
D15*
G36*
X140855779Y-73671144D02*
X140878834Y-73674563D01*
X140901443Y-73680227D01*
X140923387Y-73688079D01*
X140944457Y-73698044D01*
X140964448Y-73710026D01*
X140983168Y-73723910D01*
X141000438Y-73739562D01*
X141016090Y-73756832D01*
X141029974Y-73775552D01*
X141041956Y-73795543D01*
X141051921Y-73816613D01*
X141059773Y-73838557D01*
X141065437Y-73861166D01*
X141068856Y-73884221D01*
X141070000Y-73907500D01*
X141070000Y-74382500D01*
X141068856Y-74405779D01*
X141065437Y-74428834D01*
X141059773Y-74451443D01*
X141051921Y-74473387D01*
X141041956Y-74494457D01*
X141029974Y-74514448D01*
X141016090Y-74533168D01*
X141000438Y-74550438D01*
X140983168Y-74566090D01*
X140964448Y-74579974D01*
X140944457Y-74591956D01*
X140923387Y-74601921D01*
X140901443Y-74609773D01*
X140878834Y-74615437D01*
X140855779Y-74618856D01*
X140832500Y-74620000D01*
X140257500Y-74620000D01*
X140234221Y-74618856D01*
X140211166Y-74615437D01*
X140188557Y-74609773D01*
X140166613Y-74601921D01*
X140145543Y-74591956D01*
X140125552Y-74579974D01*
X140106832Y-74566090D01*
X140089562Y-74550438D01*
X140073910Y-74533168D01*
X140060026Y-74514448D01*
X140048044Y-74494457D01*
X140038079Y-74473387D01*
X140030227Y-74451443D01*
X140024563Y-74428834D01*
X140021144Y-74405779D01*
X140020000Y-74382500D01*
X140020000Y-73907500D01*
X140021144Y-73884221D01*
X140024563Y-73861166D01*
X140030227Y-73838557D01*
X140038079Y-73816613D01*
X140048044Y-73795543D01*
X140060026Y-73775552D01*
X140073910Y-73756832D01*
X140089562Y-73739562D01*
X140106832Y-73723910D01*
X140125552Y-73710026D01*
X140145543Y-73698044D01*
X140166613Y-73688079D01*
X140188557Y-73680227D01*
X140211166Y-73674563D01*
X140234221Y-73671144D01*
X140257500Y-73670000D01*
X140832500Y-73670000D01*
X140855779Y-73671144D01*
X140855779Y-73671144D01*
G37*
D16*
X140545000Y-74145000D03*
G04 #@! TD*
D15*
G04 #@! TO.C,J1*
G36*
X167954504Y-67096204D02*
X167978773Y-67099804D01*
X168002571Y-67105765D01*
X168025671Y-67114030D01*
X168047849Y-67124520D01*
X168068893Y-67137133D01*
X168088598Y-67151747D01*
X168106777Y-67168223D01*
X168123253Y-67186402D01*
X168137867Y-67206107D01*
X168150480Y-67227151D01*
X168160970Y-67249329D01*
X168169235Y-67272429D01*
X168175196Y-67296227D01*
X168178796Y-67320496D01*
X168180000Y-67345000D01*
X168180000Y-68545000D01*
X168178796Y-68569504D01*
X168175196Y-68593773D01*
X168169235Y-68617571D01*
X168160970Y-68640671D01*
X168150480Y-68662849D01*
X168137867Y-68683893D01*
X168123253Y-68703598D01*
X168106777Y-68721777D01*
X168088598Y-68738253D01*
X168068893Y-68752867D01*
X168047849Y-68765480D01*
X168025671Y-68775970D01*
X168002571Y-68784235D01*
X167978773Y-68790196D01*
X167954504Y-68793796D01*
X167930000Y-68795000D01*
X166430000Y-68795000D01*
X166405496Y-68793796D01*
X166381227Y-68790196D01*
X166357429Y-68784235D01*
X166334329Y-68775970D01*
X166312151Y-68765480D01*
X166291107Y-68752867D01*
X166271402Y-68738253D01*
X166253223Y-68721777D01*
X166236747Y-68703598D01*
X166222133Y-68683893D01*
X166209520Y-68662849D01*
X166199030Y-68640671D01*
X166190765Y-68617571D01*
X166184804Y-68593773D01*
X166181204Y-68569504D01*
X166180000Y-68545000D01*
X166180000Y-67345000D01*
X166181204Y-67320496D01*
X166184804Y-67296227D01*
X166190765Y-67272429D01*
X166199030Y-67249329D01*
X166209520Y-67227151D01*
X166222133Y-67206107D01*
X166236747Y-67186402D01*
X166253223Y-67168223D01*
X166271402Y-67151747D01*
X166291107Y-67137133D01*
X166312151Y-67124520D01*
X166334329Y-67114030D01*
X166357429Y-67105765D01*
X166381227Y-67099804D01*
X166405496Y-67096204D01*
X166430000Y-67095000D01*
X167930000Y-67095000D01*
X167954504Y-67096204D01*
X167954504Y-67096204D01*
G37*
D20*
X167180000Y-67945000D03*
D21*
X167180000Y-70445000D03*
G04 #@! TD*
G04 #@! TO.C,J2*
X167180000Y-78065000D03*
D15*
G36*
X167954504Y-74716204D02*
X167978773Y-74719804D01*
X168002571Y-74725765D01*
X168025671Y-74734030D01*
X168047849Y-74744520D01*
X168068893Y-74757133D01*
X168088598Y-74771747D01*
X168106777Y-74788223D01*
X168123253Y-74806402D01*
X168137867Y-74826107D01*
X168150480Y-74847151D01*
X168160970Y-74869329D01*
X168169235Y-74892429D01*
X168175196Y-74916227D01*
X168178796Y-74940496D01*
X168180000Y-74965000D01*
X168180000Y-76165000D01*
X168178796Y-76189504D01*
X168175196Y-76213773D01*
X168169235Y-76237571D01*
X168160970Y-76260671D01*
X168150480Y-76282849D01*
X168137867Y-76303893D01*
X168123253Y-76323598D01*
X168106777Y-76341777D01*
X168088598Y-76358253D01*
X168068893Y-76372867D01*
X168047849Y-76385480D01*
X168025671Y-76395970D01*
X168002571Y-76404235D01*
X167978773Y-76410196D01*
X167954504Y-76413796D01*
X167930000Y-76415000D01*
X166430000Y-76415000D01*
X166405496Y-76413796D01*
X166381227Y-76410196D01*
X166357429Y-76404235D01*
X166334329Y-76395970D01*
X166312151Y-76385480D01*
X166291107Y-76372867D01*
X166271402Y-76358253D01*
X166253223Y-76341777D01*
X166236747Y-76323598D01*
X166222133Y-76303893D01*
X166209520Y-76282849D01*
X166199030Y-76260671D01*
X166190765Y-76237571D01*
X166184804Y-76213773D01*
X166181204Y-76189504D01*
X166180000Y-76165000D01*
X166180000Y-74965000D01*
X166181204Y-74940496D01*
X166184804Y-74916227D01*
X166190765Y-74892429D01*
X166199030Y-74869329D01*
X166209520Y-74847151D01*
X166222133Y-74826107D01*
X166236747Y-74806402D01*
X166253223Y-74788223D01*
X166271402Y-74771747D01*
X166291107Y-74757133D01*
X166312151Y-74744520D01*
X166334329Y-74734030D01*
X166357429Y-74725765D01*
X166381227Y-74719804D01*
X166405496Y-74716204D01*
X166430000Y-74715000D01*
X167930000Y-74715000D01*
X167954504Y-74716204D01*
X167954504Y-74716204D01*
G37*
D20*
X167180000Y-75565000D03*
G04 #@! TD*
D15*
G04 #@! TO.C,J5*
G36*
X167954504Y-82336204D02*
X167978773Y-82339804D01*
X168002571Y-82345765D01*
X168025671Y-82354030D01*
X168047849Y-82364520D01*
X168068893Y-82377133D01*
X168088598Y-82391747D01*
X168106777Y-82408223D01*
X168123253Y-82426402D01*
X168137867Y-82446107D01*
X168150480Y-82467151D01*
X168160970Y-82489329D01*
X168169235Y-82512429D01*
X168175196Y-82536227D01*
X168178796Y-82560496D01*
X168180000Y-82585000D01*
X168180000Y-83785000D01*
X168178796Y-83809504D01*
X168175196Y-83833773D01*
X168169235Y-83857571D01*
X168160970Y-83880671D01*
X168150480Y-83902849D01*
X168137867Y-83923893D01*
X168123253Y-83943598D01*
X168106777Y-83961777D01*
X168088598Y-83978253D01*
X168068893Y-83992867D01*
X168047849Y-84005480D01*
X168025671Y-84015970D01*
X168002571Y-84024235D01*
X167978773Y-84030196D01*
X167954504Y-84033796D01*
X167930000Y-84035000D01*
X166430000Y-84035000D01*
X166405496Y-84033796D01*
X166381227Y-84030196D01*
X166357429Y-84024235D01*
X166334329Y-84015970D01*
X166312151Y-84005480D01*
X166291107Y-83992867D01*
X166271402Y-83978253D01*
X166253223Y-83961777D01*
X166236747Y-83943598D01*
X166222133Y-83923893D01*
X166209520Y-83902849D01*
X166199030Y-83880671D01*
X166190765Y-83857571D01*
X166184804Y-83833773D01*
X166181204Y-83809504D01*
X166180000Y-83785000D01*
X166180000Y-82585000D01*
X166181204Y-82560496D01*
X166184804Y-82536227D01*
X166190765Y-82512429D01*
X166199030Y-82489329D01*
X166209520Y-82467151D01*
X166222133Y-82446107D01*
X166236747Y-82426402D01*
X166253223Y-82408223D01*
X166271402Y-82391747D01*
X166291107Y-82377133D01*
X166312151Y-82364520D01*
X166334329Y-82354030D01*
X166357429Y-82345765D01*
X166381227Y-82339804D01*
X166405496Y-82336204D01*
X166430000Y-82335000D01*
X167930000Y-82335000D01*
X167954504Y-82336204D01*
X167954504Y-82336204D01*
G37*
D20*
X167180000Y-83185000D03*
D21*
X167180000Y-85685000D03*
G04 #@! TD*
G04 #@! TO.C,J6*
X167180000Y-93305000D03*
D15*
G36*
X167954504Y-89956204D02*
X167978773Y-89959804D01*
X168002571Y-89965765D01*
X168025671Y-89974030D01*
X168047849Y-89984520D01*
X168068893Y-89997133D01*
X168088598Y-90011747D01*
X168106777Y-90028223D01*
X168123253Y-90046402D01*
X168137867Y-90066107D01*
X168150480Y-90087151D01*
X168160970Y-90109329D01*
X168169235Y-90132429D01*
X168175196Y-90156227D01*
X168178796Y-90180496D01*
X168180000Y-90205000D01*
X168180000Y-91405000D01*
X168178796Y-91429504D01*
X168175196Y-91453773D01*
X168169235Y-91477571D01*
X168160970Y-91500671D01*
X168150480Y-91522849D01*
X168137867Y-91543893D01*
X168123253Y-91563598D01*
X168106777Y-91581777D01*
X168088598Y-91598253D01*
X168068893Y-91612867D01*
X168047849Y-91625480D01*
X168025671Y-91635970D01*
X168002571Y-91644235D01*
X167978773Y-91650196D01*
X167954504Y-91653796D01*
X167930000Y-91655000D01*
X166430000Y-91655000D01*
X166405496Y-91653796D01*
X166381227Y-91650196D01*
X166357429Y-91644235D01*
X166334329Y-91635970D01*
X166312151Y-91625480D01*
X166291107Y-91612867D01*
X166271402Y-91598253D01*
X166253223Y-91581777D01*
X166236747Y-91563598D01*
X166222133Y-91543893D01*
X166209520Y-91522849D01*
X166199030Y-91500671D01*
X166190765Y-91477571D01*
X166184804Y-91453773D01*
X166181204Y-91429504D01*
X166180000Y-91405000D01*
X166180000Y-90205000D01*
X166181204Y-90180496D01*
X166184804Y-90156227D01*
X166190765Y-90132429D01*
X166199030Y-90109329D01*
X166209520Y-90087151D01*
X166222133Y-90066107D01*
X166236747Y-90046402D01*
X166253223Y-90028223D01*
X166271402Y-90011747D01*
X166291107Y-89997133D01*
X166312151Y-89984520D01*
X166334329Y-89974030D01*
X166357429Y-89965765D01*
X166381227Y-89959804D01*
X166405496Y-89956204D01*
X166430000Y-89955000D01*
X167930000Y-89955000D01*
X167954504Y-89956204D01*
X167954504Y-89956204D01*
G37*
D20*
X167180000Y-90805000D03*
G04 #@! TD*
D15*
G04 #@! TO.C,J7*
G36*
X167954504Y-97576204D02*
X167978773Y-97579804D01*
X168002571Y-97585765D01*
X168025671Y-97594030D01*
X168047849Y-97604520D01*
X168068893Y-97617133D01*
X168088598Y-97631747D01*
X168106777Y-97648223D01*
X168123253Y-97666402D01*
X168137867Y-97686107D01*
X168150480Y-97707151D01*
X168160970Y-97729329D01*
X168169235Y-97752429D01*
X168175196Y-97776227D01*
X168178796Y-97800496D01*
X168180000Y-97825000D01*
X168180000Y-99025000D01*
X168178796Y-99049504D01*
X168175196Y-99073773D01*
X168169235Y-99097571D01*
X168160970Y-99120671D01*
X168150480Y-99142849D01*
X168137867Y-99163893D01*
X168123253Y-99183598D01*
X168106777Y-99201777D01*
X168088598Y-99218253D01*
X168068893Y-99232867D01*
X168047849Y-99245480D01*
X168025671Y-99255970D01*
X168002571Y-99264235D01*
X167978773Y-99270196D01*
X167954504Y-99273796D01*
X167930000Y-99275000D01*
X166430000Y-99275000D01*
X166405496Y-99273796D01*
X166381227Y-99270196D01*
X166357429Y-99264235D01*
X166334329Y-99255970D01*
X166312151Y-99245480D01*
X166291107Y-99232867D01*
X166271402Y-99218253D01*
X166253223Y-99201777D01*
X166236747Y-99183598D01*
X166222133Y-99163893D01*
X166209520Y-99142849D01*
X166199030Y-99120671D01*
X166190765Y-99097571D01*
X166184804Y-99073773D01*
X166181204Y-99049504D01*
X166180000Y-99025000D01*
X166180000Y-97825000D01*
X166181204Y-97800496D01*
X166184804Y-97776227D01*
X166190765Y-97752429D01*
X166199030Y-97729329D01*
X166209520Y-97707151D01*
X166222133Y-97686107D01*
X166236747Y-97666402D01*
X166253223Y-97648223D01*
X166271402Y-97631747D01*
X166291107Y-97617133D01*
X166312151Y-97604520D01*
X166334329Y-97594030D01*
X166357429Y-97585765D01*
X166381227Y-97579804D01*
X166405496Y-97576204D01*
X166430000Y-97575000D01*
X167930000Y-97575000D01*
X167954504Y-97576204D01*
X167954504Y-97576204D01*
G37*
D20*
X167180000Y-98425000D03*
D21*
X167180000Y-100925000D03*
G04 #@! TD*
D15*
G04 #@! TO.C,J8*
G36*
X167954504Y-105196204D02*
X167978773Y-105199804D01*
X168002571Y-105205765D01*
X168025671Y-105214030D01*
X168047849Y-105224520D01*
X168068893Y-105237133D01*
X168088598Y-105251747D01*
X168106777Y-105268223D01*
X168123253Y-105286402D01*
X168137867Y-105306107D01*
X168150480Y-105327151D01*
X168160970Y-105349329D01*
X168169235Y-105372429D01*
X168175196Y-105396227D01*
X168178796Y-105420496D01*
X168180000Y-105445000D01*
X168180000Y-106645000D01*
X168178796Y-106669504D01*
X168175196Y-106693773D01*
X168169235Y-106717571D01*
X168160970Y-106740671D01*
X168150480Y-106762849D01*
X168137867Y-106783893D01*
X168123253Y-106803598D01*
X168106777Y-106821777D01*
X168088598Y-106838253D01*
X168068893Y-106852867D01*
X168047849Y-106865480D01*
X168025671Y-106875970D01*
X168002571Y-106884235D01*
X167978773Y-106890196D01*
X167954504Y-106893796D01*
X167930000Y-106895000D01*
X166430000Y-106895000D01*
X166405496Y-106893796D01*
X166381227Y-106890196D01*
X166357429Y-106884235D01*
X166334329Y-106875970D01*
X166312151Y-106865480D01*
X166291107Y-106852867D01*
X166271402Y-106838253D01*
X166253223Y-106821777D01*
X166236747Y-106803598D01*
X166222133Y-106783893D01*
X166209520Y-106762849D01*
X166199030Y-106740671D01*
X166190765Y-106717571D01*
X166184804Y-106693773D01*
X166181204Y-106669504D01*
X166180000Y-106645000D01*
X166180000Y-105445000D01*
X166181204Y-105420496D01*
X166184804Y-105396227D01*
X166190765Y-105372429D01*
X166199030Y-105349329D01*
X166209520Y-105327151D01*
X166222133Y-105306107D01*
X166236747Y-105286402D01*
X166253223Y-105268223D01*
X166271402Y-105251747D01*
X166291107Y-105237133D01*
X166312151Y-105224520D01*
X166334329Y-105214030D01*
X166357429Y-105205765D01*
X166381227Y-105199804D01*
X166405496Y-105196204D01*
X166430000Y-105195000D01*
X167930000Y-105195000D01*
X167954504Y-105196204D01*
X167954504Y-105196204D01*
G37*
D20*
X167180000Y-106045000D03*
D21*
X167180000Y-108545000D03*
G04 #@! TD*
D18*
G04 #@! TO.C,J3*
X129540000Y-95885000D03*
D19*
X132080000Y-95885000D03*
G04 #@! TD*
D15*
G04 #@! TO.C,C7*
G36*
X126880779Y-101546144D02*
X126903834Y-101549563D01*
X126926443Y-101555227D01*
X126948387Y-101563079D01*
X126969457Y-101573044D01*
X126989448Y-101585026D01*
X127008168Y-101598910D01*
X127025438Y-101614562D01*
X127041090Y-101631832D01*
X127054974Y-101650552D01*
X127066956Y-101670543D01*
X127076921Y-101691613D01*
X127084773Y-101713557D01*
X127090437Y-101736166D01*
X127093856Y-101759221D01*
X127095000Y-101782500D01*
X127095000Y-102357500D01*
X127093856Y-102380779D01*
X127090437Y-102403834D01*
X127084773Y-102426443D01*
X127076921Y-102448387D01*
X127066956Y-102469457D01*
X127054974Y-102489448D01*
X127041090Y-102508168D01*
X127025438Y-102525438D01*
X127008168Y-102541090D01*
X126989448Y-102554974D01*
X126969457Y-102566956D01*
X126948387Y-102576921D01*
X126926443Y-102584773D01*
X126903834Y-102590437D01*
X126880779Y-102593856D01*
X126857500Y-102595000D01*
X126382500Y-102595000D01*
X126359221Y-102593856D01*
X126336166Y-102590437D01*
X126313557Y-102584773D01*
X126291613Y-102576921D01*
X126270543Y-102566956D01*
X126250552Y-102554974D01*
X126231832Y-102541090D01*
X126214562Y-102525438D01*
X126198910Y-102508168D01*
X126185026Y-102489448D01*
X126173044Y-102469457D01*
X126163079Y-102448387D01*
X126155227Y-102426443D01*
X126149563Y-102403834D01*
X126146144Y-102380779D01*
X126145000Y-102357500D01*
X126145000Y-101782500D01*
X126146144Y-101759221D01*
X126149563Y-101736166D01*
X126155227Y-101713557D01*
X126163079Y-101691613D01*
X126173044Y-101670543D01*
X126185026Y-101650552D01*
X126198910Y-101631832D01*
X126214562Y-101614562D01*
X126231832Y-101598910D01*
X126250552Y-101585026D01*
X126270543Y-101573044D01*
X126291613Y-101563079D01*
X126313557Y-101555227D01*
X126336166Y-101549563D01*
X126359221Y-101546144D01*
X126382500Y-101545000D01*
X126857500Y-101545000D01*
X126880779Y-101546144D01*
X126880779Y-101546144D01*
G37*
D16*
X126620000Y-102070000D03*
D15*
G36*
X126880779Y-103296144D02*
X126903834Y-103299563D01*
X126926443Y-103305227D01*
X126948387Y-103313079D01*
X126969457Y-103323044D01*
X126989448Y-103335026D01*
X127008168Y-103348910D01*
X127025438Y-103364562D01*
X127041090Y-103381832D01*
X127054974Y-103400552D01*
X127066956Y-103420543D01*
X127076921Y-103441613D01*
X127084773Y-103463557D01*
X127090437Y-103486166D01*
X127093856Y-103509221D01*
X127095000Y-103532500D01*
X127095000Y-104107500D01*
X127093856Y-104130779D01*
X127090437Y-104153834D01*
X127084773Y-104176443D01*
X127076921Y-104198387D01*
X127066956Y-104219457D01*
X127054974Y-104239448D01*
X127041090Y-104258168D01*
X127025438Y-104275438D01*
X127008168Y-104291090D01*
X126989448Y-104304974D01*
X126969457Y-104316956D01*
X126948387Y-104326921D01*
X126926443Y-104334773D01*
X126903834Y-104340437D01*
X126880779Y-104343856D01*
X126857500Y-104345000D01*
X126382500Y-104345000D01*
X126359221Y-104343856D01*
X126336166Y-104340437D01*
X126313557Y-104334773D01*
X126291613Y-104326921D01*
X126270543Y-104316956D01*
X126250552Y-104304974D01*
X126231832Y-104291090D01*
X126214562Y-104275438D01*
X126198910Y-104258168D01*
X126185026Y-104239448D01*
X126173044Y-104219457D01*
X126163079Y-104198387D01*
X126155227Y-104176443D01*
X126149563Y-104153834D01*
X126146144Y-104130779D01*
X126145000Y-104107500D01*
X126145000Y-103532500D01*
X126146144Y-103509221D01*
X126149563Y-103486166D01*
X126155227Y-103463557D01*
X126163079Y-103441613D01*
X126173044Y-103420543D01*
X126185026Y-103400552D01*
X126198910Y-103381832D01*
X126214562Y-103364562D01*
X126231832Y-103348910D01*
X126250552Y-103335026D01*
X126270543Y-103323044D01*
X126291613Y-103313079D01*
X126313557Y-103305227D01*
X126336166Y-103299563D01*
X126359221Y-103296144D01*
X126382500Y-103295000D01*
X126857500Y-103295000D01*
X126880779Y-103296144D01*
X126880779Y-103296144D01*
G37*
D16*
X126620000Y-103820000D03*
G04 #@! TD*
D22*
G04 #@! TO.C,Q1*
X147670000Y-91945000D03*
X149570000Y-91945000D03*
X148620000Y-89945000D03*
G04 #@! TD*
G04 #@! TO.C,Q2*
X143870000Y-89945000D03*
X144820000Y-91945000D03*
X142920000Y-91945000D03*
G04 #@! TD*
G04 #@! TO.C,Q3*
X134070000Y-103945000D03*
X132170000Y-103945000D03*
X133120000Y-105945000D03*
G04 #@! TD*
G04 #@! TO.C,Q4*
X129120000Y-105945000D03*
X128170000Y-103945000D03*
X130070000Y-103945000D03*
G04 #@! TD*
D15*
G04 #@! TO.C,R9*
G36*
X148055779Y-93471144D02*
X148078834Y-93474563D01*
X148101443Y-93480227D01*
X148123387Y-93488079D01*
X148144457Y-93498044D01*
X148164448Y-93510026D01*
X148183168Y-93523910D01*
X148200438Y-93539562D01*
X148216090Y-93556832D01*
X148229974Y-93575552D01*
X148241956Y-93595543D01*
X148251921Y-93616613D01*
X148259773Y-93638557D01*
X148265437Y-93661166D01*
X148268856Y-93684221D01*
X148270000Y-93707500D01*
X148270000Y-94182500D01*
X148268856Y-94205779D01*
X148265437Y-94228834D01*
X148259773Y-94251443D01*
X148251921Y-94273387D01*
X148241956Y-94294457D01*
X148229974Y-94314448D01*
X148216090Y-94333168D01*
X148200438Y-94350438D01*
X148183168Y-94366090D01*
X148164448Y-94379974D01*
X148144457Y-94391956D01*
X148123387Y-94401921D01*
X148101443Y-94409773D01*
X148078834Y-94415437D01*
X148055779Y-94418856D01*
X148032500Y-94420000D01*
X147457500Y-94420000D01*
X147434221Y-94418856D01*
X147411166Y-94415437D01*
X147388557Y-94409773D01*
X147366613Y-94401921D01*
X147345543Y-94391956D01*
X147325552Y-94379974D01*
X147306832Y-94366090D01*
X147289562Y-94350438D01*
X147273910Y-94333168D01*
X147260026Y-94314448D01*
X147248044Y-94294457D01*
X147238079Y-94273387D01*
X147230227Y-94251443D01*
X147224563Y-94228834D01*
X147221144Y-94205779D01*
X147220000Y-94182500D01*
X147220000Y-93707500D01*
X147221144Y-93684221D01*
X147224563Y-93661166D01*
X147230227Y-93638557D01*
X147238079Y-93616613D01*
X147248044Y-93595543D01*
X147260026Y-93575552D01*
X147273910Y-93556832D01*
X147289562Y-93539562D01*
X147306832Y-93523910D01*
X147325552Y-93510026D01*
X147345543Y-93498044D01*
X147366613Y-93488079D01*
X147388557Y-93480227D01*
X147411166Y-93474563D01*
X147434221Y-93471144D01*
X147457500Y-93470000D01*
X148032500Y-93470000D01*
X148055779Y-93471144D01*
X148055779Y-93471144D01*
G37*
D16*
X147745000Y-93945000D03*
D15*
G36*
X149805779Y-93471144D02*
X149828834Y-93474563D01*
X149851443Y-93480227D01*
X149873387Y-93488079D01*
X149894457Y-93498044D01*
X149914448Y-93510026D01*
X149933168Y-93523910D01*
X149950438Y-93539562D01*
X149966090Y-93556832D01*
X149979974Y-93575552D01*
X149991956Y-93595543D01*
X150001921Y-93616613D01*
X150009773Y-93638557D01*
X150015437Y-93661166D01*
X150018856Y-93684221D01*
X150020000Y-93707500D01*
X150020000Y-94182500D01*
X150018856Y-94205779D01*
X150015437Y-94228834D01*
X150009773Y-94251443D01*
X150001921Y-94273387D01*
X149991956Y-94294457D01*
X149979974Y-94314448D01*
X149966090Y-94333168D01*
X149950438Y-94350438D01*
X149933168Y-94366090D01*
X149914448Y-94379974D01*
X149894457Y-94391956D01*
X149873387Y-94401921D01*
X149851443Y-94409773D01*
X149828834Y-94415437D01*
X149805779Y-94418856D01*
X149782500Y-94420000D01*
X149207500Y-94420000D01*
X149184221Y-94418856D01*
X149161166Y-94415437D01*
X149138557Y-94409773D01*
X149116613Y-94401921D01*
X149095543Y-94391956D01*
X149075552Y-94379974D01*
X149056832Y-94366090D01*
X149039562Y-94350438D01*
X149023910Y-94333168D01*
X149010026Y-94314448D01*
X148998044Y-94294457D01*
X148988079Y-94273387D01*
X148980227Y-94251443D01*
X148974563Y-94228834D01*
X148971144Y-94205779D01*
X148970000Y-94182500D01*
X148970000Y-93707500D01*
X148971144Y-93684221D01*
X148974563Y-93661166D01*
X148980227Y-93638557D01*
X148988079Y-93616613D01*
X148998044Y-93595543D01*
X149010026Y-93575552D01*
X149023910Y-93556832D01*
X149039562Y-93539562D01*
X149056832Y-93523910D01*
X149075552Y-93510026D01*
X149095543Y-93498044D01*
X149116613Y-93488079D01*
X149138557Y-93480227D01*
X149161166Y-93474563D01*
X149184221Y-93471144D01*
X149207500Y-93470000D01*
X149782500Y-93470000D01*
X149805779Y-93471144D01*
X149805779Y-93471144D01*
G37*
D16*
X149495000Y-93945000D03*
G04 #@! TD*
D15*
G04 #@! TO.C,R10*
G36*
X143305779Y-93471144D02*
X143328834Y-93474563D01*
X143351443Y-93480227D01*
X143373387Y-93488079D01*
X143394457Y-93498044D01*
X143414448Y-93510026D01*
X143433168Y-93523910D01*
X143450438Y-93539562D01*
X143466090Y-93556832D01*
X143479974Y-93575552D01*
X143491956Y-93595543D01*
X143501921Y-93616613D01*
X143509773Y-93638557D01*
X143515437Y-93661166D01*
X143518856Y-93684221D01*
X143520000Y-93707500D01*
X143520000Y-94182500D01*
X143518856Y-94205779D01*
X143515437Y-94228834D01*
X143509773Y-94251443D01*
X143501921Y-94273387D01*
X143491956Y-94294457D01*
X143479974Y-94314448D01*
X143466090Y-94333168D01*
X143450438Y-94350438D01*
X143433168Y-94366090D01*
X143414448Y-94379974D01*
X143394457Y-94391956D01*
X143373387Y-94401921D01*
X143351443Y-94409773D01*
X143328834Y-94415437D01*
X143305779Y-94418856D01*
X143282500Y-94420000D01*
X142707500Y-94420000D01*
X142684221Y-94418856D01*
X142661166Y-94415437D01*
X142638557Y-94409773D01*
X142616613Y-94401921D01*
X142595543Y-94391956D01*
X142575552Y-94379974D01*
X142556832Y-94366090D01*
X142539562Y-94350438D01*
X142523910Y-94333168D01*
X142510026Y-94314448D01*
X142498044Y-94294457D01*
X142488079Y-94273387D01*
X142480227Y-94251443D01*
X142474563Y-94228834D01*
X142471144Y-94205779D01*
X142470000Y-94182500D01*
X142470000Y-93707500D01*
X142471144Y-93684221D01*
X142474563Y-93661166D01*
X142480227Y-93638557D01*
X142488079Y-93616613D01*
X142498044Y-93595543D01*
X142510026Y-93575552D01*
X142523910Y-93556832D01*
X142539562Y-93539562D01*
X142556832Y-93523910D01*
X142575552Y-93510026D01*
X142595543Y-93498044D01*
X142616613Y-93488079D01*
X142638557Y-93480227D01*
X142661166Y-93474563D01*
X142684221Y-93471144D01*
X142707500Y-93470000D01*
X143282500Y-93470000D01*
X143305779Y-93471144D01*
X143305779Y-93471144D01*
G37*
D16*
X142995000Y-93945000D03*
D15*
G36*
X145055779Y-93471144D02*
X145078834Y-93474563D01*
X145101443Y-93480227D01*
X145123387Y-93488079D01*
X145144457Y-93498044D01*
X145164448Y-93510026D01*
X145183168Y-93523910D01*
X145200438Y-93539562D01*
X145216090Y-93556832D01*
X145229974Y-93575552D01*
X145241956Y-93595543D01*
X145251921Y-93616613D01*
X145259773Y-93638557D01*
X145265437Y-93661166D01*
X145268856Y-93684221D01*
X145270000Y-93707500D01*
X145270000Y-94182500D01*
X145268856Y-94205779D01*
X145265437Y-94228834D01*
X145259773Y-94251443D01*
X145251921Y-94273387D01*
X145241956Y-94294457D01*
X145229974Y-94314448D01*
X145216090Y-94333168D01*
X145200438Y-94350438D01*
X145183168Y-94366090D01*
X145164448Y-94379974D01*
X145144457Y-94391956D01*
X145123387Y-94401921D01*
X145101443Y-94409773D01*
X145078834Y-94415437D01*
X145055779Y-94418856D01*
X145032500Y-94420000D01*
X144457500Y-94420000D01*
X144434221Y-94418856D01*
X144411166Y-94415437D01*
X144388557Y-94409773D01*
X144366613Y-94401921D01*
X144345543Y-94391956D01*
X144325552Y-94379974D01*
X144306832Y-94366090D01*
X144289562Y-94350438D01*
X144273910Y-94333168D01*
X144260026Y-94314448D01*
X144248044Y-94294457D01*
X144238079Y-94273387D01*
X144230227Y-94251443D01*
X144224563Y-94228834D01*
X144221144Y-94205779D01*
X144220000Y-94182500D01*
X144220000Y-93707500D01*
X144221144Y-93684221D01*
X144224563Y-93661166D01*
X144230227Y-93638557D01*
X144238079Y-93616613D01*
X144248044Y-93595543D01*
X144260026Y-93575552D01*
X144273910Y-93556832D01*
X144289562Y-93539562D01*
X144306832Y-93523910D01*
X144325552Y-93510026D01*
X144345543Y-93498044D01*
X144366613Y-93488079D01*
X144388557Y-93480227D01*
X144411166Y-93474563D01*
X144434221Y-93471144D01*
X144457500Y-93470000D01*
X145032500Y-93470000D01*
X145055779Y-93471144D01*
X145055779Y-93471144D01*
G37*
D16*
X144745000Y-93945000D03*
G04 #@! TD*
D15*
G04 #@! TO.C,R11*
G36*
X130305779Y-101471144D02*
X130328834Y-101474563D01*
X130351443Y-101480227D01*
X130373387Y-101488079D01*
X130394457Y-101498044D01*
X130414448Y-101510026D01*
X130433168Y-101523910D01*
X130450438Y-101539562D01*
X130466090Y-101556832D01*
X130479974Y-101575552D01*
X130491956Y-101595543D01*
X130501921Y-101616613D01*
X130509773Y-101638557D01*
X130515437Y-101661166D01*
X130518856Y-101684221D01*
X130520000Y-101707500D01*
X130520000Y-102182500D01*
X130518856Y-102205779D01*
X130515437Y-102228834D01*
X130509773Y-102251443D01*
X130501921Y-102273387D01*
X130491956Y-102294457D01*
X130479974Y-102314448D01*
X130466090Y-102333168D01*
X130450438Y-102350438D01*
X130433168Y-102366090D01*
X130414448Y-102379974D01*
X130394457Y-102391956D01*
X130373387Y-102401921D01*
X130351443Y-102409773D01*
X130328834Y-102415437D01*
X130305779Y-102418856D01*
X130282500Y-102420000D01*
X129707500Y-102420000D01*
X129684221Y-102418856D01*
X129661166Y-102415437D01*
X129638557Y-102409773D01*
X129616613Y-102401921D01*
X129595543Y-102391956D01*
X129575552Y-102379974D01*
X129556832Y-102366090D01*
X129539562Y-102350438D01*
X129523910Y-102333168D01*
X129510026Y-102314448D01*
X129498044Y-102294457D01*
X129488079Y-102273387D01*
X129480227Y-102251443D01*
X129474563Y-102228834D01*
X129471144Y-102205779D01*
X129470000Y-102182500D01*
X129470000Y-101707500D01*
X129471144Y-101684221D01*
X129474563Y-101661166D01*
X129480227Y-101638557D01*
X129488079Y-101616613D01*
X129498044Y-101595543D01*
X129510026Y-101575552D01*
X129523910Y-101556832D01*
X129539562Y-101539562D01*
X129556832Y-101523910D01*
X129575552Y-101510026D01*
X129595543Y-101498044D01*
X129616613Y-101488079D01*
X129638557Y-101480227D01*
X129661166Y-101474563D01*
X129684221Y-101471144D01*
X129707500Y-101470000D01*
X130282500Y-101470000D01*
X130305779Y-101471144D01*
X130305779Y-101471144D01*
G37*
D16*
X129995000Y-101945000D03*
D15*
G36*
X128555779Y-101471144D02*
X128578834Y-101474563D01*
X128601443Y-101480227D01*
X128623387Y-101488079D01*
X128644457Y-101498044D01*
X128664448Y-101510026D01*
X128683168Y-101523910D01*
X128700438Y-101539562D01*
X128716090Y-101556832D01*
X128729974Y-101575552D01*
X128741956Y-101595543D01*
X128751921Y-101616613D01*
X128759773Y-101638557D01*
X128765437Y-101661166D01*
X128768856Y-101684221D01*
X128770000Y-101707500D01*
X128770000Y-102182500D01*
X128768856Y-102205779D01*
X128765437Y-102228834D01*
X128759773Y-102251443D01*
X128751921Y-102273387D01*
X128741956Y-102294457D01*
X128729974Y-102314448D01*
X128716090Y-102333168D01*
X128700438Y-102350438D01*
X128683168Y-102366090D01*
X128664448Y-102379974D01*
X128644457Y-102391956D01*
X128623387Y-102401921D01*
X128601443Y-102409773D01*
X128578834Y-102415437D01*
X128555779Y-102418856D01*
X128532500Y-102420000D01*
X127957500Y-102420000D01*
X127934221Y-102418856D01*
X127911166Y-102415437D01*
X127888557Y-102409773D01*
X127866613Y-102401921D01*
X127845543Y-102391956D01*
X127825552Y-102379974D01*
X127806832Y-102366090D01*
X127789562Y-102350438D01*
X127773910Y-102333168D01*
X127760026Y-102314448D01*
X127748044Y-102294457D01*
X127738079Y-102273387D01*
X127730227Y-102251443D01*
X127724563Y-102228834D01*
X127721144Y-102205779D01*
X127720000Y-102182500D01*
X127720000Y-101707500D01*
X127721144Y-101684221D01*
X127724563Y-101661166D01*
X127730227Y-101638557D01*
X127738079Y-101616613D01*
X127748044Y-101595543D01*
X127760026Y-101575552D01*
X127773910Y-101556832D01*
X127789562Y-101539562D01*
X127806832Y-101523910D01*
X127825552Y-101510026D01*
X127845543Y-101498044D01*
X127866613Y-101488079D01*
X127888557Y-101480227D01*
X127911166Y-101474563D01*
X127934221Y-101471144D01*
X127957500Y-101470000D01*
X128532500Y-101470000D01*
X128555779Y-101471144D01*
X128555779Y-101471144D01*
G37*
D16*
X128245000Y-101945000D03*
G04 #@! TD*
D15*
G04 #@! TO.C,R12*
G36*
X134305779Y-101471144D02*
X134328834Y-101474563D01*
X134351443Y-101480227D01*
X134373387Y-101488079D01*
X134394457Y-101498044D01*
X134414448Y-101510026D01*
X134433168Y-101523910D01*
X134450438Y-101539562D01*
X134466090Y-101556832D01*
X134479974Y-101575552D01*
X134491956Y-101595543D01*
X134501921Y-101616613D01*
X134509773Y-101638557D01*
X134515437Y-101661166D01*
X134518856Y-101684221D01*
X134520000Y-101707500D01*
X134520000Y-102182500D01*
X134518856Y-102205779D01*
X134515437Y-102228834D01*
X134509773Y-102251443D01*
X134501921Y-102273387D01*
X134491956Y-102294457D01*
X134479974Y-102314448D01*
X134466090Y-102333168D01*
X134450438Y-102350438D01*
X134433168Y-102366090D01*
X134414448Y-102379974D01*
X134394457Y-102391956D01*
X134373387Y-102401921D01*
X134351443Y-102409773D01*
X134328834Y-102415437D01*
X134305779Y-102418856D01*
X134282500Y-102420000D01*
X133707500Y-102420000D01*
X133684221Y-102418856D01*
X133661166Y-102415437D01*
X133638557Y-102409773D01*
X133616613Y-102401921D01*
X133595543Y-102391956D01*
X133575552Y-102379974D01*
X133556832Y-102366090D01*
X133539562Y-102350438D01*
X133523910Y-102333168D01*
X133510026Y-102314448D01*
X133498044Y-102294457D01*
X133488079Y-102273387D01*
X133480227Y-102251443D01*
X133474563Y-102228834D01*
X133471144Y-102205779D01*
X133470000Y-102182500D01*
X133470000Y-101707500D01*
X133471144Y-101684221D01*
X133474563Y-101661166D01*
X133480227Y-101638557D01*
X133488079Y-101616613D01*
X133498044Y-101595543D01*
X133510026Y-101575552D01*
X133523910Y-101556832D01*
X133539562Y-101539562D01*
X133556832Y-101523910D01*
X133575552Y-101510026D01*
X133595543Y-101498044D01*
X133616613Y-101488079D01*
X133638557Y-101480227D01*
X133661166Y-101474563D01*
X133684221Y-101471144D01*
X133707500Y-101470000D01*
X134282500Y-101470000D01*
X134305779Y-101471144D01*
X134305779Y-101471144D01*
G37*
D16*
X133995000Y-101945000D03*
D15*
G36*
X132555779Y-101471144D02*
X132578834Y-101474563D01*
X132601443Y-101480227D01*
X132623387Y-101488079D01*
X132644457Y-101498044D01*
X132664448Y-101510026D01*
X132683168Y-101523910D01*
X132700438Y-101539562D01*
X132716090Y-101556832D01*
X132729974Y-101575552D01*
X132741956Y-101595543D01*
X132751921Y-101616613D01*
X132759773Y-101638557D01*
X132765437Y-101661166D01*
X132768856Y-101684221D01*
X132770000Y-101707500D01*
X132770000Y-102182500D01*
X132768856Y-102205779D01*
X132765437Y-102228834D01*
X132759773Y-102251443D01*
X132751921Y-102273387D01*
X132741956Y-102294457D01*
X132729974Y-102314448D01*
X132716090Y-102333168D01*
X132700438Y-102350438D01*
X132683168Y-102366090D01*
X132664448Y-102379974D01*
X132644457Y-102391956D01*
X132623387Y-102401921D01*
X132601443Y-102409773D01*
X132578834Y-102415437D01*
X132555779Y-102418856D01*
X132532500Y-102420000D01*
X131957500Y-102420000D01*
X131934221Y-102418856D01*
X131911166Y-102415437D01*
X131888557Y-102409773D01*
X131866613Y-102401921D01*
X131845543Y-102391956D01*
X131825552Y-102379974D01*
X131806832Y-102366090D01*
X131789562Y-102350438D01*
X131773910Y-102333168D01*
X131760026Y-102314448D01*
X131748044Y-102294457D01*
X131738079Y-102273387D01*
X131730227Y-102251443D01*
X131724563Y-102228834D01*
X131721144Y-102205779D01*
X131720000Y-102182500D01*
X131720000Y-101707500D01*
X131721144Y-101684221D01*
X131724563Y-101661166D01*
X131730227Y-101638557D01*
X131738079Y-101616613D01*
X131748044Y-101595543D01*
X131760026Y-101575552D01*
X131773910Y-101556832D01*
X131789562Y-101539562D01*
X131806832Y-101523910D01*
X131825552Y-101510026D01*
X131845543Y-101498044D01*
X131866613Y-101488079D01*
X131888557Y-101480227D01*
X131911166Y-101474563D01*
X131934221Y-101471144D01*
X131957500Y-101470000D01*
X132532500Y-101470000D01*
X132555779Y-101471144D01*
X132555779Y-101471144D01*
G37*
D16*
X132245000Y-101945000D03*
G04 #@! TD*
D15*
G04 #@! TO.C,R13*
G36*
X116755779Y-98471144D02*
X116778834Y-98474563D01*
X116801443Y-98480227D01*
X116823387Y-98488079D01*
X116844457Y-98498044D01*
X116864448Y-98510026D01*
X116883168Y-98523910D01*
X116900438Y-98539562D01*
X116916090Y-98556832D01*
X116929974Y-98575552D01*
X116941956Y-98595543D01*
X116951921Y-98616613D01*
X116959773Y-98638557D01*
X116965437Y-98661166D01*
X116968856Y-98684221D01*
X116970000Y-98707500D01*
X116970000Y-99182500D01*
X116968856Y-99205779D01*
X116965437Y-99228834D01*
X116959773Y-99251443D01*
X116951921Y-99273387D01*
X116941956Y-99294457D01*
X116929974Y-99314448D01*
X116916090Y-99333168D01*
X116900438Y-99350438D01*
X116883168Y-99366090D01*
X116864448Y-99379974D01*
X116844457Y-99391956D01*
X116823387Y-99401921D01*
X116801443Y-99409773D01*
X116778834Y-99415437D01*
X116755779Y-99418856D01*
X116732500Y-99420000D01*
X116157500Y-99420000D01*
X116134221Y-99418856D01*
X116111166Y-99415437D01*
X116088557Y-99409773D01*
X116066613Y-99401921D01*
X116045543Y-99391956D01*
X116025552Y-99379974D01*
X116006832Y-99366090D01*
X115989562Y-99350438D01*
X115973910Y-99333168D01*
X115960026Y-99314448D01*
X115948044Y-99294457D01*
X115938079Y-99273387D01*
X115930227Y-99251443D01*
X115924563Y-99228834D01*
X115921144Y-99205779D01*
X115920000Y-99182500D01*
X115920000Y-98707500D01*
X115921144Y-98684221D01*
X115924563Y-98661166D01*
X115930227Y-98638557D01*
X115938079Y-98616613D01*
X115948044Y-98595543D01*
X115960026Y-98575552D01*
X115973910Y-98556832D01*
X115989562Y-98539562D01*
X116006832Y-98523910D01*
X116025552Y-98510026D01*
X116045543Y-98498044D01*
X116066613Y-98488079D01*
X116088557Y-98480227D01*
X116111166Y-98474563D01*
X116134221Y-98471144D01*
X116157500Y-98470000D01*
X116732500Y-98470000D01*
X116755779Y-98471144D01*
X116755779Y-98471144D01*
G37*
D16*
X116445000Y-98945000D03*
D15*
G36*
X118505779Y-98471144D02*
X118528834Y-98474563D01*
X118551443Y-98480227D01*
X118573387Y-98488079D01*
X118594457Y-98498044D01*
X118614448Y-98510026D01*
X118633168Y-98523910D01*
X118650438Y-98539562D01*
X118666090Y-98556832D01*
X118679974Y-98575552D01*
X118691956Y-98595543D01*
X118701921Y-98616613D01*
X118709773Y-98638557D01*
X118715437Y-98661166D01*
X118718856Y-98684221D01*
X118720000Y-98707500D01*
X118720000Y-99182500D01*
X118718856Y-99205779D01*
X118715437Y-99228834D01*
X118709773Y-99251443D01*
X118701921Y-99273387D01*
X118691956Y-99294457D01*
X118679974Y-99314448D01*
X118666090Y-99333168D01*
X118650438Y-99350438D01*
X118633168Y-99366090D01*
X118614448Y-99379974D01*
X118594457Y-99391956D01*
X118573387Y-99401921D01*
X118551443Y-99409773D01*
X118528834Y-99415437D01*
X118505779Y-99418856D01*
X118482500Y-99420000D01*
X117907500Y-99420000D01*
X117884221Y-99418856D01*
X117861166Y-99415437D01*
X117838557Y-99409773D01*
X117816613Y-99401921D01*
X117795543Y-99391956D01*
X117775552Y-99379974D01*
X117756832Y-99366090D01*
X117739562Y-99350438D01*
X117723910Y-99333168D01*
X117710026Y-99314448D01*
X117698044Y-99294457D01*
X117688079Y-99273387D01*
X117680227Y-99251443D01*
X117674563Y-99228834D01*
X117671144Y-99205779D01*
X117670000Y-99182500D01*
X117670000Y-98707500D01*
X117671144Y-98684221D01*
X117674563Y-98661166D01*
X117680227Y-98638557D01*
X117688079Y-98616613D01*
X117698044Y-98595543D01*
X117710026Y-98575552D01*
X117723910Y-98556832D01*
X117739562Y-98539562D01*
X117756832Y-98523910D01*
X117775552Y-98510026D01*
X117795543Y-98498044D01*
X117816613Y-98488079D01*
X117838557Y-98480227D01*
X117861166Y-98474563D01*
X117884221Y-98471144D01*
X117907500Y-98470000D01*
X118482500Y-98470000D01*
X118505779Y-98471144D01*
X118505779Y-98471144D01*
G37*
D16*
X118195000Y-98945000D03*
G04 #@! TD*
D15*
G04 #@! TO.C,R14*
G36*
X116755779Y-96771144D02*
X116778834Y-96774563D01*
X116801443Y-96780227D01*
X116823387Y-96788079D01*
X116844457Y-96798044D01*
X116864448Y-96810026D01*
X116883168Y-96823910D01*
X116900438Y-96839562D01*
X116916090Y-96856832D01*
X116929974Y-96875552D01*
X116941956Y-96895543D01*
X116951921Y-96916613D01*
X116959773Y-96938557D01*
X116965437Y-96961166D01*
X116968856Y-96984221D01*
X116970000Y-97007500D01*
X116970000Y-97482500D01*
X116968856Y-97505779D01*
X116965437Y-97528834D01*
X116959773Y-97551443D01*
X116951921Y-97573387D01*
X116941956Y-97594457D01*
X116929974Y-97614448D01*
X116916090Y-97633168D01*
X116900438Y-97650438D01*
X116883168Y-97666090D01*
X116864448Y-97679974D01*
X116844457Y-97691956D01*
X116823387Y-97701921D01*
X116801443Y-97709773D01*
X116778834Y-97715437D01*
X116755779Y-97718856D01*
X116732500Y-97720000D01*
X116157500Y-97720000D01*
X116134221Y-97718856D01*
X116111166Y-97715437D01*
X116088557Y-97709773D01*
X116066613Y-97701921D01*
X116045543Y-97691956D01*
X116025552Y-97679974D01*
X116006832Y-97666090D01*
X115989562Y-97650438D01*
X115973910Y-97633168D01*
X115960026Y-97614448D01*
X115948044Y-97594457D01*
X115938079Y-97573387D01*
X115930227Y-97551443D01*
X115924563Y-97528834D01*
X115921144Y-97505779D01*
X115920000Y-97482500D01*
X115920000Y-97007500D01*
X115921144Y-96984221D01*
X115924563Y-96961166D01*
X115930227Y-96938557D01*
X115938079Y-96916613D01*
X115948044Y-96895543D01*
X115960026Y-96875552D01*
X115973910Y-96856832D01*
X115989562Y-96839562D01*
X116006832Y-96823910D01*
X116025552Y-96810026D01*
X116045543Y-96798044D01*
X116066613Y-96788079D01*
X116088557Y-96780227D01*
X116111166Y-96774563D01*
X116134221Y-96771144D01*
X116157500Y-96770000D01*
X116732500Y-96770000D01*
X116755779Y-96771144D01*
X116755779Y-96771144D01*
G37*
D16*
X116445000Y-97245000D03*
D15*
G36*
X118505779Y-96771144D02*
X118528834Y-96774563D01*
X118551443Y-96780227D01*
X118573387Y-96788079D01*
X118594457Y-96798044D01*
X118614448Y-96810026D01*
X118633168Y-96823910D01*
X118650438Y-96839562D01*
X118666090Y-96856832D01*
X118679974Y-96875552D01*
X118691956Y-96895543D01*
X118701921Y-96916613D01*
X118709773Y-96938557D01*
X118715437Y-96961166D01*
X118718856Y-96984221D01*
X118720000Y-97007500D01*
X118720000Y-97482500D01*
X118718856Y-97505779D01*
X118715437Y-97528834D01*
X118709773Y-97551443D01*
X118701921Y-97573387D01*
X118691956Y-97594457D01*
X118679974Y-97614448D01*
X118666090Y-97633168D01*
X118650438Y-97650438D01*
X118633168Y-97666090D01*
X118614448Y-97679974D01*
X118594457Y-97691956D01*
X118573387Y-97701921D01*
X118551443Y-97709773D01*
X118528834Y-97715437D01*
X118505779Y-97718856D01*
X118482500Y-97720000D01*
X117907500Y-97720000D01*
X117884221Y-97718856D01*
X117861166Y-97715437D01*
X117838557Y-97709773D01*
X117816613Y-97701921D01*
X117795543Y-97691956D01*
X117775552Y-97679974D01*
X117756832Y-97666090D01*
X117739562Y-97650438D01*
X117723910Y-97633168D01*
X117710026Y-97614448D01*
X117698044Y-97594457D01*
X117688079Y-97573387D01*
X117680227Y-97551443D01*
X117674563Y-97528834D01*
X117671144Y-97505779D01*
X117670000Y-97482500D01*
X117670000Y-97007500D01*
X117671144Y-96984221D01*
X117674563Y-96961166D01*
X117680227Y-96938557D01*
X117688079Y-96916613D01*
X117698044Y-96895543D01*
X117710026Y-96875552D01*
X117723910Y-96856832D01*
X117739562Y-96839562D01*
X117756832Y-96823910D01*
X117775552Y-96810026D01*
X117795543Y-96798044D01*
X117816613Y-96788079D01*
X117838557Y-96780227D01*
X117861166Y-96774563D01*
X117884221Y-96771144D01*
X117907500Y-96770000D01*
X118482500Y-96770000D01*
X118505779Y-96771144D01*
X118505779Y-96771144D01*
G37*
D16*
X118195000Y-97245000D03*
G04 #@! TD*
D23*
G04 #@! TO.C,U4*
X146815000Y-104782500D03*
X144275000Y-104782500D03*
D24*
X145545000Y-98482500D03*
D23*
X145545000Y-104782500D03*
X148085000Y-104782500D03*
X143005000Y-104782500D03*
G04 #@! TD*
D25*
G04 #@! TO.C,U5*
X125220000Y-99645000D03*
X125220000Y-98695000D03*
X125220000Y-97745000D03*
X122520000Y-97745000D03*
X122520000Y-99645000D03*
G04 #@! TD*
D26*
G04 #@! TO.C,U3*
X145920000Y-71500000D03*
X145920000Y-72770000D03*
X145920000Y-74040000D03*
X145920000Y-75310000D03*
X145920000Y-76580000D03*
X145920000Y-77850000D03*
X145920000Y-79120000D03*
X145920000Y-80390000D03*
X151320000Y-80390000D03*
X151320000Y-79120000D03*
X151320000Y-77850000D03*
X151320000Y-76580000D03*
X151320000Y-75310000D03*
X151320000Y-74040000D03*
X151320000Y-72770000D03*
X151320000Y-71500000D03*
G04 #@! TD*
D15*
G04 #@! TO.C,D1*
G36*
X130444505Y-98496204D02*
X130468773Y-98499804D01*
X130492572Y-98505765D01*
X130515671Y-98514030D01*
X130537850Y-98524520D01*
X130558893Y-98537132D01*
X130578599Y-98551747D01*
X130596777Y-98568223D01*
X130613253Y-98586401D01*
X130627868Y-98606107D01*
X130640480Y-98627150D01*
X130650970Y-98649329D01*
X130659235Y-98672428D01*
X130665196Y-98696227D01*
X130668796Y-98720495D01*
X130670000Y-98744999D01*
X130670000Y-99645001D01*
X130668796Y-99669505D01*
X130665196Y-99693773D01*
X130659235Y-99717572D01*
X130650970Y-99740671D01*
X130640480Y-99762850D01*
X130627868Y-99783893D01*
X130613253Y-99803599D01*
X130596777Y-99821777D01*
X130578599Y-99838253D01*
X130558893Y-99852868D01*
X130537850Y-99865480D01*
X130515671Y-99875970D01*
X130492572Y-99884235D01*
X130468773Y-99890196D01*
X130444505Y-99893796D01*
X130420001Y-99895000D01*
X129769999Y-99895000D01*
X129745495Y-99893796D01*
X129721227Y-99890196D01*
X129697428Y-99884235D01*
X129674329Y-99875970D01*
X129652150Y-99865480D01*
X129631107Y-99852868D01*
X129611401Y-99838253D01*
X129593223Y-99821777D01*
X129576747Y-99803599D01*
X129562132Y-99783893D01*
X129549520Y-99762850D01*
X129539030Y-99740671D01*
X129530765Y-99717572D01*
X129524804Y-99693773D01*
X129521204Y-99669505D01*
X129520000Y-99645001D01*
X129520000Y-98744999D01*
X129521204Y-98720495D01*
X129524804Y-98696227D01*
X129530765Y-98672428D01*
X129539030Y-98649329D01*
X129549520Y-98627150D01*
X129562132Y-98606107D01*
X129576747Y-98586401D01*
X129593223Y-98568223D01*
X129611401Y-98551747D01*
X129631107Y-98537132D01*
X129652150Y-98524520D01*
X129674329Y-98514030D01*
X129697428Y-98505765D01*
X129721227Y-98499804D01*
X129745495Y-98496204D01*
X129769999Y-98495000D01*
X130420001Y-98495000D01*
X130444505Y-98496204D01*
X130444505Y-98496204D01*
G37*
D27*
X130095000Y-99195000D03*
D15*
G36*
X132494505Y-98496204D02*
X132518773Y-98499804D01*
X132542572Y-98505765D01*
X132565671Y-98514030D01*
X132587850Y-98524520D01*
X132608893Y-98537132D01*
X132628599Y-98551747D01*
X132646777Y-98568223D01*
X132663253Y-98586401D01*
X132677868Y-98606107D01*
X132690480Y-98627150D01*
X132700970Y-98649329D01*
X132709235Y-98672428D01*
X132715196Y-98696227D01*
X132718796Y-98720495D01*
X132720000Y-98744999D01*
X132720000Y-99645001D01*
X132718796Y-99669505D01*
X132715196Y-99693773D01*
X132709235Y-99717572D01*
X132700970Y-99740671D01*
X132690480Y-99762850D01*
X132677868Y-99783893D01*
X132663253Y-99803599D01*
X132646777Y-99821777D01*
X132628599Y-99838253D01*
X132608893Y-99852868D01*
X132587850Y-99865480D01*
X132565671Y-99875970D01*
X132542572Y-99884235D01*
X132518773Y-99890196D01*
X132494505Y-99893796D01*
X132470001Y-99895000D01*
X131819999Y-99895000D01*
X131795495Y-99893796D01*
X131771227Y-99890196D01*
X131747428Y-99884235D01*
X131724329Y-99875970D01*
X131702150Y-99865480D01*
X131681107Y-99852868D01*
X131661401Y-99838253D01*
X131643223Y-99821777D01*
X131626747Y-99803599D01*
X131612132Y-99783893D01*
X131599520Y-99762850D01*
X131589030Y-99740671D01*
X131580765Y-99717572D01*
X131574804Y-99693773D01*
X131571204Y-99669505D01*
X131570000Y-99645001D01*
X131570000Y-98744999D01*
X131571204Y-98720495D01*
X131574804Y-98696227D01*
X131580765Y-98672428D01*
X131589030Y-98649329D01*
X131599520Y-98627150D01*
X131612132Y-98606107D01*
X131626747Y-98586401D01*
X131643223Y-98568223D01*
X131661401Y-98551747D01*
X131681107Y-98537132D01*
X131702150Y-98524520D01*
X131724329Y-98514030D01*
X131747428Y-98505765D01*
X131771227Y-98499804D01*
X131795495Y-98496204D01*
X131819999Y-98495000D01*
X132470001Y-98495000D01*
X132494505Y-98496204D01*
X132494505Y-98496204D01*
G37*
D27*
X132145000Y-99195000D03*
G04 #@! TD*
D28*
G04 #@! TO.C,U2*
X153670000Y-107295000D03*
X153670000Y-106345000D03*
X153670000Y-105395000D03*
X151070000Y-105395000D03*
X151070000Y-107295000D03*
X151070000Y-106345000D03*
G04 #@! TD*
D15*
G04 #@! TO.C,R15*
G36*
X134880779Y-98796144D02*
X134903834Y-98799563D01*
X134926443Y-98805227D01*
X134948387Y-98813079D01*
X134969457Y-98823044D01*
X134989448Y-98835026D01*
X135008168Y-98848910D01*
X135025438Y-98864562D01*
X135041090Y-98881832D01*
X135054974Y-98900552D01*
X135066956Y-98920543D01*
X135076921Y-98941613D01*
X135084773Y-98963557D01*
X135090437Y-98986166D01*
X135093856Y-99009221D01*
X135095000Y-99032500D01*
X135095000Y-99607500D01*
X135093856Y-99630779D01*
X135090437Y-99653834D01*
X135084773Y-99676443D01*
X135076921Y-99698387D01*
X135066956Y-99719457D01*
X135054974Y-99739448D01*
X135041090Y-99758168D01*
X135025438Y-99775438D01*
X135008168Y-99791090D01*
X134989448Y-99804974D01*
X134969457Y-99816956D01*
X134948387Y-99826921D01*
X134926443Y-99834773D01*
X134903834Y-99840437D01*
X134880779Y-99843856D01*
X134857500Y-99845000D01*
X134382500Y-99845000D01*
X134359221Y-99843856D01*
X134336166Y-99840437D01*
X134313557Y-99834773D01*
X134291613Y-99826921D01*
X134270543Y-99816956D01*
X134250552Y-99804974D01*
X134231832Y-99791090D01*
X134214562Y-99775438D01*
X134198910Y-99758168D01*
X134185026Y-99739448D01*
X134173044Y-99719457D01*
X134163079Y-99698387D01*
X134155227Y-99676443D01*
X134149563Y-99653834D01*
X134146144Y-99630779D01*
X134145000Y-99607500D01*
X134145000Y-99032500D01*
X134146144Y-99009221D01*
X134149563Y-98986166D01*
X134155227Y-98963557D01*
X134163079Y-98941613D01*
X134173044Y-98920543D01*
X134185026Y-98900552D01*
X134198910Y-98881832D01*
X134214562Y-98864562D01*
X134231832Y-98848910D01*
X134250552Y-98835026D01*
X134270543Y-98823044D01*
X134291613Y-98813079D01*
X134313557Y-98805227D01*
X134336166Y-98799563D01*
X134359221Y-98796144D01*
X134382500Y-98795000D01*
X134857500Y-98795000D01*
X134880779Y-98796144D01*
X134880779Y-98796144D01*
G37*
D16*
X134620000Y-99320000D03*
D15*
G36*
X134880779Y-97046144D02*
X134903834Y-97049563D01*
X134926443Y-97055227D01*
X134948387Y-97063079D01*
X134969457Y-97073044D01*
X134989448Y-97085026D01*
X135008168Y-97098910D01*
X135025438Y-97114562D01*
X135041090Y-97131832D01*
X135054974Y-97150552D01*
X135066956Y-97170543D01*
X135076921Y-97191613D01*
X135084773Y-97213557D01*
X135090437Y-97236166D01*
X135093856Y-97259221D01*
X135095000Y-97282500D01*
X135095000Y-97857500D01*
X135093856Y-97880779D01*
X135090437Y-97903834D01*
X135084773Y-97926443D01*
X135076921Y-97948387D01*
X135066956Y-97969457D01*
X135054974Y-97989448D01*
X135041090Y-98008168D01*
X135025438Y-98025438D01*
X135008168Y-98041090D01*
X134989448Y-98054974D01*
X134969457Y-98066956D01*
X134948387Y-98076921D01*
X134926443Y-98084773D01*
X134903834Y-98090437D01*
X134880779Y-98093856D01*
X134857500Y-98095000D01*
X134382500Y-98095000D01*
X134359221Y-98093856D01*
X134336166Y-98090437D01*
X134313557Y-98084773D01*
X134291613Y-98076921D01*
X134270543Y-98066956D01*
X134250552Y-98054974D01*
X134231832Y-98041090D01*
X134214562Y-98025438D01*
X134198910Y-98008168D01*
X134185026Y-97989448D01*
X134173044Y-97969457D01*
X134163079Y-97948387D01*
X134155227Y-97926443D01*
X134149563Y-97903834D01*
X134146144Y-97880779D01*
X134145000Y-97857500D01*
X134145000Y-97282500D01*
X134146144Y-97259221D01*
X134149563Y-97236166D01*
X134155227Y-97213557D01*
X134163079Y-97191613D01*
X134173044Y-97170543D01*
X134185026Y-97150552D01*
X134198910Y-97131832D01*
X134214562Y-97114562D01*
X134231832Y-97098910D01*
X134250552Y-97085026D01*
X134270543Y-97073044D01*
X134291613Y-97063079D01*
X134313557Y-97055227D01*
X134336166Y-97049563D01*
X134359221Y-97046144D01*
X134382500Y-97045000D01*
X134857500Y-97045000D01*
X134880779Y-97046144D01*
X134880779Y-97046144D01*
G37*
D16*
X134620000Y-97570000D03*
G04 #@! TD*
D29*
G04 #@! TO.C,JP1*
X120120000Y-98295000D03*
D15*
G36*
X119370000Y-98795000D02*
X119370000Y-98295000D01*
X119370602Y-98295000D01*
X119370602Y-98270466D01*
X119375412Y-98221635D01*
X119384984Y-98173510D01*
X119399228Y-98126555D01*
X119418005Y-98081222D01*
X119441136Y-98037949D01*
X119468396Y-97997150D01*
X119499524Y-97959221D01*
X119534221Y-97924524D01*
X119572150Y-97893396D01*
X119612949Y-97866136D01*
X119656222Y-97843005D01*
X119701555Y-97824228D01*
X119748510Y-97809984D01*
X119796635Y-97800412D01*
X119845466Y-97795602D01*
X119870000Y-97795602D01*
X119870000Y-97795000D01*
X120370000Y-97795000D01*
X120370000Y-97795602D01*
X120394534Y-97795602D01*
X120443365Y-97800412D01*
X120491490Y-97809984D01*
X120538445Y-97824228D01*
X120583778Y-97843005D01*
X120627051Y-97866136D01*
X120667850Y-97893396D01*
X120705779Y-97924524D01*
X120740476Y-97959221D01*
X120771604Y-97997150D01*
X120798864Y-98037949D01*
X120821995Y-98081222D01*
X120840772Y-98126555D01*
X120855016Y-98173510D01*
X120864588Y-98221635D01*
X120869398Y-98270466D01*
X120869398Y-98295000D01*
X120870000Y-98295000D01*
X120870000Y-98795000D01*
X119370000Y-98795000D01*
X119370000Y-98795000D01*
G37*
D29*
X120120000Y-99595000D03*
D15*
G36*
X120869398Y-99595000D02*
X120869398Y-99619534D01*
X120864588Y-99668365D01*
X120855016Y-99716490D01*
X120840772Y-99763445D01*
X120821995Y-99808778D01*
X120798864Y-99852051D01*
X120771604Y-99892850D01*
X120740476Y-99930779D01*
X120705779Y-99965476D01*
X120667850Y-99996604D01*
X120627051Y-100023864D01*
X120583778Y-100046995D01*
X120538445Y-100065772D01*
X120491490Y-100080016D01*
X120443365Y-100089588D01*
X120394534Y-100094398D01*
X120370000Y-100094398D01*
X120370000Y-100095000D01*
X119870000Y-100095000D01*
X119870000Y-100094398D01*
X119845466Y-100094398D01*
X119796635Y-100089588D01*
X119748510Y-100080016D01*
X119701555Y-100065772D01*
X119656222Y-100046995D01*
X119612949Y-100023864D01*
X119572150Y-99996604D01*
X119534221Y-99965476D01*
X119499524Y-99930779D01*
X119468396Y-99892850D01*
X119441136Y-99852051D01*
X119418005Y-99808778D01*
X119399228Y-99763445D01*
X119384984Y-99716490D01*
X119375412Y-99668365D01*
X119370602Y-99619534D01*
X119370602Y-99595000D01*
X119370000Y-99595000D01*
X119370000Y-99095000D01*
X120870000Y-99095000D01*
X120870000Y-99595000D01*
X120869398Y-99595000D01*
X120869398Y-99595000D01*
G37*
G04 #@! TD*
G04 #@! TO.C,R16*
G36*
X142555779Y-76221144D02*
X142578834Y-76224563D01*
X142601443Y-76230227D01*
X142623387Y-76238079D01*
X142644457Y-76248044D01*
X142664448Y-76260026D01*
X142683168Y-76273910D01*
X142700438Y-76289562D01*
X142716090Y-76306832D01*
X142729974Y-76325552D01*
X142741956Y-76345543D01*
X142751921Y-76366613D01*
X142759773Y-76388557D01*
X142765437Y-76411166D01*
X142768856Y-76434221D01*
X142770000Y-76457500D01*
X142770000Y-76932500D01*
X142768856Y-76955779D01*
X142765437Y-76978834D01*
X142759773Y-77001443D01*
X142751921Y-77023387D01*
X142741956Y-77044457D01*
X142729974Y-77064448D01*
X142716090Y-77083168D01*
X142700438Y-77100438D01*
X142683168Y-77116090D01*
X142664448Y-77129974D01*
X142644457Y-77141956D01*
X142623387Y-77151921D01*
X142601443Y-77159773D01*
X142578834Y-77165437D01*
X142555779Y-77168856D01*
X142532500Y-77170000D01*
X141957500Y-77170000D01*
X141934221Y-77168856D01*
X141911166Y-77165437D01*
X141888557Y-77159773D01*
X141866613Y-77151921D01*
X141845543Y-77141956D01*
X141825552Y-77129974D01*
X141806832Y-77116090D01*
X141789562Y-77100438D01*
X141773910Y-77083168D01*
X141760026Y-77064448D01*
X141748044Y-77044457D01*
X141738079Y-77023387D01*
X141730227Y-77001443D01*
X141724563Y-76978834D01*
X141721144Y-76955779D01*
X141720000Y-76932500D01*
X141720000Y-76457500D01*
X141721144Y-76434221D01*
X141724563Y-76411166D01*
X141730227Y-76388557D01*
X141738079Y-76366613D01*
X141748044Y-76345543D01*
X141760026Y-76325552D01*
X141773910Y-76306832D01*
X141789562Y-76289562D01*
X141806832Y-76273910D01*
X141825552Y-76260026D01*
X141845543Y-76248044D01*
X141866613Y-76238079D01*
X141888557Y-76230227D01*
X141911166Y-76224563D01*
X141934221Y-76221144D01*
X141957500Y-76220000D01*
X142532500Y-76220000D01*
X142555779Y-76221144D01*
X142555779Y-76221144D01*
G37*
D16*
X142245000Y-76695000D03*
D15*
G36*
X140805779Y-76221144D02*
X140828834Y-76224563D01*
X140851443Y-76230227D01*
X140873387Y-76238079D01*
X140894457Y-76248044D01*
X140914448Y-76260026D01*
X140933168Y-76273910D01*
X140950438Y-76289562D01*
X140966090Y-76306832D01*
X140979974Y-76325552D01*
X140991956Y-76345543D01*
X141001921Y-76366613D01*
X141009773Y-76388557D01*
X141015437Y-76411166D01*
X141018856Y-76434221D01*
X141020000Y-76457500D01*
X141020000Y-76932500D01*
X141018856Y-76955779D01*
X141015437Y-76978834D01*
X141009773Y-77001443D01*
X141001921Y-77023387D01*
X140991956Y-77044457D01*
X140979974Y-77064448D01*
X140966090Y-77083168D01*
X140950438Y-77100438D01*
X140933168Y-77116090D01*
X140914448Y-77129974D01*
X140894457Y-77141956D01*
X140873387Y-77151921D01*
X140851443Y-77159773D01*
X140828834Y-77165437D01*
X140805779Y-77168856D01*
X140782500Y-77170000D01*
X140207500Y-77170000D01*
X140184221Y-77168856D01*
X140161166Y-77165437D01*
X140138557Y-77159773D01*
X140116613Y-77151921D01*
X140095543Y-77141956D01*
X140075552Y-77129974D01*
X140056832Y-77116090D01*
X140039562Y-77100438D01*
X140023910Y-77083168D01*
X140010026Y-77064448D01*
X139998044Y-77044457D01*
X139988079Y-77023387D01*
X139980227Y-77001443D01*
X139974563Y-76978834D01*
X139971144Y-76955779D01*
X139970000Y-76932500D01*
X139970000Y-76457500D01*
X139971144Y-76434221D01*
X139974563Y-76411166D01*
X139980227Y-76388557D01*
X139988079Y-76366613D01*
X139998044Y-76345543D01*
X140010026Y-76325552D01*
X140023910Y-76306832D01*
X140039562Y-76289562D01*
X140056832Y-76273910D01*
X140075552Y-76260026D01*
X140095543Y-76248044D01*
X140116613Y-76238079D01*
X140138557Y-76230227D01*
X140161166Y-76224563D01*
X140184221Y-76221144D01*
X140207500Y-76220000D01*
X140782500Y-76220000D01*
X140805779Y-76221144D01*
X140805779Y-76221144D01*
G37*
D16*
X140495000Y-76695000D03*
G04 #@! TD*
D30*
G04 #@! TO.C,TP1*
X134020000Y-109845000D03*
G04 #@! TD*
M02*
