G04 #@! TF.GenerationSoftware,KiCad,Pcbnew,5.0.2-bee76a0~70~ubuntu16.04.1*
G04 #@! TF.CreationDate,2019-11-05T21:27:42+00:00*
G04 #@! TF.ProjectId,transmitter,7472616e-736d-4697-9474-65722e6b6963,rev?*
G04 #@! TF.SameCoordinates,Original*
G04 #@! TF.FileFunction,Soldermask,Top*
G04 #@! TF.FilePolarity,Negative*
%FSLAX46Y46*%
G04 Gerber Fmt 4.6, Leading zero omitted, Abs format (unit mm)*
G04 Created by KiCad (PCBNEW 5.0.2-bee76a0~70~ubuntu16.04.1) date Tue 05 Nov 2019 21:27:42 GMT*
%MOMM*%
%LPD*%
G01*
G04 APERTURE LIST*
%ADD10C,0.150000*%
%ADD11C,0.127000*%
%ADD12C,0.076200*%
%ADD13C,0.101600*%
%ADD14C,0.500000*%
G04 APERTURE END LIST*
D10*
G04 #@! TO.C,REF\002A\002A*
X147851623Y-107825000D02*
G75*
G03X147851623Y-107825000I-31623J0D01*
G01*
D11*
X148310000Y-107965000D02*
G75*
G03X148310000Y-107965000I-410000J0D01*
G01*
D10*
X147851623Y-108105000D02*
G75*
G03X147851623Y-108105000I-31623J0D01*
G01*
D12*
X148040000Y-108155000D02*
X148110000Y-108035000D01*
X148110000Y-108035000D02*
X148100000Y-107905000D01*
X148100000Y-107905000D02*
X148010000Y-107785000D01*
D13*
X147430000Y-108075000D02*
X147290000Y-108345000D01*
X147290000Y-108345000D02*
X147360000Y-108625000D01*
X147360000Y-108625000D02*
X147550000Y-108735000D01*
X147550000Y-108735000D02*
X147720000Y-108625000D01*
X147720000Y-108625000D02*
X147770000Y-108415000D01*
X147840000Y-108405000D02*
X147890000Y-108675000D01*
X147890000Y-108675000D02*
X148040000Y-108765000D01*
X148040000Y-108765000D02*
X148170000Y-108725000D01*
X148170000Y-108725000D02*
X148250000Y-108605000D01*
X148250000Y-108605000D02*
X148190000Y-108355000D01*
X148210000Y-108335000D02*
X148410000Y-108415000D01*
X148410000Y-108415000D02*
X148600000Y-108405000D01*
X148600000Y-108405000D02*
X148640000Y-108295000D01*
X148640000Y-108295000D02*
X148600000Y-108175000D01*
X148600000Y-108175000D02*
X148490000Y-108115000D01*
X148490000Y-108115000D02*
X148380000Y-108095000D01*
X148380000Y-108095000D02*
X148360000Y-108075000D01*
X148360000Y-108075000D02*
X148380000Y-108105000D01*
X148380000Y-108105000D02*
X148350000Y-108115000D01*
X147470000Y-108005000D02*
X147200000Y-107915000D01*
X147200000Y-107915000D02*
X147140000Y-107755000D01*
X147140000Y-107755000D02*
X147170000Y-107585000D01*
X147170000Y-107585000D02*
X147280000Y-107535000D01*
X147280000Y-107535000D02*
X147390000Y-107555000D01*
X147390000Y-107555000D02*
X147530000Y-107645000D01*
X147520000Y-107675000D02*
X147510000Y-107305000D01*
X147510000Y-107305000D02*
X147610000Y-107195000D01*
X147610000Y-107195000D02*
X147760000Y-107175000D01*
X147760000Y-107175000D02*
X147830000Y-107275000D01*
X147830000Y-107275000D02*
X147840000Y-107425000D01*
X147840000Y-107425000D02*
X147840000Y-107525000D01*
X147870000Y-107525000D02*
X147980000Y-107345000D01*
X147980000Y-107345000D02*
X148120000Y-107245000D01*
X148120000Y-107245000D02*
X148260000Y-107245000D01*
X148260000Y-107245000D02*
X148360000Y-107285000D01*
X148360000Y-107285000D02*
X148400000Y-107395000D01*
X148400000Y-107395000D02*
X148370000Y-107525000D01*
X148370000Y-107525000D02*
X148240000Y-107615000D01*
X148370000Y-108045000D02*
X148560000Y-107975000D01*
X148560000Y-107975000D02*
X148690000Y-107855000D01*
X148690000Y-107855000D02*
X148660000Y-107735000D01*
X148660000Y-107735000D02*
X148570000Y-107685000D01*
X148570000Y-107685000D02*
X148470000Y-107705000D01*
X148470000Y-107705000D02*
X148300000Y-107705000D01*
X148460000Y-108075000D02*
X148890000Y-107985000D01*
X148890000Y-107985000D02*
X149190000Y-107765000D01*
X149190000Y-107765000D02*
X149470000Y-107645000D01*
X149470000Y-107645000D02*
X149690000Y-107685000D01*
X149690000Y-107685000D02*
X149170000Y-107525000D01*
D14*
G36*
X132981000Y-109486000D02*
X131179000Y-109486000D01*
X131179000Y-107684000D01*
X132981000Y-107684000D01*
X132981000Y-109486000D01*
X132981000Y-109486000D01*
G37*
G36*
X167440442Y-107650518D02*
X167506627Y-107657037D01*
X167595512Y-107684000D01*
X167676467Y-107708557D01*
X167815087Y-107782652D01*
X167832991Y-107792222D01*
X167868729Y-107821552D01*
X167970186Y-107904814D01*
X168039131Y-107988825D01*
X168082778Y-108042009D01*
X168082779Y-108042011D01*
X168166443Y-108198533D01*
X168166443Y-108198534D01*
X168217963Y-108368373D01*
X168235359Y-108545000D01*
X168217963Y-108721627D01*
X168183616Y-108834853D01*
X168166443Y-108891467D01*
X168107690Y-109001385D01*
X168082778Y-109047991D01*
X168053448Y-109083729D01*
X167970186Y-109185186D01*
X167884173Y-109255774D01*
X167832991Y-109297778D01*
X167832989Y-109297779D01*
X167676467Y-109381443D01*
X167619853Y-109398616D01*
X167506627Y-109432963D01*
X167440442Y-109439482D01*
X167374260Y-109446000D01*
X166985740Y-109446000D01*
X166919558Y-109439482D01*
X166853373Y-109432963D01*
X166740147Y-109398616D01*
X166683533Y-109381443D01*
X166527011Y-109297779D01*
X166527009Y-109297778D01*
X166475827Y-109255774D01*
X166389814Y-109185186D01*
X166306552Y-109083729D01*
X166277222Y-109047991D01*
X166252310Y-109001385D01*
X166193557Y-108891467D01*
X166176384Y-108834853D01*
X166142037Y-108721627D01*
X166124641Y-108545000D01*
X166142037Y-108368373D01*
X166193557Y-108198534D01*
X166193557Y-108198533D01*
X166277221Y-108042011D01*
X166277222Y-108042009D01*
X166320869Y-107988825D01*
X166389814Y-107904814D01*
X166491271Y-107821552D01*
X166527009Y-107792222D01*
X166544913Y-107782652D01*
X166683533Y-107708557D01*
X166764488Y-107684000D01*
X166853373Y-107657037D01*
X166919558Y-107650518D01*
X166985740Y-107644000D01*
X167374260Y-107644000D01*
X167440442Y-107650518D01*
X167440442Y-107650518D01*
G37*
G36*
X127715782Y-107873295D02*
X127751815Y-107884226D01*
X127785028Y-107901979D01*
X127814134Y-107925866D01*
X127838021Y-107954972D01*
X127855774Y-107988185D01*
X127866705Y-108024218D01*
X127871000Y-108067830D01*
X127871000Y-109072170D01*
X127866705Y-109115782D01*
X127855774Y-109151815D01*
X127838021Y-109185028D01*
X127814134Y-109214134D01*
X127785028Y-109238021D01*
X127751815Y-109255774D01*
X127715782Y-109266705D01*
X127672170Y-109271000D01*
X124567830Y-109271000D01*
X124524218Y-109266705D01*
X124488185Y-109255774D01*
X124454972Y-109238021D01*
X124425866Y-109214134D01*
X124401979Y-109185028D01*
X124384226Y-109151815D01*
X124373295Y-109115782D01*
X124369000Y-109072170D01*
X124369000Y-108067830D01*
X124373295Y-108024218D01*
X124384226Y-107988185D01*
X124401979Y-107954972D01*
X124425866Y-107925866D01*
X124454972Y-107901979D01*
X124488185Y-107884226D01*
X124524218Y-107873295D01*
X124567830Y-107869000D01*
X127672170Y-107869000D01*
X127715782Y-107873295D01*
X127715782Y-107873295D01*
G37*
G36*
X132164760Y-105147989D02*
X132256627Y-105157037D01*
X132363188Y-105189362D01*
X132426467Y-105208557D01*
X132558470Y-105279115D01*
X132582991Y-105292222D01*
X132615582Y-105318969D01*
X132720186Y-105404814D01*
X132803448Y-105506271D01*
X132832778Y-105542009D01*
X132832779Y-105542011D01*
X132916443Y-105698533D01*
X132916443Y-105698534D01*
X132967963Y-105868373D01*
X132985359Y-106045000D01*
X132967963Y-106221627D01*
X132933616Y-106334853D01*
X132916443Y-106391467D01*
X132842348Y-106530087D01*
X132832778Y-106547991D01*
X132803448Y-106583729D01*
X132720186Y-106685186D01*
X132625251Y-106763096D01*
X132582991Y-106797778D01*
X132582989Y-106797779D01*
X132426467Y-106881443D01*
X132385734Y-106893799D01*
X132256627Y-106932963D01*
X132190442Y-106939482D01*
X132124260Y-106946000D01*
X132035740Y-106946000D01*
X131969558Y-106939482D01*
X131903373Y-106932963D01*
X131774266Y-106893799D01*
X131733533Y-106881443D01*
X131577011Y-106797779D01*
X131577009Y-106797778D01*
X131534749Y-106763096D01*
X131439814Y-106685186D01*
X131356552Y-106583729D01*
X131327222Y-106547991D01*
X131317652Y-106530087D01*
X131243557Y-106391467D01*
X131226384Y-106334853D01*
X131192037Y-106221627D01*
X131174641Y-106045000D01*
X131192037Y-105868373D01*
X131243557Y-105698534D01*
X131243557Y-105698533D01*
X131327221Y-105542011D01*
X131327222Y-105542009D01*
X131356552Y-105506271D01*
X131439814Y-105404814D01*
X131544418Y-105318969D01*
X131577009Y-105292222D01*
X131601530Y-105279115D01*
X131733533Y-105208557D01*
X131796812Y-105189362D01*
X131903373Y-105157037D01*
X131995240Y-105147989D01*
X132035740Y-105144000D01*
X132124260Y-105144000D01*
X132164760Y-105147989D01*
X132164760Y-105147989D01*
G37*
G36*
X168088600Y-105147989D02*
X168121649Y-105158014D01*
X168152106Y-105174294D01*
X168178799Y-105196201D01*
X168200706Y-105222894D01*
X168216986Y-105253351D01*
X168227011Y-105286400D01*
X168231000Y-105326904D01*
X168231000Y-106763096D01*
X168227011Y-106803600D01*
X168216986Y-106836649D01*
X168200706Y-106867106D01*
X168178799Y-106893799D01*
X168152106Y-106915706D01*
X168121649Y-106931986D01*
X168088600Y-106942011D01*
X168048096Y-106946000D01*
X166311904Y-106946000D01*
X166271400Y-106942011D01*
X166238351Y-106931986D01*
X166207894Y-106915706D01*
X166181201Y-106893799D01*
X166159294Y-106867106D01*
X166143014Y-106836649D01*
X166132989Y-106803600D01*
X166129000Y-106763096D01*
X166129000Y-105326904D01*
X166132989Y-105286400D01*
X166143014Y-105253351D01*
X166159294Y-105222894D01*
X166181201Y-105196201D01*
X166207894Y-105174294D01*
X166238351Y-105158014D01*
X166271400Y-105147989D01*
X166311904Y-105144000D01*
X168048096Y-105144000D01*
X168088600Y-105147989D01*
X168088600Y-105147989D01*
G37*
G36*
X155984499Y-104248445D02*
X156021993Y-104259819D01*
X156056557Y-104278294D01*
X156086847Y-104303153D01*
X156111706Y-104333443D01*
X156130181Y-104368007D01*
X156141555Y-104405501D01*
X156146000Y-104450638D01*
X156146000Y-105189362D01*
X156141555Y-105234499D01*
X156130181Y-105271993D01*
X156111706Y-105306557D01*
X156086847Y-105336847D01*
X156056557Y-105361706D01*
X156021993Y-105380181D01*
X155984499Y-105391555D01*
X155939362Y-105396000D01*
X155300638Y-105396000D01*
X155255501Y-105391555D01*
X155218007Y-105380181D01*
X155183443Y-105361706D01*
X155153153Y-105336847D01*
X155128294Y-105306557D01*
X155109819Y-105271993D01*
X155098445Y-105234499D01*
X155094000Y-105189362D01*
X155094000Y-104450638D01*
X155098445Y-104405501D01*
X155109819Y-104368007D01*
X155128294Y-104333443D01*
X155153153Y-104303153D01*
X155183443Y-104278294D01*
X155218007Y-104259819D01*
X155255501Y-104248445D01*
X155300638Y-104244000D01*
X155939362Y-104244000D01*
X155984499Y-104248445D01*
X155984499Y-104248445D01*
G37*
G36*
X151984499Y-104248445D02*
X152021993Y-104259819D01*
X152056557Y-104278294D01*
X152086847Y-104303153D01*
X152111706Y-104333443D01*
X152130181Y-104368007D01*
X152141555Y-104405501D01*
X152146000Y-104450638D01*
X152146000Y-105189362D01*
X152141555Y-105234499D01*
X152130181Y-105271993D01*
X152111706Y-105306557D01*
X152086847Y-105336847D01*
X152056557Y-105361706D01*
X152021993Y-105380181D01*
X151984499Y-105391555D01*
X151939362Y-105396000D01*
X151300638Y-105396000D01*
X151255501Y-105391555D01*
X151218007Y-105380181D01*
X151183443Y-105361706D01*
X151153153Y-105336847D01*
X151128294Y-105306557D01*
X151109819Y-105271993D01*
X151098445Y-105234499D01*
X151094000Y-105189362D01*
X151094000Y-104450638D01*
X151098445Y-104405501D01*
X151109819Y-104368007D01*
X151128294Y-104333443D01*
X151153153Y-104303153D01*
X151183443Y-104278294D01*
X151218007Y-104259819D01*
X151255501Y-104248445D01*
X151300638Y-104244000D01*
X151939362Y-104244000D01*
X151984499Y-104248445D01*
X151984499Y-104248445D01*
G37*
G36*
X143709499Y-103823445D02*
X143746993Y-103834819D01*
X143781557Y-103853294D01*
X143811847Y-103878153D01*
X143836706Y-103908443D01*
X143855181Y-103943007D01*
X143866555Y-103980501D01*
X143871000Y-104025638D01*
X143871000Y-104664362D01*
X143866555Y-104709499D01*
X143855181Y-104746993D01*
X143836706Y-104781557D01*
X143811847Y-104811847D01*
X143781557Y-104836706D01*
X143746993Y-104855181D01*
X143709499Y-104866555D01*
X143664362Y-104871000D01*
X142925638Y-104871000D01*
X142880501Y-104866555D01*
X142843007Y-104855181D01*
X142808443Y-104836706D01*
X142778153Y-104811847D01*
X142753294Y-104781557D01*
X142734819Y-104746993D01*
X142723445Y-104709499D01*
X142719000Y-104664362D01*
X142719000Y-104025638D01*
X142723445Y-103980501D01*
X142734819Y-103943007D01*
X142753294Y-103908443D01*
X142778153Y-103878153D01*
X142808443Y-103853294D01*
X142843007Y-103834819D01*
X142880501Y-103823445D01*
X142925638Y-103819000D01*
X143664362Y-103819000D01*
X143709499Y-103823445D01*
X143709499Y-103823445D01*
G37*
G36*
X141959499Y-103823445D02*
X141996993Y-103834819D01*
X142031557Y-103853294D01*
X142061847Y-103878153D01*
X142086706Y-103908443D01*
X142105181Y-103943007D01*
X142116555Y-103980501D01*
X142121000Y-104025638D01*
X142121000Y-104664362D01*
X142116555Y-104709499D01*
X142105181Y-104746993D01*
X142086706Y-104781557D01*
X142061847Y-104811847D01*
X142031557Y-104836706D01*
X141996993Y-104855181D01*
X141959499Y-104866555D01*
X141914362Y-104871000D01*
X141175638Y-104871000D01*
X141130501Y-104866555D01*
X141093007Y-104855181D01*
X141058443Y-104836706D01*
X141028153Y-104811847D01*
X141003294Y-104781557D01*
X140984819Y-104746993D01*
X140973445Y-104709499D01*
X140969000Y-104664362D01*
X140969000Y-104025638D01*
X140973445Y-103980501D01*
X140984819Y-103943007D01*
X141003294Y-103908443D01*
X141028153Y-103878153D01*
X141058443Y-103853294D01*
X141093007Y-103834819D01*
X141130501Y-103823445D01*
X141175638Y-103819000D01*
X141914362Y-103819000D01*
X141959499Y-103823445D01*
X141959499Y-103823445D01*
G37*
G36*
X127715782Y-103423295D02*
X127751815Y-103434226D01*
X127785028Y-103451979D01*
X127814134Y-103475866D01*
X127838021Y-103504972D01*
X127855774Y-103538185D01*
X127866705Y-103574218D01*
X127871000Y-103617830D01*
X127871000Y-104622170D01*
X127866705Y-104665782D01*
X127855774Y-104701815D01*
X127838021Y-104735028D01*
X127814134Y-104764134D01*
X127785028Y-104788021D01*
X127751815Y-104805774D01*
X127715782Y-104816705D01*
X127672170Y-104821000D01*
X124567830Y-104821000D01*
X124524218Y-104816705D01*
X124488185Y-104805774D01*
X124454972Y-104788021D01*
X124425866Y-104764134D01*
X124401979Y-104735028D01*
X124384226Y-104701815D01*
X124373295Y-104665782D01*
X124369000Y-104622170D01*
X124369000Y-103617830D01*
X124373295Y-103574218D01*
X124384226Y-103538185D01*
X124401979Y-103504972D01*
X124425866Y-103475866D01*
X124454972Y-103451979D01*
X124488185Y-103434226D01*
X124524218Y-103423295D01*
X124567830Y-103419000D01*
X127672170Y-103419000D01*
X127715782Y-103423295D01*
X127715782Y-103423295D01*
G37*
G36*
X160297142Y-102723242D02*
X160445102Y-102784530D01*
X160578258Y-102873502D01*
X160691498Y-102986742D01*
X160780470Y-103119898D01*
X160841758Y-103267858D01*
X160873000Y-103424925D01*
X160873000Y-103585075D01*
X160841758Y-103742142D01*
X160780470Y-103890102D01*
X160691498Y-104023258D01*
X160578258Y-104136498D01*
X160445102Y-104225470D01*
X160297142Y-104286758D01*
X160140075Y-104318000D01*
X159979925Y-104318000D01*
X159822858Y-104286758D01*
X159674898Y-104225470D01*
X159541742Y-104136498D01*
X159428502Y-104023258D01*
X159339530Y-103890102D01*
X159278242Y-103742142D01*
X159247000Y-103585075D01*
X159247000Y-103424925D01*
X159278242Y-103267858D01*
X159339530Y-103119898D01*
X159428502Y-102986742D01*
X159541742Y-102873502D01*
X159674898Y-102784530D01*
X159822858Y-102723242D01*
X159979925Y-102692000D01*
X160140075Y-102692000D01*
X160297142Y-102723242D01*
X160297142Y-102723242D01*
G37*
G36*
X137437142Y-102723242D02*
X137585102Y-102784530D01*
X137718258Y-102873502D01*
X137831498Y-102986742D01*
X137920470Y-103119898D01*
X137981758Y-103267858D01*
X138013000Y-103424925D01*
X138013000Y-103585075D01*
X137981758Y-103742142D01*
X137920470Y-103890102D01*
X137831498Y-104023258D01*
X137718258Y-104136498D01*
X137585102Y-104225470D01*
X137437142Y-104286758D01*
X137280075Y-104318000D01*
X137119925Y-104318000D01*
X136962858Y-104286758D01*
X136814898Y-104225470D01*
X136681742Y-104136498D01*
X136568502Y-104023258D01*
X136479530Y-103890102D01*
X136418242Y-103742142D01*
X136387000Y-103585075D01*
X136387000Y-103424925D01*
X136418242Y-103267858D01*
X136479530Y-103119898D01*
X136568502Y-102986742D01*
X136681742Y-102873502D01*
X136814898Y-102784530D01*
X136962858Y-102723242D01*
X137119925Y-102692000D01*
X137280075Y-102692000D01*
X137437142Y-102723242D01*
X137437142Y-102723242D01*
G37*
G36*
X151984499Y-102498445D02*
X152021993Y-102509819D01*
X152056557Y-102528294D01*
X152086847Y-102553153D01*
X152111706Y-102583443D01*
X152130181Y-102618007D01*
X152141555Y-102655501D01*
X152146000Y-102700638D01*
X152146000Y-103439362D01*
X152141555Y-103484499D01*
X152130181Y-103521993D01*
X152111706Y-103556557D01*
X152086847Y-103586847D01*
X152056557Y-103611706D01*
X152021993Y-103630181D01*
X151984499Y-103641555D01*
X151939362Y-103646000D01*
X151300638Y-103646000D01*
X151255501Y-103641555D01*
X151218007Y-103630181D01*
X151183443Y-103611706D01*
X151153153Y-103586847D01*
X151128294Y-103556557D01*
X151109819Y-103521993D01*
X151098445Y-103484499D01*
X151094000Y-103439362D01*
X151094000Y-102700638D01*
X151098445Y-102655501D01*
X151109819Y-102618007D01*
X151128294Y-102583443D01*
X151153153Y-102553153D01*
X151183443Y-102528294D01*
X151218007Y-102509819D01*
X151255501Y-102498445D01*
X151300638Y-102494000D01*
X151939362Y-102494000D01*
X151984499Y-102498445D01*
X151984499Y-102498445D01*
G37*
G36*
X155984499Y-102498445D02*
X156021993Y-102509819D01*
X156056557Y-102528294D01*
X156086847Y-102553153D01*
X156111706Y-102583443D01*
X156130181Y-102618007D01*
X156141555Y-102655501D01*
X156146000Y-102700638D01*
X156146000Y-103439362D01*
X156141555Y-103484499D01*
X156130181Y-103521993D01*
X156111706Y-103556557D01*
X156086847Y-103586847D01*
X156056557Y-103611706D01*
X156021993Y-103630181D01*
X155984499Y-103641555D01*
X155939362Y-103646000D01*
X155300638Y-103646000D01*
X155255501Y-103641555D01*
X155218007Y-103630181D01*
X155183443Y-103611706D01*
X155153153Y-103586847D01*
X155128294Y-103556557D01*
X155109819Y-103521993D01*
X155098445Y-103484499D01*
X155094000Y-103439362D01*
X155094000Y-102700638D01*
X155098445Y-102655501D01*
X155109819Y-102618007D01*
X155128294Y-102583443D01*
X155153153Y-102553153D01*
X155183443Y-102528294D01*
X155218007Y-102509819D01*
X155255501Y-102498445D01*
X155300638Y-102494000D01*
X155939362Y-102494000D01*
X155984499Y-102498445D01*
X155984499Y-102498445D01*
G37*
G36*
X132981000Y-103136000D02*
X131179000Y-103136000D01*
X131179000Y-101334000D01*
X132981000Y-101334000D01*
X132981000Y-103136000D01*
X132981000Y-103136000D01*
G37*
G36*
X147254499Y-101653445D02*
X147291993Y-101664819D01*
X147326557Y-101683294D01*
X147356847Y-101708153D01*
X147381706Y-101738443D01*
X147400181Y-101773007D01*
X147411555Y-101810501D01*
X147416000Y-101855638D01*
X147416000Y-102494362D01*
X147411555Y-102539499D01*
X147400181Y-102576993D01*
X147381706Y-102611557D01*
X147356847Y-102641847D01*
X147326557Y-102666706D01*
X147291993Y-102685181D01*
X147254499Y-102696555D01*
X147209362Y-102701000D01*
X146470638Y-102701000D01*
X146425501Y-102696555D01*
X146388007Y-102685181D01*
X146353443Y-102666706D01*
X146323153Y-102641847D01*
X146298294Y-102611557D01*
X146279819Y-102576993D01*
X146268445Y-102539499D01*
X146264000Y-102494362D01*
X146264000Y-101855638D01*
X146268445Y-101810501D01*
X146279819Y-101773007D01*
X146298294Y-101738443D01*
X146323153Y-101708153D01*
X146353443Y-101683294D01*
X146388007Y-101664819D01*
X146425501Y-101653445D01*
X146470638Y-101649000D01*
X147209362Y-101649000D01*
X147254499Y-101653445D01*
X147254499Y-101653445D01*
G37*
G36*
X149004499Y-101653445D02*
X149041993Y-101664819D01*
X149076557Y-101683294D01*
X149106847Y-101708153D01*
X149131706Y-101738443D01*
X149150181Y-101773007D01*
X149161555Y-101810501D01*
X149166000Y-101855638D01*
X149166000Y-102494362D01*
X149161555Y-102539499D01*
X149150181Y-102576993D01*
X149131706Y-102611557D01*
X149106847Y-102641847D01*
X149076557Y-102666706D01*
X149041993Y-102685181D01*
X149004499Y-102696555D01*
X148959362Y-102701000D01*
X148220638Y-102701000D01*
X148175501Y-102696555D01*
X148138007Y-102685181D01*
X148103443Y-102666706D01*
X148073153Y-102641847D01*
X148048294Y-102611557D01*
X148029819Y-102576993D01*
X148018445Y-102539499D01*
X148014000Y-102494362D01*
X148014000Y-101855638D01*
X148018445Y-101810501D01*
X148029819Y-101773007D01*
X148048294Y-101738443D01*
X148073153Y-101708153D01*
X148103443Y-101683294D01*
X148138007Y-101664819D01*
X148175501Y-101653445D01*
X148220638Y-101649000D01*
X148959362Y-101649000D01*
X149004499Y-101653445D01*
X149004499Y-101653445D01*
G37*
G36*
X145001000Y-102496000D02*
X143399000Y-102496000D01*
X143399000Y-101394000D01*
X145001000Y-101394000D01*
X145001000Y-102496000D01*
X145001000Y-102496000D01*
G37*
G36*
X167440443Y-100030519D02*
X167506627Y-100037037D01*
X167619853Y-100071384D01*
X167676467Y-100088557D01*
X167795159Y-100152000D01*
X167832991Y-100172222D01*
X167846420Y-100183243D01*
X167970186Y-100284814D01*
X168053448Y-100386271D01*
X168082778Y-100422009D01*
X168082779Y-100422011D01*
X168166443Y-100578533D01*
X168167787Y-100582963D01*
X168217963Y-100748373D01*
X168235359Y-100925000D01*
X168217963Y-101101627D01*
X168187472Y-101202142D01*
X168166443Y-101271467D01*
X168133018Y-101334000D01*
X168082778Y-101427991D01*
X168053448Y-101463729D01*
X167970186Y-101565186D01*
X167888026Y-101632612D01*
X167832991Y-101677778D01*
X167815087Y-101687348D01*
X167676467Y-101761443D01*
X167661823Y-101765885D01*
X167506627Y-101812963D01*
X167440442Y-101819482D01*
X167374260Y-101826000D01*
X166985740Y-101826000D01*
X166919558Y-101819482D01*
X166853373Y-101812963D01*
X166698177Y-101765885D01*
X166683533Y-101761443D01*
X166544913Y-101687348D01*
X166527009Y-101677778D01*
X166471974Y-101632612D01*
X166389814Y-101565186D01*
X166306552Y-101463729D01*
X166277222Y-101427991D01*
X166226982Y-101334000D01*
X166193557Y-101271467D01*
X166172528Y-101202142D01*
X166142037Y-101101627D01*
X166124641Y-100925000D01*
X166142037Y-100748373D01*
X166192213Y-100582963D01*
X166193557Y-100578533D01*
X166277221Y-100422011D01*
X166277222Y-100422009D01*
X166306552Y-100386271D01*
X166389814Y-100284814D01*
X166513580Y-100183243D01*
X166527009Y-100172222D01*
X166564841Y-100152000D01*
X166683533Y-100088557D01*
X166740147Y-100071384D01*
X166853373Y-100037037D01*
X166919557Y-100030519D01*
X166985740Y-100024000D01*
X167374260Y-100024000D01*
X167440443Y-100030519D01*
X167440443Y-100030519D01*
G37*
G36*
X160297142Y-100183242D02*
X160445102Y-100244530D01*
X160505391Y-100284814D01*
X160578257Y-100333501D01*
X160691499Y-100446743D01*
X160692191Y-100447779D01*
X160780470Y-100579898D01*
X160841758Y-100727858D01*
X160873000Y-100884925D01*
X160873000Y-101045075D01*
X160841758Y-101202142D01*
X160813042Y-101271467D01*
X160780471Y-101350100D01*
X160691499Y-101483257D01*
X160578257Y-101596499D01*
X160524210Y-101632612D01*
X160445102Y-101685470D01*
X160445101Y-101685471D01*
X160445100Y-101685471D01*
X160411583Y-101699354D01*
X160297142Y-101746758D01*
X160140075Y-101778000D01*
X159979925Y-101778000D01*
X159822858Y-101746758D01*
X159708417Y-101699354D01*
X159674900Y-101685471D01*
X159674899Y-101685471D01*
X159674898Y-101685470D01*
X159595790Y-101632612D01*
X159541743Y-101596499D01*
X159428501Y-101483257D01*
X159339529Y-101350100D01*
X159306958Y-101271467D01*
X159278242Y-101202142D01*
X159247000Y-101045075D01*
X159247000Y-100884925D01*
X159278242Y-100727858D01*
X159339530Y-100579898D01*
X159427809Y-100447779D01*
X159428501Y-100446743D01*
X159541743Y-100333501D01*
X159614609Y-100284814D01*
X159674898Y-100244530D01*
X159822858Y-100183242D01*
X159979925Y-100152000D01*
X160140075Y-100152000D01*
X160297142Y-100183242D01*
X160297142Y-100183242D01*
G37*
G36*
X137437142Y-100183242D02*
X137585102Y-100244530D01*
X137645391Y-100284814D01*
X137718257Y-100333501D01*
X137831499Y-100446743D01*
X137832191Y-100447779D01*
X137920470Y-100579898D01*
X137981758Y-100727858D01*
X138013000Y-100884925D01*
X138013000Y-101045075D01*
X137981758Y-101202142D01*
X137953042Y-101271467D01*
X137920471Y-101350100D01*
X137831499Y-101483257D01*
X137718257Y-101596499D01*
X137664210Y-101632612D01*
X137585102Y-101685470D01*
X137585101Y-101685471D01*
X137585100Y-101685471D01*
X137551583Y-101699354D01*
X137437142Y-101746758D01*
X137280075Y-101778000D01*
X137119925Y-101778000D01*
X136962858Y-101746758D01*
X136848417Y-101699354D01*
X136814900Y-101685471D01*
X136814899Y-101685471D01*
X136814898Y-101685470D01*
X136735790Y-101632612D01*
X136681743Y-101596499D01*
X136568501Y-101483257D01*
X136479529Y-101350100D01*
X136446958Y-101271467D01*
X136418242Y-101202142D01*
X136387000Y-101045075D01*
X136387000Y-100884925D01*
X136418242Y-100727858D01*
X136479530Y-100579898D01*
X136567809Y-100447779D01*
X136568501Y-100446743D01*
X136681743Y-100333501D01*
X136754609Y-100284814D01*
X136814898Y-100244530D01*
X136962858Y-100183242D01*
X137119925Y-100152000D01*
X137280075Y-100152000D01*
X137437142Y-100183242D01*
X137437142Y-100183242D01*
G37*
G36*
X140550066Y-99238446D02*
X140565612Y-99257388D01*
X140584554Y-99272934D01*
X140606165Y-99284485D01*
X140629614Y-99291598D01*
X140654000Y-99294000D01*
X142120200Y-99294000D01*
X142144586Y-99291598D01*
X142168035Y-99284485D01*
X142189646Y-99272934D01*
X142208588Y-99257388D01*
X142224134Y-99238446D01*
X142226524Y-99233974D01*
X142279996Y-99271404D01*
X142301352Y-99283421D01*
X142324641Y-99291041D01*
X142351679Y-99294000D01*
X142362644Y-99294000D01*
X142367015Y-99308410D01*
X142378566Y-99330021D01*
X142394112Y-99348963D01*
X142410816Y-99362978D01*
X143137141Y-99871406D01*
X143158494Y-99883421D01*
X143181783Y-99891041D01*
X143208821Y-99894000D01*
X145004500Y-99894000D01*
X145004500Y-100996000D01*
X143208821Y-100996000D01*
X143184435Y-100998402D01*
X143160986Y-101005515D01*
X143137141Y-101018595D01*
X142473337Y-101483257D01*
X142410817Y-101527021D01*
X142392217Y-101542973D01*
X142377085Y-101562248D01*
X142366005Y-101584104D01*
X142362676Y-101596000D01*
X142351679Y-101596000D01*
X142327293Y-101598402D01*
X142303844Y-101605515D01*
X142279996Y-101618596D01*
X142259973Y-101632612D01*
X142245200Y-101642953D01*
X142226524Y-101656026D01*
X142224134Y-101651554D01*
X142208588Y-101632612D01*
X142189646Y-101617066D01*
X142168035Y-101605515D01*
X142144586Y-101598402D01*
X142120200Y-101596000D01*
X140654000Y-101596000D01*
X140629614Y-101598402D01*
X140606165Y-101605515D01*
X140584554Y-101617066D01*
X140565612Y-101632612D01*
X140550066Y-101651554D01*
X140547450Y-101656449D01*
X140494225Y-101618879D01*
X140472918Y-101606778D01*
X140449658Y-101599067D01*
X140422140Y-101596000D01*
X140410765Y-101596000D01*
X140405985Y-101580243D01*
X140394434Y-101558632D01*
X140378888Y-101539690D01*
X140362585Y-101525957D01*
X139577000Y-100971427D01*
X139577000Y-99918573D01*
X140362585Y-99364043D01*
X140381123Y-99348018D01*
X140396178Y-99328684D01*
X140407172Y-99306784D01*
X140410695Y-99294000D01*
X140422140Y-99294000D01*
X140446526Y-99291598D01*
X140469975Y-99284485D01*
X140494225Y-99271121D01*
X140513680Y-99257388D01*
X140529000Y-99246574D01*
X140547450Y-99233551D01*
X140550066Y-99238446D01*
X140550066Y-99238446D01*
G37*
G36*
X154421000Y-101646000D02*
X152819000Y-101646000D01*
X152819000Y-99544000D01*
X154421000Y-99544000D01*
X154421000Y-101646000D01*
X154421000Y-101646000D01*
G37*
G36*
X156721000Y-101646000D02*
X155119000Y-101646000D01*
X155119000Y-99544000D01*
X156721000Y-99544000D01*
X156721000Y-101646000D01*
X156721000Y-101646000D01*
G37*
G36*
X152121000Y-101646000D02*
X150519000Y-101646000D01*
X150519000Y-99544000D01*
X152121000Y-99544000D01*
X152121000Y-101646000D01*
X152121000Y-101646000D01*
G37*
G36*
X149004499Y-99903445D02*
X149041993Y-99914819D01*
X149076557Y-99933294D01*
X149106847Y-99958153D01*
X149131706Y-99988443D01*
X149150181Y-100023007D01*
X149161555Y-100060501D01*
X149166000Y-100105638D01*
X149166000Y-100744362D01*
X149161555Y-100789499D01*
X149150181Y-100826993D01*
X149131706Y-100861557D01*
X149106847Y-100891847D01*
X149076557Y-100916706D01*
X149041993Y-100935181D01*
X149004499Y-100946555D01*
X148959362Y-100951000D01*
X148220638Y-100951000D01*
X148175501Y-100946555D01*
X148138007Y-100935181D01*
X148103443Y-100916706D01*
X148073153Y-100891847D01*
X148048294Y-100861557D01*
X148029819Y-100826993D01*
X148018445Y-100789499D01*
X148014000Y-100744362D01*
X148014000Y-100105638D01*
X148018445Y-100060501D01*
X148029819Y-100023007D01*
X148048294Y-99988443D01*
X148073153Y-99958153D01*
X148103443Y-99933294D01*
X148138007Y-99914819D01*
X148175501Y-99903445D01*
X148220638Y-99899000D01*
X148959362Y-99899000D01*
X149004499Y-99903445D01*
X149004499Y-99903445D01*
G37*
G36*
X147254499Y-99903445D02*
X147291993Y-99914819D01*
X147326557Y-99933294D01*
X147356847Y-99958153D01*
X147381706Y-99988443D01*
X147400181Y-100023007D01*
X147411555Y-100060501D01*
X147416000Y-100105638D01*
X147416000Y-100744362D01*
X147411555Y-100789499D01*
X147400181Y-100826993D01*
X147381706Y-100861557D01*
X147356847Y-100891847D01*
X147326557Y-100916706D01*
X147291993Y-100935181D01*
X147254499Y-100946555D01*
X147209362Y-100951000D01*
X146470638Y-100951000D01*
X146425501Y-100946555D01*
X146388007Y-100935181D01*
X146353443Y-100916706D01*
X146323153Y-100891847D01*
X146298294Y-100861557D01*
X146279819Y-100826993D01*
X146268445Y-100789499D01*
X146264000Y-100744362D01*
X146264000Y-100105638D01*
X146268445Y-100060501D01*
X146279819Y-100023007D01*
X146298294Y-99988443D01*
X146323153Y-99958153D01*
X146353443Y-99933294D01*
X146388007Y-99914819D01*
X146425501Y-99903445D01*
X146470638Y-99899000D01*
X147209362Y-99899000D01*
X147254499Y-99903445D01*
X147254499Y-99903445D01*
G37*
G36*
X132190443Y-98800519D02*
X132256627Y-98807037D01*
X132369853Y-98841384D01*
X132426467Y-98858557D01*
X132565087Y-98932652D01*
X132582991Y-98942222D01*
X132584253Y-98943258D01*
X132720186Y-99054814D01*
X132767690Y-99112699D01*
X132832778Y-99192009D01*
X132832779Y-99192011D01*
X132916443Y-99348533D01*
X132916443Y-99348534D01*
X132967963Y-99518373D01*
X132985359Y-99695000D01*
X132967963Y-99871627D01*
X132946214Y-99943323D01*
X132916443Y-100041467D01*
X132906269Y-100060501D01*
X132832778Y-100197991D01*
X132803448Y-100233729D01*
X132720186Y-100335186D01*
X132618729Y-100418448D01*
X132582991Y-100447778D01*
X132582989Y-100447779D01*
X132426467Y-100531443D01*
X132369853Y-100548616D01*
X132256627Y-100582963D01*
X132190443Y-100589481D01*
X132124260Y-100596000D01*
X132035740Y-100596000D01*
X131969557Y-100589481D01*
X131903373Y-100582963D01*
X131790147Y-100548616D01*
X131733533Y-100531443D01*
X131577011Y-100447779D01*
X131577009Y-100447778D01*
X131541271Y-100418448D01*
X131439814Y-100335186D01*
X131356552Y-100233729D01*
X131327222Y-100197991D01*
X131253731Y-100060501D01*
X131243557Y-100041467D01*
X131213786Y-99943323D01*
X131192037Y-99871627D01*
X131174641Y-99695000D01*
X131192037Y-99518373D01*
X131243557Y-99348534D01*
X131243557Y-99348533D01*
X131327221Y-99192011D01*
X131327222Y-99192009D01*
X131392310Y-99112699D01*
X131439814Y-99054814D01*
X131575747Y-98943258D01*
X131577009Y-98942222D01*
X131594913Y-98932652D01*
X131733533Y-98858557D01*
X131790147Y-98841384D01*
X131903373Y-98807037D01*
X131969557Y-98800519D01*
X132035740Y-98794000D01*
X132124260Y-98794000D01*
X132190443Y-98800519D01*
X132190443Y-98800519D01*
G37*
G36*
X145001000Y-99496000D02*
X143399000Y-99496000D01*
X143399000Y-98394000D01*
X145001000Y-98394000D01*
X145001000Y-99496000D01*
X145001000Y-99496000D01*
G37*
G36*
X168088600Y-97527989D02*
X168121649Y-97538014D01*
X168152106Y-97554294D01*
X168178799Y-97576201D01*
X168200706Y-97602894D01*
X168216986Y-97633351D01*
X168227011Y-97666400D01*
X168231000Y-97706904D01*
X168231000Y-99143096D01*
X168227011Y-99183600D01*
X168216986Y-99216649D01*
X168200706Y-99247106D01*
X168178799Y-99273799D01*
X168152106Y-99295706D01*
X168121649Y-99311986D01*
X168088600Y-99322011D01*
X168048096Y-99326000D01*
X166311904Y-99326000D01*
X166271400Y-99322011D01*
X166238351Y-99311986D01*
X166207894Y-99295706D01*
X166181201Y-99273799D01*
X166159294Y-99247106D01*
X166143014Y-99216649D01*
X166132989Y-99183600D01*
X166129000Y-99143096D01*
X166129000Y-97706904D01*
X166132989Y-97666400D01*
X166143014Y-97633351D01*
X166159294Y-97602894D01*
X166181201Y-97576201D01*
X166207894Y-97554294D01*
X166238351Y-97538014D01*
X166271400Y-97527989D01*
X166311904Y-97524000D01*
X168048096Y-97524000D01*
X168088600Y-97527989D01*
X168088600Y-97527989D01*
G37*
G36*
X137437142Y-97643242D02*
X137585102Y-97704530D01*
X137634147Y-97737301D01*
X137711521Y-97789000D01*
X137718258Y-97793502D01*
X137831498Y-97906742D01*
X137920470Y-98039898D01*
X137981758Y-98187858D01*
X138013000Y-98344925D01*
X138013000Y-98505075D01*
X137981758Y-98662142D01*
X137934354Y-98776583D01*
X137920471Y-98810100D01*
X137831499Y-98943257D01*
X137718257Y-99056499D01*
X137652130Y-99100683D01*
X137585102Y-99145470D01*
X137437142Y-99206758D01*
X137280075Y-99238000D01*
X137119925Y-99238000D01*
X136962858Y-99206758D01*
X136814898Y-99145470D01*
X136747870Y-99100683D01*
X136681743Y-99056499D01*
X136568501Y-98943257D01*
X136479529Y-98810100D01*
X136465646Y-98776583D01*
X136418242Y-98662142D01*
X136387000Y-98505075D01*
X136387000Y-98344925D01*
X136418242Y-98187858D01*
X136479530Y-98039898D01*
X136568502Y-97906742D01*
X136681742Y-97793502D01*
X136688480Y-97789000D01*
X136765853Y-97737301D01*
X136814898Y-97704530D01*
X136962858Y-97643242D01*
X137119925Y-97612000D01*
X137280075Y-97612000D01*
X137437142Y-97643242D01*
X137437142Y-97643242D01*
G37*
G36*
X160297142Y-97643242D02*
X160445102Y-97704530D01*
X160494147Y-97737301D01*
X160571521Y-97789000D01*
X160578258Y-97793502D01*
X160691498Y-97906742D01*
X160780470Y-98039898D01*
X160841758Y-98187858D01*
X160873000Y-98344925D01*
X160873000Y-98505075D01*
X160841758Y-98662142D01*
X160794354Y-98776583D01*
X160780471Y-98810100D01*
X160691499Y-98943257D01*
X160578257Y-99056499D01*
X160512130Y-99100683D01*
X160445102Y-99145470D01*
X160297142Y-99206758D01*
X160140075Y-99238000D01*
X159979925Y-99238000D01*
X159822858Y-99206758D01*
X159674898Y-99145470D01*
X159607870Y-99100683D01*
X159541743Y-99056499D01*
X159428501Y-98943257D01*
X159339529Y-98810100D01*
X159325646Y-98776583D01*
X159278242Y-98662142D01*
X159247000Y-98505075D01*
X159247000Y-98344925D01*
X159278242Y-98187858D01*
X159339530Y-98039898D01*
X159428502Y-97906742D01*
X159541742Y-97793502D01*
X159548480Y-97789000D01*
X159625853Y-97737301D01*
X159674898Y-97704530D01*
X159822858Y-97643242D01*
X159979925Y-97612000D01*
X160140075Y-97612000D01*
X160297142Y-97643242D01*
X160297142Y-97643242D01*
G37*
G36*
X141959499Y-96223445D02*
X141996993Y-96234819D01*
X142031557Y-96253294D01*
X142061847Y-96278153D01*
X142086706Y-96308443D01*
X142105181Y-96343007D01*
X142116555Y-96380501D01*
X142121000Y-96425638D01*
X142121000Y-97064362D01*
X142116555Y-97109499D01*
X142105181Y-97146993D01*
X142086706Y-97181557D01*
X142061847Y-97211847D01*
X142031557Y-97236706D01*
X141996993Y-97255181D01*
X141959499Y-97266555D01*
X141914362Y-97271000D01*
X141175638Y-97271000D01*
X141130501Y-97266555D01*
X141093007Y-97255181D01*
X141058443Y-97236706D01*
X141028153Y-97211847D01*
X141003294Y-97181557D01*
X140984819Y-97146993D01*
X140973445Y-97109499D01*
X140969000Y-97064362D01*
X140969000Y-96425638D01*
X140973445Y-96380501D01*
X140984819Y-96343007D01*
X141003294Y-96308443D01*
X141028153Y-96278153D01*
X141058443Y-96253294D01*
X141093007Y-96234819D01*
X141130501Y-96223445D01*
X141175638Y-96219000D01*
X141914362Y-96219000D01*
X141959499Y-96223445D01*
X141959499Y-96223445D01*
G37*
G36*
X143709499Y-96223445D02*
X143746993Y-96234819D01*
X143781557Y-96253294D01*
X143811847Y-96278153D01*
X143836706Y-96308443D01*
X143855181Y-96343007D01*
X143866555Y-96380501D01*
X143871000Y-96425638D01*
X143871000Y-97064362D01*
X143866555Y-97109499D01*
X143855181Y-97146993D01*
X143836706Y-97181557D01*
X143811847Y-97211847D01*
X143781557Y-97236706D01*
X143746993Y-97255181D01*
X143709499Y-97266555D01*
X143664362Y-97271000D01*
X142925638Y-97271000D01*
X142880501Y-97266555D01*
X142843007Y-97255181D01*
X142808443Y-97236706D01*
X142778153Y-97211847D01*
X142753294Y-97181557D01*
X142734819Y-97146993D01*
X142723445Y-97109499D01*
X142719000Y-97064362D01*
X142719000Y-96425638D01*
X142723445Y-96380501D01*
X142734819Y-96343007D01*
X142753294Y-96308443D01*
X142778153Y-96278153D01*
X142808443Y-96253294D01*
X142843007Y-96234819D01*
X142880501Y-96223445D01*
X142925638Y-96219000D01*
X143664362Y-96219000D01*
X143709499Y-96223445D01*
X143709499Y-96223445D01*
G37*
G36*
X132190443Y-94990519D02*
X132256627Y-94997037D01*
X132369853Y-95031384D01*
X132426467Y-95048557D01*
X132528774Y-95103242D01*
X132582991Y-95132222D01*
X132618729Y-95161552D01*
X132720186Y-95244814D01*
X132803226Y-95346000D01*
X132832778Y-95382009D01*
X132832779Y-95382011D01*
X132916443Y-95538533D01*
X132916443Y-95538534D01*
X132967963Y-95708373D01*
X132985359Y-95885000D01*
X132967963Y-96061627D01*
X132933616Y-96174853D01*
X132916443Y-96231467D01*
X132856823Y-96343007D01*
X132832778Y-96387991D01*
X132803448Y-96423729D01*
X132720186Y-96525186D01*
X132622358Y-96605470D01*
X132582991Y-96637778D01*
X132582989Y-96637779D01*
X132426467Y-96721443D01*
X132369853Y-96738616D01*
X132256627Y-96772963D01*
X132190442Y-96779482D01*
X132124260Y-96786000D01*
X132035740Y-96786000D01*
X131969558Y-96779482D01*
X131903373Y-96772963D01*
X131790147Y-96738616D01*
X131733533Y-96721443D01*
X131577011Y-96637779D01*
X131577009Y-96637778D01*
X131537642Y-96605470D01*
X131439814Y-96525186D01*
X131356552Y-96423729D01*
X131327222Y-96387991D01*
X131303177Y-96343007D01*
X131243557Y-96231467D01*
X131226384Y-96174853D01*
X131192037Y-96061627D01*
X131174641Y-95885000D01*
X131192037Y-95708373D01*
X131243557Y-95538534D01*
X131243557Y-95538533D01*
X131327221Y-95382011D01*
X131327222Y-95382009D01*
X131356774Y-95346000D01*
X131439814Y-95244814D01*
X131541271Y-95161552D01*
X131577009Y-95132222D01*
X131631226Y-95103242D01*
X131733533Y-95048557D01*
X131790147Y-95031384D01*
X131903373Y-94997037D01*
X131969557Y-94990519D01*
X132035740Y-94984000D01*
X132124260Y-94984000D01*
X132190443Y-94990519D01*
X132190443Y-94990519D01*
G37*
G36*
X130441000Y-96786000D02*
X128639000Y-96786000D01*
X128639000Y-94984000D01*
X130441000Y-94984000D01*
X130441000Y-96786000D01*
X130441000Y-96786000D01*
G37*
G36*
X137437142Y-95103242D02*
X137585102Y-95164530D01*
X137652130Y-95209317D01*
X137718257Y-95253501D01*
X137831499Y-95366743D01*
X137875683Y-95432870D01*
X137920470Y-95499898D01*
X137981758Y-95647858D01*
X138013000Y-95804925D01*
X138013000Y-95965075D01*
X137981758Y-96122142D01*
X137941637Y-96219000D01*
X137920471Y-96270100D01*
X137831499Y-96403257D01*
X137718257Y-96516499D01*
X137652130Y-96560683D01*
X137585102Y-96605470D01*
X137437142Y-96666758D01*
X137280075Y-96698000D01*
X137119925Y-96698000D01*
X136962858Y-96666758D01*
X136814898Y-96605470D01*
X136747870Y-96560683D01*
X136681743Y-96516499D01*
X136568501Y-96403257D01*
X136479529Y-96270100D01*
X136458363Y-96219000D01*
X136418242Y-96122142D01*
X136387000Y-95965075D01*
X136387000Y-95804925D01*
X136418242Y-95647858D01*
X136479530Y-95499898D01*
X136524317Y-95432870D01*
X136568501Y-95366743D01*
X136681743Y-95253501D01*
X136747870Y-95209317D01*
X136814898Y-95164530D01*
X136962858Y-95103242D01*
X137119925Y-95072000D01*
X137280075Y-95072000D01*
X137437142Y-95103242D01*
X137437142Y-95103242D01*
G37*
G36*
X160297142Y-95103242D02*
X160445102Y-95164530D01*
X160512130Y-95209317D01*
X160578257Y-95253501D01*
X160691499Y-95366743D01*
X160735683Y-95432870D01*
X160780470Y-95499898D01*
X160841758Y-95647858D01*
X160873000Y-95804925D01*
X160873000Y-95965075D01*
X160841758Y-96122142D01*
X160801637Y-96219000D01*
X160780471Y-96270100D01*
X160691499Y-96403257D01*
X160578257Y-96516499D01*
X160512130Y-96560683D01*
X160445102Y-96605470D01*
X160297142Y-96666758D01*
X160140075Y-96698000D01*
X159979925Y-96698000D01*
X159822858Y-96666758D01*
X159674898Y-96605470D01*
X159607870Y-96560683D01*
X159541743Y-96516499D01*
X159428501Y-96403257D01*
X159339529Y-96270100D01*
X159318363Y-96219000D01*
X159278242Y-96122142D01*
X159247000Y-95965075D01*
X159247000Y-95804925D01*
X159278242Y-95647858D01*
X159339530Y-95499898D01*
X159384317Y-95432870D01*
X159428501Y-95366743D01*
X159541743Y-95253501D01*
X159607870Y-95209317D01*
X159674898Y-95164530D01*
X159822858Y-95103242D01*
X159979925Y-95072000D01*
X160140075Y-95072000D01*
X160297142Y-95103242D01*
X160297142Y-95103242D01*
G37*
G36*
X155571000Y-95346000D02*
X151669000Y-95346000D01*
X151669000Y-93244000D01*
X155571000Y-93244000D01*
X155571000Y-95346000D01*
X155571000Y-95346000D01*
G37*
G36*
X167440443Y-92410519D02*
X167506627Y-92417037D01*
X167619853Y-92451384D01*
X167676467Y-92468557D01*
X167795159Y-92532000D01*
X167832991Y-92552222D01*
X167846420Y-92563243D01*
X167970186Y-92664814D01*
X168053448Y-92766271D01*
X168082778Y-92802009D01*
X168082779Y-92802011D01*
X168166443Y-92958533D01*
X168183616Y-93015147D01*
X168217963Y-93128373D01*
X168235359Y-93305000D01*
X168217963Y-93481627D01*
X168187472Y-93582142D01*
X168166443Y-93651467D01*
X168124412Y-93730100D01*
X168082778Y-93807991D01*
X168053448Y-93843729D01*
X167970186Y-93945186D01*
X167868729Y-94028448D01*
X167832991Y-94057778D01*
X167815087Y-94067348D01*
X167676467Y-94141443D01*
X167621885Y-94158000D01*
X167506627Y-94192963D01*
X167440443Y-94199481D01*
X167374260Y-94206000D01*
X166985740Y-94206000D01*
X166919557Y-94199481D01*
X166853373Y-94192963D01*
X166738115Y-94158000D01*
X166683533Y-94141443D01*
X166544913Y-94067348D01*
X166527009Y-94057778D01*
X166491271Y-94028448D01*
X166389814Y-93945186D01*
X166306552Y-93843729D01*
X166277222Y-93807991D01*
X166235588Y-93730100D01*
X166193557Y-93651467D01*
X166172528Y-93582142D01*
X166142037Y-93481627D01*
X166124641Y-93305000D01*
X166142037Y-93128373D01*
X166176384Y-93015147D01*
X166193557Y-92958533D01*
X166277221Y-92802011D01*
X166277222Y-92802009D01*
X166306552Y-92766271D01*
X166389814Y-92664814D01*
X166513580Y-92563243D01*
X166527009Y-92552222D01*
X166564841Y-92532000D01*
X166683533Y-92468557D01*
X166740147Y-92451384D01*
X166853373Y-92417037D01*
X166919557Y-92410519D01*
X166985740Y-92404000D01*
X167374260Y-92404000D01*
X167440443Y-92410519D01*
X167440443Y-92410519D01*
G37*
G36*
X137437142Y-92563242D02*
X137585102Y-92624530D01*
X137718258Y-92713502D01*
X137831498Y-92826742D01*
X137920470Y-92959898D01*
X137981758Y-93107858D01*
X138013000Y-93264925D01*
X138013000Y-93425075D01*
X137981758Y-93582142D01*
X137920470Y-93730102D01*
X137831498Y-93863258D01*
X137718258Y-93976498D01*
X137585102Y-94065470D01*
X137437142Y-94126758D01*
X137280075Y-94158000D01*
X137119925Y-94158000D01*
X136962858Y-94126758D01*
X136814898Y-94065470D01*
X136681742Y-93976498D01*
X136568502Y-93863258D01*
X136479530Y-93730102D01*
X136418242Y-93582142D01*
X136387000Y-93425075D01*
X136387000Y-93264925D01*
X136418242Y-93107858D01*
X136479530Y-92959898D01*
X136568502Y-92826742D01*
X136681742Y-92713502D01*
X136814898Y-92624530D01*
X136962858Y-92563242D01*
X137119925Y-92532000D01*
X137280075Y-92532000D01*
X137437142Y-92563242D01*
X137437142Y-92563242D01*
G37*
G36*
X160297142Y-92563242D02*
X160445102Y-92624530D01*
X160578258Y-92713502D01*
X160691498Y-92826742D01*
X160780470Y-92959898D01*
X160841758Y-93107858D01*
X160873000Y-93264925D01*
X160873000Y-93425075D01*
X160841758Y-93582142D01*
X160780470Y-93730102D01*
X160691498Y-93863258D01*
X160578258Y-93976498D01*
X160445102Y-94065470D01*
X160297142Y-94126758D01*
X160140075Y-94158000D01*
X159979925Y-94158000D01*
X159822858Y-94126758D01*
X159674898Y-94065470D01*
X159541742Y-93976498D01*
X159428502Y-93863258D01*
X159339530Y-93730102D01*
X159278242Y-93582142D01*
X159247000Y-93425075D01*
X159247000Y-93264925D01*
X159278242Y-93107858D01*
X159339530Y-92959898D01*
X159428502Y-92826742D01*
X159541742Y-92713502D01*
X159674898Y-92624530D01*
X159822858Y-92563242D01*
X159979925Y-92532000D01*
X160140075Y-92532000D01*
X160297142Y-92563242D01*
X160297142Y-92563242D01*
G37*
G36*
X168088600Y-89907989D02*
X168121649Y-89918014D01*
X168152106Y-89934294D01*
X168178799Y-89956201D01*
X168200706Y-89982894D01*
X168216986Y-90013351D01*
X168227011Y-90046400D01*
X168231000Y-90086904D01*
X168231000Y-91523096D01*
X168227011Y-91563600D01*
X168216986Y-91596649D01*
X168200706Y-91627106D01*
X168178799Y-91653799D01*
X168152106Y-91675706D01*
X168121649Y-91691986D01*
X168088600Y-91702011D01*
X168048096Y-91706000D01*
X166311904Y-91706000D01*
X166271400Y-91702011D01*
X166238351Y-91691986D01*
X166207894Y-91675706D01*
X166181201Y-91653799D01*
X166159294Y-91627106D01*
X166143014Y-91596649D01*
X166132989Y-91563600D01*
X166129000Y-91523096D01*
X166129000Y-90086904D01*
X166132989Y-90046400D01*
X166143014Y-90013351D01*
X166159294Y-89982894D01*
X166181201Y-89956201D01*
X166207894Y-89934294D01*
X166238351Y-89918014D01*
X166271400Y-89907989D01*
X166311904Y-89904000D01*
X168048096Y-89904000D01*
X168088600Y-89907989D01*
X168088600Y-89907989D01*
G37*
G36*
X144946821Y-89966313D02*
X144946824Y-89966314D01*
X144946825Y-89966314D01*
X145107239Y-90014975D01*
X145107241Y-90014976D01*
X145107244Y-90014977D01*
X145255078Y-90093995D01*
X145384659Y-90200341D01*
X145491005Y-90329922D01*
X145570023Y-90477756D01*
X145570024Y-90477759D01*
X145570025Y-90477761D01*
X145602612Y-90585186D01*
X145618687Y-90638179D01*
X145635117Y-90805000D01*
X145618687Y-90971821D01*
X145618686Y-90971824D01*
X145618686Y-90971825D01*
X145597356Y-91042142D01*
X145570023Y-91132244D01*
X145491005Y-91280078D01*
X145384659Y-91409659D01*
X145255078Y-91516005D01*
X145107244Y-91595023D01*
X145107241Y-91595024D01*
X145107239Y-91595025D01*
X144946825Y-91643686D01*
X144946824Y-91643686D01*
X144946821Y-91643687D01*
X144821804Y-91656000D01*
X144738196Y-91656000D01*
X144613179Y-91643687D01*
X144613176Y-91643686D01*
X144613175Y-91643686D01*
X144452761Y-91595025D01*
X144452759Y-91595024D01*
X144452756Y-91595023D01*
X144304922Y-91516005D01*
X144175341Y-91409659D01*
X144068995Y-91280078D01*
X143989977Y-91132244D01*
X143962645Y-91042142D01*
X143941314Y-90971825D01*
X143941314Y-90971824D01*
X143941313Y-90971821D01*
X143924883Y-90805000D01*
X143941313Y-90638179D01*
X143957388Y-90585186D01*
X143989975Y-90477761D01*
X143989976Y-90477759D01*
X143989977Y-90477756D01*
X144068995Y-90329922D01*
X144175341Y-90200341D01*
X144304922Y-90093995D01*
X144452756Y-90014977D01*
X144452759Y-90014976D01*
X144452761Y-90014975D01*
X144613175Y-89966314D01*
X144613176Y-89966314D01*
X144613179Y-89966313D01*
X144738196Y-89954000D01*
X144821804Y-89954000D01*
X144946821Y-89966313D01*
X144946821Y-89966313D01*
G37*
G36*
X152566821Y-89966313D02*
X152566824Y-89966314D01*
X152566825Y-89966314D01*
X152727239Y-90014975D01*
X152727241Y-90014976D01*
X152727244Y-90014977D01*
X152875078Y-90093995D01*
X153004659Y-90200341D01*
X153111005Y-90329922D01*
X153190023Y-90477756D01*
X153190024Y-90477759D01*
X153190025Y-90477761D01*
X153222612Y-90585186D01*
X153238687Y-90638179D01*
X153255117Y-90805000D01*
X153238687Y-90971821D01*
X153238686Y-90971824D01*
X153238686Y-90971825D01*
X153217356Y-91042142D01*
X153190023Y-91132244D01*
X153111005Y-91280078D01*
X153004659Y-91409659D01*
X152875078Y-91516005D01*
X152727244Y-91595023D01*
X152727241Y-91595024D01*
X152727239Y-91595025D01*
X152566825Y-91643686D01*
X152566824Y-91643686D01*
X152566821Y-91643687D01*
X152441804Y-91656000D01*
X152358196Y-91656000D01*
X152233179Y-91643687D01*
X152233176Y-91643686D01*
X152233175Y-91643686D01*
X152072761Y-91595025D01*
X152072759Y-91595024D01*
X152072756Y-91595023D01*
X151924922Y-91516005D01*
X151795341Y-91409659D01*
X151688995Y-91280078D01*
X151609977Y-91132244D01*
X151582645Y-91042142D01*
X151561314Y-90971825D01*
X151561314Y-90971824D01*
X151561313Y-90971821D01*
X151544883Y-90805000D01*
X151561313Y-90638179D01*
X151577388Y-90585186D01*
X151609975Y-90477761D01*
X151609976Y-90477759D01*
X151609977Y-90477756D01*
X151688995Y-90329922D01*
X151795341Y-90200341D01*
X151924922Y-90093995D01*
X152072756Y-90014977D01*
X152072759Y-90014976D01*
X152072761Y-90014975D01*
X152233175Y-89966314D01*
X152233176Y-89966314D01*
X152233179Y-89966313D01*
X152358196Y-89954000D01*
X152441804Y-89954000D01*
X152566821Y-89966313D01*
X152566821Y-89966313D01*
G37*
G36*
X160297142Y-90023242D02*
X160445102Y-90084530D01*
X160512130Y-90129317D01*
X160578257Y-90173501D01*
X160691499Y-90286743D01*
X160694655Y-90291467D01*
X160780470Y-90419898D01*
X160841758Y-90567858D01*
X160873000Y-90724925D01*
X160873000Y-90885075D01*
X160841758Y-91042142D01*
X160804438Y-91132239D01*
X160780471Y-91190100D01*
X160691499Y-91323257D01*
X160578257Y-91436499D01*
X160512130Y-91480683D01*
X160445102Y-91525470D01*
X160297142Y-91586758D01*
X160140075Y-91618000D01*
X159979925Y-91618000D01*
X159822858Y-91586758D01*
X159674898Y-91525470D01*
X159607870Y-91480683D01*
X159541743Y-91436499D01*
X159428501Y-91323257D01*
X159339529Y-91190100D01*
X159315562Y-91132239D01*
X159278242Y-91042142D01*
X159247000Y-90885075D01*
X159247000Y-90724925D01*
X159278242Y-90567858D01*
X159339530Y-90419898D01*
X159425345Y-90291467D01*
X159428501Y-90286743D01*
X159541743Y-90173501D01*
X159607870Y-90129317D01*
X159674898Y-90084530D01*
X159822858Y-90023242D01*
X159979925Y-89992000D01*
X160140075Y-89992000D01*
X160297142Y-90023242D01*
X160297142Y-90023242D01*
G37*
G36*
X137437142Y-90023242D02*
X137585102Y-90084530D01*
X137652130Y-90129317D01*
X137718257Y-90173501D01*
X137831499Y-90286743D01*
X137834655Y-90291467D01*
X137920470Y-90419898D01*
X137981758Y-90567858D01*
X138013000Y-90724925D01*
X138013000Y-90885075D01*
X137981758Y-91042142D01*
X137944438Y-91132239D01*
X137920471Y-91190100D01*
X137831499Y-91323257D01*
X137718257Y-91436499D01*
X137652130Y-91480683D01*
X137585102Y-91525470D01*
X137437142Y-91586758D01*
X137280075Y-91618000D01*
X137119925Y-91618000D01*
X136962858Y-91586758D01*
X136814898Y-91525470D01*
X136747870Y-91480683D01*
X136681743Y-91436499D01*
X136568501Y-91323257D01*
X136479529Y-91190100D01*
X136455562Y-91132239D01*
X136418242Y-91042142D01*
X136387000Y-90885075D01*
X136387000Y-90724925D01*
X136418242Y-90567858D01*
X136479530Y-90419898D01*
X136565345Y-90291467D01*
X136568501Y-90286743D01*
X136681743Y-90173501D01*
X136747870Y-90129317D01*
X136814898Y-90084530D01*
X136962858Y-90023242D01*
X137119925Y-89992000D01*
X137280075Y-89992000D01*
X137437142Y-90023242D01*
X137437142Y-90023242D01*
G37*
G36*
X132730442Y-89050518D02*
X132796627Y-89057037D01*
X132909853Y-89091384D01*
X132966467Y-89108557D01*
X133105087Y-89182652D01*
X133122991Y-89192222D01*
X133158729Y-89221552D01*
X133260186Y-89304814D01*
X133343448Y-89406271D01*
X133372778Y-89442009D01*
X133372779Y-89442011D01*
X133456443Y-89598533D01*
X133456443Y-89598534D01*
X133507963Y-89768373D01*
X133525359Y-89945000D01*
X133507963Y-90121627D01*
X133492227Y-90173501D01*
X133456443Y-90291467D01*
X133435888Y-90329922D01*
X133372778Y-90447991D01*
X133348350Y-90477756D01*
X133260186Y-90585186D01*
X133158729Y-90668448D01*
X133122991Y-90697778D01*
X133122989Y-90697779D01*
X132966467Y-90781443D01*
X132909853Y-90798616D01*
X132796627Y-90832963D01*
X132730443Y-90839481D01*
X132664260Y-90846000D01*
X132575740Y-90846000D01*
X132509557Y-90839481D01*
X132443373Y-90832963D01*
X132330147Y-90798616D01*
X132273533Y-90781443D01*
X132117011Y-90697779D01*
X132117009Y-90697778D01*
X132081271Y-90668448D01*
X131979814Y-90585186D01*
X131891650Y-90477756D01*
X131867222Y-90447991D01*
X131804112Y-90329922D01*
X131783557Y-90291467D01*
X131747773Y-90173501D01*
X131732037Y-90121627D01*
X131714641Y-89945000D01*
X131732037Y-89768373D01*
X131783557Y-89598534D01*
X131783557Y-89598533D01*
X131867221Y-89442011D01*
X131867222Y-89442009D01*
X131896552Y-89406271D01*
X131979814Y-89304814D01*
X132081271Y-89221552D01*
X132117009Y-89192222D01*
X132134913Y-89182652D01*
X132273533Y-89108557D01*
X132330147Y-89091384D01*
X132443373Y-89057037D01*
X132509558Y-89050518D01*
X132575740Y-89044000D01*
X132664260Y-89044000D01*
X132730442Y-89050518D01*
X132730442Y-89050518D01*
G37*
G36*
X119521000Y-90846000D02*
X117719000Y-90846000D01*
X117719000Y-89044000D01*
X119521000Y-89044000D01*
X119521000Y-90846000D01*
X119521000Y-90846000D01*
G37*
G36*
X152566821Y-87426313D02*
X152566824Y-87426314D01*
X152566825Y-87426314D01*
X152727239Y-87474975D01*
X152727241Y-87474976D01*
X152727244Y-87474977D01*
X152875078Y-87553995D01*
X153004659Y-87660341D01*
X153111005Y-87789922D01*
X153190023Y-87937756D01*
X153190024Y-87937759D01*
X153190025Y-87937761D01*
X153238686Y-88098175D01*
X153238687Y-88098179D01*
X153255117Y-88265000D01*
X153238687Y-88431821D01*
X153238686Y-88431824D01*
X153238686Y-88431825D01*
X153217356Y-88502142D01*
X153190023Y-88592244D01*
X153111005Y-88740078D01*
X153004659Y-88869659D01*
X152875078Y-88976005D01*
X152727244Y-89055023D01*
X152727241Y-89055024D01*
X152727239Y-89055025D01*
X152566825Y-89103686D01*
X152566824Y-89103686D01*
X152566821Y-89103687D01*
X152441804Y-89116000D01*
X152358196Y-89116000D01*
X152233179Y-89103687D01*
X152233176Y-89103686D01*
X152233175Y-89103686D01*
X152072761Y-89055025D01*
X152072759Y-89055024D01*
X152072756Y-89055023D01*
X151924922Y-88976005D01*
X151795341Y-88869659D01*
X151688995Y-88740078D01*
X151609977Y-88592244D01*
X151582645Y-88502142D01*
X151561314Y-88431825D01*
X151561314Y-88431824D01*
X151561313Y-88431821D01*
X151544883Y-88265000D01*
X151561313Y-88098179D01*
X151561314Y-88098175D01*
X151609975Y-87937761D01*
X151609976Y-87937759D01*
X151609977Y-87937756D01*
X151688995Y-87789922D01*
X151795341Y-87660341D01*
X151924922Y-87553995D01*
X152072756Y-87474977D01*
X152072759Y-87474976D01*
X152072761Y-87474975D01*
X152233175Y-87426314D01*
X152233176Y-87426314D01*
X152233179Y-87426313D01*
X152358196Y-87414000D01*
X152441804Y-87414000D01*
X152566821Y-87426313D01*
X152566821Y-87426313D01*
G37*
G36*
X144946821Y-87426313D02*
X144946824Y-87426314D01*
X144946825Y-87426314D01*
X145107239Y-87474975D01*
X145107241Y-87474976D01*
X145107244Y-87474977D01*
X145255078Y-87553995D01*
X145384659Y-87660341D01*
X145491005Y-87789922D01*
X145570023Y-87937756D01*
X145570024Y-87937759D01*
X145570025Y-87937761D01*
X145618686Y-88098175D01*
X145618687Y-88098179D01*
X145635117Y-88265000D01*
X145618687Y-88431821D01*
X145618686Y-88431824D01*
X145618686Y-88431825D01*
X145597356Y-88502142D01*
X145570023Y-88592244D01*
X145491005Y-88740078D01*
X145384659Y-88869659D01*
X145255078Y-88976005D01*
X145107244Y-89055023D01*
X145107241Y-89055024D01*
X145107239Y-89055025D01*
X144946825Y-89103686D01*
X144946824Y-89103686D01*
X144946821Y-89103687D01*
X144821804Y-89116000D01*
X144738196Y-89116000D01*
X144613179Y-89103687D01*
X144613176Y-89103686D01*
X144613175Y-89103686D01*
X144452761Y-89055025D01*
X144452759Y-89055024D01*
X144452756Y-89055023D01*
X144304922Y-88976005D01*
X144175341Y-88869659D01*
X144068995Y-88740078D01*
X143989977Y-88592244D01*
X143962645Y-88502142D01*
X143941314Y-88431825D01*
X143941314Y-88431824D01*
X143941313Y-88431821D01*
X143924883Y-88265000D01*
X143941313Y-88098179D01*
X143941314Y-88098175D01*
X143989975Y-87937761D01*
X143989976Y-87937759D01*
X143989977Y-87937756D01*
X144068995Y-87789922D01*
X144175341Y-87660341D01*
X144304922Y-87553995D01*
X144452756Y-87474977D01*
X144452759Y-87474976D01*
X144452761Y-87474975D01*
X144613175Y-87426314D01*
X144613176Y-87426314D01*
X144613179Y-87426313D01*
X144738196Y-87414000D01*
X144821804Y-87414000D01*
X144946821Y-87426313D01*
X144946821Y-87426313D01*
G37*
G36*
X160297142Y-87483242D02*
X160445102Y-87544530D01*
X160578258Y-87633502D01*
X160691498Y-87746742D01*
X160780470Y-87879898D01*
X160841758Y-88027858D01*
X160873000Y-88184925D01*
X160873000Y-88345075D01*
X160841758Y-88502142D01*
X160780470Y-88650102D01*
X160691498Y-88783258D01*
X160578258Y-88896498D01*
X160445102Y-88985470D01*
X160297142Y-89046758D01*
X160140075Y-89078000D01*
X159979925Y-89078000D01*
X159822858Y-89046758D01*
X159674898Y-88985470D01*
X159541742Y-88896498D01*
X159428502Y-88783258D01*
X159339530Y-88650102D01*
X159278242Y-88502142D01*
X159247000Y-88345075D01*
X159247000Y-88184925D01*
X159278242Y-88027858D01*
X159339530Y-87879898D01*
X159428502Y-87746742D01*
X159541742Y-87633502D01*
X159674898Y-87544530D01*
X159822858Y-87483242D01*
X159979925Y-87452000D01*
X160140075Y-87452000D01*
X160297142Y-87483242D01*
X160297142Y-87483242D01*
G37*
G36*
X137437142Y-87483242D02*
X137585102Y-87544530D01*
X137718258Y-87633502D01*
X137831498Y-87746742D01*
X137920470Y-87879898D01*
X137981758Y-88027858D01*
X138013000Y-88184925D01*
X138013000Y-88345075D01*
X137981758Y-88502142D01*
X137920470Y-88650102D01*
X137831498Y-88783258D01*
X137718258Y-88896498D01*
X137585102Y-88985470D01*
X137437142Y-89046758D01*
X137280075Y-89078000D01*
X137119925Y-89078000D01*
X136962858Y-89046758D01*
X136814898Y-88985470D01*
X136681742Y-88896498D01*
X136568502Y-88783258D01*
X136479530Y-88650102D01*
X136418242Y-88502142D01*
X136387000Y-88345075D01*
X136387000Y-88184925D01*
X136418242Y-88027858D01*
X136479530Y-87879898D01*
X136568502Y-87746742D01*
X136681742Y-87633502D01*
X136814898Y-87544530D01*
X136962858Y-87483242D01*
X137119925Y-87452000D01*
X137280075Y-87452000D01*
X137437142Y-87483242D01*
X137437142Y-87483242D01*
G37*
G36*
X167440442Y-84790518D02*
X167506627Y-84797037D01*
X167619853Y-84831384D01*
X167676467Y-84848557D01*
X167747102Y-84886313D01*
X167832991Y-84932222D01*
X167846420Y-84943243D01*
X167970186Y-85044814D01*
X168032168Y-85120341D01*
X168082778Y-85182009D01*
X168082779Y-85182011D01*
X168166443Y-85338533D01*
X168183616Y-85395147D01*
X168217963Y-85508373D01*
X168235359Y-85685000D01*
X168217963Y-85861627D01*
X168187472Y-85962142D01*
X168166443Y-86031467D01*
X168155340Y-86052239D01*
X168082778Y-86187991D01*
X168072858Y-86200078D01*
X167970186Y-86325186D01*
X167868729Y-86408448D01*
X167832991Y-86437778D01*
X167815087Y-86447348D01*
X167676467Y-86521443D01*
X167621885Y-86538000D01*
X167506627Y-86572963D01*
X167440443Y-86579481D01*
X167374260Y-86586000D01*
X166985740Y-86586000D01*
X166919557Y-86579481D01*
X166853373Y-86572963D01*
X166738115Y-86538000D01*
X166683533Y-86521443D01*
X166544913Y-86447348D01*
X166527009Y-86437778D01*
X166491271Y-86408448D01*
X166389814Y-86325186D01*
X166287142Y-86200078D01*
X166277222Y-86187991D01*
X166204660Y-86052239D01*
X166193557Y-86031467D01*
X166172528Y-85962142D01*
X166142037Y-85861627D01*
X166124641Y-85685000D01*
X166142037Y-85508373D01*
X166176384Y-85395147D01*
X166193557Y-85338533D01*
X166277221Y-85182011D01*
X166277222Y-85182009D01*
X166327832Y-85120341D01*
X166389814Y-85044814D01*
X166513580Y-84943243D01*
X166527009Y-84932222D01*
X166612898Y-84886313D01*
X166683533Y-84848557D01*
X166740147Y-84831384D01*
X166853373Y-84797037D01*
X166919558Y-84790518D01*
X166985740Y-84784000D01*
X167374260Y-84784000D01*
X167440442Y-84790518D01*
X167440442Y-84790518D01*
G37*
G36*
X152566821Y-84886313D02*
X152566824Y-84886314D01*
X152566825Y-84886314D01*
X152727239Y-84934975D01*
X152727241Y-84934976D01*
X152727244Y-84934977D01*
X152875078Y-85013995D01*
X153004659Y-85120341D01*
X153111005Y-85249922D01*
X153190023Y-85397756D01*
X153190024Y-85397759D01*
X153190025Y-85397761D01*
X153223579Y-85508375D01*
X153238687Y-85558179D01*
X153255117Y-85725000D01*
X153238687Y-85891821D01*
X153238686Y-85891824D01*
X153238686Y-85891825D01*
X153217356Y-85962142D01*
X153190023Y-86052244D01*
X153111005Y-86200078D01*
X153004659Y-86329659D01*
X152875078Y-86436005D01*
X152727244Y-86515023D01*
X152727241Y-86515024D01*
X152727239Y-86515025D01*
X152566825Y-86563686D01*
X152566824Y-86563686D01*
X152566821Y-86563687D01*
X152441804Y-86576000D01*
X152358196Y-86576000D01*
X152233179Y-86563687D01*
X152233176Y-86563686D01*
X152233175Y-86563686D01*
X152072761Y-86515025D01*
X152072759Y-86515024D01*
X152072756Y-86515023D01*
X151924922Y-86436005D01*
X151795341Y-86329659D01*
X151688995Y-86200078D01*
X151609977Y-86052244D01*
X151582645Y-85962142D01*
X151561314Y-85891825D01*
X151561314Y-85891824D01*
X151561313Y-85891821D01*
X151544883Y-85725000D01*
X151561313Y-85558179D01*
X151576421Y-85508375D01*
X151609975Y-85397761D01*
X151609976Y-85397759D01*
X151609977Y-85397756D01*
X151688995Y-85249922D01*
X151795341Y-85120341D01*
X151924922Y-85013995D01*
X152072756Y-84934977D01*
X152072759Y-84934976D01*
X152072761Y-84934975D01*
X152233175Y-84886314D01*
X152233176Y-84886314D01*
X152233179Y-84886313D01*
X152358196Y-84874000D01*
X152441804Y-84874000D01*
X152566821Y-84886313D01*
X152566821Y-84886313D01*
G37*
G36*
X144946821Y-84886313D02*
X144946824Y-84886314D01*
X144946825Y-84886314D01*
X145107239Y-84934975D01*
X145107241Y-84934976D01*
X145107244Y-84934977D01*
X145255078Y-85013995D01*
X145384659Y-85120341D01*
X145491005Y-85249922D01*
X145570023Y-85397756D01*
X145570024Y-85397759D01*
X145570025Y-85397761D01*
X145603579Y-85508375D01*
X145618687Y-85558179D01*
X145635117Y-85725000D01*
X145618687Y-85891821D01*
X145618686Y-85891824D01*
X145618686Y-85891825D01*
X145597356Y-85962142D01*
X145570023Y-86052244D01*
X145491005Y-86200078D01*
X145384659Y-86329659D01*
X145255078Y-86436005D01*
X145107244Y-86515023D01*
X145107241Y-86515024D01*
X145107239Y-86515025D01*
X144946825Y-86563686D01*
X144946824Y-86563686D01*
X144946821Y-86563687D01*
X144821804Y-86576000D01*
X144738196Y-86576000D01*
X144613179Y-86563687D01*
X144613176Y-86563686D01*
X144613175Y-86563686D01*
X144452761Y-86515025D01*
X144452759Y-86515024D01*
X144452756Y-86515023D01*
X144304922Y-86436005D01*
X144175341Y-86329659D01*
X144068995Y-86200078D01*
X143989977Y-86052244D01*
X143962645Y-85962142D01*
X143941314Y-85891825D01*
X143941314Y-85891824D01*
X143941313Y-85891821D01*
X143924883Y-85725000D01*
X143941313Y-85558179D01*
X143956421Y-85508375D01*
X143989975Y-85397761D01*
X143989976Y-85397759D01*
X143989977Y-85397756D01*
X144068995Y-85249922D01*
X144175341Y-85120341D01*
X144304922Y-85013995D01*
X144452756Y-84934977D01*
X144452759Y-84934976D01*
X144452761Y-84934975D01*
X144613175Y-84886314D01*
X144613176Y-84886314D01*
X144613179Y-84886313D01*
X144738196Y-84874000D01*
X144821804Y-84874000D01*
X144946821Y-84886313D01*
X144946821Y-84886313D01*
G37*
G36*
X160297142Y-84943242D02*
X160445102Y-85004530D01*
X160578258Y-85093502D01*
X160691498Y-85206742D01*
X160780470Y-85339898D01*
X160841758Y-85487858D01*
X160873000Y-85644925D01*
X160873000Y-85805075D01*
X160841758Y-85962142D01*
X160780470Y-86110102D01*
X160691498Y-86243258D01*
X160578258Y-86356498D01*
X160445102Y-86445470D01*
X160297142Y-86506758D01*
X160140075Y-86538000D01*
X159979925Y-86538000D01*
X159822858Y-86506758D01*
X159674898Y-86445470D01*
X159541742Y-86356498D01*
X159428502Y-86243258D01*
X159339530Y-86110102D01*
X159278242Y-85962142D01*
X159247000Y-85805075D01*
X159247000Y-85644925D01*
X159278242Y-85487858D01*
X159339530Y-85339898D01*
X159428502Y-85206742D01*
X159541742Y-85093502D01*
X159674898Y-85004530D01*
X159822858Y-84943242D01*
X159979925Y-84912000D01*
X160140075Y-84912000D01*
X160297142Y-84943242D01*
X160297142Y-84943242D01*
G37*
G36*
X137437142Y-84943242D02*
X137585102Y-85004530D01*
X137718258Y-85093502D01*
X137831498Y-85206742D01*
X137920470Y-85339898D01*
X137981758Y-85487858D01*
X138013000Y-85644925D01*
X138013000Y-85805075D01*
X137981758Y-85962142D01*
X137920470Y-86110102D01*
X137831498Y-86243258D01*
X137718258Y-86356498D01*
X137585102Y-86445470D01*
X137437142Y-86506758D01*
X137280075Y-86538000D01*
X137119925Y-86538000D01*
X136962858Y-86506758D01*
X136814898Y-86445470D01*
X136681742Y-86356498D01*
X136568502Y-86243258D01*
X136479530Y-86110102D01*
X136418242Y-85962142D01*
X136387000Y-85805075D01*
X136387000Y-85644925D01*
X136418242Y-85487858D01*
X136479530Y-85339898D01*
X136568502Y-85206742D01*
X136681742Y-85093502D01*
X136814898Y-85004530D01*
X136962858Y-84943242D01*
X137119925Y-84912000D01*
X137280075Y-84912000D01*
X137437142Y-84943242D01*
X137437142Y-84943242D01*
G37*
G36*
X168088600Y-82287989D02*
X168121649Y-82298014D01*
X168152106Y-82314294D01*
X168178799Y-82336201D01*
X168200706Y-82362894D01*
X168216986Y-82393351D01*
X168227011Y-82426400D01*
X168231000Y-82466904D01*
X168231000Y-83903096D01*
X168227011Y-83943600D01*
X168216986Y-83976649D01*
X168200706Y-84007106D01*
X168178799Y-84033799D01*
X168152106Y-84055706D01*
X168121649Y-84071986D01*
X168088600Y-84082011D01*
X168048096Y-84086000D01*
X166311904Y-84086000D01*
X166271400Y-84082011D01*
X166238351Y-84071986D01*
X166207894Y-84055706D01*
X166181201Y-84033799D01*
X166159294Y-84007106D01*
X166143014Y-83976649D01*
X166132989Y-83943600D01*
X166129000Y-83903096D01*
X166129000Y-82466904D01*
X166132989Y-82426400D01*
X166143014Y-82393351D01*
X166159294Y-82362894D01*
X166181201Y-82336201D01*
X166207894Y-82314294D01*
X166238351Y-82298014D01*
X166271400Y-82287989D01*
X166311904Y-82284000D01*
X168048096Y-82284000D01*
X168088600Y-82287989D01*
X168088600Y-82287989D01*
G37*
G36*
X144946821Y-82346313D02*
X144946824Y-82346314D01*
X144946825Y-82346314D01*
X145107239Y-82394975D01*
X145107241Y-82394976D01*
X145107244Y-82394977D01*
X145255078Y-82473995D01*
X145384659Y-82580341D01*
X145491005Y-82709922D01*
X145570023Y-82857756D01*
X145570024Y-82857759D01*
X145570025Y-82857761D01*
X145618686Y-83018175D01*
X145618687Y-83018179D01*
X145635117Y-83185000D01*
X145618687Y-83351821D01*
X145618686Y-83351824D01*
X145618686Y-83351825D01*
X145589512Y-83448000D01*
X145570023Y-83512244D01*
X145491005Y-83660078D01*
X145384659Y-83789659D01*
X145255078Y-83896005D01*
X145107244Y-83975023D01*
X145107241Y-83975024D01*
X145107239Y-83975025D01*
X144946825Y-84023686D01*
X144946824Y-84023686D01*
X144946821Y-84023687D01*
X144821804Y-84036000D01*
X144738196Y-84036000D01*
X144613179Y-84023687D01*
X144613176Y-84023686D01*
X144613175Y-84023686D01*
X144452761Y-83975025D01*
X144452759Y-83975024D01*
X144452756Y-83975023D01*
X144304922Y-83896005D01*
X144175341Y-83789659D01*
X144068995Y-83660078D01*
X143989977Y-83512244D01*
X143970489Y-83448000D01*
X143941314Y-83351825D01*
X143941314Y-83351824D01*
X143941313Y-83351821D01*
X143924883Y-83185000D01*
X143941313Y-83018179D01*
X143941314Y-83018175D01*
X143989975Y-82857761D01*
X143989976Y-82857759D01*
X143989977Y-82857756D01*
X144068995Y-82709922D01*
X144175341Y-82580341D01*
X144304922Y-82473995D01*
X144452756Y-82394977D01*
X144452759Y-82394976D01*
X144452761Y-82394975D01*
X144613175Y-82346314D01*
X144613176Y-82346314D01*
X144613179Y-82346313D01*
X144738196Y-82334000D01*
X144821804Y-82334000D01*
X144946821Y-82346313D01*
X144946821Y-82346313D01*
G37*
G36*
X152566821Y-82346313D02*
X152566824Y-82346314D01*
X152566825Y-82346314D01*
X152727239Y-82394975D01*
X152727241Y-82394976D01*
X152727244Y-82394977D01*
X152875078Y-82473995D01*
X153004659Y-82580341D01*
X153111005Y-82709922D01*
X153190023Y-82857756D01*
X153190024Y-82857759D01*
X153190025Y-82857761D01*
X153238686Y-83018175D01*
X153238687Y-83018179D01*
X153255117Y-83185000D01*
X153238687Y-83351821D01*
X153238686Y-83351824D01*
X153238686Y-83351825D01*
X153209512Y-83448000D01*
X153190023Y-83512244D01*
X153111005Y-83660078D01*
X153004659Y-83789659D01*
X152875078Y-83896005D01*
X152727244Y-83975023D01*
X152727241Y-83975024D01*
X152727239Y-83975025D01*
X152566825Y-84023686D01*
X152566824Y-84023686D01*
X152566821Y-84023687D01*
X152441804Y-84036000D01*
X152358196Y-84036000D01*
X152233179Y-84023687D01*
X152233176Y-84023686D01*
X152233175Y-84023686D01*
X152072761Y-83975025D01*
X152072759Y-83975024D01*
X152072756Y-83975023D01*
X151924922Y-83896005D01*
X151795341Y-83789659D01*
X151688995Y-83660078D01*
X151609977Y-83512244D01*
X151590489Y-83448000D01*
X151561314Y-83351825D01*
X151561314Y-83351824D01*
X151561313Y-83351821D01*
X151544883Y-83185000D01*
X151561313Y-83018179D01*
X151561314Y-83018175D01*
X151609975Y-82857761D01*
X151609976Y-82857759D01*
X151609977Y-82857756D01*
X151688995Y-82709922D01*
X151795341Y-82580341D01*
X151924922Y-82473995D01*
X152072756Y-82394977D01*
X152072759Y-82394976D01*
X152072761Y-82394975D01*
X152233175Y-82346314D01*
X152233176Y-82346314D01*
X152233179Y-82346313D01*
X152358196Y-82334000D01*
X152441804Y-82334000D01*
X152566821Y-82346313D01*
X152566821Y-82346313D01*
G37*
G36*
X137437142Y-82403242D02*
X137585102Y-82464530D01*
X137634147Y-82497301D01*
X137718257Y-82553501D01*
X137831499Y-82666743D01*
X137855941Y-82703323D01*
X137920470Y-82799898D01*
X137981758Y-82947858D01*
X138013000Y-83104925D01*
X138013000Y-83265075D01*
X137981758Y-83422142D01*
X137971047Y-83448000D01*
X137920471Y-83570100D01*
X137831499Y-83703257D01*
X137718257Y-83816499D01*
X137652130Y-83860683D01*
X137585102Y-83905470D01*
X137437142Y-83966758D01*
X137280075Y-83998000D01*
X137119925Y-83998000D01*
X136962858Y-83966758D01*
X136814898Y-83905470D01*
X136747870Y-83860683D01*
X136681743Y-83816499D01*
X136568501Y-83703257D01*
X136479529Y-83570100D01*
X136428953Y-83448000D01*
X136418242Y-83422142D01*
X136387000Y-83265075D01*
X136387000Y-83104925D01*
X136418242Y-82947858D01*
X136479530Y-82799898D01*
X136544059Y-82703323D01*
X136568501Y-82666743D01*
X136681743Y-82553501D01*
X136765853Y-82497301D01*
X136814898Y-82464530D01*
X136962858Y-82403242D01*
X137119925Y-82372000D01*
X137280075Y-82372000D01*
X137437142Y-82403242D01*
X137437142Y-82403242D01*
G37*
G36*
X160297142Y-82403242D02*
X160445102Y-82464530D01*
X160494147Y-82497301D01*
X160578257Y-82553501D01*
X160691499Y-82666743D01*
X160715941Y-82703323D01*
X160780470Y-82799898D01*
X160841758Y-82947858D01*
X160873000Y-83104925D01*
X160873000Y-83265075D01*
X160841758Y-83422142D01*
X160831047Y-83448000D01*
X160780471Y-83570100D01*
X160691499Y-83703257D01*
X160578257Y-83816499D01*
X160512130Y-83860683D01*
X160445102Y-83905470D01*
X160297142Y-83966758D01*
X160140075Y-83998000D01*
X159979925Y-83998000D01*
X159822858Y-83966758D01*
X159674898Y-83905470D01*
X159607870Y-83860683D01*
X159541743Y-83816499D01*
X159428501Y-83703257D01*
X159339529Y-83570100D01*
X159288953Y-83448000D01*
X159278242Y-83422142D01*
X159247000Y-83265075D01*
X159247000Y-83104925D01*
X159278242Y-82947858D01*
X159339530Y-82799898D01*
X159404059Y-82703323D01*
X159428501Y-82666743D01*
X159541743Y-82553501D01*
X159625853Y-82497301D01*
X159674898Y-82464530D01*
X159822858Y-82403242D01*
X159979925Y-82372000D01*
X160140075Y-82372000D01*
X160297142Y-82403242D01*
X160297142Y-82403242D01*
G37*
G36*
X155749499Y-82663445D02*
X155786993Y-82674819D01*
X155821557Y-82693294D01*
X155851847Y-82718153D01*
X155876706Y-82748443D01*
X155895181Y-82783007D01*
X155906555Y-82820501D01*
X155911000Y-82865638D01*
X155911000Y-83504362D01*
X155906555Y-83549499D01*
X155895181Y-83586993D01*
X155876706Y-83621557D01*
X155851847Y-83651847D01*
X155821557Y-83676706D01*
X155786993Y-83695181D01*
X155749499Y-83706555D01*
X155704362Y-83711000D01*
X154965638Y-83711000D01*
X154920501Y-83706555D01*
X154883007Y-83695181D01*
X154848443Y-83676706D01*
X154818153Y-83651847D01*
X154793294Y-83621557D01*
X154774819Y-83586993D01*
X154763445Y-83549499D01*
X154759000Y-83504362D01*
X154759000Y-82865638D01*
X154763445Y-82820501D01*
X154774819Y-82783007D01*
X154793294Y-82748443D01*
X154818153Y-82718153D01*
X154848443Y-82693294D01*
X154883007Y-82674819D01*
X154920501Y-82663445D01*
X154965638Y-82659000D01*
X155704362Y-82659000D01*
X155749499Y-82663445D01*
X155749499Y-82663445D01*
G37*
G36*
X157499499Y-82663445D02*
X157536993Y-82674819D01*
X157571557Y-82693294D01*
X157601847Y-82718153D01*
X157626706Y-82748443D01*
X157645181Y-82783007D01*
X157656555Y-82820501D01*
X157661000Y-82865638D01*
X157661000Y-83504362D01*
X157656555Y-83549499D01*
X157645181Y-83586993D01*
X157626706Y-83621557D01*
X157601847Y-83651847D01*
X157571557Y-83676706D01*
X157536993Y-83695181D01*
X157499499Y-83706555D01*
X157454362Y-83711000D01*
X156715638Y-83711000D01*
X156670501Y-83706555D01*
X156633007Y-83695181D01*
X156598443Y-83676706D01*
X156568153Y-83651847D01*
X156543294Y-83621557D01*
X156524819Y-83586993D01*
X156513445Y-83549499D01*
X156509000Y-83504362D01*
X156509000Y-82865638D01*
X156513445Y-82820501D01*
X156524819Y-82783007D01*
X156543294Y-82748443D01*
X156568153Y-82718153D01*
X156598443Y-82693294D01*
X156633007Y-82674819D01*
X156670501Y-82663445D01*
X156715638Y-82659000D01*
X157454362Y-82659000D01*
X157499499Y-82663445D01*
X157499499Y-82663445D01*
G37*
G36*
X144946821Y-79806313D02*
X144946824Y-79806314D01*
X144946825Y-79806314D01*
X145107239Y-79854975D01*
X145107241Y-79854976D01*
X145107244Y-79854977D01*
X145255078Y-79933995D01*
X145384659Y-80040341D01*
X145491005Y-80169922D01*
X145570023Y-80317756D01*
X145570024Y-80317759D01*
X145570025Y-80317761D01*
X145618686Y-80478175D01*
X145618687Y-80478179D01*
X145635117Y-80645000D01*
X145618687Y-80811821D01*
X145618686Y-80811824D01*
X145618686Y-80811825D01*
X145589512Y-80908000D01*
X145570023Y-80972244D01*
X145491005Y-81120078D01*
X145384659Y-81249659D01*
X145255078Y-81356005D01*
X145107244Y-81435023D01*
X145107241Y-81435024D01*
X145107239Y-81435025D01*
X144946825Y-81483686D01*
X144946824Y-81483686D01*
X144946821Y-81483687D01*
X144821804Y-81496000D01*
X144738196Y-81496000D01*
X144613179Y-81483687D01*
X144613176Y-81483686D01*
X144613175Y-81483686D01*
X144452761Y-81435025D01*
X144452759Y-81435024D01*
X144452756Y-81435023D01*
X144304922Y-81356005D01*
X144175341Y-81249659D01*
X144068995Y-81120078D01*
X143989977Y-80972244D01*
X143970489Y-80908000D01*
X143941314Y-80811825D01*
X143941314Y-80811824D01*
X143941313Y-80811821D01*
X143924883Y-80645000D01*
X143941313Y-80478179D01*
X143941314Y-80478175D01*
X143989975Y-80317761D01*
X143989976Y-80317759D01*
X143989977Y-80317756D01*
X144068995Y-80169922D01*
X144175341Y-80040341D01*
X144304922Y-79933995D01*
X144452756Y-79854977D01*
X144452759Y-79854976D01*
X144452761Y-79854975D01*
X144613175Y-79806314D01*
X144613176Y-79806314D01*
X144613179Y-79806313D01*
X144738196Y-79794000D01*
X144821804Y-79794000D01*
X144946821Y-79806313D01*
X144946821Y-79806313D01*
G37*
G36*
X152566821Y-79806313D02*
X152566824Y-79806314D01*
X152566825Y-79806314D01*
X152727239Y-79854975D01*
X152727241Y-79854976D01*
X152727244Y-79854977D01*
X152875078Y-79933995D01*
X153004659Y-80040341D01*
X153111005Y-80169922D01*
X153190023Y-80317756D01*
X153190024Y-80317759D01*
X153190025Y-80317761D01*
X153238686Y-80478175D01*
X153238687Y-80478179D01*
X153255117Y-80645000D01*
X153238687Y-80811821D01*
X153238686Y-80811824D01*
X153238686Y-80811825D01*
X153209512Y-80908000D01*
X153190023Y-80972244D01*
X153111005Y-81120078D01*
X153004659Y-81249659D01*
X152875078Y-81356005D01*
X152727244Y-81435023D01*
X152727241Y-81435024D01*
X152727239Y-81435025D01*
X152566825Y-81483686D01*
X152566824Y-81483686D01*
X152566821Y-81483687D01*
X152441804Y-81496000D01*
X152358196Y-81496000D01*
X152233179Y-81483687D01*
X152233176Y-81483686D01*
X152233175Y-81483686D01*
X152072761Y-81435025D01*
X152072759Y-81435024D01*
X152072756Y-81435023D01*
X151924922Y-81356005D01*
X151795341Y-81249659D01*
X151688995Y-81120078D01*
X151609977Y-80972244D01*
X151590489Y-80908000D01*
X151561314Y-80811825D01*
X151561314Y-80811824D01*
X151561313Y-80811821D01*
X151544883Y-80645000D01*
X151561313Y-80478179D01*
X151561314Y-80478175D01*
X151609975Y-80317761D01*
X151609976Y-80317759D01*
X151609977Y-80317756D01*
X151688995Y-80169922D01*
X151795341Y-80040341D01*
X151924922Y-79933995D01*
X152072756Y-79854977D01*
X152072759Y-79854976D01*
X152072761Y-79854975D01*
X152233175Y-79806314D01*
X152233176Y-79806314D01*
X152233179Y-79806313D01*
X152358196Y-79794000D01*
X152441804Y-79794000D01*
X152566821Y-79806313D01*
X152566821Y-79806313D01*
G37*
G36*
X137437142Y-79863242D02*
X137585102Y-79924530D01*
X137652130Y-79969317D01*
X137718257Y-80013501D01*
X137831499Y-80126743D01*
X137855941Y-80163323D01*
X137920470Y-80259898D01*
X137981758Y-80407858D01*
X138013000Y-80564925D01*
X138013000Y-80725075D01*
X137981758Y-80882142D01*
X137971047Y-80908000D01*
X137920471Y-81030100D01*
X137849240Y-81136706D01*
X137831498Y-81163258D01*
X137718258Y-81276498D01*
X137585102Y-81365470D01*
X137437142Y-81426758D01*
X137280075Y-81458000D01*
X137119925Y-81458000D01*
X136962858Y-81426758D01*
X136814898Y-81365470D01*
X136681742Y-81276498D01*
X136568502Y-81163258D01*
X136550761Y-81136706D01*
X136479529Y-81030100D01*
X136428953Y-80908000D01*
X136418242Y-80882142D01*
X136387000Y-80725075D01*
X136387000Y-80564925D01*
X136418242Y-80407858D01*
X136479530Y-80259898D01*
X136544059Y-80163323D01*
X136568501Y-80126743D01*
X136681743Y-80013501D01*
X136747870Y-79969317D01*
X136814898Y-79924530D01*
X136962858Y-79863242D01*
X137119925Y-79832000D01*
X137280075Y-79832000D01*
X137437142Y-79863242D01*
X137437142Y-79863242D01*
G37*
G36*
X160297142Y-79863242D02*
X160445102Y-79924530D01*
X160512130Y-79969317D01*
X160578257Y-80013501D01*
X160691499Y-80126743D01*
X160715941Y-80163323D01*
X160780470Y-80259898D01*
X160841758Y-80407858D01*
X160873000Y-80564925D01*
X160873000Y-80725075D01*
X160841758Y-80882142D01*
X160831047Y-80908000D01*
X160780471Y-81030100D01*
X160709240Y-81136706D01*
X160691498Y-81163258D01*
X160578258Y-81276498D01*
X160445102Y-81365470D01*
X160297142Y-81426758D01*
X160140075Y-81458000D01*
X159979925Y-81458000D01*
X159822858Y-81426758D01*
X159674898Y-81365470D01*
X159541742Y-81276498D01*
X159428502Y-81163258D01*
X159410761Y-81136706D01*
X159339529Y-81030100D01*
X159288953Y-80908000D01*
X159278242Y-80882142D01*
X159247000Y-80725075D01*
X159247000Y-80564925D01*
X159278242Y-80407858D01*
X159339530Y-80259898D01*
X159404059Y-80163323D01*
X159428501Y-80126743D01*
X159541743Y-80013501D01*
X159607870Y-79969317D01*
X159674898Y-79924530D01*
X159822858Y-79863242D01*
X159979925Y-79832000D01*
X160140075Y-79832000D01*
X160297142Y-79863242D01*
X160297142Y-79863242D01*
G37*
G36*
X157499499Y-80123445D02*
X157536993Y-80134819D01*
X157571557Y-80153294D01*
X157601847Y-80178153D01*
X157626706Y-80208443D01*
X157645181Y-80243007D01*
X157656555Y-80280501D01*
X157661000Y-80325638D01*
X157661000Y-80964362D01*
X157656555Y-81009499D01*
X157645181Y-81046993D01*
X157626706Y-81081557D01*
X157601847Y-81111847D01*
X157571557Y-81136706D01*
X157536993Y-81155181D01*
X157499499Y-81166555D01*
X157454362Y-81171000D01*
X156715638Y-81171000D01*
X156670501Y-81166555D01*
X156633007Y-81155181D01*
X156598443Y-81136706D01*
X156568153Y-81111847D01*
X156543294Y-81081557D01*
X156524819Y-81046993D01*
X156513445Y-81009499D01*
X156509000Y-80964362D01*
X156509000Y-80325638D01*
X156513445Y-80280501D01*
X156524819Y-80243007D01*
X156543294Y-80208443D01*
X156568153Y-80178153D01*
X156598443Y-80153294D01*
X156633007Y-80134819D01*
X156670501Y-80123445D01*
X156715638Y-80119000D01*
X157454362Y-80119000D01*
X157499499Y-80123445D01*
X157499499Y-80123445D01*
G37*
G36*
X155749499Y-80123445D02*
X155786993Y-80134819D01*
X155821557Y-80153294D01*
X155851847Y-80178153D01*
X155876706Y-80208443D01*
X155895181Y-80243007D01*
X155906555Y-80280501D01*
X155911000Y-80325638D01*
X155911000Y-80964362D01*
X155906555Y-81009499D01*
X155895181Y-81046993D01*
X155876706Y-81081557D01*
X155851847Y-81111847D01*
X155821557Y-81136706D01*
X155786993Y-81155181D01*
X155749499Y-81166555D01*
X155704362Y-81171000D01*
X154965638Y-81171000D01*
X154920501Y-81166555D01*
X154883007Y-81155181D01*
X154848443Y-81136706D01*
X154818153Y-81111847D01*
X154793294Y-81081557D01*
X154774819Y-81046993D01*
X154763445Y-81009499D01*
X154759000Y-80964362D01*
X154759000Y-80325638D01*
X154763445Y-80280501D01*
X154774819Y-80243007D01*
X154793294Y-80208443D01*
X154818153Y-80178153D01*
X154848443Y-80153294D01*
X154883007Y-80134819D01*
X154920501Y-80123445D01*
X154965638Y-80119000D01*
X155704362Y-80119000D01*
X155749499Y-80123445D01*
X155749499Y-80123445D01*
G37*
G36*
X167440442Y-77170518D02*
X167506627Y-77177037D01*
X167619853Y-77211384D01*
X167676467Y-77228557D01*
X167747102Y-77266313D01*
X167832991Y-77312222D01*
X167846420Y-77323243D01*
X167970186Y-77424814D01*
X168032168Y-77500341D01*
X168082778Y-77562009D01*
X168082779Y-77562011D01*
X168166443Y-77718533D01*
X168183616Y-77775147D01*
X168217963Y-77888373D01*
X168235359Y-78065000D01*
X168217963Y-78241627D01*
X168187472Y-78342142D01*
X168166443Y-78411467D01*
X168111576Y-78514115D01*
X168082778Y-78567991D01*
X168059212Y-78596706D01*
X167970186Y-78705186D01*
X167868729Y-78788448D01*
X167832991Y-78817778D01*
X167815087Y-78827348D01*
X167676467Y-78901443D01*
X167621885Y-78918000D01*
X167506627Y-78952963D01*
X167440443Y-78959481D01*
X167374260Y-78966000D01*
X166985740Y-78966000D01*
X166919557Y-78959481D01*
X166853373Y-78952963D01*
X166738115Y-78918000D01*
X166683533Y-78901443D01*
X166544913Y-78827348D01*
X166527009Y-78817778D01*
X166491271Y-78788448D01*
X166389814Y-78705186D01*
X166300788Y-78596706D01*
X166277222Y-78567991D01*
X166248424Y-78514115D01*
X166193557Y-78411467D01*
X166172528Y-78342142D01*
X166142037Y-78241627D01*
X166124641Y-78065000D01*
X166142037Y-77888373D01*
X166176384Y-77775147D01*
X166193557Y-77718533D01*
X166277221Y-77562011D01*
X166277222Y-77562009D01*
X166327832Y-77500341D01*
X166389814Y-77424814D01*
X166513580Y-77323243D01*
X166527009Y-77312222D01*
X166612898Y-77266313D01*
X166683533Y-77228557D01*
X166740147Y-77211384D01*
X166853373Y-77177037D01*
X166919558Y-77170518D01*
X166985740Y-77164000D01*
X167374260Y-77164000D01*
X167440442Y-77170518D01*
X167440442Y-77170518D01*
G37*
G36*
X152566821Y-77266313D02*
X152566824Y-77266314D01*
X152566825Y-77266314D01*
X152727239Y-77314975D01*
X152727241Y-77314976D01*
X152727244Y-77314977D01*
X152875078Y-77393995D01*
X153004659Y-77500341D01*
X153111005Y-77629922D01*
X153190023Y-77777756D01*
X153190024Y-77777759D01*
X153190025Y-77777761D01*
X153223579Y-77888375D01*
X153238687Y-77938179D01*
X153255117Y-78105000D01*
X153238687Y-78271821D01*
X153238686Y-78271824D01*
X153238686Y-78271825D01*
X153209512Y-78368000D01*
X153190023Y-78432244D01*
X153111005Y-78580078D01*
X153004659Y-78709659D01*
X152875078Y-78816005D01*
X152727244Y-78895023D01*
X152727241Y-78895024D01*
X152727239Y-78895025D01*
X152566825Y-78943686D01*
X152566824Y-78943686D01*
X152566821Y-78943687D01*
X152441804Y-78956000D01*
X152358196Y-78956000D01*
X152233179Y-78943687D01*
X152233176Y-78943686D01*
X152233175Y-78943686D01*
X152072761Y-78895025D01*
X152072759Y-78895024D01*
X152072756Y-78895023D01*
X151924922Y-78816005D01*
X151795341Y-78709659D01*
X151688995Y-78580078D01*
X151609977Y-78432244D01*
X151590489Y-78368000D01*
X151561314Y-78271825D01*
X151561314Y-78271824D01*
X151561313Y-78271821D01*
X151544883Y-78105000D01*
X151561313Y-77938179D01*
X151576421Y-77888375D01*
X151609975Y-77777761D01*
X151609976Y-77777759D01*
X151609977Y-77777756D01*
X151688995Y-77629922D01*
X151795341Y-77500341D01*
X151924922Y-77393995D01*
X152072756Y-77314977D01*
X152072759Y-77314976D01*
X152072761Y-77314975D01*
X152233175Y-77266314D01*
X152233176Y-77266314D01*
X152233179Y-77266313D01*
X152358196Y-77254000D01*
X152441804Y-77254000D01*
X152566821Y-77266313D01*
X152566821Y-77266313D01*
G37*
G36*
X144946821Y-77266313D02*
X144946824Y-77266314D01*
X144946825Y-77266314D01*
X145107239Y-77314975D01*
X145107241Y-77314976D01*
X145107244Y-77314977D01*
X145255078Y-77393995D01*
X145384659Y-77500341D01*
X145491005Y-77629922D01*
X145570023Y-77777756D01*
X145570024Y-77777759D01*
X145570025Y-77777761D01*
X145603579Y-77888375D01*
X145618687Y-77938179D01*
X145635117Y-78105000D01*
X145618687Y-78271821D01*
X145618686Y-78271824D01*
X145618686Y-78271825D01*
X145589512Y-78368000D01*
X145570023Y-78432244D01*
X145491005Y-78580078D01*
X145384659Y-78709659D01*
X145255078Y-78816005D01*
X145107244Y-78895023D01*
X145107241Y-78895024D01*
X145107239Y-78895025D01*
X144946825Y-78943686D01*
X144946824Y-78943686D01*
X144946821Y-78943687D01*
X144821804Y-78956000D01*
X144738196Y-78956000D01*
X144613179Y-78943687D01*
X144613176Y-78943686D01*
X144613175Y-78943686D01*
X144452761Y-78895025D01*
X144452759Y-78895024D01*
X144452756Y-78895023D01*
X144304922Y-78816005D01*
X144175341Y-78709659D01*
X144068995Y-78580078D01*
X143989977Y-78432244D01*
X143970489Y-78368000D01*
X143941314Y-78271825D01*
X143941314Y-78271824D01*
X143941313Y-78271821D01*
X143924883Y-78105000D01*
X143941313Y-77938179D01*
X143956421Y-77888375D01*
X143989975Y-77777761D01*
X143989976Y-77777759D01*
X143989977Y-77777756D01*
X144068995Y-77629922D01*
X144175341Y-77500341D01*
X144304922Y-77393995D01*
X144452756Y-77314977D01*
X144452759Y-77314976D01*
X144452761Y-77314975D01*
X144613175Y-77266314D01*
X144613176Y-77266314D01*
X144613179Y-77266313D01*
X144738196Y-77254000D01*
X144821804Y-77254000D01*
X144946821Y-77266313D01*
X144946821Y-77266313D01*
G37*
G36*
X160297142Y-77323242D02*
X160445102Y-77384530D01*
X160505391Y-77424814D01*
X160578257Y-77473501D01*
X160691499Y-77586743D01*
X160715941Y-77623323D01*
X160780470Y-77719898D01*
X160841758Y-77867858D01*
X160873000Y-78024925D01*
X160873000Y-78185075D01*
X160841758Y-78342142D01*
X160813042Y-78411467D01*
X160780471Y-78490100D01*
X160709240Y-78596706D01*
X160691498Y-78623258D01*
X160578258Y-78736498D01*
X160445102Y-78825470D01*
X160297142Y-78886758D01*
X160140075Y-78918000D01*
X159979925Y-78918000D01*
X159822858Y-78886758D01*
X159674898Y-78825470D01*
X159541742Y-78736498D01*
X159428502Y-78623258D01*
X159410761Y-78596706D01*
X159339529Y-78490100D01*
X159306958Y-78411467D01*
X159278242Y-78342142D01*
X159247000Y-78185075D01*
X159247000Y-78024925D01*
X159278242Y-77867858D01*
X159339530Y-77719898D01*
X159404059Y-77623323D01*
X159428501Y-77586743D01*
X159541743Y-77473501D01*
X159614609Y-77424814D01*
X159674898Y-77384530D01*
X159822858Y-77323242D01*
X159979925Y-77292000D01*
X160140075Y-77292000D01*
X160297142Y-77323242D01*
X160297142Y-77323242D01*
G37*
G36*
X137437142Y-77323242D02*
X137585102Y-77384530D01*
X137645391Y-77424814D01*
X137718257Y-77473501D01*
X137831499Y-77586743D01*
X137855941Y-77623323D01*
X137920470Y-77719898D01*
X137981758Y-77867858D01*
X138013000Y-78024925D01*
X138013000Y-78185075D01*
X137981758Y-78342142D01*
X137953042Y-78411467D01*
X137920471Y-78490100D01*
X137849240Y-78596706D01*
X137831498Y-78623258D01*
X137718258Y-78736498D01*
X137585102Y-78825470D01*
X137437142Y-78886758D01*
X137280075Y-78918000D01*
X137119925Y-78918000D01*
X136962858Y-78886758D01*
X136814898Y-78825470D01*
X136681742Y-78736498D01*
X136568502Y-78623258D01*
X136550761Y-78596706D01*
X136479529Y-78490100D01*
X136446958Y-78411467D01*
X136418242Y-78342142D01*
X136387000Y-78185075D01*
X136387000Y-78024925D01*
X136418242Y-77867858D01*
X136479530Y-77719898D01*
X136544059Y-77623323D01*
X136568501Y-77586743D01*
X136681743Y-77473501D01*
X136754609Y-77424814D01*
X136814898Y-77384530D01*
X136962858Y-77323242D01*
X137119925Y-77292000D01*
X137280075Y-77292000D01*
X137437142Y-77323242D01*
X137437142Y-77323242D01*
G37*
G36*
X155749499Y-77583445D02*
X155786993Y-77594819D01*
X155821557Y-77613294D01*
X155851847Y-77638153D01*
X155876706Y-77668443D01*
X155895181Y-77703007D01*
X155906555Y-77740501D01*
X155911000Y-77785638D01*
X155911000Y-78424362D01*
X155906555Y-78469499D01*
X155895181Y-78506993D01*
X155876706Y-78541557D01*
X155851847Y-78571847D01*
X155821557Y-78596706D01*
X155786993Y-78615181D01*
X155749499Y-78626555D01*
X155704362Y-78631000D01*
X154965638Y-78631000D01*
X154920501Y-78626555D01*
X154883007Y-78615181D01*
X154848443Y-78596706D01*
X154818153Y-78571847D01*
X154793294Y-78541557D01*
X154774819Y-78506993D01*
X154763445Y-78469499D01*
X154759000Y-78424362D01*
X154759000Y-77785638D01*
X154763445Y-77740501D01*
X154774819Y-77703007D01*
X154793294Y-77668443D01*
X154818153Y-77638153D01*
X154848443Y-77613294D01*
X154883007Y-77594819D01*
X154920501Y-77583445D01*
X154965638Y-77579000D01*
X155704362Y-77579000D01*
X155749499Y-77583445D01*
X155749499Y-77583445D01*
G37*
G36*
X157499499Y-77583445D02*
X157536993Y-77594819D01*
X157571557Y-77613294D01*
X157601847Y-77638153D01*
X157626706Y-77668443D01*
X157645181Y-77703007D01*
X157656555Y-77740501D01*
X157661000Y-77785638D01*
X157661000Y-78424362D01*
X157656555Y-78469499D01*
X157645181Y-78506993D01*
X157626706Y-78541557D01*
X157601847Y-78571847D01*
X157571557Y-78596706D01*
X157536993Y-78615181D01*
X157499499Y-78626555D01*
X157454362Y-78631000D01*
X156715638Y-78631000D01*
X156670501Y-78626555D01*
X156633007Y-78615181D01*
X156598443Y-78596706D01*
X156568153Y-78571847D01*
X156543294Y-78541557D01*
X156524819Y-78506993D01*
X156513445Y-78469499D01*
X156509000Y-78424362D01*
X156509000Y-77785638D01*
X156513445Y-77740501D01*
X156524819Y-77703007D01*
X156543294Y-77668443D01*
X156568153Y-77638153D01*
X156598443Y-77613294D01*
X156633007Y-77594819D01*
X156670501Y-77583445D01*
X156715638Y-77579000D01*
X157454362Y-77579000D01*
X157499499Y-77583445D01*
X157499499Y-77583445D01*
G37*
G36*
X168088600Y-74667989D02*
X168121649Y-74678014D01*
X168152106Y-74694294D01*
X168178799Y-74716201D01*
X168200706Y-74742894D01*
X168216986Y-74773351D01*
X168227011Y-74806400D01*
X168231000Y-74846904D01*
X168231000Y-76283096D01*
X168227011Y-76323600D01*
X168216986Y-76356649D01*
X168200706Y-76387106D01*
X168178799Y-76413799D01*
X168152106Y-76435706D01*
X168121649Y-76451986D01*
X168088600Y-76462011D01*
X168048096Y-76466000D01*
X166311904Y-76466000D01*
X166271400Y-76462011D01*
X166238351Y-76451986D01*
X166207894Y-76435706D01*
X166181201Y-76413799D01*
X166159294Y-76387106D01*
X166143014Y-76356649D01*
X166132989Y-76323600D01*
X166129000Y-76283096D01*
X166129000Y-74846904D01*
X166132989Y-74806400D01*
X166143014Y-74773351D01*
X166159294Y-74742894D01*
X166181201Y-74716201D01*
X166207894Y-74694294D01*
X166238351Y-74678014D01*
X166271400Y-74667989D01*
X166311904Y-74664000D01*
X168048096Y-74664000D01*
X168088600Y-74667989D01*
X168088600Y-74667989D01*
G37*
G36*
X152566821Y-74726313D02*
X152566824Y-74726314D01*
X152566825Y-74726314D01*
X152727239Y-74774975D01*
X152727241Y-74774976D01*
X152727244Y-74774977D01*
X152875078Y-74853995D01*
X153004659Y-74960341D01*
X153111005Y-75089922D01*
X153190023Y-75237756D01*
X153190024Y-75237759D01*
X153190025Y-75237761D01*
X153238686Y-75398175D01*
X153238687Y-75398179D01*
X153255117Y-75565000D01*
X153238687Y-75731821D01*
X153238686Y-75731824D01*
X153238686Y-75731825D01*
X153209512Y-75828000D01*
X153190023Y-75892244D01*
X153111005Y-76040078D01*
X153004659Y-76169659D01*
X152875078Y-76276005D01*
X152727244Y-76355023D01*
X152727241Y-76355024D01*
X152727239Y-76355025D01*
X152566825Y-76403686D01*
X152566824Y-76403686D01*
X152566821Y-76403687D01*
X152441804Y-76416000D01*
X152358196Y-76416000D01*
X152233179Y-76403687D01*
X152233176Y-76403686D01*
X152233175Y-76403686D01*
X152072761Y-76355025D01*
X152072759Y-76355024D01*
X152072756Y-76355023D01*
X151924922Y-76276005D01*
X151795341Y-76169659D01*
X151688995Y-76040078D01*
X151609977Y-75892244D01*
X151590489Y-75828000D01*
X151561314Y-75731825D01*
X151561314Y-75731824D01*
X151561313Y-75731821D01*
X151544883Y-75565000D01*
X151561313Y-75398179D01*
X151561314Y-75398175D01*
X151609975Y-75237761D01*
X151609976Y-75237759D01*
X151609977Y-75237756D01*
X151688995Y-75089922D01*
X151795341Y-74960341D01*
X151924922Y-74853995D01*
X152072756Y-74774977D01*
X152072759Y-74774976D01*
X152072761Y-74774975D01*
X152233175Y-74726314D01*
X152233176Y-74726314D01*
X152233179Y-74726313D01*
X152358196Y-74714000D01*
X152441804Y-74714000D01*
X152566821Y-74726313D01*
X152566821Y-74726313D01*
G37*
G36*
X144946821Y-74726313D02*
X144946824Y-74726314D01*
X144946825Y-74726314D01*
X145107239Y-74774975D01*
X145107241Y-74774976D01*
X145107244Y-74774977D01*
X145255078Y-74853995D01*
X145384659Y-74960341D01*
X145491005Y-75089922D01*
X145570023Y-75237756D01*
X145570024Y-75237759D01*
X145570025Y-75237761D01*
X145618686Y-75398175D01*
X145618687Y-75398179D01*
X145635117Y-75565000D01*
X145618687Y-75731821D01*
X145618686Y-75731824D01*
X145618686Y-75731825D01*
X145589512Y-75828000D01*
X145570023Y-75892244D01*
X145491005Y-76040078D01*
X145384659Y-76169659D01*
X145255078Y-76276005D01*
X145107244Y-76355023D01*
X145107241Y-76355024D01*
X145107239Y-76355025D01*
X144946825Y-76403686D01*
X144946824Y-76403686D01*
X144946821Y-76403687D01*
X144821804Y-76416000D01*
X144738196Y-76416000D01*
X144613179Y-76403687D01*
X144613176Y-76403686D01*
X144613175Y-76403686D01*
X144452761Y-76355025D01*
X144452759Y-76355024D01*
X144452756Y-76355023D01*
X144304922Y-76276005D01*
X144175341Y-76169659D01*
X144068995Y-76040078D01*
X143989977Y-75892244D01*
X143970489Y-75828000D01*
X143941314Y-75731825D01*
X143941314Y-75731824D01*
X143941313Y-75731821D01*
X143924883Y-75565000D01*
X143941313Y-75398179D01*
X143941314Y-75398175D01*
X143989975Y-75237761D01*
X143989976Y-75237759D01*
X143989977Y-75237756D01*
X144068995Y-75089922D01*
X144175341Y-74960341D01*
X144304922Y-74853995D01*
X144452756Y-74774977D01*
X144452759Y-74774976D01*
X144452761Y-74774975D01*
X144613175Y-74726314D01*
X144613176Y-74726314D01*
X144613179Y-74726313D01*
X144738196Y-74714000D01*
X144821804Y-74714000D01*
X144946821Y-74726313D01*
X144946821Y-74726313D01*
G37*
G36*
X137437142Y-74783242D02*
X137585102Y-74844530D01*
X137634147Y-74877301D01*
X137718257Y-74933501D01*
X137831499Y-75046743D01*
X137855941Y-75083323D01*
X137920470Y-75179898D01*
X137981758Y-75327858D01*
X138013000Y-75484925D01*
X138013000Y-75645075D01*
X137981758Y-75802142D01*
X137971047Y-75828000D01*
X137920471Y-75950100D01*
X137831499Y-76083257D01*
X137718257Y-76196499D01*
X137652130Y-76240683D01*
X137585102Y-76285470D01*
X137437142Y-76346758D01*
X137280075Y-76378000D01*
X137119925Y-76378000D01*
X136962858Y-76346758D01*
X136814898Y-76285470D01*
X136747870Y-76240683D01*
X136681743Y-76196499D01*
X136568501Y-76083257D01*
X136479529Y-75950100D01*
X136428953Y-75828000D01*
X136418242Y-75802142D01*
X136387000Y-75645075D01*
X136387000Y-75484925D01*
X136418242Y-75327858D01*
X136479530Y-75179898D01*
X136544059Y-75083323D01*
X136568501Y-75046743D01*
X136681743Y-74933501D01*
X136765853Y-74877301D01*
X136814898Y-74844530D01*
X136962858Y-74783242D01*
X137119925Y-74752000D01*
X137280075Y-74752000D01*
X137437142Y-74783242D01*
X137437142Y-74783242D01*
G37*
G36*
X160297142Y-74783242D02*
X160445102Y-74844530D01*
X160494147Y-74877301D01*
X160578257Y-74933501D01*
X160691499Y-75046743D01*
X160715941Y-75083323D01*
X160780470Y-75179898D01*
X160841758Y-75327858D01*
X160873000Y-75484925D01*
X160873000Y-75645075D01*
X160841758Y-75802142D01*
X160831047Y-75828000D01*
X160780471Y-75950100D01*
X160691499Y-76083257D01*
X160578257Y-76196499D01*
X160512130Y-76240683D01*
X160445102Y-76285470D01*
X160297142Y-76346758D01*
X160140075Y-76378000D01*
X159979925Y-76378000D01*
X159822858Y-76346758D01*
X159674898Y-76285470D01*
X159607870Y-76240683D01*
X159541743Y-76196499D01*
X159428501Y-76083257D01*
X159339529Y-75950100D01*
X159288953Y-75828000D01*
X159278242Y-75802142D01*
X159247000Y-75645075D01*
X159247000Y-75484925D01*
X159278242Y-75327858D01*
X159339530Y-75179898D01*
X159404059Y-75083323D01*
X159428501Y-75046743D01*
X159541743Y-74933501D01*
X159625853Y-74877301D01*
X159674898Y-74844530D01*
X159822858Y-74783242D01*
X159979925Y-74752000D01*
X160140075Y-74752000D01*
X160297142Y-74783242D01*
X160297142Y-74783242D01*
G37*
G36*
X140509499Y-75043445D02*
X140546993Y-75054819D01*
X140581557Y-75073294D01*
X140611847Y-75098153D01*
X140636706Y-75128443D01*
X140655181Y-75163007D01*
X140666555Y-75200501D01*
X140671000Y-75245638D01*
X140671000Y-75884362D01*
X140666555Y-75929499D01*
X140655181Y-75966993D01*
X140636706Y-76001557D01*
X140611847Y-76031847D01*
X140581557Y-76056706D01*
X140546993Y-76075181D01*
X140509499Y-76086555D01*
X140464362Y-76091000D01*
X139725638Y-76091000D01*
X139680501Y-76086555D01*
X139643007Y-76075181D01*
X139608443Y-76056706D01*
X139578153Y-76031847D01*
X139553294Y-76001557D01*
X139534819Y-75966993D01*
X139523445Y-75929499D01*
X139519000Y-75884362D01*
X139519000Y-75245638D01*
X139523445Y-75200501D01*
X139534819Y-75163007D01*
X139553294Y-75128443D01*
X139578153Y-75098153D01*
X139608443Y-75073294D01*
X139643007Y-75054819D01*
X139680501Y-75043445D01*
X139725638Y-75039000D01*
X140464362Y-75039000D01*
X140509499Y-75043445D01*
X140509499Y-75043445D01*
G37*
G36*
X142259499Y-75043445D02*
X142296993Y-75054819D01*
X142331557Y-75073294D01*
X142361847Y-75098153D01*
X142386706Y-75128443D01*
X142405181Y-75163007D01*
X142416555Y-75200501D01*
X142421000Y-75245638D01*
X142421000Y-75884362D01*
X142416555Y-75929499D01*
X142405181Y-75966993D01*
X142386706Y-76001557D01*
X142361847Y-76031847D01*
X142331557Y-76056706D01*
X142296993Y-76075181D01*
X142259499Y-76086555D01*
X142214362Y-76091000D01*
X141475638Y-76091000D01*
X141430501Y-76086555D01*
X141393007Y-76075181D01*
X141358443Y-76056706D01*
X141328153Y-76031847D01*
X141303294Y-76001557D01*
X141284819Y-75966993D01*
X141273445Y-75929499D01*
X141269000Y-75884362D01*
X141269000Y-75245638D01*
X141273445Y-75200501D01*
X141284819Y-75163007D01*
X141303294Y-75128443D01*
X141328153Y-75098153D01*
X141358443Y-75073294D01*
X141393007Y-75054819D01*
X141430501Y-75043445D01*
X141475638Y-75039000D01*
X142214362Y-75039000D01*
X142259499Y-75043445D01*
X142259499Y-75043445D01*
G37*
G36*
X155749499Y-75043445D02*
X155786993Y-75054819D01*
X155821557Y-75073294D01*
X155851847Y-75098153D01*
X155876706Y-75128443D01*
X155895181Y-75163007D01*
X155906555Y-75200501D01*
X155911000Y-75245638D01*
X155911000Y-75884362D01*
X155906555Y-75929499D01*
X155895181Y-75966993D01*
X155876706Y-76001557D01*
X155851847Y-76031847D01*
X155821557Y-76056706D01*
X155786993Y-76075181D01*
X155749499Y-76086555D01*
X155704362Y-76091000D01*
X154965638Y-76091000D01*
X154920501Y-76086555D01*
X154883007Y-76075181D01*
X154848443Y-76056706D01*
X154818153Y-76031847D01*
X154793294Y-76001557D01*
X154774819Y-75966993D01*
X154763445Y-75929499D01*
X154759000Y-75884362D01*
X154759000Y-75245638D01*
X154763445Y-75200501D01*
X154774819Y-75163007D01*
X154793294Y-75128443D01*
X154818153Y-75098153D01*
X154848443Y-75073294D01*
X154883007Y-75054819D01*
X154920501Y-75043445D01*
X154965638Y-75039000D01*
X155704362Y-75039000D01*
X155749499Y-75043445D01*
X155749499Y-75043445D01*
G37*
G36*
X157499499Y-75043445D02*
X157536993Y-75054819D01*
X157571557Y-75073294D01*
X157601847Y-75098153D01*
X157626706Y-75128443D01*
X157645181Y-75163007D01*
X157656555Y-75200501D01*
X157661000Y-75245638D01*
X157661000Y-75884362D01*
X157656555Y-75929499D01*
X157645181Y-75966993D01*
X157626706Y-76001557D01*
X157601847Y-76031847D01*
X157571557Y-76056706D01*
X157536993Y-76075181D01*
X157499499Y-76086555D01*
X157454362Y-76091000D01*
X156715638Y-76091000D01*
X156670501Y-76086555D01*
X156633007Y-76075181D01*
X156598443Y-76056706D01*
X156568153Y-76031847D01*
X156543294Y-76001557D01*
X156524819Y-75966993D01*
X156513445Y-75929499D01*
X156509000Y-75884362D01*
X156509000Y-75245638D01*
X156513445Y-75200501D01*
X156524819Y-75163007D01*
X156543294Y-75128443D01*
X156568153Y-75098153D01*
X156598443Y-75073294D01*
X156633007Y-75054819D01*
X156670501Y-75043445D01*
X156715638Y-75039000D01*
X157454362Y-75039000D01*
X157499499Y-75043445D01*
X157499499Y-75043445D01*
G37*
G36*
X145631000Y-73876000D02*
X143929000Y-73876000D01*
X143929000Y-72174000D01*
X145631000Y-72174000D01*
X145631000Y-73876000D01*
X145631000Y-73876000D01*
G37*
G36*
X152566821Y-72186313D02*
X152566824Y-72186314D01*
X152566825Y-72186314D01*
X152727239Y-72234975D01*
X152727241Y-72234976D01*
X152727244Y-72234977D01*
X152875078Y-72313995D01*
X153004659Y-72420341D01*
X153111005Y-72549922D01*
X153190023Y-72697756D01*
X153190024Y-72697759D01*
X153190025Y-72697761D01*
X153238686Y-72858175D01*
X153238687Y-72858179D01*
X153255117Y-73025000D01*
X153238687Y-73191821D01*
X153238686Y-73191824D01*
X153238686Y-73191825D01*
X153209512Y-73288000D01*
X153190023Y-73352244D01*
X153111005Y-73500078D01*
X153004659Y-73629659D01*
X152875078Y-73736005D01*
X152727244Y-73815023D01*
X152727241Y-73815024D01*
X152727239Y-73815025D01*
X152566825Y-73863686D01*
X152566824Y-73863686D01*
X152566821Y-73863687D01*
X152441804Y-73876000D01*
X152358196Y-73876000D01*
X152233179Y-73863687D01*
X152233176Y-73863686D01*
X152233175Y-73863686D01*
X152072761Y-73815025D01*
X152072759Y-73815024D01*
X152072756Y-73815023D01*
X151924922Y-73736005D01*
X151795341Y-73629659D01*
X151688995Y-73500078D01*
X151609977Y-73352244D01*
X151590489Y-73288000D01*
X151561314Y-73191825D01*
X151561314Y-73191824D01*
X151561313Y-73191821D01*
X151544883Y-73025000D01*
X151561313Y-72858179D01*
X151561314Y-72858175D01*
X151609975Y-72697761D01*
X151609976Y-72697759D01*
X151609977Y-72697756D01*
X151688995Y-72549922D01*
X151795341Y-72420341D01*
X151924922Y-72313995D01*
X152072756Y-72234977D01*
X152072759Y-72234976D01*
X152072761Y-72234975D01*
X152233175Y-72186314D01*
X152233176Y-72186314D01*
X152233179Y-72186313D01*
X152358196Y-72174000D01*
X152441804Y-72174000D01*
X152566821Y-72186313D01*
X152566821Y-72186313D01*
G37*
G36*
X160297142Y-72243242D02*
X160445102Y-72304530D01*
X160469797Y-72321031D01*
X160578257Y-72393501D01*
X160691499Y-72506743D01*
X160715941Y-72543323D01*
X160780470Y-72639898D01*
X160841758Y-72787858D01*
X160873000Y-72944925D01*
X160873000Y-73105075D01*
X160841758Y-73262142D01*
X160809794Y-73339309D01*
X160780471Y-73410100D01*
X160709240Y-73516706D01*
X160691498Y-73543258D01*
X160578258Y-73656498D01*
X160445102Y-73745470D01*
X160297142Y-73806758D01*
X160140075Y-73838000D01*
X159979925Y-73838000D01*
X159822858Y-73806758D01*
X159674898Y-73745470D01*
X159541742Y-73656498D01*
X159428502Y-73543258D01*
X159410761Y-73516706D01*
X159339529Y-73410100D01*
X159310206Y-73339309D01*
X159278242Y-73262142D01*
X159247000Y-73105075D01*
X159247000Y-72944925D01*
X159278242Y-72787858D01*
X159339530Y-72639898D01*
X159404059Y-72543323D01*
X159428501Y-72506743D01*
X159541743Y-72393501D01*
X159650203Y-72321031D01*
X159674898Y-72304530D01*
X159822858Y-72243242D01*
X159979925Y-72212000D01*
X160140075Y-72212000D01*
X160297142Y-72243242D01*
X160297142Y-72243242D01*
G37*
G36*
X137437142Y-72243242D02*
X137585102Y-72304530D01*
X137609797Y-72321031D01*
X137718257Y-72393501D01*
X137831499Y-72506743D01*
X137855941Y-72543323D01*
X137920470Y-72639898D01*
X137981758Y-72787858D01*
X138013000Y-72944925D01*
X138013000Y-73105075D01*
X137981758Y-73262142D01*
X137949794Y-73339309D01*
X137920471Y-73410100D01*
X137849240Y-73516706D01*
X137831498Y-73543258D01*
X137718258Y-73656498D01*
X137585102Y-73745470D01*
X137437142Y-73806758D01*
X137280075Y-73838000D01*
X137119925Y-73838000D01*
X136962858Y-73806758D01*
X136814898Y-73745470D01*
X136681742Y-73656498D01*
X136568502Y-73543258D01*
X136550761Y-73516706D01*
X136479529Y-73410100D01*
X136450206Y-73339309D01*
X136418242Y-73262142D01*
X136387000Y-73105075D01*
X136387000Y-72944925D01*
X136418242Y-72787858D01*
X136479530Y-72639898D01*
X136544059Y-72543323D01*
X136568501Y-72506743D01*
X136681743Y-72393501D01*
X136790203Y-72321031D01*
X136814898Y-72304530D01*
X136962858Y-72243242D01*
X137119925Y-72212000D01*
X137280075Y-72212000D01*
X137437142Y-72243242D01*
X137437142Y-72243242D01*
G37*
G36*
X142259499Y-72503445D02*
X142296993Y-72514819D01*
X142331557Y-72533294D01*
X142361847Y-72558153D01*
X142386706Y-72588443D01*
X142405181Y-72623007D01*
X142416555Y-72660501D01*
X142421000Y-72705638D01*
X142421000Y-73344362D01*
X142416555Y-73389499D01*
X142405181Y-73426993D01*
X142386706Y-73461557D01*
X142361847Y-73491847D01*
X142331557Y-73516706D01*
X142296993Y-73535181D01*
X142259499Y-73546555D01*
X142214362Y-73551000D01*
X141475638Y-73551000D01*
X141430501Y-73546555D01*
X141393007Y-73535181D01*
X141358443Y-73516706D01*
X141328153Y-73491847D01*
X141303294Y-73461557D01*
X141284819Y-73426993D01*
X141273445Y-73389499D01*
X141269000Y-73344362D01*
X141269000Y-72705638D01*
X141273445Y-72660501D01*
X141284819Y-72623007D01*
X141303294Y-72588443D01*
X141328153Y-72558153D01*
X141358443Y-72533294D01*
X141393007Y-72514819D01*
X141430501Y-72503445D01*
X141475638Y-72499000D01*
X142214362Y-72499000D01*
X142259499Y-72503445D01*
X142259499Y-72503445D01*
G37*
G36*
X140509499Y-72503445D02*
X140546993Y-72514819D01*
X140581557Y-72533294D01*
X140611847Y-72558153D01*
X140636706Y-72588443D01*
X140655181Y-72623007D01*
X140666555Y-72660501D01*
X140671000Y-72705638D01*
X140671000Y-73344362D01*
X140666555Y-73389499D01*
X140655181Y-73426993D01*
X140636706Y-73461557D01*
X140611847Y-73491847D01*
X140581557Y-73516706D01*
X140546993Y-73535181D01*
X140509499Y-73546555D01*
X140464362Y-73551000D01*
X139725638Y-73551000D01*
X139680501Y-73546555D01*
X139643007Y-73535181D01*
X139608443Y-73516706D01*
X139578153Y-73491847D01*
X139553294Y-73461557D01*
X139534819Y-73426993D01*
X139523445Y-73389499D01*
X139519000Y-73344362D01*
X139519000Y-72705638D01*
X139523445Y-72660501D01*
X139534819Y-72623007D01*
X139553294Y-72588443D01*
X139578153Y-72558153D01*
X139608443Y-72533294D01*
X139643007Y-72514819D01*
X139680501Y-72503445D01*
X139725638Y-72499000D01*
X140464362Y-72499000D01*
X140509499Y-72503445D01*
X140509499Y-72503445D01*
G37*
G36*
X157484499Y-72248445D02*
X157521993Y-72259819D01*
X157556557Y-72278294D01*
X157586847Y-72303153D01*
X157611706Y-72333443D01*
X157630181Y-72368007D01*
X157641555Y-72405501D01*
X157646000Y-72450638D01*
X157646000Y-73189362D01*
X157641555Y-73234499D01*
X157630181Y-73271993D01*
X157611706Y-73306557D01*
X157586847Y-73336847D01*
X157556557Y-73361706D01*
X157521993Y-73380181D01*
X157484499Y-73391555D01*
X157439362Y-73396000D01*
X156800638Y-73396000D01*
X156755501Y-73391555D01*
X156718007Y-73380181D01*
X156683443Y-73361706D01*
X156653153Y-73336847D01*
X156628294Y-73306557D01*
X156609819Y-73271993D01*
X156598445Y-73234499D01*
X156594000Y-73189362D01*
X156594000Y-72450638D01*
X156598445Y-72405501D01*
X156609819Y-72368007D01*
X156628294Y-72333443D01*
X156653153Y-72303153D01*
X156683443Y-72278294D01*
X156718007Y-72259819D01*
X156755501Y-72248445D01*
X156800638Y-72244000D01*
X157439362Y-72244000D01*
X157484499Y-72248445D01*
X157484499Y-72248445D01*
G37*
G36*
X155484499Y-72248445D02*
X155521993Y-72259819D01*
X155556557Y-72278294D01*
X155586847Y-72303153D01*
X155611706Y-72333443D01*
X155630181Y-72368007D01*
X155641555Y-72405501D01*
X155646000Y-72450638D01*
X155646000Y-73189362D01*
X155641555Y-73234499D01*
X155630181Y-73271993D01*
X155611706Y-73306557D01*
X155586847Y-73336847D01*
X155556557Y-73361706D01*
X155521993Y-73380181D01*
X155484499Y-73391555D01*
X155439362Y-73396000D01*
X154800638Y-73396000D01*
X154755501Y-73391555D01*
X154718007Y-73380181D01*
X154683443Y-73361706D01*
X154653153Y-73336847D01*
X154628294Y-73306557D01*
X154609819Y-73271993D01*
X154598445Y-73234499D01*
X154594000Y-73189362D01*
X154594000Y-72450638D01*
X154598445Y-72405501D01*
X154609819Y-72368007D01*
X154628294Y-72333443D01*
X154653153Y-72303153D01*
X154683443Y-72278294D01*
X154718007Y-72259819D01*
X154755501Y-72248445D01*
X154800638Y-72244000D01*
X155439362Y-72244000D01*
X155484499Y-72248445D01*
X155484499Y-72248445D01*
G37*
G36*
X157484499Y-70498445D02*
X157521993Y-70509819D01*
X157556557Y-70528294D01*
X157586847Y-70553153D01*
X157611706Y-70583443D01*
X157630181Y-70618007D01*
X157641555Y-70655501D01*
X157646000Y-70700638D01*
X157646000Y-71439362D01*
X157641555Y-71484499D01*
X157630181Y-71521993D01*
X157611706Y-71556557D01*
X157586847Y-71586847D01*
X157556557Y-71611706D01*
X157521993Y-71630181D01*
X157484499Y-71641555D01*
X157439362Y-71646000D01*
X156800638Y-71646000D01*
X156755501Y-71641555D01*
X156718007Y-71630181D01*
X156683443Y-71611706D01*
X156653153Y-71586847D01*
X156628294Y-71556557D01*
X156609819Y-71521993D01*
X156598445Y-71484499D01*
X156594000Y-71439362D01*
X156594000Y-70700638D01*
X156598445Y-70655501D01*
X156609819Y-70618007D01*
X156628294Y-70583443D01*
X156653153Y-70553153D01*
X156683443Y-70528294D01*
X156718007Y-70509819D01*
X156755501Y-70498445D01*
X156800638Y-70494000D01*
X157439362Y-70494000D01*
X157484499Y-70498445D01*
X157484499Y-70498445D01*
G37*
G36*
X155484499Y-70498445D02*
X155521993Y-70509819D01*
X155556557Y-70528294D01*
X155586847Y-70553153D01*
X155611706Y-70583443D01*
X155630181Y-70618007D01*
X155641555Y-70655501D01*
X155646000Y-70700638D01*
X155646000Y-71439362D01*
X155641555Y-71484499D01*
X155630181Y-71521993D01*
X155611706Y-71556557D01*
X155586847Y-71586847D01*
X155556557Y-71611706D01*
X155521993Y-71630181D01*
X155484499Y-71641555D01*
X155439362Y-71646000D01*
X154800638Y-71646000D01*
X154755501Y-71641555D01*
X154718007Y-71630181D01*
X154683443Y-71611706D01*
X154653153Y-71586847D01*
X154628294Y-71556557D01*
X154609819Y-71521993D01*
X154598445Y-71484499D01*
X154594000Y-71439362D01*
X154594000Y-70700638D01*
X154598445Y-70655501D01*
X154609819Y-70618007D01*
X154628294Y-70583443D01*
X154653153Y-70553153D01*
X154683443Y-70528294D01*
X154718007Y-70509819D01*
X154755501Y-70498445D01*
X154800638Y-70494000D01*
X155439362Y-70494000D01*
X155484499Y-70498445D01*
X155484499Y-70498445D01*
G37*
G36*
X167440443Y-69550519D02*
X167506627Y-69557037D01*
X167619853Y-69591384D01*
X167676467Y-69608557D01*
X167795159Y-69672000D01*
X167832991Y-69692222D01*
X167846420Y-69703243D01*
X167970186Y-69804814D01*
X168053448Y-69906271D01*
X168082778Y-69942009D01*
X168082779Y-69942011D01*
X168166443Y-70098533D01*
X168183616Y-70155147D01*
X168217963Y-70268373D01*
X168235359Y-70445000D01*
X168217963Y-70621627D01*
X168187472Y-70722142D01*
X168166443Y-70791467D01*
X168124412Y-70870100D01*
X168082778Y-70947991D01*
X168053448Y-70983729D01*
X167970186Y-71085186D01*
X167868729Y-71168448D01*
X167832991Y-71197778D01*
X167815087Y-71207348D01*
X167676467Y-71281443D01*
X167621885Y-71298000D01*
X167506627Y-71332963D01*
X167440443Y-71339481D01*
X167374260Y-71346000D01*
X166985740Y-71346000D01*
X166919557Y-71339481D01*
X166853373Y-71332963D01*
X166738115Y-71298000D01*
X166683533Y-71281443D01*
X166544913Y-71207348D01*
X166527009Y-71197778D01*
X166491271Y-71168448D01*
X166389814Y-71085186D01*
X166306552Y-70983729D01*
X166277222Y-70947991D01*
X166235588Y-70870100D01*
X166193557Y-70791467D01*
X166172528Y-70722142D01*
X166142037Y-70621627D01*
X166124641Y-70445000D01*
X166142037Y-70268373D01*
X166176384Y-70155147D01*
X166193557Y-70098533D01*
X166277221Y-69942011D01*
X166277222Y-69942009D01*
X166306552Y-69906271D01*
X166389814Y-69804814D01*
X166513580Y-69703243D01*
X166527009Y-69692222D01*
X166564841Y-69672000D01*
X166683533Y-69608557D01*
X166740147Y-69591384D01*
X166853373Y-69557037D01*
X166919557Y-69550519D01*
X166985740Y-69544000D01*
X167374260Y-69544000D01*
X167440443Y-69550519D01*
X167440443Y-69550519D01*
G37*
G36*
X160297142Y-69703242D02*
X160445102Y-69764530D01*
X160578258Y-69853502D01*
X160691498Y-69966742D01*
X160780470Y-70099898D01*
X160841758Y-70247858D01*
X160873000Y-70404925D01*
X160873000Y-70565075D01*
X160841758Y-70722142D01*
X160780470Y-70870102D01*
X160691498Y-71003258D01*
X160578258Y-71116498D01*
X160445102Y-71205470D01*
X160297142Y-71266758D01*
X160140075Y-71298000D01*
X159979925Y-71298000D01*
X159822858Y-71266758D01*
X159674898Y-71205470D01*
X159541742Y-71116498D01*
X159428502Y-71003258D01*
X159339530Y-70870102D01*
X159278242Y-70722142D01*
X159247000Y-70565075D01*
X159247000Y-70404925D01*
X159278242Y-70247858D01*
X159339530Y-70099898D01*
X159428502Y-69966742D01*
X159541742Y-69853502D01*
X159674898Y-69764530D01*
X159822858Y-69703242D01*
X159979925Y-69672000D01*
X160140075Y-69672000D01*
X160297142Y-69703242D01*
X160297142Y-69703242D01*
G37*
G36*
X137437142Y-69703242D02*
X137585102Y-69764530D01*
X137718258Y-69853502D01*
X137831498Y-69966742D01*
X137920470Y-70099898D01*
X137981758Y-70247858D01*
X138013000Y-70404925D01*
X138013000Y-70565075D01*
X137981758Y-70722142D01*
X137920470Y-70870102D01*
X137831498Y-71003258D01*
X137718258Y-71116498D01*
X137585102Y-71205470D01*
X137437142Y-71266758D01*
X137280075Y-71298000D01*
X137119925Y-71298000D01*
X136962858Y-71266758D01*
X136814898Y-71205470D01*
X136681742Y-71116498D01*
X136568502Y-71003258D01*
X136479530Y-70870102D01*
X136418242Y-70722142D01*
X136387000Y-70565075D01*
X136387000Y-70404925D01*
X136418242Y-70247858D01*
X136479530Y-70099898D01*
X136568502Y-69966742D01*
X136681742Y-69853502D01*
X136814898Y-69764530D01*
X136962858Y-69703242D01*
X137119925Y-69672000D01*
X137280075Y-69672000D01*
X137437142Y-69703242D01*
X137437142Y-69703242D01*
G37*
G36*
X168088600Y-67047989D02*
X168121649Y-67058014D01*
X168152106Y-67074294D01*
X168178799Y-67096201D01*
X168200706Y-67122894D01*
X168216986Y-67153351D01*
X168227011Y-67186400D01*
X168231000Y-67226904D01*
X168231000Y-68663096D01*
X168227011Y-68703600D01*
X168216986Y-68736649D01*
X168200706Y-68767106D01*
X168178799Y-68793799D01*
X168152106Y-68815706D01*
X168121649Y-68831986D01*
X168088600Y-68842011D01*
X168048096Y-68846000D01*
X166311904Y-68846000D01*
X166271400Y-68842011D01*
X166238351Y-68831986D01*
X166207894Y-68815706D01*
X166181201Y-68793799D01*
X166159294Y-68767106D01*
X166143014Y-68736649D01*
X166132989Y-68703600D01*
X166129000Y-68663096D01*
X166129000Y-67226904D01*
X166132989Y-67186400D01*
X166143014Y-67153351D01*
X166159294Y-67122894D01*
X166181201Y-67096201D01*
X166207894Y-67074294D01*
X166238351Y-67058014D01*
X166271400Y-67047989D01*
X166311904Y-67044000D01*
X168048096Y-67044000D01*
X168088600Y-67047989D01*
X168088600Y-67047989D01*
G37*
G36*
X160297142Y-67163242D02*
X160445102Y-67224530D01*
X160494147Y-67257301D01*
X160571521Y-67309000D01*
X160578258Y-67313502D01*
X160691498Y-67426742D01*
X160780470Y-67559898D01*
X160841758Y-67707858D01*
X160873000Y-67864925D01*
X160873000Y-68025075D01*
X160841758Y-68182142D01*
X160794354Y-68296583D01*
X160780471Y-68330100D01*
X160691499Y-68463257D01*
X160578257Y-68576499D01*
X160512130Y-68620683D01*
X160445102Y-68665470D01*
X160297142Y-68726758D01*
X160140075Y-68758000D01*
X159979925Y-68758000D01*
X159822858Y-68726758D01*
X159674898Y-68665470D01*
X159607870Y-68620683D01*
X159541743Y-68576499D01*
X159428501Y-68463257D01*
X159339529Y-68330100D01*
X159325646Y-68296583D01*
X159278242Y-68182142D01*
X159247000Y-68025075D01*
X159247000Y-67864925D01*
X159278242Y-67707858D01*
X159339530Y-67559898D01*
X159428502Y-67426742D01*
X159541742Y-67313502D01*
X159548480Y-67309000D01*
X159625853Y-67257301D01*
X159674898Y-67224530D01*
X159822858Y-67163242D01*
X159979925Y-67132000D01*
X160140075Y-67132000D01*
X160297142Y-67163242D01*
X160297142Y-67163242D01*
G37*
G36*
X137437142Y-67163242D02*
X137585102Y-67224530D01*
X137634147Y-67257301D01*
X137711521Y-67309000D01*
X137718258Y-67313502D01*
X137831498Y-67426742D01*
X137920470Y-67559898D01*
X137981758Y-67707858D01*
X138013000Y-67864925D01*
X138013000Y-68025075D01*
X137981758Y-68182142D01*
X137934354Y-68296583D01*
X137920471Y-68330100D01*
X137831499Y-68463257D01*
X137718257Y-68576499D01*
X137652130Y-68620683D01*
X137585102Y-68665470D01*
X137437142Y-68726758D01*
X137280075Y-68758000D01*
X137119925Y-68758000D01*
X136962858Y-68726758D01*
X136814898Y-68665470D01*
X136747870Y-68620683D01*
X136681743Y-68576499D01*
X136568501Y-68463257D01*
X136479529Y-68330100D01*
X136465646Y-68296583D01*
X136418242Y-68182142D01*
X136387000Y-68025075D01*
X136387000Y-67864925D01*
X136418242Y-67707858D01*
X136479530Y-67559898D01*
X136568502Y-67426742D01*
X136681742Y-67313502D01*
X136688480Y-67309000D01*
X136765853Y-67257301D01*
X136814898Y-67224530D01*
X136962858Y-67163242D01*
X137119925Y-67132000D01*
X137280075Y-67132000D01*
X137437142Y-67163242D01*
X137437142Y-67163242D01*
G37*
M02*
